<svg id="Calque_2" data-name="Calque 2" xmlns="http://www.w3.org/2000/svg" viewBox="0 0 303 208"><defs><style>.cls-1{fill:#8cbef9;}.cls-2{fill:#8dbef9;}.cls-3{fill:#8ebff9;}.cls-4{fill:#8fbff9;}.cls-5{fill:#90c0f9;}.cls-6{fill:#91c0f9;}.cls-7{fill:#92c1fa;}.cls-8{fill:#93c1fa;}.cls-9{fill:#94c2fa;}.cls-10{fill:#95c2fa;}.cls-11{fill:#96c3fa;}.cls-12{fill:#97c3fa;}.cls-13{fill:#98c4fa;}.cls-14{fill:#99c4fa;}.cls-15{fill:#9ac5fa;}.cls-16{fill:#9bc5fa;}.cls-17{fill:#9cc6fa;}.cls-18{fill:#9dc6fa;}.cls-19{fill:#9ec7fb;}.cls-20{fill:#9fc7fb;}.cls-21{fill:#a0c8fb;}.cls-22{fill:#a1c8fb;}.cls-23{fill:#a2c9fb;}.cls-24{fill:#a3c9fb;}.cls-25{fill:#a4cafb;}.cls-26{fill:#a5cafb;}.cls-27{fill:#a6cbfb;}.cls-28{fill:#a7cbfb;}.cls-29{fill:#a8ccfb;}.cls-30{fill:#a9ccfb;}.cls-31{fill:#a9cdfc;}.cls-32{fill:#aacdfc;}.cls-33{fill:#abcefc;}.cls-34{fill:#accefc;}.cls-35{fill:#adcffc;}.cls-36{fill:#aecffc;}.cls-37{fill:#afd0fc;}.cls-38{fill:#b0d0fc;}.cls-39{fill:#b1d1fc;}.cls-40{fill:#b2d1fc;}.cls-41{fill:#b3d2fc;}.cls-42{fill:#b4d2fc;}.cls-43{fill:#b5d3fd;}.cls-44{fill:#b6d3fd;}.cls-45{fill:#b7d4fd;}.cls-46{fill:#b8d4fd;}.cls-47{fill:#b9d5fd;}.cls-48{fill:#bad5fd;}.cls-49{fill:#bbd6fd;}.cls-50{fill:#bcd6fd;}.cls-51{fill:#bdd7fd;}.cls-52{fill:#bed7fd;}.cls-53{fill:#bfd8fd;}.cls-54{fill:#c0d8fd;}.cls-55{fill:#c1d9fe;}.cls-56{fill:#c2d9fe;}.cls-57{fill:#c3dafe;}.cls-58{fill:#c4dafe;}.cls-59{fill:#c5dbfe;}.cls-60{fill:#c6dbfe;}.cls-61{fill:#fefefe;}.cls-62{fill:#b2d5fe;}.cls-63{fill:#feb684;}.cls-64{fill:#6fa6d5;}.cls-65{fill:#323352;}.cls-66{fill:#d6e9fe;}.cls-67{fill:#0c122d;}.cls-68{fill:#f58940;}.cls-69{fill:#101344;}.cls-70{fill:#f0f7fe;}.cls-71{fill:#203b6c;}.cls-72{fill:#fdfdfe;}.cls-73{fill:#1e3055;}</style></defs><title>icons</title><path class="cls-1" d="M254,72.39c0-23.09-40.12-60.82-89.6-68.09S74.76,39.53,74.76,115.4c0,36.33,10,69.07,26.24,81.85,16.21,13.68,38.61,7.4,63.35-13.76s47.14-47.5,63.35-66.25C243.92,97.6,254,85.54,254,72.39Z"/><path class="cls-2" d="M163.78,4.85c-49-6.33-88.73,35.28-89.32,110.25-.28,36.09,9.71,68.21,25.84,81.18,16.54,13.3,39.05,7.57,64.07-13.23s47.76-46.76,63.71-65.67C244.47,98,254.14,85.64,254,72.43c-.14-12.16-11.38-28.32-29-41.95A135,135,0,0,0,195.4,13.25,120.75,120.75,0,0,0,163.78,4.85Z"/><path class="cls-3" d="M163.21,5.39C114.65,0,75.34,40.74,74.17,114.8c-.57,35.85,9.16,67.62,25.42,80.51,16.66,13.2,39.51,7.74,64.8-12.7s48.16-46.2,64.07-65.09c16.35-19.39,25.88-31.77,25.54-45-.28-12.22-11.74-28.43-29.39-42a135.69,135.69,0,0,0-29.75-17.27A115,115,0,0,0,163.21,5.39Z"/><path class="cls-4" d="M162.63,5.93c-48.07-4.53-87,35.42-88.76,108.57-.85,35.61,8.62,67,25,79.84,16.76,13.1,40,7.91,65.52-12.16s48.56-45.65,64.43-64.51c16.3-19.37,25.7-31.81,25.19-45.15C253.61,60.24,242,44,224.27,30.43a134.71,134.71,0,0,0-29.94-17.29C184.63,9.15,174.17,7,162.63,5.93Z"/><path class="cls-5" d="M162.06,6.48C114.49,2.79,75.9,42,73.58,114.2c-1.14,35.37,8.08,66.43,24.6,79.16,16.87,13,40.4,8.09,66.25-11.62s49-45.1,64.79-63.93C245.48,98.47,254.73,86,254.06,72.56c-.56-12.33-12.41-28.67-30.14-42.15a133.53,133.53,0,0,0-30.13-17.32C184.14,9.15,173.75,7.38,162.06,6.48Z"/><path class="cls-6" d="M161.49,7C114.43,4.16,76.17,42.58,73.28,113.9c-1.42,35.13,7.54,65.84,24.2,78.49,17,12.9,40.84,8.26,67-11.09S213.81,136.76,229.6,118c16.21-19.31,25.33-31.88,24.49-45.35-.71-12.39-12.77-28.77-30.51-42.22A133.51,133.51,0,0,0,193.26,13C183.65,9.16,173.33,7.74,161.49,7Z"/><path class="cls-7" d="M160.91,7.56C114.38,5.5,76.44,43.2,73,113.6c-1.72,34.9,7,65.25,23.78,77.82,17.09,12.8,41.29,8.43,67.71-10.56s49.75-44,65.5-62.76c16.16-19.29,25.15-31.92,24.14-45.46C253.27,60.2,241,43.77,223.23,30.36A132.65,132.65,0,0,0,192.72,13C183.16,9.17,172.92,8.1,160.91,7.56Z"/><path class="cls-8" d="M160.34,8.11c-46-1.3-83.63,35.71-87.65,105.19-2,34.66,6.46,64.65,23.38,77.15,17.19,12.69,41.74,8.6,68.43-10s50.15-43.44,65.86-62.19c16.12-19.26,25-32,23.79-45.55-1-12.51-13.47-29-31.26-42.36a132.49,132.49,0,0,0-30.7-17.4C182.67,9.18,172.51,8.45,160.34,8.11Z"/><path class="cls-9" d="M159.77,8.65C114.32,8.09,77,44.44,72.4,113c-2.3,34.43,5.92,64.06,23,76.47,17.3,12.6,42.18,8.77,69.15-9.48s50.55-42.88,66.22-61.61c16.07-19.22,24.78-32,23.44-45.65-1.13-12.56-13.82-29.09-31.64-42.42a131.91,131.91,0,0,0-30.88-17.43C182.18,9.2,172.11,8.8,159.77,8.65Z"/><path class="cls-10" d="M159.19,9.2c-44.89.14-82,35.87-87.09,103.5-2.59,34.2,5.38,63.47,22.56,75.8,17.41,12.5,42.63,8.94,69.88-8.95s51-42.32,66.57-61c16-19.19,24.61-32,23.1-45.75-1.28-12.61-14.18-29.19-32-42.48a131.62,131.62,0,0,0-31.08-17.47C181.68,9.21,171.71,9.15,159.19,9.2Z"/><path class="cls-11" d="M158.62,9.74c-44.33.83-81.15,35.95-86.81,102.66-2.89,34,4.83,62.88,22.15,75.13,17.51,12.39,43.07,9.11,70.6-8.42s51.36-41.76,66.93-60.44c16-19.17,24.43-32.07,22.75-45.86-1.42-12.67-14.53-29.29-32.39-42.55a131.28,131.28,0,0,0-31.26-17.49C181.19,9.22,171.31,9.5,158.62,9.74Z"/><path class="cls-12" d="M158.05,10.28C114.29,11.77,77.71,46.33,71.51,112.1c-3.18,33.75,4.3,62.29,21.74,74.46,17.63,12.29,43.53,9.28,71.33-7.88s51.76-41.22,67.29-59.87c15.94-19.14,24.24-32.1,22.4-46-1.56-12.72-14.88-29.39-32.77-42.61a130.28,130.28,0,0,0-31.45-17.52C180.7,9.23,170.92,9.85,158.05,10.28Z"/><path class="cls-13" d="M157.47,10.83C114.29,12.94,77.94,47,71.21,111.8c-3.47,33.52,3.76,61.69,21.34,73.78,17.73,12.2,44,9.46,72.05-7.34s52.16-40.66,67.65-59.29c15.9-19.11,24.06-32.13,22.05-46.06-1.7-12.78-15.24-29.48-33.14-42.68a130.31,130.31,0,0,0-31.64-17.55C180.21,9.24,170.53,10.19,157.47,10.83Z"/><path class="cls-14" d="M156.9,11.37c-42.6,2.71-78.73,36.22-86,100.13-3.78,33.3,3.22,61.1,20.92,73.11s44.42,9.63,72.78-6.81,52.56-40.1,68-58.7c15.85-19.09,23.88-32.18,21.7-46.16-1.85-12.84-15.59-29.59-33.52-42.75A129.45,129.45,0,0,0,189,12.61C179.72,9.25,170.14,10.53,156.9,11.37Z"/><path class="cls-15" d="M156.33,11.91c-42,3.29-77.94,36.32-85.71,99.29-4.08,33.08,2.68,60.51,20.52,72.44s44.86,9.8,73.5-6.28,53-39.55,68.37-58.12c15.8-19,23.69-32.21,21.34-46.26-2-12.9-15.94-29.69-33.88-42.81-11-8-21.93-14-32-17.61C179.22,9.27,169.76,10.86,156.33,11.91Z"/><path class="cls-16" d="M155.75,12.46C114.33,16.3,78.61,48.87,70.33,110.9c-4.39,32.86,2.13,59.92,20.1,71.76s45.31,10,74.23-5.73,53.36-39,68.73-57.55c15.76-19,23.51-32.24,21-46.36-2.12-12.95-16.3-29.79-34.26-42.88C209,22,197.94,16,187.91,12.5,178.73,9.28,169.38,11.19,155.75,12.46Z"/><path class="cls-17" d="M155.18,13C114.34,17.38,78.82,49.51,70,110.6c-4.69,32.64,1.6,59.33,19.7,71.09s45.76,10.15,75-5.2,53.76-38.44,69.09-57c15.71-19,23.33-32.28,20.64-46.46-2.26-13-16.65-29.88-34.63-42.94-11.33-8.23-22.43-14.22-32.4-17.67C178.24,9.29,169,11.52,155.18,13Z"/><path class="cls-18" d="M154.61,13.54C114.37,18.43,79,50.15,69.74,110.3c-5,32.43,1.05,58.74,19.29,70.42s46.2,10.32,75.67-4.67,54.16-37.89,69.45-56.38c15.66-19,23.14-32.32,20.29-46.57-2.41-13.06-17-30-35-43-11.51-8.33-22.68-14.32-32.58-17.69C177.75,9.3,168.62,11.84,154.61,13.54Z"/><path class="cls-19" d="M154,14.09C114.39,19.46,79.21,50.79,69.44,110c-5.31,32.21.51,58.15,18.88,69.75s46.65,10.49,76.4-4.14,54.56-37.33,69.8-55.8c15.63-18.94,23-32.35,19.95-46.66C251.92,60,237.1,43.07,219.09,30.07c-11.69-8.43-22.94-14.43-32.78-17.72C177.25,9.31,168.24,12.16,154,14.09Z"/><path class="cls-20" d="M153.46,14.63C114.41,20.47,79.4,51.44,69.15,109.7c-5.63,32,0,57.56,18.47,69.07s47.09,10.67,77.12-3.59,55-36.78,70.16-55.23c15.58-18.9,22.79-32.39,19.6-46.76C251.81,60,236.78,43,218.74,30.05c-11.87-8.54-23.19-14.54-33-17.76C176.76,9.33,167.87,12.48,153.46,14.63Z"/><path class="cls-21" d="M152.89,15.18c-38.45,6.27-73.31,36.91-84,94.23-5.94,31.78-.57,57,18.06,68.39s47.54,10.84,77.85-3.06,55.37-36.22,70.52-54.64c15.54-18.88,22.61-32.43,19.25-46.87C251.7,60,236.45,43,218.4,30,206.34,21.38,195,15.38,185.24,12.24,176.27,9.34,167.49,12.79,152.89,15.18Z"/><path class="cls-22" d="M152.32,15.72c-37.86,6.71-72.57,37-83.76,93.39-6.27,31.57-1.12,56.37,17.65,67.72s48,11,78.57-2.53c30.74-13.57,55.77-35.67,70.88-54.06,15.49-18.85,22.42-32.46,18.9-47C251.58,60,236.12,42.9,218.05,30c-12.24-8.75-23.7-14.75-33.34-17.81C175.78,9.35,167.12,13.1,152.32,15.72Z"/><path class="cls-23" d="M151.74,16.26c-37.26,7.12-71.83,37.12-83.48,92.55-6.59,31.36-1.65,55.78,17.24,67.05s48.44,11.18,79.3-2c31-13.2,56.17-35.11,71.24-53.48,15.44-18.82,22.24-32.49,18.55-47.07C251.47,60,235.79,42.85,217.71,30c-12.43-8.84-24-14.85-33.54-17.84C175.28,9.36,166.75,13.4,151.74,16.26Z"/><path class="cls-24" d="M151.17,16.81C114.51,24.31,80.06,54,68,108.51c-6.92,31.15-2.2,55.19,16.83,66.37s48.88,11.36,80-1.45c31.31-12.85,56.57-34.56,71.6-52.91,15.4-18.79,22.06-32.53,18.2-47.17C251.36,60,235.46,42.79,217.36,30c-12.61-8.95-24.2-15-33.72-17.87C174.79,9.38,166.37,13.69,151.17,16.81Z"/><path class="cls-25" d="M150.6,17.35c-36.07,7.88-70.39,37.33-82.93,90.86-7.25,30.94-2.74,54.6,16.43,65.7s49.32,11.53,80.75-.92a183.84,183.84,0,0,0,72-52.32c15.35-18.77,21.87-32.57,17.85-47.27-3.4-13.47-19.52-30.66-37.63-43.47-12.79-9-24.46-15.07-33.91-17.9C174.3,9.39,166,14,150.6,17.35Z"/><path class="cls-26" d="M150,17.89c-35.48,8.24-69.67,37.44-82.65,90-7.58,30.73-3.27,54,16,65,19.13,10.92,49.77,11.7,81.48-.39,31.87-12.12,57.36-33.45,72.31-51.74,15.3-18.73,21.69-32.6,17.5-47.37-3.55-13.52-19.88-30.75-38-43.54C203.7,20.75,192,14.73,182.57,12,173.8,9.4,165.63,14.27,150,17.89Z"/><path class="cls-27" d="M149.45,18.44C114.56,27,80.48,56,67.08,107.61,59.16,138.13,63.26,161,82.69,172c19.23,10.82,50.22,11.87,82.2.14,32.16-11.76,57.76-32.89,72.66-51.16,15.27-18.7,21.52-32.64,17.16-47.47-3.69-13.57-20.24-30.84-38.38-43.6-13.16-9.25-25-15.28-34.29-18C173.31,9.41,165.25,14.55,149.45,18.44Z"/><path class="cls-28" d="M148.88,19c-34.31,8.91-68.28,37.65-82.1,88.33C58.52,137.63,62.42,160.15,82,171c19.34,10.73,50.67,12,82.93.69,32.44-11.4,58.16-32.35,73-50.58,15.22-18.68,21.33-32.68,16.81-47.58-3.83-13.63-20.6-30.93-38.76-43.67-13.34-9.35-25.22-15.38-34.48-18C172.82,9.43,164.88,14.83,148.88,19Z"/><path class="cls-29" d="M148.3,19.53C114.58,28.75,80.71,57.28,66.49,107c-8.61,30.11-4.9,52.25,14.79,63,19.45,10.63,51.11,12.22,83.65,1.22,32.73-11,58.56-31.79,73.38-50,15.17-18.65,21.15-32.71,16.45-47.68-4-13.68-20.95-31-39.12-43.73-13.53-9.45-25.48-15.49-34.67-18C172.32,9.44,164.5,15.09,148.3,19.53Z"/><path class="cls-30" d="M147.73,20.07c-33.14,9.53-66.92,37.86-81.54,86.64-9,29.91-5.44,51.66,14.38,62.34,19.56,10.53,51.56,12.39,84.38,1.75,33-10.68,59-31.23,73.74-49.42,15.13-18.62,21-32.75,16.1-47.77-4.11-13.75-21.31-31.13-39.5-43.8-13.71-9.56-25.73-15.6-34.86-18C171.83,9.45,164.12,15.36,147.73,20.07Z"/><path class="cls-31" d="M147.16,20.61c-32.57,9.82-66.26,38-81.26,85.8-9.32,29.7-6,51.07,14,61.67,19.66,10.43,52,12.56,85.1,2.28,33.3-10.31,59.37-30.67,74.1-48.84,15.08-18.59,20.79-32.78,15.75-47.87-4.25-13.8-21.67-31.22-39.88-43.87-13.89-9.65-26-15.69-35-18.07C171.34,9.47,163.74,15.61,147.16,20.61Z"/><path class="cls-32" d="M146.58,21.16c-32,10.1-65.6,38.07-81,85-9.67,29.49-6.53,50.48,13.56,61,19.77,10.34,52.46,12.74,85.83,2.83,33.59-10,59.77-30.13,74.46-48.26,15-18.56,20.6-32.82,15.4-48-4.39-13.86-22-31.31-40.25-43.93C200.52,20,188.36,14,179.37,11.66,170.84,9.48,163.36,15.86,146.58,21.16Z"/><path class="cls-33" d="M146,21.7c-31.43,10.37-64.95,38.17-80.7,84.11-10.05,29.29-7.07,49.9,13.15,60.32,19.88,10.25,52.9,12.91,86.55,3.36,33.87-9.59,60.17-29.57,74.82-47.68,15-18.53,20.42-32.86,15-48.08-4.53-13.91-22.39-31.4-40.63-44C200,19.88,187.76,13.83,178.83,11.6,170.35,9.49,163,16.1,146,21.7Z"/><path class="cls-34" d="M145.44,22.24C114.57,32.87,81.12,60.51,65,105.51c-10.41,29.08-7.61,49.31,12.75,59.65,20,10.15,53.34,13.08,87.27,3.89,34.16-9.23,60.57-29,75.18-47.1,14.94-18.5,20.24-32.89,14.7-48.18-4.68-14-22.75-31.49-41-44.06-14.45-10-26.75-16-35.61-18.16C169.86,9.51,162.58,16.34,145.44,22.24Z"/><path class="cls-35" d="M144.86,22.79c-30.31,10.88-63.68,38.37-80.14,82.42-10.79,28.87-8.16,48.72,12.33,59,20.09,10.05,53.79,13.25,88,4.42,34.44-8.87,61-28.46,75.54-46.51,14.9-18.48,20-32.93,14.35-48.29-4.82-14-23.11-31.58-41.38-44.13-14.63-10-27-16.11-35.8-18.18C169.36,9.52,162.19,16.57,144.86,22.79Z"/><path class="cls-36" d="M144.29,23.33c-29.76,11.12-63.06,38.46-79.87,81.58-11.17,28.66-8.69,48.14,11.93,58.3,20.2,10,54.23,13.43,88.72,5,34.73-8.51,61.37-27.91,75.89-45.94,14.86-18.45,19.88-33,14-48.38-5-14.09-23.47-31.68-41.75-44.2-14.82-10.15-27.26-16.22-36-18.21C168.87,9.53,161.79,16.79,144.29,23.33Z"/><path class="cls-37" d="M143.72,23.87c-29.21,11.36-62.46,38.56-79.59,80.74-11.56,28.45-9.24,47.55,11.51,57.63,20.31,9.86,54.69,13.6,89.45,5.5,35-8.15,61.77-27.35,76.25-45.36C256.15,104,261,89.38,255,73.9c-5.1-14.14-23.84-31.77-42.13-44.26-15-10.25-27.51-16.32-36.18-18.25C168.37,9.55,161.39,17,143.72,23.87Z"/><path class="cls-38" d="M143.14,24.42C114.47,36,81.29,63.06,63.83,104.31c-11.95,28.23-9.78,47,11.11,57,20.41,9.77,55.13,13.77,90.17,6,35.3-7.78,62.17-26.8,76.61-44.78,14.77-18.38,19.51-33,13.31-48.58-5.25-14.2-24.2-31.86-42.5-44.33-15.19-10.35-27.77-16.42-36.37-18.27C167.88,9.56,161,17.21,143.14,24.42Z"/><path class="cls-39" d="M142.57,25c-28.14,11.81-61.26,38.73-79,79.05-12.35,28-10.31,46.38,10.7,56.28,20.52,9.68,55.58,14,90.9,6.57,35.59-7.42,62.57-26.24,77-44.19,14.72-18.36,19.33-33.08,13-48.69C249.67,59.73,230.5,42,212.18,29.59c-15.37-10.45-28-16.53-36.55-18.3C167.39,9.57,160.58,17.41,142.57,25Z"/><path class="cls-40" d="M142,25.51c-27.61,12-60.68,38.8-78.76,78.2C50.48,131.5,52.38,149.5,73.53,159.32c20.63,9.58,56,14.12,91.62,7.11,35.87-7.07,63-25.69,77.33-43.62C257.16,104.48,261.63,89.7,255.09,74c-5.53-14.31-24.92-32-43.25-44.46C196.28,19,183.56,12.93,175.09,11.23,166.89,9.59,160.16,17.6,142,25.51Z"/><path class="cls-41" d="M141.42,26.05c-27.08,12.22-60.1,38.88-78.48,77.36-13.16,27.57-11.4,45.2,9.88,54.94,20.74,9.48,56.48,14.29,92.35,7.64,36.16-6.7,63.38-25.13,77.69-43,14.63-18.3,19-33.14,12.26-48.88-5.67-14.37-25.29-32.13-43.63-44.53C195.74,18.9,183,12.81,174.56,11.18,166.4,9.6,159.74,17.78,141.42,26.05Z"/><path class="cls-42" d="M140.85,26.59c-26.57,12.43-59.53,39-78.2,76.52-13.59,27.34-11.94,44.62,9.47,54.27,20.84,9.39,56.92,14.46,93.07,8.17,36.44-6.34,63.78-24.58,78.05-42.46,14.58-18.27,18.78-33.18,11.9-49-5.81-14.43-25.64-32.22-44-44.59C195.21,18.78,182.36,12.68,174,11.13,165.9,9.62,159.32,18,140.85,26.59Z"/><path class="cls-43" d="M140.28,27.14c-26.07,12.62-59,39-77.93,75.67-14,27.11-12.48,44,9.07,53.59,21,9.3,57.36,14.64,93.79,8.71,36.73-6,64.18-24,78.41-41.87C258.16,105,262.22,90,255.17,74.15c-5.95-14.48-26-32.31-44.37-44.66-16.12-10.84-29-16.94-37.31-18.42C165.41,9.63,158.89,18.12,140.28,27.14Z"/><path class="cls-44" d="M139.7,27.68C114.14,40.5,81.28,66.76,62.06,102.51,47.61,129.38,49,146,70.71,155.43c21.06,9.2,57.81,14.81,94.53,9.25,37-5.62,64.57-23.47,78.76-41.3,14.49-18.21,18.42-33.25,11.2-49.19-6.09-14.53-26.36-32.4-44.74-44.72C194.15,18.53,181.16,12.42,173,11,164.91,9.65,158.45,18.28,139.7,27.68Z"/><path class="cls-45" d="M139.13,28.22c-25.07,13-57.88,39.13-77.37,74C46.88,128.84,48.2,145.07,70,154.46c21.16,9.11,58.25,15,95.25,9.78,37.29-5.26,65-22.92,79.11-40.72,14.45-18.18,18.24-33.29,10.86-49.29C249,59.64,228.5,41.75,210.11,29.44c-16.49-11-29.55-17.14-37.69-18.47S158,18.43,139.13,28.22Z"/><path class="cls-46" d="M138.56,28.77C114,42,81.21,67.94,61.47,101.92c-15.33,26.37-14.11,42.27,7.83,51.57,21.27,9,58.71,15.15,96,10.31,37.58-4.89,65.37-22.36,79.47-40.13,14.41-18.16,18.06-33.33,10.51-49.39-6.38-14.65-27.09-32.58-45.49-44.86C193.08,18.29,180,12.17,171.88,10.92S157.55,18.57,138.56,28.77Z"/><path class="cls-47" d="M138,29.31C113.87,42.7,81.17,68.53,61.17,101.62c-15.78,26.11-14.65,41.68,7.43,50.89,21.38,8.93,59.15,15.32,96.7,10.85,37.86-4.53,65.77-21.8,79.83-39.55,14.36-18.13,17.88-33.36,10.16-49.49-6.52-14.71-27.45-32.67-45.87-44.92-16.87-11.23-30.06-17.35-38.07-18.54S157.09,18.7,138,29.31Z"/><path class="cls-48" d="M137.41,29.86C113.77,43.43,81.12,69.1,60.88,101.32c-16.25,25.85-15.19,41.1,7,50.22,21.49,8.83,59.6,15.49,97.43,11.39,38.15-4.17,66.17-21.25,80.19-39,14.32-18.09,17.69-33.4,9.81-49.59-6.66-14.76-27.81-32.76-46.24-45C192,18.05,178.76,11.92,170.82,10.81S156.62,18.83,137.41,29.86Z"/><path class="cls-49" d="M136.84,30.4C113.66,44.16,81.06,69.67,60.58,101c-16.71,25.58-15.73,40.51,6.61,49.55,21.59,8.73,60,15.66,98.15,11.92,38.44-3.81,66.57-20.7,80.55-38.4C260.16,106,263.4,90.66,255.35,74.4c-6.8-14.82-28.18-32.84-46.62-45.05-17.24-11.42-30.57-17.56-38.45-18.59S156.14,18.94,136.84,30.4Z"/><path class="cls-50" d="M136.27,30.94c-22.73,14-55.27,39.28-76,69.78C43.09,126,44,140.65,66.49,149.6c21.7,8.64,60.48,15.83,98.87,12.45,38.72-3.45,67-20.14,80.91-37.81,14.22-18,17.33-33.47,9.11-49.8-6.95-14.87-28.54-32.93-47-45.12C191,17.81,177.56,11.67,169.75,10.7S155.65,19.05,136.27,30.94Z"/><path class="cls-51" d="M135.69,31.49C113.41,45.62,80.94,70.77,60,100.42c-17.67,25-16.81,39.34,5.79,48.2,21.81,8.55,60.94,16,99.6,13,39-3.08,67.37-19.58,81.27-37.23,14.18-18,17.15-33.51,8.76-49.9-7.09-14.93-28.9-33-47.37-45.18C190.42,17.69,177,11.54,169.21,10.65S155.15,19.15,135.69,31.49Z"/><path class="cls-52" d="M135.12,32c-21.85,14.32-54.25,39.28-75.43,68.09-18.16,24.72-17.37,38.8,5.39,47.53,21.9,8.5,61.38,16.18,100.32,13.53,39.29-2.73,67.78-19,81.63-36.66,14.13-18,17-33.54,8.41-50-7.23-15-29.27-33.11-47.75-45.25-17.8-11.71-31.33-17.86-39-18.68S154.65,19.24,135.12,32Z"/><path class="cls-53" d="M134.55,32.57C113.12,47.08,80.79,71.83,59.4,99.82c-18.66,24.41-17.91,38.21,5,46.86,22,8.4,61.83,16.35,101,14.06,39.58-2.36,68.18-18.48,82-36.07,14.08-18,16.78-33.58,8.06-50.1-7.37-15-29.63-33.2-48.12-45.32-18-11.8-31.6-18-39.21-18.71S154.13,19.32,134.55,32.57Z"/><path class="cls-54" d="M134,33.12C113,47.81,80.72,72.35,59.1,99.52c-19.16,24.09-18.44,37.62,4.57,46.19,22.12,8.29,62.27,16.52,101.77,14.59,39.86-2,68.58-17.92,82.34-35.49,14-17.92,16.61-33.62,7.72-50.2-7.52-15.1-30-33.28-48.5-45.38-18.18-11.89-31.85-18.06-39.39-18.74S153.6,19.39,134,33.12Z"/><path class="cls-55" d="M133.4,33.66c-20.61,14.88-52.76,39.2-74.59,65.56-19.68,23.76-19,37,4.15,45.51,22.24,8.2,62.72,16.7,102.5,15.13,40.15-1.64,69-17.37,82.7-34.91,14-17.89,16.42-33.65,7.36-50.3-7.65-15.16-30.35-33.37-48.86-45.45S174.55,11,167.08,10.44,153.06,19.46,133.4,33.66Z"/><path class="cls-56" d="M132.83,34.2C112.62,49.28,80.56,73.35,58.51,98.92,38.32,122.34,39,135.35,62.26,143.76c22.35,8.09,63.17,16.87,103.22,15.67,40.44-1.28,69.38-16.82,83.06-34.34,14-17.86,16.24-33.68,7-50.4-7.79-15.21-30.71-33.46-49.24-45.51S174,10.92,166.54,10.39C159,9.84,152.51,19.52,132.83,34.2Z"/><path class="cls-57" d="M132.25,34.75C112.43,50,80.48,73.83,58.22,98.62c-20.72,23.06-20.06,35.84,3.33,44.17,22.46,8,63.62,17,104,16.2,40.72-.92,69.78-16.26,83.42-33.75,13.91-17.84,16.06-33.72,6.66-50.5C247.65,59.46,224.5,41.19,206,29.16,187.22,17,173.35,10.8,166,10.33,158.48,9.86,152,19.57,132.25,34.75Z"/><path class="cls-58" d="M131.68,35.29c-19.44,15.47-51.28,39-73.76,63C36.68,121,37.33,133.56,60.85,141.81c22.57,7.89,64.06,17.22,104.67,16.74,41-.55,70.18-15.7,83.78-33.17,13.86-17.81,15.87-33.76,6.31-50.6-8.08-15.33-31.44-33.64-50-45.65-18.93-12.26-32.87-18.46-40.15-18.85C158,9.88,151.38,19.62,131.68,35.29Z"/><path class="cls-59" d="M131.11,35.84C112,51.51,80.33,74.76,57.63,98c-21.78,22.31-21.13,34.65,2.52,42.82,22.68,7.79,64.5,17.39,105.39,17.27,41.29-.19,70.58-15.15,84.14-32.59,13.82-17.77,15.69-33.79,6-50.7-8.22-15.39-31.8-33.72-50.36-45.71-19.13-12.36-33.13-18.56-40.34-18.88C157.49,9.89,150.79,19.66,131.11,35.84Z"/><path class="cls-60" d="M255.67,74.86c-8.36-15.44-32.19-33.77-50.74-45.78-19.34-12.41-33.39-18.5-40.53-18.91-7.41-.1-13.91,9.88-33.87,26.21C112.1,52.6,80.22,75.17,57.33,97.72,35,119.59,35.66,131.78,59.44,139.87c22.8,7.69,65,17.56,106.12,17.81,41.58.16,70.89-14.67,84.5-32C263.74,107.85,265.57,91.84,255.67,74.86Z"/><path class="cls-61" d="M179.69,171.84c.15,1.43.27,2.87.44,4.3,0,.32.06.64.07,1H142.54a8.09,8.09,0,0,1-.12-.84c-.06-1.89,0-3.78-.12-5.67s0-4.09-.13-6.14c-.14-1.88,0-3.78-.13-5.67-.15-2.71,0-5.44-.13-8.16-.15-3.21-.08-6.44-.11-9.66-.08-6.35-.17-12.71,0-19.07q.12-3.32.16-6.65a1,1,0,0,1,.19-.67q3.38-3.8,6.72-7.63c1.43-1.63,2.81-3.31,4.23-5,1-1.12,1.78-2.35,2.82-3.4a51,51,0,0,0-1.74,9.07,8.77,8.77,0,0,0,.78,5,2.53,2.53,0,0,0,1.36,1.42c.14.33.18.75.68.74.47.27.81-.09,1.19-.25a.73.73,0,0,0,.32-1,1,1,0,0,0-1-.6,1.76,1.76,0,0,0-.77.29,4.14,4.14,0,0,1-1.43-2.63,14,14,0,0,1,.09-5.12,77.54,77.54,0,0,1,2.16-9.25c.21,0,.33-.19.46-.34a73.17,73.17,0,0,0,4.66-6.16c.31-.47.8-.89.73-1.55v-.18a5,5,0,0,1,3.5,0h0l1,.54,0,0,0,0,.31.22.12.1.24.19,0,0,.15.15,0,0,.15.15,0,0,.15.15v0a0,0,0,0,0,.05,0l.12.13.14.16,0,0a7.67,7.67,0,0,1,1.2,5.68,4.56,4.56,0,0,0-.23,1.72c-.69,3.22-1.22,6.48-2.07,9.67a15.21,15.21,0,0,1-2.1,5.22,4.15,4.15,0,0,1-2.77,1.88c-.11-.47-.25-.93-.82-1a1.61,1.61,0,0,0-1.58.78,1.2,1.2,0,0,0,.15,1.59,1.05,1.05,0,0,0,1.72-.13c.18,0,.22-.2.34-.3a3.11,3.11,0,0,0,2.25-.69,7.31,7.31,0,0,0,2.77-3.85,52.45,52.45,0,0,0,2.21-8.71,36.08,36.08,0,0,0,.81-4.22,3.07,3.07,0,0,0,.62-2.12.17.17,0,0,0,0-.12c.14,0,.14-.16.11-.28a10.06,10.06,0,0,0,0-1.82l-.16-.93a7.17,7.17,0,0,0-1-2.51v0a.82.82,0,0,0-.4-.54v0c0-.1,0-.23-.15-.28l-.1-.11-.16-.16,0,0-.15-.15,0,0-.15-.15,0,0-.15-.15,0,0-.16-.14h0l-.24-.19,0,0-.17-.13,0,0-.16-.13h0a2.51,2.51,0,0,0-.9-.57v0a5.87,5.87,0,0,0-1.86-.64l0,0a30.58,30.58,0,0,0,1-10.12,12.36,12.36,0,0,0-1.89-6.13h0l-.18-.25,0,0a1.63,1.63,0,0,0-.42-.66v0l-.13-.17,0,0-.18-.26h0c-.06-.13-.11-.28-.27-.33l-.15-.17a1.34,1.34,0,0,0,.27-1V50.24a1.56,1.56,0,0,1,.16-.2,5.14,5.14,0,0,0-.71-7.9,60.13,60.13,0,0,0,2.36-7,5.88,5.88,0,0,0-1.12-5.08h0a.28.28,0,0,0-.31-.22.13.13,0,0,0-.13-.14L164,28.6c.42-.09.37-.42.37-.73,0-2.09,0-4.18,0-6.27,0-.52.14-.67.66-.67q21,0,42,0c.66,0,.66.3.66.79V122.94c0,.93,0,.93-1,.93h-5.56a1.92,1.92,0,0,1-1.31-.26,12,12,0,0,0,.42,2.53c.45,2.54.94,5.06,1.14,7.64a19.57,19.57,0,0,1-.2,6.48,34.78,34.78,0,0,1-2.52,6.48,97.53,97.53,0,0,1-7.56,12.72c-2.07,3-4.27,5.9-6.47,8.8a1.51,1.51,0,0,1-1.31.67,19.23,19.23,0,0,1-2.33-.32,26.42,26.42,0,0,0-2.51-2c-2.17-1.66-4.42-3.22-6.53-5,0-.1,0-.21,0-.31a7.8,7.8,0,0,1,.17-2.59c1.78-4.54,3.94-8.91,5.95-13.34,1.21-2.68,2.44-5.35,3.6-8a1.27,1.27,0,0,1,1.13-.88c.68-.1,1.35-.31,2-.47.12,0,.3,0,.24-.23s-.21-.21-.37-.14a10.25,10.25,0,0,1-2.33.54c-.39.06-.52-.05-.6-.37-.26-1-.54-1.92-.79-2.89-1.47-5.87-2.95-11.74-4.4-17.62-.67-2.69-1.28-5.4-1.92-8.11-.42-1.77-.85-3.54-1.27-5.31,0-.17,0-.41-.28-.36s-.1.29-.11.45a1.14,1.14,0,0,0,.06.25c.39,1.65.77,3.3,1.17,4.94q2.12,8.76,4.25,17.52c.36,1.46.82,2.88,1.05,4.36a7.06,7.06,0,0,0-.29,1.64c-.37,2.22-.42,4.48-.61,6.71-.15,1.92-.22,3.85-.4,5.77,0,.19-.06.39.13.54a1.86,1.86,0,0,1-.1.31c-1.87,4.14-3.72,8.29-5.62,12.41a9.76,9.76,0,0,0-1.06,5.19,24,24,0,0,0-1.52,2.88l-.21,0c-1.14-1.13-2.53-2-3.75-3a.22.22,0,0,0-.34,0c-.12.14,0,.22.1.3.43.33.85.68,1.29,1a21.83,21.83,0,0,0,2.7,2c.32.26.62.53.95.78C173.69,167.79,176.73,169.77,179.69,171.84Zm-16.77-31.61-5.36-.12c-.44,0-.87,0-1.31,0-.28,0-.38.09-.38.38,0,.93,0,1.87,0,2.81,0,.3.12.36.39.37l2.6.08,2.61.12,7.38.2c.22,0,.35-.05.38-.32a28.6,28.6,0,0,0,.14-2.93c0-.28-.1-.39-.38-.4l-4.11,0,.24-5.15a1,1,0,0,0-.43-1c-.78-.48-1.54,0-1.59,1.05C163,136.93,163,138.58,162.92,140.23Zm16.63-79.77c0-2.59,0-5.18,0-7.77,0-.49-.13-.64-.63-.63-2.28,0-4.57,0-6.85,0-.56,0-.64.21-.65.69a43.94,43.94,0,0,1,0,4.87,15,15,0,0,0,0,2.22c0,1.69-.06,3.39.09,5.08.09,1.08-.12,2.17-.11,3.25,0,.52.16.67.67.66,2.26,0,4.53,0,6.79,0,.51,0,.68-.12.67-.65C179.54,65.6,179.55,63,179.55,60.46Zm0-24.41c0-2.54,0-5.09,0-7.64,0-.48-.09-.69-.64-.68-2.29,0-4.57,0-6.86,0-.49,0-.63.15-.63.63q0,7.62,0,15.22c0,.55.19.66.68.65,2.26,0,4.53,0,6.79,0,.53,0,.67-.15.66-.66C179.54,41.06,179.55,38.56,179.55,36.05Zm14.78,24.4c0,2.57,0,5.14,0,7.71,0,.53.15.67.67.66q3.33,0,6.66,0c.51,0,.67-.13.67-.65q0-7.74,0-15.49c0-.49-.15-.63-.63-.62q-3.34,0-6.67,0c-.53,0-.71.14-.7.7C194.35,55.31,194.33,57.88,194.33,60.45Zm-11.25,0c0,2.57,0,5.14,0,7.71,0,.45.08.66.6.66,2.27,0,4.53,0,6.8,0,.45,0,.6-.13.59-.59q0-7.77,0-15.55c0-.5-.16-.63-.64-.62q-3.33,0-6.67,0c-.54,0-.7.15-.69.7C183.09,55.32,183.08,57.89,183.08,60.46Zm19.23,24.61c0-2.59,0-5.19,0-7.78,0-.46-.11-.65-.62-.64-2.26,0-4.53,0-6.79,0-.47,0-.59.16-.59.6q0,7.78,0,15.55c0,.51.18.62.65.61q3.36,0,6.73,0c.5,0,.62-.17.62-.64C202.3,90.21,202.31,87.64,202.31,85.07ZM191.06,36c0-2.55,0-5.1,0-7.65,0-.42-.07-.63-.57-.62-2.28,0-4.57,0-6.85,0-.43,0-.57.13-.57.56q0,7.68,0,15.35c0,.47.15.59.6.59,2.24,0,4.49,0,6.73,0,.51,0,.67-.13.67-.66C191,41.05,191.06,38.52,191.06,36Zm11.25,0c0-2.57,0-5.14,0-7.7,0-.43-.09-.62-.57-.62-2.29,0-4.57,0-6.86,0-.43,0-.56.15-.56.57,0,5.11,0,10.23,0,15.35,0,.47.17.58.61.58,2.24,0,4.49,0,6.73,0,.52,0,.66-.15.66-.66C202.29,41.06,202.31,38.56,202.31,36.05Zm-3.74,82.28c.13-.37.38-.34.62-.34.83,0,1.66,0,2.48,0,.47,0,.65-.11.65-.61q0-7.85,0-15.69c0-.47-.17-.59-.61-.59-2.22,0-4.45,0-6.67,0-.58,0-.82.36-.66.91.47,1.62,1,3.25,1.38,4.88C196.75,110.66,197.74,114.41,198.57,118.33Zm-7.65-25.87c.09-.13.13-.16.13-.19,0-5,0-10.11,0-15.17,0-.34-.14-.45-.47-.45h-7.06c-.34,0-.46.13-.45.47,0,.82,0,1.65,0,2.48a1.31,1.31,0,0,0,.48,1.14,26.25,26.25,0,0,1,5.54,7.67C189.74,89.71,190.36,91,190.92,92.46ZM185,166.16c0-.25-.23-.32-.39-.43l-5.56-4c-1.82-1.3-3.64-2.61-5.47-3.9-.19-.14-.47-.5-.64-.26s.24.43.44.57q4.6,3.33,9.22,6.63l1.92,1.36C184.7,166.22,184.86,166.37,185,166.16Z"/><path class="cls-61" d="M105.65,173.56c0-.49-.39-.46-.69-.49a10.26,10.26,0,0,0-1.24,0c-.46,0-.67-.21-.68-.67,0-1.15-.08-2.31-.09-3.45,0-2.46-.15-4.92-.2-7.37,0-2.67-.09-5.34-.25-8-.22-3.68-.13-7.36-.07-11,0-1.67,0-3.35.1-5,.15-2.36.07-4.74.28-7.09s.33-5,.74-7.42a1.67,1.67,0,0,0-.08-.79c-.06.4-.14.8-.16,1.2s-.29.47-.62.48-.45-.18-.44-.49,0-.43,0-.65v-51h25.42a6.56,6.56,0,0,0,1.6-.07,12.21,12.21,0,0,0,3.3-1.15.71.71,0,0,1,.57,0l-.18.34h0a3.83,3.83,0,0,0-.66.93h0a1.83,1.83,0,0,0-.41.66h0c-.06.09-.13.17-.18.26A25.3,25.3,0,0,0,129,82c0,.34-.37.72,0,1.08-.31.44,0,1-.24,1.43a62.89,62.89,0,0,0,.13,9.41,6.73,6.73,0,0,0,.23,1.84l0,.66a2.75,2.75,0,0,0,0,.64c.15.81.26,1.64.39,2.46a2.06,2.06,0,0,0-1.14.44,4.07,4.07,0,0,0-.07,6.8c1.81,1.41,5.25,1.52,6.42-1.63a5.16,5.16,0,0,0,.26-2.06,3.93,3.93,0,0,0-4-3.78l-.24-1.18a11.52,11.52,0,0,0-.39-2.25.15.15,0,0,0,0-.11,5.67,5.67,0,0,0,0-.71c-.17-2.12-.32-4.23-.29-6.35.17.09.15.25.15.4a11.84,11.84,0,0,0,1.61,5.64c1.46,2.88,3,5.69,4.77,8.4s3.6,5.6,5.65,8.23a1.15,1.15,0,0,1,.17,1.47,5.19,5.19,0,0,0-.81,2.57c-.09,3-.24,6-.25,9.07,0,5.84-.13,11.67.09,17.51.12,3.16-.05,6.31.13,9.47.14,2.52,0,5.05.13,7.58.14,2.08,0,4.17.13,6.26.14,1.8,0,3.61.12,5.42.12,2.13,0,4.27.16,6.4H116.38l0-3.78a12.92,12.92,0,0,0,.2-2.91c.09-3.28.19-6.56.27-9.85.09-3.61.12-7.22.28-10.83.08-1.91,0-3.83.12-5.74s0-3.92.13-5.88,0-3.65.13-5.48,0-3.74.13-5.61c.13-1.69.06-3.39.12-5.09.11-3.61.16-7.22.28-10.83.1-3.13.11-6.27.16-9.4,0-.13,0-.26,0-.39.25-2.58,0-5.18.23-7.76,0-.14,0-.36-.16-.37s-.21.22-.21.38c0,1-.06,1.91-.11,2.86-.12,2.07,0,4.13-.13,6.2s0,4-.12,5.94c-.13,3.3-.19,6.61-.27,9.92-.09,3.63-.16,7.26-.26,10.89s-.12,7.05-.28,10.57c-.09,2.11,0,4.22-.11,6.33-.1,3.5-.18,7-.26,10.51-.09,4-.17,8.05-.3,12.07a24,24,0,0,1-.11,3.39.73.73,0,0,0,.11.68l0,.41c-1.08.2-2.18,0-3.26.16h-.65C110.09,173.49,107.87,173.65,105.65,173.56ZM119.34,76.8l-.07-.14h-.51c-2.68,0-5.35,0-8,0-.6,0-.78.15-.77.76,0,4.62,0,9.24,0,13.86v.42C112.13,86.1,114.52,80.7,119.34,76.8ZM105,112.52a67.65,67.65,0,0,0-1.36,9.25Zm.13-.53,1-5.47A23.1,23.1,0,0,0,105.14,112Zm1.6-7.8a3.07,3.07,0,0,0-.45,1.91Zm0-.38c.15-.33.29-.57.16-.89A1.06,1.06,0,0,0,106.75,103.81Zm.24-1.33a.65.65,0,0,0,.19-.74A1,1,0,0,0,107,102.48Z"/><path class="cls-62" d="M142.14,177.11c-.17-2.13,0-4.27-.16-6.4-.1-1.81,0-3.62-.12-5.42-.16-2.09,0-4.18-.13-6.26-.16-2.53,0-5.06-.13-7.58-.18-3.16,0-6.31-.13-9.47-.22-5.84-.1-11.67-.09-17.51,0-3,.16-6,.25-9.07a5.19,5.19,0,0,1,.81-2.57,1.15,1.15,0,0,0-.17-1.47c-2.05-2.63-3.86-5.42-5.65-8.23s-3.31-5.52-4.77-8.4a11.84,11.84,0,0,1-1.61-5.64c0-.15,0-.31-.15-.4v-.25a20.48,20.48,0,0,0,2.92-3,.48.48,0,0,0-.06-.76,6.82,6.82,0,0,0-2.59-1.44l0-.26a5.49,5.49,0,0,1,2.9,1.5.69.69,0,0,1,.11,1.06,20.36,20.36,0,0,1-2.55,2.78,1,1,0,0,0-.34.87,13.27,13.27,0,0,0,.77,3.28,45.22,45.22,0,0,0,2.82,5.66,117.09,117.09,0,0,0,8.06,12.49,2.84,2.84,0,0,0,.86,1l.47-1,.25.28a18.74,18.74,0,0,0-.94,2.34l-.09.15.05,0,.06-.17a.49.49,0,0,0,.33-.19c1.43-1.63,2.85-3.27,4.29-4.89q3.69-4.15,7.19-8.48c.42-.52.69-1.21,1.38-1.5l0,.5c-1,1.05-1.86,2.28-2.82,3.4-1.42,1.64-2.8,3.32-4.23,5q-3.34,3.84-6.72,7.63a1,1,0,0,0-.19.67q0,3.33-.16,6.65c-.22,6.36-.13,12.72,0,19.07,0,3.22,0,6.45.11,9.66.13,2.72,0,5.45.13,8.16.11,1.89,0,3.79.13,5.67.15,2,0,4.1.13,6.14s.06,3.78.12,5.67a8.09,8.09,0,0,0,.12.84Z"/><path class="cls-63" d="M113,173.5c1.08-.16,2.18,0,3.26-.16,0,1.26,0,2.51,0,3.77H105.39a16.5,16.5,0,0,1,.11-3.22c.22-.23.51-.19.79-.19h6C112.55,173.68,112.83,173.82,113,173.5Z"/><path class="cls-64" d="M116.25,177.11c0-1.26,0-2.51,0-3.77,0-.14,0-.27,0-.41.15.1.11.26.15.4l0,3.78Z"/><path class="cls-63" d="M163.83,42.14a5.14,5.14,0,0,1,.71,7.9,1.56,1.56,0,0,0-.16.2,5.92,5.92,0,0,1-3.91,1.19c-.29,0-.39.1-.4.37,0,.94-.11,1.87-.12,2.8-.06,3.7-.11,7.41-.16,11.11a1,1,0,0,0-.1.88c.14.77-.41,1.3-.67,1.93a.58.58,0,0,0-.14.13,15.19,15.19,0,0,1-7.62,6.26,10.18,10.18,0,0,1-6.58.27,5.36,5.36,0,0,1-4-3.69,14.06,14.06,0,0,1-.42-4.12,2.09,2.09,0,0,0,.35-1.18l0-.52c.1-.56.19-1.11.29-1.66a.48.48,0,0,0-.29-.53c-4-2.56-5.53-6.49-6.16-10.94a31.85,31.85,0,0,1-.25-3.78c0-2.81,0-5.62-.14-8.43,0-1-.08-1.95-.13-2.93l0-.23.55-2.36h0c.17-.09.12-.26.15-.4h0a4.2,4.2,0,0,0,.41-1.19v0a1.15,1.15,0,0,0,.27-.54h0l.15-.28v0c.11-.06.12-.17.14-.28v0a.31.31,0,0,0,.14-.28l0,0,.13-.15,0,0,0,0,.49-.72.16-.26.16-.27,0,0,.15-.14.11-.13.14-.14h0l.14-.14h0l.14-.14h0l.14-.11.24-.16a4.28,4.28,0,0,1,3.4-.08,24,24,0,0,0,3.22.69,18,18,0,0,0,4.21-.21,5.79,5.79,0,0,1,2.89.15v0c.05.13.16.13.28.15h0l.29.24h0l.26.16h0l.55.51h0l.15.13h0c.16.16.27.38.52.42l0,0c0,.1.06.14.15.15v0c0,.09.06.13.15.14h0c.09.14.19.28.39.28h0a2.93,2.93,0,0,0,1.15.68l0,0,.93.65v0l.14.15v0l.15.15,0,0,.15.15h0l.26.28v0a.31.31,0,0,0,.15.29.12.12,0,0,0,0,.1l.1.14h0a26.66,26.66,0,0,1,.78,3.2c.53,2.07,1,4.16.11,6.27a.51.51,0,0,0,.24.67.56.56,0,0,0,.76-.29l0,0c.12,0,.14,0,.15-.14v0l.25-.29h0l.15-.14.11-.13.13-.14h0c.16-.09.14-.24.14-.39a7.05,7.05,0,0,1,2.36-1.47A3.53,3.53,0,0,1,163.83,42.14Zm-16.6-3.82-.13.13a.6.6,0,0,0,0,.81c.31.41.77.3,1.14.23a12.7,12.7,0,0,1,4.64-.12c.34.06.78.12.93-.36s-.19-.66-.5-.87a.78.78,0,0,0-.43-.22,6.41,6.41,0,0,0-5,0c-.1,0-.21,0-.27.12a.27.27,0,0,0-.25.14Zm-7.43,7.37.15-.15a2.84,2.84,0,0,0,.18-1.84,1.44,1.44,0,0,0-.32-.93c-.6-.36-1-.31-1.21.22a3.2,3.2,0,0,0,.14,2.67.66.66,0,0,0,1.08,0ZM136,38.06a.84.84,0,0,0-.54.26v0c-.59.25-.43.64-.14,1s.75.27,1.16.16a7,7,0,0,1,1.7-.33,6.39,6.39,0,0,1,2.74.46.7.7,0,0,0,.82-.14c.25-.25.05-.53-.12-.75a1.43,1.43,0,0,0-.86-.66l0,0a.59.59,0,0,0-.67-.22.25.25,0,0,0-.12,0,4.81,4.81,0,0,0-4,.26Zm13.61,7.6h0c.53.37,1,.32,1.22-.19a3.48,3.48,0,0,0,0-2.48.71.71,0,0,0-.72-.45.6.6,0,0,0-.65.44A3.18,3.18,0,0,0,149.6,45.66Zm-8,18.43-.08,0,.05.07a7.29,7.29,0,0,0,5.23,2.7,10.74,10.74,0,0,0,7-2.08,7.78,7.78,0,0,0,2.32-2.32l0-.06,0,0c-1.19.61-2.28,1.42-3.53,1.93a13.08,13.08,0,0,1-8.41.72C143.3,64.81,142.53,64.29,141.64,64.09ZM143.46,43c-.15,0-.11.17-.13.27-.17,1.44-.37,2.88-.5,4.33-.1,1.1-.13,2.21-.15,3.32A2.06,2.06,0,0,0,144,53a1.36,1.36,0,0,0,1.67-.37c-1.79.14-1.8-.44-2.08-1.43a5,5,0,0,1-.17-1.22C143.45,47.67,143.46,45.35,143.46,43Zm2.23,14.57c1.44.11,2.93-.68,4.4-1.56a.27.27,0,0,0,.16-.31c0-.19-.19-.22-.35-.24a2.4,2.4,0,0,0-1.52.5c-1.8.95-3.58,1.39-5.33-.13a.32.32,0,0,0-.42,0,.31.31,0,0,0,0,.42,2.58,2.58,0,0,0,.32.49A3.39,3.39,0,0,0,145.69,57.57Z"/><path class="cls-65" d="M136.52,30.76l-.16.26c-.55,0-.49.37-.49.72l0,0,0,0-.13.15,0,0c-.14.05-.15.16-.14.28v0c-.14.05-.15.16-.14.28v0c-.14,0-.15.16-.15.28h0c-.28.08-.31.29-.27.54v0a1.3,1.3,0,0,0-.41,1.19h0c-.2.08-.16.25-.15.4h0c-.4.3-.27.79-.45,1.16s.08.69-.37.81l-1.48-3.06c-.26-.54-.32-1.18-.89-1.52h0a2.24,2.24,0,0,0-.14-1,6.84,6.84,0,0,1-.17-3.78,10.6,10.6,0,0,0,.57-1.84h0c.25,0,.27-.15.27-.33l.83-.84c.11,0,.2,0,.18-.19h0c.58.16.7-.23.78-.66v0c.34.15.43-.14.52-.33.47-1,.92-1.9,1.38-2.86a.36.36,0,0,1,.26-.26c.08,0,.19,0,.24-.1a6,6,0,0,1,3.51-1.64,8.07,8.07,0,0,1,3,.15c1.1.2,2.2.42,3.3.63.51.33,1.09,0,1.61.18.27.21.58.08.88.1,2,.13,4-.27,6.06.27a19.52,19.52,0,0,1,3.88,1.45c.65.33,1.13,1,1.91,1l.3.41c.15.46.55.67.92.91l.4.3c0,.11,0,.2.18.19l0,0a.49.49,0,0,0,.08.37,8.76,8.76,0,0,1,1,2.65,4.34,4.34,0,0,0,.55,1.5c.24.42.37,1,1,1.15a.13.13,0,0,1,.13.14c0,.16.12.27.31.22h0c-.15.6.42.92.56,1.4a8.18,8.18,0,0,1-.2,5.37c-.49,1.25-.92,2.53-1.32,3.82a2.47,2.47,0,0,1-.39,1c-.3.33-.66-.13-1-.12s-.55-.12-.54.32a7.05,7.05,0,0,0-2.36,1.47c-.16.09-.14.24-.14.39h0l-.13.14-.11.13-.15.14h0c-.2,0-.29.09-.25.29v0l-.15.14,0,0c-.11,0-.24,0-.32,0-.44.24-.56.13-.4-.34,0-.12,0-.25.09-.37a8.13,8.13,0,0,0,.24-3.4c-.18-1.44-.65-2.81-.93-4.23-.1-.53,0-1.15-.57-1.51h0l-.1-.14a.12.12,0,0,1,0-.1c0-.12,0-.24-.15-.29v0c0-.2-.06-.29-.26-.28h0l-.15-.15,0,0-.15-.15v0l-.14-.15v0a.91.91,0,0,0-.93-.65l0,0c-.17-.59-.74-.51-1.16-.67h0c0-.23-.18-.3-.39-.28h0l-.15-.14v0l-.15-.15,0,0a.53.53,0,0,0-.52-.42h0l-.15-.13h0c0-.4-.15-.58-.55-.51h0c0-.13-.15-.15-.26-.16h0c0-.19-.1-.27-.29-.24h0c0-.15-.15-.16-.27-.15v0c-.24-.47-.72-.47-1.14-.54a5.69,5.69,0,0,0-2.17.23c-.56.12-1.11,0-1.66.1a9.62,9.62,0,0,1-3.34-.2c-1.21-.21-2.39-.58-3.59-.76a1.78,1.78,0,0,0-1.82.62l-.24.16c-.19-.15-.13,0-.14.11h0l-.14.14h0l-.14.14h0l-.14.14-.11.13-.15.14,0,0C136.54,30.53,136.54,30.65,136.52,30.76Z"/><path class="cls-66" d="M140.69,65.67c0,.17,0,.34,0,.52a8.59,8.59,0,0,0-4.41,1.57h0l-.4.27h0l-.3.21h0a.32.32,0,0,0-.25.18h0l-.3.24h0a.71.71,0,0,0-.38.3h0l-.16.15v0a4.27,4.27,0,0,0-.92.93l0,0-.11,0c-.28,0-.42.15-.38.43h0a.71.71,0,0,0-.57,0,12.21,12.21,0,0,1-3.3,1.15,6.56,6.56,0,0,1-1.6.07H102.26c0-1.81,0-3.62,0-5.42,0-.45.12-.59.59-.61,1.4-.06,2.82-.13,4.2,0,1.72.1,3.42-.29,5.13,0a15.71,15.71,0,0,0,2.46-.12c1.79.08,3.59.11,5.38.14,1.39,0,2.78.08,4.15,0s2.92-.08,4.38-.05l2.5.05c2.07.06,4.15,0,6.22,0A24.54,24.54,0,0,1,140.69,65.67Z"/><path class="cls-63" d="M172,161.7c2.11,1.73,4.36,3.29,6.53,5a26.42,26.42,0,0,1,2.51,2l-1.48,2.72c-2.33-1.39-4.54-3-6.72-4.58a17,17,0,0,1-2.73-2.2,24,24,0,0,1,1.52-2.88Z"/><path class="cls-67" d="M160.28,22.24c-.78-.08-1.26-.71-1.91-1a19.52,19.52,0,0,0-3.88-1.45c-2-.54-4.05-.14-6.06-.27-.3,0-.61.11-.88-.1.46-.11,1,.24,1.4-.22h1.16l-.37.16c.83-.07,1.67.28,2.48-.08A12.73,12.73,0,0,1,160.28,22.24Z"/><path class="cls-1" d="M170.08,164.55a17,17,0,0,0,2.73,2.2c2.18,1.61,4.39,3.19,6.72,4.58.42.3.42.3.16.51-3-2.07-6-4.05-8.87-6.25-.33-.25-.63-.52-.95-.78v-.29Z"/><path class="cls-67" d="M145.94,19.2c-1.1-.21-2.2-.43-3.3-.63a8.07,8.07,0,0,0-3-.15,6,6,0,0,0-3.51,1.64c-.05.06-.16.07-.24.1,0-.29.18-.42.36-.58a6.11,6.11,0,0,1,3.49-1.39,16.46,16.46,0,0,1,5.08.57c.42.1.84.16,1.27.24Z"/><path class="cls-67" d="M164.64,29.7c-.59-.14-.72-.73-1-1.15a4.34,4.34,0,0,1-.55-1.5,8.76,8.76,0,0,0-1-2.65.49.49,0,0,1-.08-.37,6.35,6.35,0,0,1,1.4,3.19,1.92,1.92,0,0,0,.28.78.74.74,0,0,0,.26.58v0Z"/><path class="cls-67" d="M131.4,32.2c.57.34.63,1,.89,1.52l1.48,3.06c0,.2.2.25.27.39l0,.23a5.57,5.57,0,0,1-1.07-1.82c-.52-1-.93-2.08-1.5-3.06A.85.85,0,0,1,131.4,32.2Z"/><path class="cls-67" d="M131.67,25.63a10.6,10.6,0,0,1-.57,1.84,6.84,6.84,0,0,0,.17,3.78,2.24,2.24,0,0,1,.14,1A7,7,0,0,1,131.67,25.63Z"/><path class="cls-68" d="M113,173.5c-.12.32-.4.18-.61.19h-6c-.28,0-.57,0-.79.19,0,0,0-.11,0-.16l.06-.12.11-.05c2.22.09,4.44-.07,6.65-.07Z"/><path class="cls-67" d="M135.61,20.42c-.46,1-.91,1.91-1.38,2.86-.09.19-.18.48-.52.33a13.32,13.32,0,0,0,1-2C135,21.18,135.05,20.61,135.61,20.42Z"/><path class="cls-69" d="M145.94,19.2l.13-.2c1,.18,1.92.06,2.88.16-.41.46-.94.11-1.4.22C147,19.17,146.45,19.53,145.94,19.2Z"/><path class="cls-69" d="M152.22,19.23c-.81.36-1.65,0-2.48.08l.37-.16A5.56,5.56,0,0,1,152.22,19.23Z"/><path class="cls-67" d="M161.5,23.56c-.37-.24-.77-.45-.92-.91A1.28,1.28,0,0,1,161.5,23.56Z"/><path class="cls-67" d="M133.72,23.63c-.08.43-.2.82-.78.66Z"/><path class="cls-61" d="M164,28.58a.74.74,0,0,1-.26-.58C164,28.1,164.15,28.28,164,28.58Z"/><path class="cls-67" d="M131.94,25.31c0,.18,0,.36-.27.33C131.73,25.51,131.77,25.36,131.94,25.31Z"/><path class="cls-67" d="M133,24.28c0,.14-.07.17-.18.19S132.87,24.32,133,24.28Z"/><path class="cls-67" d="M162.08,24.05c-.14,0-.17-.08-.18-.19S162,24,162.08,24.05Z"/><path class="cls-63" d="M105.54,173.61l-.06.12C105.42,173.66,105.44,173.61,105.54,173.61Z"/><path class="cls-66" d="M179.55,60.46c0,2.57,0,5.14,0,7.71,0,.53-.16.66-.67.65-2.26,0-4.53,0-6.79,0-.51,0-.67-.14-.67-.66,0-1.08.2-2.17.11-3.25-.15-1.69,0-3.39-.09-5.08a15,15,0,0,1,0-2.22,43.94,43.94,0,0,0,0-4.87c0-.48.09-.7.65-.69,2.28,0,4.57,0,6.85,0,.5,0,.64.14.63.63C179.54,55.28,179.55,57.87,179.55,60.46Z"/><path class="cls-66" d="M179.55,36.05c0,2.51,0,5,0,7.52,0,.51-.13.67-.66.66-2.26,0-4.53,0-6.79,0-.49,0-.68-.1-.68-.65q0-7.61,0-15.22c0-.48.14-.64.63-.63,2.29,0,4.57,0,6.86,0,.55,0,.64.2.64.68C179.54,31,179.55,33.51,179.55,36.05Z"/><path class="cls-66" d="M194.33,60.45c0-2.57,0-5.14,0-7.7,0-.56.17-.7.7-.7q3.33,0,6.67,0c.48,0,.63.13.63.62q0,7.74,0,15.49c0,.52-.16.66-.67.65q-3.33,0-6.66,0c-.52,0-.68-.13-.67-.66C194.34,65.59,194.33,63,194.33,60.45Z"/><path class="cls-66" d="M183.08,60.46c0-2.57,0-5.14,0-7.71,0-.55.15-.7.69-.7q3.35,0,6.67,0c.48,0,.64.12.64.62q0,7.77,0,15.55c0,.46-.14.6-.59.59-2.27,0-4.53,0-6.8,0-.52,0-.6-.21-.6-.66C183.09,65.6,183.08,63,183.08,60.46Z"/><path class="cls-66" d="M202.31,85.07c0,2.57,0,5.14,0,7.71,0,.47-.12.64-.62.64q-3.37,0-6.73,0c-.47,0-.65-.1-.65-.61q0-7.77,0-15.55c0-.44.12-.61.59-.6,2.26,0,4.53,0,6.79,0,.51,0,.62.18.62.64C202.3,79.88,202.31,82.48,202.31,85.07Z"/><path class="cls-66" d="M191.06,36c0,2.52,0,5,0,7.57,0,.53-.16.67-.67.66-2.24,0-4.49,0-6.73,0-.45,0-.6-.12-.6-.59q0-7.68,0-15.35c0-.43.14-.56.57-.56,2.28,0,4.57,0,6.85,0,.5,0,.57.2.57.62C191.05,30.9,191.06,33.45,191.06,36Z"/><path class="cls-66" d="M202.31,36.05c0,2.51,0,5,0,7.52,0,.51-.14.67-.66.66-2.24,0-4.49,0-6.73,0-.44,0-.61-.11-.61-.58,0-5.12,0-10.24,0-15.35,0-.42.13-.57.56-.57,2.29,0,4.57,0,6.86,0,.48,0,.58.19.57.62C202.3,30.91,202.31,33.48,202.31,36.05Z"/><path class="cls-66" d="M198.57,118.33c-.83-3.92-1.82-7.67-2.81-11.42-.42-1.63-.91-3.26-1.38-4.88-.16-.55.08-.91.66-.91,2.22,0,4.45,0,6.67,0,.44,0,.61.12.61.59q0,7.85,0,15.69c0,.5-.18.63-.65.61-.82,0-1.65,0-2.48,0C199,118,198.7,118,198.57,118.33Z"/><path class="cls-70" d="M159.79,65.71c.05-3.7.1-7.41.16-11.11,0-.93.09-1.86.12-2.8,0-.27.11-.41.4-.37a5.92,5.92,0,0,0,3.91-1.19V67.59a1.34,1.34,0,0,1-.27,1l-1.37-1.33-.18-.14h0a.78.78,0,0,0-.41-.28h0a3.22,3.22,0,0,0-1.05-.56l0,0A6.79,6.79,0,0,0,159.79,65.71Z"/><path class="cls-66" d="M190.92,92.46c-.56-1.43-1.18-2.75-1.83-4a26.25,26.25,0,0,0-5.54-7.67,1.31,1.31,0,0,1-.48-1.14c0-.83,0-1.66,0-2.48,0-.34.11-.47.45-.47h7.06c.33,0,.47.11.47.45,0,5.06,0,10.12,0,15.17C191.05,92.3,191,92.33,190.92,92.46Z"/><path class="cls-71" d="M162.74,67.23l1.37,1.33.15.17c0,.19,0,.36.27.33h0c0,.13,0,.25.18.26l0,0a.16.16,0,0,0,.13.17v0c0,.3.07.57.42.66l0,0c0,.14,0,.26.18.25h0c-.1.24.06.42.16.6a14.4,14.4,0,0,1,1.61,6.77c0,1,0,2.08-.1,3.13a29.19,29.19,0,0,1-.73,4.74c-.08.32-.36.66,0,1l0,0a3.36,3.36,0,0,0,1.86.64v0c.14.44.53.49.9.57h0a.14.14,0,0,0,.16.13l0,0c0,.1.06.15.17.13l0,0c0,.18.1.19.24.19h0l.16.14,0,0,.15.15,0,0,.15.15,0,0,.15.15,0,0,.16.16.1.11c0,.12,0,.24.15.28v0a.52.52,0,0,0,.4.54v0l.87,2.55.12,0,.16.93a5.84,5.84,0,0,0-.12,1.82v.28a.17.17,0,0,1,0,.12c-.17.53-.36,1.06-.52,1.59-.1.33-.33.27-.57.23s-.32-.22-.24-.48.08-.51.13-.77a8.07,8.07,0,0,0-.7-5.44c-.13-.25-.22-.59-.6-.62l0,0-.14-.16-.12-.13,0-.09-.1,0v0q0-.17-.15-.15l0,0q0-.16-.15-.15l0,0q0-.16-.15-.15l0,0c0-.18-.11-.19-.24-.19l-.12-.1c0-.17-.1-.29-.31-.22l0,0,0,0a.92.92,0,0,0-1-.54h0c-.05-.28-.29-.29-.49-.34a5.86,5.86,0,0,0-2.7,0c-.16,0-.35.08-.42.28h0c-.13,0-.24,0-.28.14h0c-.23,0-.45,0-.53.26-.12,0-.23,0-.25.15a.29.29,0,0,0-.39.26l-.15.11c-.21,0-.35.06-.37.28a.13.13,0,0,0-.14.13l-.14.12-.14.12a.26.26,0,0,0-.27.12l-.13.13a.26.26,0,0,0-.12.28l-.13.13-.12.14a.13.13,0,0,0-.12.14c-.13,0-.15.13-.16.23l-.12.15a.11.11,0,0,0-.11.14c-.15,0-.16.13-.15.25s-.13.14-.14.25l-.11.15a.51.51,0,0,0-.28.51,3.21,3.21,0,0,0-.78,1.83,1,1,0,0,0-.34.68c-.12.52-.47.23-.71.22s-.24-.27-.16-.48c.19-.55.41-1.1.57-1.66.2-.73.77-1.3.83-2.08v0c.39,0,.42-.32.45-.62l0,0A.16.16,0,0,0,159,90l0,0c.25,0,.32-.16.31-.38h0l.14-.16,0,0a.16.16,0,0,0,.15-.16l0,0a.17.17,0,0,0,.15-.16l0,0a.14.14,0,0,0,.15-.16l0,0c.23,0,.45-.1.4-.42h0c.21,0,.32,0,.3-.25l0,0,.16-.15,0,0c.14,0,.25,0,.23-.19l0,.05,0-.05c.21.08.31,0,.31-.21h0c.13,0,.24,0,.25-.18l0,0a.13.13,0,0,0,.17-.11h0c1.08-.34,2.11-.84,3.22-1.09,0,0,0-.07.06-.11l.06-.11c.28-.06.23-.24.15-.43h0c.3,0,.27-.32.32-.5.2-.89.38-1.78.53-2.67,0-.23.3-.49,0-.72l0-.65a.49.49,0,0,0,.24-.5,25.82,25.82,0,0,0-.42-6.74,4,4,0,0,0-.91-2.16h0c0-.23,0-.46-.27-.54v0c0-.12,0-.24-.15-.27h0a1.69,1.69,0,0,0-.8-1.32l0,0c0-.15,0-.25-.19-.24h0c.09-.21,0-.3-.21-.3h0c0-.14,0-.25-.19-.25v0c.13-.23-.08-.28-.19-.38L160.45,67a.34.34,0,0,0-.41-.27v0a.76.76,0,0,0-.11-.22c-.12-.15-.2-.32-.09-.47s.3,0,.45,0,.53.28.85.18l0,0a1.27,1.27,0,0,0,1.05.56h0a.33.33,0,0,0,.41.28h0C162.56,67.2,162.65,67.22,162.74,67.23Z"/><path class="cls-1" d="M157.56,140.11l5.36.12,0,.75-.11-.36a6.13,6.13,0,0,0,0,2.22c.06.18-.09.51.24.5s.17-.3.19-.46c.05-.43.09-.86.1-1.3.05-1.49,0-1.49,1.56-1.25l4.11,0c.28,0,.38.12.38.4a28.6,28.6,0,0,1-.14,2.93c0,.27-.16.32-.38.32l-7.38-.2-2.61-.12c-.07-.32-.34-.2-.53-.2-.61,0-1.22,0-1.83,0-.37,0-.51-.12-.5-.49,0-.76,0-1.53,0-2.29,0-.42.17-.51.55-.51S157.24,140.33,157.56,140.11Z"/><path class="cls-62" d="M172,161.7l-.37,0a9.76,9.76,0,0,1,1.06-5.19c1.9-4.12,3.75-8.27,5.62-12.41a1.86,1.86,0,0,0,.1-.31,4,4,0,0,0,.27-.44c.75-1.66,1.44-3.35,2.27-5a3.71,3.71,0,0,0,.23-3.35,9,9,0,0,1-.3-1.13c-.43-1.59-.86-3.17-1.3-4.76-.23-1.48-.69-2.9-1.05-4.36q-2.13-8.76-4.25-17.52c-.4-1.64-.78-3.29-1.17-4.94A1.14,1.14,0,0,1,173,102c0-.16-.11-.4.11-.45s.24.19.28.36c.42,1.77.85,3.54,1.27,5.31.64,2.71,1.25,5.42,1.92,8.11,1.45,5.88,2.93,11.75,4.4,17.62.25,1,.53,1.93.79,2.89.08.32.21.43.6.37a10.25,10.25,0,0,0,2.33-.54c.16-.07.32,0,.37.14s-.12.2-.24.23c-.67.16-1.34.37-2,.47a1.27,1.27,0,0,0-1.13.88c-1.16,2.69-2.39,5.36-3.6,8-2,4.43-4.17,8.8-5.95,13.34a7.8,7.8,0,0,0-.17,2.59C172,161.49,172,161.6,172,161.7Z"/><path class="cls-70" d="M179.55,129.1c.44,1.59.87,3.17,1.3,4.76a9,9,0,0,0,.3,1.13,3.71,3.71,0,0,1-.23,3.35c-.83,1.63-1.52,3.32-2.27,5a4,4,0,0,1-.27.44c-.19-.15-.15-.35-.13-.54.18-1.92.25-3.85.4-5.77.19-2.23.24-4.49.61-6.71A7.06,7.06,0,0,1,179.55,129.1Z"/><path class="cls-64" d="M163.35,114.05a4.15,4.15,0,0,0,2.77-1.88,15.21,15.21,0,0,0,2.1-5.22c.85-3.19,1.38-6.45,2.07-9.67l.91.21a36.08,36.08,0,0,1-.81,4.22,52.45,52.45,0,0,1-2.21,8.71,7.31,7.31,0,0,1-2.77,3.85,3.11,3.11,0,0,1-2.25.69C163.22,114.66,163.28,114.36,163.35,114.05Z"/><path class="cls-64" d="M156,98.6l0-.5h0l.08-.14a16.75,16.75,0,0,0,.72-2.87,2.44,2.44,0,0,1,1,.25v.29c-.18.19-.08.46-.2.67a77.54,77.54,0,0,0-2.16,9.25,14,14,0,0,0-.09,5.12,4.14,4.14,0,0,0,1.43,2.63s0,.07,0,.11h0l-.14.14h0l-.29.58a2.53,2.53,0,0,1-1.36-1.42,8.77,8.77,0,0,1-.78-5A51,51,0,0,1,156,98.6Z"/><path class="cls-1" d="M185,166.16c-.17.21-.33.06-.48,0l-1.92-1.36q-4.6-3.3-9.22-6.63c-.2-.14-.65-.26-.44-.57s.45.12.64.26c1.83,1.29,3.65,2.6,5.47,3.9l5.56,4C184.8,165.84,185,165.91,185,166.16Z"/><path class="cls-69" d="M164.88,140.33c-1.52-.24-1.51-.24-1.56,1.25,0,.44,0,.87-.1,1.3,0,.16.1.46-.19.46s-.18-.32-.24-.5l.08-1.86,0-.75c.06-1.65.11-3.3.18-4.95.05-1,.81-1.53,1.59-1.05a1,1,0,0,1,.43,1Zm-.79-.24c.53.13.77-.08.57-.72a3,3,0,0,1,0-.52c-.11-1.27.32-2.52.15-3.81-.05-.46-.27-.64-.63-.65s-.71,0-.69.42c0,1-.38,1.91-.19,2.91a3.76,3.76,0,0,1,0,1.49C163.08,140,163.15,140.09,164.09,140.09Zm-.9.72-.06-.09s0,.06,0,.09a.19.19,0,0,0,0,.1Z"/><path class="cls-67" d="M162.17,41.84c0-.44.28-.32.54-.32s.71.45,1,.12a2.47,2.47,0,0,0,.39-1c.4-1.29.83-2.57,1.32-3.82a8.18,8.18,0,0,0,.2-5.37c-.14-.48-.71-.8-.56-1.4a5.88,5.88,0,0,1,1.12,5.08,60.13,60.13,0,0,1-2.36,7A3.53,3.53,0,0,0,162.17,41.84Z"/><path class="cls-62" d="M157.62,96.3c.12-.21,0-.48.2-.67,0,0,.09,0,.11-.06,1.71-2.08,3.32-4.24,4.85-6.46a1,1,0,0,0,.28-.84h0l.42,0c.07.66-.42,1.08-.73,1.55A73.17,73.17,0,0,1,158.08,96C158,96.11,157.83,96.28,157.62,96.3Z"/><path class="cls-69" d="M166.24,86.59c-.31-.35,0-.69,0-1a29.19,29.19,0,0,0,.73-4.74c.07-1,.12-2.09.1-3.13a14.4,14.4,0,0,0-1.61-6.77c-.1-.18-.26-.36-.16-.6a12.36,12.36,0,0,1,1.89,6.13A30.58,30.58,0,0,1,166.24,86.59Z"/><path class="cls-71" d="M158.24,114.6c-.38.16-.72.52-1.19.25a1.9,1.9,0,0,1-.39-1.32h0l.14-.14h0c.17,0,.33-.09.5-.12.82-.13,1.12.19,1,1C158.24,114.39,158.24,114.5,158.24,114.6Z"/><path class="cls-69" d="M171.2,97.49l-.91-.21a4.56,4.56,0,0,1,.23-1.72,7.67,7.67,0,0,0-1.2-5.68c.38,0,.47.37.6.62a8.07,8.07,0,0,1,.7,5.44c-.05.26-.06.52-.13.77s-.05.42.24.48.47.1.57-.23c.16-.53.35-1.06.52-1.59A3.07,3.07,0,0,1,171.2,97.49Z"/><path class="cls-62" d="M169.87,164.52v.29a21.83,21.83,0,0,1-2.7-2c-.44-.31-.86-.66-1.29-1-.11-.08-.22-.16-.1-.3a.22.22,0,0,1,.34,0C167.34,162.57,168.73,163.39,169.87,164.52Z"/><path class="cls-69" d="M163.35,114.05c-.07.31-.13.61-.19.91-.12.1-.16.27-.34.3v0c.07-.2.16-.39.23-.6.16-.55-.14-1.29-.56-1.35a1.37,1.37,0,0,0-1.48,1.58c0,.17.07.33.11.5v0a1.2,1.2,0,0,1-.15-1.59,1.61,1.61,0,0,1,1.58-.78C163.1,113.12,163.24,113.58,163.35,114.05Z"/><path class="cls-64" d="M157.56,140.11c-.32.22-.68.1-1,.1s-.57.09-.55.51c0,.76,0,1.53,0,2.29,0,.37.13.5.5.49.61,0,1.22,0,1.83,0,.19,0,.46-.12.53.2l-2.6-.08c-.27,0-.4-.07-.39-.37,0-.94,0-1.88,0-2.81,0-.29.1-.39.38-.38C156.69,140.1,157.12,140.1,157.56,140.11Z"/><path class="cls-69" d="M158.24,114.6c0-.1,0-.21,0-.32.15-.8-.15-1.12-1-1-.17,0-.33.08-.5.12,0,0,0-.07,0-.11a1.76,1.76,0,0,1,.77-.29,1,1,0,0,1,1,.6A.73.73,0,0,1,158.24,114.6Z"/><path class="cls-69" d="M163.35,88.06c.07-.2.26-.24.42-.28a5.86,5.86,0,0,1,2.7,0c.2,0,.44.06.49.34a5,5,0,0,0-3.5,0A.11.11,0,0,0,163.35,88.06Z"/><path class="cls-69" d="M171.79,92.22l-.12,0-.87-2.55A7.17,7.17,0,0,1,171.79,92.22Z"/><path class="cls-69" d="M162.82,115.26a1.05,1.05,0,0,1-1.72.13v0a2.33,2.33,0,0,0,1.7-.13Z"/><path class="cls-69" d="M168.08,87.21a3.36,3.36,0,0,1-1.86-.64A5.87,5.87,0,0,1,168.08,87.21Z"/><path class="cls-69" d="M156.66,113.53a1.9,1.9,0,0,0,.39,1.32c-.5,0-.54-.41-.68-.74Z"/><path class="cls-67" d="M171.83,95a5.84,5.84,0,0,1,.12-1.82A10.06,10.06,0,0,1,172,95Z"/><path class="cls-69" d="M167,88.09a.92.92,0,0,1,1,.54Z"/><path class="cls-69" d="M169,87.76c-.37-.08-.76-.13-.9-.57A2.51,2.51,0,0,1,169,87.76Z"/><path class="cls-69" d="M170.81,89.73a.52.52,0,0,1-.4-.54A.82.82,0,0,1,170.81,89.73Z"/><path class="cls-69" d="M165.21,70.1c-.35-.09-.4-.36-.42-.66A1.63,1.63,0,0,1,165.21,70.1Z"/><path class="cls-69" d="M164.53,69.06c-.26,0-.28-.14-.27-.33C164.42,68.78,164.47,68.93,164.53,69.06Z"/><path class="cls-72" d="M163.35,88.06a.11.11,0,0,1,.11,0v.18l-.42,0a1,1,0,0,1,0-.1h0c.1,0,.23,0,.28-.14Z"/><path class="cls-67" d="M165.08,30.06c-.19.05-.27-.06-.31-.22A.28.28,0,0,1,165.08,30.06Z"/><path class="cls-69" d="M168,88.64c.21-.07.28,0,.31.22Z"/><path class="cls-69" d="M164.7,69.31c-.17,0-.19-.13-.18-.26Z"/><path class="cls-69" d="M171.83,95H172c0,.12,0,.23-.11.28Z"/><path class="cls-69" d="M165.37,70.33c-.19,0-.2-.11-.18-.25Z"/><path class="cls-69" d="M170.42,89.21c-.14,0-.15-.16-.15-.28C170.4,89,170.39,89.11,170.42,89.21Z"/><path class="cls-69" d="M168.41,89c.13,0,.25,0,.24.19Z"/><path class="cls-69" d="M169.5,88.16c-.14,0-.25,0-.24-.19Z"/><path class="cls-69" d="M169.77,88.42l-.15-.15Z"/><path class="cls-69" d="M169.9,88.55l-.15-.15Z"/><path class="cls-69" d="M169.64,88.29l-.16-.14Z"/><path class="cls-69" d="M169.28,88c-.11,0-.16,0-.17-.13Z"/><path class="cls-69" d="M170,88.68l-.15-.15Z"/><path class="cls-69" d="M169.13,87.88a.14.14,0,0,1-.16-.13Z"/><path class="cls-69" d="M170.17,88.82l-.16-.16Z"/><path class="cls-69" d="M168.63,89.13q.17,0,.15.15Z"/><path class="cls-69" d="M168.76,89.26q.17,0,.15.15Z"/><path class="cls-69" d="M168.89,89.39q.17,0,.15.15Z"/><path class="cls-69" d="M169,89.56l.1,0,0,.09A0,0,0,0,1,169,89.56Z"/><path class="cls-69" d="M169.2,89.74l.14.16Z"/><path class="cls-69" d="M164.8,69.46a.16.16,0,0,1-.13-.17Z"/><path class="cls-66" d="M119.34,76.8c-4.82,3.9-7.21,9.3-9.37,14.88v-.42c0-4.62,0-9.24,0-13.86,0-.61.17-.76.77-.76,2.68,0,5.35,0,8,0h.51Z"/><path class="cls-71" d="M128.69,84.51c.27-.44-.07-1,.24-1.43a4.17,4.17,0,0,0,.25-1.4,28.87,28.87,0,0,1,1.7-6.85,12.24,12.24,0,0,0,1.05-2.51h0c.4-.06.41-.36.41-.66h0a1.08,1.08,0,0,0,.66-.93h0c.25,0,.28-.13.28-.32l.29-.33.1-.15,0,0a1.23,1.23,0,0,0,.92-.93v0l.16-.15h0c.22,0,.37-.06.38-.3h0q.32.08.3-.24h0c.13,0,.24,0,.25-.18h0c.21.09.3,0,.3-.21h0c.2,0,.4,0,.4-.27h0a1,1,0,0,0,.67-.21,9.48,9.48,0,0,1,2.72-1c.23,0,.59-.22.68.22s-.15.51-.49.54a2.19,2.19,0,0,0-.62.17c-.42.18-.95.17-1.18.67h0c-.4,0-.77.06-.9.53v0a.14.14,0,0,0-.18.11h0c-.27,0-.51,0-.54.39h0c-.22,0-.37.06-.38.31h0c-.3,0-.44.08-.43.37h0c-.2,0-.29.08-.28.27l-.11.12-.15.14h0l-.15.15h0c-.22,0-.3.08-.25.29v0c-.1,0-.15.06-.13.16h0c-.09,0-.16,0-.12.14V71c-.42,0-.4.3-.45.57h0c-.3,0-.29.2-.27.4h0a.33.33,0,0,0-.27.41v0a.15.15,0,0,0-.11.18h0c-.44.09-.44.43-.44.76h0c-.15,0-.15.15-.15.27h0c-.15,0-.15.16-.14.28l0,0a.64.64,0,0,0-.37.82v0c-.64.51-.7,1.31-.93,2a39,39,0,0,0-1.61,10.18,52.29,52.29,0,0,0,.16,6.13,9.58,9.58,0,0,0,.34,2.81.15.15,0,0,1,0,.11,15.08,15.08,0,0,0,.47,3.79c.11.54-.2.57-.52.68s-.44-.19-.49-.46c-.13-.72-.21-1.45-.4-2.16-.12-.43.11-1-.35-1.29l0-.66a4.19,4.19,0,0,0-.1-1.83c0-1.24-.12-2.47-.14-3.71,0-1.67,0-3.35,0-5C128.8,85,128.89,84.71,128.69,84.51Z"/><path class="cls-64" d="M131,99.29a3.93,3.93,0,0,1,4,3.78,5.16,5.16,0,0,1-.26,2.06c-1.17,3.15-4.61,3-6.42,1.63a4.07,4.07,0,0,1,.07-6.8,2.06,2.06,0,0,1,1.14-.44c.26.32.1.83.5,1.09l-.39.23a1,1,0,0,0-.4.41c-.45,0-.51.47-.8.66a2.38,2.38,0,0,0,.13,3.17c.18.2.32.55.72.44a.94.94,0,0,0,0,.16,2.54,2.54,0,0,0,1.84.65c.17,0,.37.09.51-.11h0a1.25,1.25,0,0,0,1-.41,2.47,2.47,0,0,0,.92-2.08,2.74,2.74,0,0,0,0-.64c-.13-.66-.22-1.34-.94-1.67-.39-.75-1.12-.85-1.83-1C131.42,100.21,130.85,99.66,131,99.29Z"/><path class="cls-62" d="M116.4,173.33c0-.14,0-.3-.15-.4a.73.73,0,0,1-.11-.68,24,24,0,0,0,.11-3.39c.13-4,.21-8.05.3-12.07.08-3.5.16-7,.26-10.51.07-2.11,0-4.22.11-6.33.16-3.52.18-7,.28-10.57s.17-7.26.26-10.89c.08-3.31.14-6.62.27-9.92.08-2,0-4,.12-5.94s0-4.13.13-6.2c0-1,.09-1.91.11-2.86,0-.16-.06-.41.21-.38s.17.23.16.37c-.24,2.58,0,5.18-.23,7.76,0,.13,0,.26,0,.39,0,3.13-.06,6.27-.16,9.4-.12,3.61-.17,7.22-.28,10.83-.06,1.7,0,3.4-.12,5.09-.14,1.87,0,3.75-.13,5.61s0,3.66-.13,5.48,0,3.93-.13,5.88,0,3.83-.12,5.74c-.16,3.61-.19,7.22-.28,10.83-.08,3.29-.18,6.57-.27,9.85A12.92,12.92,0,0,1,116.4,173.33Z"/><path class="cls-69" d="M130.36,95.75a9.58,9.58,0,0,1-.34-2.81,52.29,52.29,0,0,1-.16-6.13,39,39,0,0,1,1.61-10.18c.23-.69.29-1.49.93-2l-.16.42a28.9,28.9,0,0,0-1.86,7.89l0,.26a35.32,35.32,0,0,0-.27,5.24v.25c0,2.12.12,4.23.29,6.35A5.67,5.67,0,0,1,130.36,95.75Z"/><path class="cls-69" d="M131.93,72.32a12.24,12.24,0,0,1-1.05,2.51,28.87,28.87,0,0,0-1.7,6.85,4.17,4.17,0,0,1-.25,1.4c-.35-.36,0-.74,0-1.08a25.3,25.3,0,0,1,2.8-9.42C131.8,72.49,131.87,72.41,131.93,72.32Z"/><path class="cls-69" d="M130,100.61c-.4-.26-.24-.77-.5-1.09-.13-.82-.24-1.65-.39-2.46a2.75,2.75,0,0,1,0-.64c.46.33.23.86.35,1.29.19.71.27,1.44.4,2.16,0,.27,0,.61.49.46s.63-.14.52-.68a15.08,15.08,0,0,1-.47-3.79,11.52,11.52,0,0,1,.39,2.25l.24,1.18c-.16.37.41.92-.28,1.15Z"/><path class="cls-69" d="M128.69,84.51c.2.2.11.46.12.69,0,1.67,0,3.35,0,5,0,1.24.09,2.47.14,3.71h-.13A62.89,62.89,0,0,1,128.69,84.51Z"/><path class="cls-70" d="M105,112.52l-1.36,9.25A67.65,67.65,0,0,1,105,112.52Z"/><path class="cls-70" d="M105.14,112a23.1,23.1,0,0,1,1-5.47Z"/><path class="cls-73" d="M128.82,93.92H129a4.19,4.19,0,0,1,.1,1.83A6.73,6.73,0,0,1,128.82,93.92Z"/><path class="cls-70" d="M106.74,104.19l-.45,1.91A3.07,3.07,0,0,1,106.74,104.19Z"/><path class="cls-69" d="M133,70.75a1.08,1.08,0,0,1-.66.93A3.83,3.83,0,0,1,133,70.75Z"/><path class="cls-70" d="M106.75,103.81a1.06,1.06,0,0,1,.16-.89C107,103.24,106.9,103.48,106.75,103.81Z"/><path class="cls-70" d="M107,102.48a1,1,0,0,1,.19-.74A.65.65,0,0,1,107,102.48Z"/><path class="cls-69" d="M132.33,71.67c0,.3,0,.6-.41.66A1.83,1.83,0,0,1,132.33,71.67Z"/><path class="cls-69" d="M133.25,70.44c0,.19,0,.35-.28.32l.18-.34h0Z"/><path class="cls-1" d="M140.3,67.37a14.06,14.06,0,0,0,.42,4.12,5.36,5.36,0,0,0,4,3.69,10.18,10.18,0,0,0,6.58-.27,15.19,15.19,0,0,0,7.62-6.26.58.58,0,0,1,.14-.13,4.64,4.64,0,0,1,0,.65,124,124,0,0,1-5.41,19.28c-2.82,7.66-6.36,15-9.85,22.35a3.33,3.33,0,0,1-.25-.28c0-.15,0-.3-.08-.44a73.16,73.16,0,0,1-1.94-8.63c-.55-2.92-1-5.86-1.39-8.8-.27-1.84-.44-3.7-.66-5.55,0,0,.1-.11.1-.16-.09-1.28-.18-2.56-.28-3.84,0,0-.12-.1-.19-.14v-.3c.08,0,.18,0,.17-.12s-.09-.11-.17-.11v-.3c.15-.13.11-.31.11-.48V73.5c0-.17,0-.35-.11-.49v-.42c.2,0,.25-.15.24-.32a43.55,43.55,0,0,1,.22-4.71Z"/><path class="cls-72" d="M143.73,110.8c3.49-7.35,7-14.69,9.85-22.35A124,124,0,0,0,159,69.17a4.64,4.64,0,0,0,0-.65c.26-.63.81-1.16.67-1.93l.36.16v0l.41.27,2.37,1.75c-.09.2.11.26.19.38v0a2.35,2.35,0,0,1,.19.25h0l.21.3h0l.19.24,0,0,.8,1.32h0l.15.27v0l.27.54h0A18.23,18.23,0,0,1,166,79.24a13.71,13.71,0,0,0-.12,2.12l0,.65L165,85.9h0l-.15.43-.06.11a6.81,6.81,0,0,0-3.28,1.2h0l-.17.11,0,0-.25.18h0l-.31.21,0,.05,0-.05-.23.19,0,0-.16.15,0,0-.3.25h0a1,1,0,0,0-.4.42l0,0-.15.16,0,0-.15.16,0,0-.15.16,0,0-.14.16h0L159,90l0,0-.14.17,0,0-.45.62v0a19,19,0,0,0-1.76,4.15c0,.09.05.16.13.2a16.75,16.75,0,0,1-.72,2.87l-.08.14h0c-.69.29-1,1-1.38,1.5q-3.51,4.32-7.19,8.48c-1.44,1.62-2.86,3.26-4.29,4.89a.49.49,0,0,1-.33.19l0,0A18.74,18.74,0,0,1,143.73,110.8Zm18.82-23.9c-.29-.6-.7-1-.91-1.43s-.1-.51.27-.66a6.54,6.54,0,0,1,3.18-.56.92.92,0,0,0-.81-.4,7,7,0,0,0-2.26.52c-1.15.34-1.16.33-.61,1.4C161.64,86.22,161.83,86.71,162.55,86.9Z"/><path class="cls-72" d="M139,72.59V73c-.14,3-.12,6.08,0,9.12V83c.13,1.38.25,2.76.37,4.14.22,1.85.39,3.71.66,5.55.43,2.94.84,5.88,1.39,8.8a73.16,73.16,0,0,0,1.94,8.63c0,.14,0,.29.08.44l-.47,1a2.84,2.84,0,0,1-.86-1,117.09,117.09,0,0,1-8.06-12.49,45.22,45.22,0,0,1-2.82-5.66,13.27,13.27,0,0,1-.77-3.28,1,1,0,0,1,.34-.87,20.36,20.36,0,0,0,2.55-2.78.69.69,0,0,0-.11-1.06,5.49,5.49,0,0,0-2.9-1.5,28.9,28.9,0,0,1,1.86-7.89l.16-.42v0c.12-.27.24-.55.37-.82l0,0c.13-.06.12-.18.14-.28h0c.12-.05.12-.17.15-.27h0l.44-.76h0a1.74,1.74,0,0,1,.11-.18v0a.87.87,0,0,0,.27-.41h0l.27-.4h0l.45-.57V71l.12-.14h0l.13-.16v0l.25-.29h0l.15-.15h0l.15-.14.11-.12.28-.27h0l.43-.37h0c.13-.1.26-.2.38-.31h0l.54-.39h0l.17-.11v0l.9-.53h0a6.25,6.25,0,0,1,1.25-.46Z"/><path class="cls-72" d="M130.09,88.44a35.32,35.32,0,0,1,.27-5.24A6.82,6.82,0,0,1,133,84.64a.48.48,0,0,1,.06.76A20.48,20.48,0,0,1,130.09,88.44Z"/><path class="cls-72" d="M142.81,113.16l-.06.17-.05,0,.09-.15Z"/><path class="cls-68" d="M156.14,62.41a7.78,7.78,0,0,1-2.32,2.32,10.74,10.74,0,0,1-7,2.08,7.29,7.29,0,0,1-5.23-2.7l0,0c.89.2,1.66.72,2.55,1a13.08,13.08,0,0,0,8.41-.72c1.25-.51,2.34-1.32,3.53-1.93Z"/><path class="cls-65" d="M139.94,37.81a.25.25,0,0,1,.12,0,.7.7,0,0,0,.67.22l0,0c-.06.38.32.42.5.61s.46.37.3.64-.44.14-.66.06a6.74,6.74,0,0,0-4.52-.09c-.83.27-1.16-.12-.92-.94v0c.24,0,.45,0,.54-.26h0a2.18,2.18,0,0,0,.58,0,3.68,3.68,0,0,1,2.82-.13A.66.66,0,0,0,139.94,37.81Z"/><path class="cls-68" d="M143.46,43c0,2.35,0,4.67,0,7a5,5,0,0,0,.17,1.22c.28,1,.29,1.57,2.08,1.43A1.36,1.36,0,0,1,144,53a2.06,2.06,0,0,1-1.36-2.09c0-1.11,0-2.22.15-3.32.13-1.45.33-2.89.5-4.33C143.35,43.17,143.31,43.05,143.46,43Z"/><path class="cls-68" d="M145.69,57.57a3.39,3.39,0,0,1-2.79-.88,2.58,2.58,0,0,1-.32-.49.31.31,0,0,1,0-.42.32.32,0,0,1,.42,0c1.75,1.52,3.53,1.08,5.33.13a2.4,2.4,0,0,1,1.52-.5c.16,0,.31,0,.35.24a.27.27,0,0,1-.16.31C148.62,56.89,147.13,57.68,145.69,57.57Z"/><path class="cls-69" d="M137.7,29.58a1.78,1.78,0,0,1,1.82-.62c1.2.18,2.38.55,3.59.76a9.62,9.62,0,0,0,3.34.2c.55-.1,1.1,0,1.66-.1a5.69,5.69,0,0,1,2.17-.23c.42.07.9.07,1.14.54a5.79,5.79,0,0,0-2.89-.15,18,18,0,0,1-4.21.21,24,24,0,0,1-3.22-.69A4.28,4.28,0,0,0,137.7,29.58Z"/><path class="cls-69" d="M157,34.68c.55.36.47,1,.57,1.51.28,1.42.75,2.79.93,4.23a8.13,8.13,0,0,1-.24,3.4c0,.12-.05.25-.09.37-.16.47,0,.58.4.34.08,0,.21,0,.32,0a.56.56,0,0,1-.76.29.51.51,0,0,1-.24-.67c.84-2.11.42-4.2-.11-6.27A26.66,26.66,0,0,0,157,34.68Z"/><path class="cls-69" d="M135.45,38.3c-.24.82.09,1.21.92.94a6.74,6.74,0,0,1,4.52.09c.22.08.53.17.66-.06s-.13-.44-.3-.64-.56-.23-.5-.61a1.43,1.43,0,0,1,.86.66c.17.22.37.5.12.75a.7.7,0,0,1-.82.14,6.39,6.39,0,0,0-2.74-.46,7,7,0,0,0-1.7.33c-.41.11-.85.21-1.16-.16S134.86,38.55,135.45,38.3Z"/><path class="cls-69" d="M149.6,45.66a3.18,3.18,0,0,1-.15-2.68.6.6,0,0,1,.65-.44.71.71,0,0,1,.72.45,3.48,3.48,0,0,1,0,2.48c-.18.51-.69.56-1.22.19,1,0,1.18-.21,1.18-1.18a9.69,9.69,0,0,1-.06-1.09c0-.21-.31-.49-.57-.59s-.41.21-.55.42a1.16,1.16,0,0,0-.13.63A9.14,9.14,0,0,0,149.6,45.66Z"/><path class="cls-69" d="M139.27,67.64a6.25,6.25,0,0,0-1.25.46c.23-.5.76-.49,1.18-.67a2.19,2.19,0,0,1,.62-.17c.34,0,.55-.18.49-.54s-.45-.27-.68-.22a9.48,9.48,0,0,0-2.72,1,1,1,0,0,1-.67.21,8.59,8.59,0,0,1,4.41-1.57,2.09,2.09,0,0,1-.35,1.18l-.82.19Z"/><path class="cls-69" d="M153.32,38.14c.31.21.64.43.5.87s-.59.42-.93.36a12.7,12.7,0,0,0-4.64.12c-.37.07-.83.18-1.14-.23h0c1.83.11,3.63-.48,5.48-.16,1,.18,1.05,0,.66-.89Z"/><path class="cls-69" d="M147.88,37.93a6.41,6.41,0,0,1,5,0l0,0a8.89,8.89,0,0,0-3.21-.2,5.51,5.51,0,0,1-1.76.2Z"/><path class="cls-69" d="M138.74,45.66A3.2,3.2,0,0,1,138.6,43c.17-.53.61-.58,1.21-.22l0,0c-.5,0-1.13-.13-1.14.66a9.64,9.64,0,0,0,.1,2.21Z"/><path class="cls-69" d="M139.94,37.81a.66.66,0,0,1-.56.09,3.68,3.68,0,0,0-2.82.13,2.18,2.18,0,0,1-.58,0A4.81,4.81,0,0,1,139.94,37.81Z"/><path class="cls-73" d="M140.13,43.7a2.84,2.84,0,0,1-.18,1.84l-.15.15h0l-.29,0a3.06,3.06,0,0,0,.39-1.83Z"/><path class="cls-69" d="M160.05,66.75l-.36-.16a1,1,0,0,1,.1-.88,6.79,6.79,0,0,1,1.36.58c-.32.1-.57-.1-.85-.18s-.31-.24-.45,0,0,.32.09.47A.76.76,0,0,1,160.05,66.75Z"/><path class="cls-69" d="M134,37.17c-.07-.14-.28-.19-.27-.39.45-.12.23-.54.37-.81s.05-.86.45-1.16C134.41,35.6,134.23,36.39,134,37.17Z"/><path class="cls-69" d="M154,32.22c.42.16,1,.08,1.16.67A2.77,2.77,0,0,1,154,32.22Z"/><path class="cls-69" d="M139.53,45.66l.29,0a.66.66,0,0,1-1.08,0h.79Z"/><path class="cls-69" d="M155.2,32.87a.91.91,0,0,1,.93.65Z"/><path class="cls-69" d="M134.7,34.43a1.3,1.3,0,0,1,.41-1.19A4.2,4.2,0,0,1,134.7,34.43Z"/><path class="cls-69" d="M140.13,43.7l-.21.13c.07-.36-.12-.69-.13-1l0,0A1.44,1.44,0,0,1,140.13,43.7Z"/><path class="cls-69" d="M135.87,31.74c0-.35-.06-.73.49-.72Z"/><path class="cls-69" d="M152.18,30.65c.4-.07.58.11.55.51Z"/><path class="cls-69" d="M140.73,38.05a.7.7,0,0,1-.67-.22A.59.59,0,0,1,140.73,38.05Z"/><path class="cls-69" d="M152.86,31.28a.53.53,0,0,1,.52.42C153.13,31.66,153,31.44,152.86,31.28Z"/><path class="cls-69" d="M147.11,39.26a.6.6,0,0,1,0-.81l0,0v.78Z"/><path class="cls-69" d="M135.1,33.26c0-.25,0-.46.27-.54A1.15,1.15,0,0,1,135.1,33.26Z"/><path class="cls-69" d="M136,38.06c-.09.27-.3.3-.54.26A.84.84,0,0,1,136,38.06Z"/><path class="cls-69" d="M152.89,37.92a.78.78,0,0,1,.43.22l-.06.06a.39.39,0,0,1-.39-.25Z"/><path class="cls-69" d="M159.05,44.39c0-.2,0-.3.25-.29Z"/><path class="cls-69" d="M153.63,32c.21,0,.36.05.39.28C153.82,32.23,153.72,32.09,153.63,32Z"/><path class="cls-69" d="M134.57,34.82c0-.15,0-.32.15-.4C134.69,34.56,134.74,34.73,134.57,34.82Z"/><path class="cls-69" d="M159.67,43.7c0-.15,0-.3.14-.39C159.81,43.46,159.83,43.61,159.67,43.7Z"/><path class="cls-69" d="M156.51,33.9c.2,0,.29.08.26.28Z"/><path class="cls-69" d="M151.66,30.25c.19,0,.29.05.29.24Z"/><path class="cls-69" d="M135.35,32.73c0-.12,0-.23.15-.28Z"/><path class="cls-69" d="M151.41,30.11c.12,0,.23,0,.27.15C151.57,30.24,151.46,30.24,151.41,30.11Z"/><path class="cls-69" d="M137.32,29.85c0-.08,0-.26.14-.11Z"/><path class="cls-69" d="M147.36,38.19a.27.27,0,0,1,.25-.14l0,0a.25.25,0,0,1-.26.13Z"/><path class="cls-69" d="M136.52,30.76c0-.11,0-.23.16-.27Z"/><path class="cls-69" d="M152,30.49c.11,0,.22,0,.26.16Z"/><path class="cls-69" d="M156.76,34.16c.15.05.16.17.15.29A.31.31,0,0,1,156.76,34.16Z"/><path class="cls-69" d="M135.49,32.47c0-.12,0-.23.14-.28C135.61,32.3,135.6,32.41,135.49,32.47Z"/><path class="cls-69" d="M135.62,32.21c0-.12,0-.23.14-.28A.31.31,0,0,1,135.62,32.21Z"/><path class="cls-69" d="M147.61,38.05c.06-.11.17-.11.27-.12l0,0c-.05.11-.15.12-.26.13Z"/><path class="cls-68" d="M141.61,64.11l-.05-.07.08,0Z"/><path class="cls-68" d="M156.13,62.4l0,0,0,.06Z"/><path class="cls-69" d="M139.8,45.69l.15-.15Z"/><path class="cls-69" d="M158.9,44.51l.15-.14C159,44.46,159,44.53,158.9,44.51Z"/><path class="cls-69" d="M159.28,44.11l.15-.14Z"/><path class="cls-69" d="M159.54,43.84l.13-.14Z"/><path class="cls-69" d="M147.1,38.45l.13-.13,0,0-.13.13Z"/><path class="cls-69" d="M147.23,38.32l.13-.13,0,0-.13.13Z"/><path class="cls-69" d="M157,34.55l.1.14Z"/><path class="cls-69" d="M156.38,33.76l.15.15Z"/><path class="cls-69" d="M156.25,33.63l.15.15Z"/><path class="cls-69" d="M156.12,33.5l.14.15Z"/><path class="cls-69" d="M153.5,31.81l.15.14C153.56,31.94,153.5,31.9,153.5,31.81Z"/><path class="cls-69" d="M135.74,32l.13-.15Z"/><path class="cls-69" d="M153.36,31.68l.15.15C153.42,31.82,153.36,31.78,153.36,31.68Z"/><path class="cls-69" d="M152.72,31.15l.15.13Z"/><path class="cls-69" d="M136.66,30.51l.15-.14Z"/><path class="cls-69" d="M136.92,30.24l.14-.14Z"/><path class="cls-69" d="M137.05,30.11l.14-.14Z"/><path class="cls-69" d="M137.18,30l.14-.14Z"/><path class="cls-69" d="M134.54,69.05a1.23,1.23,0,0,1-.92.93A4.27,4.27,0,0,1,134.54,69.05Z"/><path class="cls-61" d="M133.25,70.44l-.05,0h0c0-.28.1-.42.38-.43a.13.13,0,0,0,0,.12Z"/><path class="cls-69" d="M136.25,67.75c0,.29-.2.28-.4.27Z"/><path class="cls-69" d="M135.05,68.63c0,.24-.16.32-.38.3A.71.71,0,0,1,135.05,68.63Z"/><path class="cls-69" d="M135.33,68.4q0,.31-.3.24Z"/><path class="cls-69" d="M135.86,68c0,.2-.09.3-.3.21Z"/><path class="cls-69" d="M135.57,68.23c0,.17-.12.19-.25.18A.32.32,0,0,1,135.57,68.23Z"/><path class="cls-69" d="M133.54,70.11a.13.13,0,0,1,0-.12l.11,0Z"/><path class="cls-69" d="M134.69,68.92l-.16.15Z"/><path class="cls-69" d="M162.18,66.83a1.27,1.27,0,0,1-1.05-.56A3.22,3.22,0,0,1,162.18,66.83Z"/><path class="cls-69" d="M162.57,67.1a.33.33,0,0,1-.41-.28A.78.78,0,0,1,162.57,67.1Z"/><path class="cls-69" d="M162.74,67.23c-.09,0-.18,0-.18-.14Z"/><path class="cls-69" d="M165.84,81.36a13.71,13.71,0,0,1,.12-2.12A18.23,18.23,0,0,0,164.75,72a4,4,0,0,1,.91,2.16,25.82,25.82,0,0,1,.42,6.74A.49.49,0,0,1,165.84,81.36Z"/><path class="cls-69" d="M156.8,95.09c-.08,0-.16-.11-.13-.2a19,19,0,0,1,1.76-4.15c-.06.78-.63,1.35-.83,2.08-.16.56-.38,1.11-.57,1.66-.08.21-.21.45.16.48s.59.3.71-.22a1,1,0,0,1,.34-.68l.07.06-.48,1.22A2.44,2.44,0,0,0,156.8,95.09Z"/><path class="cls-69" d="M165,85.9,165.8,82c.31.23,0,.49,0,.72-.15.89-.33,1.78-.53,2.67C165.23,85.58,165.26,85.86,165,85.9Z"/><path class="cls-69" d="M161.48,87.64a6.81,6.81,0,0,1,3.28-1.2s0,.1-.06.11C163.59,86.8,162.56,87.3,161.48,87.64Z"/><path class="cls-69" d="M158.24,94.06a3.21,3.21,0,0,1,.78-1.83h0l-.72,1.88Z"/><path class="cls-69" d="M164.36,71.19l-.8-1.32A1.69,1.69,0,0,1,164.36,71.19Z"/><path class="cls-69" d="M158.42,90.72l.45-.62C158.84,90.4,158.81,90.69,158.42,90.72Z"/><path class="cls-69" d="M163,69.13c-.08-.12-.28-.18-.19-.38C162.93,68.85,163.14,68.9,163,69.13Z"/><path class="cls-69" d="M159.75,89.06a1,1,0,0,1,.4-.42C160.2,89,160,89,159.75,89.06Z"/><path class="cls-69" d="M163.09,88.18a1,1,0,0,0,0,.1h0l-.49.18h0C162.64,88.16,162.86,88.16,163.09,88.18Z"/><path class="cls-69" d="M159,92.23a.51.51,0,0,1,.28-.51l0,0c-.07.18-.11.38-.3.49Z"/><path class="cls-69" d="M164.76,72l-.27-.54C164.78,71.51,164.78,71.74,164.76,72Z"/><path class="cls-69" d="M164.82,86.33l.15-.43C165.05,86.09,165.1,86.27,164.82,86.33Z"/><path class="cls-69" d="M161.92,88.85a.29.29,0,0,1,.39-.26l0,0-.4.25Z"/><path class="cls-69" d="M160.79,88.1l.31-.21C161.1,88.11,161,88.18,160.79,88.1Z"/><path class="cls-69" d="M161.4,89.24c0-.22.16-.29.37-.28h0l-.37.29Z"/><path class="cls-69" d="M159,90l.31-.38C159.28,89.81,159.21,90,159,90Z"/><path class="cls-69" d="M160.14,88.65l.3-.25C160.46,88.62,160.35,88.7,160.14,88.65Z"/><path class="cls-69" d="M163.39,69.65l-.21-.3C163.4,69.35,163.48,69.44,163.39,69.65Z"/><path class="cls-69" d="M160.45,67l-.41-.27A.34.34,0,0,1,160.45,67Z"/><path class="cls-69" d="M163.19,69.36a2.35,2.35,0,0,0-.19-.25C163.17,69.11,163.2,69.22,163.19,69.36Z"/><path class="cls-69" d="M159.93,90.78c0-.1,0-.21.16-.23h0l-.17.23Z"/><path class="cls-69" d="M159.55,91.32c0-.12,0-.23.15-.25l0,0c0,.1-.05.2-.16.23Z"/><path class="cls-69" d="M160.71,89.73a.26.26,0,0,1,.27-.12h0l-.19.21Z"/><path class="cls-69" d="M160.46,90.14a.26.26,0,0,1,.12-.28l.1.09-.21.19Z"/><path class="cls-69" d="M164.5,71.45l-.15-.27C164.5,71.21,164.5,71.33,164.5,71.45Z"/><path class="cls-69" d="M159.41,91.57c0-.11,0-.21.14-.25h0c0,.11,0,.21-.14.26Z"/><path class="cls-69" d="M161.09,87.9l.25-.18C161.33,87.88,161.22,87.91,161.09,87.9Z"/><path class="cls-69" d="M163.36,88.05c-.05.14-.18.12-.28.14C163.12,88,163.23,88,163.36,88.05Z"/><path class="cls-69" d="M160.56,88.29l.23-.19C160.81,88.28,160.7,88.3,160.56,88.29Z"/><path class="cls-69" d="M162.31,88.59c0-.16.13-.16.25-.15h0c0,.12-.15.13-.24.16Z"/><path class="cls-69" d="M163.58,69.89l-.19-.24C163.57,69.64,163.59,69.74,163.58,69.89Z"/><path class="cls-69" d="M160.42,88.42l.16-.15Z"/><path class="cls-69" d="M161.32,87.74l.17-.11A.13.13,0,0,1,161.32,87.74Z"/><path class="cls-69" d="M161.77,89l.15-.11h0l-.15.11Z"/><path class="cls-69" d="M159.62,89.19l.15-.16A.14.14,0,0,1,159.62,89.19Z"/><path class="cls-69" d="M159.5,89.33l.15-.16A.17.17,0,0,1,159.5,89.33Z"/><path class="cls-69" d="M161.26,89.37a.13.13,0,0,1,.14-.13v0l-.14.11Z"/><path class="cls-69" d="M159.37,89.46l.15-.16A.16.16,0,0,1,159.37,89.46Z"/><path class="cls-69" d="M161.12,89.49l.14-.12h0l-.14.13Z"/><path class="cls-69" d="M159.25,89.6l.14-.16Z"/><path class="cls-69" d="M161,89.61l.14-.12h0l-.14.12Z"/><path class="cls-69" d="M160.58,89.86l.13-.13.09.1-.12.12Z"/><path class="cls-69" d="M158.85,90.12,159,90A.16.16,0,0,1,158.85,90.12Z"/><path class="cls-69" d="M160.33,90.27l.13-.13h0l-.13.14Z"/><path class="cls-69" d="M160.21,90.41l.12-.14h0l-.12.14Z"/><path class="cls-69" d="M160.09,90.55a.13.13,0,0,1,.12-.14h0l-.12.14Z"/><path class="cls-69" d="M159.81,90.93l.12-.15h0l-.11.14Z"/><path class="cls-69" d="M159.7,91.07a.11.11,0,0,1,.11-.14h0l-.1.16Z"/><path class="cls-69" d="M159.3,91.72l.11-.15h0l-.09.17Z"/><path class="cls-62" d="M162.87,141l-.08,1.86a6.13,6.13,0,0,1,0-2.22Z"/><path class="cls-72" d="M159.33,91.75l.09-.17c.11,0,.12-.15.14-.26s.13-.13.16-.23l.1-.16.11-.14.17-.23.12-.14.12-.14.13-.14.21-.19.12-.12.19-.21.14-.12.14-.13.14-.11.37-.29.15-.11.4-.25c.09,0,.2,0,.24-.16l.49-.18a1,1,0,0,1-.28.84c-1.53,2.22-3.14,4.38-4.85,6.46,0,0-.08,0-.11.06s0-.19,0-.29l.48-1.22.72-1.88C159.22,92.13,159.26,91.93,159.33,91.75Z"/><path class="cls-62" d="M156,98.1l.08-.14Z"/><path class="cls-69" d="M156.79,113.4l-.14.14Z"/><path class="cls-65" d="M164.09,140.09c-.94,0-1-.08-.84-.88a3.76,3.76,0,0,0,0-1.49c-.19-1,.23-1.93.19-2.91,0-.39.4-.44.69-.42s.58.19.63.65c.17,1.29-.26,2.54-.15,3.81a3,3,0,0,0,0,.52C164.86,140,164.62,140.22,164.09,140.09Z"/><path class="cls-65" d="M163.19,140.81l-.05.1a.19.19,0,0,1,0-.1s0-.06,0-.09Z"/><path class="cls-71" d="M162.81,115.24a2.33,2.33,0,0,1-1.7.13c0-.17-.08-.33-.11-.5a1.37,1.37,0,0,1,1.48-1.58c.42.06.72.8.56,1.35C163,114.85,162.88,115,162.81,115.24Z"/><path class="cls-69" d="M138,68.09l-.9.53C137.23,68.15,137.6,68.09,138,68.09Z"/><path class="cls-69" d="M132.76,73.79c-.13.27-.25.55-.37.82A.64.64,0,0,1,132.76,73.79Z"/><path class="cls-69" d="M133.45,72.52l-.44.76C133,73,133,72.61,133.45,72.52Z"/><path class="cls-69" d="M134.5,71l-.45.57C134.1,71.31,134.08,71,134.5,71Z"/><path class="cls-69" d="M136.94,68.7l-.54.39C136.43,68.75,136.67,68.7,136.94,68.7Z"/><path class="cls-69" d="M136.05,69.38l-.43.37C135.61,69.46,135.75,69.33,136.05,69.38Z"/><path class="cls-69" d="M134.06,71.57l-.27.4C133.77,71.77,133.76,71.56,134.06,71.57Z"/><path class="cls-69" d="M133.8,72a.87.87,0,0,1-.27.41A.33.33,0,0,1,133.8,72Z"/><path class="cls-69" d="M135,70.4l-.25.29C134.68,70.48,134.76,70.38,135,70.4Z"/><path class="cls-69" d="M136.41,69.08c-.12.11-.25.21-.38.31C136,69.14,136.19,69.07,136.41,69.08Z"/><path class="cls-69" d="M135.63,69.74l-.28.27C135.34,69.82,135.43,69.72,135.63,69.74Z"/><path class="cls-69" d="M133,73.27c0,.1,0,.22-.15.27C132.87,73.42,132.87,73.3,133,73.27Z"/><path class="cls-69" d="M132.88,73.53c0,.1,0,.22-.14.28C132.73,73.69,132.73,73.57,132.88,73.53Z"/><path class="cls-69" d="M133.54,72.35a1.74,1.74,0,0,0-.11.18A.15.15,0,0,1,133.54,72.35Z"/><path class="cls-69" d="M134.62,70.82l-.12.14C134.46,70.84,134.53,70.82,134.62,70.82Z"/><path class="cls-69" d="M134.74,70.67l-.13.16C134.59,70.73,134.64,70.68,134.74,70.67Z"/><path class="cls-69" d="M135.11,70.26l-.15.15Z"/><path class="cls-69" d="M135.24,70.13l-.15.14Z"/><path class="cls-69" d="M137.1,68.6l-.17.11A.13.13,0,0,1,137.1,68.6Z"/><path class="cls-62" d="M133.5,103.73a2.47,2.47,0,0,1-.92,2.08c-.43-.08-.68.29-1,.41h0c-.18,0-.37,0-.51.11a2.54,2.54,0,0,1-1.84-.65h.27a3.09,3.09,0,0,0,2.49-.1.66.66,0,0,0,.4-.25,1.87,1.87,0,0,0,.89-1.46l.11-.15Z"/><path class="cls-70" d="M129.25,105.51c-.4.12-.54-.23-.72-.43a2.38,2.38,0,0,1-.13-3.17c0,.11,0,.23,0,.34h0c-.13.06-.1.19-.12.29h0a1.93,1.93,0,0,0,0,1.66c0,.59.59.77.93,1.11l.05.2Z"/><path class="cls-70" d="M130,100.61l.74-.17c.71.13,1.44.23,1.83,1h0l-.48-.29a.17.17,0,0,0-.1-.06v0a.52.52,0,0,0-.36-.19h0a3.78,3.78,0,0,0-2-.06Z"/><path class="cls-69" d="M129.6,100.84a3.78,3.78,0,0,1,2,.06,5.91,5.91,0,0,0-2.43.35h0A1,1,0,0,1,129.6,100.84Z"/><path class="cls-70" d="M133.5,103.73h-.13a2.63,2.63,0,0,0-.36-1.58h0a.88.88,0,0,0-.38-.54l0,0,0,0-.08-.19h0c.72.33.81,1,.94,1.67A2.74,2.74,0,0,1,133.5,103.73Z"/><path class="cls-69" d="M128.36,102.25l0-.34c.29-.19.35-.66.8-.66h0A2.27,2.27,0,0,1,128.36,102.25Z"/><path class="cls-70" d="M131.55,106.22c.35-.12.6-.49,1-.41A1.25,1.25,0,0,1,131.55,106.22Z"/><path class="cls-70" d="M131.05,106.33c.14-.16.33-.1.51-.11C131.42,106.42,131.22,106.31,131.05,106.33Z"/><path class="cls-70" d="M129.48,105.69h-.27a.94.94,0,0,1,0-.16h0Z"/><path class="cls-64" d="M139,82.13c-.12-3-.14-6.08,0-9.12.15.14.11.32.11.49v8.15C139.13,81.82,139.17,82,139,82.13Z"/><path class="cls-64" d="M139.27,67.64l.21-.08a43.55,43.55,0,0,0-.22,4.71c0,.17,0,.3-.24.32C139.1,70.94,139.19,69.29,139.27,67.64Z"/><path class="cls-64" d="M139.41,87.1c-.12-1.38-.24-2.76-.37-4.14.07,0,.19.09.19.14.1,1.28.19,2.56.28,3.84C139.51,87,139.45,87.05,139.41,87.1Z"/><path class="cls-64" d="M139,82.66v-.23c.08,0,.17,0,.17.11S139.11,82.65,139,82.66Z"/><path class="cls-62" d="M162.55,86.9c-.72-.19-.91-.68-1.14-1.13-.55-1.07-.54-1.06.61-1.4a7,7,0,0,1,2.26-.52.92.92,0,0,1,.81.4,6.54,6.54,0,0,0-3.18.56c-.37.15-.44.29-.27.66S162.26,86.3,162.55,86.9Z"/><path class="cls-65" d="M149.6,45.66a9.14,9.14,0,0,1-.13-1.81,1.16,1.16,0,0,1,.13-.63c.14-.21.2-.55.55-.42s.6.38.57.59a9.69,9.69,0,0,0,.06,1.09c0,1-.18,1.17-1.18,1.18Z"/><path class="cls-65" d="M147.25,38.34l.13-.13a.25.25,0,0,0,.26-.13c.11,0,.21,0,.26-.13a5.51,5.51,0,0,0,1.76-.2,8.89,8.89,0,0,1,3.21.2.39.39,0,0,0,.39.25c.39.88.33,1.07-.66.89-1.85-.32-3.65.27-5.48.16v-.78Z"/><path class="cls-65" d="M139.79,42.79c0,.35.2.68.13,1a3.06,3.06,0,0,1-.39,1.83h-.78a9.64,9.64,0,0,1-.1-2.21C138.66,42.66,139.29,42.8,139.79,42.79Z"/><path class="cls-69" d="M129.48,105.69l-.23-.18-.05-.2a5.23,5.23,0,0,0,2.74.25l0,0A3.09,3.09,0,0,1,129.48,105.69Z"/><path class="cls-69" d="M133.26,103.88a1.87,1.87,0,0,1-.89,1.46l0,0c.33-.58.9-1.06.78-1.83C133.28,103.57,133.22,103.74,133.26,103.88Z"/><path class="cls-73" d="M133.26,103.88c0-.14,0-.31-.14-.41l-.11-1.32a2.63,2.63,0,0,1,.36,1.58Z"/><path class="cls-69" d="M132.37,105.34a.66.66,0,0,1-.4.25l0,0a.38.38,0,0,1,.4-.26Z"/><path class="cls-71" d="M132.34,105.3a.38.38,0,0,0-.4.26,5.23,5.23,0,0,1-2.74-.25c-.34-.34-.88-.52-.93-1.11v-1.66h0c.16,0,.14-.17.12-.29h0a2.27,2.27,0,0,0,.84-1,5.91,5.91,0,0,1,2.43-.35h0c0,.31.2.2.36.19v0l.1.2c.06.33.27.4.56.34l0,0,0,0c-.1.34.11.46.38.54h0l.11,1.32C133.24,104.24,132.67,104.72,132.34,105.3Z"/><path class="cls-67" d="M128.28,102.54v1.66A1.93,1.93,0,0,1,128.28,102.54Z"/><path class="cls-67" d="M128.38,102.26c0,.12,0,.25-.12.29C128.28,102.45,128.25,102.32,128.38,102.26Z"/><path class="cls-73" d="M132.63,101.61c-.29.06-.5,0-.56-.34v-.14l.48.29Z"/><path class="cls-69" d="M132,101.09c-.16,0-.36.12-.36-.19A.52.52,0,0,1,132,101.09Z"/><path class="cls-69" d="M132.07,101.13v.14c0-.07-.07-.13-.1-.2A.17.17,0,0,1,132.07,101.13Z"/><path class="cls-73" d="M133,102.15c-.27-.08-.48-.2-.38-.54A.88.88,0,0,1,133,102.15Z"/></svg>