<svg id="Calque_2" data-name="Calque 2" xmlns="http://www.w3.org/2000/svg" viewBox="0 0 303 208"><defs><style>.cls-1{fill:#22b573;}.cls-2{fill:#23b473;}.cls-3{fill:#23b373;}.cls-4{fill:#24b274;}.cls-5{fill:#24b174;}.cls-6{fill:#25b074;}.cls-7{fill:#25af74;}.cls-8{fill:#26ae75;}.cls-9{fill:#26ad75;}.cls-10{fill:#27ac75;}.cls-11{fill:#27ab75;}.cls-12{fill:#28aa75;}.cls-13{fill:#28a976;}.cls-14{fill:#29a876;}.cls-15{fill:#29a776;}.cls-16{fill:#2aa676;}.cls-17{fill:#2aa577;}.cls-18{fill:#2ba477;}.cls-19{fill:#2ba377;}.cls-20{fill:#2ca277;}.cls-21{fill:#2ca177;}.cls-22{fill:#2da078;}.cls-23{fill:#2d9f78;}.cls-24{fill:#2e9e78;}.cls-25{fill:#2e9d78;}.cls-26{fill:#2f9c79;}.cls-27{fill:#2f9b79;}.cls-28{fill:#309a79;}.cls-29{fill:#309979;}.cls-30{fill:#319879;}.cls-31{fill:#31977a;}.cls-32{fill:#32967a;}.cls-33{fill:#32957a;}.cls-34{fill:#33947a;}.cls-35{fill:#33937b;}.cls-36{fill:#34927b;}.cls-37{fill:#34917b;}.cls-38{fill:#35907b;}.cls-39{fill:#358f7b;}.cls-40{fill:#368e7c;}.cls-41{fill:#368d7c;}.cls-42{fill:#378c7c;}.cls-43{fill:#378b7c;}.cls-44{fill:#388a7c;}.cls-45{fill:#38897d;}.cls-46{fill:#39887d;}.cls-47{fill:#39877d;}.cls-48{fill:#3a867d;}.cls-49{fill:#3a857e;}.cls-50{fill:#3b847e;}.cls-51{fill:#3b837e;}.cls-52{fill:#3c827e;}.cls-53{fill:#3c817e;}.cls-54{fill:#3d807f;}.cls-55{fill:#3d7f7f;}.cls-56{fill:#3e7e7f;}.cls-57{fill:#3e7d7f;}.cls-58{fill:#3f7c80;}.cls-59{fill:#3f7b80;}.cls-60{fill:#407a80;}.cls-61{fill:#407980;}.cls-62{fill:#417880;}.cls-63{fill:#417781;}.cls-64{fill:#427681;}.cls-65{fill:#427581;}.cls-66{fill:#437481;}.cls-67{fill:#437382;}.cls-68{fill:#447282;}.cls-69{fill:#447182;}.cls-70{fill:#447082;}.cls-71{fill:#456f82;}.cls-72{fill:#456e83;}.cls-73{fill:#466d83;}.cls-74{fill:#466c83;}.cls-75{fill:#476b83;}.cls-76{fill:#476a84;}.cls-77{fill:#486984;}.cls-78{fill:#486884;}.cls-79{fill:#496784;}.cls-80{fill:#496684;}.cls-81{fill:#4a6585;}.cls-82{fill:#4a6485;}.cls-83{fill:#4b6385;}.cls-84{fill:#4b6285;}.cls-85{fill:#4c6186;}.cls-86{fill:#4c6086;}.cls-87{fill:#4d5f86;}.cls-88{fill:#4d5e86;}.cls-89{fill:#4e5d86;}.cls-90{fill:#4e5c87;}.cls-91{fill:#4f5b87;}.cls-92{fill:#4f5a87;}.cls-93{fill:#505987;}.cls-94{fill:#505888;}.cls-95{fill:#515788;}.cls-96{fill:#515688;}.cls-97{fill:#525588;}.cls-98{fill:#525488;}.cls-99{fill:#535389;}.cls-100{fill:#535289;}.cls-101{fill:#545189;}.cls-102{fill:#545089;}.cls-103{fill:#554f89;}.cls-104{fill:#554e8a;}.cls-105{fill:#564d8a;}.cls-106{fill:#564c8a;}.cls-107{fill:#574b8a;}.cls-108{fill:#574a8b;}.cls-109{fill:#58498b;}.cls-110{fill:#58488b;}.cls-111{fill:#59478b;}.cls-112{fill:#59468b;}.cls-113{fill:#5a458c;}.cls-114{fill:#5a448c;}.cls-115{fill:#5b438c;}.cls-116{fill:#5b428c;}.cls-117{fill:#5c418d;}.cls-118{fill:#5c408d;}.cls-119{fill:#5d3f8d;}.cls-120{fill:#5d3e8d;}.cls-121{fill:#5e3d8d;}.cls-122{fill:#5e3c8e;}.cls-123{fill:#5f3b8e;}.cls-124{fill:#5f3a8e;}.cls-125{fill:#60398e;}.cls-126{fill:#60388f;}.cls-127{fill:#61378f;}.cls-128{fill:#61368f;}.cls-129{fill:#62358f;}.cls-130{fill:#62348f;}.cls-131{fill:#633390;}.cls-132{fill:#633290;}.cls-133{fill:#643190;}.cls-134{fill:#643090;}.cls-135{fill:#652f91;}.cls-136{fill:#652e91;}.cls-137{fill:#662d91;}.cls-138{fill:#e9fbfd;stroke:#1b1464;stroke-miterlimit:10;stroke-width:3px;}.cls-139{fill:#fe7a17;}.cls-140{fill:#feaa49;}.cls-141{fill:#fe7a18;}.cls-142{fill:#151b42;}.cls-143{fill:#fea645;}.cls-144{fill:#1d3d5d;}.cls-145{fill:#321d13;}.cls-146{fill:#f1f1f1;}</style></defs><title>help</title><path class="cls-1" d="M71.09,108.54C82.33,101.16,89.25,77.89,107.26,60c17.81-20.21,31.18-21.59,42.4-31.8,10.75-12,36.49-15.44,48.56-2.08,13.92,11.63,14.16,40,16.55,51.9,2.81,16.34,18.14,31.73,16.35,65.26-1.09,15.2-8.57,35.18-22.94,47.56-14,12.68-34.87,17.74-53.78,10-19.53-7.44-33.38-22.66-46.12-32.72-12.54-10.81-24-16.46-34.1-22.36-10-5.39-15.63-13-15-19.83C59.38,119,65.82,113,71.09,108.54Z"/><path class="cls-2" d="M71,108.54C82.17,101.13,89.45,78.47,106.84,60c18.46-19.63,31.9-21.08,42.67-31.87,11.47-11.49,36-14.5,49-1.92s14.3,40,16.51,51.91c3,16.27,18.44,31.7,16.29,65.05-1,15.13-8.8,34.82-23.08,47.38s-34.84,17.58-53.77,10.15c-19.36-7.59-33.48-22.26-46-32.58-12.75-10.53-23.82-16.61-34.07-22.34-9.93-5.55-15.51-13-15.18-19.83S65.75,113,71,108.54Z"/><path class="cls-3" d="M70.87,108.53C82,101.11,89.05,78.46,106.43,59.92,124.86,40.26,138.49,38.79,149.35,28c11.59-11.53,36.45-14.42,49.44-1.75s14.27,40.07,16.46,51.91c3,16.24,18.43,31.67,16.24,64.84-1,15.05-8.89,34.65-23.23,47.2s-34.9,17.68-53.77,10.35c-19.29-7.5-33.35-22.15-45.81-32.45-12.72-10.51-23.78-16.59-34-22.32-9.93-5.54-15.58-13-15.33-19.83S65.68,113,70.87,108.53Z"/><path class="cls-4" d="M70.77,108.52C81.84,101.08,88.64,78.44,106,59.89c18.42-19.69,32.24-21.2,43.19-32,11.7-11.58,36.88-14.36,49.87-1.59s14.24,40.11,16.42,51.92c3,16.21,18.42,31.63,16.18,64.63-1,15-9,34.48-23.37,47s-35,17.77-53.76,10.53c-19.23-7.4-33.23-22-45.66-32.31-12.7-10.5-23.74-16.57-34-22.29-9.93-5.54-15.65-13.05-15.47-19.84S65.61,113,70.77,108.52Z"/><path class="cls-5" d="M70.66,108.51c11-7.45,17.58-30.08,34.93-48.66C124,40.13,138,38.6,149,27.74c11.81-11.61,37.31-14.28,50.31-1.42,13.15,13,14.22,40.14,16.38,51.93,3,16.17,18.4,31.58,16.12,64.41-1,14.9-9,34.31-23.51,46.84s-35,17.87-53.75,10.73c-19.17-7.31-33.1-21.9-45.52-32.18-12.67-10.49-23.69-16.55-34-22.27-9.94-5.54-15.72-13.05-15.62-19.84S65.54,113,70.66,108.51Z"/><path class="cls-6" d="M70.55,108.51c11-7.47,17.29-30.09,34.62-48.7,18.4-19.75,32.58-21.31,43.71-32.18,11.93-11.66,37.75-14.21,50.76-1.26C212.81,39.48,213.83,66.54,216,78.31c2.94,16.14,18.4,31.54,16.07,64.19-1.06,14.83-9.13,34.14-23.65,46.67s-35.09,18-53.75,10.91c-19.09-7.21-33-21.78-45.36-32-12.65-10.48-23.66-16.53-33.94-22.25-9.94-5.53-15.79-13-15.77-19.84S65.47,113,70.55,108.51Z"/><path class="cls-7" d="M70.44,108.5c10.91-7.49,17-30.1,34.31-48.73,18.38-19.78,32.76-21.36,44-32.26,12-11.69,38.18-14.14,51.19-1.09,13.19,13.22,14.16,40.2,16.28,51.94,2.92,16.12,18.39,31.51,16,64-1.08,14.75-9.21,34-23.79,46.49s-35.15,18-53.74,11.1c-19-7.11-32.85-21.66-45.21-31.91-12.63-10.47-23.62-16.51-33.9-22.23C65.62,140.28,59.7,132.75,59.64,126S65.4,113,70.44,108.5Z"/><path class="cls-8" d="M70.33,108.49c10.86-7.5,16.7-30.1,34-48.76,18.36-19.8,32.92-21.42,44.23-32.33,12.16-11.74,38.61-14.07,51.64-.93,13.2,13.33,14.13,40.24,16.23,52,2.9,16.08,18.38,31.46,16,63.77-1.1,14.68-9.3,33.79-23.94,46.31s-35.21,18.14-53.74,11.29c-19-7-32.72-21.53-45-31.77-12.6-10.46-23.58-16.49-33.87-22.21-10-5.52-15.93-13.05-16.08-19.84S65.33,113,70.33,108.49Z"/><path class="cls-9" d="M70.22,108.49C81,101,86.63,78.38,103.92,59.69c18.35-19.83,33.1-21.47,44.5-32.41,12.27-11.77,39-14,52.07-.76,13.22,13.44,14.1,40.27,16.19,52,2.88,16,18.36,31.42,15.9,63.56-1.12,14.6-9.37,33.61-24.08,46.13s-35.28,18.23-53.73,11.48c-18.89-6.92-32.59-21.42-44.91-31.64C97.29,157.57,86.32,151.54,76,145.83c-10-5.52-16-13.06-16.23-19.86S65.26,113,70.22,108.49Z"/><path class="cls-10" d="M70.11,108.48c10.75-7.54,16.12-30.12,33.39-48.82,18.34-19.87,33.27-21.53,44.76-32.49,12.39-11.82,39.47-13.93,52.51-.6,13.24,13.54,14.08,40.3,16.15,52,2.85,16,18.35,31.39,15.84,63.35-1.14,14.53-9.45,33.44-24.22,46s-35.34,18.33-53.72,11.67c-18.83-6.82-32.47-21.29-44.76-31.5-12.55-10.43-23.5-16.45-33.8-22.16-10-5.51-16.07-13.06-16.38-19.86S65.19,113,70.11,108.48Z"/><path class="cls-11" d="M70,108.47c10.69-7.55,15.82-30.12,33.07-48.85,18.32-19.9,33.45-21.59,45-32.57,12.51-11.85,39.91-13.85,53-.42,13.26,13.64,14,40.32,16.1,52,2.83,16,18.34,31.35,15.78,63.13-1.16,14.46-9.53,33.28-24.36,45.78s-35.4,18.42-53.72,11.85c-18.76-6.72-32.34-21.17-44.6-31.36-12.53-10.42-23.46-16.44-33.77-22.14C66.53,140.34,60.35,132.79,60,126S65.12,113,70,108.47Z"/><path class="cls-12" d="M69.9,108.47c10.64-7.57,15.52-30.13,32.76-48.89C121,39.66,136.28,37.94,148,26.94c12.61-11.9,40.34-13.78,53.39-.26,13.28,13.75,14,40.36,16.06,52,2.81,15.95,18.33,31.3,15.72,62.92-1.18,14.37-9.61,33.1-24.5,45.59s-35.47,18.51-53.71,12.05c-18.7-6.63-32.21-21.05-44.45-31.23C98,157.57,87,151.56,76.72,145.86c-10-5.5-16.21-13.06-16.67-19.86S65.05,113,69.9,108.47Z"/><path class="cls-13" d="M69.79,108.46C80.37,100.87,85,78.33,102.24,59.54c18.3-19.95,33.8-21.7,45.55-32.72,12.73-11.93,40.77-13.71,53.83-.09,13.3,13.86,14,40.39,16,52C220.43,94.63,236,110,233.31,141.41c-1.21,14.3-9.7,32.93-24.65,45.42s-35.53,18.6-53.7,12.23c-18.63-6.53-32.09-20.92-44.3-31.09-12.48-10.4-23.39-16.4-33.71-22.09-10-5.5-16.28-13.07-16.82-19.87S65,113,69.79,108.46Z"/><path class="cls-14" d="M69.68,108.45c10.53-7.6,14.94-30.14,32.15-48.95,18.28-20,34-21.75,45.81-32.79,12.84-12,41.2-13.64,54.27.07,13.31,14,14,40.42,16,52,2.77,15.89,18.3,31.23,15.61,62.5-1.23,14.22-9.78,32.75-24.79,45.23s-35.59,18.7-53.7,12.43c-18.56-6.43-32-20.81-44.15-31-12.45-10.38-23.34-16.37-33.67-22.06-10-5.49-16.35-13.07-17-19.87S64.91,113,69.68,108.45Z"/><path class="cls-15" d="M69.57,108.44c10.48-7.61,14.65-30.14,31.84-49,18.26-20,34.13-21.82,46.07-32.88,13-12,41.63-13.56,54.71.24,13.33,14.07,13.93,40.45,15.93,52,2.75,15.86,18.29,31.18,15.55,62.28-1.25,14.15-9.86,32.58-24.93,45.06S173.08,205,155.05,198.77c-18.5-6.33-31.83-20.68-44-30.83-12.43-10.36-23.3-16.35-33.63-22C67.45,140.41,61,132.83,60.29,126S64.84,113,69.57,108.44Z"/><path class="cls-16" d="M69.46,108.44c10.42-7.64,14.36-30.15,31.53-49,18.25-20,34.31-21.87,46.33-32.95,13.08-12.06,42.07-13.5,55.16.4,13.35,14.18,13.9,40.49,15.88,52,2.73,15.84,18.28,31.15,15.49,62.07-1.27,14.08-9.94,32.41-25.07,44.88s-35.72,18.89-53.68,12.81c-18.44-6.24-31.71-20.56-43.85-30.7-12.41-10.35-23.26-16.33-33.6-22-10-5.48-16.5-13.07-17.28-19.87C59.57,119.09,64.77,113,69.46,108.44Z"/><path class="cls-17" d="M69.35,108.43c10.37-7.65,14.06-30.16,31.22-49,18.24-20.07,34.48-21.92,46.6-33,13.19-12.09,42.5-13.42,55.59.57,13.37,14.29,13.87,40.52,15.84,52,2.7,15.8,18.26,31.11,15.43,61.86-1.29,14-10,32.23-25.21,44.7s-35.78,19-53.68,13c-18.36-6.14-31.58-20.44-43.69-30.56-12.39-10.34-23.23-16.31-33.57-22-10-5.48-16.57-13.08-17.43-19.88C59.57,119.09,64.69,113,69.35,108.43Z"/><path class="cls-18" d="M69.24,108.42C79.56,100.76,83,78.26,100.15,59.35c18.22-20.1,34.66-22,46.86-33.1,13.31-12.14,42.93-13.36,56,.73,13.39,14.39,13.85,40.55,15.8,52,2.68,15.77,18.25,31.07,15.37,61.64-1.31,13.93-10.09,32.07-25.35,44.53S173,204.22,155.19,198.34c-18.3-6.05-31.46-20.32-43.55-30.43-12.35-10.33-23.18-16.29-33.53-22-10-5.48-16.64-13.09-17.58-19.89C59.57,119.09,64.62,113,69.24,108.42Z"/><path class="cls-19" d="M69.14,108.42c10.26-7.69,13.47-30.17,30.6-49.11,18.2-20.12,34.82-22,47.11-33.18,13.43-12.17,43.37-13.28,56.48.9,13.4,14.5,13.81,40.58,15.75,52,2.66,15.73,18.24,31,15.32,61.43-1.33,13.85-10.18,31.89-25.5,44.34S173,204,155.24,198.19c-18.24-5.95-31.33-20.2-43.4-30.29-12.33-10.32-23.14-16.27-33.5-22-10-5.47-16.71-13.09-17.73-19.89C59.57,119.1,64.55,113,69.14,108.42Z"/><path class="cls-20" d="M69,108.41c10.2-7.7,13.18-30.18,30.29-49.14,18.19-20.15,35-22.08,47.38-33.25,13.53-12.22,43.79-13.21,56.91,1.06C217,41.69,217.4,67.7,219.32,79.1c2.64,15.71,18.23,31,15.26,61.22-1.35,13.77-10.26,31.72-25.64,44.17-15.23,12.33-36,19.25-53.66,13.56C137.11,192.2,124.08,178,112,167.89,99.73,157.58,88.93,151.64,78.57,146c-10-5.46-16.78-13.09-17.88-19.89C59.57,119.1,64.48,113,69,108.41Z"/><path class="cls-21" d="M68.92,108.4c10.15-7.71,12.88-30.18,30-49.16,18.18-20.19,35.17-22.15,47.64-33.34,13.65-12.25,44.23-13.14,57.35,1.23,13.44,14.72,13.76,40.65,15.67,52,2.62,15.67,18.21,31,15.2,61-1.37,13.7-10.34,31.55-25.78,44-15.29,12.32-36,19.35-53.65,13.75-18.1-5.75-31.08-20-43.09-30C100,157.58,89.17,151.65,78.8,146c-10-5.47-16.85-13.1-18-19.9C59.57,119.11,64.41,113,68.92,108.4Z"/><path class="cls-22" d="M68.81,108.39c10.1-7.73,12.59-30.18,29.67-49.19C116.64,39,133.83,37,146.39,25.79,160.15,13.5,191,12.72,204.18,27.18c13.45,14.82,13.73,40.68,15.62,52,2.6,15.64,18.2,30.91,15.14,60.79-1.39,13.62-10.42,31.37-25.92,43.81s-36.1,19.43-53.64,13.93c-18-5.65-30.95-19.83-42.94-29.88-12.26-10.28-23-16.21-33.4-21.88-10-5.46-16.93-13.1-18.18-19.9C59.57,119.11,64.34,113,68.81,108.39Z"/><path class="cls-23" d="M68.7,108.39c10-7.75,12.3-30.2,29.36-49.23,18.15-20.24,35.52-22.26,48.17-33.49,13.88-12.33,45.09-13,58.23,1.56,13.48,14.93,13.7,40.71,15.58,52,2.57,15.61,18.19,30.87,15.08,60.58-1.41,13.55-10.5,31.2-26.06,43.63-15.41,12.31-36.16,19.53-53.64,14.13-18-5.56-30.82-19.71-42.79-29.75-12.23-10.27-23-16.19-33.36-21.86-10-5.45-17-13.1-18.33-19.9C59.57,119.11,64.27,113,68.7,108.39Z"/><path class="cls-24" d="M68.59,108.38c10-7.77,12-30.2,29.06-49.26,18.13-20.27,35.69-22.31,48.42-33.56,14-12.37,45.52-12.93,58.67,1.73,13.5,15,13.68,40.74,15.53,52,2.56,15.58,18.19,30.83,15,60.37-1.44,13.47-10.59,31-26.21,43.45-15.46,12.3-36.23,19.62-53.63,14.31-17.91-5.46-30.7-19.58-42.64-29.61-12.21-10.26-23-16.18-33.33-21.84-10-5.44-17.07-13.1-18.48-19.9C59.57,119.12,64.2,113,68.59,108.38Z"/><path class="cls-25" d="M68.48,108.37c9.94-7.78,11.71-30.2,28.75-49.29,18.12-20.3,35.86-22.36,48.69-33.64C160,13,191.87,12.59,205,27.34c13.51,15.13,13.64,40.77,15.48,52.05,2.54,15.55,18.17,30.79,15,60.15-1.46,13.4-10.67,30.86-26.35,43.27-15.52,12.29-36.29,19.72-53.62,14.51C137.68,192,124.94,177.85,113,167.84c-12.19-10.25-22.91-16.16-33.3-21.82-10-5.44-17.14-13.1-18.63-19.9C59.57,119.12,64.13,113,68.48,108.37Z"/><path class="cls-26" d="M68.38,108.37c9.87-7.8,11.41-30.22,28.43-49.33,18.1-20.33,36-22.42,48.95-33.71,14.23-12.45,46.38-12.79,59.55,2.06,13.53,15.24,13.62,40.8,15.44,52.05,2.52,15.52,18.16,30.75,14.92,59.94-1.48,13.33-10.75,30.69-26.49,43.1-15.58,12.28-36.35,19.81-53.62,14.69-17.77-5.26-30.44-19.34-42.33-29.34C101.06,157.59,90.36,151.69,80,146c-10-5.44-17.21-13.11-18.78-19.91C59.57,119.12,64.06,113,68.38,108.37Z"/><path class="cls-27" d="M68.27,108.36C78.09,100.54,79.39,78.14,96.39,59c18.09-20.36,36.21-22.48,49.22-33.8,14.34-12.48,46.81-12.71,60,2.23C219.14,42.79,219.18,68.27,221,79.5c2.5,15.49,18.15,30.71,14.86,59.73-1.5,13.25-10.83,30.51-26.63,42.91-15.64,12.28-36.41,19.91-53.61,14.89-17.71-5.17-30.32-19.23-42.19-29.21-12.13-10.23-22.82-16.12-33.23-21.77-10-5.43-17.28-13.11-18.93-19.92C59.57,119.13,64,113,68.27,108.36Z"/><path class="cls-28" d="M68.16,108.35C77.93,100.52,79,78.13,96,59c18.08-20.39,36.39-22.53,49.48-33.87,14.46-12.53,47.24-12.64,60.43,2.39C219.44,43,219.44,68.36,221.23,79.56c2.48,15.45,18.14,30.67,14.8,59.51-1.52,13.18-10.9,30.34-26.77,42.74-15.69,12.26-36.48,20-53.6,15.07-17.65-5.07-30.2-19.1-42-29.08-12.11-10.2-22.79-16.09-33.2-21.74-10-5.43-17.35-13.11-19.08-19.92C59.56,119.13,63.92,113,68.16,108.35Z"/><path class="cls-29" d="M68.05,108.34c9.71-7.84,10.53-30.22,27.51-49.41C113.62,38.51,132.11,36.34,145.29,25c14.58-12.56,47.68-12.57,60.87,2.56,13.58,15.56,13.53,40.9,15.31,52.08,2.46,15.42,18.12,30.63,14.75,59.3-1.55,13.09-11,30.16-26.92,42.56-15.75,12.25-36.54,20.08-53.6,15.26-17.57-5-30.06-19-41.88-29-12.09-10.19-22.75-16.07-33.17-21.72-10-5.42-17.42-13.11-19.23-19.92C59.56,119.14,63.85,113,68.05,108.34Z"/><path class="cls-30" d="M67.94,108.34c9.66-7.87,10.24-30.24,27.2-49.45,18-20.45,36.73-22.64,50-34,14.69-12.6,48.1-12.49,61.31,2.73C220,43.26,220,68.52,221.71,79.67c2.43,15.39,18.11,30.59,14.69,59.09-1.57,13-11.07,30-27.06,42.38-15.81,12.25-36.6,20.18-53.59,15.45-17.51-4.88-29.94-18.86-41.73-28.81C102,157.6,91.31,151.73,80.89,146.09c-10-5.42-17.5-13.12-19.38-19.93C59.56,119.14,63.78,113,67.94,108.34Z"/><path class="cls-31" d="M67.83,108.33c9.61-7.88,10-30.24,26.89-49.48,18-20.47,36.9-22.69,50.26-34.1,14.8-12.64,48.54-12.43,61.75,2.89,13.61,15.78,13.47,41,15.22,52.09,2.41,15.36,18.1,30.55,14.63,58.87-1.59,13-11.15,29.83-27.2,42.21-15.87,12.24-36.67,20.27-53.58,15.64-17.45-4.78-29.82-18.74-41.58-28.68-12-10.17-22.67-16-33.1-21.67-10-5.42-17.57-13.12-19.53-19.93C59.56,119.15,63.71,113,67.83,108.33Z"/><path class="cls-32" d="M67.72,108.32c9.55-7.89,9.66-30.24,26.58-49.51,18-20.5,37.07-22.75,50.53-34.18,14.91-12.67,49-12.35,62.18,3.06,13.63,15.89,13.45,41,15.18,52.1,2.39,15.33,18.09,30.51,14.57,58.66-1.6,12.87-11.23,29.65-27.34,42-15.92,12.23-36.73,20.37-53.58,15.83-17.38-4.68-29.69-18.61-41.43-28.54-12-10.16-22.63-16-33.06-21.65-10-5.41-17.64-13.11-19.68-19.93C59.56,119.15,63.64,113,67.72,108.32Z"/><path class="cls-33" d="M67.61,108.32c9.5-7.92,9.36-30.26,26.27-49.54,18-20.54,37.25-22.81,50.79-34.26,15-12.72,49.4-12.28,62.63,3.22,13.64,16,13.41,41,15.13,52.1,2.37,15.3,18.07,30.48,14.51,58.45-1.62,12.8-11.31,29.48-27.48,41.85-16,12.22-36.8,20.46-53.57,16-17.31-4.58-29.56-18.49-41.28-28.4-12-10.15-22.59-16-33-21.63-10-5.4-17.71-13.11-19.83-19.93C59.56,119.15,63.57,113,67.61,108.32Z"/><path class="cls-34" d="M67.51,108.31c9.44-7.93,9.06-30.26,26-49.57,18-20.57,37.41-22.86,51-34.34,15.15-12.75,49.83-12.21,63.07,3.39C221.24,43.89,221,68.85,222.67,79.9c2.35,15.27,18.06,30.43,14.46,58.24-1.65,12.72-11.4,29.3-27.63,41.66-16,12.22-36.86,20.56-53.56,16.21-17.25-4.49-29.44-18.37-41.13-28.27-12-10.13-22.55-16-33-21.6-10-5.41-17.78-13.12-20-19.94C59.56,119.16,63.5,113,67.51,108.31Z"/><path class="cls-35" d="M67.4,108.3c9.39-7.94,8.77-30.26,25.65-49.6,18-20.59,37.59-22.91,51.31-34.41,15.26-12.79,50.26-12.14,63.51,3.55,13.68,16.21,13.35,41.09,15,52.12,2.33,15.23,18.05,30.39,14.4,58-1.67,12.65-11.48,29.13-27.77,41.49-16.1,12.2-36.92,20.64-53.56,16.39-17.18-4.39-29.31-18.25-41-28.13-12-10.12-22.52-15.95-33-21.58-10-5.4-17.85-13.12-20.13-19.94C59.56,119.16,63.43,113,67.4,108.3Z"/><path class="cls-36" d="M67.29,108.3c9.33-8,8.48-30.28,25.34-49.64,18-20.62,37.76-23,51.57-34.49,15.38-12.83,50.69-12.07,64,3.72,13.7,16.32,13.33,41.13,15,52.12,2.31,15.21,18,30.36,14.34,57.81-1.69,12.58-11.56,29-27.91,41.31-16.15,12.2-37,20.74-53.55,16.59-17.12-4.29-29.18-18.13-40.82-28-11.93-10.11-22.48-15.93-32.94-21.56C72.25,140.77,64.35,133,62,126.22,59.56,119.17,63.36,113,67.29,108.3Z"/><path class="cls-37" d="M67.18,108.29c9.28-8,8.18-30.28,25-49.67,18-20.65,37.94-23,51.83-34.56,15.5-12.87,51.13-12,64.39,3.89,13.72,16.41,13.3,41.15,15,52.12,2.28,15.17,18,30.32,14.28,57.6-1.71,12.5-11.64,28.79-28,41.13-16.21,12.19-37.05,20.83-53.54,16.77-17.05-4.19-29.06-18-40.68-27.86-11.89-10.1-22.43-15.92-32.89-21.54-10-5.38-18-13.12-20.44-19.95C59.56,119.17,63.29,113,67.18,108.29Z"/><path class="cls-38" d="M67.07,108.28c9.23-8,7.89-30.28,24.72-49.7,17.93-20.68,38.11-23.07,52.1-34.64C159.5,11,195.44,12,208.72,28,222.45,44.52,222,69.18,223.63,80.13c2.26,15.14,18,30.27,14.22,57.38-1.73,12.42-11.72,28.62-28.19,41-16.27,12.19-37.11,20.93-53.54,17-17-4.1-28.93-17.89-40.52-27.73-11.87-10.09-22.39-15.9-32.86-21.51-10-5.39-18.07-13.13-20.58-20C59.56,119.18,63.22,113,67.07,108.28Z"/><path class="cls-39" d="M67,108.27c9.17-8,7.6-30.29,24.41-49.72,17.92-20.71,38.29-23.14,52.36-34.72,15.73-12.95,52-11.86,65.27,4.22,13.75,16.63,13.24,41.22,14.87,52.13,2.24,15.12,18,30.24,14.17,57.18-1.76,12.34-11.81,28.44-28.34,40.77-16.33,12.17-37.18,21-53.53,17.15-16.92-4-28.81-17.76-40.37-27.59C104,157.61,93.44,151.81,83,146.2c-10-5.38-18.14-13.13-20.73-20C59.55,119.18,63.15,113,67,108.27Z"/><path class="cls-40" d="M66.85,108.27C76,100.24,74.16,78,91,58.51c17.9-20.74,38.45-23.19,52.62-34.8,15.84-13,52.41-11.78,65.7,4.39,13.77,16.73,13.22,41.25,14.83,52.14,2.22,15.08,18,30.2,14.11,57-1.78,12.27-11.88,28.27-28.48,40.6-16.38,12.16-37.24,21.11-53.52,17.34-16.86-3.91-28.68-17.64-40.22-27.46-11.83-10.06-22.32-15.86-32.8-21.47-10-5.37-18.21-13.13-20.88-20C59.55,119.19,63.08,113,66.85,108.27Z"/><path class="cls-41" d="M66.75,108.26c9.06-8,7-30.3,23.79-49.79,17.89-20.77,38.63-23.24,52.88-34.87,16-13,52.84-11.72,66.15,4.55C223.35,45,222.75,69.43,224.35,80.3c2.2,15,18,30.15,14.05,56.74-1.8,12.2-12,28.11-28.62,40.42-16.44,12.16-37.3,21.21-53.52,17.53-16.79-3.8-28.55-17.52-40.07-27.32-11.8-10-22.27-15.84-32.76-21.45-10-5.37-18.28-13.13-21-20C59.55,119.19,63,113,66.75,108.26Z"/><path class="cls-42" d="M66.64,108.25c9-8.06,6.71-30.31,23.48-49.82,17.87-20.8,38.8-23.29,53.14-34.95,16.08-13.06,53.28-11.64,66.59,4.72,13.8,17,13.16,41.31,14.73,52.16,2.19,15,18,30.11,14,56.53-1.82,12.12-12,28-28.76,40.24-16.48,12.18-37.37,21.29-53.51,17.72-16.72-3.71-28.43-17.4-39.92-27.2-11.77-10-22.23-15.81-32.73-21.42-10-5.36-18.35-13.13-21.18-20C59.55,119.19,62.94,113,66.64,108.25Z"/><path class="cls-43" d="M66.53,108.25c9-8.08,6.42-30.32,23.17-49.86,17.86-20.82,39-23.35,53.41-35,16.19-13.1,53.7-11.58,67,4.88C224,45.31,223.27,69.6,224.82,80.41c2.16,15,18,30.08,13.94,56.32-1.84,12.05-12.1,27.79-28.9,40.06-16.54,12.17-37.43,21.39-53.5,17.91-16.66-3.61-28.3-17.28-39.77-27.06-11.75-10-22.2-15.79-32.7-21.39-10-5.36-18.42-13.14-21.33-20C59.55,119.2,62.87,113,66.53,108.25Z"/><path class="cls-44" d="M66.42,108.24c8.9-8.1,6.13-30.32,22.86-49.89C107.13,37.5,128.43,35,143,23.25c16.31-13.13,54.14-11.5,67.47,5.05,13.83,17.16,13.1,41.38,14.64,52.17,2.14,15,17.94,30,13.89,56.11-1.87,12-12.19,27.61-29,39.88-16.6,12.15-37.49,21.48-53.5,18.09-16.59-3.51-28.17-17.15-39.61-26.92-11.73-10-22.16-15.77-32.67-21.37-10-5.36-18.49-13.14-21.48-20C59.55,119.2,62.8,113,66.42,108.24Z"/><path class="cls-45" d="M66.31,108.23c8.84-8.11,5.84-30.33,22.56-49.91,17.82-20.89,39.32-23.46,53.93-35.18,16.42-13.17,54.56-11.43,67.9,5.21,13.85,17.27,13.08,41.41,14.6,52.18,2.12,14.92,17.93,30,13.83,55.89-1.89,11.9-12.28,27.43-29.19,39.7-16.66,12.15-37.56,21.58-53.49,18.29-16.53-3.41-28-17-39.46-26.79-11.71-10-22.12-15.75-32.63-21.35-10-5.35-18.57-13.14-21.64-20C59.55,119.21,62.73,113,66.31,108.23Z"/><path class="cls-46" d="M66.2,108.22C75,100.1,71.74,77.89,88.45,58.28,106.26,37.36,127.94,34.77,142.64,23c16.53-13.21,55-11.36,68.35,5.38,13.86,17.38,13,41.44,14.55,52.18,2.1,14.9,17.91,30,13.77,55.68C237.4,148.08,227,163.52,210,175.79c-16.72,12.13-37.62,21.67-53.48,18.47C140,191,128.57,177.35,117.18,167.61c-11.67-10-22.07-15.73-32.59-21.33-10-5.34-18.64-13.14-21.79-20C59.55,119.21,62.66,113,66.2,108.22Z"/><path class="cls-47" d="M66.09,108.22c8.74-8.15,5.25-30.34,21.94-50,17.8-20.94,39.67-23.57,54.45-35.33,16.65-13.25,55.43-11.29,68.79,5.54,13.88,17.48,13,41.48,14.51,52.19,2.08,14.86,17.9,29.92,13.71,55.47-1.92,11.74-12.44,27.08-29.47,39.34-16.78,12.12-37.68,21.77-53.48,18.67-16.39-3.22-27.79-16.79-39.16-26.52-11.65-10-22-15.71-32.56-21.3-10.06-5.34-18.71-13.15-21.93-20C59.55,119.22,62.59,113,66.09,108.22Z"/><path class="cls-48" d="M66,108.21c8.68-8.16,5-30.35,21.63-50,17.79-21,39.84-23.62,54.72-35.41,16.76-13.28,55.85-11.22,69.22,5.71,13.9,17.59,13,41.51,14.47,52.2,2.06,14.83,17.89,29.88,13.65,55.25-1.94,11.67-12.52,26.91-29.61,39.17C193.22,187.23,172.31,197,156.59,194c-16.33-3.12-27.67-16.66-39-26.38-11.63-10-22-15.69-32.53-21.28C75,141,66.27,133.16,63,126.32,59.54,119.22,62.51,113,66,108.21Z"/><path class="cls-49" d="M65.88,108.2c8.62-8.17,4.66-30.35,21.31-50,17.77-21,40-23.67,55-35.48,16.88-13.33,56.28-11.15,69.67,5.87,13.91,17.7,13,41.54,14.42,52.2,2,14.81,17.87,29.84,13.6,55.05-2,11.59-12.62,26.73-29.76,39-16.9,12.1-37.81,22-53.46,19.05-16.27-3-27.55-16.55-38.86-26.25-11.61-10-22-15.67-32.5-21.26-10.06-5.33-18.85-13.14-22.23-20C59.54,119.23,62.44,113,65.88,108.2Z"/><path class="cls-50" d="M65.77,108.2c8.57-8.2,4.36-30.36,21-50.07C104.53,37.09,127,34.4,142,22.56c17-13.36,56.71-11.08,70.1,6,13.93,17.81,12.93,41.58,14.38,52.21,2,14.77,17.86,29.8,13.54,54.83-2,11.52-12.7,26.55-29.9,38.81-17,12.08-37.87,22-53.46,19.23-16.2-2.92-27.41-16.42-38.71-26.11-11.58-9.94-21.91-15.66-32.46-21.24-10.06-5.32-18.92-13.14-22.38-20C59.54,119.23,62.37,113,65.77,108.2Z"/><path class="cls-51" d="M65.66,108.19c8.52-8.21,4.07-30.37,20.7-50.1C104.1,37,126.72,34.3,141.86,22.45c17.11-13.4,57.14-11,70.55,6.21,13.94,17.9,12.9,41.6,14.33,52.21,2,14.74,17.85,29.76,13.48,54.61-2,11.45-12.78,26.38-30,38.64-17,12.07-37.94,22.13-53.45,19.42-16.13-2.83-27.29-16.31-38.56-26-11.55-9.93-21.88-15.64-32.43-21.21-10.06-5.33-19-13.15-22.53-20C59.54,119.24,62.3,113,65.66,108.19Z"/><path class="cls-52" d="M65.55,108.18C74,100,69.33,77.81,85.94,58.05,103.67,37,126.47,34.21,141.7,22.33c17.23-13.43,57.58-10.94,71,6.38,13.95,18,12.87,41.63,14.29,52.21,2,14.71,17.83,29.73,13.42,54.41-2,11.37-12.86,26.2-30.18,38.45-17.08,12.06-38,22.23-53.45,19.61-16.06-2.73-27.16-16.18-38.4-25.84-11.53-9.92-21.84-15.62-32.39-21.19-10.07-5.32-19.08-13.15-22.69-20C59.54,119.24,62.23,113,65.55,108.18Z"/><path class="cls-53" d="M65.44,108.18C73.85,99.93,68.93,77.8,85.52,58c17.71-21.12,40.71-23.89,56-35.79,17.34-13.48,58-10.87,71.42,6.54,14,18.12,12.85,41.66,14.25,52.22,1.95,14.68,17.82,29.68,13.36,54.19-2.05,11.3-12.94,26-30.32,38.28-17.14,12.05-38.07,22.32-53.44,19.8-16-2.63-27-16.06-38.25-25.71-11.51-9.9-21.8-15.6-32.36-21.17-10.07-5.31-19.15-13.15-22.84-20C59.54,119.25,62.16,113,65.44,108.18Z"/><path class="cls-54" d="M65.33,108.17C73.69,99.91,68.52,77.78,85.1,58,102.8,36.82,126,34,141.39,22.1c17.46-13.51,58.43-10.8,71.87,6.71,14,18.22,12.81,41.7,14.2,52.23,1.93,14.65,17.81,29.64,13.3,54-2.07,11.22-13,25.84-30.46,38.09-17.2,12-38.13,22.42-53.43,20-15.94-2.53-26.91-15.94-38.1-25.57C107.28,157.64,97,152,86.44,146.38c-10.08-5.31-19.22-13.15-23-20C59.54,119.25,62.09,113,65.33,108.17Z"/><path class="cls-55" d="M65.22,108.16c8.3-8.27,2.9-30.39,19.47-50.23,17.68-21.17,41.05-24,56.54-35.94,17.58-13.55,58.87-10.73,72.31,6.87,14,18.33,12.79,41.73,14.16,52.24,1.91,14.61,17.79,29.6,13.25,53.76-2.1,11.14-13.12,25.67-30.61,37.92-17.27,12-38.19,22.51-53.43,20.17-15.86-2.43-26.78-15.81-37.95-25.44C107.5,157.64,97.24,152,86.67,146.4c-10.08-5.31-19.29-13.16-23.14-20C59.54,119.26,62,113,65.22,108.16Z"/><path class="cls-56" d="M65.12,108.15c8.24-8.29,2.6-30.39,19.15-50.25,17.67-21.21,41.22-24.06,56.81-36,17.69-13.58,59.29-10.65,72.74,7,14,18.44,12.76,41.76,14.12,52.24,1.88,14.59,17.78,29.57,13.19,53.55-2.12,11.07-13.2,25.5-30.75,37.74-17.33,12-38.26,22.61-53.42,20.37-15.8-2.34-26.66-15.69-37.8-25.31C107.73,157.64,97.48,152,86.9,146.41c-10.08-5.3-19.36-13.16-23.28-20C59.53,119.26,62,113,65.12,108.15Z"/><path class="cls-57" d="M65,108.15c8.19-8.31,2.31-30.41,18.84-50.29,17.65-21.24,41.4-24.11,57.07-36.1,17.81-13.63,59.72-10.59,73.19,7.2,14,18.54,12.73,41.79,14.07,52.25C230,95.76,246,110.73,241.31,134.55c-2.14,11-13.28,25.32-30.89,37.56-17.39,12-38.32,22.7-53.41,20.55-15.74-2.23-26.53-15.57-37.65-25.17C108,157.64,97.72,152,87.13,146.42c-10.08-5.3-19.43-13.16-23.43-20C59.53,119.27,61.88,113,65,108.15Z"/><path class="cls-58" d="M64.9,108.14c8.13-8.32,2-30.41,18.53-50.32C101.07,36.55,125,33.66,140.77,21.64,158.69,8,200.92,11.13,214.39,29c14.05,18.65,12.7,41.83,14,52.26,1.84,14.52,17.75,29.48,13.07,53.12-2.16,10.92-13.37,25.15-31,37.38-17.45,12-38.38,22.8-53.41,20.75-15.67-2.14-26.4-15.45-37.49-25-11.39-9.84-21.61-15.49-32.2-21-10.08-5.29-19.5-13.15-23.58-20C59.53,119.27,61.81,113,64.9,108.14Z"/><path class="cls-59" d="M64.79,108.13C72.87,99.79,66.51,77.72,83,57.78c17.63-21.29,41.74-24.21,57.6-36.25,18-13.7,60.58-10.45,74.06,7.53,14.07,18.76,12.68,41.86,14,52.26,1.82,14.5,17.74,29.45,13,52.92-2.18,10.84-13.42,25-31.17,37.2-17.48,12-38.45,22.89-53.4,20.93-15.61-2-26.28-15.33-37.35-24.9-11.36-9.82-21.56-15.47-32.16-21-10.08-5.28-19.57-13.15-23.73-20C59.53,119.28,61.74,113,64.79,108.13Z"/><path class="cls-60" d="M64.68,108.13c8-8.36,1.43-30.43,17.92-50.39,17.61-21.32,41.91-24.27,57.85-36.33,18.16-13.73,61-10.37,74.51,7.7C229,48,227.6,71,228.89,81.38c1.81,14.46,17.74,29.4,13,52.7-2.21,10.77-13.51,24.84-31.32,37-17.54,12-38.51,23-53.39,21.12C141.61,190.29,131,177,120,167.46c-11.34-9.81-21.52-15.45-32.12-21-10.09-5.28-19.65-13.16-23.89-20C59.53,119.29,61.67,113,64.68,108.13Z"/><path class="cls-61" d="M64.57,108.12c8-8.37,1.14-30.43,17.61-50.42,17.59-21.35,42.08-24.32,58.12-36.4C158.57,7.52,201.74,11,215.24,29.16c14.1,19,12.62,41.93,13.89,52.28,1.79,14.43,17.72,29.36,12.91,52.48-2.23,10.7-13.59,24.67-31.46,36.85-17.6,12-38.57,23.08-53.39,21.31-15.47-1.84-26-15.08-37-24.63-11.31-9.8-21.48-15.43-32.09-21-10.09-5.28-19.72-13.16-24-20C59.53,119.29,61.6,113,64.57,108.12Z"/><path class="cls-62" d="M64.46,108.11c7.92-8.39.85-30.43,17.3-50.44C99.34,36.28,124,33.29,140.14,21.18,158.53,7.37,202,11,215.53,29.21c14.11,19.08,12.58,42,13.84,52.28,1.76,14.4,17.71,29.33,12.85,52.28-2.25,10.62-13.67,24.49-31.6,36.67-17.66,12-38.64,23.17-53.38,21.5-15.41-1.75-25.9-15-36.89-24.5-11.29-9.79-21.45-15.41-32.06-21-10.1-5.27-19.79-13.16-24.19-20C59.53,119.3,61.53,113,64.46,108.11Z"/><path class="cls-63" d="M64.36,108.1c7.86-8.4.54-30.44,17-50.47C98.91,36.22,123.77,33.2,140,21.07c18.5-13.85,62.29-10.17,75.82,8.19,14.13,19.19,12.56,42,13.8,52.29,1.74,14.37,17.69,29.29,12.79,52.06-2.27,10.55-13.75,24.32-31.74,36.49-17.71,12-38.7,23.26-53.37,21.69-15.35-1.65-25.78-14.84-36.74-24.36-11.27-9.78-21.41-15.4-32-20.94-10.1-5.26-19.86-13.16-24.34-20C59.53,119.3,61.46,113,64.36,108.1Z"/><path class="cls-64" d="M64.25,108.1c7.8-8.43.25-30.45,16.67-50.51C98.48,36.15,123.53,33.11,139.83,21c18.62-13.88,62.73-10.09,76.26,8.37,14.15,19.28,12.53,42,13.76,52.29,1.72,14.34,17.68,29.24,12.73,51.85-2.29,10.46-13.83,24.15-31.88,36.31-17.77,12-38.77,23.35-53.37,21.88-15.28-1.55-25.64-14.72-36.59-24.23-11.24-9.77-21.36-15.38-32-20.91-10.1-5.27-19.93-13.17-24.49-20C59.53,119.31,61.39,113,64.25,108.1Z"/><path class="cls-65" d="M64.14,108.09c7.75-8.44,0-30.45,16.36-50.54C98,36.08,123.28,33,139.67,20.83c18.74-13.91,63.16-10,76.71,8.54,14.16,19.39,12.5,42.05,13.71,52.29,1.7,14.31,17.67,29.21,12.68,51.64-2.32,10.39-13.92,24-32,36.13-17.83,12-38.83,23.45-53.36,22.07-15.21-1.45-25.52-14.6-36.44-24.09-11.22-9.76-21.32-15.36-32-20.89-10.1-5.26-20-13.16-24.63-20.05C59.52,119.31,61.32,113,64.14,108.09Z"/><path class="cls-66" d="M64,108.08c7.7-8.45-.33-30.46,16.06-50.57C97.61,36,123,32.92,139.52,20.72c18.84-14,63.58-9.95,77.14,8.7,14.17,19.5,12.47,42.08,13.67,52.3C232,96,248,110.89,243,133.14c-2.34,10.32-14,23.81-32.17,36-17.89,12-38.89,23.54-53.35,22.25C142.28,190,132,176.88,121.14,167.4c-11.19-9.74-21.29-15.34-31.93-20.87-10.1-5.25-20.07-13.16-24.78-20C59.52,119.32,61.25,113,64,108.08Z"/><path class="cls-67" d="M63.92,108.08c7.65-8.48-.63-30.47,15.75-50.61,17.51-21.53,43.12-24.64,59.69-36.87,19-14,64-9.88,77.58,8.87,14.19,19.6,12.45,42.11,13.63,52.31C232.23,96,248.21,110.91,243.13,133c-2.36,10.24-14.08,23.63-32.31,35.77-17.95,12-39,23.64-53.35,22.45-15.08-1.25-25.26-14.36-36.13-23.82-11.17-9.73-21.25-15.32-31.89-20.85-10.11-5.25-20.15-13.16-24.94-20C59.52,119.32,61.18,113,63.92,108.08Z"/><path class="cls-68" d="M63.81,108.07c7.59-8.49-.92-30.48,15.44-50.63,17.5-21.56,43.3-24.7,60-36.95,19.07-14,64.44-9.81,78,9,14.2,19.71,12.41,42.15,13.58,52.32,1.63,14.21,17.63,29.08,12.5,51-2.38,10.17-14.16,23.46-32.45,35.6-18,11.94-39,23.73-53.34,22.63-15-1.15-25.14-14.23-36-23.68-11.14-9.72-21.2-15.3-31.85-20.82-10.11-5.25-20.22-13.17-25.09-20.06C59.52,119.33,61.11,113,63.81,108.07Z"/><path class="cls-69" d="M63.7,108.06c7.54-8.5-1.21-30.48,15.13-50.66,17.48-21.59,43.47-24.75,60.22-37,19.19-14.06,64.87-9.74,78.46,9.2,14.22,19.82,12.39,42.18,13.54,52.32,1.61,14.19,17.61,29.05,12.44,50.79-2.4,10.09-14.24,23.29-32.59,35.41-18.06,11.94-39.08,23.83-53.33,22.83-14.95-1.06-25-14.11-35.84-23.56-11.12-9.7-21.16-15.27-31.82-20.79-10.12-5.24-20.29-13.17-25.24-20.06C59.52,119.33,61,113,63.7,108.06Z"/><path class="cls-70" d="M63.59,108.05c7.49-8.52-1.5-30.48,14.82-50.69,17.47-21.62,43.65-24.81,60.48-37.1,19.31-14.1,65.31-9.67,78.91,9.36C232,49.54,230.15,71.83,231.29,82c1.59,14.15,17.6,29,12.39,50.57-2.43,10-14.33,23.12-32.74,35.24-18.12,11.93-39.15,23.92-53.33,23-14.88-1-24.89-14-35.68-23.42-11.1-9.69-21.13-15.25-31.79-20.77C80,141.34,69.78,133.41,64.75,126.52,59.52,119.34,61,113,63.59,108.05Z"/><path class="cls-71" d="M63.49,108.05c7.42-8.54-1.81-30.5,14.51-50.73,17.45-21.65,43.81-24.86,60.74-37.18,19.42-14.13,65.73-9.6,79.34,9.53,14.25,20,12.33,42.24,13.45,52.34,1.57,14.12,17.58,29,12.33,50.35-2.45,9.95-14.41,22.95-32.88,35.07-18.18,11.92-39.21,24-53.32,23.2-14.82-.86-24.76-13.87-35.53-23.29-11.07-9.68-21.09-15.23-31.76-20.75-10.12-5.23-20.43-13.17-25.54-20.06C59.52,119.35,60.9,113,63.49,108.05Z"/><path class="cls-72" d="M63.38,108c7.37-8.55-2.1-30.5,14.2-50.76,17.44-21.67,44-24.91,61-37.25,19.54-14.18,66.16-9.53,79.78,9.69,14.27,20.14,12.3,42.28,13.41,52.34,1.55,14.1,17.57,28.93,12.27,50.15-2.47,9.87-14.48,22.77-33,34.88-18.24,11.92-39.27,24.11-53.31,23.39-14.76-.76-24.64-13.74-35.38-23.15-11-9.66-21-15.21-31.73-20.72-10.12-5.23-20.5-13.17-25.69-20.07C59.52,119.35,60.83,113,63.38,108Z"/><path class="cls-73" d="M63.27,108c7.32-8.57-2.39-30.5,13.89-50.79,17.42-21.7,44.16-25,61.26-37.33,19.66-14.21,66.6-9.46,80.23,9.86C232.93,50,230.92,72.08,232,82.12c1.53,14.06,17.56,28.89,12.21,49.93-2.49,9.79-14.56,22.61-33.16,34.71-18.29,11.9-39.34,24.2-53.31,23.58-14.69-.66-24.51-13.63-35.23-23-11-9.65-21-15.19-31.69-20.7C80.71,141.4,70.26,133.45,65,126.55,59.52,119.36,60.76,113,63.27,108Z"/><path class="cls-74" d="M63.16,108c7.26-8.59-2.68-30.52,13.58-50.82,17.41-21.74,44.34-25,61.53-37.41,19.77-14.25,67-9.39,80.66,10,14.3,20.35,12.24,42.34,13.32,52.36,1.51,14,17.54,28.85,12.15,49.72-2.51,9.71-14.64,22.43-33.3,34.52-18.35,11.9-39.4,24.3-53.3,23.77-14.62-.56-24.38-13.5-35.08-22.88-11-9.64-21-15.17-31.65-20.68-10.13-5.22-20.65-13.17-26-20.08C59.51,119.36,60.69,113,63.16,108Z"/><path class="cls-75" d="M63.05,108c7.21-8.6-3-30.52,13.27-50.85,17.4-21.77,44.51-25.07,61.79-37.49C158,5.4,205.56,10.36,219.21,29.87c14.31,20.46,12.22,42.38,13.28,52.36,1.48,14,17.53,28.81,12.1,49.51-2.54,9.64-14.73,22.26-33.45,34.35-18.41,11.89-39.47,24.39-53.29,24-14.56-.46-24.26-13.39-34.93-22.75-11-9.63-20.93-15.15-31.62-20.66-10.13-5.21-20.72-13.17-26.14-20.08C59.51,119.37,60.62,113,63.05,108Z"/><path class="cls-76" d="M62.94,108c7.16-8.62-3.27-30.52,13-50.88C93.29,35.34,120.59,32,138,19.57c20-14.32,67.87-9.25,81.54,10.35,14.32,20.56,12.18,42.41,13.23,52.37,1.46,14,17.51,28.77,12,49.29-2.56,9.57-14.81,22.09-33.59,34.17-18.47,11.89-39.53,24.49-53.29,24.15-14.49-.36-24.13-13.26-34.77-22.61-11-9.62-20.89-15.14-31.59-20.64-10.14-5.2-20.79-13.17-26.29-20.08C59.51,119.37,60.55,113,62.94,108Z"/><path class="cls-77" d="M62.83,108c7.1-8.64-3.56-30.54,12.66-50.92,17.36-21.82,44.85-25.18,62.31-37.64,20.12-14.36,68.31-9.18,82,10.53C234.12,50.64,231.93,72.41,233,82.35c1.44,13.94,17.5,28.73,12,49.08-2.58,9.49-14.89,21.92-33.73,34-18.53,11.87-39.59,24.58-53.28,24.33-14.43-.26-24-13.13-34.63-22.47-10.92-9.61-20.85-15.12-31.55-20.61-10.14-5.21-20.86-13.18-26.44-20.09C59.51,119.38,60.48,113,62.83,108Z"/><path class="cls-78" d="M62.73,108c7-8.65-3.86-30.54,12.34-50.95,17.35-21.85,45-25.23,62.57-37.71,20.24-14.4,68.74-9.11,82.43,10.69C234.42,50.8,232.19,72.5,233.2,82.41c1.43,13.9,17.49,28.69,11.93,48.86-2.6,9.42-15,21.75-33.87,33.81C192.67,177,171.6,189.76,158,189.61c-14.37-.16-23.88-13-34.48-22.34-10.9-9.59-20.81-15.1-31.52-20.59-10.14-5.2-20.93-13.17-26.59-20.09C59.51,119.39,60.41,113,62.73,108Z"/><path class="cls-79" d="M62.62,108c7-8.67-4.15-30.54,12-51C92,35.13,119.85,31.73,137.49,19.22c20.35-14.43,69.16-9,82.86,10.86,14.37,20.87,12.09,42.5,13.09,52.38,1.41,13.88,17.48,28.65,11.87,48.66-2.62,9.34-15.05,21.57-34,33.63-18.64,11.86-39.72,24.77-53.27,24.71-14.29-.06-23.75-12.89-34.32-22.2-10.88-9.58-20.77-15.08-31.49-20.57-10.14-5.19-21-13.17-26.74-20.09C59.51,119.39,60.33,113,62.62,108Z"/><path class="cls-80" d="M62.51,108c6.93-8.68-4.45-30.55,11.72-51,17.33-21.92,45.38-25.34,63.1-37.87,20.47-14.47,69.6-9,83.3,11,14.39,21,12.07,42.53,13.05,52.39,1.39,13.85,17.46,28.61,11.82,48.44-2.65,9.27-15.14,21.4-34.16,33.45-18.7,11.86-39.78,24.87-53.26,24.91-14.23,0-23.63-12.77-34.17-22.07-10.85-9.57-20.73-15.06-31.46-20.55-10.14-5.19-21.07-13.17-26.89-20.09C59.51,119.4,60.26,113,62.51,108Z"/><path class="cls-81" d="M62.4,108c6.88-8.7-4.74-30.56,11.42-51C91.12,35,119.36,31.55,137.18,19c20.58-14.5,70-8.9,83.74,11.19,14.4,21.08,12,42.56,13,52.4,1.36,13.81,17.45,28.57,11.76,48.22C243,140,230.46,152,211.38,164.08c-18.76,11.85-39.85,25-53.25,25.09-14.17.14-23.5-12.65-34-21.93-10.83-9.56-20.7-15-31.43-20.52-10.14-5.19-21.14-13.18-27-20.1C59.51,119.4,60.19,113,62.4,108Z"/><path class="cls-82" d="M62.29,108c6.83-8.72-5-30.56,11.11-51.07,17.29-22,45.72-25.45,63.62-38C157.72,4.34,207.47,10,221.2,30.23c14.41,21.19,12,42.6,13,52.4,1.34,13.79,17.44,28.53,11.7,48-2.69,9.11-15.3,21.06-34.44,33.1C192.6,175.58,171.51,188.8,158.17,189c-14.1.23-23.37-12.53-33.87-21.8-10.8-9.55-20.65-15-31.38-20.5-10.15-5.18-21.22-13.18-27.19-20.1C59.51,119.41,60.12,113,62.29,108Z"/><path class="cls-83" d="M62.18,108C69,99.23,56.86,77.39,73,56.86c17.28-22,45.89-25.5,63.88-38.1C157.68,4.19,207.74,10,221.48,30.28c14.43,21.3,12,42.63,12.92,52.41,1.32,13.75,17.42,28.49,11.64,47.8-2.71,9-15.38,20.89-34.58,32.92-18.88,11.83-40,25.16-53.24,25.47-14,.34-23.25-12.41-33.72-21.67-10.78-9.53-20.61-15-31.35-20.47C83,141.56,71.86,133.57,65.81,126.63,59.51,119.42,60.05,113,62.18,108Z"/><path class="cls-84" d="M62.07,108c6.72-8.76-5.62-30.58,10.49-51.14,17.27-22,46.06-25.55,64.15-38.17C157.64,4,208,10,221.77,30.33c14.44,21.4,11.95,42.66,12.87,52.42,1.3,13.72,17.41,28.45,11.58,47.59-2.73,9-15.46,20.71-34.72,32.74-18.94,11.82-40,25.25-53.23,25.66-14,.43-23.13-12.29-33.57-21.54-10.76-9.52-20.57-15-31.32-20.45C83.22,141.58,72,133.58,65.89,126.64,59.51,119.42,60,113,62.07,108Z"/><path class="cls-85" d="M62,108c6.67-8.77-5.91-30.59,10.18-51.16,17.25-22.06,46.24-25.61,64.41-38.26,21-14.65,71.74-8.62,85.5,11.85C236.51,51.89,234,73.08,234.88,82.8c1.28,13.7,17.39,28.42,11.52,47.38-2.75,8.89-15.54,20.55-34.86,32.56-19,11.82-40.1,25.35-53.23,25.85-13.9.54-23-12.16-33.41-21.4-10.73-9.5-20.54-14.95-31.29-20.42C83.45,141.6,72.18,133.59,66,126.65,59.5,119.43,59.91,113,62,108Z"/><path class="cls-86" d="M61.86,107.94c6.61-8.78-6.21-30.59,9.87-51.19C89,34.66,118.13,31.09,136.4,18.42c21.16-14.69,72.16-8.56,85.93,12,14.48,21.62,11.9,42.73,12.79,52.43,1.26,13.66,17.38,28.37,11.47,47.16-2.78,8.82-15.63,20.38-35,32.39-19.05,11.81-40.16,25.44-53.22,26-13.84.63-22.87-12-33.27-21.27-10.7-9.49-20.49-14.93-31.25-20.4-10.16-5.17-21.5-13.18-27.79-20.12C59.5,119.43,59.84,113,61.86,107.94Z"/><path class="cls-87" d="M61.75,107.93c6.55-8.8-6.5-30.59,9.56-51.22C88.53,34.59,117.89,31,136.24,18.3c21.28-14.72,72.59-8.48,86.38,12.18,14.49,21.72,11.86,42.76,12.74,52.44,1.23,13.63,17.36,28.33,11.41,47-2.8,8.74-15.71,20.2-35.15,32.2-19.11,11.8-40.23,25.54-53.21,26.23-13.77.73-22.75-11.92-33.12-21.13-10.68-9.48-20.45-14.91-31.22-20.38-10.16-5.16-21.57-13.18-27.94-20.12C59.5,119.44,59.77,113,61.75,107.93Z"/><path class="cls-88" d="M61.64,107.93c6.5-8.82-6.8-30.61,9.25-51.26,17.21-22.15,46.75-25.76,65.19-38.48,21.4-14.76,73-8.42,86.82,12.34,14.5,21.83,11.84,42.8,12.7,52.44,1.21,13.61,17.35,28.3,11.35,46.74-2.82,8.67-15.79,20-35.29,32-19.17,11.79-40.29,25.63-53.21,26.41-13.7.84-22.61-11.8-33-21-10.66-9.47-20.41-14.89-31.19-20.36-10.16-5.15-21.64-13.17-28.09-20.12C59.5,119.44,59.7,113,61.64,107.93Z"/><path class="cls-89" d="M61.53,107.92c6.45-8.83-7.09-30.61,8.94-51.29,17.19-22.18,46.93-25.81,65.46-38.56,21.51-14.79,73.45-8.34,87.26,12.51C237.7,52.52,235,73.41,235.84,83c1.19,13.57,17.33,28.25,11.29,46.53-2.84,8.58-15.87,19.86-35.43,31.84-19.23,11.79-40.35,25.73-53.2,26.61-13.64.93-22.49-11.68-32.81-20.86-10.64-9.46-20.38-14.88-31.15-20.33-10.17-5.15-21.72-13.18-28.25-20.13C59.5,119.45,59.63,113,61.53,107.92Z"/><path class="cls-90" d="M61.42,107.91C67.81,99.06,54,77.3,70.05,56.59c17.18-22.2,47.1-25.87,65.72-38.63,21.63-14.83,73.88-8.28,87.7,12.68,14.53,22,11.78,42.85,12.61,52.45,1.17,13.54,17.32,28.21,11.23,46.31-2.86,8.51-15.95,19.69-35.57,31.67-19.29,11.78-40.42,25.82-53.19,26.79-13.58,1-22.37-11.55-32.66-20.72-10.61-9.45-20.34-14.86-31.12-20.31C84.6,141.68,73,133.65,66.37,126.7,59.5,119.46,59.56,113,61.42,107.91Z"/><path class="cls-91" d="M61.31,107.91c6.34-8.87-7.67-30.63,8.32-51.35,17.17-22.24,47.28-25.93,66-38.72C157.36,3,209.92,9.63,223.75,30.69c14.55,22.14,11.75,42.88,12.57,52.46,1.15,13.51,17.3,28.17,11.18,46.09-2.89,8.44-16,19.52-35.72,31.49-19.34,11.78-40.48,25.92-53.19,27-13.51,1.13-22.24-11.44-32.51-20.59C115.5,157.7,105.79,152.29,95,146.84c-10.17-5.14-21.86-13.18-28.54-20.13C59.5,119.46,59.49,113,61.31,107.91Z"/><path class="cls-92" d="M61.2,107.9c6.29-8.88-8-30.63,8-51.38,17.15-22.27,47.44-26,66.24-38.79,21.86-14.91,74.74-8.14,88.58,13C238.6,53,235.76,73.66,236.56,83.2c1.12,13.48,17.29,28.14,11.12,45.89-2.91,8.36-16.12,19.34-35.86,31.31-19.4,11.76-40.54,26-53.18,27.17-13.44,1.24-22.11-11.31-32.36-20.45-10.56-9.42-20.25-14.82-31-20.27-10.18-5.13-21.93-13.18-28.69-20.14C59.5,119.47,59.42,113,61.2,107.9Z"/><path class="cls-93" d="M61.1,107.89c6.22-8.9-8.27-30.63,7.7-51.41,17.13-22.3,47.62-26,66.5-38.87,22-14.94,75.17-8.07,89,13.18C238.9,53.14,236,73.74,236.8,83.26c1.1,13.45,17.27,28.09,11.06,45.67-2.93,8.29-16.2,19.18-36,31.14-19.46,11.75-40.61,26.1-53.17,27.36-13.38,1.33-22-11.19-32.21-20.32-10.54-9.41-20.22-14.8-31-20.25-10.18-5.13-22-13.18-28.84-20.14C59.5,119.47,59.35,113,61.1,107.89Z"/><path class="cls-94" d="M61,107.89c6.17-8.92-8.56-30.65,7.39-51.45C85.5,34.11,116.17,30.36,135.15,17.5c22.08-15,75.59-8,89.45,13.34,14.59,22.46,11.67,43,12.44,52.48,1.08,13.42,17.26,28.05,11,45.46-2.95,8.21-16.28,19-36.14,30.95-19.52,11.75-40.67,26.2-53.17,27.55-13.31,1.44-21.86-11.07-32-20.18-10.52-9.4-20.18-14.78-31-20.22-10.18-5.13-22.07-13.18-29-20.15C59.5,119.48,59.28,113,61,107.89Z"/><path class="cls-95" d="M60.88,107.88C67,99,52,77.23,68,56.4c17.11-22.35,48-26.13,67-39,22.2-15,76-7.93,89.9,13.51,14.6,22.56,11.63,43,12.39,52.48,1.06,13.39,17.24,28,10.94,45.25-3,8.14-16.36,18.83-36.28,30.78-19.58,11.74-40.73,26.3-53.16,27.74-13.24,1.53-21.73-10.95-31.91-20-10.48-9.39-20.13-14.76-30.95-20.2-10.18-5.12-22.14-13.18-29.14-20.15C59.5,119.49,59.21,113,60.88,107.88Z"/><path class="cls-96" d="M60.77,107.87c6.07-9-9.14-30.65,6.77-51.51C84.63,34,115.68,30.18,134.83,17.27c22.32-15,76.46-7.86,90.34,13.67C239.79,53.61,236.78,74,237.51,83.43c1.05,13.36,17.23,28,10.9,45-3,8.07-16.45,18.66-36.43,30.6-19.64,11.74-40.8,26.4-53.16,27.93-13.17,1.64-21.6-10.83-31.75-19.91C116.61,157.7,107,152.34,96.15,146.9,86,141.78,73.94,133.72,66.86,126.75,59.5,119.49,59.14,113,60.77,107.87Z"/><path class="cls-97" d="M60.66,107.86c6-9-9.44-30.66,6.47-51.53,17.07-22.42,48.31-26.24,67.55-39.18C157.11,2.07,211.56,9.36,225.46,31c14.63,22.78,11.57,43.08,12.29,52.5,1,13.33,17.22,27.93,10.84,44.82-3,8-16.53,18.49-36.57,30.42-19.69,11.72-40.86,26.49-53.15,28.12-13.11,1.73-21.48-10.71-31.6-19.79-10.44-9.36-20.06-14.71-30.88-20.15C86.2,141.8,74.1,133.73,66.94,126.76,59.5,119.5,59.07,113,60.66,107.86Z"/><path class="cls-98" d="M60.55,107.86c6-9-9.73-30.67,6.16-51.57C83.77,33.84,115.19,30,134.52,17c22.55-15.12,77.31-7.73,91.22,14,14.65,22.88,11.55,43.12,12.25,52.5,1,13.3,17.2,27.9,10.78,44.61-3,7.91-16.61,18.32-36.71,30.24-19.75,11.72-40.92,26.59-53.14,28.31-13,1.84-21.35-10.58-31.45-19.65-10.42-9.34-20-14.69-30.85-20.12-10.19-5.11-22.36-13.18-29.6-20.16C59.49,119.51,59,113,60.55,107.86Z"/><path class="cls-99" d="M60.44,107.85c5.91-9-10-30.68,5.85-51.6,17-22.47,48.66-26.35,68.08-39.33C157,1.77,212.1,9.27,226,31.09c14.66,23,11.52,43.15,12.21,52.51,1,13.27,17.19,27.85,10.72,44.4-3.06,7.83-16.69,18.14-36.85,30.06-19.81,11.71-41,26.68-53.14,28.49-13,1.94-21.22-10.46-31.29-19.51-10.4-9.33-20-14.67-30.82-20.1-10.2-5.11-22.43-13.18-29.74-20.16C59.49,119.51,58.93,113,60.44,107.85Z"/><path class="cls-100" d="M60.33,107.84c5.85-9-10.31-30.68,5.54-51.63,17-22.5,48.83-26.4,68.34-39.41C157,1.62,212.38,9.22,226.31,31.14,241,54.23,237.8,74.32,238.47,83.66c1,13.24,17.17,27.81,10.66,44.18-3.08,7.76-16.77,18-37,29.88-19.87,11.71-41,26.78-53.13,28.69-12.91,2-21.1-10.34-31.15-19.38-10.36-9.32-19.93-14.65-30.78-20.08-10.2-5.1-22.5-13.18-29.89-20.16C59.49,119.52,58.86,113,60.33,107.84Z"/><path class="cls-101" d="M60.23,107.84c5.79-9-10.62-30.69,5.22-51.67,17-22.53,49-26.45,68.6-39.48,22.9-15.22,78.6-7.51,92.54,14.5,14.69,23.2,11.46,43.22,12.12,52.52.94,13.21,17.16,27.78,10.61,44-3.11,7.69-16.86,17.81-37.14,29.71-19.93,11.7-41.11,26.87-53.12,28.87-12.85,2.14-21-10.21-31-19.24-10.34-9.31-19.9-14.64-30.75-20.06-10.2-5.09-22.57-13.18-30-20.16C59.49,119.52,58.79,113,60.23,107.84Z"/><path class="cls-102" d="M60.12,107.83c5.74-9-10.91-30.7,4.92-51.7,17-22.56,49.17-26.5,68.86-39.56,23-15.26,79-7.44,93,14.67C241.58,54.55,238.31,74.49,239,83.77c.92,13.18,17.14,27.73,10.55,43.76-3.13,7.61-16.94,17.63-37.28,29.53-20,11.68-41.17,27-53.12,29.06-12.77,2.24-20.84-10.1-30.84-19.11-10.32-9.3-19.86-14.62-30.72-20-10.2-5.09-22.64-13.19-30.19-20.18C59.49,119.53,58.72,112.94,60.12,107.83Z"/><path class="cls-103" d="M60,107.82c5.68-9.06-11.2-30.7,4.61-51.72,17-22.6,49.34-26.56,69.12-39.64,23.13-15.3,79.45-7.37,93.42,14.84,14.72,23.4,11.4,43.27,12,52.53.9,13.15,17.12,27.69,10.49,43.54-3.15,7.53-17,17.46-37.42,29.35-20,11.68-41.24,27.07-53.11,29.25-12.71,2.34-20.72-10-30.69-19-10.3-9.29-19.82-14.6-30.69-20-10.2-5.09-22.71-13.18-30.34-20.18C59.49,119.54,58.65,112.94,60,107.82Z"/><path class="cls-104" d="M59.9,107.81c5.63-9.08-11.49-30.7,4.3-51.75,17-22.62,49.52-26.61,69.39-39.72C156.83,1,213.46,9,227.44,31.35c14.73,23.51,11.38,43.3,12,52.54.87,13.11,17.11,27.65,10.43,43.32-3.17,7.46-17.1,17.3-37.56,29.18-20.1,11.67-41.3,27.16-53.1,29.44-12.65,2.44-20.6-9.86-30.55-18.84-10.27-9.28-19.78-14.58-30.64-20-10.21-5.08-22.79-13.18-30.5-20.18C59.49,119.54,58.58,112.94,59.9,107.81Z"/><path class="cls-105" d="M59.79,107.81c5.58-9.1-11.79-30.72,4-51.79,17-22.65,49.69-26.66,69.65-39.79C156.79.86,213.74,9,227.73,31.4,242.47,55,239.07,74.74,239.67,83.94c.85,13.09,17.09,27.61,10.37,43.12-3.2,7.38-17.18,17.12-37.7,29-20.16,11.67-41.36,27.26-53.1,29.63-12.58,2.54-20.46-9.73-30.39-18.7-10.24-9.26-19.74-14.56-30.61-20C88,141.94,75.38,133.83,67.59,126.83,59.49,119.55,58.51,112.94,59.79,107.81Z"/><path class="cls-106" d="M59.68,107.8C65.2,98.69,47.6,77.08,63.36,56c17-22.68,49.87-26.71,69.91-39.87C156.75.71,214,9,228,31.45c14.76,23.72,11.31,43.37,11.9,52.55.83,13.06,17.08,27.57,10.32,42.9-3.23,7.31-17.27,16.95-37.85,28.82-20.22,11.66-41.42,27.35-53.09,29.82-12.51,2.64-20.34-9.61-30.24-18.57-10.22-9.25-19.7-14.54-30.58-19.94-10.21-5.08-22.93-13.19-30.8-20.19C59.49,119.55,58.44,112.94,59.68,107.8Z"/><path class="cls-107" d="M59.57,107.79C65,98.66,47.2,77.06,63,55.94,79.88,33.23,113,29.17,133.12,16,156.71.56,214.28,8.9,228.29,31.5c14.78,23.83,11.29,43.4,11.86,52.56.81,13,17.06,27.52,10.26,42.69-3.25,7.23-17.35,16.77-38,28.63-20.28,11.66-41.49,27.45-53.08,30-12.45,2.75-20.22-9.49-30.09-18.43-10.2-9.24-19.66-14.52-30.55-19.92-10.22-5.07-23-13.19-30.95-20.19C59.49,119.56,58.37,112.94,59.57,107.79Z"/><path class="cls-108" d="M59.47,107.79c5.41-9.15-12.67-30.74,3.06-51.89,16.91-22.74,50.21-26.82,70.43-40,23.71-15.47,81.59-7,95.62,15.67C243.37,55.48,239.83,75,240.39,84.11c.79,13,17,27.49,10.2,42.48-3.27,7.16-17.43,16.61-38.13,28.46-20.34,11.64-41.55,27.55-53.08,30.2-12.37,2.84-20.09-9.37-29.93-18.3-10.18-9.23-19.63-14.5-30.52-19.9C88.71,142,75.86,133.87,67.84,126.86,59.49,119.57,58.3,112.94,59.47,107.79Z"/><path class="cls-109" d="M59.36,107.78c5.35-9.16-13-30.74,2.75-51.91C79,33.1,112.49,29,132.81,15.77c23.82-15.51,82-7,96.05,15.83,14.8,24,11.23,43.47,11.77,52.57.76,13,17,27.45,10.14,42.26-3.29,7.08-17.51,16.44-38.27,28.28-20.4,11.64-41.61,27.65-53.07,30.39-12.31,3-20-9.25-29.79-18.16-10.15-9.22-19.58-14.48-30.48-19.88C88.94,142,76,133.88,67.92,126.87,59.49,119.57,58.23,112.94,59.36,107.78Z"/><path class="cls-110" d="M59.25,107.77C64.55,98.59,46,77,61.69,55.83c16.89-22.8,50.56-26.93,71-40.18,23.94-15.54,82.45-6.89,96.49,16,14.82,24.14,11.2,43.5,11.73,52.58.74,12.93,17,27.4,10.08,42.05-3.31,7-17.59,16.26-38.41,28.1C192.08,166,170.87,182.12,159.48,185c-12.25,3.05-19.84-9.12-29.64-18-10.12-9.21-19.54-14.46-30.45-19.86C89.17,142,76.18,133.89,68,126.88,59.49,119.58,58.15,112.94,59.25,107.77Z"/><path class="cls-111" d="M59.14,107.76c5.25-9.19-13.55-30.75,2.13-52C78.15,33,112,28.81,132.49,15.54,156.55,0,215.37,8.72,229.43,31.7,244.26,56,240.6,75.24,241.11,84.28c.72,12.91,17,27.37,10,41.84-3.34,6.93-17.68,16.09-38.56,27.92-20.51,11.63-41.74,27.84-53.06,30.77-12.17,3.15-19.71-9-29.48-17.9-10.1-9.18-19.5-14.43-30.42-19.82C89.4,142,76.34,133.9,68.08,126.88,59.49,119.58,58.08,112.94,59.14,107.76Z"/><path class="cls-112" d="M59,107.76c5.2-9.21-13.84-30.76,1.83-52,16.85-22.86,50.9-27,71.48-40.33,24.17-15.61,83.3-6.75,97.37,16.33,14.85,24.36,11.14,43.57,11.64,52.59.7,12.88,17,27.32,10,41.63-3.36,6.85-17.76,15.92-38.7,27.74-20.57,11.62-41.8,27.93-53.05,30.95-12.11,3.25-19.58-8.88-29.33-17.76-10.08-9.17-19.47-14.41-30.38-19.8-10.23-5-23.36-13.19-31.7-20.21C59.49,119.59,58,112.94,59,107.76Z"/><path class="cls-113" d="M58.92,107.75c5.14-9.23-14.13-30.77,1.52-52,16.84-22.89,51.07-27.08,71.74-40.4C156.47-.34,215.91,8.63,230,31.8c14.86,24.46,11.11,43.6,11.59,52.6.68,12.84,17,27.28,9.91,41.41-3.38,6.78-17.84,15.75-38.84,27.57-20.63,11.6-41.86,28-53,31.14-12.05,3.35-19.46-8.76-29.19-17.63-10.05-9.16-19.42-14.4-30.34-19.78-10.23-5-23.43-13.18-31.85-20.21C59.49,119.6,57.94,112.93,58.92,107.75Z"/><path class="cls-114" d="M58.81,107.74C63.9,98.5,44.38,77,60,55.67c16.83-22.91,51.25-27.13,72-40.48,24.41-15.68,84.17-6.61,98.26,16.66,14.87,24.57,11.08,43.64,11.54,52.6.67,12.82,16.95,27.25,9.86,41.2-3.4,6.71-17.92,15.58-39,27.39-20.69,11.6-41.92,28.13-53,31.33-12,3.46-19.33-8.63-29-17.49-10-9.15-19.38-14.38-30.31-19.76-10.23-5-23.5-13.18-32-20.21C59.49,119.6,57.87,112.93,58.81,107.74Z"/><path class="cls-115" d="M58.71,107.74c5-9.26-14.73-30.79.89-52.1,16.82-23,51.42-27.19,72.27-40.56C156.39-.65,216.46,8.53,230.56,31.9c14.89,24.67,11.06,43.67,11.5,52.61.64,12.79,16.94,27.2,9.8,41-3.43,6.62-18,15.41-39.12,27.21-20.75,11.59-42,28.22-53,31.52-11.91,3.55-19.21-8.52-28.88-17.36-10-9.14-19.34-14.36-30.28-19.73C90.31,142.1,77,134,68.4,126.92,59.49,119.61,57.8,112.93,58.71,107.74Z"/><path class="cls-116" d="M58.6,107.73c5-9.28-15-30.79.58-52.13C76,32.62,110.77,28.36,131.71,15c24.64-15.76,85-6.47,99.14,17,14.9,24.78,11,43.7,11.45,52.62.62,12.75,16.92,27.16,9.74,40.77-3.45,6.55-18.08,15.24-39.26,27-20.81,11.59-42.05,28.32-53,31.71-11.84,3.66-19.08-8.39-28.73-17.22-10-9.13-19.31-14.34-30.25-19.71-10.24-5-23.64-13.19-32.3-20.22C59.48,119.62,57.73,112.93,58.6,107.73Z"/><path class="cls-117" d="M58.49,107.72c4.92-9.29-15.31-30.79.28-52.16,16.78-23,51.76-27.29,72.79-40.71C156.31-.95,217,8.44,231.13,32c14.92,24.88,11,43.73,11.41,52.62.6,12.72,16.9,27.11,9.69,40.56-3.48,6.47-18.17,15.06-39.41,26.85-20.87,11.58-42.11,28.41-53,31.9-11.77,3.75-19-8.28-28.57-17.09-10-9.12-19.27-14.32-30.22-19.69-10.24-5-23.71-13.18-32.44-20.22C59.48,119.62,57.66,112.93,58.49,107.72Z"/><path class="cls-118" d="M58.38,107.72c4.87-9.31-15.61-30.81,0-52.2,16.77-23,51.93-27.35,73.05-40.79,24.87-15.83,85.87-6.34,100,17.33,14.93,25,11,43.76,11.37,52.62.58,12.7,16.89,27.08,9.63,40.35-3.5,6.4-18.25,14.89-39.55,26.67-20.92,11.58-42.17,28.52-53,32.09-11.71,3.86-18.83-8.15-28.43-16.95-9.93-9.1-19.22-14.3-30.18-19.67C91,142.15,77.46,134,68.65,127,59.48,119.63,57.59,112.93,58.38,107.72Z"/><path class="cls-119" d="M58.27,107.71c4.81-9.33-15.9-30.81-.34-52.23C74.69,32.42,110,28.08,131.24,14.62c25-15.87,86.31-6.27,100.46,17.49C246.64,57.2,242.63,75.9,243,84.74c.56,12.67,16.87,27,9.57,40.13-3.52,6.33-18.33,14.73-39.69,26.5-21,11.56-42.23,28.61-53,32.28-11.64,4-18.7-8-28.28-16.82-9.9-9.09-19.18-14.28-30.14-19.64C91.23,142.17,77.62,134,68.73,127,59.48,119.63,57.52,112.93,58.27,107.71Z"/><path class="cls-120" d="M58.16,107.7c4.76-9.34-16.19-30.81-.65-52.25C74.25,32.35,109.79,28,131.09,14.5,156.19-1.4,217.82,8.3,232,32.16c15,25.19,10.91,43.83,11.28,52.64.53,12.63,16.85,27,9.51,39.92-3.54,6.24-18.41,14.55-39.83,26.31-21,11.56-42.29,28.71-53,32.47-11.57,4.06-18.57-7.91-28.12-16.68-9.88-9.08-19.15-14.26-30.11-19.62-10.25-5-23.93-13.19-32.9-20.24C59.48,119.64,57.45,112.93,58.16,107.7Z"/><path class="cls-121" d="M58.05,107.69c4.71-9.35-16.48-30.82-1-52.28,16.73-23.13,52.46-27.51,73.84-41,25.21-15.94,87.16-6.13,101.33,17.82,15,25.3,10.88,43.86,11.24,52.64.51,12.61,16.84,27,9.45,39.71-3.56,6.17-18.49,14.38-40,26.14-21.1,11.55-42.35,28.8-53,32.65-11.5,4.17-18.45-7.78-28-16.54-9.86-9.07-19.11-14.24-30.08-19.6-10.25-5-24-13.19-33-20.24C59.48,119.65,57.38,112.93,58.05,107.69Z"/><path class="cls-122" d="M57.94,107.69c4.65-9.38-16.78-30.83-1.27-52.32,16.72-23.16,52.63-27.56,74.11-41.1,25.32-16,87.58-6.06,101.77,18,15,25.41,10.85,43.89,11.19,52.65.49,12.58,16.82,26.91,9.4,39.5-3.59,6.09-18.58,14.21-40.12,26-21.16,11.55-42.41,28.91-53,32.85-11.44,4.26-18.33-7.67-27.83-16.41-9.83-9.06-19.06-14.22-30-19.58C91.92,142.22,78.1,134,69,127,59.48,119.65,57.31,112.93,57.94,107.69Z"/><path class="cls-123" d="M57.84,107.68c4.59-9.39-17.08-30.84-1.58-52.35,16.7-23.19,52.8-27.61,74.36-41.17,25.44-16,88-6,102.21,18.15C247.83,57.82,243.65,76.24,244,85c.47,12.54,16.8,26.86,9.34,39.28-3.62,6-18.66,14-40.26,25.78-21.22,11.54-42.48,29-53,33-11.36,4.37-18.19-7.54-27.67-16.27-9.81-9-19-14.2-30-19.55-10.26-5-24.14-13.19-33.35-20.25C59.48,119.66,57.24,112.93,57.84,107.68Z"/><path class="cls-124" d="M57.73,107.67c4.54-9.41-17.37-30.84-1.89-52.38,16.68-23.21,53-27.66,74.62-41.25C156-2,218.9,8.12,233.12,32.36c15,25.62,10.79,44,11.1,52.66.45,12.52,16.78,26.83,9.28,39.07C249.86,130,234.76,138,213.1,149.7c-21.28,11.53-42.54,29.09-53,33.22-11.3,4.47-18.07-7.42-27.52-16.14-9.78-9-19-14.18-30-19.53A225.1,225.1,0,0,1,69.13,127C59.48,119.67,57.17,112.93,57.73,107.67Z"/><path class="cls-125" d="M57.62,107.67C62.1,98.24,40,76.82,55.42,55.25,72.09,32,108.57,27.54,130.31,13.93,156-2.15,219.18,8.07,233.4,32.41c15,25.72,10.76,44,11.06,52.67.42,12.49,16.77,26.78,9.22,38.86-3.66,5.86-18.82,13.69-40.54,25.42-21.34,11.52-42.6,29.19-53,33.41-11.23,4.57-18-7.3-27.37-16-9.76-9-19-14.15-29.95-19.5A230.08,230.08,0,0,1,69.22,127C59.48,119.67,57.1,112.92,57.62,107.67Z"/><path class="cls-126" d="M57.51,107.66c4.43-9.44-18-30.86-2.51-52.44,16.66-23.28,53.32-27.77,75.15-41.41C155.94-2.3,219.45,8,233.68,32.46c15,25.83,10.74,44,11,52.68.4,12.46,16.75,26.74,9.16,38.64-3.68,5.79-18.9,13.53-40.68,25.25-21.4,11.51-42.66,29.29-53,33.6-11.16,4.67-17.81-7.18-27.21-15.88-9.74-9-18.91-14.14-29.92-19.48A235.47,235.47,0,0,1,69.3,127C59.48,119.68,57,112.92,57.51,107.66Z"/><path class="cls-127" d="M57.4,107.65c4.38-9.46-18.25-30.86-2.82-52.47C71.23,31.87,108.07,27.36,130,13.7,155.9-2.45,219.72,8,234,32.51c15.05,25.93,10.7,44.06,11,52.69.38,12.42,16.73,26.69,9.11,38.43-3.71,5.71-19,13.35-40.83,25.06-21.45,11.51-42.72,29.39-52.95,33.79-11.09,4.78-17.69-7-27.07-15.74-9.71-9-18.86-14.12-29.87-19.46A239,239,0,0,1,69.38,127C59.48,119.68,57,112.92,57.4,107.65Z"/><path class="cls-128" d="M57.29,107.64c4.33-9.47-18.54-30.87-3.12-52.5,16.62-23.34,53.66-27.87,75.67-41.56,26-16.18,90.15-5.65,104.41,19,15.07,26,10.68,44.09,10.93,52.69.36,12.4,16.71,26.65,9,38.22-3.73,5.63-19.07,13.18-41,24.89-21.51,11.5-42.78,29.48-52.94,34-11,4.87-17.57-6.94-26.92-15.61-9.69-9-18.83-14.1-29.84-19.43A246.14,246.14,0,0,1,69.46,127C59.48,119.69,56.89,112.92,57.29,107.64Z"/><path class="cls-129" d="M57.18,107.64c4.27-9.49-18.83-30.88-3.43-52.54,16.61-23.37,53.83-27.92,75.93-41.63,26.14-16.22,90.58-5.58,104.85,19.14,15.09,26.15,10.65,44.13,10.89,52.7.34,12.37,16.7,26.61,9,38-3.76,5.56-19.15,13-41.11,24.71-21.57,11.5-42.84,29.58-52.94,34.17-11,5-17.44-6.81-26.76-15.47-9.66-9-18.79-14.08-29.81-19.41A250.45,250.45,0,0,1,69.54,127C59.48,119.7,56.82,112.92,57.18,107.64Z"/><path class="cls-130" d="M57.08,107.63c4.21-9.51-19.14-30.88-3.75-52.57,16.6-23.39,54-28,76.2-41.71,26.25-16.25,91-5.51,105.29,19.32,15.1,26.24,10.61,44.15,10.84,52.7.31,12.33,16.68,26.56,8.93,37.79-3.78,5.48-19.23,12.84-41.25,24.53-21.63,11.49-42.89,29.69-52.93,34.36-10.88,5.1-17.31-6.7-26.61-15.34-9.64-9-18.75-14.06-29.78-19.39a255.8,255.8,0,0,1-34.4-20.27C59.48,119.7,56.75,112.92,57.08,107.63Z"/><path class="cls-131" d="M57,107.62C61.13,98.1,37.54,76.73,52.91,55,69.5,31.6,107.09,27,129.37,13.24,155.74-3,220.81,7.79,235.1,32.72c15.11,26.35,10.59,44.18,10.8,52.7.29,12.31,16.66,26.52,8.87,37.58-3.8,5.4-19.31,12.67-41.39,24.35-21.69,11.48-42.95,29.79-52.92,34.55-10.81,5.2-17.19-6.57-26.47-15.2-9.61-8.94-18.7-14-29.74-19.37A260.64,260.64,0,0,1,69.7,127.06C59.48,119.71,56.68,112.92,57,107.62Z"/><path class="cls-132" d="M56.86,107.62C61,98.08,37.14,76.72,52.49,55c16.57-23.46,54.36-28.09,76.72-41.87C155.7-3.2,221.08,7.75,235.39,32.77,250.51,59.22,245.94,77,246.13,85.48c.28,12.28,16.65,26.48,8.83,37.37-3.83,5.32-19.4,12.49-41.54,24.17-21.75,11.47-43,29.88-52.92,34.73-10.74,5.3-17.06-6.44-26.31-15.06-9.59-8.93-18.67-14-29.71-19.34a267.47,267.47,0,0,1-34.7-20.28C59.48,119.71,56.61,112.92,56.86,107.62Z"/><path class="cls-133" d="M56.75,107.61c4-9.56-20-30.9-4.67-52.66,16.55-23.49,54.52-28.14,77-41.94,26.6-16.36,92.29-5.31,106.61,19.81,15.14,26.56,10.53,44.25,10.7,52.72.26,12.25,16.63,26.43,8.77,37.15-3.85,5.25-19.48,12.33-41.68,24-21.81,11.47-43.08,30-52.91,34.93-10.68,5.39-16.93-6.33-26.16-14.93-9.57-8.92-18.63-14-29.68-19.32a273.26,273.26,0,0,1-34.85-20.28C59.48,119.72,56.54,112.92,56.75,107.61Z"/><path class="cls-134" d="M56.64,107.6c4-9.57-20.3-30.91-5-52.69,16.54-23.52,54.7-28.19,77.24-42,26.72-16.39,92.72-5.24,107,20,15.16,26.66,10.5,44.29,10.66,52.72.24,12.22,16.62,26.39,8.71,36.94-3.87,5.17-19.56,12.16-41.82,23.82-21.87,11.46-43.14,30.07-52.9,35.11-10.61,5.49-16.81-6.2-26-14.79-9.54-8.91-18.59-14-29.64-19.3a279,279,0,0,1-35-20.28C59.48,119.73,56.47,112.92,56.64,107.6Z"/><path class="cls-135" d="M56.53,107.6c3.94-9.59-20.6-30.92-5.29-52.73,16.53-23.54,54.87-28.24,77.51-42.1,26.83-16.42,93.14-5.16,107.49,20.15,15.16,26.77,10.47,44.32,10.61,52.73.21,12.19,16.6,26.35,8.65,36.73-3.9,5.09-19.64,12-42,23.64-21.93,11.45-43.2,30.15-52.9,35.3-10.54,5.58-16.68-6.09-25.85-14.66-9.52-8.9-18.55-14-29.61-19.28A285.1,285.1,0,0,1,70,127.1C59.48,119.73,56.4,112.92,56.53,107.6Z"/><path class="cls-136" d="M56.42,107.59c3.89-9.61-20.89-30.93-5.6-52.76,16.51-23.57,55.05-28.29,77.77-42.17C155.54-3.8,222.17,7.56,236.52,33,251.7,59.84,247,77.32,247.09,85.71c.19,12.16,16.56,26.29,8.59,36.51-3.93,5-19.72,11.82-42.1,23.46-22,11.45-43.27,30.25-52.89,35.49-10.48,5.69-16.56-6-25.71-14.52-9.49-8.89-18.51-13.94-29.57-19.25a291.46,291.46,0,0,1-35.3-20.29C59.48,119.74,56.33,112.91,56.42,107.59Z"/><path class="cls-137" d="M56.31,107.58C60.15,98,34.12,75.91,50.4,54.79c15.38-24.35,54.11-30.34,78-42.25C154-6.21,225.68,5.94,236.8,33c18.4,24.91,9.91,44.41,10.53,52.74-.56,12.12,16.55,26.25,8.54,36.31-4,4.93-20,11.23-42.25,23.28-22.25,11-43.33,30.34-52.88,35.68-10.41,5.78-16.16-6.14-25.56-14.39-9.17-9.18-18.5-13.87-29.54-19.23a276.63,276.63,0,0,1-35.45-20.29C59.43,119.82,56.26,112.91,56.31,107.58Z"/><rect class="cls-138" x="172.24" y="63.57" width="47.05" height="71.14" rx="6.15" transform="translate(60.24 -73.45) rotate(25)"/><path class="cls-139" d="M143.93,83.37A47.66,47.66,0,0,1,151.19,87a42.81,42.81,0,0,1,13.18,14c1.23,2,2.32,4.13,3.35,6.26l-1.53,3.92h0a10.2,10.2,0,0,0-1,2.4h0a1.66,1.66,0,0,0-.36.85h0a2.46,2.46,0,0,0-.39.93s0,.07,0,.1a16.45,16.45,0,0,0-1.46,3.77h0c-.2,0-.14.17-.15.29-.21.45-.66.62-1,.89-.94-2-1.58-4-2.38-6-.15-.36-.1-1.12-.53-1s-.07.8.07,1.18c.75,2.09,1.53,4.17,2.31,6.26-.1.41-.46.62-.72.91-1.2,1.32-2.44,2.6-3.58,4a66,66,0,0,1-8.81,8.88c-.37-.09-.57.19-.82.36l-7,4.76c-.27,0-.48.06-.52.37h0a.4.4,0,0,0-.53.32h0c-.4.13-1,0-1,.68h0c-.16,0-.3,0-.32.21v0l-.21.15h0c-.15,0-.29,0-.33.2h0c-.16,0-.32,0-.28.21h0c-.12,0-.17,0-.19.13h0a.42.42,0,0,0-.53.33h0a.44.44,0,0,0-.52.34h0c-.26,0-.51,0-.51.34h0c-.16,0-.29,0-.33.2h0c-.38,0-.75.07-.82.54h0a.17.17,0,0,0-.21.13h0c-.16,0-.3,0-.32.21l0,0,0,0c-.16,0-.32-.05-.29.2h0a.14.14,0,0,0-.2.12h0a.43.43,0,0,0-.53.33h0a.46.46,0,0,0-.52.33h0c-.15,0-.28,0-.34.19h0c-.16,0-.3,0-.32.21h0l-.21.14h0c-.15,0-.29,0-.33.19h0a.41.41,0,0,0-.53.32h0a1.26,1.26,0,0,0-1.18.7h0a.78.78,0,0,0-.86.51h0c-.17,0-.31,0-.34.2l0,0,0,0c-.28-.07-.53-.09-.53.31h0c-.15,0-.29,0-.33.19h0a.42.42,0,0,0-.54.31h0c-.16,0-.3,0-.33.2h0a1.2,1.2,0,0,0-1.2.68h0c-.26,0-.51-.06-.54.31h0c-.29,0-.55,0-.66.35h0c-.17,0-.45-.12-.43.25h0c-.11-.05-.16,0-.19.11h0a2.63,2.63,0,0,0-1.89,1h0a.3.3,0,0,0-.34.17h0c-.15,0-.28,0-.33.18h0c-.16,0-.29,0-.33.2h0a2.48,2.48,0,0,0-1.7.87h0c-.17-.06-.31-.05-.34.17h0a.57.57,0,0,0-.69.34h0c-.16,0-.3,0-.35.17h0c-.46-.11-.45-.53-.53-.87-.3-1.32-.58-2.64-.86-4q-1.38-6.62-2.74-13.22c-.69-3.31-1.37-6.61-2.05-9.92-.61-2.92-1.23-5.83-1.83-8.75-.07-.34-.13-.62-.55-.61h0c-.09-.17-.23-.24-.39-.11s0,.19.06.26l1.16,6.14a1.44,1.44,0,0,0,.25,1.51h0c0,.35-.18.74.16,1h0c0,.23-.08.49.13.68a.94.94,0,0,1,0,.16,2.41,2.41,0,0,0,.35,1.55h0c0,.24-.08.5.15.69,0,0,0,.1,0,.16,0,.29-.13.62.18.86h0a5.73,5.73,0,0,0,.11,1.17c.56,2.67,1,5.35,1.63,8a5.47,5.47,0,0,0,.65,2.24h0c0,.29-.14.62.17.85h0a14.71,14.71,0,0,0,.63,3.48,10,10,0,0,0,.73,3h0c0,.29-.13.63.18.86h0c.32,1.85.65,3.7,1,5.55a.06.06,0,0,1-.08,0c-.11,0-.17,0-.2.11h0a5.4,5.4,0,0,0-2.56,1.22h0c-.18,0-.46-.17-.44.22h-.08c-.17-.1-.29-.08-.31.14h0c-.16-.06-.3-.05-.35.15h0c-.32-.07-.58,0-.71.32-.11.19-.32.39-.11.6s.43,0,.63-.1c2.82-1.22,5.59-2.57,8.33-4a224.28,224.28,0,0,0,27.18-16.94c.57-.4.82-.28,1.19.16,3.51,4.13,7.14,8.14,10.53,12.36.76.95.78,1.08,0,2-3,3.78-6.26,7.4-9.55,11-2.84,3.09-5.87,6-9,8.8a102.1,102.1,0,0,1-9.07,7.41l-.24.16h0c-.16,0-.3,0-.3.22h0a.18.18,0,0,0-.21.14h0c-.34,0-.66.07-.69.51h0a.45.45,0,0,0-.51.35h0c-.26,0-.52,0-.5.35h0a.43.43,0,0,0-.51.35h0a.43.43,0,0,0-.52.35h0c-.16,0-.32,0-.29.22h0c-.12,0-.18,0-.2.14l0,0,0,0a.4.4,0,0,0-.52.35h0a.4.4,0,0,0-.52.34h0c-.31,0-.63-.07-.64.39h0a.17.17,0,0,0-.21.12h0c-.15,0-.29,0-.32.2l0,0,0,0a.41.41,0,0,0-.53.31h0a.29.29,0,0,0-.34.18h0c-.16,0-.29,0-.34.18h0a.69.69,0,0,0-.86.5h0c-.15,0-.29,0-.33.2h0a3.28,3.28,0,0,0-2,1.06h0c-.17-.07-.3-.05-.35.15h0c-.17,0-.3,0-.36.17h0c-.28,0-.66-.18-.69.34h0a.78.78,0,0,0-.85.36h0a.73.73,0,0,0-.85.36v0a3.53,3.53,0,0,0-.66.05c-1,.31-2,.68-3,1a24.57,24.57,0,0,1-11.43.69,14.11,14.11,0,0,0-2.87-.68v0c-.11-.5-.5-.38-.83-.38h0c0-.51-.4-.33-.68-.35h0c-.06-.17-.2-.19-.35-.17h0c0-.18-.19-.2-.34-.19h0a.48.48,0,0,0-.58-.33,19.13,19.13,0,0,1-4.43-3.53c-1.17-1.16-2-2.56-3.12-3.79a97.28,97.28,0,0,1-6-11.68A144.8,144.8,0,0,1,77,147.9a108.1,108.1,0,0,1-3.19-14c-.37-2.49-.59-5-.76-7.51-.18-2.67-.2-5.33-.12-8a37,37,0,0,1,8.58-23.11,56.81,56.81,0,0,1,21-15.49c2.64-1.19,5.33-2.28,8-3.41a6.73,6.73,0,0,0,2.55-1.6c.21.15.21.38.23.6A13.4,13.4,0,0,0,115,80.58a22,22,0,0,0,7.74,7.81c3.49,2.17,7.18,3.58,11.36,3.34a9.47,9.47,0,0,0,8.53-5.35A26.78,26.78,0,0,1,143.93,83.37Z"/><path class="cls-140" d="M143.93,83.37a26.78,26.78,0,0,0-1.3,3,9.47,9.47,0,0,1-8.53,5.35c-4.18.24-7.87-1.17-11.36-3.34A22,22,0,0,1,115,80.58a13.4,13.4,0,0,1-1.73-5.19c0-.22,0-.45-.23-.6.15-3.56,1.76-6.65,3.14-9.81.12-.28.35-.52.32-.86l.19-.48c.09-.08.21-.13.25-.23,1.82-3.66,3.94-7.16,5.29-11a1.65,1.65,0,0,0-.48-2c-2.72-2.73-3.9-8.54-1.18-12.21a4.58,4.58,0,0,1,6.11-1.54,8.63,8.63,0,0,1,3.45,3.63c.56,1,1,1.1,2,.78a6.74,6.74,0,0,0,3.27-2.46c1.69-2.16,2.43-4.75,3.22-7.31a24.09,24.09,0,0,1,3.08-7.3,4,4,0,0,1,2.63-1.81,6.7,6.7,0,0,1,2.92.27c1.33.38,2.64.8,4,1.2,7.9,2.65,15.82,5.17,24.33,4.61a47.89,47.89,0,0,1-.69,7.84A112.93,112.93,0,0,1,171,53.16a74.29,74.29,0,0,1-7.94,18.26,25.07,25.07,0,0,1-6.82,7.71c-3.45,2.38-7.17,2.57-11.05,1.2l-.52-.19A17.54,17.54,0,0,0,143.93,83.37Zm5.26-47a7.2,7.2,0,0,0-3.46.82c-.42.23-.81.54-.75,1s.64.66,1.12.73a57.94,57.94,0,0,1,6.4,1.14c1.28.32,2.58.6,3.87.86s2.24-.49,2-1.63c-.12-.68-.68-1-1.21-1.21A17.1,17.1,0,0,0,149.19,36.33Zm24.07,6.82c0-.61-.76-1.08-1.46-1.46A12.4,12.4,0,0,0,165,40.27a3.45,3.45,0,0,0-1.51.52,1.19,1.19,0,0,0-.68,1.17c0,.58.51.63.91.72,1.12.26,2.25.48,3.37.74,1.51.35,3,.73,4.52,1.07C172.56,44.71,173.23,44.29,173.26,43.15Zm-9.4,8.35a4.21,4.21,0,0,0,0,.94c.15.67.35,1.37,1.11,1.58a1.51,1.51,0,0,0,1.66-.78,4.86,4.86,0,0,0,.75-4.35,1.5,1.5,0,0,0-1.3-1.07,1.47,1.47,0,0,0-1.44.71A4.68,4.68,0,0,0,163.86,51.5Zm-16-2.6v.59a1.53,1.53,0,0,0,.88,1.6,1.45,1.45,0,0,0,1.78-.62,4.65,4.65,0,0,0,1-4,1.56,1.56,0,0,0-1.36-1.41,1.66,1.66,0,0,0-1.61,1A5.23,5.23,0,0,0,147.84,48.9Zm7.39,13.26a1,1,0,0,0,.08.84,2.49,2.49,0,0,0,3.21.77,3.33,3.33,0,0,0,1.58-3c.12-3.86-.18-7.71-.17-11.56V49c0-.22,0-.5-.32-.5s-.29.26-.32.44a3,3,0,0,0,0,.6c0,1.27.07,2.54.13,3.81.1,2.47,0,4.94.05,7.41a6.89,6.89,0,0,1-.13,1.09,1.69,1.69,0,0,1-1.41,1.5,2,2,0,0,1-2.07-.68A1.41,1.41,0,0,0,155.23,62.16ZM144.36,80.08c-.17-.39-.49-.48-.76-.62L138.85,77c-2.3-1.19-4.54-2.46-6.1-4.62-.1-.13-.19-.32-.39-.23s-.16.33-.08.52a3.44,3.44,0,0,0,.59.92,15.46,15.46,0,0,0,2.56,2.22,77.55,77.55,0,0,0,8,4.21A1.33,1.33,0,0,0,144.36,80.08Zm-.21-16.64c.61,3,8.15,7,10.49,5.7a16.32,16.32,0,0,1-5.8-1.62A12.29,12.29,0,0,1,144.15,63.44Z"/><path class="cls-141" d="M172.66,175.36a9.57,9.57,0,0,0,.28,2.92c.32,2.8.75,5.59,1.13,8.39s.74,5.71,1.1,8.57c.15,1.12.26,2.24.41,3.36.08.57-.36.64-.72.76-1.88.66-3.81,1.19-5.75,1.66-4.11,1-8.26,1.71-12.45,2.3a159.41,159.41,0,0,1-25.18,1.12c-4.14-.08-8.27-.27-12.39-.66-4.32-.4-8.65-.86-12.94-1.52a175.7,175.7,0,0,1-20.35-4.07c-.5-.14-.8-.23-.66-1,1.09-5.72,2.42-11.38,3.87-17,.16-.65.31-1.31.46-2a25.16,25.16,0,0,0,3.85,4.51,19.48,19.48,0,0,0,16.23,5.19,36.33,36.33,0,0,0,11.88-3.77c7.67-3.85,14.23-9.22,20.55-14.94a161,161,0,0,0,14.19-14.89c1.15-1.34,2.27-2.69,3.36-4.07.86-1.08.82-1.51,0-2.53l-1.26-1.5c.14,0,.29,0,.42-.06a38.7,38.7,0,0,0,8.07-3c.06.22.13.43.17.65l3.57,21c.57,3.34,1.15,6.68,1.71,10C172.23,175.13,172.27,175.39,172.66,175.36Z"/><path class="cls-141" d="M201.81,133.59a99.26,99.26,0,0,1-11.61,27,55.32,55.32,0,0,1-9,11.51c-2.37,2.16-5.08,3.47-8.39,3.08-.24-2.22-.71-4.39-1.08-6.59-.61-3.64-1.24-7.28-1.85-10.92s-1.13-7-1.75-10.52a40.22,40.22,0,0,0-.84-4.35c1-.67,2.07-1.29,3-2A21.1,21.1,0,0,0,177,133.4a1,1,0,0,1,.45-.49,6.21,6.21,0,0,1,4.19-.22,24.25,24.25,0,0,0-3.52,3.42c-.17.18-.35.32-.53,0,0-.39.66-.86.21-1.07s-.58.52-.83.84a2.4,2.4,0,0,0-.11.23,32.16,32.16,0,0,1-4,6.46c-.23.29-.88.61-.46,1s.66-.33.9-.63a35.31,35.31,0,0,0,4.16-6.56,1.1,1.1,0,0,0,.75.33,5.4,5.4,0,0,0,4.19-1.42,11.85,11.85,0,0,0,3.77-6.27c3.79,1.13,7.54,2.4,11.3,3.65A13.18,13.18,0,0,0,201.81,133.59Z"/><path class="cls-142" d="M158.24,146.24l1.26,1.5c.85,1,.89,1.45,0,2.53-1.09,1.38-2.21,2.73-3.36,4.07A161,161,0,0,1,142,169.23c-6.32,5.72-12.88,11.09-20.55,14.94a36.33,36.33,0,0,1-11.88,3.77,19.48,19.48,0,0,1-16.23-5.19,25.16,25.16,0,0,1-3.85-4.51v-.8c1.09,1.23,2,2.63,3.12,3.79A19.13,19.13,0,0,0,97,184.76a.91.91,0,0,0,.58.33h0c.06.15.2.17.34.19h0c.07.15.21.15.35.17h0a1,1,0,0,0,.68.35h0a1.55,1.55,0,0,0,.83.38v0a12.75,12.75,0,0,0,4,1.15,22.58,22.58,0,0,0,6.09,0,29.37,29.37,0,0,0,7.85-2.18v0a1.58,1.58,0,0,0,.85-.36h0a1.51,1.51,0,0,0,.85-.36h0a1.29,1.29,0,0,0,.69-.34h0c.13,0,.28,0,.36-.17h0l.35-.15h0a8.18,8.18,0,0,0,2-1.06h0a.36.36,0,0,0,.33-.2h0a1.71,1.71,0,0,0,.86-.5h0c.13,0,.27,0,.34-.18h0c.14,0,.27,0,.34-.18h0a.72.72,0,0,0,.53-.31l0,0,0,0c.14,0,.26-.05.32-.2h0l.21-.12h0a1.3,1.3,0,0,0,.64-.39h0a.78.78,0,0,0,.52-.34h0a.79.79,0,0,0,.52-.35l0,0,0,0,.2-.14h0a3.15,3.15,0,0,1,.29-.22h0a.68.68,0,0,0,.52-.35h0A.72.72,0,0,0,129,179h0a.69.69,0,0,0,.5-.35h0a.67.67,0,0,0,.51-.35h0a1.26,1.26,0,0,0,.69-.51h0l.21-.14h0l.3-.22h0l.24-.16a102.1,102.1,0,0,0,9.07-7.41c3.11-2.81,6.14-5.71,9-8.8,3.29-3.56,6.51-7.18,9.55-11,.76-1,.74-1.08,0-2-3.39-4.22-7-8.23-10.53-12.36-.37-.44-.62-.56-1.19-.16a224.28,224.28,0,0,1-27.18,16.94c-2.74,1.41-5.51,2.76-8.33,4-.2.08-.42.3-.63.1s0-.41.11-.6a1.44,1.44,0,0,0,.71-.32h0l.35-.15h0l.31-.14h.07l.45-.22h0a13.36,13.36,0,0,0,2.56-1.22h0l.2-.11a.06.06,0,0,0,.08,0c.27-.1.57-.16.73-.44h0a.92.92,0,0,0,.71-.31h0l.35-.17h0a1.11,1.11,0,0,0,.69-.34h0a3.59,3.59,0,0,1,.34-.17h0a6.08,6.08,0,0,0,1.7-.87h0c.13,0,.27,0,.33-.2h0c.13,0,.27,0,.33-.18h0c.14,0,.28,0,.34-.17h0a7.47,7.47,0,0,0,1.89-1h0l.19-.11h0c.15-.06.34-.07.43-.25h0a1.16,1.16,0,0,0,.66-.35h0a.79.79,0,0,0,.54-.31h0a3.85,3.85,0,0,0,1.2-.68h0a.36.36,0,0,0,.33-.2h0a.77.77,0,0,0,.54-.31h0c.13,0,.27,0,.33-.19h0a.73.73,0,0,0,.53-.31l0,0,0,0,.34-.2h0a1.9,1.9,0,0,0,.86-.51h0a4.38,4.38,0,0,0,1.18-.7h0a1,1,0,0,0,.53-.32h0c.14,0,.27,0,.33-.19h0l.21-.14h0c.13,0,.26-.06.32-.21h0c.14,0,.28,0,.34-.19h0a.83.83,0,0,0,.52-.33h0a.75.75,0,0,0,.53-.33h0l.2-.12h0l.29-.2,0,0,0,0a.36.36,0,0,0,.32-.21h0l.21-.13h0a2.34,2.34,0,0,0,.82-.54h0c.14,0,.27,0,.33-.2h0a.76.76,0,0,0,.51-.34h0a.78.78,0,0,0,.52-.34h0a.7.7,0,0,0,.53-.33h0l.19-.13h0l.28-.21h0c.14,0,.27-.05.33-.2h0l.21-.15v0a.4.4,0,0,0,.32-.21h0a2.62,2.62,0,0,0,1-.68h0a.87.87,0,0,0,.53-.32h0a.86.86,0,0,0,.52-.37l7-4.76c.25-.17.45-.45.82-.36Z"/><path class="cls-143" d="M212.22,123.43a2,2,0,0,1-.68.66c-.46,0-.74.41-1.19.59,0-.57.5-1,.27-1.48h0A.41.41,0,0,0,211,123c.38-.91.82-1.8,1.12-2.74.21-.66.78-1.21.61-2h0c1.16-1,.88-2.29-.34-3.18l-.28-.21h0l-.27-.5a.61.61,0,0,0-.08-.64,5.18,5.18,0,0,1-.72-4c.25,0,.37-.07.35-.33.78-.13,1.46.4,2.23.33l.17,0h0l.16.16h0a1.05,1.05,0,0,0,.29.85c1,1.32,2.18,2.42,3.08,3.79a.55.55,0,0,0,.66.25l.06,0a3.89,3.89,0,0,1-.2,3.33,5.84,5.84,0,0,1-1,1.16c-1.45,1.3-2.84,2.68-4.4,3.87Z"/><path class="cls-143" d="M220.69,110.45c.73,2-.4,3.31-1.92,4.1-.25.13-.51.23-.76.34l-.06,0c-1-1.93-2.63-3.31-4-4.89h0l-.16-.16h0a.3.3,0,0,0-.17-.34h0a.28.28,0,0,0-.17-.33l-.18-.17c0-.14,0-.28-.17-.34,0-.19.06-.4-.17-.51,0-.39-.22-.7-.25-1.06-.09-.77-.39-1.66.3-2.24a2,2,0,0,1,2.31,0,1.07,1.07,0,0,0,.72.18l.17.16c.05.18.19.18.33.19l.18.16c0,.37.49.48.51.86a2.51,2.51,0,0,0,.67,1.42c.77.92,1.59,1.8,2.36,2.72C220.43,110.79,220.54,110.62,220.69,110.45Z"/><path class="cls-143" d="M219.34,101.26l1.36,1.49A19.64,19.64,0,0,0,222,105a5.52,5.52,0,0,1,.78,2.47,2,2,0,0,1-1.7,2.26c-.22.06-.37.13-.42.35q-1.58-1.87-3.16-3.74a3.08,3.08,0,0,0-.86-1.7c-.06-1.21-.69-2.34-.5-3.59l.16-.18.18-.16,2.2.12.33.09v0l.18.18h0Z"/><path class="cls-142" d="M167.25,142.79a40.22,40.22,0,0,1,.84,4.35c.62,3.5,1.17,7,1.75,10.52s1.24,7.28,1.85,10.92c.37,2.2.84,4.37,1.08,6.59l-.11.19c-.39,0-.43-.23-.48-.54-.56-3.34-1.14-6.68-1.71-10l-3.57-21c0-.22-.11-.43-.17-.65Z"/><path class="cls-144" d="M186.85,126.68a3.2,3.2,0,0,1-.07,1.17c-.47,1,.09,1.1.82,1.31,1.42.4,2.78,1,4.21,1.34,1.15.28,2.28.65,3.39,1,1.47.49,3,.89,4.41,1.49.81.35,1.73.12,2.55.42l-.35.15a13.18,13.18,0,0,1-4.34-.94c-3.76-1.25-7.51-2.52-11.3-3.65a13.42,13.42,0,0,0,.52-2.36Z"/><path class="cls-139" d="M217.49,106.37q1.59,1.86,3.16,3.74l0,.34c-.15.17-.26.34-.5.06-.77-.92-1.59-1.8-2.36-2.72a2.51,2.51,0,0,1-.67-1.42Z"/><path class="cls-140" d="M210.62,123.2c.23.52-.23.91-.27,1.48.45-.18.73-.59,1.19-.59a4.06,4.06,0,0,1-1.65,1.08.46.46,0,0,0-.07-.07l.56-1.51h0Z"/><path class="cls-140" d="M209.89,125.17l-.16.11-.07,0a.1.1,0,0,0,.05-.1h0l.13-.05A.46.46,0,0,1,209.89,125.17Z"/><path class="cls-140" d="M212.22,123.43l.2-.18Z"/><path class="cls-143" d="M186.69,126.64a13.42,13.42,0,0,1-.52,2.36,11.85,11.85,0,0,1-3.77,6.27,5.4,5.4,0,0,1-4.19,1.42,1.1,1.1,0,0,1-.75-.33l.15-.24c.18.31.36.17.53,0a24.25,24.25,0,0,1,3.52-3.42,6.21,6.21,0,0,0-4.19.22,1,1,0,0,0-.45.49,21.1,21.1,0,0,1-6.73,7.38c-1,.72-2,1.34-3,2l-.52.35a38.7,38.7,0,0,1-8.07,3c-.13,0-.28,0-.42.06l-10-11.75a66,66,0,0,0,8.81-8.88c1.14-1.36,2.38-2.64,3.58-4,.26-.29.62-.5.72-.91a.64.64,0,0,0,.53-.42c.36-.27.81-.44,1-.89.06-.09.3-.09.15-.29h0c.57-.13.84-.64,1.22-1h0l.18-.18h0l.19-.18v0a1.2,1.2,0,0,0,.53-.44l0,0,.3-.23.15-.13.18-.2h0l.19-.18v0l.27-.23c.14,0,.16-.28.35-.23.15-.11.24-.31.46-.27l.25-.18,0,0,.19-.19h0c.15,0,.29,0,.36-.18h0l.18-.18h0a.48.48,0,0,0,.53-.35h0c.16,0,.3,0,.36-.18h0l.18-.18h0a.77.77,0,0,0,.87-.51h0l.18-.18h0c.15,0,.29,0,.35-.17h0a1.18,1.18,0,0,0,1-.69h0c.51,0,1-.12,1.19-.7v0a5.93,5.93,0,0,0,2.74-1.37h0c.15,0,.3,0,.35-.18h0a2.84,2.84,0,0,0,.66-.08c1.13-.46,2.31-.77,3.46-1.15a24.3,24.3,0,0,0,3.38-1h0c.24,0,.51.1.68-.17h0a4.09,4.09,0,0,0,.92-.08c2.64-.44,5.21-1.46,8-1.11h0c0,.25.1.37.36.35h0a8.07,8.07,0,0,1-.34,2.58h0c-.18.06-.18.2-.18.35h0c-.22,0-.46,0-.21.32l-.51.7-.51.41-.67.42c-.32-.26-.31,0-.33.21v0c-.27,0-.53,0-.52.35h0c-.26,0-.52,0-.51.36v0a.58.58,0,0,0-.69.35h0c-.15,0-.29,0-.35.18h0l-.18.19v0c-.15,0-.3,0-.35.19v0c-.15,0-.3,0-.36.19l0,0c-.15,0-.3,0-.36.19l0,0c-.2,0-.41,0-.53.18h0a.32.32,0,0,0-.35.17h0a1,1,0,0,0-1,.52v0a1.06,1.06,0,0,0-1,.36h0c-.12,0-.3,0-.26.2s.17.08.26.12h0c0,.15,0,.29.17.36v0l.18.18h0l.18.18h0l.19.18v0c0,.27,0,.52.36.52h0c0,.15,0,.29.17.36h0c0,.15,0,.29.18.35h0l.19.18h0c0,.91.5,1.71.59,2.6.05.49.4,1-.09,1.49l-.25-.35v0h0l-.13-.09v-.06l0,.06c-4-1.8-7.83-2.66-9.07-1.92,1,.19,2,.36,2.88.56,2.35.51,4.73.93,6.65,2.55.38.31.32.75.36,1.17.07.74-.22,1.51.16,2.23l0,0Zm-.8,2.13a2,2,0,0,0-1.22-2.18,19,19,0,0,0-4.89-1.84c-.4-.07-1-.4-1.12.06s.57.53,1,.67C181.92,126.2,184.32,126.66,185.89,128.77Zm-8.64-13.58a3.91,3.91,0,0,0,1.41.55,20.73,20.73,0,0,1,4.57,1.5c.25.12.6.57.84.17s-.28-.55-.53-.77a1.82,1.82,0,0,0-.36-.22,15.93,15.93,0,0,0-4.6-1.35A2.34,2.34,0,0,0,177.25,115.19Z"/><path class="cls-142" d="M110.22,125.43a.94.94,0,0,0,0-.16c0-.24.17-.5-.13-.68h0c0-.36.11-.73-.16-1h0a4.83,4.83,0,0,0-.25-1.51l-1.16-6.14.33-.15h0a1.64,1.64,0,0,1,.36.66c.85,4.28,1.69,8.56,2.57,12.84,1.31,6.34,2.68,12.67,4,19a24.79,24.79,0,0,1,.94,5.13h0c-.66.1-.59-.45-.68-.81a23.59,23.59,0,0,0-1-4.3h0c0-.29.13-.62-.18-.86h0a4.51,4.51,0,0,0-.19-1.51,44.28,44.28,0,0,0-1.17-5h0c0-.28.14-.62-.17-.85h0a4.84,4.84,0,0,0,0-.76c-.46-2.23-.9-4.46-1.41-6.67a21.83,21.83,0,0,0-.94-4h0c0-.29.14-.63-.18-.86,0-.06,0-.11,0-.16,0-.25.12-.5-.15-.69h0A2.18,2.18,0,0,0,110.22,125.43Z"/><path class="cls-141" d="M116.68,153.39a24.79,24.79,0,0,0-.94-5.13c-1.3-6.34-2.67-12.67-4-19-.88-4.28-1.72-8.56-2.57-12.84a1.64,1.64,0,0,0-.36-.66c.42,0,.48.27.55.61.6,2.92,1.22,5.83,1.83,8.75.68,3.31,1.36,6.61,2.05,9.92q1.36,6.61,2.74,13.22c.28,1.32.56,2.64.86,4,.08.34.07.76.53.87A.92.92,0,0,1,116.68,153.39Z"/><path class="cls-141" d="M117.73,185.1a29.37,29.37,0,0,1-7.85,2.18,22.58,22.58,0,0,1-6.09,0,12.75,12.75,0,0,1-4-1.15,14.11,14.11,0,0,1,2.87.68,24.57,24.57,0,0,0,11.43-.69c1-.29,2-.66,3-1A3.53,3.53,0,0,1,117.73,185.1Z"/><path class="cls-142" d="M161.84,120.32a.64.64,0,0,1-.53.42c-.78-2.09-1.56-4.17-2.31-6.26-.14-.38-.6-1-.07-1.18s.38.61.53,1C160.26,116.28,160.9,118.36,161.84,120.32Z"/><path class="cls-141" d="M110.9,128.67a21.83,21.83,0,0,1,.94,4c.51,2.21,1,4.44,1.41,6.67a4.84,4.84,0,0,1,0,.76,5.47,5.47,0,0,1-.65-2.24c-.58-2.66-1.07-5.34-1.63-8A5.73,5.73,0,0,1,110.9,128.67Z"/><path class="cls-141" d="M113.46,140.94a44.28,44.28,0,0,1,1.17,5,4.51,4.51,0,0,1,.19,1.51,10,10,0,0,1-.73-3A14.71,14.71,0,0,1,113.46,140.94Z"/><path class="cls-141" d="M115,148.27a23.59,23.59,0,0,1,1,4.3c.09.36,0,.91.68.81-.16.28-.46.34-.73.44C115.64,152,115.31,150.12,115,148.27Z"/><path class="cls-141" d="M115.69,153.92a13.36,13.36,0,0,1-2.56,1.22A5.4,5.4,0,0,1,115.69,153.92Z"/><path class="cls-141" d="M123.35,150a7.47,7.47,0,0,1-1.89,1A2.63,2.63,0,0,1,123.35,150Z"/><path class="cls-141" d="M122.85,182.72a8.18,8.18,0,0,1-2,1.06A3.28,3.28,0,0,1,122.85,182.72Z"/><path class="cls-141" d="M120.47,151.56a6.08,6.08,0,0,1-1.7.87A2.48,2.48,0,0,1,120.47,151.56Z"/><path class="cls-141" d="M109.67,122.05a4.83,4.83,0,0,1,.25,1.51A1.44,1.44,0,0,1,109.67,122.05Z"/><path class="cls-141" d="M126.42,148.32a3.85,3.85,0,0,1-1.2.68A1.2,1.2,0,0,1,126.42,148.32Z"/><path class="cls-141" d="M139.35,140.29a2.62,2.62,0,0,1-1,.68C138.37,140.29,139,140.42,139.35,140.29Z"/><path class="cls-141" d="M110.22,125.43a2.18,2.18,0,0,1,.35,1.55A2.41,2.41,0,0,1,110.22,125.43Z"/><path class="cls-141" d="M130.49,145.91a4.38,4.38,0,0,1-1.18.7A1.26,1.26,0,0,1,130.49,145.91Z"/><path class="cls-141" d="M124,182a1.71,1.71,0,0,1-.86.5A.69.69,0,0,1,124,182Z"/><path class="cls-141" d="M135.11,143a2.34,2.34,0,0,1-.82.54C134.36,143.1,134.73,143.05,135.11,143Z"/><path class="cls-141" d="M99.79,186.15a1.55,1.55,0,0,1-.83-.38C99.29,185.77,99.68,185.65,99.79,186.15Z"/><path class="cls-141" d="M129.32,146.61a1.9,1.9,0,0,1-.86.51A.78.78,0,0,1,129.32,146.61Z"/><path class="cls-141" d="M130.67,177.77a1.26,1.26,0,0,1-.69.51C130,177.84,130.33,177.8,130.67,177.77Z"/><path class="cls-141" d="M99,185.78a1,1,0,0,1-.68-.35C98.55,185.45,98.92,185.27,99,185.78Z"/><path class="cls-141" d="M118.58,184.76a1.58,1.58,0,0,1-.85.36A.73.73,0,0,1,118.58,184.76Z"/><path class="cls-141" d="M119.43,184.41a1.51,1.51,0,0,1-.85.36A.78.78,0,0,1,119.43,184.41Z"/><path class="cls-141" d="M120.12,184.08a1.29,1.29,0,0,1-.69.34C119.46,183.9,119.84,184.08,120.12,184.08Z"/><path class="cls-141" d="M126.42,180.67a1.3,1.3,0,0,1-.64.39C125.79,180.6,126.11,180.65,126.42,180.67Z"/><path class="cls-141" d="M109.9,123.55c.27.31.17.68.16,1C109.72,124.29,109.92,123.9,109.9,123.55Z"/><path class="cls-141" d="M112,155.64a1.44,1.44,0,0,1-.71.32C111.37,155.61,111.63,155.57,112,155.64Z"/><path class="cls-141" d="M108.84,115.76l-.33.15c-.1-.07-.17-.18-.06-.26S108.75,115.59,108.84,115.76Z"/><path class="cls-141" d="M118.42,152.59a1.11,1.11,0,0,1-.69.34A.57.57,0,0,1,118.42,152.59Z"/><path class="cls-141" d="M110.73,127.82c.32.23.13.57.18.86C110.6,128.44,110.77,128.11,110.73,127.82Z"/><path class="cls-141" d="M129.47,178.61a.69.69,0,0,1-.5.35C129,178.58,129.21,178.6,129.47,178.61Z"/><path class="cls-141" d="M124.68,149.3a1.16,1.16,0,0,1-.66.35C124.13,149.32,124.39,149.28,124.68,149.3Z"/><path class="cls-141" d="M125.23,149a.79.79,0,0,1-.54.31C124.72,148.93,125,149,125.23,149Z"/><path class="cls-141" d="M114.82,147.41c.31.24.14.57.18.86C114.69,148,114.85,147.7,114.82,147.41Z"/><path class="cls-141" d="M113.29,140.09c.31.23.13.57.17.85C113.15,140.71,113.32,140.38,113.29,140.09Z"/><path class="cls-141" d="M128.13,147.31a.73.73,0,0,1-.53.31C127.6,147.22,127.85,147.24,128.13,147.31Z"/><path class="cls-141" d="M135.94,142.5a.76.76,0,0,1-.51.34C135.43,142.47,135.68,142.48,135.94,142.5Z"/><path class="cls-141" d="M133.23,144.22a.75.75,0,0,1-.53.33A.43.43,0,0,1,133.23,144.22Z"/><path class="cls-141" d="M132.71,144.55a.83.83,0,0,1-.52.33A.46.46,0,0,1,132.71,144.55Z"/><path class="cls-141" d="M131,145.59a1,1,0,0,1-.53.32A.41.41,0,0,1,131,145.59Z"/><path class="cls-141" d="M136.46,142.17a.78.78,0,0,1-.52.34A.44.44,0,0,1,136.46,142.17Z"/><path class="cls-141" d="M137,141.84a.7.7,0,0,1-.53.33A.42.42,0,0,1,137,141.84Z"/><path class="cls-141" d="M139.88,140a.87.87,0,0,1-.53.32A.4.4,0,0,1,139.88,140Z"/><path class="cls-141" d="M140.4,139.61a.86.86,0,0,1-.52.37C139.92,139.67,140.13,139.59,140.4,139.61Z"/><path class="cls-141" d="M127.28,147.81a.77.77,0,0,1-.54.31A.42.42,0,0,1,127.28,147.81Z"/><path class="cls-141" d="M97.6,185.09a.91.91,0,0,1-.58-.33A.48.48,0,0,1,97.6,185.09Z"/><path class="cls-141" d="M130,178.27a.67.67,0,0,1-.51.35A.45.45,0,0,1,130,178.27Z"/><path class="cls-141" d="M110.56,127c.27.19.19.44.15.69C110.48,127.47,110.57,127.21,110.56,127Z"/><path class="cls-141" d="M110.05,124.59c.3.18.16.44.13.68C110,125.08,110.06,124.82,110.05,124.59Z"/><path class="cls-141" d="M129,179a.72.72,0,0,1-.51.35A.43.43,0,0,1,129,179Z"/><path class="cls-141" d="M128.46,179.3a.68.68,0,0,1-.52.35A.43.43,0,0,1,128.46,179.3Z"/><path class="cls-141" d="M127.45,180a.79.79,0,0,1-.52.35A.4.4,0,0,1,127.45,180Z"/><path class="cls-141" d="M126.93,180.34a.78.78,0,0,1-.52.34A.4.4,0,0,1,126.93,180.34Z"/><path class="cls-141" d="M125.23,181.37a.72.72,0,0,1-.53.31A.41.41,0,0,1,125.23,181.37Z"/><path class="cls-141" d="M113.14,155.13l-.45.22C112.68,155,113,155.14,113.14,155.13Z"/><path class="cls-141" d="M124,149.65c-.09.18-.28.19-.43.25C123.57,149.53,123.85,149.68,124,149.65Z"/><path class="cls-141" d="M98.28,185.44c-.14,0-.28,0-.35-.17C98.08,185.25,98.22,185.27,98.28,185.44Z"/><path class="cls-141" d="M97.94,185.28c-.14,0-.28,0-.34-.19C97.75,185.08,97.89,185.1,97.94,185.28Z"/><path class="cls-141" d="M120.47,183.92c-.08.14-.23.15-.36.17C120.17,183.9,120.3,183.89,120.47,183.92Z"/><path class="cls-141" d="M120.81,183.78l-.35.15C120.51,183.73,120.64,183.71,120.81,183.78Z"/><path class="cls-141" d="M123.17,182.53a.36.36,0,0,1-.33.2C122.88,182.55,123,182.52,123.17,182.53Z"/><path class="cls-141" d="M124.37,181.86c-.07.15-.21.16-.34.18C124.08,181.86,124.21,181.84,124.37,181.86Z"/><path class="cls-141" d="M124.7,181.68c-.07.14-.2.16-.34.18A.29.29,0,0,1,124.7,181.68Z"/><path class="cls-141" d="M125.55,181.17c-.06.15-.18.18-.32.2C125.26,181.18,125.4,181.16,125.55,181.17Z"/><path class="cls-141" d="M128,179.65a3.15,3.15,0,0,0-.29.22C127.63,179.64,127.79,179.64,128,179.65Z"/><path class="cls-141" d="M131.17,177.42l-.3.22C130.87,177.44,131,177.42,131.17,177.42Z"/><path class="cls-141" d="M112.29,155.5l-.35.15C112,155.45,112.13,155.44,112.29,155.5Z"/><path class="cls-141" d="M112.62,155.36l-.31.14C112.33,155.28,112.45,155.26,112.62,155.36Z"/><path class="cls-141" d="M117.74,152.92l-.35.17C117.44,152.9,117.58,152.88,117.74,152.92Z"/><path class="cls-141" d="M118.77,152.43a3.59,3.59,0,0,0-.34.17C118.46,152.38,118.6,152.37,118.77,152.43Z"/><path class="cls-141" d="M120.79,151.37c-.06.15-.2.17-.33.2C120.5,151.37,120.63,151.35,120.79,151.37Z"/><path class="cls-141" d="M121.12,151.19c-.06.15-.2.16-.33.18C120.84,151.2,121,151.18,121.12,151.19Z"/><path class="cls-141" d="M121.46,151c-.06.15-.2.15-.34.17A.3.3,0,0,1,121.46,151Z"/><path class="cls-141" d="M126.75,148.12a.36.36,0,0,1-.33.2C126.45,148.14,126.59,148.11,126.75,148.12Z"/><path class="cls-141" d="M127.6,147.62c-.06.15-.2.17-.33.19C127.31,147.62,127.45,147.6,127.6,147.62Z"/><path class="cls-141" d="M128.47,147.11l-.34.2C128.16,147.11,128.3,147.09,128.47,147.11Z"/><path class="cls-141" d="M131.34,145.4c-.06.15-.19.17-.33.19C131.05,145.41,131.19,145.39,131.34,145.4Z"/><path class="cls-141" d="M131.86,145.06c-.06.15-.19.18-.32.21C131.56,145.07,131.7,145.05,131.86,145.06Z"/><path class="cls-141" d="M132.19,144.88c-.06.15-.2.17-.34.19C131.91,144.91,132,144.88,132.19,144.88Z"/><path class="cls-141" d="M138.33,141a.4.4,0,0,1-.32.21C138,141,138.17,141,138.33,141Z"/><path class="cls-141" d="M133.75,143.9l-.29.2C133.43,143.85,133.59,143.87,133.75,143.9Z"/><path class="cls-141" d="M137.81,141.3c-.06.15-.19.18-.33.2C137.52,141.32,137.66,141.3,137.81,141.3Z"/><path class="cls-141" d="M137.49,141.5l-.28.21C137.17,141.47,137.33,141.49,137.49,141.5Z"/><path class="cls-141" d="M134.07,143.69a.36.36,0,0,1-.32.21C133.77,143.71,133.91,143.69,134.07,143.69Z"/><path class="cls-141" d="M135.43,142.84c-.06.15-.19.18-.33.2C135.14,142.86,135.27,142.83,135.43,142.84Z"/><path class="cls-141" d="M134.28,143.57l-.21.13A.17.17,0,0,1,134.28,143.57Z"/><path class="cls-141" d="M137.17,141.72l-.19.13C137,141.74,137.05,141.68,137.17,141.72Z"/><path class="cls-141" d="M138,141.16l-.21.15Z"/><path class="cls-141" d="M133.43,144.1l-.2.12A.14.14,0,0,1,133.43,144.1Z"/><path class="cls-141" d="M131.55,145.26l-.21.14Z"/><path class="cls-141" d="M123.54,149.9l-.19.11C123.38,149.91,123.43,149.85,123.54,149.9Z"/><path class="cls-141" d="M115.88,153.82l-.2.11C115.71,153.83,115.77,153.77,115.88,153.82Z"/><path class="cls-141" d="M131.41,177.26l-.24.16Z"/><path class="cls-141" d="M130.87,177.63l-.21.14A.18.18,0,0,1,130.87,177.63Z"/><path class="cls-141" d="M127.64,179.87l-.2.14C127.46,179.9,127.52,179.84,127.64,179.87Z"/><path class="cls-141" d="M125.76,181.05l-.21.12A.17.17,0,0,1,125.76,181.05Z"/><path class="cls-145" d="M149.19,36.33a17.1,17.1,0,0,1,8,1.74c.53.26,1.09.53,1.21,1.21.21,1.14-.71,1.89-2,1.63s-2.59-.54-3.87-.86a57.94,57.94,0,0,0-6.4-1.14c-.48-.07-1-.15-1.12-.73s.33-.8.75-1A7.2,7.2,0,0,1,149.19,36.33Z"/><path class="cls-145" d="M173.26,43.15c0,1.14-.7,1.56-1.64,1.34-1.51-.34-3-.72-4.52-1.07-1.12-.26-2.25-.48-3.37-.74-.4-.09-.87-.14-.91-.72a1.19,1.19,0,0,1,.68-1.17,3.45,3.45,0,0,1,1.51-.52,12.4,12.4,0,0,1,6.79,1.42C172.5,42.07,173.21,42.54,173.26,43.15Z"/><path class="cls-145" d="M163.86,51.5a4.68,4.68,0,0,1,.79-3,1.47,1.47,0,0,1,1.44-.71,1.5,1.5,0,0,1,1.3,1.07,4.86,4.86,0,0,1-.75,4.35A1.51,1.51,0,0,1,165,54c-.76-.21-1-.91-1.11-1.58A4.21,4.21,0,0,1,163.86,51.5Z"/><path class="cls-145" d="M147.84,48.9a5.23,5.23,0,0,1,.65-2.77,1.66,1.66,0,0,1,1.61-1,1.56,1.56,0,0,1,1.36,1.41,4.65,4.65,0,0,1-1,4,1.45,1.45,0,0,1-1.78.62,1.53,1.53,0,0,1-.88-1.6Z"/><path class="cls-139" d="M155.23,62.16a1.41,1.41,0,0,1,.6.55,2,2,0,0,0,2.07.68,1.69,1.69,0,0,0,1.41-1.5,6.89,6.89,0,0,0,.13-1.09c0-2.47.05-4.94-.05-7.41-.06-1.27-.12-2.54-.13-3.81a3,3,0,0,1,0-.6c0-.18.08-.44.32-.44s.29.28.32.5v.17c0,3.85.29,7.7.17,11.56a3.33,3.33,0,0,1-1.58,3,2.49,2.49,0,0,1-3.21-.77A1,1,0,0,1,155.23,62.16Z"/><path class="cls-139" d="M144.36,80.08a1.33,1.33,0,0,1-1,0,77.55,77.55,0,0,1-8-4.21,15.46,15.46,0,0,1-2.56-2.22,3.44,3.44,0,0,1-.59-.92c-.08-.19-.17-.4.08-.52s.29.1.39.23c1.56,2.16,3.8,3.43,6.1,4.62l4.75,2.45C143.87,79.6,144.19,79.69,144.36,80.08Z"/><path class="cls-139" d="M144.15,63.44a12.29,12.29,0,0,0,4.69,4.08,16.32,16.32,0,0,0,5.8,1.62C152.3,70.48,144.76,66.49,144.15,63.44Z"/><path class="cls-142" d="M177.61,136.12l-.15.24a35.31,35.31,0,0,1-4.16,6.56c-.24.3-.52,1-.9.63s.23-.68.46-1a32.16,32.16,0,0,0,4-6.46,2.4,2.4,0,0,1,.11-.23c.25-.32.28-1.1.83-.84S177.61,135.73,177.61,136.12Z"/><path class="cls-146" d="M150,13c-.22,0-.38-.05-.37-.27a.31.31,0,0,1,.29-.33.29.29,0,0,1,.32.3A.24.24,0,0,1,150,13Z"/><path class="cls-145" d="M184.14,19.12a13.12,13.12,0,0,0-2.91-3c-3.1-2.33-6.5-4.18-9.73-6.29a31.39,31.39,0,0,0-5.1-2.85,42.76,42.76,0,0,0-7.94-2.64,50.09,50.09,0,0,0-6.12-.72,16.12,16.12,0,0,0-7.64,1c-1.82.77-3.61,1.67-5.69,1.31a39.16,39.16,0,0,0-8.44-.48,20.89,20.89,0,0,0-5.5.85A16.93,16.93,0,0,0,119.64,9a20.66,20.66,0,0,0-3.81,3.72c-2.43,3.19-3.67,6.9-4.69,10.71-.11.39.28.76-.06,1.13a.91.91,0,0,0,0,1.11h0c-.34,0-.34.26-.33.51a.33.33,0,0,0,.19-.05.33.33,0,0,1-.19.05,5.73,5.73,0,0,0-.17,1.54v1a10.49,10.49,0,0,0-.48,3.64c-.11,2,0,4,0,6,0,1.33.19,2.64.3,3.95s.72,2.74.56,4.17h0a15.46,15.46,0,0,1,.61,2.61,23.16,23.16,0,0,0,.78,2.91A31.61,31.61,0,0,0,114.47,59c-.26.27,0,.31.17.34v.17c.07.45-.17.95.17,1.37.28.73.57,1.47.85,2.21-.29.48-.31.86.34,1h.5l.19-.48c.09-.08.21-.13.25-.23,1.82-3.66,3.94-7.16,5.29-11a1.65,1.65,0,0,0-.48-2c-2.72-2.73-3.9-8.54-1.18-12.21a4.58,4.58,0,0,1,6.11-1.54,8.63,8.63,0,0,1,3.45,3.63c.56,1,1,1.1,2,.78a6.74,6.74,0,0,0,3.27-2.46c1.69-2.16,2.43-4.75,3.22-7.31a24.09,24.09,0,0,1,3.08-7.3,4,4,0,0,1,2.63-1.81,6.7,6.7,0,0,1,2.92.27c1.33.38,2.64.8,4,1.2,7.9,2.65,15.82,5.17,24.33,4.61.53.13,1.08.29,1.22-.52A11.52,11.52,0,0,0,179,27c.74,0,1.23-.53,1.82-.84a6.59,6.59,0,0,0,3.72-4.93A2.75,2.75,0,0,0,184.14,19.12Zm-67.63,43.3h0a5.85,5.85,0,0,0,.12-.71A5.85,5.85,0,0,1,116.51,62.42Z"/><path class="cls-142" d="M219.34,101.26l-.17-.15.24,0Z"/><path class="cls-142" d="M219.18,101.11l-.18-.18Z"/><path class="cls-144" d="M164.57,117.8l-.19.18Z"/><path class="cls-144" d="M165.75,116.78l-.18.2Z"/><path class="cls-144" d="M165.93,116.61l-.19.18Z"/><path class="cls-140" d="M212.34,115.07c1.22.89,1.5,2.16.34,3.18l.11-.6h0c.44-.46.69-.93.15-1.48,0-.12,0-.22-.14-.26l-.21-.19,0,0c0-.13,0-.3-.17-.36h0C212.39,115.28,212.37,115.18,212.34,115.07Z"/><path class="cls-142" d="M209.7,125.14a.08.08,0,0,1,0,.1l-.06,0Z"/><path class="cls-142" d="M212.56,115.71l.21.19Z"/><path class="cls-139" d="M213.92,110c1.4,1.58,3.05,3,4,4.89a.55.55,0,0,1-.66-.25c-.9-1.37-2.12-2.47-3.08-3.79A1.05,1.05,0,0,1,213.92,110Z"/><path class="cls-141" d="M211.8,114.37l-.18-.15c-.29-.7-.61-1.39-.86-2.1a2.24,2.24,0,0,1,.23-2.37h0a5.18,5.18,0,0,0,.72,4A.61.61,0,0,1,211.8,114.37Z"/><path class="cls-141" d="M213.58,109.75c-.77.07-1.45-.46-2.23-.33h0a1.73,1.73,0,0,1,1.34-.1c.26,0,.46.43.78.13h.12Z"/><path class="cls-141" d="M211.35,109.42c0,.26-.1.36-.35.33h0a.54.54,0,0,1,.35-.34Z"/><path class="cls-139" d="M213.58,109.75v-.32a.3.3,0,0,1,.17.34Z"/><path class="cls-139" d="M213.75,109.78l.16.16Z"/><path class="cls-141" d="M216,105a1.07,1.07,0,0,1-.72-.18,2,2,0,0,0-2.31,0c-.69.58-.39,1.47-.3,2.24,0,.36.28.67.25,1.06l-.09.08a4.21,4.21,0,0,1-.48-1.69c-.08-.72-.14-1.44.5-1.94a2,2,0,0,1,2.22-.09c.33.16.62.37.93.55Z"/><path class="cls-141" d="M217.49,106.37h-.33c0-.38-.48-.49-.51-.86h0c.08-.06.31.37.27,0,0-.26-.3-.47-.31-.77h0A3.08,3.08,0,0,1,217.49,106.37Z"/><path class="cls-141" d="M212.89,108.08c.23.11.17.32.17.51h0l-.25-.44Z"/><path class="cls-141" d="M216.47,105.35c-.14,0-.28,0-.33-.19h0c.13,0,.27,0,.33.18Z"/><path class="cls-141" d="M213.06,108.59c.17.06.17.2.17.34h0a.36.36,0,0,1-.17-.34Z"/><path class="cls-141" d="M213.23,108.93l.18.17v.18l-.18-.34Z"/><path class="cls-139" d="M213.4,109.28v-.18a.28.28,0,0,1,.17.33h-.12Z"/><path class="cls-141" d="M216.65,105.51l-.18-.16h0l.18.16Z"/><path class="cls-141" d="M216.14,105.16,216,105h0l.18.17Z"/><path class="cls-141" d="M216.13,101.08c-.19,1.25.44,2.38.5,3.59h0a6.71,6.71,0,0,1-.66-2c-.13-.56-.32-1.14.16-1.65Z"/><path class="cls-141" d="M218.66,100.79v.07l-2.2-.12h0C217.21,100.09,217.93,100.5,218.66,100.79Z"/><path class="cls-141" d="M216.29,100.9l-.16.18h0l.16-.18Z"/><path class="cls-141" d="M216.47,100.74l-.18.16h0l.18-.16Z"/><path class="cls-139" d="M185.89,128.77c-1.57-2.11-4-2.57-6.24-3.29-.42-.14-1.1-.2-1-.67s.72-.13,1.12-.06a19,19,0,0,1,4.89,1.84A2,2,0,0,1,185.89,128.77Z"/><path class="cls-139" d="M186.16,122.89c-1.92-1.62-4.3-2-6.65-2.55-.93-.2-1.87-.37-2.88-.56,1.24-.74,5.11.12,9.07,1.92h0l.13.09a.1.1,0,0,0,0,.06l.25.35Z"/><path class="cls-139" d="M177.25,115.19a2.34,2.34,0,0,1,1.33-.12,15.93,15.93,0,0,1,4.6,1.35,1.82,1.82,0,0,1,.36.22c.25.22.72.46.53.77s-.59,0-.84-.17a20.73,20.73,0,0,0-4.57-1.5A3.91,3.91,0,0,1,177.25,115.19Z"/><path class="cls-141" d="M186.16,122.89v-.69c.49-.46.14-1,.09-1.49-.09-.89-.58-1.69-.59-2.6a7,7,0,0,1,.94,3,17.43,17.43,0,0,1,.08,5.15c-.38-.72-.09-1.49-.16-2.23C186.48,123.64,186.54,123.2,186.16,122.89Z"/><path class="cls-141" d="M183.77,108.4a11.07,11.07,0,0,1,3.11-.82c1.42-.31,2.86-.53,4.3-.75a1.55,1.55,0,0,1,1.47.38c-2.75-.35-5.32.67-8,1.11A4.09,4.09,0,0,1,183.77,108.4Z"/><path class="cls-141" d="M175.59,110.79a29.34,29.34,0,0,1,4.48-1.66l.82-.22c.75,0,1.44-.44,2.2-.34a24.3,24.3,0,0,1-3.38,1c-1.15.38-2.33.69-3.46,1.15A2.84,2.84,0,0,1,175.59,110.79Z"/><path class="cls-141" d="M172.52,112.32a10.5,10.5,0,0,1,2.74-1.37A5.93,5.93,0,0,1,172.52,112.32Z"/><path class="cls-141" d="M193,107.55c.67,1,.19,1.77-.34,2.58A8.07,8.07,0,0,0,193,107.55Z"/><path class="cls-141" d="M171.33,113a3.26,3.26,0,0,1,1.19-.7C172.33,112.88,171.84,113,171.33,113Z"/><path class="cls-141" d="M186.17,114.73a1.52,1.52,0,0,1-1,.52A1,1,0,0,1,186.17,114.73Z"/><path class="cls-141" d="M170.31,113.68a1.75,1.75,0,0,1,1-.69A1.18,1.18,0,0,1,170.31,113.68Z"/><path class="cls-141" d="M168.94,114.53a1.14,1.14,0,0,1,.87-.51A.77.77,0,0,1,168.94,114.53Z"/><path class="cls-141" d="M185.15,115.23a1.76,1.76,0,0,1-1,.36A1.06,1.06,0,0,1,185.15,115.23Z"/><path class="cls-141" d="M189.24,113.19a.83.83,0,0,1-.69.35A.58.58,0,0,1,189.24,113.19Z"/><path class="cls-141" d="M189.75,112.85l-.51.36C189.23,112.83,189.49,112.84,189.75,112.85Z"/><path class="cls-141" d="M190.27,112.51l-.52.35C189.74,112.49,190,112.5,190.27,112.51Z"/><path class="cls-141" d="M184.81,116.74a.87.87,0,0,1,.36.52C184.79,117.26,184.79,117,184.81,116.74Z"/><path class="cls-141" d="M192.49,110.47l-.21.32C192,110.48,192.27,110.49,192.49,110.47Z"/><path class="cls-141" d="M183.09,108.57c.17-.26.42-.24.68-.17C183.6,108.67,183.33,108.57,183.09,108.57Z"/><path class="cls-141" d="M184.14,115.58v.32c-.09,0-.25-.07-.26-.12S184,115.6,184.14,115.58Z"/><path class="cls-141" d="M190.59,112.32l-.33.21C190.28,112.32,190.27,112.06,190.59,112.32Z"/><path class="cls-141" d="M192.64,107.2a.51.51,0,0,1,.36.35C192.74,107.57,192.62,107.45,192.64,107.2Z"/><path class="cls-141" d="M167.92,115.22a.78.78,0,0,1,.53-.35A.48.48,0,0,1,167.92,115.22Z"/><path class="cls-141" d="M187,114.38a.46.46,0,0,1-.53.18C186.62,114.33,186.83,114.38,187,114.38Z"/><path class="cls-141" d="M167.41,115.56a.32.32,0,0,1,.36-.18C167.7,115.55,167.56,115.56,167.41,115.56Z"/><path class="cls-141" d="M184.13,115.89c.13.08.25.17.17.36C184.14,116.18,184.12,116,184.13,115.89Z"/><path class="cls-141" d="M185.15,117.25a.28.28,0,0,1,.17.36C185.16,117.54,185.14,117.4,185.15,117.25Z"/><path class="cls-141" d="M185.32,117.6c.19.05.23.17.18.35C185.33,117.89,185.31,117.75,185.32,117.6Z"/><path class="cls-141" d="M168.43,114.88c.08-.15.17-.26.36-.18C168.73,114.87,168.59,114.89,168.43,114.88Z"/><path class="cls-141" d="M186.51,114.56c0,.21-.18.21-.35.17A.32.32,0,0,1,186.51,114.56Z"/><path class="cls-141" d="M187.37,114.21a.41.41,0,0,1-.36.19C187.07,114.21,187.22,114.22,187.37,114.21Z"/><path class="cls-141" d="M187.71,114a.41.41,0,0,1-.36.19C187.41,114,187.56,114.05,187.71,114Z"/><path class="cls-141" d="M188.05,113.87c-.07.15-.21.17-.35.19C187.75,113.88,187.9,113.88,188.05,113.87Z"/><path class="cls-141" d="M170,113.85c.07-.15.17-.24.35-.17C170.26,113.85,170.12,113.87,170,113.85Z"/><path class="cls-141" d="M188.56,113.53a.24.24,0,0,1-.35.18C188.27,113.55,188.41,113.53,188.56,113.53Z"/><path class="cls-141" d="M175.25,111c.05-.19.21-.17.35-.18C175.55,111,175.4,111,175.25,111Z"/><path class="cls-141" d="M192.65,110.12a.34.34,0,0,1-.18.35C192.47,110.32,192.47,110.18,192.65,110.12Z"/><path class="cls-141" d="M188.22,113.7c0,.16-.09.16-.18.19Z"/><path class="cls-141" d="M169.8,114c0-.16.07-.17.18-.18Z"/><path class="cls-141" d="M168.78,114.71c-.05-.17.08-.16.18-.18Z"/><path class="cls-141" d="M185.91,121.85a.1.1,0,0,1,0-.06h0Z"/><polygon class="cls-141" points="185.73 121.7 185.7 121.7 185.73 121.64 185.73 121.7"/><path class="cls-141" d="M167.76,115.39c0-.14.07-.16.18-.18Z"/><path class="cls-141" d="M184.63,116.58c.12,0,.17.07.19.18Z"/><path class="cls-141" d="M184.46,116.41c.15,0,.17.06.18.18Z"/><path class="cls-141" d="M184.29,116.23c.17,0,.2,0,.18.18Z"/><path class="cls-141" d="M167,115.9l.25-.18Z"/><path class="cls-141" d="M167.24,115.74l.19-.19Z"/><path class="cls-141" d="M185.48,117.94c.16,0,.16.08.19.18Z"/><path class="cls-142" d="M187.35,114.23h0v0Z"/><path class="cls-142" d="M188,113.89h0v0Z"/><path class="cls-142" d="M187.7,114.06h0v0Z"/><path class="cls-142" d="M187,114.4h0v0Z"/><polygon class="cls-142" points="175.26 110.95 175.25 110.95 175.25 110.96 175.26 110.95"/><polygon class="cls-142" points="183.09 108.57 183.09 108.57 183.09 108.57 183.09 108.57"/><polygon class="cls-142" points="192.64 110.13 192.65 110.13 192.65 110.12 192.64 110.13"/><path class="cls-142" d="M188.21,113.71h0Z"/><polygon class="cls-142" points="184.82 116.76 184.81 116.75 184.81 116.74 184.82 116.76"/><polygon class="cls-142" points="188.55 113.54 188.56 113.54 188.56 113.53 188.55 113.54"/><polygon class="cls-142" points="185.32 117.61 185.32 117.6 185.32 117.6 185.32 117.61"/><polygon class="cls-142" points="184.47 116.42 184.47 116.41 184.46 116.41 184.47 116.42"/><path class="cls-142" d="M184.3,116.25v0h0Z"/><polygon class="cls-142" points="184.64 116.59 184.64 116.58 184.63 116.58 184.64 116.59"/><path class="cls-142" d="M184.12,115.59h0Z"/><polygon class="cls-142" points="186.5 114.56 186.51 114.56 186.51 114.56 186.5 114.56"/><polygon class="cls-142" points="171.34 112.99 171.34 113 171.33 113 171.34 112.99"/><polygon class="cls-142" points="186.16 114.73 186.17 114.73 186.17 114.73 186.16 114.73"/><path class="cls-142" d="M185.5,118h0Z"/><polygon class="cls-142" points="170.32 113.68 170.31 113.68 170.31 113.68 170.32 113.68"/><polygon class="cls-142" points="169.81 114.02 169.8 114.02 169.8 114.03 169.81 114.02"/><path class="cls-142" d="M168.79,114.7h0Z"/><polygon class="cls-142" points="167.26 115.72 167.25 115.73 167.24 115.73 167.26 115.72"/><polygon class="cls-142" points="169.98 113.85 169.97 113.85 169.97 113.85 169.98 113.85"/><polygon class="cls-142" points="168.96 114.53 168.94 114.53 168.94 114.53 168.96 114.53"/><path class="cls-142" d="M167.77,115.38h0a0,0,0,0,0,0,0Z"/><path class="cls-142" d="M168.45,114.87h0Z"/><polygon class="cls-142" points="167.94 115.21 167.93 115.21 167.92 115.22 167.94 115.21"/></svg>