<svg id="Calque_2" data-name="Calque 2" xmlns="http://www.w3.org/2000/svg" xmlns:xlink="http://www.w3.org/1999/xlink" viewBox="0 0 303 208"><defs><style>.cls-1{fill:#c6dbfe;}.cls-2{fill:url(#Dégradé_sans_nom_9);}.cls-3{fill:url(#Dégradé_sans_nom_2);}.cls-4{fill:#b8d1fe;}.cls-5{fill:#333349;}.cls-6{fill:#f4f3f2;}.cls-7{fill:#febd9f;}.cls-8{fill:#49ba75;}.cls-9{fill:red;}.cls-10{fill:#e5effe;}.cls-11{fill:#fefefe;}</style><linearGradient id="Dégradé_sans_nom_9" x1="62.65" y1="104" x2="240.35" y2="104" gradientUnits="userSpaceOnUse"><stop offset="0" stop-color="#7cbac2"/><stop offset="1" stop-color="#66dca3"/></linearGradient><linearGradient id="Dégradé_sans_nom_2" x1="60.46" y1="92.35" x2="238.16" y2="92.35" gradientUnits="userSpaceOnUse"><stop offset="0" stop-color="#329986"/><stop offset="1" stop-color="#05dd47"/></linearGradient></defs><title>icons</title><circle class="cls-1" cx="153.69" cy="115.65" r="88.85"/><circle class="cls-2" cx="151.5" cy="104" r="88.85"/><circle class="cls-3" cx="149.31" cy="92.35" r="88.85"/><path class="cls-4" d="M87.08,122.58a43.39,43.39,0,0,1,7.75-6.69,21.8,21.8,0,0,1,7.66-3.63c.86-.1,1.72-.25,2.58-.3a26,26,0,0,1,8.94,1c1,.29,2,.64,2.94,1a4.11,4.11,0,0,0,1.11.55,32.31,32.31,0,0,1,7.21,5.14,21.9,21.9,0,0,1,3.4,4.44l.52,1a30.73,30.73,0,0,1,2,6.13c1,4.37,2.14,8.72,3.44,13.11,1.42-2.72,2.79-5.35,4.17-8a30.78,30.78,0,0,1,1.8-3.29,11.54,11.54,0,0,1,5.26.14,13.24,13.24,0,0,1,2.86,1.56c.16.15.37.21.31.55a131.39,131.39,0,0,1-3.8,16.29c-.66,2.15-1.41,4.26-2.19,6.37a26.06,26.06,0,0,1-2.25,4.24,9,9,0,0,1-11.12,3.26c-.44-.17-.88-.37-1.38-.58l.1,1.42H90.83c-.19-.62,0-1.28-.18-1.93-.06,0-.12.06-.12.07,0,.62,0,1.24.07,1.86H83.71c-.18-2.39-.39-4.78-.54-7.18-.12-1.8-.16-3.62-.23-5.43-.13-3.27-.15-6.54-.12-9.82,0-2.69.15-5.39.44-8.08,0-.23,0-.48,0-.72.18-1.23.33-2.48.55-3.71C84.37,128.23,85.09,125.17,87.08,122.58ZM122.33,157a5.21,5.21,0,0,0,.74,1.27,5.46,5.46,0,0,0-.66-1.35c0-.14-.09-.28-.15-.41a59.7,59.7,0,0,1-3.09-8,91.94,91.94,0,0,1-2.82-10.94,4.16,4.16,0,0,0-.34-1.43.31.31,0,0,0-.05.22,88.87,88.87,0,0,0,2.64,10.88A64,64,0,0,0,122.33,157Zm-33-8.22c-.43-4.61-1.11-9.18-1.91-13.73C88,139.65,88.7,144.22,89.29,148.8Zm.83,7.95H90l.49,6.82C90.52,161.29,90.26,159,90.12,156.75Zm-.24-.82H90l-.58-6.34H89.3Zm44.9-11.15-.14.05a24.51,24.51,0,0,0,1.43,3.71Z"/><path class="cls-5" d="M90.6,166.29c0-.62,0-1.24-.07-1.86,0,0,.06,0,.12-.07.15.65,0,1.31.18,1.93Z"/><path class="cls-6" d="M125.27,119.63a32.31,32.31,0,0,0-7.21-5.14c0-1.45,0-2.89,0-4.34,0-.55.18-.66.7-.66,6.48,0,13,0,19.44,0,.48,0,.64-.09.68-.63.19-2.53,0-5.07.08-7.6,0-.53.13-.69.67-.69q33.12,0,66.23,0c.58,0,.7.17.7.72,0,2.52,0,5,0,7.56,0,.53.17.64.66.64,7,0,14.08,0,21.12,0,.57,0,.7.16.7.72q0,23.19,0,46.39a2.06,2.06,0,0,0,0,.66c.22.59-.1.6-.54.6H194.07c0-.82,0-1.63,0-2.45,0-.34-.1-.45-.45-.45-1,0-2.07,0-3.11,0,0-.61,0-1.22,0-1.83,0-.4-.14-.51-.52-.5-1.53,0-3.07,0-4.61,0-.44,0-.56-.13-.56-.57q0-12,0-24.11c.89,0,1.78,0,2.67,0,.33,0,.46-.1.45-.45,0-.61,0-1.22,0-1.83s0-.73-.71-.73H159c-.43,0-.85,0-1.28,0s-.44.12-.44.45c0,.7,0,1.41,0,2.11,0,.33.11.46.45.45h2.78q0,12.06,0,24.11c0,.43-.12.57-.56.56-1.47,0-2.93,0-4.39,0-.38,0-.53.1-.51.5,0,.61,0,1.22,0,1.83-1,0-2,0-3.05,0-.39,0-.52.12-.5.51,0,.79,0,1.59,0,2.38h-7.71a1.69,1.69,0,0,0-.77.1c.78-2.11,1.53-4.22,2.19-6.37a131.39,131.39,0,0,0,3.8-16.29c.06-.34-.15-.4-.31-.55a19.82,19.82,0,0,1,1.83-4.32,9.69,9.69,0,0,0,.79-7.49,32.83,32.83,0,0,1-1.16-4.77c1,0,2,0,3,0,.49,0,.61-.17.56-.61a11.37,11.37,0,0,1-.09-1.31c0-1.41,0-2.81,0-4.21v-.89c0-2,0-4,0-6,0-.38-.11-.53-.5-.5-.81,0-1.63.1-2.44.09q-2.55,0-5.1-.09c-.5,0-.66.11-.65.64,0,1.47.13,2.94,0,4.42a.87.87,0,0,0,.1.59l-.94,0-3.72,0a1.38,1.38,0,0,0-1.55,1.3c-.29,1.8-.54,3.6-.8,5.4s-.52,3.7-.79,5.56c-.21,1.44-.46,2.88-.64,4.33-.14,1.06.29,1.49,1.37,1.49h3.17a34.23,34.23,0,0,0-.56,4.63,30.78,30.78,0,0,0-1.8,3.29c-1.38,2.61-2.75,5.24-4.17,8-1.3-4.39-2.43-8.74-3.44-13.11H133c.23,0,.4,0,.39-.32-.08-2,.11-3.94-.13-5.9v-.88c0-2.07,0-4.14,0-6.21,0-.35-.08-.48-.46-.48q-3.6,0-7.2,0c-.38,0-.52.15-.44.49A9.44,9.44,0,0,1,125.27,119.63Zm75.25,21.88c.21-.25.08-.53.1-.8a8.46,8.46,0,0,1-.08-.88c0-1.79,0-3.59,0-5.38,0-.38-.09-.52-.49-.51-2.48,0-5,0-7.44,0-.47,0-.54.19-.53.59,0,2.07,0,4.14,0,6.22a1,1,0,0,0,0,.87c0,1.74,0,3.48,0,5.22,0,.47.14.58.6.58,2.48,0,5-.12,7.43.09.45,0,.58-.13.55-.56-.12-1.64-.12-3.29-.1-4.93C200.54,141.84,200.53,141.67,200.52,141.51Zm-15.68-29.45v-.91c0-.6-.08-1.21-.08-1.82,0-1.48,0-3,0-4.43,0-.37-.09-.52-.49-.52q-3.72,0-7.43,0c-.4,0-.55.08-.55.52,0,2.08,0,4.17,0,6.26v.91c-.05.7.08,1.39.09,2.09,0,1.09,0,2.19,0,3.28,0,.53.17.64.66.63,1.14,0,2.29,0,3.44,0s2.58,0,3.88,0c.41,0,.5,0,.5-.44C184.85,115.8,184.85,113.93,184.84,112.06Zm-24.21,0c0,1.85,0,3.7.08,5.54,0,.39.16.46.5.46,2.54,0,5.07,0,7.61,0,.36,0,.5-.11.47-.47,0-.63-.09-1.26-.1-1.88,0-1.23,0-2.45,0-3.67v-.88c0-2,0-4.1,0-6.16,0-.43-.14-.52-.54-.52-2.5,0-5,0-7.49,0-.41,0-.55.11-.54.53,0,2,0,4.11,0,6.16Zm51.57,31.57c0,1.88.18,3.77.1,5.65,0,.39.15.46.49.46q3.72,0,7.44,0c.42,0,.54-.11.53-.53,0-1.87-.08-3.74-.12-5.6v-7.11c0-.26,0-.47-.37-.46-2.51.07-5-.07-7.53-.1-.34,0-.44.12-.45.46,0,2.1-.06,4.21-.09,6.31Zm-11.68-31.57v-.9c0-2.09,0-4.18,0-6.27,0-.36-.07-.52-.48-.51-2.5,0-5,0-7.49,0-.35,0-.5.09-.49.46.08,2.11-.08,4.21-.09,6.32v.91a8.36,8.36,0,0,1,.08,1.66c0,1.29,0,2.59,0,3.89,0,.45.15.56.58.55q3.72,0,7.44,0c.44,0,.59-.12.56-.56C200.51,115.76,200.52,113.91,200.52,112.06Zm20.11,13v-.9c0-2,0-4,0-6,0-.38-.09-.52-.49-.52-2.46,0-4.92,0-7.38,0-.35,0-.49.09-.48.47.08,2-.11,4.06-.1,6.09v.9c0,1.89.08,3.77.09,5.66,0,.44.12.57.56.56,2.48,0,5-.09,7.43-.1.42,0,.49-.17.48-.53,0-1.16-.09-2.32-.11-3.48C220.63,126.47,220.64,125.77,220.63,125.07Z"/><path class="cls-5" d="M103.73,104.15a7.81,7.81,0,0,1-3.1-4.45A8.16,8.16,0,0,0,99,96.86a16.09,16.09,0,0,1-3.76-6.76,11.89,11.89,0,0,1,.31-7.5,7.79,7.79,0,0,1,2.87-3.3,1.15,1.15,0,0,0,.47-.68,7.48,7.48,0,0,1,4.4-4.83,17.2,17.2,0,0,1,3.53-1,10.71,10.71,0,0,1,5.54.23,39.83,39.83,0,0,0,5,1.31,3.21,3.21,0,0,0,2.45-.38c1.31-.91,2.17-.56,2.53,1l.07.32a2.62,2.62,0,0,1,1.47-.29,1,1,0,0,1,1.09.69,2.9,2.9,0,0,1-.13,2.61,9.94,9.94,0,0,1-2,2.26c-.33.27-.66.52-1,.8s-.37.61,0,.91a3.66,3.66,0,0,0,.42.26,1,1,0,0,1,.29,1.77,3.43,3.43,0,0,1-1.8,1,5.11,5.11,0,0,1-1.91,0,13.42,13.42,0,0,1-.19,7.93,16.84,16.84,0,0,0-1.74-1.67,2.44,2.44,0,0,0-2.41-.64A3,3,0,0,0,113,95.42a4.79,4.79,0,0,0,2.33,2,.42.42,0,0,1,.28.55,9.77,9.77,0,0,1-.51,2c-.83,2-2,3.68-4.09,4.37A9.42,9.42,0,0,1,103.73,104.15Z"/><path class="cls-7" d="M103.73,104.15a9.42,9.42,0,0,0,7.24.14c2-.69,3.26-2.42,4.09-4.37a9.77,9.77,0,0,0,.51-2,.42.42,0,0,0-.28-.55,4.79,4.79,0,0,1-2.33-2,3,3,0,0,1,1.57-4.51,2.44,2.44,0,0,1,2.41.64,16.84,16.84,0,0,1,1.74,1.67,13.42,13.42,0,0,0,.19-7.93,5.11,5.11,0,0,0,1.91,0,3.43,3.43,0,0,0,1.8-1,1,1,0,0,0-.29-1.77,3.66,3.66,0,0,1-.42-.26c-.4-.3-.41-.57,0-.91s.65-.53,1-.8c.19.32.38.63.56.95a10.36,10.36,0,0,1,1.18,5.89,22.76,22.76,0,0,0,.08,4.81,3.44,3.44,0,0,0,1.11,2,2.7,2.7,0,0,1,.64.89,1.35,1.35,0,0,1-.9,2c-.57.16-.68.42-.66,1a11.2,11.2,0,0,1-1.09,5.49,6.29,6.29,0,0,1-1.32,1.83,2.72,2.72,0,0,1-1.8.76,11,11,0,0,1-2.92-.28c-.41-.08-.48.09-.53.41a23,23,0,0,0-.24,3.42c0,1.44,0,2.89,0,4.33-1-.32-2-.67-2.94-1a26,26,0,0,0-8.94-1c-.86.05-1.72.2-2.58.3a3.43,3.43,0,0,0,1-2.59C103.68,107.83,103.73,106,103.73,104.15Z"/><path class="cls-8" d="M87.08,122.58c-2,2.59-2.71,5.65-3.26,8.77-.22,1.23-.37,2.48-.55,3.71-.45.37-.78.91-1.42,1V116.68c-.22.13-.15.27-.17.39-.11,1.18,0,2.37,0,3.55-.07,2.63,0,5.26,0,7.89s.11,5,0,7.55a1.71,1.71,0,0,1-1.8-.53,5.88,5.88,0,0,1-1.5-2.45,26.59,26.59,0,0,1-1.49-6.79,52.37,52.37,0,0,1-.3-6.63,43.94,43.94,0,0,1,1.8-12.11,11,11,0,0,1,1.94-3.83,1.83,1.83,0,0,1,3-.15A8.55,8.55,0,0,1,85,106.74a32,32,0,0,1,1.66,7.6c.18,1.75.25,3.5.35,5.25C87,120.59,87,121.59,87.08,122.58Z"/><path class="cls-9" d="M183.2,76.71a11.24,11.24,0,0,1-1.44,4.09,10.37,10.37,0,0,1-19-3.28,2.24,2.24,0,0,0-.15-.81,12.3,12.3,0,0,1,.65-5.07A10.33,10.33,0,0,1,183,72.89,10.92,10.92,0,0,1,183.2,76.71Zm-10.31,5.23c.61,0,1.22,0,1.83,0,.36,0,.48-.09.47-.46,0-1.11,0-2.22,0-3.33,0-.38.11-.47.47-.46,1.07,0,2.15,0,3.22,0,.33,0,.45-.07.44-.42,0-1.23,0-2.45,0-3.67,0-.36-.1-.47-.47-.46-1,0-2.07,0-3.11,0-.48,0-.57-.15-.56-.59,0-1.09,0-2.19,0-3.28,0-.36-.06-.52-.48-.51-1.2,0-2.41,0-3.61,0-.37,0-.47.11-.46.47,0,1.15,0,2.3,0,3.45,0,.36-.11.46-.47.45-1,0-2.07,0-3.11,0-.34,0-.49,0-.48.44,0,1.22,0,2.45,0,3.67,0,.39.15.45.48.44,1,0,2,0,3,0,.42,0,.58.07.56.53,0,1.11,0,2.22,0,3.34,0,.28.07.39.37.38C171.63,81.93,172.26,81.94,172.89,81.94Z"/><path class="cls-4" d="M151.52,157.84c0-.79,0-1.59,0-2.38,0-.39.11-.52.5-.51,1,0,2,0,3.05,0h35.46c1,0,2.08,0,3.11,0,.35,0,.46.11.45.45,0,.82,0,1.63,0,2.45Z"/><path class="cls-4" d="M196.74,71.12a10.73,10.73,0,0,1,1.77-1.21c1.71-1.08,3.47-2.1,5.29-3a6.85,6.85,0,0,1,3.72-.62,2.08,2.08,0,0,1,1.55,1c.48.71.48.7,1.11.09a13.2,13.2,0,0,1,2.11-1.77,3.08,3.08,0,0,1,4.14.53,3.18,3.18,0,0,1,.38,2.64,7.14,7.14,0,0,1-1.07,2.43.9.9,0,0,1-.83.43c-2.59,0-5.17-.18-7.75-.26-2.87-.1-5.73,0-8.6-.07C198,71.26,197.42,71.16,196.74,71.12Z"/><path class="cls-4" d="M216.76,81.58a46.82,46.82,0,0,1,3.67-3,6.72,6.72,0,0,1,2.06-1.06,1.34,1.34,0,0,1,1.74.76c.18.36.38.41.75.26a22.31,22.31,0,0,1,4.94-1.61,3.29,3.29,0,0,1,.77-.06c1.58.12,1.91.57,1.48,2.12a5.47,5.47,0,0,1-1.63,2.47.72.72,0,0,1-.56.18c-2.48,0-5,.24-7.43.09C220.65,81.57,218.76,81.65,216.76,81.58Z"/><path class="cls-5" d="M81.59,136.06c.16-2.51.09-5,0-7.55s-.07-5.26,0-7.89c0-1.18-.07-2.37,0-3.55,0-.12-.05-.26.17-.39v19.39c-.11,2.88-.08,5.77-.09,8.66,0,4,0,8,0,12.05a2.14,2.14,0,0,1-.16,1.29V156.9q0-9.56,0-19.11a3.66,3.66,0,0,0,0-1.19l0,0,0-.08A.61.61,0,0,0,81.59,136.06Z"/><path class="cls-4" d="M81.63,136.48l0,.08,0,0Z"/><path class="cls-7" d="M140.6,133a34.23,34.23,0,0,1,.56-4.63c.48,0,1,0,1.43,0,.27,0,.4-.07.46-.34a8,8,0,0,1,1.69-3.37c.75-1,1.58-1.86,2.28-2.85a.83.83,0,0,0,.16-.81,6,6,0,0,1-.23-2c.07-1.56.72-2.42,2-2.67a1.23,1.23,0,0,1,.88.88l.33,1a32.83,32.83,0,0,0,1.16,4.77,9.69,9.69,0,0,1-.79,7.49,19.82,19.82,0,0,0-1.83,4.32,13.24,13.24,0,0,0-2.86-1.56A11.54,11.54,0,0,0,140.6,133Z"/><path class="cls-4" d="M125.27,119.63a9.44,9.44,0,0,0-.08-1.76c-.08-.34.06-.49.44-.49q3.6,0,7.2,0c.38,0,.47.13.46.48,0,2.07,0,4.14,0,6.21h-4.62A21.9,21.9,0,0,0,125.27,119.63Z"/><path class="cls-4" d="M133.28,125c.24,2,.05,3.93.13,5.9,0,.29-.16.33-.39.32h-1.83a30.73,30.73,0,0,0-2-6.13,1.12,1.12,0,0,1,.65-.1Z"/><path class="cls-5" d="M122.33,157a64,64,0,0,1-3.73-9.73A88.87,88.87,0,0,1,116,136.41a.31.31,0,0,1,.05-.22,4.16,4.16,0,0,1,.34,1.43,91.94,91.94,0,0,0,2.82,10.94,59.7,59.7,0,0,0,3.09,8c.06.13.1.27.15.41Z"/><path class="cls-10" d="M133.28,125h-3.44a1.12,1.12,0,0,0-.65.1l-.52-1h4.62C133.29,124.36,133.28,124.65,133.28,125Z"/><path class="cls-5" d="M89.29,148.8c-.59-4.58-1.28-9.15-1.91-13.73C88.18,139.62,88.86,144.19,89.29,148.8Z"/><path class="cls-5" d="M90.12,156.75c.14,2.27.4,4.54.33,6.83L90,156.76Z"/><path class="cls-5" d="M89.88,155.93l-.58-6.34h.16l.58,6.34Z"/><path class="cls-5" d="M134.78,144.78l1.29,3.76a24.51,24.51,0,0,1-1.43-3.71Z"/><path class="cls-5" d="M122.41,156.94a5.46,5.46,0,0,1,.66,1.35,5.21,5.21,0,0,1-.74-1.27Z"/><path class="cls-5" d="M149,116.3c-1.3.25-1.95,1.11-2,2.67a6,6,0,0,0,.23,2,.83.83,0,0,1-.16.81c-.7,1-1.53,1.89-2.28,2.85a8,8,0,0,0-1.69,3.37c-.06.27-.19.35-.46.34-.47,0-1,0-1.43,0H138c-1.08,0-1.51-.43-1.37-1.49.18-1.45.43-2.89.64-4.33q.41-2.79.79-5.56c.26-1.8.51-3.6.8-5.4a1.38,1.38,0,0,1,1.55-1.3l3.72,0,.94,0h3.64c.74,0,.94.18,1.06.9l-.17,1.3Z"/><path class="cls-10" d="M190.52,155H155.06c0-.61,0-1.22,0-1.83,0-.4.13-.51.51-.5,1.46,0,2.92,0,4.39,0,.44,0,.56-.13.56-.56q0-12.06,0-24.11h24.34q0,12.06,0,24.11c0,.44.12.58.56.57,1.54,0,3.08,0,4.61,0,.38,0,.54.1.52.5C190.5,153.73,190.52,154.34,190.52,155ZM172.3,140.51h0c0-3.84,0-7.67,0-11.51,0-.49-.14-.62-.63-.61-3.11,0-6.22,0-9.33,0-1.16,0-1.18,0-1.16,1.2,0,2.08.08,4.17.09,6.25,0,5.37,0,10.74,0,16.11,0,.55.16.68.68.67,3.24,0,6.49,0,9.73,0,.49,0,.62-.13.62-.62C172.29,148.18,172.3,144.34,172.3,140.51Zm1-.06q0,5.81,0,11.61c0,.42.1.58.55.57q4.84,0,9.67,0c.48,0,.58-.16.58-.6q0-11.47,0-22.94c0-.52-.14-.71-.68-.7q-4.76,0-9.5,0c-.49,0-.63.13-.62.62C173.3,132.82,173.29,136.64,173.29,140.45Z"/><path class="cls-4" d="M184.85,128H157.73c-.34,0-.45-.12-.45-.45,0-.7,0-1.41,0-2.11,0-.33.1-.47.44-.45s.85,0,1.28,0h28.25c.71,0,.71,0,.71.73s0,1.22,0,1.83c0,.35-.12.45-.45.45C186.63,127.94,185.74,128,184.85,128Z"/><path class="cls-4" d="M192,111.16c0-2.11.17-4.21.09-6.32,0-.37.14-.46.49-.46,2.49,0,5,0,7.49,0,.41,0,.48.15.48.51,0,2.09,0,4.18,0,6.27Z"/><path class="cls-4" d="M176.3,111.16c0-2.09,0-4.18,0-6.26,0-.44.15-.52.55-.52q3.71,0,7.43,0c.4,0,.49.15.49.52,0,1.48,0,2.95,0,4.43,0,.61.05,1.22.08,1.82Z"/><path class="cls-4" d="M192.06,140.74c0-2.08,0-4.15,0-6.22,0-.4.06-.59.53-.59,2.48,0,5,0,7.44,0,.4,0,.5.13.49.51,0,1.79,0,3.59,0,5.38a8.46,8.46,0,0,0,.08.88Z"/><path class="cls-4" d="M160.62,111.17c0-2,0-4.11,0-6.16,0-.42.13-.53.54-.53,2.49,0,5,0,7.49,0,.4,0,.54.09.54.52,0,2.06,0,4.11,0,6.16Z"/><path class="cls-4" d="M212.2,142.72c0-2.1.07-4.21.09-6.31,0-.34.11-.46.45-.46,2.51,0,5,.17,7.53.1.37,0,.37.2.37.46v6.22Z"/><path class="cls-4" d="M212.19,124.17c0-2,.18-4.06.1-6.09,0-.38.13-.47.48-.47,2.46,0,4.92,0,7.38,0,.4,0,.49.14.49.52,0,2,0,4,0,6Z"/><path class="cls-4" d="M149.76,111.16c-.12-.72-.32-.89-1.06-.9h-3.64a.87.87,0,0,1-.1-.59c.11-1.48,0-3,0-4.42,0-.53.15-.66.65-.64q2.55.08,5.1.09c.81,0,1.63,0,2.44-.09.39,0,.5.12.5.5,0,2,0,4,0,6Z"/><path class="cls-4" d="M220.63,125.07c0,.7,0,1.4,0,2.11,0,1.16.06,2.32.11,3.48,0,.36-.06.53-.48.53-2.48,0-4.95.05-7.43.1-.44,0-.56-.12-.56-.56,0-1.89,0-3.77-.09-5.66Z"/><path class="cls-4" d="M200.52,112.06c0,1.85,0,3.7.12,5.55,0,.44-.12.56-.56.56q-3.72,0-7.44,0c-.43,0-.59-.1-.58-.55,0-1.3,0-2.6,0-3.89a8.36,8.36,0,0,0-.08-1.66Z"/><path class="cls-4" d="M220.64,143.62c0,1.86.07,3.73.12,5.6,0,.42-.11.53-.53.53q-3.72,0-7.44,0c-.34,0-.51-.07-.49-.46.08-1.88-.13-3.77-.1-5.65Z"/><path class="cls-4" d="M169.18,112.05c0,1.22,0,2.44,0,3.67,0,.62.05,1.25.1,1.88,0,.36-.11.47-.47.47-2.54,0-5.07,0-7.61,0-.34,0-.48-.07-.5-.46-.06-1.84-.11-3.69-.08-5.54Z"/><path class="cls-4" d="M184.84,112.06c0,1.87,0,3.74,0,5.6,0,.4-.09.46-.5.44-1.3-.06-2.59,0-3.88,0s-2.3,0-3.44,0c-.49,0-.68-.1-.66-.63,0-1.09,0-2.19,0-3.28,0-.7-.14-1.39-.09-2.1Z"/><path class="cls-4" d="M200.52,141.51c0,.16,0,.33,0,.5,0,1.64,0,3.29.1,4.93,0,.43-.1.6-.55.56-2.47-.21-5-.06-7.43-.09-.46,0-.6-.11-.6-.58,0-1.74,0-3.48,0-5.22C194.87,141.61,197.7,141.65,200.52,141.51Z"/><path class="cls-4" d="M149,116.3l.62-3.84,0,0s.05,0,.05,0c0-.42.28-.45.62-.44,1.11,0,2.21,0,3.31,0,0,1.4,0,2.8,0,4.21a11.37,11.37,0,0,0,.09,1.31c.05.44-.07.63-.56.61-1,0-2,0-3,0l-.33-1A1.23,1.23,0,0,0,149,116.3Z"/><path class="cls-10" d="M169.18,112.05h-8.55c0-.3,0-.59,0-.89h8.56Z"/><path class="cls-10" d="M184.84,112.06H176.3v-.9h8.54Z"/><path class="cls-10" d="M200.52,112.06H192c0-.3,0-.61,0-.91h8.55Z"/><path class="cls-10" d="M200.52,141.51c-2.82.14-5.65.1-8.47.1a1,1,0,0,1,0-.87l8.56,0C200.6,141,200.73,141.26,200.52,141.51Z"/><path class="cls-10" d="M220.63,125.07H212.2c0-.3,0-.6,0-.9h8.45Z"/><path class="cls-10" d="M220.64,143.62H212.2v-.91h8.44Z"/><path class="cls-10" d="M153.62,112.05c-1.1,0-2.2,0-3.31,0-.34,0-.61,0-.62.44,0,0,0,0-.05,0l0,0,.17-1.3h3.86Z"/><path class="cls-11" d="M172.89,81.94c-.63,0-1.26,0-1.89,0-.3,0-.38-.1-.37-.38,0-1.12,0-2.23,0-3.34,0-.46-.14-.54-.56-.53-1,0-2,0-3,0-.33,0-.49,0-.48-.44,0-1.22,0-2.45,0-3.67,0-.39.14-.45.48-.44,1,0,2.08,0,3.11,0,.36,0,.47-.09.47-.45,0-1.15,0-2.3,0-3.45,0-.36.09-.48.46-.47,1.2,0,2.41,0,3.61,0,.42,0,.48.15.48.51,0,1.09,0,2.19,0,3.28,0,.44.08.61.56.59,1-.05,2.08,0,3.11,0,.37,0,.47.1.47.46,0,1.22,0,2.44,0,3.67,0,.35-.11.43-.44.42-1.07,0-2.15,0-3.22,0-.36,0-.48.08-.47.46,0,1.11,0,2.22,0,3.33,0,.37-.11.48-.47.46C174.11,81.92,173.5,81.94,172.89,81.94Z"/><path class="cls-4" d="M172.3,140.51c0,3.83,0,7.67,0,11.5,0,.49-.13.63-.62.62-3.24,0-6.49,0-9.73,0-.52,0-.68-.12-.68-.67,0-5.37,0-10.74,0-16.11,0-2.08-.07-4.17-.09-6.25,0-1.2,0-1.2,1.16-1.2,3.11,0,6.22,0,9.33,0,.49,0,.63.12.63.61,0,3.84,0,7.67,0,11.51Z"/><path class="cls-4" d="M173.29,140.45c0-3.81,0-7.63,0-11.44,0-.49.13-.63.62-.62q4.74,0,9.5,0c.54,0,.68.18.68.7q0,11.47,0,22.94c0,.44-.1.61-.58.6q-4.83,0-9.67,0c-.45,0-.55-.15-.55-.57Q173.3,146.26,173.29,140.45Z"/><path class="cls-6" d="M208.76,77.39c0-.59-.18-.69-.72-.69q-12.42,0-24.84,0a11.24,11.24,0,0,1-1.44,4.09,10.37,10.37,0,0,1-19-3.28,2.24,2.24,0,0,0-.15-.81h-25.4c-.42,0-.62.06-.62.56q0,10.84,0,21.68c0,.43.12.57.56.56,2,0,3.9,0,5.85,0,1.78,0,3.55,0,5.33,0,1.18,0,2.38,0,3.57,0s2.37,0,3.56,0c1.82,0,3.64-.08,5.46,0,1.31,0,2.63,0,3.94-.08,1,0,2.08.1,3.11.08,1.21,0,2.41,0,3.62,0,4.31,0,8.63,0,12.94,0,1.24,0,2.49-.08,3.73,0,.52,0,1.05-.15,1.54-.08a18.62,18.62,0,0,0,2.69.06c2.36,0,4.72,0,7.07,0,1.3,0,2.61,0,3.91,0,1.59.09,3.2,0,4.79,0,.5,0,.47-.27.47-.6Q208.74,88.15,208.76,77.39Zm-24.64,11c.94,0,1.88,0,2.82,0-.94,0-1.88,0-2.82,0h0Z"/><path d="M152.69,95.55h-1.55V91.27h-4.37v4.28h-1.55V86.07h1.55V90h4.37V86.07h1.55Z"/><path d="M162.91,91.94a4.83,4.83,0,0,1-.24,1.59A3.09,3.09,0,0,1,162,94.7a2.87,2.87,0,0,1-1.07.73,4,4,0,0,1-1.42.24,3.68,3.68,0,0,1-1.35-.24,3,3,0,0,1-1.07-.73,3.41,3.41,0,0,1-.7-1.17,4.83,4.83,0,0,1-.24-1.59,4.39,4.39,0,0,1,.41-2,2.86,2.86,0,0,1,1.17-1.26,3.64,3.64,0,0,1,1.83-.43,3.4,3.4,0,0,1,1.74.43,3,3,0,0,1,1.19,1.26A4.32,4.32,0,0,1,162.91,91.94Zm-5.2,0a4,4,0,0,0,.19,1.34,1.65,1.65,0,0,0,.59.86,2,2,0,0,0,2.07,0,1.65,1.65,0,0,0,.59-.86,4.79,4.79,0,0,0,0-2.67,1.61,1.61,0,0,0-.59-.83,1.69,1.69,0,0,0-1-.29,1.56,1.56,0,0,0-1.38.63A3.22,3.22,0,0,0,157.71,91.94Z"/><path d="M169.86,88.24a2.53,2.53,0,0,1,2,.93,4.24,4.24,0,0,1,.78,2.77,5.12,5.12,0,0,1-.36,2,2.74,2.74,0,0,1-1,1.26,3,3,0,0,1-2.44.28,2.27,2.27,0,0,1-.69-.37,2.51,2.51,0,0,1-.48-.5h-.09q0,.25.06.57t0,.57v2.93h-1.53V88.37h1.25l.21,1h.07a3.23,3.23,0,0,1,.49-.56,2.19,2.19,0,0,1,.7-.41A2.85,2.85,0,0,1,169.86,88.24Zm-.4,1.24a1.78,1.78,0,0,0-1,.25,1.43,1.43,0,0,0-.55.75,4,4,0,0,0-.19,1.25v.21a4.77,4.77,0,0,0,.17,1.35,1.6,1.6,0,0,0,.55.85,1.71,1.71,0,0,0,1,.28,1.42,1.42,0,0,0,.93-.3,1.89,1.89,0,0,0,.55-.87,4.37,4.37,0,0,0,.18-1.33,3.38,3.38,0,0,0-.41-1.8A1.4,1.4,0,0,0,169.46,89.48Z"/><path d="M176.74,85.63a1,1,0,0,1,.61.18.76.76,0,0,1,.25.65.77.77,0,0,1-.25.65,1.05,1.05,0,0,1-.61.19,1,1,0,0,1-.61-.19.77.77,0,0,1-.25-.65.76.76,0,0,1,.25-.65A1,1,0,0,1,176.74,85.63Zm.75,2.74v7.18H176V88.37Z"/><path d="M183.87,94.44a2.84,2.84,0,0,0,.58,0,5.38,5.38,0,0,0,.54-.13v1.15a3.33,3.33,0,0,1-.66.19,4.5,4.5,0,0,1-.83.07,2.73,2.73,0,0,1-1.1-.2,1.62,1.62,0,0,1-.77-.7,2.78,2.78,0,0,1-.29-1.38V89.53h-1v-.68l1-.54.49-1.53h1v1.59h2.06v1.16h-2.06v3.84a1.06,1.06,0,0,0,.28.81A1,1,0,0,0,183.87,94.44Z"/><path d="M190.78,88.24a3.09,3.09,0,0,1,2.06.6,2.37,2.37,0,0,1,.7,1.88v4.83h-1.09l-.29-1h0a3.48,3.48,0,0,1-.63.64,2.21,2.21,0,0,1-.75.38,3.78,3.78,0,0,1-1,.12,2.66,2.66,0,0,1-1.15-.23,1.83,1.83,0,0,1-.79-.72,2.35,2.35,0,0,1-.3-1.24,1.88,1.88,0,0,1,.83-1.66,4.83,4.83,0,0,1,2.5-.62l1.24,0v-.38a1.39,1.39,0,0,0-.34-1.06,1.43,1.43,0,0,0-1-.32,3.28,3.28,0,0,0-1,.16,7,7,0,0,0-1,.38l-.49-1.07a5.45,5.45,0,0,1,1.2-.46A5.75,5.75,0,0,1,190.78,88.24ZM192,92.12l-.93,0a3,3,0,0,0-1.6.39,1.12,1.12,0,0,0-.46,1,.89.89,0,0,0,.32.77,1.34,1.34,0,0,0,.83.25,1.87,1.87,0,0,0,1.31-.46,1.65,1.65,0,0,0,.53-1.32Z"/><path d="M198.72,95.55h-1.53V85.46h1.53Z"/></svg>