<svg id="Calque_2" data-name="Calque 2" xmlns="http://www.w3.org/2000/svg" viewBox="0 0 303 208"><defs><style>.cls-1{fill:#c6dbfe;}.cls-2{fill:#fe823a;}.cls-3{fill:#feab69;}.cls-4{fill:#fefefe;}.cls-5{fill:#2c1913;}.cls-6{fill:#f4fafe;}.cls-7{fill:#1f3152;}.cls-8{fill:none;}</style></defs><title>icons</title><circle class="cls-1" cx="151.5" cy="104" r="100.5"/><path class="cls-2" d="M202.18,188l-.12-5.18a1.13,1.13,0,0,0-.32-.06c-3.91.12-7.82,0-11.73.06-.59,0-.69-.19-.69-.73,0-2.8,0-5.59,0-8.39,0-.27.11-.63-.39-.59-.17.12-.35.21-.55.05a19.61,19.61,0,0,1-3.72.46c-2.15.16-4.31.37-6.47.46-3.22.14-6.44.39-9.66.55-3,.14-6,.3-9.06.25h-.56c-.22,0-.45.05-.68.05-6.28,0-12.57,0-18.86-.07a35.85,35.85,0,0,1-3.59-.23c-.59-.06-.86.06-.77.68l0,.41-.07.21c.05,1.7-.25,3.37-.3,5.06s-.44,3.55-.43,5.34c0,.56-.09,1.11-.11,1.66h55.26c.26-1.51.54-3,.79-4.53.06-.4.25-.51.63-.51H201.4c.38,0,.52.13.52.51a38.19,38.19,0,0,0,.13,4.54Z"/><path class="cls-3" d="M202.05,188a38.19,38.19,0,0,1-.13-4.54c0-.38-.14-.51-.52-.51H190.78c-.38,0-.57.11-.63.51-.25,1.52-.53,3-.79,4.53Z"/><path class="cls-4" d="M189,173.13c.5,0,.39.32.39.59,0,2.8,0,5.59,0,8.39,0,.54.1.73.69.73,3.91,0,7.82.06,11.73-.06a1.13,1.13,0,0,1,.32.06,10.68,10.68,0,0,1,1.94-.28c.26,0,.37-.13.37-.38s0-.36,0-.54c0-10.53,0-21,0-31.58,0-2.47,0-4.94-.12-7.41-.1-2.27-.15-4.53-.27-6.79s-.15-4.43-.26-6.65-.26-4.18-.41-6.27c-.19-2.57-.34-5.14-.58-7.7-.23-2.37-.52-4.75-.86-7.11-.32-2.2-.78-4.36-1.19-6.53a35.44,35.44,0,0,0-1.22-4.09,32.07,32.07,0,0,0-3-6.51,17.66,17.66,0,0,0-2.08-2.76,56.07,56.07,0,0,0-4.67-4.45,34.57,34.57,0,0,0-4.24-3.26.76.76,0,0,1-.43-.71.61.61,0,0,1-.82.14,47.62,47.62,0,0,1-5.72-2.85l0,.15a.11.11,0,0,1,0,.08h0c.18.11.22.31.3.49v0l.07.11a25.85,25.85,0,0,1,2.21,8.64,54.7,54.7,0,0,1-.37,11.65l-.17.17h0c.21.19.07.43.08.65a4.64,4.64,0,0,1,0,.53c-.27,1.81-.36,3.64-.48,5.45,0,.55-.13.82-.72.68-.27.34.07.29.21.3a2.11,2.11,0,0,1,1.31.39l0,0c.11,0,.23,0,.29.15h0l.29.15h.14a2.56,2.56,0,0,1,1.12,1,4.44,4.44,0,0,1,.41,5,4,4,0,0,1-4.31,2.28c-.43-.16-.93-.1-1.33-.39l0,0-.43-.15h0l-.28-.15h0l-.05,0h-.06a3.7,3.7,0,0,1-1.93-2.6,5.28,5.28,0,0,1,.26-3.12h0l.14-.29v0l.15-.29h0l.14-.21a2.59,2.59,0,0,1,1-1l.14,0v0l.14-.15h0a2.56,2.56,0,0,1,.9-.42h0a3.27,3.27,0,0,1,1.32-.26c.15,0,.52.14.39-.3-.54,0-.79-.22-.7-.82a25.62,25.62,0,0,0,.26-2.61c.08-1.8.36-3.58.54-5.37a65.45,65.45,0,0,0,.36-7.53c0-1.89-.31-3.75-.48-5.62h0c-.47-1.55-.85-3.12-1.43-4.64l-1.17-2L176.5,77h0l-.32-.33,0,0-.23-.22a.09.09,0,0,1-.06-.06l-.18-.17h0l-.16-.14-4-3c-.33,2-.71,3.91-1.19,5.83-1.11,4.62-2.39,9.18-3.76,13.73-1.82,6.06-3.83,12-5.9,18-.29.84-.65,1.66-1,2.61-.15-.49-.26-.84-.35-1.18-.78-3-1.46-6-2.1-9-.53-2.58-1.11-5.15-1.65-7.73-.44-2.09-.83-4.2-1.24-6.3-.61-3-1.2-6.08-1.63-9.15l0-.3a2.86,2.86,0,0,1,0-1,4.35,4.35,0,0,1-.25-2V74.12l0-.14c-.83.51-1.51,1.23-2.31,1.79a7.32,7.32,0,0,0-2.26,2.47,30.72,30.72,0,0,0-3.89,11.29c-.07.67-.15,1.33-.23,2,0,.22,0,.39.27.44a12.43,12.43,0,0,1,2,.71.43.43,0,0,1,.21-.33,13.88,13.88,0,0,1,2.3-1.56c.14-.07.33-.12.29-.32s-.22-.11-.35-.13a12.1,12.1,0,0,1-1.21-.14c-.82-.16-1.63-.34-2.45-.52-.21,0-.43-.13-.38-.38s.34-.2.52-.17a7.67,7.67,0,0,1,1.05.26,30.39,30.39,0,0,0,3.4.53c.25,0,.53.07.57.39s-.2.48-.45.6a13.74,13.74,0,0,0-1.68,1c-.49.33-.89.87-1.57.89l.2.22h0l.17.11h0l.37.31h0l.15.14,0,0,.16.15h0l.14.14h0l.15.16,0,0,.15.16v0l.15.15h0l.15.15h0l.18.18a.06.06,0,0,1,0,.06,7.51,7.51,0,0,1,.73,1.13,11.25,11.25,0,0,1,1,3.79,2.8,2.8,0,0,1-.11,2,1.21,1.21,0,0,1,.14.79,54.94,54.94,0,0,1-.53,9.59,39,39,0,0,1-2,7.59,19.13,19.13,0,0,0-1.2,3.3l0,.14a5.06,5.06,0,0,0,1.15-.55,13.65,13.65,0,0,1,2.45-1.36,1,1,0,0,1,.9-1,.92.92,0,0,1,1,.54.82.82,0,0,1-.31,1.12h0a1.38,1.38,0,0,1-1,.39,14,14,0,0,1-3.94,2.19.67.67,0,0,0,0,.2q.93,3.24,1.88,6.47a10.91,10.91,0,0,1,.56,1.76,1,1,0,0,1,.95.29c.1.06.22.12.14.28h0c.14,0,.15,0,.14.14h0c.17,0,.19.14.14.28h0c.19,0,.18.3.39.29.13-.44.38-.57.85-.44,1.38.35,1.8.92,1.73,2.49l.17.25h0c.12,0,.23,0,.28.14h0c.09,0,.16,0,.15.14h0c.14,0,.21.05.28.15h0l.15.15h0l.14.14h0a.32.32,0,0,1,.14.29h0a1.3,1.3,0,0,1,.21,1.43,1.34,1.34,0,0,0,.08,1.16h0a.14.14,0,0,1,.15.14h0c.15.11.29.22.28.42h0a2.34,2.34,0,0,1,0,2.61h0c0,.09,0,.17-.14.15h0s0,0,0,0,0,.06,0,.09l0,.15c0,.22.27.4.17.66h0c.2,0,.16.15.14.28h0c.17,0,.15.18.21.28a3.45,3.45,0,0,1,0,3.07,6.32,6.32,0,0,1-1.71,2.23c0,.12.12.24.16.37.64,2.15,1.29,4.31,1.91,6.47a42.12,42.12,0,0,1,1.26,4.69,1.39,1.39,0,0,1-1.53,1.74l-9-.17a37.61,37.61,0,0,1-4.11-.11h-.48c-2.57.07-5.13-.25-7.7-.12.18,3.82.12,7.64.14,11.47,0,.4,0,.88.51,1.06-.09-.62.18-.74.77-.68a35.85,35.85,0,0,0,3.59.23c6.29,0,12.58.05,18.86.07.23,0,.46,0,.68-.05-.13-1.8-.34-3.61-.39-5.41-.07-2.67-.25-5.34-.27-8,0-5.12-.1-10.24.11-15.36.12-3,0-6,.1-9,.12-3.15.11-6.31.18-9.47.09-4.08-.24-8.17.27-12.24a.9.9,0,0,0-.17-.58c-2.68-4.34-4.8-9-7-13.53a9.71,9.71,0,0,1-.41-1,.37.37,0,0,1,.15-.48c.22-.11.33.09.44.23a1.35,1.35,0,0,1,.18.36c.59,1.6,1.41,3.1,2.15,4.63,1,2.1,2.12,4.15,3.22,6.21.55,1,1.17,2,1.79,3.11.3-.39.52-.72.78-1,3-3.65,5.94-7.29,8.89-11,2.56-3.2,5.19-6.33,8-9.32.34-.37.24-.45-.15-.63a17.52,17.52,0,0,1-3.41-2,.92.92,0,0,1-.44-.92c.06-.3.42-.28.69-.3a2.83,2.83,0,0,0,.4-.08c1.63-.38,3.25-.79,4.86-1.26.14,0,.4-.27.51,0s-.09.42-.32.51l-.39.12-5,1.27a1.15,1.15,0,0,0,.49.51,17.73,17.73,0,0,0,3.31,1.74c.48.21.59.4.29.86a15.66,15.66,0,0,1-1.09,1.21c-1.33,1.54-2.66,3.08-4,4.64s-2.6,3.07-3.87,4.63-2.32,2.95-3.53,4.39c-1.74,2.08-3.41,4.22-5.06,6.38-.26.35-.66.66-.69,1.14-.11,1.53-.23,3.07-.27,4.61-.11,4.15.1,8.31-.13,12.46-.16,2.86,0,5.72-.12,8.58-.14,4.65,0,9.31-.16,14-.1,2.59.21,5.17.14,7.76,0,.9.06,1.81.09,2.71.08,2.81.25,5.61.43,8.41,0,.35.22.7,0,1.06,3,0,6-.11,9.06-.25,3.22-.16,6.44-.41,9.66-.55,2.16-.09,4.32-.3,6.47-.46a19.61,19.61,0,0,0,3.72-.46c-.07-3.25.11-6.5-.12-9.74-.15-2.13,0-4.26-.12-6.4-.13-1.89-.18-3.8-.28-5.69-.12-2.31-.29-4.61-.43-6.91s-.22-4.38-.39-6.57c-.19-2.34-.27-4.7-.41-7-.11-1.92-.17-3.85-.28-5.77l-.27-4.81c-.18-2.93-.31-5.87-.42-8.81-.05-1.48,0-3,0-4.44a1.91,1.91,0,0,1,.1-.67c.08-.19.15-.34.38-.29s.24.28.19.45a8.7,8.7,0,0,0-.11,2.44c0,1.13,0,2.26.1,3.4.11,1.75.2,3.52.28,5.28q.19,3.8.41,7.59c.1,1.79.2,3.57.27,5.36.1,2.62.28,5.24.42,7.86.12,2.24.27,4.47.4,6.7s.25,4.52.42,6.77c.16,2,.21,4,.25,6,.05,2.36.19,4.72.18,7.08C188.94,167.71,189,170.42,189,173.13ZM175.32,140c.39-.63,1-.28,1.45-.2s.4.57.44,1c.14,1.14-.49,2.33.27,3.42.22.2.15.46.15.7v5a1.11,1.11,0,0,0,.6.05l2.76-.11c.24,0,.52,0,.55.34.09,1,.25,2.07.26,3.11a24.09,24.09,0,0,0,.18,2.55c.23,1.74.37,3.49.57,5.24s.21,3.3.51,4.93c.16.84.07.93-.83,1l-.54.05c-2.21.2-4.42.38-6.62.61a13.39,13.39,0,0,0-1.82.16c-1.08.27-2.2.2-3.28.4-.24,0-.38,0-.38-.31,0-1.53-.29-3-.41-4.54-.14-1.88-.3-3.75-.46-5.63-.17-2.08-.38-4.17-.63-6.25-.11-.93-.06-.93.86-1,1.59-.09,3.18-.19,4.76-.3.24,0,.57.06.52-.41a45.56,45.56,0,0,1-.07-4.82,1.65,1.65,0,0,1,.69-1.4c.19-.14.43-.28.29-.59s0-.85,0-1.28A3.34,3.34,0,0,1,175.32,140Z"/><path class="cls-5" d="M141.07,79.53c.27.3.57.16.84,0,1.38-.68,2.81-1.25,4.22-1.86a1.17,1.17,0,0,1,.52,0,6.7,6.7,0,0,1,1.46-1.92,12.72,12.72,0,0,1,4.26-3.15l.06-4.37V67a1.33,1.33,0,0,0-.26-.21,13.72,13.72,0,0,1-5.31-5.53,24.8,24.8,0,0,1-1.52-19.53,19,19,0,0,1,7.83-10.53,35.11,35.11,0,0,0,4.22-2.9,90.21,90.21,0,0,0,7.17,6.36c2.74,2.28,5.64,4.38,8.17,6.89a4.11,4.11,0,0,0,3.68,1.5,3.31,3.31,0,0,1,3.3,1.86,6.53,6.53,0,0,1-.76,7.37,4,4,0,0,1-4,1.51c-.32-.08-.38.14-.42.38-.08.47-.13.94-.22,1.41a20,20,0,0,1-3.09,7v.18c0,.77.12,1.54.14,2.31.07,2.36.12,4.71.18,7.07a.88.88,0,0,0,.56.31,8.07,8.07,0,0,1,2.44,1,21.19,21.19,0,0,1,3.95,3.62A47.62,47.62,0,0,0,184.17,80a.61.61,0,0,0,.82-.14h0a.12.12,0,0,1,.14-.12,18.91,18.91,0,0,0,3.37-7.56,43.74,43.74,0,0,0,.34-6.86c0-3.46-.27-6.9-.57-10.34-.25-2.8-.76-5.56-1.23-8.33A55.61,55.61,0,0,0,184.15,36,31.38,31.38,0,0,0,179.71,28a20.22,20.22,0,0,0-9.42-6.53,25.77,25.77,0,0,0-11-1.35,19.77,19.77,0,0,0-11.18,4.17,22.74,22.74,0,0,0-6.66,9.65,30,30,0,0,0-2,10.93c-.05,3.31,0,6.63-.16,10-.15,2.42-.42,4.83-.6,7.25-.34,4.38-.49,8.75.6,13.06a16.44,16.44,0,0,0,1.51,4l.08.11Z"/><path class="cls-4" d="M112.67,128.07c-.07.06-.19.11-.2.17-.32,1.79-1.4,3.28-2,5a27.09,27.09,0,0,0-1.64,4.87c-.25,1.83-.8,3.66-.5,5.51a16.17,16.17,0,0,0,1.84,5.81c1.78,3.06,4.62,4.64,7.77,5.75a13.34,13.34,0,0,0,4.23,1.1c.27,0,.41.26.62.39,0-.24.13-.17.26-.16.65.05,1.3.15,2,.15,4.17,0,8.35.14,12.52-.12a3.1,3.1,0,0,0,2.13-.85l.31-1c-.14-.15-.18,0-.26.08a1.86,1.86,0,0,1-2.49-.58c-.42-.15-.54-.53-.68-.88a16,16,0,0,1-.94-3.17,13,13,0,0,1-.28-2.57.19.19,0,0,1,0-.13,4.25,4.25,0,0,1-.24-1.5v-.17a15.77,15.77,0,0,1,0-2.28,2.41,2.41,0,0,1,1-1.82l-2.94-.12-2.22-.2c.7-.25,1.41.17,2.08-.2-.1-.63-.18-1.26-.32-1.87-.08-.36,0-.44.36-.43.64,0,1.27,0,1.91,0,.31,0,.41-.12.32-.42a4.52,4.52,0,0,1-.11-.53c-.21-1.5-.21-1.5-1.72-1.48h-.34c-1,0-1,0-1.21-1-.34-1.81-.34-1.79-2.18-1.79-.44,0-.43.18-.37.48.1.47.19.94.28,1.4.17.88.17.84-.74,1-.59.08-1.42-.27-1.69.22s.07,1.18.12,1.79c0,.35.17.52.56.49.59,0,1.18,0,1.77,0,.28,0,.62,0,.63.37,0,.67.32,1.28.32,2-1.4-.23-2.8-.31-4.16-.64a48.26,48.26,0,0,1-6.62-1.46c-1.39-.36-2.74-.83-4.12-1.25,0,.21-.13.34-.37.26-.66-.22-1.32-.43-2-.67a.35.35,0,0,1-.2-.54l2.39.7a3.69,3.69,0,0,0-.08-.46q-.7-2.4-1.42-4.78C113.6,131,113.25,129.48,112.67,128.07Z"/><path class="cls-4" d="M140.86,79.14l-.08-.11A.76.76,0,0,0,140.86,79.14Z"/><path class="cls-4" d="M185.13,79.7a.12.12,0,0,0-.14.12Z"/><path class="cls-4" d="M134.94,176l.07-.21Z"/><path class="cls-6" d="M159.49,174.9c.2-.36,0-.71,0-1.06-.18-2.8-.35-5.6-.43-8.41,0-.9-.12-1.81-.09-2.71.07-2.59-.24-5.17-.14-7.76.17-4.66,0-9.32.16-14,.09-2.86,0-5.72.12-8.58.23-4.15,0-8.31.13-12.46,0-1.54.16-3.08.27-4.61,0-.48.43-.79.69-1.14,1.65-2.16,3.32-4.3,5.06-6.38,1.21-1.44,2.34-2.94,3.53-4.39s2.57-3.1,3.87-4.63,2.65-3.1,4-4.64A15.66,15.66,0,0,0,177.71,93c.3-.46.19-.65-.29-.86a17.73,17.73,0,0,1-3.31-1.74,1.15,1.15,0,0,1-.49-.51l5-1.27.39-.12c.23-.09.41-.25.32-.51s-.37-.1-.51,0c-1.61.47-3.23.88-4.86,1.26a2.83,2.83,0,0,1-.4.08c-.27,0-.63,0-.69.3a.92.92,0,0,0,.44.92,17.52,17.52,0,0,0,3.41,2c.39.18.49.26.15.63-2.8,3-5.43,6.12-8,9.32-2.95,3.67-5.93,7.31-8.89,11-.26.32-.48.65-.78,1-.62-1.08-1.24-2.08-1.79-3.11-1.1-2.06-2.21-4.11-3.22-6.21-.74-1.53-1.56-3-2.15-4.63a1.35,1.35,0,0,0-.18-.36c-.11-.14-.22-.34-.44-.23a.37.37,0,0,0-.15.48,9.71,9.71,0,0,0,.41,1c2.23,4.57,4.35,9.19,7,13.53a.9.9,0,0,1,.17.58c-.51,4.07-.18,8.16-.27,12.24-.07,3.16-.06,6.32-.18,9.47-.11,3,0,6-.1,9-.21,5.12-.15,10.24-.11,15.36,0,2.68.2,5.35.27,8,.05,1.8.26,3.61.39,5.41Z"/><path class="cls-6" d="M189,173.13c0-2.71,0-5.42,0-8.12,0-2.36-.13-4.72-.18-7.08,0-2-.09-4-.25-6-.17-2.25-.28-4.51-.42-6.77s-.28-4.46-.4-6.7c-.14-2.62-.32-5.24-.42-7.86-.07-1.79-.17-3.57-.27-5.36q-.21-3.8-.41-7.59c-.08-1.76-.17-3.53-.28-5.28-.08-1.14-.1-2.27-.1-3.4a8.7,8.7,0,0,1,.11-2.44c0-.17.06-.39-.19-.45s-.3.1-.38.29a1.91,1.91,0,0,0-.1.67c0,1.48,0,3,0,4.44.11,2.94.24,5.88.42,8.81l.27,4.81c.11,1.92.17,3.85.28,5.77.14,2.34.22,4.7.41,7,.17,2.19.27,4.38.39,6.57s.31,4.6.43,6.91c.1,1.89.15,3.8.28,5.69.14,2.14,0,4.27.12,6.4.23,3.24.05,6.49.12,9.74C188.6,173.34,188.78,173.25,189,173.13Z"/><path class="cls-3" d="M149,132.74a22.72,22.72,0,0,0-7.11,2.74,12,12,0,0,0-4.09,3.59,7.22,7.22,0,0,0-1.22,2.18.4.4,0,0,1-.48.36,2.41,2.41,0,0,0-1,1.82,4.75,4.75,0,0,1,0,2.28v.17c.5.43.12,1,.24,1.5a.19.19,0,0,0,0,.13,5,5,0,0,1,.28,2.57,16,16,0,0,0,.94,3.17c.14.35.26.73.68.88l3-.06a49.31,49.31,0,0,0,5.92-.72c2.65-.51,5.28-1.1,7.35-3h0a.05.05,0,0,1,.06,0l.13-.1v0l.16-.23a6.32,6.32,0,0,0,1.71-2.23,3.45,3.45,0,0,0,0-3.07c-.16,0-.21-.13-.21-.28h0a.26.26,0,0,1-.14-.28h0c-.43,0-.58.48-.89.69-.14.09-.28.21-.42,0a.28.28,0,0,1,.05-.42l1.09-1,0-.15c-.1-.05-.09-.1,0-.13h0l.14-.15h0a6.21,6.21,0,0,0,0-2.61h0A.39.39,0,0,1,155,140h0l-.15-.14h0c-.22,0-.28.19-.41.31a5.57,5.57,0,0,1-1,1c-.19.11-.4.16-.54-.05s.1-.29.23-.41c1-.91,1.92-1.86,1.47-3.4h0c-.15-.05-.14-.17-.14-.29h0l-.14-.14h0l-.15-.15h0c-.12,0-.23,0-.28-.15h0l-.15-.14h0c-.12,0-.23,0-.28-.14h0c-.26,0-.39.14-.53.34-.34.5-.7,1-1.07,1.47-.09.12-.22.28-.39.16s-.09-.3,0-.44c.27-.41.53-.83.84-1.22s.49-.67,1-.56c.07-1.57-.35-2.14-1.73-2.49-.47-.13-.72,0-.85.44a.46.46,0,0,1-.21.41c-.7.48-1.2,1.18-1.85,1.69a4.16,4.16,0,0,1-2.93.9c-.21,0-.43-.07-.43-.33s.26-.23.42-.21c2.2.19,3.32-1.42,4.61-2.75h0a.26.26,0,0,1-.14-.28h0l-.14-.14h0c-.13-.06-.3-.08-.14-.28A1,1,0,0,0,149,132.74Z"/><path class="cls-2" d="M152.71,79.84c.43,3.07,1,6.11,1.63,9.15.41,2.1.8,4.21,1.24,6.3.54,2.58,1.12,5.15,1.65,7.73.64,3,1.32,6,2.1,9,.09.34.2.69.35,1.18.38-1,.74-1.77,1-2.61,2.07-6,4.08-12,5.9-18,1.37-4.55,2.65-9.11,3.76-13.73-.28.12-.42.42-.74.52-1,.32-2.06.71-3.09,1.06a22.9,22.9,0,0,1-7,1.24,14.51,14.51,0,0,1-5.51-1A2.59,2.59,0,0,1,152.71,79.84Z"/><path class="cls-7" d="M175.14,143c.14.31-.1.45-.29.59a1.65,1.65,0,0,0-.69,1.4,45.56,45.56,0,0,0,.07,4.82c.05.47-.28.4-.52.41-1.58.11-3.17.21-4.76.3-.92,0-1,0-.86,1,.25,2.08.46,4.17.63,6.25.16,1.88.32,3.75.46,5.63.12,1.51.41,3,.41,4.54,0,.29.14.35.38.31,1.08-.2,2.2-.13,3.28-.4a13.39,13.39,0,0,1,1.82-.16c2.2-.23,4.41-.41,6.62-.61l.54-.05c.9-.06,1-.15.83-1-.3-1.63-.33-3.29-.51-4.93s-.34-3.5-.57-5.24a24.09,24.09,0,0,1-.18-2.55c0-1-.17-2.07-.26-3.11,0-.37-.31-.34-.55-.34l-2.76.11a1.11,1.11,0,0,1-.6-.05c-.26.61-.81.39-1.26.46s-.57,0-.56-.48c0-1.22,0-2.45,0-3.68a3.83,3.83,0,0,0,0-1.48c-.29-.66.22-.75.51-.78a4,4,0,0,1,1.2.24c-.76-1.09-.13-2.28-.27-3.42,0-.39-.07-.9-.44-1s-1.06-.43-1.45.2c0,.77,0,1.54,0,2.31C175.29,142.55,175.42,142.83,175.14,143Zm-.8,4.28h0c0-.79,0-1.58,0-2.37,0-.2-.14-.59.32-.45s.92-.28.93.43c0,1.75,0,3.49,0,5.23,0,.16,0,.31-.24.31a1,1,0,0,1-1-1Z"/><path class="cls-3" d="M152.71,79.84a2.59,2.59,0,0,0,1.33.81,14.51,14.51,0,0,0,5.51,1,22.9,22.9,0,0,0,7-1.24c1-.35,2-.74,3.09-1.06.32-.1.46-.4.74-.52.48-1.92.86-3.87,1.19-5.83a2.19,2.19,0,0,1-.06-.88c-.06-2.36-.11-4.71-.18-7.07,0-.77-.09-1.54-.14-2.31-.14.17-.19.39-.33.58a17,17,0,0,1-6.58,5.25c-2.82,1.31-5.71,1.74-8.66.39-1-.45-2-.92-3-1.39l-.15.59-.06,4.37V74l0,.14a5.35,5.35,0,0,1,0,2.42,4.35,4.35,0,0,0,.25,2,1,1,0,0,1,0,1Z"/><path class="cls-7" d="M171.5,72.17a2.19,2.19,0,0,0,.06.88l4,3,.16.14h0c.12,0,.26,0,.18.17a.09.09,0,0,0,.06.06c.23-.09.29,0,.23.22l0,0c.3-.08.33.11.32.33h0a.21.21,0,0,1,.15.21l1.17,2a10.32,10.32,0,0,1,1.43,4.64h0c.12.06.14.16.16.28.22,1.24.32,2.5.44,3.76a45.06,45.06,0,0,1-.24,8.61c-.14,1.43-.33,2.86-.47,4.3s-.21,2.84-.39,4.25c-.07.59.35.49.62.58s.58,0,.58-.42a31.74,31.74,0,0,1,.3-4.13c.08-.64-.09-1.35.36-1.93,0-.22.13-.46-.08-.65h0l.17-.17c-.18-.09-.17-.22-.15-.4.17-1.79.39-3.59.47-5.39a38.76,38.76,0,0,0-.49-8.4,20.1,20.1,0,0,0-1.44-5,2.06,2.06,0,0,1-.3-1.22v0c-.45,0-.25-.3-.3-.49h0l-.07,0,0,0,0-.15a21.19,21.19,0,0,0-3.95-3.62,8.07,8.07,0,0,0-2.44-1A.88.88,0,0,1,171.5,72.17Z"/><path class="cls-6" d="M178.81,115a4,4,0,0,0,4.31-2.28,4.44,4.44,0,0,0-.41-5,2.56,2.56,0,0,0-1.12-1l-.06.09-.09-.1h0c-.12,0-.24,0-.29-.15h0c-.12,0-.24,0-.29-.15l0,0a7.21,7.21,0,0,0-3.36-.14h0a1.15,1.15,0,0,1-.9.42h0c0,.11,0,.14-.14.15v0l-.06.11-.08-.09a2.59,2.59,0,0,0-1,1c0,.08,0,.19-.14.21h0c0,.11.05.27-.15.29v0c0,.11.06.27-.14.29h0a6.82,6.82,0,0,0-.14,3s-.07.09-.12.14a3.7,3.7,0,0,0,1.93,2.6l.07-.08,0,.1h0c.1,0,.25,0,.28.15h0c.16,0,.34-.07.43.15l0,0C177.94,114.68,178.45,114.6,178.81,115Zm2.55-6,0,0,.13.22,0,.06a2.83,2.83,0,0,1-.16,2.8l0,0-.08.13,0,0-.21.23a.07.07,0,0,1-.07,0,.12.12,0,0,1-.09.08.08.08,0,0,1-.05.05,2.54,2.54,0,0,1-2.7.4l0,0-.13-.06a1.38,1.38,0,0,1-.9-.73l-.13-.19,0,0-.18-.3a.07.07,0,0,1,0-.09,2.68,2.68,0,0,1,0-2.39l0,0,.13-.23,0,0,.14-.18a2.62,2.62,0,0,1,4.29.12Z"/><path class="cls-6" d="M146.24,122.8a19.13,19.13,0,0,1,1.2-3.3,39,39,0,0,0,2-7.59,54.94,54.94,0,0,0,.53-9.59,1.21,1.21,0,0,0-.14-.79c-.33,0-.7.3-1-.12h0l-.24,0c-.08,2.11.05,4.21-.12,6.32-.14,1.78-.35,3.55-.65,5.3a45.46,45.46,0,0,1-2.13,7.78C146,121.41,145.94,122.16,146.24,122.8Z"/><path class="cls-6" d="M177.48,144.19a4,4,0,0,0-1.2-.24c-.29,0-.8.12-.51.78a3.83,3.83,0,0,1,0,1.48c0,1.23,0,2.46,0,3.68,0,.47.18.54.56.48s1,.15,1.26-.46v-5C177.63,144.65,177.7,144.39,177.48,144.19Z"/><path class="cls-6" d="M146.26,122.94a5.4,5.4,0,0,0,.29,1.37,14,14,0,0,0,3.94-2.19,1.15,1.15,0,0,1-.63-1.09,13.65,13.65,0,0,0-2.45,1.36A5.06,5.06,0,0,1,146.26,122.94Z"/><path class="cls-6" d="M146.21,92.82c.68,0,1.08-.56,1.57-.89a13.74,13.74,0,0,1,1.68-1c.25-.12.5-.27.45-.6s-.32-.34-.57-.39a30.39,30.39,0,0,1-3.4-.53,7.67,7.67,0,0,0-1.05-.26c-.18,0-.45-.11-.52.17s.17.34.38.38c.82.18,1.63.36,2.45.52a12.1,12.1,0,0,0,1.21.14c.13,0,.31,0,.35.13s-.15.25-.29.32a13.88,13.88,0,0,0-2.3,1.56.43.43,0,0,0-.21.33C146,92.79,146.11,92.8,146.21,92.82Z"/><path class="cls-2" d="M150.35,133.71c-1.29,1.33-2.41,2.94-4.61,2.75-.16,0-.41-.06-.42.21s.22.32.43.33a4.16,4.16,0,0,0,2.93-.9c.65-.51,1.15-1.21,1.85-1.69a.46.46,0,0,0,.21-.41C150.53,134,150.54,133.72,150.35,133.71Z"/><path class="cls-2" d="M154.57,137.26c.45,1.54-.47,2.49-1.47,3.4-.13.12-.37.18-.23.41s.35.16.54.05a5.57,5.57,0,0,0,1-1c.13-.12.19-.31.41-.31a1.34,1.34,0,0,1-.08-1.16A1.3,1.3,0,0,0,154.57,137.26Z"/><path class="cls-2" d="M153.32,136.05c-.5-.11-.75.25-1,.56s-.57.81-.84,1.22c-.08.14-.14.33,0,.44s.3,0,.39-.16c.37-.48.73-1,1.07-1.47.14-.2.27-.36.53-.34Z"/><path class="cls-2" d="M155.09,143.42l-1.09,1a.28.28,0,0,0-.05.42c.14.17.28.05.42,0,.31-.21.46-.64.89-.69C155.36,143.82,155.13,143.64,155.09,143.42Z"/><path class="cls-7" d="M179.39,105.75a.19.19,0,0,0-.13,0c.13.44-.24.29-.39.3a3.27,3.27,0,0,0-1.32.26,7.21,7.21,0,0,1,3.36.14,2.11,2.11,0,0,0-1.31-.39C179.46,106,179.12,106.09,179.39,105.75Z"/><path class="cls-2" d="M155.26,140.4a6.21,6.21,0,0,1,0,2.61A2.34,2.34,0,0,0,155.26,140.4Z"/><path class="cls-7" d="M146.67,163a7,7,0,0,0-2.14-.11c-.66,0-1.32,0-2,0A37.61,37.61,0,0,0,146.67,163Z"/><path class="cls-7" d="M174.77,111.73s.13-.1.12-.14a6.82,6.82,0,0,1,.14-3A5.28,5.28,0,0,0,174.77,111.73Z"/><path class="cls-2" d="M152.4,76.54a5.35,5.35,0,0,0,0-2.42C152.41,74.92,152.4,75.73,152.4,76.54Z"/><path class="cls-7" d="M176.66,106.71a1.15,1.15,0,0,0,.9-.42A2.56,2.56,0,0,0,176.66,106.71Z"/><path class="cls-2" d="M152.68,79.54a1,1,0,0,0,0-1A2.86,2.86,0,0,0,152.68,79.54Z"/><path class="cls-2" d="M155,140a.39.39,0,0,0,.28.42C155.27,140.2,155.13,140.09,155,140Z"/><path class="cls-7" d="M177.5,114.63c-.09-.22-.27-.14-.43-.15Z"/><path class="cls-2" d="M149.94,133c-.16.2,0,.22.14.28C150.16,133.15,150,133.09,149.94,133Z"/><path class="cls-7" d="M177.08,114.49c0-.18-.18-.12-.28-.15Z"/><path class="cls-2" d="M155.39,144.35c0,.15.05.26.21.28C155.54,144.53,155.56,144.37,155.39,144.35Z"/><path class="cls-2" d="M155.26,144.08a.26.26,0,0,0,.14.28C155.42,144.23,155.46,144.1,155.26,144.08Z"/><path class="cls-2" d="M154.44,137c0,.12,0,.24.14.29A.32.32,0,0,0,154.44,137Z"/><path class="cls-2" d="M153.89,136.57c.05.14.16.14.28.15C154.1,136.62,154,136.53,153.89,136.57Z"/><path class="cls-2" d="M153.48,136.3c.05.14.16.14.28.14C153.71,136.31,153.6,136.29,153.48,136.3Z"/><path class="cls-2" d="M150.21,133.44a.26.26,0,0,0,.14.28C150.4,133.58,150.38,133.47,150.21,133.44Z"/><path class="cls-7" d="M180.89,106.42c.05.15.17.16.29.15C181.12,106.45,181,106.45,180.89,106.42Z"/><path class="cls-7" d="M181.16,106.56c.05.16.17.15.29.15Z"/><path class="cls-7" d="M175,108.62c.2,0,.12-.18.14-.29Z"/><path class="cls-7" d="M175.16,108.35c.2,0,.13-.18.15-.29Z"/><path class="cls-7" d="M175.3,108.07c.12,0,.11-.13.14-.21Z"/><path class="cls-7" d="M176.4,106.85l.08.09.06-.11Z"/><path class="cls-7" d="M176.53,106.85c.09,0,.16,0,.14-.15Z"/><path class="cls-7" d="M181.44,106.7l.09.1.06-.09Z"/><path class="cls-2" d="M150.07,133.3l.14.14C150.22,133.34,150.21,133.26,150.07,133.3Z"/><path class="cls-2" d="M153.75,136.44l.15.14C153.91,136.47,153.84,136.45,153.75,136.44Z"/><path class="cls-2" d="M154.16,136.71l.15.15Z"/><path class="cls-2" d="M154.3,136.85l.14.14Z"/><path class="cls-2" d="M154.84,139.85l.15.14A.14.14,0,0,0,154.84,139.85Z"/><path class="cls-2" d="M155.26,143l-.14.15C155.23,143.17,155.25,143.09,155.26,143Z"/><path class="cls-2" d="M155.13,143.14c-.11,0-.12.08,0,.13a.32.32,0,0,0,0-.09S155.13,143.15,155.13,143.14Z"/><path class="cls-7" d="M176.81,114.35l0-.1-.07.08h.06Z"/><path class="cls-6" d="M107.09,81.48c0-2.3,0-4.59,0-6.89,0-.44-.09-.65-.6-.64q-3.56,0-7.12,0c-.54,0-.79.15-.76.73.28,4.62.09,9.25.14,13.88,0,.42.14.55.55.55q3.51,0,7,0c.58,0,.78-.24.77-.82C107.07,86,107.09,83.75,107.09,81.48Z"/><path class="cls-6" d="M126.93,52.26c-1.18,0-2.36,0-3.54,0-.53,0-.74.24-.73.66a29.11,29.11,0,0,0,.09,4.28,3.84,3.84,0,0,1,0,.68c0,3,0,5.9,0,8.86,0,.53.15.7.7.69,2.05,0,4.11,0,6.17,0a11,11,0,0,0,1.14-.13c.28,0,.34-.19.33-.41-.07-1.84.1-3.67-.1-5.51a18.89,18.89,0,0,1,.06-2.6c0-.63,0-1.25,0-1.87,0-1.28,0-2.55,0-3.82,0-.6-.12-.85-.78-.81C129.2,52.3,128.06,52.26,126.93,52.26Z"/><path class="cls-6" d="M98.76,59.77c0,2.27,0,4.54,0,6.81,0,.61.15.85.8.84,2.3,0,4.59,0,6.89,0,.5,0,.66-.14.66-.65q0-6.93,0-13.84c0-.57-.2-.68-.71-.68q-3.47,0-7,0c-.55,0-.69.17-.69.7C98.78,55.22,98.76,57.49,98.76,59.77Z"/><path class="cls-6" d="M126.86,74c-1.2,0-2.41,0-3.61,0-.49,0-.62.16-.62.62,0,2.12-.1,4.24,0,6.34.16,2.46.06,4.9.09,7.35,0,.58.18.73.74.72,2.25,0,4.5,0,6.75,0,.7,0,.87-.32.85-.89-.06-1.41,0-2.81-.09-4.22a30.48,30.48,0,0,1,.05-4.68c.14-1.61,0-3.23,0-4.84,0-.42-.28-.39-.56-.39Z"/><path class="cls-6" d="M110.77,62.91c0,1.55,0,2.69,0,3.82,0,.5.17.69.68.69,2.11,0,4.22,0,6.34,0,.2,0,.4-.09.6-.09.54,0,.6-.29.59-.74,0-1.47-.06-2.95,0-4.43.12-3,.12-6,.12-9,0-.93,0-.91-1-.93-2.27,0-4.54.25-6.8.13-.47,0-.59.17-.57.6.07,1.65,0,3.31.1,5S110.69,61.53,110.77,62.91Z"/><path class="cls-6" d="M110.77,81.5c0,2.28,0,4.55,0,6.82,0,.51.15.67.66.66,2.27,0,4.55,0,6.82,0,.56,0,.74-.14.73-.72,0-2.24-.07-4.49,0-6.74s.1-4.47.13-6.7c0-.63-.15-.89-.84-.88-2.2,0-4.41,0-6.61,0-.89,0-.89,0-.89.86Z"/><path class="cls-6" d="M107.09,103.15c0-2.22,0-4.45,0-6.67,0-.52-.12-.73-.68-.71-1,0-2,0-3.07,0-1.26,0-2.53-.07-3.79-.13-.58,0-.81.14-.81.76,0,4.09,0,8.17,0,12.26,0,.5.1,1,.13,1.48,0,.31.18.38.44.38,2.43,0,4.86,0,7.29,0,.5,0,.46-.3.46-.63Z"/><path class="cls-6" d="M119,105.6c.23-3,.09-6,.15-9,0-.59-.13-.79-.75-.78-2.28,0-4.55,0-6.82,0-.61,0-.81.2-.78.79.08,1.33.13,2.69.09,4-.06,1.9,0,3.81-.07,5.71,0,.68.08,1.35.13,2,2,.19,4.1.19,6.16.18-.31-.91-.62-1.82.33-2.57A4.45,4.45,0,0,1,119,105.6Z"/><path class="cls-3" d="M117.4,105.93c-1,.75-.64,1.66-.33,2.57l.57,2.32a.61.61,0,0,0,.77.5,9.39,9.39,0,0,1,1.19-.08,9.47,9.47,0,0,1,3.48-.09c.31,0,.63.1.92-.11a8.31,8.31,0,0,1,2.9,0,2,2,0,0,0,.9-.08,9.15,9.15,0,0,1,3.34,0h.16c.06-.22.11-.44.16-.67a10,10,0,0,1-.23-1.55c0-.1-.08-.21-.11-.31l-.06-.22c-.37-.24-.41-.64-.51-1h0c-.17,0-.22-.12-.15-.28h0c-.12,0-.17,0-.14-.14h0c-.51,0-.92-.33-1.42-.37-2.07-.14-4.14-.35-6.22-.4A41.64,41.64,0,0,0,117.4,105.93Z"/><path class="cls-6" d="M124.81,105.79a98.94,98.94,0,0,1,2.93-9.68c.12-.35,0-.46-.32-.46H123.2c-.53,0-.42.37-.42.67q0,4.29,0,8.59c0,.34,0,.7-.43.79A15.57,15.57,0,0,0,124.81,105.79Z"/><path class="cls-6" d="M136.28,108.16l1.24-.11c-.08-1.71-.19-3.42-.14-5.14h-.08l0,0a.57.57,0,0,1-.73,0h0c-.35,0-.36-.29-.49-.48,0,.22-.08.45.13.62a12.45,12.45,0,0,1,0,3A8.33,8.33,0,0,0,136.28,108.16Z"/><path class="cls-7" d="M124.81,105.79a15.57,15.57,0,0,1-2.46-.09,32,32,0,0,1-3.39-.1,4.45,4.45,0,0,0-1.56.33,41.64,41.64,0,0,1,5.24,0c2.08,0,4.15.26,6.22.4.5,0,.91.39,1.42.37a1.34,1.34,0,0,0-1.11-.49,18.11,18.11,0,0,0-2.55-.18A5.58,5.58,0,0,1,124.81,105.79Z"/><path class="cls-7" d="M136.18,106.1a12.45,12.45,0,0,0,0-3C136.17,104.07,136.18,105.09,136.18,106.1Z"/><path class="cls-7" d="M130.55,107.11c.1.38.14.78.51,1C130.92,107.78,131,107.3,130.55,107.11Z"/><path class="cls-6" d="M134.93,108.29a.86.86,0,0,0,.61-.07C135.33,108.22,135.12,108.15,134.93,108.29Z"/><path class="cls-6" d="M131.38,108.29h.4A.28.28,0,0,0,131.38,108.29Z"/><path class="cls-7" d="M130.41,106.84c-.07.16,0,.25.15.28A.28.28,0,0,0,130.41,106.84Z"/><path class="cls-7" d="M130.28,106.71c0,.12,0,.16.14.14Z"/><path class="cls-3" d="M171.19,62.61a20,20,0,0,0,3.09-7c.09-.47.14-.94.22-1.41,0-.24.1-.46.42-.38a4,4,0,0,0,4-1.51,6.53,6.53,0,0,0,.76-7.37,3.31,3.31,0,0,0-3.3-1.86,4.11,4.11,0,0,1-3.68-1.5c-2.53-2.51-5.43-4.61-8.17-6.89a90.21,90.21,0,0,1-7.17-6.36,35.11,35.11,0,0,1-4.22,2.9,19,19,0,0,0-7.83,10.53,24.8,24.8,0,0,0,1.52,19.53,13.72,13.72,0,0,0,5.31,5.53,1.33,1.33,0,0,1,.26.21l2.77,1.28a8.91,8.91,0,0,0,6.05.81,16.3,16.3,0,0,0,9.26-6.16C170.68,62.7,170.79,62.36,171.19,62.61Zm-6.19-23a8.54,8.54,0,0,1,4.11,1.11c.41.27.8.63.53,1.18s-.75.47-1.22.25a9.57,9.57,0,0,0-5.39-.61c-.58.08-.92-.13-1-.59s.26-.76.66-.9A9.27,9.27,0,0,1,165,39.58Zm-13.08,1.85c-.64.09-1.27,0-1.91.17a15.73,15.73,0,0,0-1.81.54.7.7,0,0,1-.9-.28c-.24-.36-.07-.64.2-.89a4.24,4.24,0,0,1,.52-.43,4.45,4.45,0,0,1,2.24-.79,8.15,8.15,0,0,1,3.83.28c.34.13.77.27.65.8a1,1,0,0,1-1.14.75C153,41.43,152.47,41.54,151.92,41.43Zm7.25,13.75a3.3,3.3,0,0,1-3.38-.4,2.2,2.2,0,0,1-.78-2.55,15.31,15.31,0,0,1,.63-1.44,10.24,10.24,0,0,0,1.51-5.36c0-.16,0-.36.19-.38s.21.18.25.34a4.83,4.83,0,0,1-.13,2.61,39.33,39.33,0,0,1-1.73,4.14,1.74,1.74,0,0,0,.94,2.48A11.82,11.82,0,0,0,159.17,55.18Zm-9.39-8.73A2.16,2.16,0,0,1,150,45.2a1,1,0,0,1,1-.63,1.14,1.14,0,0,1,1.09.68,2.52,2.52,0,0,1-.1,2.3,1.19,1.19,0,0,1-1.14.72c-.54-.05-.77-.47-.94-1A3.23,3.23,0,0,1,149.78,46.45Zm14.32.22a2.87,2.87,0,0,1,.24-1.6c.42-.71.9-.75,1.49-.2a2.48,2.48,0,0,1-.08,3.06.87.87,0,0,1-1.43-.22A2.08,2.08,0,0,1,164.1,46.67Zm-5.85,13.66a6.67,6.67,0,0,1-3.68-.93c-.17-.09-.52-.2-.37-.47s.41,0,.59.06a7,7,0,0,0,7.36-.28c.17-.09.39-.3.54-.07s-.1.39-.3.49A7.9,7.9,0,0,1,158.25,60.33Z"/><path class="cls-2" d="M171.19,62.61c-.4-.25-.51.09-.68.31a16.3,16.3,0,0,1-9.26,6.16,8.91,8.91,0,0,1-6.05-.81L152.43,67v1.22l.15-.59c1,.47,2,.94,3,1.39,2.95,1.35,5.84.92,8.66-.39a17,17,0,0,0,6.58-5.25c.14-.19.19-.41.33-.58Z"/><path class="cls-7" d="M153.51,150.33c-2.07,1.92-4.7,2.51-7.35,3a49.31,49.31,0,0,1-5.92.72l-.25.56-.31,1c0,.5-.89,1-1.53,1.11-1.19.25-2.41-.2-3.57.24a1.11,1.11,0,0,1-.41,0c-2.49,0-5,0-7.48,0a25.48,25.48,0,0,0-2.9-.13c-.31,0-.4,0-.33.46.19,1.15.63,2.24.89,3.37a9.29,9.29,0,0,0,.47,1.24l.14.14a5.26,5.26,0,0,0,1.93.29,42,42,0,0,1,4.63.1c1.07.14,2.15-.1,3.25,0,2.25.19,4.52.23,6.79.28,1.24,0,2.49-.14,3.73-.11a10.43,10.43,0,0,1,2.43.23,6.86,6.86,0,0,0,1.69-.1,58.39,58.39,0,0,1,5.91.24c1.19.14,1.79-.59,1.56-1.78a28.22,28.22,0,0,0-.9-3.51c-.77-2.43-1.54-4.87-2.12-7.36a.78.78,0,0,0-.15-.22v0c0,.08,0,.13-.13.1a.05.05,0,0,0-.06,0v0Z"/><path class="cls-2" d="M136.09,141.61a.4.4,0,0,0,.48-.36,7.22,7.22,0,0,1,1.22-2.18,9.16,9.16,0,0,0-7.68-8.18,6.23,6.23,0,0,0-3.4.78,1.2,1.2,0,0,1-.15.3c-2.42,2.06-1.8,6.1-.44,8.07a1.18,1.18,0,0,1,.32.59c1.36.33,2.76.41,4.16.64,0-.73-.3-1.34-.32-2,0-.34-.35-.37-.63-.37-.59,0-1.18,0-1.77,0-.39,0-.52-.14-.56-.49,0-.61-.36-1.35-.12-1.79s1.1-.14,1.69-.22c.91-.13.91-.09.74-1-.09-.46-.18-.93-.28-1.4-.06-.3-.07-.48.37-.48,1.84,0,1.84,0,2.18,1.79.19,1,.19,1,1.21,1h.34c1.51,0,1.51,0,1.72,1.48a4.52,4.52,0,0,0,.11.53c.09.3,0,.42-.32.42-.64,0-1.27,0-1.91,0-.32,0-.44.07-.36.43.14.61.22,1.24.32,1.87l.14.4Z"/><path class="cls-6" d="M140,154.63l.25-.56-3,.06a1.86,1.86,0,0,0,2.49.58C139.81,154.67,139.85,154.48,140,154.63Z"/><path class="cls-6" d="M115.7,137.92l-.16-.25-2.39-.7a.35.35,0,0,0,.2.54c.66.24,1.32.45,2,.67C115.57,138.26,115.67,138.13,115.7,137.92Z"/><path class="cls-6" d="M133.15,141.49l-.14-.4c-.67.37-1.38-.05-2.08.2Z"/><path class="cls-2" d="M135.62,150.08a5,5,0,0,0-.28-2.57A13,13,0,0,0,135.62,150.08Z"/><path class="cls-2" d="M135.08,145.71a4.75,4.75,0,0,0,0-2.28A15.77,15.77,0,0,0,135.08,145.71Z"/><path class="cls-2" d="M135.33,147.38c-.12-.49.26-1.07-.24-1.5A4.25,4.25,0,0,0,135.33,147.38Z"/><path class="cls-2" d="M124.43,134.84a7,7,0,0,0,.53,4.48,20.66,20.66,0,0,1-.55-3.33C124.43,135.61,124.79,135.22,124.43,134.84Z"/><path class="cls-2" d="M125,139.31l.14.42C125.11,139.57,125.15,139.4,125,139.31Z"/><path class="cls-2" d="M125.23,140l.07.24.16,0A.3.3,0,0,0,125.23,140Z"/><path class="cls-2" d="M125.09,139.72l.15.28C125.23,139.89,125.25,139.76,125.09,139.72Z"/><path class="cls-6" d="M131.14,110.89a9.15,9.15,0,0,0-3.34,0C128.91,110.85,130,111.22,131.14,110.89Z"/><path class="cls-6" d="M123.08,111.15a9.47,9.47,0,0,0-3.48.09Z"/><path class="cls-6" d="M126.9,111a8.31,8.31,0,0,0-2.9,0C125,111.14,125.93,111,126.9,111Z"/><path class="cls-6" d="M131.46,110.21c-.05.23-.1.45-.16.67C132,110.8,131.28,110.41,131.46,110.21Z"/><path class="cls-6" d="M174.34,147.28v2.18a1,1,0,0,0,1,1c.25,0,.24-.15.24-.31,0-1.74,0-3.48,0-5.23,0-.71-.6-.33-.93-.43s-.31.25-.32.45c0,.79,0,1.58,0,2.37Z"/><path class="cls-4" d="M137.38,102.91c0,1.72.06,3.43.14,5.14,1,0,2-.07,2.94-.11a1.93,1.93,0,0,1,2.26,1.73q1.44,5.51,2.87,11s0,.07.08.1A45.46,45.46,0,0,0,147.8,113c.3-1.75.51-3.52.65-5.3.17-2.11,0-4.21.12-6.32-.06-.35-.11-.7-.16-1a12,12,0,0,0-1.1-4.26h0l-.42-.55h0l-.31-.33,0,0-.23-.22a.06.06,0,0,1,0,0l-.18-.19-.13-.12-.83-.55h0c-.25-.1-.49-.21-.75-.29a3.9,3.9,0,0,0-3.28.55c-.54.57-1.42.74-1.77,1.52l-.29.41h0l-.28.42h0a8.37,8.37,0,0,0-1.06,3.73,7.25,7.25,0,0,1-.18,2.27h0Z"/><path class="cls-7" d="M177,112.26a1.38,1.38,0,0,0,.9.73l.11-.09,0,.15,0,0a14.55,14.55,0,0,0,2.7-.4.08.08,0,0,0,.05-.05c0-.1,0-.14.09-.08a.07.07,0,0,0,.07,0c-.09-.23,0-.3.21-.23l0,0c0-.09,0-.14.09-.13l0,0c-.06-.62.31-1.19.22-1.83,0-.32-.29-.64-.06-1l0-.06c-.22,0-.19-.08-.13-.22l0,0-.1,0,.08-.06a2.62,2.62,0,0,0-4.29-.12c0,.09,0,.18-.14.18l0,0c0,.12.05.24-.13.23l0,0c0,.8,0,1.6,0,2.39a.07.07,0,0,0,0,.09c.33-.06.19.16.18.3l0,0C177,112.08,177,112.17,177,112.26Z"/><path class="cls-7" d="M151.45,121.74a.62.62,0,0,1,.13-.44.68.68,0,0,0-.23-.89.74.74,0,0,0-1,0,.87.87,0,0,0-.21,1c.18.4.49.41.84.31a3.65,3.65,0,0,1,.46-.07Z"/><path class="cls-5" d="M165,39.58a9.27,9.27,0,0,0-2.35.44c-.4.14-.78.44-.66.9s.46.67,1,.59a9.57,9.57,0,0,1,5.39.61c.47.22,1,.31,1.22-.25s-.12-.91-.53-1.18A8.54,8.54,0,0,0,165,39.58Z"/><path class="cls-5" d="M151.92,41.43c.55.11,1.11,0,1.68.15a1,1,0,0,0,1.14-.75c.12-.53-.31-.67-.65-.8a8.15,8.15,0,0,0-3.83-.28,4.45,4.45,0,0,0-2.24.79,4.24,4.24,0,0,0-.52.43c-.27.25-.44.53-.2.89a.7.7,0,0,0,.9.28A15.73,15.73,0,0,1,150,41.6C150.65,41.48,151.28,41.52,151.92,41.43Z"/><path class="cls-2" d="M159.17,55.18a11.82,11.82,0,0,1-2.5-.56,1.74,1.74,0,0,1-.94-2.48A39.33,39.33,0,0,0,157.46,48a4.83,4.83,0,0,0,.13-2.61c0-.16,0-.36-.25-.34s-.2.22-.19.38a10.24,10.24,0,0,1-1.51,5.36,15.31,15.31,0,0,0-.63,1.44,2.2,2.2,0,0,0,.78,2.55A3.3,3.3,0,0,0,159.17,55.18Z"/><path class="cls-5" d="M149.78,46.45a3.23,3.23,0,0,0,.1.87c.17.48.4.9.94,1a1.19,1.19,0,0,0,1.14-.72,2.52,2.52,0,0,0,.1-2.3,1.14,1.14,0,0,0-1.09-.68,1,1,0,0,0-1,.63A2.16,2.16,0,0,0,149.78,46.45Z"/><path class="cls-5" d="M164.1,46.67a2.08,2.08,0,0,0,.22,1,.87.87,0,0,0,1.43.22,2.48,2.48,0,0,0,.08-3.06c-.59-.55-1.07-.51-1.49.2A2.87,2.87,0,0,0,164.1,46.67Z"/><path class="cls-2" d="M158.25,60.33a7.9,7.9,0,0,0,4.14-1.2c.2-.1.49-.21.3-.49s-.37,0-.54.07a7,7,0,0,1-7.36.28c-.18-.08-.44-.34-.59-.06s.2.38.37.47A6.67,6.67,0,0,0,158.25,60.33Z"/><path class="cls-7" d="M123.07,156.48c.65.05,1.3.15,2,.15,4.17,0,8.35.14,12.52-.12a3.1,3.1,0,0,0,2.13-.85c0,.5-.89,1-1.53,1.11-1.19.25-2.41-.2-3.57.24a1.11,1.11,0,0,1-.41,0c-2.49,0-5,0-7.48,0a25.48,25.48,0,0,0-2.9-.13c-.31,0-.4,0-.33.46.19,1.15.63,2.24.89,3.37a9.29,9.29,0,0,0,.47,1.24h0l.14.14h0a5.26,5.26,0,0,0,1.93.29,42,42,0,0,1,4.63.1c1.07.14,2.15-.1,3.25,0,2.25.19,4.52.23,6.79.28,1.24,0,2.49-.14,3.73-.11a10.43,10.43,0,0,1,2.43.23,6.86,6.86,0,0,0,1.69-.1,58.39,58.39,0,0,1,5.91.24c1.19.14,1.79-.59,1.56-1.78a28.22,28.22,0,0,0-.9-3.51c-.77-2.43-1.54-4.87-2.12-7.36a.78.78,0,0,0-.15-.22l.16-.23c0,.12.12.24.16.37.64,2.15,1.29,4.31,1.91,6.47a42.12,42.12,0,0,1,1.26,4.69,1.39,1.39,0,0,1-1.53,1.74l-9-.17a7,7,0,0,0-2.14-.11c-.66,0-1.32,0-2,0h-.48c-2.57.07-5.13-.25-7.7-.12l-.68,0a3.06,3.06,0,0,0-1.44-.11c-.8,0-1.59,0-2.38,0a5.24,5.24,0,0,0-1.37,0,4.07,4.07,0,0,0-1.63-.12,5.93,5.93,0,0,1-1.78-.14l-.23-.22h0l-.1-.1a2.61,2.61,0,0,1-.64-1.16c-.49-1.4-.73-2.88-1.32-4.26C122.78,156.4,122.94,156.47,123.07,156.48Z"/><path class="cls-7" d="M107.66,109.55l.09-.12v0c.32-.94.48-1.07,1.39-1.07l1.76,0c2,.19,4.1.19,6.16.18l.57,2.32h0a.61.61,0,0,0,.77.5,9.39,9.39,0,0,1,1.19-.08l3.48-.09c.31,0,.63.1.92-.11,1,.1,1.93,0,2.9,0a2,2,0,0,0,.9-.08c1.11-.09,2.23.28,3.34,0h.16c.68-.08,0-.47.16-.67a10,10,0,0,1-.23-1.55,1.55,1.55,0,0,1,.6-.18,1.55,1.55,0,0,0-.6.18c0-.1-.08-.21-.11-.31l.26-.06h.4a27.59,27.59,0,0,0,3.15,0,.86.86,0,0,0,.61-.07l.74-.06,1.24-.11c1,0,2-.07,2.94-.11a1.93,1.93,0,0,1,2.26,1.73q1.44,5.51,2.87,11s0,.07.08.1c.36.62.27,1.37.57,2l0,.14a5.4,5.4,0,0,0,.29,1.37.67.67,0,0,0,0,.2q.93,3.24,1.88,6.47a10.91,10.91,0,0,1,.56,1.76,22.72,22.72,0,0,0-7.11,2.74,12,12,0,0,0-4.09,3.59,9.16,9.16,0,0,0-7.68-8.18,6.23,6.23,0,0,0-3.4.78h0a1.2,1.2,0,0,1-.15.3c-2.42,2.06-1.8,6.1-.44,8.07a1.18,1.18,0,0,1,.32.59,48.26,48.26,0,0,1-6.62-1.46c-1.39-.36-2.74-.83-4.12-1.25l-.16-.25a3.69,3.69,0,0,0-.08-.46q-.7-2.4-1.42-4.78c-.44-1.46-.79-3-1.37-4.36a5.62,5.62,0,0,0-.33-1.2c-1.08-4.2-2.37-8.34-3.55-12.52a30.88,30.88,0,0,1-1.13-4.35Zm.36-.26a1.8,1.8,0,0,0,.17-.31A1.8,1.8,0,0,1,108,109.29Zm16.64,24.81a1.66,1.66,0,0,1,.12-.31A1.66,1.66,0,0,0,124.66,134.1Zm.58,5.89c0-.11,0-.23-.14-.27,0-.15.05-.32-.14-.41a19.5,19.5,0,0,1-.55-3.32c0-.38.38-.77,0-1.15a7,7,0,0,0,.53,4.47h0l.14.41h0l.14.27h0l.07.24.16,0A.3.3,0,0,0,125.24,140Z"/><path class="cls-7" d="M150.05,75.77a7.32,7.32,0,0,0-2.26,2.47,30.72,30.72,0,0,0-3.89,11.29h0c-.07.67-.15,1.33-.23,2,0,.22,0,.39.27.44a12.43,12.43,0,0,1,2,.71c0,.12.15.13.25.15l.19.21.17.11h0l.37.31h0l.13.12a.17.17,0,0,0,.15.15h0a.17.17,0,0,1-.15-.15h0l.15.14h0l.13.13h0l.14.15h0l.12.12h0l.15.15h0l.13.14h0l.18.18a.06.06,0,0,1,0,.06h0a7.51,7.51,0,0,1,.73,1.13,11.25,11.25,0,0,1,1,3.79,2.8,2.8,0,0,1-.11,2c-.33,0-.7.3-1-.12h0l-.24,0c-.06-.35-.11-.7-.16-1a12,12,0,0,0-1.1-4.26h0l-.41-.54h0l-.31-.33,0,0h0l-.23-.22a.06.06,0,0,1,0,0h0l-.18-.19-.13-.12h0l-.83-.55h0c-.25-.1-.49-.21-.75-.29a3.9,3.9,0,0,0-3.28.55c-.54.57-1.42.74-1.77,1.52h0l-.28.4h0l-.28.42h0a8.37,8.37,0,0,0-1.06,3.73,7.25,7.25,0,0,1-.18,2.27h0l-.15.27h-.08l0,0h0a.57.57,0,0,1-.73,0h0c-.35,0-.36-.29-.49-.48a5.58,5.58,0,0,0,.1-1.68,7.66,7.66,0,0,1,.54-3.07h0a3.94,3.94,0,0,1,.82-1.77h0a.49.49,0,0,1,0-.11A7.82,7.82,0,0,1,140.39,93l.38-.19h0a1,1,0,0,1,.55-.27h0a1,1,0,0,1,.68-.27c.05-.12.17-.11.27-.13a18.13,18.13,0,0,0,.42-2.15,32.63,32.63,0,0,1,.76-4.4,5.66,5.66,0,0,1,.46-1.5h0c0-.14,0-.31.14-.4h0a3.75,3.75,0,0,1,.4-1.09h0a2,2,0,0,1,.4-.94v0a1.13,1.13,0,0,1,.27-.67h0c0-.11,0-.22.13-.27h0c0-.11,0-.23.14-.28h0l.05-.23,1.19-2.47a6.7,6.7,0,0,1,1.46-1.92,12.72,12.72,0,0,1,4.26-3.15V74C151.53,74.49,150.85,75.22,150.05,75.77Zm-12,21.84a2.77,2.77,0,0,0-.1.26A2.77,2.77,0,0,1,138.06,97.61Zm1-1.66a.36.36,0,0,0,0,.11A.36.36,0,0,1,139.08,96Zm4.53-5.21c0-.14,0-.29,0-.43C143.6,90.45,143.61,90.6,143.61,90.74Zm3.2,4.47-.12,0Zm-.55-.47h0Zm-.51-.52a.57.57,0,0,0-.33-.16A.57.57,0,0,1,145.75,94.22Zm-2.43-.87-.33,0,.33,0a2.13,2.13,0,0,1,1.55.42A2.13,2.13,0,0,0,143.32,93.35Z"/><path class="cls-7" d="M179.4,84.07c.22,1.24.32,2.5.44,3.76a45.06,45.06,0,0,1-.24,8.61c-.14,1.43-.33,2.86-.47,4.3s-.21,2.84-.39,4.25c-.07.59.35.49.62.58s.58,0,.58-.42a31.74,31.74,0,0,1,.3-4.13c.08-.64-.09-1.35.36-1.93a4.64,4.64,0,0,1,0,.53c-.27,1.81-.36,3.64-.48,5.45,0,.55-.13.82-.72.68a.19.19,0,0,0-.13,0c-.54,0-.79-.22-.7-.82a25.62,25.62,0,0,0,.26-2.61c.08-1.8.36-3.58.54-5.37a65.45,65.45,0,0,0,.36-7.53c0-1.89-.31-3.75-.48-5.62h0c-.46-1.55-.84-3.13-1.42-4.64a10.32,10.32,0,0,1,1.43,4.64C179.36,83.85,179.38,84,179.4,84.07Z"/><path class="cls-7" d="M180.55,97.87c.17-1.79.39-3.59.47-5.39a38.76,38.76,0,0,0-.49-8.4,20.1,20.1,0,0,0-1.44-5,2.06,2.06,0,0,1-.3-1.22l.07.11a25.85,25.85,0,0,1,2.21,8.64,54.7,54.7,0,0,1-.37,11.65C180.52,98.18,180.53,98.05,180.55,97.87Z"/><path class="cls-7" d="M150.76,120.08a.92.92,0,0,1,1,.54.82.82,0,0,1-.31,1.12h0a1.43,1.43,0,0,1-1,.38,1.15,1.15,0,0,1-.63-1.09A1,1,0,0,1,150.76,120.08Zm-.61,1.41c.18.4.48.41.85.31a3.25,3.25,0,0,1,.45-.07.6.6,0,0,1,.13-.43.68.68,0,0,0-.23-.89.74.74,0,0,0-1,0A.87.87,0,0,0,150.15,121.49Z"/><path class="cls-7" d="M175.32,140c0,.77,0,1.54,0,2.31,0,.23.12.51-.16.68,0-.43,0-.85,0-1.28A3.34,3.34,0,0,1,175.32,140Z"/><path class="cls-7" d="M178.48,77.35c.18.11.22.31.3.49C178.33,77.89,178.53,77.54,178.48,77.35Z"/><path class="cls-7" d="M176.51,77a.22.22,0,0,1,.14.21L176.5,77h0l-.31-.33C176.49,76.57,176.52,76.76,176.51,77Z"/><path class="cls-7" d="M176.16,76.62l-.23-.22C176.16,76.31,176.22,76.4,176.16,76.62Z"/><path class="cls-7" d="M175.87,76.34l-.18-.17C175.81,76.16,176,76.15,175.87,76.34Z"/><path class="cls-7" d="M180.53,98.44h0Z"/><path class="cls-7" d="M178.43,77.26a.11.11,0,0,1,0,.08l-.07,0Z"/><path class="cls-7" d="M153.57,150.28l.13-.1C153.69,150.26,153.66,150.31,153.57,150.28Z"/><path class="cls-7" d="M153.51,150.32v0Z"/><path class="cls-7" d="M178.11,113.08a14.55,14.55,0,0,0,2.7-.4A2.54,2.54,0,0,1,178.11,113.08Z"/><path class="cls-7" d="M181.6,110.23c0-.32-.29-.64-.06-1a2.83,2.83,0,0,1-.16,2.8C181.32,111.44,181.69,110.87,181.6,110.23Z"/><path class="cls-7" d="M176.7,111.65a2.68,2.68,0,0,1,0-2.39C176.73,110.06,176.71,110.86,176.7,111.65Z"/><path class="cls-7" d="M176.89,112l-.18-.3C177,111.68,176.9,111.9,176.89,112Z"/><path class="cls-7" d="M181.23,112.27l-.21.23C180.93,112.27,181,112.2,181.23,112.27Z"/><path class="cls-7" d="M178.07,113.05l-.13-.06.11-.09Z"/><path class="cls-7" d="M176.76,109.23l.13-.23C176.92,109.12,176.94,109.24,176.76,109.23Z"/><path class="cls-7" d="M181.39,109l.13.22C181.3,109.24,181.33,109.12,181.39,109Z"/><path class="cls-7" d="M181.34,108.91l0,0-.1,0Z"/><path class="cls-7" d="M176.91,109l.14-.18C177,108.88,177,109,176.91,109Z"/><path class="cls-7" d="M181.35,112.09l-.09.13C181.22,112.13,181.24,112.08,181.35,112.09Z"/><path class="cls-7" d="M177,112.26l-.13-.19C177,112.08,177,112.17,177,112.26Z"/><path class="cls-7" d="M181,112.55a.12.12,0,0,1-.09.08C180.83,112.53,180.84,112.49,181,112.55Z"/><path class="cls-8" d="M110.87,58c-.1-1.66,0-3.32-.1-5,0-.43.1-.62.57-.6,2.26.12,4.53-.18,6.8-.13,1,0,1,0,1,.93,0,3,0,6-.12,9-.06,1.48,0,3,0,4.43,0,.45,0,.76-.59.74-.2,0-.4.09-.6.09-2.12,0-4.23,0-6.34,0-.51,0-.69-.19-.68-.69,0-1.13,0-2.27,0-3.82C110.69,61.53,111,59.74,110.87,58Z"/><path class="cls-8" d="M110.77,81.5V74.82c0-.86,0-.86.89-.86,2.2,0,4.41,0,6.61,0,.69,0,.85.25.84.88,0,2.23,0,4.47-.13,6.7s0,4.5,0,6.74c0,.58-.18.73-.73.72-2.27,0-4.55,0-6.82,0-.51,0-.66-.15-.66-.66C110.79,86.05,110.77,83.78,110.77,81.5Z"/><path class="cls-8" d="M122.63,74.57c0-.46.13-.63.62-.62,1.2,0,2.41,0,3.61,0h3.68c.28,0,.57,0,.56.39,0,1.61.1,3.23,0,4.84a30.48,30.48,0,0,0-.05,4.68c.09,1.41,0,2.81.09,4.22,0,.57-.15.91-.85.89-2.25,0-4.5,0-6.75,0-.56,0-.73-.14-.74-.72,0-2.45.07-4.89-.09-7.35C122.53,78.81,122.65,76.69,122.63,74.57Z"/><path class="cls-8" d="M107.66,109.55l.09-.12v0c.32-.94.48-1.07,1.39-1.07l1.76,0c0-.68-.14-1.35-.13-2,0-1.9,0-3.81.07-5.71,0-1.32,0-2.68-.09-4,0-.59.17-.8.78-.79,2.27,0,4.54,0,6.82,0,.62,0,.76.19.75.78-.06,3,.08,6-.15,9a32,32,0,0,0,3.39.1c.47-.09.43-.45.43-.79q0-4.3,0-8.59c0-.3-.11-.67.42-.67h4.22c.34,0,.44.11.32.46s-.19.52-.28.79a30.25,30.25,0,0,0-1.18,3.39l-1.6,5.46-7.23.14s-1.5.55-.27,2.59l-8.87.14s-.89.51-.41,2.62a10.44,10.44,0,0,1-.24-1.24Z"/><path class="cls-8" d="M123.39,52.25c1.18,0,2.36,0,3.54,0s2.27,0,3.4,0c.66,0,.8.21.78.81,0,1.27,0,2.54,0,3.82,0,.62,0,1.24,0,1.87a18.89,18.89,0,0,0-.06,2.6c.2,1.84,0,3.67.1,5.51,0,.22,0,.39-.33.41a11,11,0,0,1-1.14.13c-2.06,0-4.12,0-6.17,0-.55,0-.7-.16-.7-.69,0-3,0-5.91,0-8.86a3.84,3.84,0,0,0,0-.68,29.11,29.11,0,0,1-.09-4.28C122.65,52.49,122.86,52.23,123.39,52.25Z"/><path class="cls-8" d="M99.38,74q3.57,0,7.12,0c.51,0,.6.2.6.64,0,2.3,0,4.59,0,6.89s0,4.54,0,6.81c0,.58-.19.82-.77.82q-3.51,0-7,0c-.41,0-.55-.13-.55-.55-.05-4.63.14-9.26-.14-13.88C98.59,74.1,98.84,73.94,99.38,74Z"/><path class="cls-8" d="M107.1,66.77c0,.51-.16.66-.66.65-2.3,0-4.59,0-6.89,0-.65,0-.81-.23-.8-.84,0-2.27,0-4.54,0-6.81s0-4.55,0-6.82c0-.53.14-.71.69-.7q3.48,0,7,0c.51,0,.72.11.71.68Q107.07,59.85,107.1,66.77Z"/><path class="cls-8" d="M99.56,95.65c1.26.06,2.53.11,3.79.13,1,0,2.05,0,3.07,0,.56,0,.69.19.68.71,0,2.22,0,4.45,0,6.67v6.75c0,.33,0,.64-.46.63-2.43,0-4.86,0-7.29,0-.26,0-.43-.07-.44-.38,0-.49-.13-1-.13-1.48,0-4.09,0-8.17,0-12.26C98.75,95.79,99,95.61,99.56,95.65Z"/><path class="cls-4" d="M127.46,96.9A60.34,60.34,0,0,1,136.76,82a.45.45,0,0,0,.17-.11.66.66,0,0,0,.17-.12.33.33,0,0,0,.1-.06.85.85,0,0,0,.24-.09.68.68,0,0,0,.34-.11.53.53,0,0,0,.32-.07c.78-.38,1.56-.75,2.34-1.1a1,1,0,0,0,.63-.82c.27.3.57.16.84,0,1.38-.68,2.81-1.25,4.22-1.86a1.17,1.17,0,0,1,.52,0l-1.19,2.47-.05.23h0c-.14.05-.12.17-.14.28h0c-.12.05-.12.16-.13.27h0a1.13,1.13,0,0,0-.27.67v0a2,2,0,0,0-.4.94h0a3.75,3.75,0,0,0-.4,1.09h0c-.17.09-.1.26-.13.4h0a5.66,5.66,0,0,0-.46,1.5,32.63,32.63,0,0,0-.76,4.4,18.13,18.13,0,0,1-.42,2.15c-.1,0-.22,0-.27.13a1,1,0,0,0-.69.28h0a1,1,0,0,0-.56.28h0l-.38.19a7.82,7.82,0,0,0-2.86,2.85.49.49,0,0,0,0,.11h0a4,4,0,0,0-.83,1.78h0a7.66,7.66,0,0,0-.54,3.07,5.58,5.58,0,0,1-.1,1.68c0,.22-.08.45.13.62v3a8.33,8.33,0,0,0,.1,2.06l-.74.06c-.21,0-.42-.07-.61.07a27.59,27.59,0,0,1-3.15,0,.28.28,0,0,0-.4,0l-.26.06-.06-.22c-.14-.35-.05-.82-.5-1a.28.28,0,0,0-.15-.28h0l-.14-.14h0a1.34,1.34,0,0,0-1.11-.49,18.11,18.11,0,0,0-2.55-.18,5.58,5.58,0,0,1-1.81-.25C125.57,102.79,126.43,99.81,127.46,96.9Z"/><polygon class="cls-4" points="141.99 92.22 142 92.22 142 92.22 141.99 92.22"/><polygon class="cls-4" points="130.55 107.11 130.56 107.12 130.56 107.12 130.55 107.11"/><circle class="cls-7" cx="178.86" cy="110.26" r="4.23"/></svg>