<svg id="Calque_2" data-name="Calque 2" xmlns="http://www.w3.org/2000/svg" xmlns:xlink="http://www.w3.org/1999/xlink" viewBox="0 0 303 208"><defs><style>.cls-1{fill:#009245;}.cls-2{fill:aqua;}.cls-3{fill:#fefefe;}.cls-4{fill:url(#Dégradé_sans_nom_5);}.cls-5{fill:#c6dbfe;}.cls-6{fill:#392222;}.cls-7{fill:#feb994;}.cls-8{fill:#90b5ea;}.cls-9{fill:#98bdf0;}.cls-10{fill:#100c0d;}.cls-11{fill:#fa5c1b;}.cls-12{fill:#fa7c44;}.cls-13{fill:#0e1633;}.cls-14{fill:#333656;}.cls-15{fill:#2f4260;}.cls-16{fill:#eef5fe;}.cls-17{fill:#dceafe;}.cls-18{fill:#55b3b3;}.cls-19{fill:#75d8c8;}</style><linearGradient id="Dégradé_sans_nom_5" x1="71.81" y1="130.48" x2="138.58" y2="130.48" gradientUnits="userSpaceOnUse"><stop offset="0" stop-color="#329986"/><stop offset="1" stop-color="#49ba75"/></linearGradient></defs><title>icons</title><path class="cls-1" d="M255,99.41c5.44,19.17-4.56,38.79-23,59-18.49,19.57-45.47,39.74-74.17,44.76C101.13,213.86,45.76,157.73,56,102.7c4.8-28,24.77-54,44.09-72.63C120,11.56,139.35.49,157.74,4.22c18.41,3.16,37.19,20,55.95,38C231.91,60.67,250.1,80.31,255,99.41Z"/><path class="cls-2" d="M222.42,128.82c14.76,26.44,18.65,45.85,6.55,58-11.51,11.82-41.86,19.95-81.18,15.49C109.25,199.62,71.13,176.8,56,155.7c-16.49-21.49-10-41.26,9.43-47.1,19.75-7.38,44.44-16.84,57.16-32.9,13.78-15.12,18.18-31.57,22.9-34.95,4.56-4,11.88,4.17,26.65,20C186.15,76.34,207.94,102.66,222.42,128.82Z"/><path class="cls-3" d="M161.55,161.52c-.68,0-.89-.27-1-.89-.77-3.91-1.55-7.82-2.37-11.71s-1.74-8-2.61-12l-.06-.37-.22-.12A30.43,30.43,0,0,1,151,137v.26c-.07.51-.53.2-.78.36s-.23-.18-.24-.35l-.08,0-3.47.53c-.36.06-.72.08-1.08.12l-5.58.85c-.27,0-.55.06-.82.08-.28.29-.56.5-.92.11l-2.18.4q1.17,11.07,2.33,22.13c-.42-.42-.31-.95-.37-1.43-.27-2.27-.46-4.54-.7-6.82-.27-2.67-.57-5.34-.86-8l-.63-5.86-1.19.16a.05.05,0,0,1,0,.08c-.3,2.08-.24,4.19-.5,6.27,0,.26-.11.53-.16.8a1.86,1.86,0,0,1,0,.78l-.87,10.07c-.1,1.18-.18,2.36-.27,3.54.05.38-.09.54-.49.53l-8.6,0a1.3,1.3,0,0,1,.1.15h37.62A.65.65,0,0,1,161.55,161.52Z"/><path class="cls-4" d="M133.78,146.59a1.86,1.86,0,0,1,0,.78c-.29.15-.22.43-.24.68-.13,1.68-.25,3.36-.4,5-.18,1.88-.42,3.76-.51,5.66,0,.59-.15,1.18-.22,1.77,0,.23-.13.35-.38.34-1.26,0-2.51.42-3.78,0v0c0-.3-.17-.3-.38-.28h0l-.14-.15v0c0-.35-.26-.38-.51-.41h0l-.16-.14a3.29,3.29,0,0,1-.74-.75.23.23,0,0,0-.15-.28h0l-.14-.14v0c0-.15,0-.29-.24-.16-.41-.3-.53-.83-.89-1.16,0-.25-.14-.4-.41-.38h0l-.17-.13-.09-.11c0-.12,0-.23-.14-.28v0c0-.2-.06-.29-.26-.27h0l-.14-.14h0l-.15-.14v0c0-.11,0-.23-.15-.24s-.21.11-.22.25a7.35,7.35,0,0,0-.12,1.14c.08,1.4.13,2.8.12,4.2l-.51,0h-38l-.45,0a26.75,26.75,0,0,1,.4-3.56c.15-3.15-.48-6.24-.81-9.35-.2-1.77-.5-3.52-.74-5.28s-.44-3.51-.68-5.26c-.37-2.66-.77-5.31-1.12-8-.25-1.92-.4-3.86-.68-5.78a3.7,3.7,0,0,0-.39-1.83c0,.44,0,.72.06,1,.11,1,.23,2,.34,2.92.23,1.88.45,3.77.7,5.65s.57,4,.84,6.07c.16,1.2.28,2.41.45,3.61.22,1.6.49,3.18.71,4.78.29,2.17.58,4.35.84,6.53a20.91,20.91,0,0,1,.22,5.3,13,13,0,0,0-.29,3.18H72.84a24.86,24.86,0,0,0-.41-3.22,75,75,0,0,1-.6-8.6c0-1.71,0-3.42,0-5.13v-.75c.22-.18.13-.44.14-.66,0-1.09.07-2.18.15-3.26.15-2.15.32-4.29.5-6.44.12-1.48.22-3,.41-4.45.25-1.92.58-3.82.87-5.74a34.9,34.9,0,0,1,2.21-8.32,1.75,1.75,0,0,0,.22-1h0a1.75,1.75,0,0,0,.65-1.3h0c.15,0,.15-.15.14-.27h0c.14,0,.14-.15.14-.26h0a2.17,2.17,0,0,0,.91-1.55h0c.3,0,.28-.19.27-.39h0c.36,0,.42-.23.39-.52h0c.2,0,.29-.07.24-.27l0,0c.31-.17.58-.36.52-.78h0c.34,0,.38-.25.4-.51h0l.15-.14h0c.28,0,.42-.11.38-.4l0,0c.13,0,.15-.16.14-.28l.1-.11.16-.13h0l.13-.17.09-.1.18-.13h0l.14-.14h0a.91.91,0,0,0,.78-.79v0l.14-.14h0l.14-.14h0l.14-.14h0l.13-.17.23-.22.16-.14.12-.11s.26.09.14-.13a16.63,16.63,0,0,1,3.56-2.57,3,3,0,0,0,.36-.26,1,1,0,0,0,.6-.17c.73-.38,1.46-.78,2.22-1.1a12.61,12.61,0,0,1,4.68-1.13l2.37.54c0,.16.14.18.27.2a16.62,16.62,0,0,0,3,.36,29.91,29.91,0,0,0,4.54-.11c1-.12,2.07-.22,3.1-.36a6.84,6.84,0,0,1,4.7.63c.05,0,.15,0,.23,0v0a1.14,1.14,0,0,0,1,.52h0a.32.32,0,0,0,.4.26h0c0,.13.15.15.27.14h0a1.06,1.06,0,0,0,.91.39h0c0,.15.15.15.27.14h0c0,.14.15.15.27.14h0c0,.14.15.15.27.14h0A2.25,2.25,0,0,0,118,103h0a1.69,1.69,0,0,0,1.3.65h0c0,.4.34.4.64.4h0c0,.14.15.14.27.14h0c0,.29.19.29.4.26h0c0,.34.26.39.53.39h0a.67.67,0,0,0,.65.4h0c0,.14.15.14.26.14h0l.14.13v0c0,.3.19.29.39.27h0c0,.2.08.28.27.25h0c0,.14.15.16.27.14v0c0,.37.23.43.52.4h0c0,.2.07.29.27.26h0l.14.13h0c0,.13.14.16.27.14h0l.14.14h0l.14.14h0l.14.14h0l.16.14.1.1.13.16h0c0,.11,0,.22.14.26v0c0,.2.06.29.26.27h0l.14.14v0c0,.13,0,.23.14.27v0c0,.2.05.29.25.27h0a1.1,1.1,0,0,0,.66,1h0c.06.48.15.94.66,1.16h0a1,1,0,0,0,.11.62,31,31,0,0,1,1.79,4.85c.1.33,0,.75.4,1a.18.18,0,0,1,0,.1,13.14,13.14,0,0,0,.63,2.91A21.26,21.26,0,0,0,131,124a.34.34,0,0,1,0,.1,3.32,3.32,0,0,0,.06.83c.35,1.47.63,3,1,4.41.19.71.11,1.5.61,2.11h0a3.22,3.22,0,0,0,.37,1.8.49.49,0,0,1,0,.12,28,28,0,0,0,.82,4c0,.23-.09.64.33.74l.08.12c.51-.23.54-.7.56-1.16h0c.39-.15.25-.49.27-.77h0c.12-.05.14-.15.14-.27h0c.18-.08.13-.25.14-.39h0a2.64,2.64,0,0,0,.77-1.8h0a1.45,1.45,0,0,0,.53-1.29h0a1.5,1.5,0,0,0,.53-1.3h0c.33-.12.28-.39.27-.65h0c.12-.1.5-.06.2-.38l0-.14v0c.09,0,.12,0,.14-.09l.24-.28c.24-.06.31-.42.67-.36-.11,2.28-.2,4.55-.35,6.82a13.42,13.42,0,0,1-.15,2.29,1.3,1.3,0,0,1-.74.3c-.79.12-1.58.21-2.38.31-.21,0-.49-.06-.51.3a.05.05,0,0,1,0,.08.25.25,0,0,0-.24.25c0,.44-.11.88-.14,1.33-.09,1.14-.22,2.28-.23,3.42A6.25,6.25,0,0,0,133.78,146.59Zm-10.89,8.61.14-.1c-.34-.63-.7-1.25-1-1.89a83.71,83.71,0,0,1-4.12-11c-1.8-5.34-3.14-10.82-4.63-16.25a4.47,4.47,0,0,0-.43-1.24.33.33,0,0,0,0,.37c.53,2,1.08,3.89,1.59,5.85a200.21,200.21,0,0,0,6.17,19.58A26.63,26.63,0,0,0,122.89,155.2Z"/><path class="cls-3" d="M147.83,128.85l.06,0c.33.95,1.13.75,1.85.75,1.64,0,3.29,0,4.94,0,.44,0,.63-.06.45-.56a9.88,9.88,0,0,1-.19-3.94c.05-1.33.32-2.66.46-4a49.65,49.65,0,0,1,1.35-7.46c.67-2.56,1.18-5.15,1.75-7.72.25-1.13.57-2.24.89-3.34.12-.41,0-.56-.39-.51a2.54,2.54,0,0,1-.39,0H131c-.83,0-.83,0-.83-.83V55.39c0-.84,0-.85.83-.84,15.14.29,30.29.05,45.43.14.52,0,1-.15,1.53-.15.08,0,.2,0,.23-.08.61-1,1.63-.91,2.58-.93a10.3,10.3,0,0,1,3.19.15c1,.31,2.17,0,3.14.39a14.19,14.19,0,0,0,3.69.58,17,17,0,0,0,2.47,0c4.1.06,8.19,0,12.28,0,1.72,0,3.45.09,5.16,0,3.55-.23,7.1,0,10.65-.12.64,0,.78.19.78.79q0,23.07,0,46.15c0,.62-.18.8-.79.77-3.92-.2-7.83-.13-11.75-.14-.77,0-.82,0-.59.74a48.19,48.19,0,0,1,1.61,7.87c.39,2.74,1.22,5.4,1.44,8.16a21.17,21.17,0,0,1-.15,6.88,7,7,0,0,1-1.84,3.26c-.25.25-.6.44-.68.83l-.64,0H190.59l-7.06,0a20.66,20.66,0,0,0-.36-4.23c-.12-1-.17-1-1.22-1l-1.21-.09c0-1,.08-2,.09-2.94,0-2,.14-4.08.33-6.11a3.69,3.69,0,0,1,.38-2A1.33,1.33,0,0,0,182,113a.71.71,0,0,0,.34-.42,2.06,2.06,0,0,0,.63-1,1.92,1.92,0,0,0-.71.91.69.69,0,0,0-.35.43l-.36.28a3.94,3.94,0,0,1,.11-1.13c.28-1.34.59-2.66,1-4,0,0,0-.1,0-.14l-.12.06a4.23,4.23,0,0,0-.25.58,37.19,37.19,0,0,0-1.3,7,78.69,78.69,0,0,0-.35,9,3.84,3.84,0,0,1-.89-.09,7.17,7.17,0,0,0-3.16,0,12,12,0,0,0-4.63,2.63,7.61,7.61,0,0,0-2.28,2.54l-.23.27h-.77c-.27,0-.37-.09-.38-.37-.12-2.47-.26-5-.38-7.43-.11-2.09-.19-4.18-.3-6.28-.19-3.6-.41-7.21-.6-10.82-.11-2.28-.19-4.57-.3-6.85,0-.38-.09-.76-.13-1.14a43.89,43.89,0,0,0,.14,5.38c.2,3.67.35,7.35.53,11s.36,7.22.55,10.83c.08,1.64.13,3.29.29,4.93.06.61,0,.75-.65.74h-19.2A2.49,2.49,0,0,1,147.83,128.85Zm43-72.64-.15-.17-.23-.22-.16-.14h0a4.61,4.61,0,0,0-2.49-1.14c-1.76-.31-3.54-.29-5.3-.71a3.84,3.84,0,0,0-3.73.72s-.05,0-.06.06a1.33,1.33,0,0,0-.46.66c-.09.32-.21.38-.56.31a1.81,1.81,0,0,0-1.59.35h0a1,1,0,0,0-.51.4h0l-.16.15-.09.1a4.57,4.57,0,0,0-1.07,4.09c-.38-.08-.31-.39-.34-.66a5.27,5.27,0,0,1,.45-2.33,3.88,3.88,0,0,0-.42,0q-20.28,0-40.57,0c-.48,0-.62.14-.62.62q0,9.16,0,18.32c0,.58.23.75.76.74,1.59,0,3.17,0,4.76,0,.5,0,.68-.17.67-.67,0-1.63,0-3.26,0-4.88h13.1c0,1.67,0,3.34,0,5,0,.25-.05.55.35.54,1.46,0,2.91.1,4.36-.07l5,0a.58.58,0,0,0,.42-.11,1.33,1.33,0,0,0,.81.13h12.39l.64,2.56c-3.72.06-7.43-.06-11.15-.13-2.57,0-5.14.06-7.72,0-7.94-.07-15.89,0-23.84,0-.44,0-.6.12-.6.58q0,9.12,0,18.25c0,.42.09.61.56.6l16.07,0,4.08,0c2.19,0,4.37,0,6.56,0a.71.71,0,0,0,.76-.48c.49-1.07,1-2.13,1.57-3.17a18.72,18.72,0,0,1,5-6c2.58-2,5.68-3.11,8.68-4.35A38.11,38.11,0,0,0,174,92.69c-.15.68,0,.83.62.93.47.07.93.1,1.4.15.16,0,.37,0,.37.22l-.05.12.11-.06c.1-.12.28-.2.23-.42a17.42,17.42,0,0,1-2.16-.25c-.4,0-.44-.19-.36-.53.22-.87.43-1.74.59-2.62A18.77,18.77,0,0,1,176.37,85c.67,0,1.26-.44,1.95-.39.18.41,0,.87.17,1.28.11,1.66.18,3.33.32,5a10.35,10.35,0,0,0,.5,2.86h0A9.88,9.88,0,0,0,180,97h0v.51l.08.26c.05.15,0,.34.17.45l0,0c0,.21,0,.42.09.63.45,1.9,1,3.79,1.54,5.66a25,25,0,0,0,.9,2.87,15.34,15.34,0,0,0,.73-2.44h0a32.82,32.82,0,0,0,1.29-3.6h0a2,2,0,0,0,.39-1h0a1.8,1.8,0,0,0,.38-1.16.33.33,0,0,0,0-.1,6.76,6.76,0,0,0,.74-1.93,11.91,11.91,0,0,0,.81-2.47h0a2.13,2.13,0,0,0,.52-1.15h0a.67.67,0,0,0,.25-.52.31.31,0,0,0,0-.1.26.26,0,0,0,.13-.28h0a.35.35,0,0,0,.13-.39h0c.13,0,.12-.16.15-.25l.08-.15,0-.24h0a1.28,1.28,0,0,0,.26-.9h0c.26-.2.23-.51.31-.77l.32-1c.3-1.21.62-2.41.91-3.62.06-.24.2-.48.09-.74l.06-.64c.84.74,2,.76,2.94,1.15.16,1.39.38,2.79.47,4.19.08,1.23,0,2.48,0,3.72,0,.32-.08.65-.51.53-.58-.16-1.14.1-1.71,0-.12,0-.36-.06-.3.2a2,2,0,0,0,.72,1.15l-.51-1.1a6.62,6.62,0,0,1,1.82-.09c.48,0,.65-.16.69-.59a20.89,20.89,0,0,0,0-3.71c-.11-1.4-.28-2.8-.42-4.2,1.32.65,2.66,1.25,4,1.84a16.81,16.81,0,0,1,7,5.44,23.61,23.61,0,0,1,3.31,6.33c.13.39.31.56.73.53s1.11,0,1.67,0h5.65c1.07,0,2.14,0,3.21,0,.38,0,.53-.11.53-.51q0-9.06,0-18.12c0-.38-.1-.54-.51-.54-1.86,0-3.72-.09-5.58-.1-7.82,0-15.64,0-23.46,0a16,16,0,0,1,.22-2.68,1.49,1.49,0,0,0,.75.12h18.43c.88,0,.88,0,.88-.91V71.13a1.3,1.3,0,0,1,.28-1c-.05.51-.13,1-.14,1.53,0,1.75,0,3.51,0,5.26,0,.55.21.64.68.63,1.41,0,2.82,0,4.23,0a1.19,1.19,0,0,0,.62-.11c.95,0,1.89,0,2.83,0,.62,0,.79-.17.79-.79q0-9.12,0-18.24c0-.68-.2-.8-.83-.8q-13,0-26,0h-.65c.14.6.73,1,.46,1.65a8.89,8.89,0,0,0-1.05-2.06h0a2.75,2.75,0,0,0-.56-.8s0-.05,0-.06l-.17-.17Zm-5.11,51.5a.45.45,0,0,0-.23.29,1.29,1.29,0,0,0-.38.51c-.15.15-.35.28-.32.57a.67.67,0,0,0,.41-.48.85.85,0,0,0,.38-.51.44.44,0,0,0,.23-.29l.17-.23a.8.8,0,0,0,.37-.51l.24-.29.25-.38.26-.39a2.79,2.79,0,0,0,.51-.77,1.45,1.45,0,0,0,.43-.61,5.51,5.51,0,0,0,1-1.42,11.33,11.33,0,0,0,1.34-2.17l-.16-.09-1.28,2.17a8.79,8.79,0,0,0-1,1.42,1.34,1.34,0,0,0-.43.61,1.43,1.43,0,0,0-.5.77.56.56,0,0,0-.26.39.55.55,0,0,0-.26.38l-.23.29a1.2,1.2,0,0,0-.38.51ZM176,94.58c.08-.08.26-.16.1-.28s-.16.1-.19.2l-.16.24a.54.54,0,0,0-.25.37l-.23.29a.7.7,0,0,0-.26.39l-.16.23a.6.6,0,0,0-.26.38c-.22.34,0,.63.12.91,1.36,3.19,3,6.24,4.54,9.34a1.14,1.14,0,0,0,.5.62c0-.09,0-.14,0-.17-1.14-2-2.07-4.12-3.11-6.18a24.81,24.81,0,0,1-2-4.44c.09-.12.18-.25.26-.38l.16-.23a.59.59,0,0,0,.25-.38.44.44,0,0,0,.23-.29.7.7,0,0,0,.26-.39Zm4.89,14.29c-.06-.12-.12-.38-.23-.3s0,.27.13.39.18.25.26.38.1.29.23.19,0-.2-.14-.28A.52.52,0,0,0,180.93,108.87Zm-.61-.69c.06.1.1.3.23.19s-.05-.2-.14-.27-.09-.3-.29-.33A.45.45,0,0,0,180.32,108.18Zm3.66,2.06a2.86,2.86,0,0,0,.74-1.15,2.32,2.32,0,0,0-.83,1.06c-.15.1-.31.2-.28.43C183.86,110.59,183.9,110.4,184,110.24Zm8.62-14.32a.7.7,0,0,0-.38-.5.64.64,0,0,0,.29.58.94.94,0,0,1,0,1c-.38.63-.66,1.32-1,2a3,3,0,0,0-.66,1.18,2.55,2.55,0,0,0,.75-1.09c.48-.61.68-1.38,1.11-2A.78.78,0,0,0,192.6,95.92Zm-10.89,28.31,0,.13a3,3,0,0,0,.31,0c2.07-.33,4.09-.87,6.12-1.39,3.53-.92,7.1-1.7,10.67-2.47a24.38,24.38,0,0,1,5.76-.73l1.24.06a.25.25,0,0,0-.27-.21,29.67,29.67,0,0,0-3.53.05c-2.19.26-4.3.89-6.46,1.31-3.74.71-7.38,1.82-11.08,2.68C183.58,123.85,182.64,124,181.71,124.23Zm16.74-16.81-.19,0c.78,4.05,1.33,8.15,2.36,12.15Q199.54,113.52,198.45,107.42ZM183,111.48a1,1,0,0,0,.51-.73A1,1,0,0,0,183,111.48Zm7.74-11.19a.45.45,0,0,0-.28.51A.5.5,0,0,0,190.73,100.29Zm-9.16,9.53s0-.08-.07-.1-.06,0-.1,0l.09.14Zm-1.72-2.34s.07.11.11.14.11,0,.1-.09-.08-.09-.12-.13Zm12.31-12.31-.14-.11s-.06.11-.05.13.09.07.14.1Z"/><path class="cls-5" d="M225.73,152c-.18,3.06-.09,6.12-.09,9.17,0,.32-.1.37-.36.35H225q-31.67,0-63.35,0c-.73,0-.94-.26-1.07-.9-.77-3.91-1.55-7.82-2.37-11.71s-1.74-8-2.61-12l.24,0c.21.21.49.12.73.12h40.85c.24,0,.58.18.71-.22,1,0,2,0,3,0,2.22-.05,4.45,0,6.68,0l17.81,0q0,7.26,0,14.53A1.34,1.34,0,0,0,225.73,152Z"/><path class="cls-6" d="M81.2,77.78l.11-.1a.9.9,0,0,0,.92-.92l.23-.24c.37,0,.5-.28.68-.51a33.07,33.07,0,0,0,4.11-7.8,23.15,23.15,0,0,1,4.39-7.32c.12-.13.31-.26.12-.48a.07.07,0,0,1,.06-.07c.31.22.43-.07.57-.22a13.5,13.5,0,0,1,2-1.74,15.31,15.31,0,0,1,7.75-2.28,25.27,25.27,0,0,1,4.34.23,15.64,15.64,0,0,1,9,3.76c.14.12.26.31.48.12a.08.08,0,0,1,.07.07c-.24.36.13.52.28.67a8.8,8.8,0,0,1,1.88,3.16,8.11,8.11,0,0,1-.09,6.23,1.46,1.46,0,0,0-.13.74v0l-.11.16h0c-.44,0-.56.28-.54.66l-.11.1a1.13,1.13,0,0,0-1.18.79.12.12,0,0,1,0,.1c-.24,0-.21.21-.26.37-.26.72-.5,1.44-.81,2.14-.11.25-.25.65-.55.64s-.31-.46-.47-.69-.06-.63-.5-.64h0c0-.22,0-.41-.27-.41l-.1-.11c0-.31-.08-.45-.4-.39h0s0-.1,0-.13a2.07,2.07,0,0,0-2.77.42s0,.08,0,.12l0,0c-.44-.11-.43.17-.41.47h0c-.33,0-.36.25-.45.44-.75,1.67-.24,3.19.56,4.67a.24.24,0,0,0,.28.11h0c0,.31,0,.54.38.53h0a1.73,1.73,0,0,0,1.29,1.29h0l.13.14h0c0,.29.2.28.41.24h0a.81.81,0,0,0,.91.61v0c0,.41.44.71.34,1.2-.18.83-.26,1.68-.38,2.52a27.27,27.27,0,0,1-2,7.57.82.82,0,0,0-.11.73h0c-.48.08-.44.43-.41.78h0c-.27,0-.44.14-.64.27a17.78,17.78,0,0,1-5,2.18,20.23,20.23,0,0,1-6.11.79A42.32,42.32,0,0,1,91.87,98a40.28,40.28,0,0,1-6.52-2.1,1.47,1.47,0,0,1-.91-1c-.26-.93-.53-1.85-.77-2.78-.06-.22,0-.49-.33-.54s-.42.21-.52.4c-.31.59-.57,1.2-.85,1.79-.1.21-.2.5-.51.27a11.27,11.27,0,0,1-1.58-1.19c-.41-.43-.76-1-1.4-1.14h0a.71.71,0,0,0-.15-.54,8.88,8.88,0,0,1-1-2.06,10.54,10.54,0,0,1-.4-4.47A8.9,8.9,0,0,1,80.05,79C80.47,78.64,81.1,78.45,81.2,77.78Z"/><path class="cls-7" d="M118,71.13v0a8.59,8.59,0,0,0,.76-1.76,10.41,10.41,0,0,1,.5,2.76,73.26,73.26,0,0,1,.42,9.25,25.15,25.15,0,0,1-1.2,7.15A4.84,4.84,0,0,1,113,91.59c-.23-.07-.43-.19-.65-.28a2.13,2.13,0,0,1,0-.57,51.11,51.11,0,0,0,1.24-6.69c.09-.54,0-1-.58-1.26v0a2.65,2.65,0,0,0-.91-.61h0a.52.52,0,0,0-.41-.24h0l-.13-.14h0l-1.29-1.29h0l-.38-.53h0c-.9-1.69-1.48-3.39-.39-5.22h0l.41-.47,0,0a2.29,2.29,0,0,1,2.74-.41h0l.4.39.1.11.27.41h0c.19.45.37.91.56,1.35s.4.58.73.11a7,7,0,0,0,1.3-3.28.12.12,0,0,0,0-.1,4.14,4.14,0,0,0,1.18-.79l.11-.1a1.66,1.66,0,0,0,.54-.66h0Z"/><path class="cls-7" d="M149.71,123.28a7.5,7.5,0,0,1-1.44,3.77c-.23.35-.5.68-.75,1l-.72.93c-.17.29-.35.57-.53.86a6.25,6.25,0,0,0-.79,1.31l-.1,0-.14-.11-.25-.18-.12-.08-.27-.14h0l-.14-.13h0a.29.29,0,0,0-.26-.13h0l-.16-.15a8.49,8.49,0,0,0-4.58-1.25,4.69,4.69,0,0,1,.12-1.79,1.73,1.73,0,0,0,.36-.87,20,20,0,0,1,1.5-4.37c.13-.21.25-.43.37-.64.37-.67,1-1.24.85-2.23l-.95,2.14a1.51,1.51,0,0,0-.37.65c-.2.29-.41.58-.6.87s-.56.84-1.17.7c-.4,0-.47-.14-.35-.49a12.9,12.9,0,0,1,1.64-2.89,15,15,0,0,1,2.08-2.42c.5-.5,1.21-.69,1.65-1.28a.62.62,0,0,1,.6-.13,5.72,5.72,0,0,1,3.73,2.38.62.62,0,0,1,.13.48c-.39,0-.16.22-.09.32a4.32,4.32,0,0,1,.52,1.3A18.13,18.13,0,0,1,149.71,123.28Zm-4-1.06c.24-1.82.17-4.33-.63-4.83C145.94,119,145.54,120.63,145.75,122.22Z"/><path class="cls-8" d="M225.63,136.84l-17.81,0c-2.23,0-4.46,0-6.68,0-1,0-2,0-3,0h-.77c-8.06,0-16.11,0-24.17.09-5.78.06-11.57,0-17.35,0l-.24,0-.06-.37a1.85,1.85,0,0,0,1,.13c16.27-.08,32.55.13,48.83-.1,7.84-.12,15.68,0,23.52,0,.6,0,.77-.17.75-.75,0-1.7,0-3.39,0-5.08,0-.59-.16-.76-.75-.75-4.11.09-8.22.07-12.32.1-12.49.11-25,0-37.48,0h-.69c.2-.2.45-.06.57-.24h.26c.31.22.67.11,1,.1a14.81,14.81,0,0,0,3-.1l.36-.05,7.06,0h18.18l.64,0,4.17,0c5.19,0,10.37,0,15.55,0,.61,0,.74.19.73.76,0,1.88,0,3.76,0,5.65,0,.44-.12.59-.57.58C228.07,136.81,226.85,136.84,225.63,136.84Z"/><path class="cls-7" d="M97.05,100l-2.37-.54-.76-.28L93.8,99h0a.13.13,0,0,0-.14-.13h0c-.05-.15-.1-.08-.14,0a.24.24,0,0,1-.11-.28,13.48,13.48,0,0,1,2.1.22,24.46,24.46,0,0,0,8.14-.28,22.76,22.76,0,0,0,5.7-2.18,15.11,15.11,0,0,0,.88,2.87v.44c-1.43.14-2.85.23-4.27.42A29,29,0,0,1,97.05,100Z"/><path class="cls-9" d="M133,133.34a.49.49,0,0,0,0-.12,5,5,0,0,0-.37-1.8h0c0-.54-.28-1-.27-1.56l.12,0c0,.12.06.17.2.17l4.7-.05h.08l0,.16v0a.28.28,0,0,0-.11.26l-.05.26h0a1.05,1.05,0,0,0-.27.65h0a3.28,3.28,0,0,0-.53,1.3h0a3.75,3.75,0,0,0-.53,1.29h0a7.94,7.94,0,0,0-.77,1.8h0a.45.45,0,0,0-.14.39h0c-.14,0-.12.16-.14.27h0c-.17.14-.19.36-.27.55h-.87l-.15-.62A19.08,19.08,0,0,0,133,133.34Z"/><path class="cls-10" d="M109.37,96.39a22.76,22.76,0,0,1-5.7,2.18,24.46,24.46,0,0,1-8.14.28,13.48,13.48,0,0,0-2.1-.22h0c0-.13-.14-.12-.24-.11a38.45,38.45,0,0,1-8-2.45,1.54,1.54,0,0,1-1-1,24.11,24.11,0,0,1-.91-3.4A7.85,7.85,0,0,0,82.13,94c-.16.52-.33.52-.75.27a9.4,9.4,0,0,1-2.9-2.57c.64.16,1,.71,1.4,1.14a11.27,11.27,0,0,0,1.58,1.19c.31.23.41-.06.51-.27.28-.59.54-1.2.85-1.79.1-.19.21-.45.52-.4s.27.32.33.54c.24.93.51,1.85.77,2.78a1.47,1.47,0,0,0,.91,1A40.28,40.28,0,0,0,91.87,98a42.32,42.32,0,0,0,6.83.82,20.23,20.23,0,0,0,6.11-.79,17.78,17.78,0,0,0,5-2.18c.2-.13.37-.3.64-.27l-.1.23Z"/><path class="cls-10" d="M116,60.21c-.22.19-.34,0-.48-.12a15.64,15.64,0,0,0-9-3.76,25.27,25.27,0,0,0-4.34-.23,15.31,15.31,0,0,0-7.75,2.28,13.5,13.5,0,0,0-2,1.74c-.14.15-.26.44-.57.22a13,13,0,0,1,8.24-4.26,21.49,21.49,0,0,1,13.19,2.06A9.22,9.22,0,0,1,116,60.21Z"/><path class="cls-11" d="M76.31,113.93a1.75,1.75,0,0,1-.22,1,34.9,34.9,0,0,0-2.21,8.32c-.29,1.92-.62,3.82-.87,5.74-.19,1.48-.29,3-.41,4.45-.18,2.15-.35,4.29-.5,6.44C72,140.94,72,142,72,143.12c0,.22.08.48-.14.66-.2-.12-.12-.31-.11-.47.16-2.86.27-5.72.53-8.57s.6-6,1-9a43.32,43.32,0,0,1,2.85-11.48A2.32,2.32,0,0,1,76.31,113.93Z"/><path class="cls-10" d="M91.76,60.41c.19.22,0,.35-.12.48a23.15,23.15,0,0,0-4.39,7.32A33.07,33.07,0,0,1,83.14,76c-.18.23-.31.53-.68.51,2.4-2.94,3.72-6.44,5.19-9.87A19.68,19.68,0,0,1,91.76,60.41Z"/><path class="cls-10" d="M81.2,77.78c-.1.67-.73.86-1.15,1.21A8.9,8.9,0,0,0,77,84.66a10.54,10.54,0,0,0,.4,4.47,8.88,8.88,0,0,0,1,2.06.71.71,0,0,1,.15.54,8,8,0,0,1-1.75-4,9.73,9.73,0,0,1,.47-5.15A10.28,10.28,0,0,1,81.2,77.78Z"/><path class="cls-12" d="M109.37,96.39l.95-.58a.53.53,0,0,0,.51-.39c.17-.39.38-.76.58-1.14-.31,1.68-.74,3.33-1.16,5A15.11,15.11,0,0,1,109.37,96.39Z"/><path class="cls-11" d="M71.82,144.53c0,1.71,0,3.42,0,5.13a75,75,0,0,0,.6,8.6,24.86,24.86,0,0,1,.41,3.22l-.16,0a76.36,76.36,0,0,1-1-16.54C71.69,144.78,71.63,144.61,71.82,144.53Z"/><path class="cls-11" d="M97.05,100a29,29,0,0,0,8.92.13c1.42-.19,2.84-.28,4.27-.42a6,6,0,0,1,2.62,1c-.08,0-.18.08-.23,0a6.84,6.84,0,0,0-4.7-.63c-1,.14-2.07.24-3.1.36a29.91,29.91,0,0,1-4.54.11,16.62,16.62,0,0,1-3-.36C97.19,100.17,97.07,100.15,97.05,100Z"/><path class="cls-10" d="M113,82.79c.6.23.67.72.58,1.26a51.11,51.11,0,0,1-1.24,6.69,2.13,2.13,0,0,0,0,.57l-.76,2.12-.71,1.38a.82.82,0,0,1,.11-.73,27.27,27.27,0,0,0,2-7.57c.12-.84.2-1.69.38-2.52C113.45,83.5,113.06,83.2,113,82.79Z"/><path class="cls-13" d="M139.6,123.46c.61.14.89-.27,1.17-.7s.4-.58.6-.87l.1.08a20,20,0,0,0-1.5,4.37,1.73,1.73,0,0,1-.36.87,34.12,34.12,0,0,1,.88-3.63c-.33.11-.68-.07-.84.29a24.79,24.79,0,0,0-1.74,5.91l-.24.28v-.31A28.28,28.28,0,0,1,139.6,123.46Z"/><path class="cls-10" d="M118.75,69.32a8.59,8.59,0,0,1-.76,1.76,1.46,1.46,0,0,1,.13-.74,8.11,8.11,0,0,0,.09-6.23A8.8,8.8,0,0,0,116.33,61c-.15-.15-.52-.31-.28-.67a9,9,0,0,1,2.7,9Z"/><path class="cls-14" d="M146.8,129l.72-.93.31.78a2.49,2.49,0,0,0,.39,1,1.5,1.5,0,0,0,.36.8h0l.06.47c-.25,0-.24-.25-.33-.41a10.81,10.81,0,0,0-.8-1.78,2.2,2.2,0,0,0,.09,1.64c.18.54.58,1,.45,1.64l-.2-.3h0a1,1,0,0,0-.27-.64h0a.42.42,0,0,0-.14-.39h0c0-.11,0-.24-.14-.27h0a.37.37,0,0,0-.13-.39h0c0-.11,0-.23-.13-.28h0l0-.12Zm.32.07s-.06.07-.06.1,0,.06.05.1,0-.06,0-.09S147.13,129.11,147.12,129.07Z"/><path class="cls-11" d="M93.92,99.17l.76.28A12.61,12.61,0,0,0,90,100.58c-.76.32-1.49.72-2.22,1.1a1,1,0,0,1-.6.17,16.71,16.71,0,0,1,5.9-2.44,1.49,1.49,0,0,0,.75-.25h.09Z"/><path class="cls-11" d="M132.4,129.86c0,.54.3,1,.27,1.56-.5-.61-.42-1.4-.61-2.11-.39-1.45-.67-2.94-1-4.41a3.32,3.32,0,0,1-.06-.83,17.13,17.13,0,0,1,.76,3C132,128,132.18,128.93,132.4,129.86Z"/><path class="cls-11" d="M129.42,117.54c-.37-.22-.3-.64-.4-1a31,31,0,0,0-1.79-4.85,1,1,0,0,1-.11-.62A23,23,0,0,1,129.42,117.54Z"/><path class="cls-11" d="M131,124a21.26,21.26,0,0,1-.9-3.42,13.14,13.14,0,0,1-.63-2.91,20,20,0,0,1,1,3.66A10.53,10.53,0,0,1,131,124Z"/><path class="cls-11" d="M149.71,123.28a18.13,18.13,0,0,0-.2-2.55,4.32,4.32,0,0,0-.52-1.3c-.07-.1-.3-.31.09-.32C149.93,120.4,149.8,121.84,149.71,123.28Z"/><path class="cls-8" d="M137.42,130l-4.7.05c-.14,0-.19-.05-.2-.17H137C137.12,129.88,137.3,129.83,137.42,130Z"/><path class="cls-7" d="M110.84,94.81l.71-1.38a.9.9,0,0,1-.14.85c-.2.38-.41.75-.58,1.14a.53.53,0,0,1-.51.39l.1-.23h0a2.24,2.24,0,0,0,.41-.78Z"/><path class="cls-11" d="M78.11,110.58a2.17,2.17,0,0,1-.91,1.55A7.33,7.33,0,0,1,78.11,110.58Z"/><path class="cls-11" d="M118,103a2.25,2.25,0,0,1-1.81-.65A14.45,14.45,0,0,1,118,103Z"/><path class="cls-11" d="M77,112.64a1.75,1.75,0,0,1-.65,1.3A3.87,3.87,0,0,1,77,112.64Z"/><path class="cls-11" d="M119.29,103.64A1.69,1.69,0,0,1,118,103,3.78,3.78,0,0,1,119.29,103.64Z"/><path class="cls-10" d="M82.23,76.76a.9.9,0,0,1-.92.92Z"/><path class="cls-11" d="M127.14,111.1c-.51-.22-.6-.68-.66-1.16A3.83,3.83,0,0,1,127.14,111.1Z"/><path class="cls-11" d="M82.09,105.81a.91.91,0,0,1-.78.79A2.45,2.45,0,0,1,82.09,105.81Z"/><path class="cls-11" d="M126.5,109.94a1.1,1.1,0,0,1-.66-1A4.11,4.11,0,0,1,126.5,109.94Z"/><path class="cls-11" d="M113.89,101.2a1.14,1.14,0,0,1-1-.52A2.43,2.43,0,0,1,113.89,101.2Z"/><path class="cls-11" d="M79.52,108.65c.06.42-.21.61-.52.78C79,109.07,79.28,108.87,79.52,108.65Z"/><path class="cls-11" d="M115.43,102a1.06,1.06,0,0,1-.91-.39A1.37,1.37,0,0,1,115.43,102Z"/><path class="cls-11" d="M119.93,104c-.3,0-.6,0-.64-.4A1.39,1.39,0,0,1,119.93,104Z"/><path class="cls-11" d="M78.75,109.68c0,.29,0,.52-.39.52A1.26,1.26,0,0,1,78.75,109.68Z"/><path class="cls-11" d="M121.1,104.79c-.27,0-.51-.05-.53-.39A.84.84,0,0,1,121.1,104.79Z"/><path class="cls-11" d="M121.73,105.19a.67.67,0,0,1-.65-.4A.89.89,0,0,1,121.73,105.19Z"/><path class="cls-11" d="M123.53,106.47c-.29,0-.52,0-.52-.4Z"/><path class="cls-11" d="M80.4,107.61c0,.29-.1.41-.38.4C80.12,107.85,80.19,107.66,80.4,107.61Z"/><path class="cls-11" d="M79.91,108.14c0,.26-.06.5-.4.51A1.12,1.12,0,0,1,79.91,108.14Z"/><path class="cls-11" d="M120.58,104.41c-.21,0-.4,0-.4-.26A.82.82,0,0,1,120.58,104.41Z"/><path class="cls-11" d="M122.5,105.7c-.2,0-.4,0-.39-.27A.68.68,0,0,1,122.5,105.7Z"/><path class="cls-11" d="M78.37,110.2c0,.2,0,.4-.27.39Z"/><path class="cls-11" d="M123.8,106.72c-.2,0-.29-.06-.27-.26C123.64,106.52,123.77,106.57,123.8,106.72Z"/><path class="cls-11" d="M125.34,108.27c-.2,0-.29-.07-.26-.27C125.24,108,125.29,108.14,125.34,108.27Z"/><path class="cls-11" d="M114.28,101.45a.32.32,0,0,1-.4-.26A.42.42,0,0,1,114.28,101.45Z"/><path class="cls-11" d="M125.85,108.91c-.2,0-.28-.07-.25-.27C125.75,108.67,125.79,108.8,125.85,108.91Z"/><path class="cls-11" d="M79,109.41c0,.2,0,.29-.24.27C78.79,109.57,78.8,109.41,79,109.41Z"/><path class="cls-11" d="M122.77,105.94c-.19,0-.29,0-.27-.25C122.61,105.75,122.74,105.79,122.77,105.94Z"/><path class="cls-15" d="M137.66,129.75v.31c0,.07,0,.13-.14.09l0-.16Z"/><path class="cls-11" d="M125.59,108.66c-.14,0-.15-.14-.14-.27C125.56,108.45,125.64,108.52,125.59,108.66Z"/><path class="cls-11" d="M125.08,108c-.14,0-.15-.15-.14-.26C125,107.82,125.12,107.88,125.08,108Z"/><path class="cls-11" d="M77.21,112.13c0,.11,0,.23-.14.26Z"/><path class="cls-11" d="M77.08,112.38c0,.12,0,.23-.14.27C77,112.54,77,112.43,77.08,112.38Z"/><path class="cls-11" d="M80.56,107.36c0,.12,0,.23-.14.28C80.36,107.49,80.47,107.43,80.56,107.36Z"/><path class="cls-11" d="M124.18,107c-.13,0-.23,0-.27-.14C124.06,106.77,124.11,106.9,124.18,107Z"/><path class="cls-11" d="M123,106.09c-.12,0-.23,0-.27-.14C122.89,105.89,123,106,123,106.09Z"/><path class="cls-7" d="M93.19,98.53c.1,0,.2,0,.24.11C93.32,98.67,93.26,98.6,93.19,98.53Z"/><path class="cls-11" d="M122,105.32c-.11,0-.22,0-.26-.14Z"/><path class="cls-11" d="M83.26,104.68c.12.22-.09.09-.14.13Z"/><path class="cls-11" d="M120.19,104.16c-.12,0-.23,0-.27-.14Z"/><path class="cls-11" d="M116.2,102.36c-.12,0-.23,0-.27-.14C116,102.23,116.15,102.24,116.2,102.36Z"/><path class="cls-11" d="M115.94,102.23c-.12,0-.23,0-.27-.14C115.78,102.11,115.9,102.1,115.94,102.23Z"/><path class="cls-11" d="M115.69,102.1c-.12,0-.23,0-.27-.14C115.52,102,115.64,102,115.69,102.1Z"/><path class="cls-11" d="M114.53,101.59c-.12,0-.22,0-.27-.14C114.41,101.38,114.51,101.41,114.53,101.59Z"/><path class="cls-12" d="M93.92,99.17h-.09a.22.22,0,0,1,0-.08s0,0,0,0Z"/><path class="cls-12" d="M93.67,98.91a.13.13,0,0,1,.14.13C93.68,99.07,93.63,99,93.67,98.91Z"/><path class="cls-11" d="M83,104.92l-.16.14Z"/><path class="cls-12" d="M93.54,98.91c0-.08.09-.15.14,0Z"/><path class="cls-11" d="M82.61,105.28l-.13.17Z"/><path class="cls-11" d="M125.46,108.41l-.14-.14Z"/><path class="cls-11" d="M122.11,105.45l-.14-.13Z"/><path class="cls-11" d="M82.49,105.44l-.14.14A.14.14,0,0,1,82.49,105.44Z"/><path class="cls-11" d="M82.23,105.7l-.14.14A.13.13,0,0,1,82.23,105.7Z"/><path class="cls-11" d="M81.33,106.6l-.14.14C81.2,106.65,81.24,106.6,81.33,106.6Z"/><path class="cls-11" d="M81.21,106.73l-.18.13Z"/><path class="cls-11" d="M123.92,106.86l-.14-.13C123.88,106.72,124,106.71,123.92,106.86Z"/><path class="cls-11" d="M80.94,107l-.13.17Z"/><path class="cls-11" d="M124.3,107.12l-.14-.14Z"/><path class="cls-11" d="M80.82,107.12l-.16.13Z"/><path class="cls-11" d="M124.43,107.25l-.14-.14Z"/><path class="cls-11" d="M124.56,107.38l-.14-.14Z"/><path class="cls-11" d="M124.71,107.51l-.16-.14Z"/><path class="cls-11" d="M124.94,107.77l-.13-.16Z"/><path class="cls-11" d="M80.05,108l-.15.14Z"/><path class="cls-11" d="M82.36,105.57l-.14.14A.14.14,0,0,1,82.36,105.57Z"/><path class="cls-9" d="M178.94,129.9c-.12.18-.37,0-.57.24h.69c12.49,0,25,.07,37.48,0,4.1,0,8.21,0,12.32-.1.59,0,.77.16.75.75,0,1.69,0,3.38,0,5.08,0,.58-.15.75-.75.75-7.84,0-15.68-.11-23.52,0-16.28.23-32.56,0-48.83.1a1.85,1.85,0,0,1-1-.13l-.22-.12c-.24-.23-.53-.14-.79-.1a19.16,19.16,0,0,1-3.46.36c-.15-.2-.14-.5-.41-.63a3.23,3.23,0,0,0-.75-1.94c0-.38,0-.79-.41-1,0-.27.08-.53-.24-.66a.78.78,0,0,0-.25-.77c0-.11,0-.21-.14-.25a.73.73,0,0,0-.27-.78h0a.89.89,0,0,0-.12-.53h22.07c-.27-.21-.6,0-.85-.24l1.28,0Z"/><path class="cls-16" d="M126.34,159.22a3.29,3.29,0,0,0,.74.75l.16.14h0a1.14,1.14,0,0,0,.51.41v0c0,.09.06.13.14.15h0a.6.6,0,0,0,.38.28v0a1.09,1.09,0,0,0,1,.39l3.37-.29c.05.38-.09.54-.49.53l-8.67,0c0-1.64-.06-3.28-.08-4.93,0-.14-.18-.47.23-.43v0l.14.14h0c0,.08,0,.14.14.14h0c0,.13.11.25.26.27v0c0,.14,0,.21.14.28l.09.11.17.13h0a.55.55,0,0,0,.41.38c.36.33.48.86.89,1.16.06.08.09.2.24.16v0c0,.14,0,.19.14.14h0C126.11,159.11,126.26,159.14,126.34,159.22Z"/><path class="cls-15" d="M137.91,129.78a24.79,24.79,0,0,1,1.74-5.91c.16-.36.51-.18.84-.29a34.12,34.12,0,0,0-.88,3.63,4.69,4.69,0,0,0-.12,1.79c-.08,1.2-.24,2.4-.27,3.61-.05,2-.16,3.94-.25,5.92v.24c-.28.29-.56.5-.92.11l0-.35a13.42,13.42,0,0,0,.15-2.29c.15-2.27.24-4.54.35-6.82C138.22,129.36,138.15,129.72,137.91,129.78Z"/><path class="cls-14" d="M84.15,161.49a13,13,0,0,1,.29-3.18,20.91,20.91,0,0,0-.22-5.3c-.26-2.18-.55-4.36-.84-6.53-.22-1.6-.49-3.18-.71-4.78-.17-1.2-.29-2.41-.45-3.61-.27-2-.57-4.05-.84-6.07s-.47-3.77-.7-5.65c-.11-1-.23-2-.34-2.92,0-.27,0-.55-.06-1a3.7,3.7,0,0,1,.39,1.83c.28,1.92.43,3.86.68,5.78.35,2.66.75,5.31,1.12,8,.24,1.75.44,3.51.68,5.26s.54,3.51.74,5.28c.33,3.11,1,6.2.81,9.35a26.75,26.75,0,0,0-.4,3.56Z"/><path class="cls-8" d="M135.87,139.28q1.17,11.07,2.33,22.13c-.42-.42-.31-.95-.37-1.43-.27-2.27-.46-4.54-.7-6.82-.27-2.67-.57-5.34-.86-8l-.63-5.86Z"/><path class="cls-11" d="M132.64,161l-3.37.29a1.09,1.09,0,0,1-1-.39c1.27.4,2.52,0,3.78,0,.25,0,.35-.11.38-.34.07-.59.19-1.18.22-1.77.09-1.9.33-3.78.51-5.66.15-1.68.27-3.36.4-5,0-.25,0-.53.24-.68l-.87,10.07C132.81,158.62,132.73,159.8,132.64,161Z"/><path class="cls-11" d="M139,138.77v-.24c1.6-.08,3.16-.44,4.74-.67s1.54-.21,1.85-1.68.74-3.22-.17-4.78c0-.06,0-.17,0-.25l.1,0a3.82,3.82,0,0,1,.67,2.22,26.55,26.55,0,0,1-.5,3.45l-.28,1-5.58.85C139.52,138.73,139.24,138.75,139,138.77Z"/><path class="cls-5" d="M145.37,137.84l.28-1a26.76,26.76,0,0,0,3.69.1c.28,0,.27-.22.31-.41l.27.66-3.47.53C146.09,137.78,145.73,137.8,145.37,137.84Z"/><path class="cls-11" d="M133.78,146.59a6.25,6.25,0,0,1,.05-2.07c0-1.14.14-2.28.23-3.42,0-.45.09-.89.14-1.33a.25.25,0,0,1,.24-.25c-.3,2.08-.24,4.19-.5,6.27C133.9,146.05,133.83,146.32,133.78,146.59Z"/><path class="cls-11" d="M123.63,156.13c-.41,0-.23.29-.23.43,0,1.65,0,3.29.08,4.93h-.22c0-1.4,0-2.8-.12-4.2a7.35,7.35,0,0,1,.12-1.14c0-.14,0-.26.22-.25S123.62,156,123.63,156.13Z"/><path class="cls-8" d="M151,136.7a19.16,19.16,0,0,0,3.46-.36c.26,0,.55-.13.79.1A30.43,30.43,0,0,1,151,137Z"/><path class="cls-11" d="M135.87,139.28h-.23l-1.19.16c0-.36.3-.27.51-.3.8-.1,1.59-.19,2.38-.31a1.3,1.3,0,0,0,.74-.3l0,.35Z"/><path class="cls-14" d="M149.92,137.19l-.27-.66v0a1.06,1.06,0,0,0-.28-.65h0c0-.14,0-.3-.14-.39h0l-.12-.44a3.69,3.69,0,0,1,.87,2,.25.25,0,0,1,0,.12Z"/><path class="cls-13" d="M150,137.22a.25.25,0,0,0,0-.12c.32.28.61.44.77-.14h.11c0,.09,0,.22.13.25-.07.51-.53.2-.78.36S150,137.39,150,137.22Z"/><path class="cls-5" d="M151,137.21c-.14,0-.1-.16-.13-.25l-.07-.17h0l-.21-.71h0c.27.13.26.43.41.63v.51Z"/><path class="cls-14" d="M122.89,155.2a26.63,26.63,0,0,1-2.35-4.72,200.21,200.21,0,0,1-6.17-19.58c-.51-2-1.06-3.9-1.59-5.85a.33.33,0,0,1,0-.37,4.47,4.47,0,0,1,.43,1.24c1.49,5.43,2.83,10.91,4.63,16.25a83.71,83.71,0,0,0,4.12,11c.33.64.69,1.26,1,1.89Z"/><path class="cls-11" d="M133,133.34a19.08,19.08,0,0,1,.76,2.88l.15.62.24,1.27c-.42-.1-.29-.51-.33-.74A28,28,0,0,1,133,133.34Z"/><path class="cls-17" d="M134.18,138.11l-.24-1.27h.87v.22h0c-.32.32-.32.8-.56,1.16Z"/><path class="cls-11" d="M135.34,135.66a7.94,7.94,0,0,1,.77-1.8A2.64,2.64,0,0,1,135.34,135.66Z"/><path class="cls-11" d="M132.65,131.42a5,5,0,0,1,.37,1.8A3.22,3.22,0,0,1,132.65,131.42Z"/><path class="cls-11" d="M136.09,133.86a3.75,3.75,0,0,1,.53-1.29A1.45,1.45,0,0,1,136.09,133.86Z"/><path class="cls-11" d="M136.61,132.58a3.28,3.28,0,0,1,.53-1.3A1.5,1.5,0,0,1,136.61,132.58Z"/><path class="cls-11" d="M134.26,138.23c.24-.36.24-.84.56-1.16C134.8,137.53,134.77,138,134.26,138.23Z"/><path class="cls-11" d="M134.81,137.07v-.22c.08-.19.1-.41.27-.55C135.06,136.58,135.2,136.92,134.81,137.07Z"/><path class="cls-11" d="M124.93,157.53a.55.55,0,0,1-.41-.38C124.79,157.13,124.9,157.28,124.93,157.53Z"/><path class="cls-11" d="M127.74,160.51a1.14,1.14,0,0,1-.51-.41C127.48,160.13,127.73,160.16,127.74,160.51Z"/><path class="cls-11" d="M137.12,131.29a1.05,1.05,0,0,1,.27-.65C137.4,130.9,137.45,131.17,137.12,131.29Z"/><path class="cls-11" d="M137.38,130.65l.05-.26.15-.12C137.88,130.59,137.5,130.55,137.38,130.65Z"/><path class="cls-11" d="M128.25,160.9a.6.6,0,0,1-.38-.28C128.08,160.6,128.27,160.6,128.25,160.9Z"/><path class="cls-11" d="M124.13,156.65c-.15,0-.21-.14-.26-.27C124.07,156.36,124.16,156.45,124.13,156.65Z"/><path class="cls-11" d="M126.06,158.85c-.15,0-.18-.08-.24-.16C126,158.56,126.05,158.7,126.06,158.85Z"/><path class="cls-11" d="M135.2,136.05a.45.45,0,0,1,.14-.39C135.33,135.8,135.38,136,135.2,136.05Z"/><path class="cls-11" d="M126.34,159.22c-.08-.08-.23-.11-.15-.28A.23.23,0,0,1,126.34,159.22Z"/><path class="cls-11" d="M124.28,156.91c-.09-.07-.19-.14-.14-.28C124.27,156.68,124.28,156.79,124.28,156.91Z"/><path class="cls-11" d="M135.07,136.31c0-.11,0-.23.14-.27C135.21,136.16,135.19,136.26,135.07,136.31Z"/><path class="cls-15" d="M137.58,130.27l-.15.12a.28.28,0,0,1,.11-.26Z"/><path class="cls-11" d="M123.77,156.25l-.14-.14Z"/><path class="cls-11" d="M123.89,156.38c-.09,0-.12-.06-.14-.14Z"/><path class="cls-11" d="M124.54,157.15l-.17-.13Z"/><path class="cls-11" d="M126.21,159c-.14.05-.19,0-.14-.14Z"/><path class="cls-11" d="M127.24,160.11l-.16-.14Z"/><path class="cls-11" d="M127.88,160.63c-.08,0-.14-.06-.14-.15Z"/><path class="cls-17" d="M175.43,77.31H163a1.33,1.33,0,0,1-.81-.13v-.12h0a2.36,2.36,0,0,0,.36-1.24c0-1.42,0-2.83,0-4.24l0-.57,0-.13-.07-.37a3.31,3.31,0,0,0-1.38-2c0-.47,0-.94,0-1.41,0-.29-.1-.41-.41-.4-.73,0-1.45,0-2.18,0-.54,0-.69.16-.67.68s.22,1-.3,1.42a2.55,2.55,0,0,0-1,1.18,4.68,4.68,0,0,0-.11,1.71l0,4.08v0a.75.75,0,0,0,.06,1c.05,0,.07,0,.06.08a.56.56,0,0,0,.13.37h.07c-1.45.17-2.9,0-4.36.07-.4,0-.35-.29-.35-.54,0-1.67,0-3.34,0-5a.2.2,0,0,1,0-.11,6,6,0,0,0,0-2.56.2.2,0,0,1,0-.11c0-1.63,0-3.28,0-4.91,0-.58-.12-.65-.6-.64q-6,0-11.94,0c-.54,0-.63.2-.62.67,0,1.63,0,3.25,0,4.88v2.8c0,1.62,0,3.25,0,4.88,0,.5-.17.68-.67.67-1.59,0-3.17,0-4.76,0-.53,0-.76-.16-.76-.74q0-9.16,0-18.32c0-.48.14-.62.62-.62q20.3,0,40.57,0a3.88,3.88,0,0,1,.42,0,5.27,5.27,0,0,0-.45,2.33c0,.27,0,.58.34.66v0a.12.12,0,0,0,0,.17l0,0v0c0,.21,0,.43.26.44h0c0,.12,0,.23.19.19l0,0a1,1,0,0,0,0,.74h0c-.25,0-.18.22-.17.38h0c-.21,0-.24.2-.32.35A5.12,5.12,0,0,0,174,64.7a8.12,8.12,0,0,0,.24,2.77c0,.13.08,0,.11,0a.42.42,0,0,0,0-.12c.15.22,0,.53.21.73A28.91,28.91,0,0,0,175.43,77.31Z"/><path class="cls-17" d="M178.32,84.63c-.69,0-1.28.35-1.95.39l-.09-.19-.27.3c-3,1.24-6.1,2.3-8.68,4.35a18.72,18.72,0,0,0-5,6c-.55,1-1.08,2.1-1.57,3.17a.71.71,0,0,1-.76.48c-2.19,0-4.37,0-6.56,0a4.09,4.09,0,0,0,.5-2.3c0-1.34,0-2.69,0-4-.11-.43.12-.95-.36-1.28l-.1-.1-.28-.27h0l-.27-.27v0l-.14-.14h0l-.19-.19a4.51,4.51,0,0,0,.06-1.32c0-.31-.1-.42-.4-.41h-2.1c-.12,0-.25,0-.34.12a3.74,3.74,0,0,0,.14,1.68c0,.13-.24.19-.18.38l0,0c-.28,0-.36.26-.53.41l-.24.23-.14.16v0c-.42.27-.19.69-.25,1v3.88a3.18,3.18,0,0,0,.67,2.4l-16.07,0c-.47,0-.57-.18-.56-.6q0-9.12,0-18.25c0-.46.16-.58.6-.58,7.95,0,15.9,0,23.84,0,2.58,0,5.15-.08,7.72,0,3.72.07,7.43.19,11.15.13.29.74.56,1.61,1.29,1.92,1,.45,1,1.23.95,2.07C178.3,84.11,178.31,84.37,178.32,84.63Zm-40.4,13.24a4.5,4.5,0,0,0,1.79.13h5.12a.93.93,0,0,0,.7-1.39,1.09,1.09,0,0,1,0-.44,10.32,10.32,0,0,0,.22-2.22c0-1.86-.06-3.72-.08-5.58,0-.86-.21-1.08-1-1.34-.47-.14-.88.08-1.32.08-1.55,0-3.09,0-4.63,0s-2.18.32-2,2.1c.09,1.35,0,2.68,0,4a11.13,11.13,0,0,1,.1,2.16,6.24,6.24,0,0,0,.12,2c.06.47.44.51.84.48Z"/><path class="cls-17" d="M210.59,70.11a1.3,1.3,0,0,0-.28,1v5.39c0,.91,0,.91-.88.91h-3.6c0-1.12,0-2.24,0-3.36,0-.31.11-.64-.12-.92,0-1.35,0-2.7,0-4,0-.31-.16-.28-.33-.33.08-.09.29-.07.29-.22a13.31,13.31,0,0,0-.12-3.09c-.17-.19-.4-.12-.61-.12h-3.33c-.23,0-.48-.09-.67.11a12.63,12.63,0,0,0-.11,3.13l0,.19c0,1.47,0,2.94,0,4.4l0,.16a11.24,11.24,0,0,0-.09,2.59,2.11,2.11,0,0,0,.11,1.24v.26H191a1.49,1.49,0,0,1-.75-.12,15.39,15.39,0,0,1,.13-1.79c0-.55.1-1,.81-.7a1,1,0,0,0,.5,0,2.53,2.53,0,0,0,1.81-2.3c0-.62-.3-1.21-.06-1.83a.09.09,0,0,1,.06-.06c.25,0,.22-.22.18-.4h0c.4-.09.33-.36.25-.64l0,0c.3,0,.18-.25.19-.41v0c.07,0,.09-.1,0-.17a.06.06,0,0,1,0-.08c.27.08.28-.14.32-.28a8.62,8.62,0,0,0-.25-5.86.25.25,0,0,0-.24-.17v0c0-.16.09-.38-.2-.41l0,0c0-.25.23-.57-.27-.58V61.4c.11-.26.13-.47-.25-.48v0c.07-.13.06-.23-.12-.25h0c0-.53,0-1.05-.54-1.34h0c.27-.64-.32-1.05-.46-1.65h.65q13,0,26,0c.63,0,.83.12.83.8q0,9.12,0,18.24c0,.62-.17.82-.79.79-.94,0-1.88,0-2.83,0l0-.14c.19-.2.1-.45.11-.68.05-1.08,0-2.16.1-3.24a7.78,7.78,0,0,0-.24-3.14h0c0-.15,0-.3-.13-.39h0c0-.14,0-.3-.14-.39h0c0-.12,0-.23-.17-.26l-.09-.21c0-.22,0-.43-.29-.43l-.09-.13c0-.12,0-.23-.17-.26l-.09-.12c.08-.58-.15-1.19.19-1.75.11-.18-.09-.3-.29-.3-.75,0-1.51,0-2.27,0-.43,0-.63.11-.59.57s0,.94,0,1.41l-1,1.49a.27.27,0,0,0-.14.28h0c-.16.09-.14.24-.14.39Z"/><path class="cls-7" d="M193.44,70.65c-.24.62.1,1.21.06,1.83a2.53,2.53,0,0,1-1.81,2.3,1,1,0,0,1-.5,0c-.71-.25-.78.15-.81.7a15.39,15.39,0,0,0-.13,1.79A16,16,0,0,0,190,80a38.67,38.67,0,0,0,.25,3.88l-.06.64-.75.88h0l-.13.13h0l-.18.13a1.55,1.55,0,0,0-.61.47.63.63,0,0,0-.38.3h0c-.11,0-.21,0-.26.14h0a3.57,3.57,0,0,0-1,.52h0a12.83,12.83,0,0,1-3.62.65c-.64,0-1.27-.17-1.9-.25h0c0-.12-.15-.13-.26-.13h0a2.43,2.43,0,0,0-.77-.39h0l-.77-.41-.14-.09a.21.21,0,0,0-.12,0h0a1.74,1.74,0,0,0-.84-.51c-.16-.41,0-.87-.17-1.28,0-.26,0-.52,0-.77,0-.84.1-1.62-.95-2.07-.73-.31-1-1.18-1.29-1.92s-.43-1.71-.64-2.56a28.91,28.91,0,0,1-.87-9.26c.48,0,.33-.34.32-.59a9.88,9.88,0,0,1,.35-4.42h0l.4-.64h0l.42-.52.21-.25.27-.27h0l.66-.63h0l.62-.41h.1l.15.13h0a.65.65,0,0,0,.39.28v0a5.82,5.82,0,0,0,2.87.94,3.87,3.87,0,0,0,2.7-.42v0c.37-.09.48.29.73.41l.11.08a3.57,3.57,0,0,0,.91.67v0a.58.58,0,0,0,.39.27h0a.62.62,0,0,0,.42.25c1.34.25,1.77,1.23,2.06,2.42a35.61,35.61,0,0,0,1,4.2c.08.2.12.49.32.52s.25-.28.35-.46h0l.14-.14h0a1.84,1.84,0,0,1,1.66-.15l0,0,0,0a.32.32,0,0,0,.33.13h0c0,.1.07.12.14.14v0l.14.14.12.12L193,70h0C193.1,70.21,193.18,70.5,193.44,70.65Zm-6.62,9.52c.07,0,.19,0,.13-.13s-.14,0-.19.07-.07.08-.07.09S186.78,80.21,186.82,80.17Zm-2.46-11.25h0c-.28-.4-.54-.25-.73.07a1.32,1.32,0,0,0,0,1.33c.2.39.56.41.78,0A1.1,1.1,0,0,0,184.36,68.92Zm-1.77-2.41c-.25,0-.3.21-.41.4a8.13,8.13,0,0,1,4.58.35A2.71,2.71,0,0,0,184.58,66a2.07,2.07,0,0,0-2,.5Zm-3.17,16.06a3.63,3.63,0,0,0,3.83,1c1.54-.53,2.39-1.84,3.23-3.15a16.43,16.43,0,0,1-3.23,1.78A9.69,9.69,0,0,1,179.42,82.57Zm-4.27-15.49,3.44-.2c.11,0,.27.07.33-.1s0-.28-.18-.37a.86.86,0,0,0-.54-.16,8.68,8.68,0,0,0-2,.15A1.43,1.43,0,0,0,175.15,67.08Zm5.22,6.86c-.74-1.64-.32-3.36-.34-5A7.23,7.23,0,0,0,180.37,73.94Zm-3.75-4.1c.06.41.06,1,.58,1s.56-.48.57-.86-.05-1-.58-1S176.68,69.45,176.62,69.84Zm2.51,6.66c1.36.1,2.74.59,4-.31C181.84,76.81,180.47,76.47,179.13,76.5Z"/><path class="cls-17" d="M190.28,83.87A38.67,38.67,0,0,1,190,80c7.82,0,15.64,0,23.46,0,1.86,0,3.72.13,5.58.1.41,0,.51.16.51.54q0,9.06,0,18.12c0,.4-.15.52-.53.51-1.07,0-2.14,0-3.21,0a.64.64,0,0,1-.39-.71c0-.42,0-.85,0-1.28s-.13-.45-.46-.45h-4.36c-.33,0-.47.12-.46.45,0,.67,0,1.33,0,2-.56,0-1.12,0-1.67,0s-.6-.14-.73-.53a23.61,23.61,0,0,0-3.31-6.33,16.81,16.81,0,0,0-7-5.44c-1.35-.59-2.69-1.19-4-1.84a.3.3,0,0,0-.27-.13C192.24,84.63,191.12,84.61,190.28,83.87Zm21.33,4.51V89.5a6.16,6.16,0,0,0-1.21,1.93c-.14.28,0,.4.28.4h4.56c.22,0,.43-.09.29-.34-.34-.63-.48-1.38-1.09-1.85l0-1.56a11.81,11.81,0,0,0-2.66-.13s-.08.09-.12.13Zm1.28,3.69h0c-.73,0-1.46,0-2.18,0-.39,0-.41.13-.41.43,0,1.24,0,2.48,0,3.72,0,.4.14.5.52.5,1.39,0,2.78,0,4.17,0,.35,0,.49-.11.48-.47,0-1.26,0-2.52,0-3.78,0-.3,0-.41-.39-.39C214.34,92.09,213.61,92.07,212.89,92.07Z"/><path class="cls-14" d="M192.81,69.85l-.12-.11-.14-.15v0l-.14-.14h0c-.07-.14-.2-.14-.33-.13l0,0,0,0a1,1,0,0,0-1.66.15h0l-.14.14h0c-.37.12-.45-.1-.54-.4-.47-1.46-.65-3-1.11-4.46a2.45,2.45,0,0,0-2.5-2.07h0c0-.3-.18-.3-.39-.27v0a.88.88,0,0,0-.91-.67l-.11-.08c0-.3-.16-.45-.39-.57s-.37-.19-.34.16v0a1.2,1.2,0,0,0-.38,0,6.66,6.66,0,0,1-3.26,0,10.67,10.67,0,0,0-1.93-.56v0c0-.3-.18-.3-.39-.28h0l-.15-.13h-.1c-.41-.16-.58,0-.62.41h0c-.46,0-.67.18-.66.63h0c-.2,0-.29.07-.27.27l-.21.25c-.38,0-.46.2-.42.52h0c-.46,0-.42.33-.4.64h0c-.52.24-.36.85-.72,1.33a3,3,0,0,1,.29-1.44,1.65,1.65,0,0,0-.18-2.08.92.92,0,0,1-.2-.46,4.68,4.68,0,0,1,.69-3.18c.1-.2.29-.37.22-.64l.09-.1c.09,0,.15-.06.16-.15h0c.31,0,.53,0,.51-.4h0c.46,0,.91-.1,1.37-.11.85,0,1.15-.29,1.24-1.21q0-.06.06-.06c.17.17.33,0,.46,0a3.92,3.92,0,0,1,3-.5,19.05,19.05,0,0,0,4.33.58,5.09,5.09,0,0,1,3.19,1,.59.59,0,0,0,.54.13h0c0,.09.07.13.16.14l.23.22c0,.09,0,.16.15.17v0c0,.14,0,.27.17.17,0,0,0,0,0,.06,0,.4.06.75.56.8h0a16.27,16.27,0,0,0,1.31,3.36c1.45,2.94,2.13,5.88.75,9-.16.38-.32.5-.68.37h0Z"/><path class="cls-9" d="M179.45,86.44l.14.09c.08.47.44.4.77.41h0c.1.45.45.4.77.39h0a.25.25,0,0,0,.26.13h0a.73.73,0,0,0,.49.27,9.69,9.69,0,0,0,4.66-.34.48.48,0,0,0,.37-.33h0a.93.93,0,0,0,1-.52h0a.24.24,0,0,0,.26-.14h0c.23,0,.41,0,.38-.3a1.55,1.55,0,0,1,.61-.47l.18-.13h0l.13-.13h0c.28,0,.43.08.33.43-.23.81-.41,1.64-.62,2.46-.05.21-.17.41,0,.59l-.32,1c-.35.16-.32.46-.31.77h0a1.13,1.13,0,0,0-.26.9h0c-.14.06-.15.15,0,.24l-.08.15c-.13,0-.16.13-.15.25h0c-.17.09-.14.24-.13.39h0c-.13,0-.14.16-.13.28a.31.31,0,0,1,0,.1c-.35.05-.24.31-.25.52h0a1.35,1.35,0,0,0-.52,1.15h0a1,1,0,0,0-.34.53c-.39,1.1-.76,2.21-1.15,3.3a1.59,1.59,0,0,0-.06.57.33.33,0,0,1,0,.1,1.54,1.54,0,0,0-.38,1.16h0c-.39.24-.39.64-.39,1h0a9.33,9.33,0,0,0-1.29,3.6h0c-.49.4-.34,1.12-.73,1.6-.07-.07-.13-.11-.14-.16-.66-2.37-1.44-4.71-2-7.12-.08-.36-.07-.77-.41-1l0,0c0-.17.06-.36-.17-.45l-.08-.26q.28-.27,0-.51h0a11.38,11.38,0,0,0-.65-3.22h0a5.57,5.57,0,0,0,0-.82,50.69,50.69,0,0,1-.48-6c0-.41.18-.52.53-.5h0C179.36,86.49,179.4,86.51,179.45,86.44Z"/><path class="cls-7" d="M178.94,129.9l-8,0,.43-.34.13-.12s.07-.08.07-.09-.1,0-.14,0l-.14.12a2.49,2.49,0,0,1-1.66.13,7.61,7.61,0,0,1,2.28-2.54,12,12,0,0,1,4.63-2.63,7.17,7.17,0,0,1,3.16,0,3.84,3.84,0,0,0,.89.09h.13l1.21.09c1.05,0,1.1,0,1.22,1a20.66,20.66,0,0,1,.36,4.23l-.36.05h-4.23Zm-7.11-.73,0,0s0,0,0,0l0,0Z"/><path class="cls-8" d="M216,77.29l0,.14a1.19,1.19,0,0,1-.62.11c-1.41,0-2.82,0-4.23,0-.47,0-.69-.08-.68-.63,0-1.75,0-3.51,0-5.26,0-.51.09-1,.14-1.53h0c.14-.1.12-.25.14-.39h0l.14-.28,1-1.49a8.35,8.35,0,0,1,2.95.1l.09.12c.06.08.11.17.17.26l.09.13.29.43.09.21c.06.08.11.17.17.26h0c0,.15,0,.3.14.39h0c0,.14,0,.3.13.39h0Z"/><path class="cls-8" d="M200.8,77.43v-.26c0-1.28,0-2.55,0-3.83l0-.16a8.17,8.17,0,0,0,4.87,0c.23.28.11.61.12.92,0,1.12,0,2.24,0,3.36Z"/><path class="cls-5" d="M210.19,99.28c0-.66,0-1.32,0-2,0-.33.13-.45.46-.45H215c.33,0,.47.11.46.45s0,.86,0,1.28a.64.64,0,0,0,.39.71Z"/><path class="cls-8" d="M169.68,129.9c.25.23.58,0,.85.24H148.46v-.26h19c.6,0,.71-.13.65-.74-.16-1.64-.21-3.29-.29-4.93q-.28-5.42-.55-10.83c-.18-3.67-.33-7.35-.53-11a43.89,43.89,0,0,1-.14-5.38c0,.38.11.76.13,1.14.11,2.28.19,4.57.3,6.85.19,3.61.41,7.22.6,10.82.11,2.1.19,4.19.3,6.28.12,2.48.26,5,.38,7.43,0,.28.11.39.38.37h.77Z"/><path class="cls-18" d="M152.05,69a.2.2,0,0,0,0,.11v2.56a.2.2,0,0,0,0,.11H139V69Zm-6.62.23h-4.75c-1.62,0-1.58,0-1.62,1.6,0,.63.22.73.77.73,3.45,0,6.89,0,10.34,0,1.65,0,1.63,0,1.65-1.63,0-.52-.12-.71-.67-.7C149.24,69.22,147.34,69.2,145.43,69.2Z"/><path class="cls-8" d="M181.71,124.23c.93-.2,1.87-.38,2.8-.59,3.7-.86,7.34-2,11.08-2.68,2.16-.42,4.27-1,6.46-1.31a29.67,29.67,0,0,1,3.53-.05.25.25,0,0,1,.27.21l-1.24-.06a24.38,24.38,0,0,0-5.76.73c-3.57.77-7.14,1.55-10.67,2.47-2,.52-4.05,1.06-6.12,1.39a3,3,0,0,1-.31,0Z"/><path class="cls-13" d="M175.33,56.57c.07.27-.12.44-.22.64a4.68,4.68,0,0,0-.69,3.18.92.92,0,0,0,.2.46,1.65,1.65,0,0,1,.18,2.08,3,3,0,0,0-.29,1.44c.36-.48.2-1.09.72-1.33a9.88,9.88,0,0,0-.35,4.42c0,.25.16.59-.32.59-.21-.2-.06-.51-.21-.73a8.86,8.86,0,0,1,.26-4.65h0l.17-.38h0c.12-.25.34-.48,0-.74l0,0-.19-.19h0l-.26-.44v0l0,0,0-.17v0A4.57,4.57,0,0,1,175.33,56.57Zm-.77,8.79-.09,0a.55.55,0,0,0,0,.17c0,.08-.08.23.09.2A1.77,1.77,0,0,0,174.56,65.36Zm.06,1.81a.37.37,0,0,0,0-.44A.46.46,0,0,0,174.62,67.17Z"/><path class="cls-13" d="M192.94,70c.36.13.52,0,.68-.37,1.38-3.16.7-6.1-.75-9a16.27,16.27,0,0,1-1.31-3.36,8.89,8.89,0,0,1,1.05,2.06h0l.54,1.34h0l.12.25v0l.25.48v.05l.27.58,0,0,.2.41v0a9.19,9.19,0,0,1,.17,6.31.06.06,0,0,0,0,.08l0,.17v0c-.06.14-.13.27-.19.41l0,0c-.09.21-.17.43-.25.64h0l-.18.4a.09.09,0,0,0-.06.06C193.18,70.5,193.1,70.21,192.94,70Z"/><path class="cls-8" d="M180.74,124.49h-.13a78.69,78.69,0,0,1,.35-9,37.19,37.19,0,0,1,1.3-7,4.23,4.23,0,0,1,.25-.58l.08.08c-.38,1.3-.69,2.62-1,4a3.94,3.94,0,0,0-.11,1.13h0c-.16.06-.14.14,0,.23l0,.06a3.69,3.69,0,0,0-.38,2c-.19,2-.33,4.07-.33,6.11C180.82,122.53,180.77,123.51,180.74,124.49Z"/><path class="cls-18" d="M156.57,76.87c0-.05,0-.08-.06-.08l-.06-1v0a9.64,9.64,0,0,0,2.08.1c1.36,0,2.72,0,4.07-.06a2.36,2.36,0,0,1-.36,1.24.85.85,0,0,1,0-.32c.27-.66,0-.74-.62-.73-1.46,0-2.93.1-4.39,0-.18,0-.41-.08-.51.16a.74.74,0,0,0,.1.61c.15.29.42.25.67.25h4.74v.12a.58.58,0,0,1-.42.11l-5,0h-.07A.32.32,0,0,0,156.57,76.87Z"/><path class="cls-8" d="M193.22,85a.3.3,0,0,1,.27.13c.14,1.4.31,2.8.42,4.2a20.89,20.89,0,0,1,0,3.71c0,.43-.21.64-.69.59a6.62,6.62,0,0,0-1.82.09l.51,1.1a2,2,0,0,1-.72-1.15c-.06-.26.18-.21.3-.2.57.07,1.13-.19,1.71,0,.43.12.51-.21.51-.53,0-1.24.05-2.49,0-3.72C193.6,87.81,193.38,86.41,193.22,85Z"/><path class="cls-13" d="M190.27,55.69a.59.59,0,0,1-.54-.13,5.09,5.09,0,0,0-3.19-1,19.05,19.05,0,0,1-4.33-.58,3.92,3.92,0,0,0-3,.5c-.13.09-.29.21-.46,0a3.84,3.84,0,0,1,3.73-.72c1.76.42,3.54.4,5.3.71A4.61,4.61,0,0,1,190.27,55.69Z"/><path class="cls-8" d="M174.72,96.48a24.81,24.81,0,0,0,2,4.44c1,2.06,2,4.17,3.11,6.18,0,0,0,.08,0,.17a1.14,1.14,0,0,1-.5-.62c-1.54-3.1-3.18-6.15-4.54-9.34-.12-.28-.34-.57-.12-.91Z"/><path class="cls-8" d="M198.45,107.42q1.08,6.1,2.17,12.19c-1-4-1.58-8.1-2.36-12.15Z"/><path class="cls-8" d="M176,85.13l.27-.3.09.19a18.77,18.77,0,0,0-1.67,5.21c-.16.88-.37,1.75-.59,2.62-.08.34,0,.49.36.53a17.42,17.42,0,0,0,2.16.25c.05.22-.13.3-.23.42l-.06-.06c0-.27-.21-.2-.37-.22-.47,0-.93-.08-1.4-.15-.67-.1-.77-.25-.62-.93A38.11,38.11,0,0,1,176,85.13Z"/><path class="cls-8" d="M180.19,98.23c.34.27.33.68.41,1,.54,2.41,1.32,4.75,2,7.12,0,0,.07.09.14.16.39-.48.24-1.2.73-1.6a15.34,15.34,0,0,1-.73,2.44,25,25,0,0,1-.9-2.87c-.57-1.87-1.09-3.76-1.54-5.66C180.23,98.65,180.22,98.44,180.19,98.23Z"/><path class="cls-11" d="M149.4,99.14a3.18,3.18,0,0,1-.67-2.4c.3.05.64,0,.89.22-.05,0-.11.1-.15.09-.6-.2-.69,0-.51.55,0,.08,0,.17,0,.25.19.72.47,1.28,1.37,1.19a20,20,0,0,1,2.05,0c1,0,1.28-.24,1.34-1.28,0-.45,0-.77-.62-.58a3.86,3.86,0,0,1-1.08,0c-.17,0-.15-.1-.11-.21h.39c.09.1.17.1.26,0l1.4-.14a4.09,4.09,0,0,1-.5,2.3Z"/><path class="cls-8" d="M179.33,86.42c-.35,0-.55.09-.53.5a50.69,50.69,0,0,0,.48,6,5.57,5.57,0,0,1,0,.82,10.35,10.35,0,0,1-.5-2.86c-.14-1.66-.21-3.33-.32-5A1.74,1.74,0,0,1,179.33,86.42Z"/><path class="cls-8" d="M189.22,88.87c-.21-.18-.09-.38,0-.59.21-.82.39-1.65.62-2.46.1-.35-.05-.42-.33-.43l.75-.88c.11.26,0,.5-.09.74C189.84,86.46,189.52,87.66,189.22,88.87Z"/><path class="cls-8" d="M185.5,99.06a1.59,1.59,0,0,1,.06-.57c.39-1.09.76-2.2,1.15-3.3a1,1,0,0,1,.34-.53,11.91,11.91,0,0,1-.81,2.47A6.76,6.76,0,0,1,185.5,99.06Z"/><path class="cls-8" d="M191.48,99c.32-.66.6-1.35,1-2a.94.94,0,0,0,0-1l.09-.08a.78.78,0,0,1,.08,1.13c-.43.63-.63,1.4-1.11,2Z"/><path class="cls-8" d="M183.45,105a9.33,9.33,0,0,1,1.29-3.6A32.82,32.82,0,0,1,183.45,105Z"/><path class="cls-13" d="M178.69,54.62c-.09.92-.39,1.2-1.24,1.21-.46,0-.91.07-1.37.11a1.81,1.81,0,0,1,1.59-.35c.35.07.47,0,.56-.31A1.33,1.33,0,0,1,178.69,54.62Z"/><path class="cls-8" d="M179.31,93.76A11.38,11.38,0,0,1,180,97,9.88,9.88,0,0,1,179.31,93.76Z"/><path class="cls-8" d="M188.93,103.11l1.28-2.17.16.09A11.33,11.33,0,0,1,189,103.2Z"/><path class="cls-12" d="M169.68,129.9l-.26,0,.23-.27a2.49,2.49,0,0,0,1.66-.13l.08.07-.43.34Z"/><path class="cls-8" d="M189,103.2a5.51,5.51,0,0,1-1,1.42l-.1-.09a8.79,8.79,0,0,1,1-1.42Z"/><path class="cls-8" d="M191.57,99.06a2.55,2.55,0,0,1-.75,1.09,3,3,0,0,1,.66-1.18Z"/><path class="cls-8" d="M183.89,110.15a2.32,2.32,0,0,1,.83-1.06,2.86,2.86,0,0,1-.74,1.15Z"/><path class="cls-8" d="M187.05,94.66a1.35,1.35,0,0,1,.52-1.15A2.13,2.13,0,0,1,187.05,94.66Z"/><path class="cls-8" d="M182.22,112.46a1.92,1.92,0,0,1,.71-.91,2.06,2.06,0,0,1-.63,1Z"/><path class="cls-8" d="M183,111.48a1,1,0,0,1,.51-.73A1,1,0,0,1,183,111.48Z"/><path class="cls-13" d="M191.57,57.22c-.5,0-.56-.4-.56-.8A2.75,2.75,0,0,1,191.57,57.22Z"/><path class="cls-8" d="M185.12,100.32a1.54,1.54,0,0,1,.38-1.16A1.8,1.8,0,0,1,185.12,100.32Z"/><path class="cls-8" d="M187,105.91a1.43,1.43,0,0,1,.5-.77l.1.09a2.79,2.79,0,0,1-.51.77Z"/><path class="cls-8" d="M184.73,101.35c0-.39,0-.79.39-1A2,2,0,0,1,184.73,101.35Z"/><path class="cls-5" d="M148.46,129.88v.26a.89.89,0,0,1,.12.53,1.5,1.5,0,0,1-.36-.8Z"/><path class="cls-8" d="M188,104.62a1.45,1.45,0,0,1-.43.61l-.1-.09a1.34,1.34,0,0,1,.43-.61Z"/><path class="cls-13" d="M176.08,55.93c0,.38-.2.44-.51.4A1,1,0,0,1,176.08,55.93Z"/><path class="cls-8" d="M190.73,100.29a.5.5,0,0,1-.28.51A.45.45,0,0,1,190.73,100.29Z"/><path class="cls-8" d="M185.17,108.6a.67.67,0,0,1-.41.48c0-.29.17-.42.32-.57Z"/><path class="cls-8" d="M185.08,108.51a1.29,1.29,0,0,1,.38-.51l.09.09a.85.85,0,0,1-.38.51Z"/><path class="cls-8" d="M188.59,90.68c0-.31,0-.61.31-.77C188.82,90.17,188.85,90.48,188.59,90.68Z"/><path class="cls-8" d="M188.33,91.58a1.13,1.13,0,0,1,.26-.9A1.28,1.28,0,0,1,188.33,91.58Z"/><path class="cls-8" d="M186.32,107.06a.8.8,0,0,1-.37.51l-.1-.09a1.2,1.2,0,0,1,.38-.51Z"/><path class="cls-8" d="M192.51,96a.64.64,0,0,1-.29-.58.7.7,0,0,1,.38.5Z"/><path class="cls-8" d="M181.87,112.89a.69.69,0,0,1,.35-.43l.08.09a.71.71,0,0,1-.34.42Z"/><path class="cls-8" d="M184,110.24c-.08.16-.12.35-.37.34,0-.23.13-.33.28-.43Z"/><path class="cls-8" d="M182,113a1.33,1.33,0,0,1-.42.49l0-.06,0-.23h0l.36-.28Z"/><path class="cls-8" d="M187.56,93.51c0-.21-.1-.47.25-.52A.67.67,0,0,1,187.56,93.51Z"/><path class="cls-8" d="M180.32,108.18a.45.45,0,0,1-.2-.41c.2,0,.25.18.29.33Z"/><path class="cls-8" d="M175.88,94.81a.7.7,0,0,1-.26.39l-.08-.09a.54.54,0,0,1,.25-.37Z"/><path class="cls-8" d="M181.09,109.34l-.26-.38.1-.09a.52.52,0,0,1,.25.38Z"/><path class="cls-8" d="M175.39,95.49a.59.59,0,0,1-.25.38l-.09-.08a.7.7,0,0,1,.26-.39Z"/><path class="cls-8" d="M180.83,109c-.09-.12-.31-.26-.13-.39s.17.18.23.3Z"/><path class="cls-8" d="M174.63,96.4a.6.6,0,0,1,.26-.38l.09.08c-.08.13-.17.26-.26.38Z"/><path class="cls-8" d="M187.07,106l-.26.39a.76.76,0,0,0-.09-.09.56.56,0,0,1,.26-.39Z"/><path class="cls-8" d="M186.46,106.68a.55.55,0,0,1,.26-.38.76.76,0,0,1,.09.09l-.25.38Z"/><path class="cls-8" d="M186.23,107c.08-.1.16-.19.23-.29l.1.09-.24.29Z"/><path class="cls-8" d="M180.41,108.1c.09.07.26.17.14.27s-.17-.09-.23-.19Z"/><path class="cls-8" d="M181.57,109.82l-.08.07-.09-.14s.08,0,.1,0S181.54,109.78,181.57,109.82Z"/><path class="cls-8" d="M180,97q.28.24,0,.51Z"/><path class="cls-8" d="M176,94.5c0-.1.13-.25.19-.2s0,.2-.1.28Z"/><path class="cls-8" d="M181.18,109.25c.09.08.25.18.14.28s-.17-.09-.23-.19Z"/><path class="cls-8" d="M175.31,95.4c.08-.09.15-.19.23-.29l.08.09a.44.44,0,0,1-.23.29Z"/><path class="cls-8" d="M185.46,108a.45.45,0,0,1,.23-.29l.09.09a.44.44,0,0,1-.23.29Z"/><path class="cls-8" d="M179.85,107.48l.09-.08s.1.08.12.13,0,.15-.1.09S179.89,107.52,179.85,107.48Z"/><path class="cls-8" d="M192.16,95.17l0,.12c-.05,0-.11-.05-.14-.1s0-.09.05-.13Z"/><path class="cls-8" d="M180,97.75c.23.09.17.28.17.45C180.05,98.09,180.09,97.9,180,97.75Z"/><path class="cls-8" d="M188,92.61c0-.15,0-.3.13-.39A.35.35,0,0,1,188,92.61Z"/><path class="cls-8" d="M174.89,96a1.88,1.88,0,0,1,.16-.23l.09.08-.16.23Z"/><path class="cls-8" d="M186,107.57l-.17.23-.09-.09.16-.23Z"/><path class="cls-8" d="M188.31,91.82c-.12-.09-.11-.18,0-.24Z"/><path class="cls-8" d="M187.82,92.89c0-.12,0-.23.13-.28A.26.26,0,0,1,187.82,92.89Z"/><path class="cls-8" d="M188.08,92.22c0-.12,0-.22.15-.25C188.2,92.06,188.21,92.19,188.08,92.22Z"/><path class="cls-13" d="M191,56.36c-.21.1-.19,0-.17-.17Z"/><path class="cls-8" d="M176,94.58l-.16.23-.09-.07.16-.24Z"/><path class="cls-8" d="M176.4,94.05l-.11.06.05-.12Z"/><path class="cls-13" d="M190.42,55.82c-.09,0-.15,0-.16-.14Z"/><path class="cls-13" d="M190.8,56.21c-.1,0-.14-.08-.15-.17Z"/><path class="cls-13" d="M175.58,56.32c0,.09-.07.13-.16.15Z"/><path class="cls-8" d="M182.51,108l.12-.06s0,.09,0,.14Z"/><path class="cls-17" d="M155.8,137c5.78,0,11.57,0,17.35,0,8.06-.09,16.11-.09,24.17-.09h.77c-.13.4-.47.22-.71.22H156.53C156.29,137.08,156,137.17,155.8,137Z"/><path class="cls-10" d="M116,72.93a7,7,0,0,1-1.3,3.28c-.33.47-.49.43-.73-.11s-.37-.9-.56-1.35c.44,0,.35.42.5.64s.15.67.47.69.44-.39.55-.64c.31-.7.55-1.42.81-2.14C115.83,73.14,115.8,73,116,72.93Z"/><path class="cls-10" d="M109.53,74.76c-1.09,1.83-.51,3.53.39,5.22a.24.24,0,0,1-.28-.11c-.8-1.48-1.31-3-.56-4.67C109.17,75,109.2,74.72,109.53,74.76Z"/><path class="cls-10" d="M112.7,73.86a2.29,2.29,0,0,0-2.74.41s-.06-.09,0-.12a2.07,2.07,0,0,1,2.77-.42S112.7,73.81,112.7,73.86Z"/><path class="cls-10" d="M110.28,80.5l1.29,1.29A1.73,1.73,0,0,1,110.28,80.5Z"/><path class="cls-10" d="M117.24,72a4.14,4.14,0,0,1-1.18.79A1.13,1.13,0,0,1,117.24,72Z"/><path class="cls-10" d="M112.09,82.15a2.65,2.65,0,0,1,.91.61A.81.81,0,0,1,112.09,82.15Z"/><path class="cls-10" d="M117.89,71.28a1.66,1.66,0,0,1-.54.66C117.33,71.56,117.45,71.3,117.89,71.28Z"/><path class="cls-10" d="M110.82,94.8a2.24,2.24,0,0,1-.41.78C110.38,95.23,110.34,94.88,110.82,94.8Z"/><path class="cls-10" d="M109.91,80l.38.53C109.92,80.51,109.86,80.28,109.91,80Z"/><path class="cls-10" d="M109.93,74.29l-.41.47C109.5,74.46,109.49,74.18,109.93,74.29Z"/><path class="cls-10" d="M113.09,74.24l-.4-.39C113,73.79,113.13,73.93,113.09,74.24Z"/><path class="cls-10" d="M111.69,81.92a.52.52,0,0,1,.41.24C111.89,82.2,111.7,82.21,111.69,81.92Z"/><path class="cls-10" d="M113.46,74.76l-.27-.41C113.5,74.35,113.5,74.54,113.46,74.76Z"/><path class="cls-10" d="M111.56,81.79l.13.14Z"/><path class="cls-10" d="M118,71.13l-.11.16Z"/><path class="cls-12" d="M145.38,131.15c0,.08,0,.19,0,.25.91,1.56.51,3.18.17,4.78s-.35,1.46-1.85,1.68-3.14.59-4.74.67c.09-2,.2-3.95.25-5.92,0-1.21.19-2.41.27-3.61a8.49,8.49,0,0,1,4.58,1.25l.16.15h0a.25.25,0,0,0,.26.13h0l.14.13h0a.26.26,0,0,0,.27.14l.12.08c0,.14.13.17.25.18Z"/><path class="cls-9" d="M149.65,136.53c0,.19,0,.41-.31.41a26.76,26.76,0,0,1-3.69-.1,26.55,26.55,0,0,0,.5-3.45,3.82,3.82,0,0,0-.67-2.22,6.25,6.25,0,0,1,.79-1.31l.65,0,.15.12h0c0,.12,0,.23.13.28h0c0,.14,0,.3.13.39h0c0,.12,0,.23.14.27h0c0,.15-.05.31.14.39h0c0,.25-.06.53.27.64h0c0,.39,0,.8.4,1,0,.15-.06.3.11.4,0,.11,0,.22.15.24,0,.26-.1.53.25.64,0,.26-.09.53.26.65,0,.26-.08.53.26.65h0c0,.14,0,.31.14.39h0c0,.26-.07.54.28.65Z"/><path class="cls-12" d="M145.75,122.22c-.21-1.59.19-3.24-.63-4.83C145.92,117.89,146,120.4,145.75,122.22Z"/><path class="cls-13" d="M141.74,121.24l.95-2.14c.13,1-.48,1.56-.85,2.23Z"/><path class="cls-16" d="M146.92,129.88l-.65,0c.18-.29.36-.57.53-.86.08.29.15.58.22.88Z"/><path class="cls-13" d="M141.37,121.89a1.51,1.51,0,0,1,.37-.65l.1.09-.37.64Z"/><path class="cls-11" d="M145.24,131c-.12,0-.22,0-.25-.18Z"/><path class="cls-11" d="M144.87,130.78a.26.26,0,0,1-.27-.14Z"/><path class="cls-11" d="M144.48,130.52a.25.25,0,0,1-.26-.13A.29.29,0,0,1,144.48,130.52Z"/><path class="cls-11" d="M144.23,130.4l-.16-.15Z"/><path class="cls-11" d="M144.61,130.65l-.14-.13Z"/><path class="cls-9" d="M179.2,129.9h4a14.81,14.81,0,0,1-3,.1C179.87,130,179.51,130.12,179.2,129.9Z"/><path class="cls-15" d="M150.78,137c-.16.58-.45.42-.77.14a3.69,3.69,0,0,0-.87-2v0a.45.45,0,0,0,0-.42l-.89-2.25c0-.08-.16-.12-.24-.18h0c.13-.62-.27-1.1-.45-1.64a2.2,2.2,0,0,1-.09-1.64,10.81,10.81,0,0,1,.8,1.78c.09.16.08.39.33.41h0c0,.4-.06.81.4,1h0c0,.27-.08.54.24.68a.06.06,0,0,1,0,.08c0,.24,0,.46.27.55h0c0,.15-.06.32.15.39h0a1.31,1.31,0,0,0,.53,1.29h0c0,.27-.11.55.25.66h0c0,.39-.06.82.41,1h0Z"/><path class="cls-5" d="M148.23,133c-.42-.23-.39-.64-.4-1l.2.3h0c.07.24.14.48.2.72Z"/><path class="cls-5" d="M148.56,130.66a.73.73,0,0,1,.27.78h0l-.2-.31h0Z"/><path class="cls-5" d="M147.84,131.93c-.33-.11-.27-.39-.27-.64A1,1,0,0,1,147.84,131.93Z"/><path class="cls-15" d="M147.12,129.07s0,.07,0,.11,0,.06,0,.09-.05-.07-.05-.1S147.1,129.11,147.12,129.07Z"/><path class="cls-5" d="M147.58,131.29c-.19-.08-.14-.24-.14-.39A.42.42,0,0,1,147.58,131.29Z"/><path class="cls-5" d="M147.31,130.65c-.17-.09-.13-.25-.13-.39A.37.37,0,0,1,147.31,130.65Z"/><path class="cls-5" d="M147.45,130.91c-.14,0-.15-.15-.14-.27C147.47,130.67,147.43,130.8,147.45,130.91Z"/><path class="cls-5" d="M147.19,130.27c-.14-.05-.14-.16-.13-.28C147.19,130,147.18,130.16,147.19,130.27Z"/><path class="cls-5" d="M146.92,129.88h.1l0,.12Z"/><path class="cls-5" d="M149.87,134.13a3.23,3.23,0,0,1,.75,1.94h0l-.2-.31h0a1.3,1.3,0,0,0-.25-.66h0c-.11-.33-.21-.66-.32-1Z"/><path class="cls-5" d="M149.46,133.12c.42.22.39.63.41,1h0l-.21-.29h0a.52.52,0,0,0-.15-.39h0l-.07-.35Z"/><path class="cls-5" d="M149.25,132.92a.06.06,0,0,0,0-.08l0-.38h0c.32.13.28.39.24.66h0Z"/><path class="cls-5" d="M149,131.69a.78.78,0,0,1,.25.77h0l-.21-.3h0l-.12-.43Z"/><path class="cls-5" d="M148.83,131.44c.13,0,.14.14.14.25l-.07.05-.08-.29Z"/><path class="cls-5" d="M149.26,135.53c-.34-.12-.29-.39-.26-.65h0l.14.19v0Z"/><path class="cls-5" d="M149.65,136.56c-.35-.11-.29-.39-.28-.65A1.06,1.06,0,0,1,149.65,136.56Z"/><path class="cls-5" d="M149.38,135.92c-.18-.08-.14-.25-.14-.39C149.38,135.62,149.37,135.78,149.38,135.92Z"/><path class="cls-14" d="M150.78,137l0-.17c0,.05,0,.11.07.17h-.11Z"/><path class="cls-14" d="M150.41,135.77l.2.31.21.71C150.35,136.59,150.42,136.16,150.41,135.77Z"/><path class="cls-3" d="M152.05,69H139c0-1.63,0-3.25,0-4.88,0-.47.08-.68.62-.67q6,0,11.94,0c.48,0,.63.06.6.64C152,65.69,152.06,67.34,152.05,69Z"/><path class="cls-3" d="M162.59,75.82c-1.35,0-2.71.05-4.07.06a9.64,9.64,0,0,1-2.08-.1c0-1.36,0-2.72,0-4.08a40.35,40.35,0,0,0,6.12-.12C162.59,73,162.59,74.4,162.59,75.82Z"/><path class="cls-19" d="M156.57,70a2.55,2.55,0,0,1,1-1.18,3,3,0,0,1,1.65-.24,13.24,13.24,0,0,0,1.89,0,3.31,3.31,0,0,1,1.38,2c-.09.52-.19,1-.89,1-1.51,0-3,0-4.53,0-.29,0-.34-.16-.36-.41S156.81,70.34,156.57,70Z"/><path class="cls-18" d="M161.08,68.56a13.24,13.24,0,0,1-1.89,0,3,3,0,0,0-1.65.24c.52-.38.31-.94.3-1.42s.13-.72.67-.68c.73.05,1.45.05,2.18,0,.31,0,.42.11.41.4C161.09,67.62,161.09,68.09,161.08,68.56Z"/><path class="cls-18" d="M156.57,70c.24.35.08.74.11,1.11s.07.41.36.41c1.51,0,3,0,4.53,0,.7,0,.8-.47.89-1,0,.12,0,.24.07.37s0,0,0,0a.32.32,0,0,0,0,.09l0,.57a40.35,40.35,0,0,1-6.12.12A4.68,4.68,0,0,1,156.57,70Z"/><path class="cls-3" d="M174.61,62.67a8.86,8.86,0,0,0-.26,4.65.42.42,0,0,1,0,.12s-.09.16-.11,0A8.12,8.12,0,0,1,174,64.7a5.12,5.12,0,0,1,.33-1.68C174.37,62.87,174.4,62.7,174.61,62.67Z"/><path class="cls-3" d="M152.08,71.64V69.08A6,6,0,0,1,152.08,71.64Z"/><path class="cls-3" d="M156.45,75.76l.06,1A.75.75,0,0,1,156.45,75.76Z"/><path class="cls-3" d="M174.78,61.57c.3.26.08.49,0,.74A1,1,0,0,1,174.78,61.57Z"/><path class="cls-3" d="M174.32,60.91l.26.44C174.27,61.34,174.31,61.12,174.32,60.91Z"/><path class="cls-3" d="M174.76,62.3l-.17.38C174.58,62.52,174.51,62.34,174.76,62.3Z"/><path class="cls-3" d="M156.57,76.87a.32.32,0,0,1,.13.36A.52.52,0,0,1,156.57,76.87Z"/><path class="cls-3" d="M174.57,61.35l.19.19C174.59,61.58,174.58,61.47,174.57,61.35Z"/><path class="cls-3" d="M174.26,60.68l0,.17A.12.12,0,0,1,174.26,60.68Z"/><path class="cls-19" d="M162.55,71a.32.32,0,0,1,0-.09s0,0,0,0A.59.59,0,0,1,162.55,71Z"/><path class="cls-5" d="M137.68,97.86c-.4,0-.78,0-.84-.48a6.24,6.24,0,0,1-.12-2,11.13,11.13,0,0,0-.1-2.16c0-1.34.12-2.67,0-4-.13-1.78.59-2.05,2-2.1s3.08,0,4.63,0c.44,0,.85-.22,1.32-.08.82.26,1,.48,1,1.34,0,1.86,0,3.72.08,5.58a10.32,10.32,0,0,1-.22,2.22,1.09,1.09,0,0,0,0,.44.93.93,0,0,1-.7,1.39c-.18-.12-.34-.19-.27-.52.15-.77-.05-1.57.14-2.37s-.46-1.38,0-2.14a1.16,1.16,0,0,0-.2-.9.39.39,0,0,1,0-.48,1.64,1.64,0,0,0,.15-1.36,3.88,3.88,0,0,1,.06-1.32c.19-1.26.19-1.28-1.06-1.42-.78-.08-1,.12-1,.91a20.11,20.11,0,0,1,.07,2.58,11.29,11.29,0,0,0,0,1.84,4.68,4.68,0,0,1,0,2.2c-.09.22.08.5.21.72s.2.25.11.34c-.62.56-.25,1.29-.34,1.93h-2.85v-.26c.44-.23.26-.63.19-.95s-.24-.73,0-1.14a1,1,0,0,0,0-.81c-.22-.5-.55-.86,0-1.47a1.27,1.27,0,0,0-.22-1.58.2.2,0,0,1,0-.33,1.2,1.2,0,0,0,.25-1.14,8.82,8.82,0,0,1,0-1.26c.11-1.28-.11-1.48-1.37-1.47h-.07c-.6,0-.86.2-.84.82a7.66,7.66,0,0,1,0,2.39.71.71,0,0,0,.23.86c.14.09.06.2,0,.32a1.15,1.15,0,0,0,.19,1.62c.19.19.35.41.08.59a1.1,1.1,0,0,0-.5,1,1.13,1.13,0,0,0,.66,1.14c-.68,0-.67.29-.66.6S137.67,97.54,137.68,97.86Z"/><path class="cls-3" d="M154,96.86l-1.4.14h-.65L149.62,97c-.25-.24-.59-.17-.89-.22,0-1.29,0-2.59,0-3.88a19.64,19.64,0,0,0,5.25,0Z"/><path class="cls-9" d="M137.68,97.86c0-.32,0-.64,0-1s0-.63.66-.6a1.13,1.13,0,0,1-.66-1.14,1.1,1.1,0,0,1,.5-1c.27-.18.11-.4-.08-.59a1.15,1.15,0,0,1-.19-1.62c.08-.12.16-.23,0-.32a.71.71,0,0,1-.23-.86,7.66,7.66,0,0,0,0-2.39c0-.62.24-.87.84-.82h.07c1.26,0,1.48.19,1.37,1.47a8.82,8.82,0,0,0,0,1.26,1.2,1.2,0,0,1-.25,1.14.2.2,0,0,0,0,.33,1.27,1.27,0,0,1,.22,1.58c-.51.61-.18,1,0,1.47a1,1,0,0,1,0,.81c-.26.41-.1.75,0,1.14s.25.72-.19.95c0-.3.09-.61-.11-.89-.33-.52-.84-.25-1.25-.22s-.16.43-.19.66a3.63,3.63,0,0,0,0,.57h-.52Zm1.17-6.53c.42,0,.78.07.74-.55s-.16-.73-1-.74c-.56,0-.41.39-.46.71C138.1,91.32,138.42,91.39,138.85,91.33Zm.06.89c-.41,0-.76-.09-.76.53s.23.68.72.65.74.06.74-.56S139.38,92.13,138.91,92.22Zm-.16-2.69c.44,0,.86.13.85-.52s-.25-.68-.74-.66-.72,0-.71.58S138.37,89.6,138.75,89.53Zm.21,5.12c-.4,0-.77-.05-.76.5s.28.69.81.68.57-.2.59-.64S139.37,94.58,139,94.65Z"/><path class="cls-9" d="M142.56,98c.09-.64-.28-1.37.34-1.93.09-.09-.05-.23-.11-.34s-.3-.5-.21-.72a4.68,4.68,0,0,0,0-2.2,11.29,11.29,0,0,1,0-1.84,20.11,20.11,0,0,0-.07-2.58c0-.79.23-1,1-.91,1.25.14,1.25.16,1.06,1.42a3.88,3.88,0,0,0-.06,1.32,1.64,1.64,0,0,1-.15,1.36.39.39,0,0,0,0,.48,1.16,1.16,0,0,1,.2.9c-.42.76.19,1.47,0,2.14s0,1.6-.14,2.37c-.07.33.09.4.27.52Zm1-7.91c-.11.08-.55-.29-.59.22-.07.81.1,1,.7,1,.43,0,.73,0,.71-.59S144.27,89.91,143.56,90.08Zm.26-2.12c-.45,0-.88-.12-.88.48s.18.77.87.82.52-.29.55-.67C144.42,88.06,144.2,87.88,143.82,88Zm-.17,7.59c.46.08.69,0,.72-.58,0-1-.72-.49-1.09-.65s-.35.18-.35.43C142.94,95.23,143,95.7,143.65,95.55Zm0,2c.47.09.72,0,.72-.6s-.29-.54-.67-.54-.77,0-.78.6S143.23,97.65,143.65,97.6Zm.07-4.24c.5.13.63-.09.65-.59,0-.73-.48-.6-.88-.67s-.43.29-.46.61C143,93.21,143.13,93.5,143.72,93.36Z"/><path class="cls-12" d="M153.51,91.44l.1.1c0,.13,0,.26,0,.38.17.74.12.71-.64.83a19,19,0,0,1-3.11,0c-.94,0-.94,0-.94-.92v0l.14-.16.24-.23a.57.57,0,0,0,.53-.41l0,0a2.23,2.23,0,0,1,1.22-.26c.59,0,1.19,0,1.78,0h0l.14.14v0a.23.23,0,0,0,.27.27h0C153.23,91.36,153.32,91.44,153.51,91.44Z"/><path class="cls-18" d="M150,90.67a3.74,3.74,0,0,1-.14-1.68c.09-.13.22-.12.34-.12h2.1c.3,0,.43.1.4.41a4.51,4.51,0,0,1-.06,1.32Z"/><path class="cls-11" d="M149,91.81c0,.92,0,.94.94.92a19,19,0,0,0,3.11,0c.76-.12.81-.09.64-.83,0-.12,0-.25,0-.38.48.33.25.85.36,1.28a19.64,19.64,0,0,1-5.25,0C148.78,92.5,148.55,92.08,149,91.81Z"/><path class="cls-11" d="M150,90.67l2.64-.07.19.19c-.59,0-1.19,0-1.78,0a2.23,2.23,0,0,0-1.22.26C149.78,90.86,150,90.8,150,90.67Z"/><path class="cls-8" d="M137.92,97.87h.65c1,0,1,0,1-.94,0,0,0,0,0-.06.2.28.07.59.11.89V98A4.5,4.5,0,0,1,137.92,97.87Z"/><path class="cls-11" d="M149.87,91a.57.57,0,0,1-.53.41C149.51,91.29,149.59,91,149.87,91Z"/><path class="cls-11" d="M153.24,91.18a.23.23,0,0,1-.27-.27Z"/><path class="cls-11" d="M153.51,91.44c-.19,0-.28-.08-.28-.27Z"/><path class="cls-11" d="M149.1,91.67l-.14.16Z"/><path class="cls-11" d="M153,90.93l-.14-.14Z"/><path class="cls-3" d="M205.67,73.16a8.17,8.17,0,0,1-4.87,0c0-1.46,0-2.93,0-4.4,1.53.06,3.05.06,4.57,0,.17,0,.34,0,.33.33C205.67,70.46,205.68,71.81,205.67,73.16Z"/><path class="cls-8" d="M200.83,68.59a12.63,12.63,0,0,1,.11-3.13l4.38,0c0,.21.25.28.25.5,0,.75,0,1.49,0,2.23,0,.25-.13.32-.35.35A17.83,17.83,0,0,1,200.83,68.59Z"/><path class="cls-3" d="M214.81,68.06a8.35,8.35,0,0,0-2.95-.1c0-.47,0-.94,0-1.41s.16-.59.59-.57c.76,0,1.52,0,2.27,0,.2,0,.4.12.29.3C214.66,66.87,214.89,67.48,214.81,68.06Z"/><path class="cls-3" d="M194.15,68.83a9.19,9.19,0,0,0-.17-6.31.25.25,0,0,1,.24.17,8.62,8.62,0,0,1,.25,5.86C194.43,68.69,194.42,68.91,194.15,68.83Z"/><path class="cls-3" d="M216,77.29l0-7.06a7.78,7.78,0,0,1,.24,3.14c-.13,1.08,0,2.16-.1,3.24C216.09,76.84,216.18,77.09,216,77.29Z"/><path class="cls-18" d="M200.83,68.59a17.83,17.83,0,0,0,4.38,0c.22,0,.36-.1.35-.35,0-.74,0-1.48,0-2.23,0-.22-.24-.29-.25-.5l.23,0a13.31,13.31,0,0,1,.12,3.09c0,.15-.21.13-.29.22-1.52.06-3,.06-4.57,0Z"/><path class="cls-3" d="M205.55,65.47l-.23,0-4.38,0c.19-.2.44-.11.67-.11h3.33C205.15,65.35,205.38,65.28,205.55,65.47Z"/><path class="cls-3" d="M200.77,73.34c0,1.28,0,2.55,0,3.83a2.11,2.11,0,0,1-.11-1.24A11.24,11.24,0,0,1,200.77,73.34Z"/><path class="cls-3" d="M193.15,60.63l-.54-1.34C193.18,59.58,193.2,60.1,193.15,60.63Z"/><path class="cls-3" d="M193.67,70.2c.08-.21.16-.43.25-.64C194,69.84,194.07,70.11,193.67,70.2Z"/><path class="cls-3" d="M193.79,62l-.27-.58C194,61.46,193.83,61.78,193.79,62Z"/><path class="cls-3" d="M193.51,61.4l-.25-.48C193.64,60.93,193.62,61.14,193.51,61.4Z"/><path class="cls-3" d="M215.45,69l-.29-.43C215.47,68.57,215.46,68.78,215.45,69Z"/><path class="cls-3" d="M215.84,69.85c-.15-.09-.13-.24-.14-.39C215.86,69.55,215.84,69.71,215.84,69.85Z"/><path class="cls-3" d="M210.71,69.72c0,.14,0,.29-.14.39C210.57,70,210.55,69.81,210.71,69.72Z"/><path class="cls-3" d="M216,70.24c-.16-.09-.12-.25-.13-.39C216,69.94,216,70.09,216,70.24Z"/><path class="cls-3" d="M193.5,70.59l.18-.4C193.72,70.37,193.75,70.54,193.5,70.59Z"/><path class="cls-3" d="M193.9,69.52c.06-.14.13-.27.19-.41C194.08,69.27,194.2,69.49,193.9,69.52Z"/><path class="cls-3" d="M194,62.48l-.2-.41C194.06,62.1,194,62.32,194,62.48Z"/><path class="cls-3" d="M215.71,69.47c-.06-.09-.11-.18-.17-.26C215.68,69.24,215.71,69.35,215.71,69.47Z"/><path class="cls-3" d="M210.84,69.45l-.14.28A.27.27,0,0,1,210.84,69.45Z"/><path class="cls-3" d="M215.07,68.44c-.06-.09-.11-.18-.17-.26C215,68.21,215.06,68.32,215.07,68.44Z"/><path class="cls-3" d="M193.26,60.89l-.12-.25C193.32,60.66,193.33,60.76,193.26,60.89Z"/><path class="cls-3" d="M194.1,69.08l0-.17C194.19,69,194.17,69,194.1,69.08Z"/><path class="cls-12" d="M179.42,82.57a9.69,9.69,0,0,0,3.83-.35,16.43,16.43,0,0,0,3.23-1.78c-.84,1.31-1.69,2.62-3.23,3.15A3.63,3.63,0,0,1,179.42,82.57Z"/><path class="cls-13" d="M182.6,66.5a2.07,2.07,0,0,1,2-.5,2.71,2.71,0,0,1,2.18,1.26,8.13,8.13,0,0,0-4.58-.35c.11-.19.16-.4.41-.4a.63.63,0,0,0,.54.12,6,6,0,0,1,2.88.14l.05,0-.05-.06a1.77,1.77,0,0,0-.71-.39A3.75,3.75,0,0,0,182.6,66.5Z"/><path class="cls-13" d="M186.12,62.67a2.45,2.45,0,0,1,2.5,2.07c.46,1.47.64,3,1.11,4.46.09.3.17.52.54.4-.1.18-.11.49-.35.46s-.24-.32-.32-.52a35.61,35.61,0,0,1-1-4.2c-.29-1.19-.72-2.17-2.06-2.42A.62.62,0,0,1,186.12,62.67Z"/><path class="cls-13" d="M175.15,67.08a1.43,1.43,0,0,1,1.08-.68,8.68,8.68,0,0,1,2-.15.86.86,0,0,1,.54.16c.13.09.23.2.18.37s-.22.1-.33.1Zm3.27-.51a4.93,4.93,0,0,0-2.29.14A5.88,5.88,0,0,0,178.42,66.57Z"/><path class="cls-6" d="M180.37,73.94a7.23,7.23,0,0,1-.34-5C180.05,70.58,179.63,72.3,180.37,73.94Z"/><path class="cls-13" d="M178.4,60.73a10.67,10.67,0,0,1,1.93.56,6.66,6.66,0,0,0,3.26,0,1.2,1.2,0,0,1,.38,0,3.87,3.87,0,0,1-2.7.42A5.82,5.82,0,0,1,178.4,60.73Z"/><path class="cls-8" d="M186.9,87.05a.48.48,0,0,1-.37.33,9.69,9.69,0,0,1-4.66.34.73.73,0,0,1-.49-.27c.63.08,1.26.21,1.9.25A12.83,12.83,0,0,0,186.9,87.05Z"/><path class="cls-13" d="M176.62,69.84c.06-.39.09-.89.57-.86s.58.56.58,1-.12.89-.57.86S176.68,70.25,176.62,69.84Zm.25,0c0,.26,0,.68.31.72s.34-.35.34-.62,0-.67-.37-.68S176.89,69.57,176.87,69.83Z"/><path class="cls-13" d="M184.36,68.92a1.1,1.1,0,0,1,.09,1.44c-.22.38-.58.36-.78,0a1.32,1.32,0,0,1,0-1.33c.19-.32.45-.47.73-.07-.64.09-.83.47-.57,1.12.05.14.07.31.27.28s.2-.13.27-.24C184.58,69.71,184.33,69.31,184.36,68.92Z"/><path class="cls-10" d="M179.13,76.5c1.34,0,2.71.31,4-.31C181.87,77.09,180.49,76.6,179.13,76.5Z"/><path class="cls-13" d="M190.39,69.48a1,1,0,0,1,1.66-.15A1.84,1.84,0,0,0,190.39,69.48Z"/><path class="cls-13" d="M184.82,61.76a.88.88,0,0,1,.91.67A3.57,3.57,0,0,1,184.82,61.76Z"/><path class="cls-13" d="M184,61.27c0-.35.17-.25.34-.16s.42.27.39.57C184.46,61.56,184.35,61.18,184,61.27Z"/><path class="cls-8" d="M187.93,86.54a.93.93,0,0,1-1,.52A3.57,3.57,0,0,1,187.93,86.54Z"/><path class="cls-13" d="M176.5,61.37c0-.45.2-.67.66-.63Z"/><path class="cls-13" d="M177.16,60.75c0-.38.21-.57.62-.41Z"/><path class="cls-8" d="M180.36,86.94c-.33,0-.69.06-.77-.41Z"/><path class="cls-8" d="M181.13,87.32c-.32,0-.67.06-.77-.39A2.43,2.43,0,0,1,181.13,87.32Z"/><path class="cls-13" d="M175.22,63.05c0-.31-.06-.63.4-.64C175.49,62.62,175.36,62.84,175.22,63.05Z"/><path class="cls-13" d="M175.61,62.41c0-.32,0-.53.42-.52Z"/><path class="cls-8" d="M188.56,86.12c0,.29-.15.32-.38.3A.63.63,0,0,1,188.56,86.12Z"/><path class="cls-13" d="M178,60.47c.21,0,.4,0,.39.28A.65.65,0,0,1,178,60.47Z"/><path class="cls-13" d="M185.73,62.41c.21,0,.4,0,.39.27A.58.58,0,0,1,185.73,62.41Z"/><path class="cls-13" d="M176.24,61.64c0-.2.07-.28.27-.27Z"/><path class="cls-13" d="M192.11,69.34c.13,0,.26,0,.33.13A.32.32,0,0,1,192.11,69.34Z"/><path class="cls-12" d="M186.76,80.11c.05-.07.14-.14.19-.07s-.06.11-.13.13Z"/><path class="cls-8" d="M188.19,86.41a.24.24,0,0,1-.26.14C188,86.43,188.08,86.42,188.19,86.41Z"/><path class="cls-8" d="M181.39,87.45a.25.25,0,0,1-.26-.13C181.24,87.32,181.34,87.33,181.39,87.45Z"/><path class="cls-13" d="M177.88,60.35l.15.13Z"/><path class="cls-8" d="M179.45,86.44c0,.07-.09,0-.12,0A.21.21,0,0,1,179.45,86.44Z"/><path class="cls-8" d="M189.35,85.52l-.18.13Z"/><path class="cls-8" d="M189.47,85.39l-.13.13Z"/><path class="cls-12" d="M186.82,80.17s-.07.11-.13,0,.05-.06.07-.09Z"/><path class="cls-13" d="M192.81,69.85,193,70Z"/><path class="cls-13" d="M192.55,69.59l.14.15Z"/><path class="cls-13" d="M192.42,69.47l.14.14C192.49,69.59,192.42,69.57,192.42,69.47Z"/><path class="cls-13" d="M190.26,69.61l.14-.14Z"/><path class="cls-8" d="M212.89,92.07c.72,0,1.45,0,2.17,0,.34,0,.39.09.39.39,0,1.26,0,2.52,0,3.78,0,.36-.13.48-.48.47-1.39,0-2.78,0-4.17,0-.38,0-.53-.1-.52-.5,0-1.24,0-2.48,0-3.72,0-.3,0-.45.41-.43.72,0,1.45,0,2.18,0Z"/><path class="cls-5" d="M214.43,89.64c.61.47.75,1.22,1.09,1.85.14.25-.07.34-.29.34h-4.56c-.28,0-.42-.12-.28-.4a6.16,6.16,0,0,1,1.21-1.93.23.23,0,0,0,.11,0l.17.07h.46Z"/><path class="cls-8" d="M214.43,89.64l-2.09,0a2.27,2.27,0,0,1-.68-1.17s0,0,0-.05v-.3h2.78Z"/><path class="cls-18" d="M214.4,88.08h-2.78s.08-.13.12-.13A11.81,11.81,0,0,1,214.4,88.08Z"/><path class="cls-18" d="M211.61,88.38s0,0,0,.05a2.27,2.27,0,0,0,.68,1.17h-.46l-.17-.07a.23.23,0,0,1-.11,0Z"/><path class="cls-12" d="M171.52,129.41l-.13.12-.08-.07.14-.12Z"/><path class="cls-12" d="M171.45,129.34s.08-.1.14,0-.05.06-.07.09Z"/><path class="cls-12" d="M171.83,129.17l0,0,0,0s0,0,0,0Z"/><path class="cls-19" d="M145.43,69.2c1.91,0,3.81,0,5.72,0,.55,0,.68.18.67.7,0,1.63,0,1.63-1.65,1.63-3.45,0-6.89,0-10.34,0-.55,0-.79-.1-.77-.73,0-1.6,0-1.6,1.62-1.6Z"/><path class="cls-14" d="M174.56,65.36a1.77,1.77,0,0,1,0,.34c-.17,0-.08-.12-.09-.2a.55.55,0,0,1,0-.17Z"/><path class="cls-14" d="M174.62,67.17a.46.46,0,0,1,0-.44A.37.37,0,0,1,174.62,67.17Z"/><path class="cls-3" d="M181.51,113.17l0,.23C181.37,113.31,181.35,113.23,181.51,113.17Z"/><path class="cls-19" d="M162.23,77.05h-4.74c-.25,0-.52,0-.67-.25a.74.74,0,0,1-.1-.61c.1-.24.33-.17.51-.16,1.46.09,2.93,0,4.39,0,.58,0,.89.07.62.73a.85.85,0,0,0,0,.32Z"/><path class="cls-12" d="M149.62,97l2.31.05c0,.11-.06.22.11.21a3.86,3.86,0,0,0,1.08,0c.62-.19.65.13.62.58-.06,1-.31,1.28-1.34,1.28a20,20,0,0,0-2.05,0c-.9.09-1.18-.47-1.37-1.19,0-.08,0-.17,0-.25-.18-.51-.09-.75.51-.55C149.51,97.06,149.57,97,149.62,97Z"/><path class="cls-12" d="M152.32,97h.26C152.49,97.11,152.41,97.11,152.32,97Z"/><path class="cls-5" d="M148.75,134.23c-.36-.11-.29-.38-.26-.64v0l.26.65Z"/><path class="cls-5" d="M149,134.88c-.35-.12-.29-.39-.26-.65h0a1.52,1.52,0,0,1,.25.65Z"/><path class="cls-5" d="M148.34,133.35c-.17-.1-.14-.25-.11-.4v0l.17.36Z"/><path class="cls-5" d="M148.49,133.59c-.15,0-.15-.13-.15-.24l.07-.06.09.28Z"/><path class="cls-14" d="M148.5,133.57l-.09-.28-.17-.36c-.06-.24-.13-.48-.2-.72.08.06.21.1.24.18l.89,2.25a.45.45,0,0,1,0,.42l-.14-.19a1.52,1.52,0,0,0-.25-.65Z"/><path class="cls-14" d="M149.65,133.84l.21.29c.11.34.21.67.32,1A1.31,1.31,0,0,1,149.65,133.84Z"/><path class="cls-14" d="M148.82,131.45l.08.29.12.43c-.46-.22-.41-.63-.4-1Z"/><path class="cls-14" d="M149,132.16l.21.3,0,.38C148.93,132.7,149,132.43,149,132.16Z"/><path class="cls-14" d="M150.17,135.12a1.3,1.3,0,0,1,.25.66C150.06,135.67,150.13,135.39,150.17,135.12Z"/><path class="cls-14" d="M149.25,132.92l.2.2.07.35C149.22,133.38,149.22,133.16,149.25,132.92Z"/><path class="cls-14" d="M149.51,133.46a.52.52,0,0,1,.15.39C149.45,133.78,149.5,133.61,149.51,133.46Z"/><path class="cls-3" d="M139.61,96.85s0,0,0,.06c0,.94,0,.94-1,.94h-.37a3.63,3.63,0,0,1,0-.57c0-.23-.13-.63.19-.66S139.28,96.33,139.61,96.85Z"/><path class="cls-3" d="M138.85,91.33c-.43.06-.75,0-.67-.58,0-.32-.1-.72.46-.71.79,0,.91.12,1,.74S139.27,91.36,138.85,91.33Z"/><path class="cls-3" d="M138.91,92.22c.47-.09.69,0,.7.62s-.35.53-.74.56-.71-.08-.72-.65S138.5,92.19,138.91,92.22Z"/><path class="cls-3" d="M138.75,89.53c-.38.07-.59,0-.6-.6s.31-.57.71-.58.74.08.74.66S139.19,89.5,138.75,89.53Z"/><path class="cls-3" d="M139,94.65c.41-.07.65,0,.64.54s-.09.63-.59.64-.8-.13-.81-.68S138.56,94.63,139,94.65Z"/><path class="cls-3" d="M143.56,90.08c.71-.17.81.13.82.66s-.28.61-.71.59c-.6,0-.77-.22-.7-1C143,89.79,143.45,90.16,143.56,90.08Z"/><path class="cls-3" d="M143.82,88c.38-.08.6.1.54.63,0,.38,0,.71-.55.67s-.86-.18-.87-.82S143.37,88,143.82,88Z"/><path class="cls-3" d="M143.65,95.55c-.7.15-.71-.32-.72-.8,0-.25,0-.57.35-.43s1.12-.3,1.09.65C144.34,95.54,144.11,95.63,143.65,95.55Z"/><path class="cls-3" d="M143.65,97.6c-.42.05-.74.07-.73-.54s.34-.61.78-.6.67,0,.67.54S144.12,97.69,143.65,97.6Z"/><path class="cls-3" d="M143.72,93.36c-.59.14-.73-.15-.69-.65,0-.32-.05-.69.46-.61s.92-.06.88.67C144.35,93.27,144.22,93.49,143.72,93.36Z"/><path class="cls-14" d="M182.6,66.5a3.75,3.75,0,0,1,2.7-.13,1.77,1.77,0,0,1,.71.39h0a6,6,0,0,0-2.88-.14.63.63,0,0,1-.54-.12Z"/><path class="cls-14" d="M186,66.76l.05.06-.05,0Z"/><path class="cls-14" d="M178.42,66.57a5.88,5.88,0,0,1-2.29.14A4.93,4.93,0,0,1,178.42,66.57Z"/><path class="cls-14" d="M176.87,69.83c0-.26,0-.59.28-.58s.37.4.37.68,0,.67-.34.62S176.9,70.09,176.87,69.83Z"/><path class="cls-14" d="M184.36,68.92c0,.39.22.79,0,1.17-.07.11-.12.23-.27.24s-.22-.14-.27-.28c-.26-.65-.07-1,.57-1.12Z"/><path class="cls-8" d="M211.71,89.53l.17.07Z"/></svg>