<svg id="Calque_2" data-name="Calque 2" xmlns="http://www.w3.org/2000/svg" viewBox="0 0 303 208"><defs><style>.cls-1{fill:#c6dbfe;}.cls-2{fill:#c5dafe;}.cls-3{fill:#c4dafe;}.cls-4{fill:#c3d9fe;}.cls-5{fill:#c2d9fe;}.cls-6{fill:#c1d8fe;}.cls-7{fill:#c0d8fd;}.cls-8{fill:#bfd7fd;}.cls-9{fill:#bed7fd;}.cls-10{fill:#bdd6fd;}.cls-11{fill:#bcd6fd;}.cls-12{fill:#bbd5fd;}.cls-13{fill:#bad5fd;}.cls-14{fill:#b9d4fd;}.cls-15{fill:#b8d4fd;}.cls-16{fill:#b7d3fd;}.cls-17{fill:#b6d3fc;}.cls-18{fill:#b5d2fc;}.cls-19{fill:#b4d2fc;}.cls-20{fill:#b3d1fc;}.cls-21{fill:#b2d1fc;}.cls-22{fill:#b1d0fc;}.cls-23{fill:#b0d0fc;}.cls-24{fill:#afcffc;}.cls-25{fill:#aecffc;}.cls-26{fill:#adcefc;}.cls-27{fill:#accefb;}.cls-28{fill:#abcdfb;}.cls-29{fill:#aacdfb;}.cls-30{fill:#a9ccfb;}.cls-31{fill:#a8ccfb;}.cls-32{fill:#a7cbfb;}.cls-33{fill:#a6cbfb;}.cls-34{fill:#a5cafb;}.cls-35{fill:#a4cafb;}.cls-36{fill:#a3c9fb;}.cls-37{fill:#a2c9fa;}.cls-38{fill:#a1c8fa;}.cls-39{fill:#a0c8fa;}.cls-40{fill:#9fc7fa;}.cls-41{fill:#9ec7fa;}.cls-42{fill:#9dc6fa;}.cls-43{fill:#fe7c23;}.cls-44{fill:#fe761d;}.cls-45{fill:#321d13;}.cls-46{fill:#fd9f45;}.cls-47{fill:#39bcc7;}.cls-48{fill:#fefefe;}.cls-49{fill:#f0eae6;}</style></defs><title>icons</title><path class="cls-1" d="M71.09,108.54C82.33,101.16,89.25,77.89,107.26,60c17.81-20.21,31.18-21.59,42.4-31.8,10.75-12,36.49-15.44,48.56-2.08,13.92,11.63,14.16,40,16.55,51.9,2.81,16.34,18.14,31.73,16.35,65.26-1.09,15.2-8.57,35.18-22.94,47.56-14,12.68-34.87,17.74-53.78,10-19.53-7.44-33.38-22.66-46.12-32.72-12.54-10.81-24-16.46-34.1-22.36-10-5.39-15.63-13-15-19.83C59.38,119,65.82,113,71.09,108.54Z"/><path class="cls-2" d="M70.74,108.52c11.06-7.44,17.81-30.08,35.17-48.64,18.42-19.7,32.28-21.21,43.25-32.05,11.73-11.58,37-14.34,50-1.55s14.24,40.12,16.4,51.93c3,16.2,18.42,31.61,16.17,64.57-1,15-9,34.44-23.4,47s-35,17.79-53.76,10.58c-19.21-7.38-33.2-22-45.63-32.28-12.69-10.5-23.73-16.57-34-22.29-9.94-5.54-15.67-13.05-15.51-19.84S65.59,113,70.74,108.52Z"/><path class="cls-3" d="M70.39,108.5c10.89-7.5,16.86-30.1,34.16-48.75,18.38-19.79,32.84-21.39,44.1-32.29,12.1-11.72,38.39-14.11,51.41-1,13.19,13.27,14.14,40.21,16.26,51.94,2.9,16.1,18.38,31.49,16,63.88-1.09,14.72-9.25,33.88-23.86,46.41s-35.18,18.09-53.74,11.19c-19-7.07-32.79-21.6-45.14-31.85C97,157.56,86,151.52,75.68,145.81c-10-5.53-15.9-13.06-16-19.85S65.36,113,70.39,108.5Z"/><path class="cls-4" d="M70,108.47c10.71-7.54,15.9-30.11,33.16-48.84,18.33-19.89,33.4-21.57,45-32.54,12.47-11.85,39.78-13.88,52.83-.48,13.25,13.62,14.05,40.32,16.11,52,2.84,16,18.34,31.36,15.8,63.2-1.16,14.47-9.51,33.32-24.32,45.82S173.18,206,154.85,199.4c-18.78-6.75-32.38-21.21-44.65-31.41-12.53-10.42-23.47-16.44-33.78-22.14-10-5.51-16.12-13.07-16.48-19.86S65.14,113,70,108.47Z"/><path class="cls-5" d="M69.68,108.45c10.54-7.6,15-30.14,32.17-48.94,18.28-20,34-21.76,45.79-32.8,12.84-12,41.19-13.64,54.25.07,13.32,14,14,40.42,16,52,2.77,15.89,18.3,31.23,15.61,62.5-1.23,14.23-9.77,32.77-24.78,45.25S173.11,205.2,155,198.93c-18.57-6.44-32-20.82-44.16-31-12.45-10.38-23.34-16.37-33.67-22.06-10-5.5-16.35-13.07-17-19.87S64.91,113,69.68,108.45Z"/><path class="cls-6" d="M69.33,108.43c10.36-7.66,14-30.16,31.16-49.05,18.24-20.07,34.52-21.93,46.65-33,13.21-12.1,42.58-13.41,55.67.6,13.38,14.31,13.87,40.52,15.83,52,2.71,15.8,18.27,31.1,15.43,61.82-1.3,14-10,32.2-25.24,44.67s-35.8,19-53.68,13c-18.35-6.12-31.56-20.41-43.67-30.53-12.37-10.34-23.21-16.31-33.56-22-10-5.48-16.58-13.08-17.45-19.88C59.57,119.09,64.68,113,69.33,108.43Z"/><path class="cls-7" d="M69,108.41c10.18-7.71,13-30.18,30.16-49.15C117.32,39.09,134.21,37.15,146.63,26c13.59-12.23,44-13.18,57.1,1.13,13.43,14.66,13.78,40.63,15.69,52,2.63,15.69,18.22,31,15.24,61.12C233.3,154,224.36,171.9,209,184.34S173,203.63,155.3,198c-18.14-5.8-31.15-20-43.17-30.09C99.83,157.58,89,151.64,78.67,146c-10-5.47-16.81-13.09-17.94-19.89C59.57,119.1,64.45,113,69,108.41Z"/><path class="cls-8" d="M68.63,108.38c10-7.76,12.1-30.19,29.16-49.25,18.13-20.26,35.63-22.29,48.34-33.54,14-12.35,45.37-12.94,58.52,1.68,13.49,15,13.68,40.73,15.54,52,2.57,15.59,18.19,30.84,15.06,60.44-1.43,13.5-10.56,31.08-26.16,43.51s-36.21,19.59-53.64,14.25c-17.92-5.49-30.74-19.63-42.68-29.66-12.22-10.26-23-16.18-33.35-21.84-10-5.45-17-13.1-18.43-19.91C59.57,119.12,64.23,113,68.63,108.38Z"/><path class="cls-9" d="M68.28,108.36C78.11,100.55,79.43,78.14,96.43,59c18.09-20.36,36.19-22.47,49.19-33.79C160,12.74,192.39,12.5,205.57,27.43,219.11,42.77,219.16,68.27,221,79.5c2.5,15.49,18.15,30.71,14.87,59.74-1.5,13.26-10.83,30.53-26.62,42.94-15.63,12.27-36.41,19.89-53.61,14.86-17.72-5.18-30.34-19.23-42.2-29.22-12.15-10.23-22.84-16.12-33.24-21.77-10-5.44-17.27-13.11-18.92-19.92C59.57,119.13,64,113,68.28,108.36Z"/><path class="cls-10" d="M67.93,108.34c9.65-7.87,10.19-30.24,27.15-49.45,18-20.46,36.75-22.65,50-34,14.7-12.61,48.16-12.49,61.37,2.75,13.6,15.68,13.5,40.93,15.26,52.08,2.43,15.39,18.1,30.59,14.67,59.06-1.56,13-11.08,30-27.07,42.35-15.82,12.25-36.62,20.2-53.59,15.48-17.5-4.86-29.93-18.84-41.71-28.79C102,157.6,91.34,151.73,80.92,146.09c-10-5.42-17.51-13.11-19.4-19.93C59.56,119.14,63.77,113,67.93,108.34Z"/><path class="cls-11" d="M67.57,108.31c9.48-7.92,9.25-30.25,26.15-49.55,18-20.54,37.32-22.82,50.89-34.28,15.08-12.73,49.56-12.26,62.8,3.28,13.65,16,13.4,41,15.11,52.1,2.36,15.29,18.07,30.46,14.49,58.37C235.38,151,225.67,167.65,209.48,180c-16,12.22-36.82,20.49-53.57,16.09-17.29-4.55-29.52-18.45-41.22-28.35-12-10.15-22.58-16-33-21.62-10-5.41-17.74-13.12-19.89-19.94C59.56,119.16,63.54,113,67.57,108.31Z"/><path class="cls-12" d="M67.22,108.29c9.3-8,8.3-30.28,25.15-49.65,17.95-20.64,37.87-23,51.73-34.54,15.46-12.85,51-12,64.23,3.83,13.7,16.37,13.31,41.14,15,52.12,2.29,15.19,18,30.33,14.3,57.68-1.7,12.52-11.61,28.85-28,41.2-16.19,12.19-37,20.79-53.55,16.7-17.08-4.23-29.11-18-40.73-27.92-11.91-10.1-22.45-15.92-32.91-21.54-10-5.39-18-13.13-20.38-19.95C59.56,119.17,63.32,113,67.22,108.29Z"/><path class="cls-13" d="M66.87,108.27C76,100.24,74.22,78,91,58.51c17.9-20.73,38.43-23.18,52.58-34.78,15.82-13,52.35-11.8,65.64,4.36C223,44.81,222.46,69.34,224.07,80.23c2.23,15.09,18,30.2,14.12,57-1.77,12.28-11.87,28.3-28.46,40.62-16.37,12.17-37.23,21.1-53.52,17.32-16.86-3.92-28.7-17.66-40.24-27.48-11.83-10.06-22.32-15.86-32.8-21.47-10-5.38-18.2-13.13-20.86-20C59.55,119.18,63.09,113,66.87,108.27Z"/><path class="cls-14" d="M66.52,108.25c9-8.08,6.39-30.32,23.14-49.86,17.86-20.83,39-23.36,53.43-35,16.2-13.1,53.75-11.57,67.07,4.89C224,45.32,223.29,69.6,224.85,80.42c2.16,15,17.94,30.07,13.93,56.3-1.84,12-12.11,27.77-28.92,40-16.54,12.17-37.43,21.4-53.5,17.93-16.65-3.6-28.29-17.27-39.75-27.05-11.75-10-22.19-15.79-32.69-21.39-10-5.36-18.44-13.14-21.35-20C59.55,119.2,62.86,113,66.52,108.25Z"/><path class="cls-15" d="M66.17,108.22c8.77-8.13,5.44-30.33,22.14-49.95C106.12,37.34,127.86,34.73,142.59,23c16.57-13.22,55.13-11.33,68.49,5.44,13.87,17.41,13,41.45,14.54,52.18,2.09,14.89,17.91,30,13.75,55.61C237.46,148,227,163.41,210,175.68c-16.74,12.13-37.64,21.7-53.48,18.54-16.44-3.29-27.88-16.87-39.26-26.61-11.67-10-22.07-15.73-32.59-21.32-10-5.35-18.66-13.14-21.83-20C59.55,119.22,62.63,113,66.17,108.22Z"/><path class="cls-16" d="M65.81,108.2C74.41,100,70.31,77.84,87,58.14c17.76-21,40.11-23.7,55.12-35.53C159,9.27,198.61,11.5,212,28.58c13.92,17.76,12.94,41.56,14.4,52.21,2,14.78,17.86,29.81,13.56,54.92-2,11.55-12.66,26.63-29.84,38.88-16.93,12.09-37.84,22-53.46,19.15-16.22-3-27.47-16.47-38.77-26.17C106.3,157.63,96,151.91,85.41,146.33c-10.06-5.33-18.89-13.15-22.32-20C59.54,119.23,62.4,113,65.81,108.2Z"/><path class="cls-17" d="M65.46,108.18C73.88,99.94,69,77.8,85.6,58c17.72-21.12,40.67-23.88,56-35.78,17.32-13.47,57.92-10.88,71.34,6.51,14,18.1,12.85,41.66,14.25,52.22,2,14.68,17.83,29.69,13.38,54.23-2.05,11.31-12.93,26.06-30.3,38.31-17.13,12.05-38.05,22.31-53.44,19.76-16-2.64-27.06-16.08-38.28-25.73-11.51-9.9-21.81-15.6-32.37-21.17-10.07-5.32-19.13-13.15-22.8-20C59.54,119.25,62.18,113,65.46,108.18Z"/><path class="cls-18" d="M65.11,108.15c8.24-8.29,2.59-30.39,19.14-50.26,17.67-21.2,41.23-24,56.82-36,17.7-13.59,59.31-10.66,72.77,7,14,18.44,12.75,41.77,14.11,52.25,1.88,14.58,17.78,29.56,13.19,53.54-2.12,11.06-13.21,25.48-30.76,37.73-17.33,12-38.26,22.61-53.42,20.37-15.8-2.33-26.65-15.69-37.79-25.3-11.43-9.86-21.68-15.53-32.26-21.09-10.08-5.3-19.36-13.16-23.29-20C59.53,119.26,62,113,65.11,108.15Z"/><path class="cls-19" d="M64.76,108.13c8.06-8.34,1.64-30.42,18.13-50.36,17.63-21.3,41.79-24.23,57.68-36.28,18.07-13.7,60.7-10.42,74.19,7.59,14.07,18.78,12.66,41.86,14,52.26,1.82,14.48,17.74,29.43,13,52.85-2.19,10.82-13.45,25-31.22,37.15-17.5,12-38.46,22.92-53.4,21-15.58-2-26.24-15.29-37.3-24.86-11.35-9.82-21.55-15.47-32.15-21-10.09-5.29-19.59-13.16-23.78-20C59.53,119.28,61.72,113,64.76,108.13Z"/><path class="cls-20" d="M64.41,108.11c7.89-8.4.68-30.44,17.13-50.46,17.57-21.4,42.35-24.41,58.52-36.53,18.45-13.83,62.09-10.2,75.61,8.12,14.12,19.13,12.57,42,13.83,52.28,1.75,14.39,17.7,29.31,12.82,52.17-2.26,10.58-13.72,24.4-31.68,36.57-17.69,12-38.67,23.22-53.37,21.6-15.38-1.69-25.84-14.9-36.82-24.43-11.28-9.78-21.42-15.4-32-20.94-10.1-5.27-19.83-13.16-24.26-20C59.53,119.3,61.49,113,64.41,108.11Z"/><path class="cls-21" d="M64.06,108.08c7.71-8.45-.27-30.45,16.13-50.56C97.71,36,123.1,32.94,139.55,20.75c18.82-13.95,63.49-10,77,8.65,14.17,19.48,12.48,42.08,13.68,52.31C232,96,247.93,110.88,242.9,133.18c-2.32,10.34-14,23.85-32.13,36-17.87,12-38.88,23.52-53.35,22.21-15.17-1.37-25.43-14.51-36.33-24-11.2-9.74-21.29-15.34-31.93-20.87-10.11-5.26-20.06-13.17-24.75-20C59.52,119.32,61.27,113,64.06,108.08Z"/><path class="cls-21" d="M63.7,108.06c7.54-8.5-1.21-30.48,15.13-50.66,17.48-21.59,43.47-24.75,60.22-37,19.19-14.06,64.87-9.74,78.46,9.2,14.22,19.82,12.39,42.18,13.54,52.32,1.61,14.19,17.61,29.05,12.44,50.79-2.4,10.09-14.24,23.29-32.59,35.41-18.06,11.94-39.08,23.83-53.33,22.83-14.95-1.06-25-14.11-35.84-23.56-11.12-9.7-21.16-15.27-31.82-20.79-10.12-5.24-20.29-13.17-25.24-20.06C59.52,119.33,61,113,63.7,108.06Z"/><path class="cls-22" d="M63.35,108c7.36-8.56-2.16-30.5,14.13-50.77,17.43-21.68,44-24.92,61.06-37.27,19.57-14.18,66.27-9.51,79.89,9.73C232.7,49.89,230.72,72,231.82,82.08c1.55,14.08,17.57,28.92,12.26,50.09C241.61,142,229.58,154.91,211,167c-18.25,11.91-39.29,24.14-53.31,23.44-14.74-.74-24.61-13.72-35.35-23.12-11-9.66-21-15.21-31.71-20.72-10.13-5.23-20.52-13.17-25.73-20.07C59.52,119.35,60.81,113,63.35,108Z"/><path class="cls-23" d="M63,108c7.18-8.62-3.12-30.53,13.13-50.87C93.51,35.37,120.72,32.05,138,19.63,158,5.33,205.69,10.34,219.35,29.9c14.32,20.5,12.2,42.39,13.25,52.36,1.48,14,17.52,28.79,12.07,49.41-2.54,9.6-14.77,22.18-33.51,34.26-18.44,11.89-39.5,24.44-53.29,24-14.53-.42-24.2-13.33-34.86-22.68-11-9.63-20.91-15.15-31.6-20.65-10.13-5.21-20.76-13.17-26.21-20.08C59.51,119.37,60.58,113,63,108Z"/><path class="cls-24" d="M62.65,108c7-8.66-4.07-30.54,12.12-51,17.34-21.88,45.15-25.27,62.76-37.77,20.32-14.42,69-9.07,82.74,10.8,14.36,20.85,12.1,42.49,13.11,52.39,1.4,13.88,17.47,28.66,11.88,48.71-2.61,9.36-15,21.62-34,33.68-18.63,11.87-39.7,24.75-53.27,24.67-14.32-.1-23.79-12.93-34.37-22.25-10.88-9.58-20.78-15.08-31.49-20.57-10.14-5.2-21-13.17-26.7-20.09C59.51,119.39,60.35,113,62.65,108Z"/><path class="cls-25" d="M62.3,108c6.83-8.72-5-30.56,11.12-51.07,17.29-22,45.71-25.44,63.61-38,20.69-14.54,70.43-8.83,84.16,11.35,14.41,21.18,12,42.59,13,52.4,1.34,13.79,17.43,28.53,11.7,48-2.68,9.12-15.3,21.07-34.43,33.11C192.6,175.6,171.51,188.82,158.17,189c-14.1.23-23.38-12.53-33.88-21.8-10.8-9.55-20.65-15-31.39-20.5-10.14-5.18-21.21-13.18-27.18-20.1C59.51,119.41,60.13,113,62.3,108Z"/><path class="cls-26" d="M61.94,108c6.66-8.77-6-30.59,10.12-51.17,17.25-22.07,46.27-25.62,64.46-38.27,21.07-14.66,71.82-8.61,85.59,11.88,14.46,21.53,11.91,42.7,12.82,52.42,1.27,13.69,17.38,28.41,11.51,47.34-2.76,8.88-15.56,20.51-34.89,32.53-19,11.81-40.12,25.36-53.23,25.88-13.89.56-23-12.14-33.39-21.37-10.72-9.5-20.52-14.95-31.28-20.42C83.5,141.6,72.21,133.59,66,126.65,59.5,119.43,59.9,113,61.94,108Z"/><path class="cls-27" d="M61.59,107.92c6.48-8.82-6.92-30.6,9.12-51.27C87.91,34.49,117.54,30.87,136,18.14c21.44-14.78,73.2-8.39,87,12.42C237.53,52.43,234.85,73.36,235.7,83,236.91,96.59,253,111.27,247,129.64c-2.83,8.64-15.83,20-35.35,32-19.2,11.79-40.32,25.67-53.21,26.49-13.67.88-22.56-11.75-32.9-20.93-10.64-9.47-20.39-14.89-31.17-20.35-10.16-5.15-21.68-13.18-28.15-20.13C59.5,119.45,59.67,113,61.59,107.92Z"/><path class="cls-28" d="M61.24,107.9c6.3-8.88-7.87-30.63,8.12-51.37,17.15-22.26,47.38-26,66.15-38.77,21.82-14.89,74.6-8.16,88.43,13,14.56,22.21,11.73,42.91,12.54,52.46,1.13,13.49,17.29,28.15,11.14,46-2.9,8.39-16.09,19.4-35.81,31.37-19.39,11.77-40.53,26-53.19,27.11-13.46,1.2-22.15-11.35-32.4-20.5C115.65,157.7,106,152.3,95.15,146.85,85,141.71,73.24,133.67,66.51,126.71,59.5,119.47,59.44,113,61.24,107.9Z"/><path class="cls-29" d="M60.89,107.88C67,99,52.07,77.23,68,56.41c17.11-22.36,48-26.13,67-39,22.19-15,76-7.93,89.85,13.49,14.6,22.56,11.64,43,12.39,52.49,1.07,13.39,17.25,28,11,45.26-3,8.15-16.36,18.85-36.27,30.8-19.58,11.74-40.73,26.29-53.17,27.72-13.25,1.53-21.74-11-31.91-20.06-10.49-9.39-20.14-14.76-31-20.2-10.18-5.12-22.14-13.18-29.13-20.15C59.5,119.49,59.22,113,60.89,107.88Z"/><path class="cls-30" d="M60.54,107.86c5.95-9-9.78-30.67,6.11-51.58C83.71,33.83,115.16,30,134.5,17c22.57-15.12,77.37-7.71,91.28,14,14.65,22.89,11.54,43.12,12.25,52.5,1,13.3,17.2,27.89,10.77,44.58-3.05,7.9-16.62,18.29-36.73,30.22-19.77,11.71-40.94,26.6-53.15,28.33-13,1.85-21.33-10.57-31.42-19.63-10.42-9.34-20-14.69-30.85-20.12C86.46,141.82,74.28,133.75,67,126.77,59.49,119.51,59,113,60.54,107.86Z"/><path class="cls-31" d="M60.18,107.83c5.78-9-10.72-30.69,5.11-51.67,17-22.55,49.07-26.47,68.7-39.51,22.95-15.24,78.76-7.49,92.71,14.56,14.69,23.24,11.45,43.23,12.1,52.53.93,13.19,17.15,27.75,10.59,43.88-3.12,7.66-16.89,17.74-37.19,29.64-20,11.7-41.14,26.91-53.12,29C146.26,188.39,138.15,176,128.14,167,117.8,157.71,108.25,152.39,97.4,147c-10.2-5.1-22.6-13.18-30.1-20.17C59.49,119.53,58.76,112.94,60.18,107.83Z"/><path class="cls-32" d="M59.83,107.81C65.43,98.72,48.16,77.1,63.94,56c17-22.64,49.63-26.64,69.55-39.76C156.81.92,213.63,9,227.62,31.38,242.36,55,239,74.71,239.58,83.92c.86,13.1,17.1,27.63,10.39,43.2-3.19,7.41-17.15,17.18-37.64,29.06-20.15,11.67-41.34,27.22-53.1,29.56-12.61,2.5-20.52-9.78-30.45-18.76-10.26-9.26-19.76-14.56-30.63-20-10.21-5.08-22.83-13.19-30.59-20.18C59.49,119.55,58.53,112.94,59.83,107.81Z"/><path class="cls-33" d="M59.48,107.79c5.42-9.15-12.63-30.74,3.11-51.88C79.51,33.17,112.77,29.1,133,15.9c23.7-15.47,81.53-7,95.56,15.64C243.32,55.46,239.8,75,240.35,84.11c.8,13,17,27.49,10.21,42.5-3.26,7.17-17.41,16.63-38.1,28.49-20.34,11.64-41.55,27.53-53.08,30.17-12.39,2.83-20.11-9.39-30-18.32-10.18-9.23-19.63-14.5-30.52-19.9C88.68,142,75.84,133.86,67.82,126.86,59.49,119.57,58.31,112.94,59.48,107.79Z"/><path class="cls-34" d="M59.13,107.76c5.24-9.19-13.58-30.75,2.1-52C78.11,33,112,28.8,132.48,15.53c24.06-15.59,82.92-6.82,97,16.18C244.29,56,240.62,75.25,241.13,84.29c.72,12.9,17,27.36,10,41.82-3.34,6.92-17.68,16.07-38.56,27.9-20.53,11.63-41.75,27.85-53.06,30.79-12.17,3.15-19.7-9-29.47-17.89-10.1-9.18-19.5-14.43-30.41-19.82-10.23-5.05-23.3-13.19-31.56-20.2C59.49,119.59,58.08,112.94,59.13,107.76Z"/><path class="cls-35" d="M58.78,107.74c5.06-9.25-14.53-30.78,1.1-52.08C76.71,32.73,111.18,28.51,132,15.15c24.44-15.69,84.31-6.59,98.4,16.72,14.88,24.6,11.08,43.65,11.53,52.6.66,12.81,17,27.23,9.84,41.13-3.41,6.68-17.94,15.52-39,27.33-20.72,11.6-41.95,28.16-53,31.39-12,3.49-19.29-8.59-29-17.44-10-9.15-19.37-14.37-30.3-19.75-10.24-5-23.53-13.19-32.05-20.22C59.49,119.61,57.85,112.93,58.78,107.74Z"/><path class="cls-36" d="M58.43,107.72c4.89-9.3-15.48-30.8.1-52.18,16.77-23,51.86-27.33,72.94-40.76C156.28-1,217.16,8.41,231.29,32c14.93,24.95,11,43.75,11.39,52.63.58,12.71,16.89,27.09,9.65,40.44-3.49,6.43-18.21,15-39.48,26.75-20.91,11.57-42.15,28.47-53,32-11.74,3.82-18.88-8.2-28.49-17-9.94-9.1-19.24-14.3-30.2-19.67-10.24-5-23.75-13.19-32.53-20.23C59.48,119.63,57.62,112.93,58.43,107.72Z"/><path class="cls-37" d="M58.07,107.7c4.72-9.36-16.43-30.83-.9-52.29,16.73-23.12,52.42-27.49,73.79-41C156.15-1.52,218,8.26,232.21,32.2c15,25.28,10.89,43.85,11.24,52.64.52,12.61,16.84,27,9.47,39.75-3.56,6.18-18.48,14.41-39.94,26.17-21.1,11.56-42.35,28.79-53,32.62-11.51,4.15-18.47-7.81-28-16.57-9.86-9.07-19.11-14.24-30.09-19.6-10.25-5-24-13.19-33-20.24C59.48,119.65,57.39,112.93,58.07,107.7Z"/><path class="cls-38" d="M57.72,107.67c4.54-9.41-17.38-30.84-1.9-52.38C72.5,32.07,108.8,27.63,130.46,14,156-2,218.92,8.11,233.13,32.36c15,25.62,10.79,44,11.1,52.67.45,12.51,16.78,26.82,9.28,39.06-3.64,5.93-18.74,13.86-40.4,25.59-21.29,11.53-42.55,29.1-53,33.23-11.29,4.48-18.06-7.41-27.51-16.14-9.78-9-19-14.17-30-19.52A225.1,225.1,0,0,1,69.14,127C59.48,119.67,57.17,112.92,57.72,107.67Z"/><path class="cls-39" d="M57.37,107.65C61.73,98.19,39,76.78,54.46,55.17,71.1,31.85,108,27.33,130,13.66,155.89-2.49,219.8,8,234.05,32.53c15.06,26,10.69,44.06,11,52.68.37,12.42,16.72,26.68,9.09,38.37-3.72,5.69-19,13.31-40.87,25-21.47,11.5-42.74,29.41-52.95,33.84-11.07,4.8-17.65-7-27-15.7-9.7-9-18.86-14.11-29.87-19.45A241.58,241.58,0,0,1,69.4,127C59.48,119.69,56.94,112.92,57.37,107.65Z"/><path class="cls-40" d="M57,107.63C61.2,98.11,37.73,76.74,53.11,55c16.59-23.41,54.1-28,76.34-41.75C155.76-3,220.68,7.81,235,32.69c15.1,26.3,10.6,44.18,10.81,52.71.31,12.32,16.67,26.54,8.91,37.68-3.79,5.44-19.28,12.75-41.33,24.43C191.7,159,170.44,177.26,160.43,182c-10.84,5.15-17.24-6.63-26.53-15.26-9.63-9-18.73-14.05-29.76-19.38a259.11,259.11,0,0,1-34.48-20.27C59.48,119.71,56.71,112.92,57,107.63Z"/><path class="cls-41" d="M56.67,107.6c4-9.56-20.24-30.91-4.91-52.68,16.54-23.51,54.65-28.17,77.18-42,26.69-16.39,92.62-5.26,107,19.94C251,59.5,246.39,77.14,246.56,85.58c.23,12.23,16.61,26.4,8.72,37-3.87,5.19-19.55,12.2-41.79,23.86-21.85,11.46-43.13,30-52.91,35.07-10.62,5.46-16.83-6.24-26-14.83-9.55-8.91-18.6-14-29.65-19.3a277.89,277.89,0,0,1-35-20.28C59.48,119.73,56.48,112.92,56.67,107.6Z"/><path class="cls-42" d="M56.31,107.58C60.15,98,34.12,75.91,50.4,54.79c15.38-24.35,54.11-30.34,78-42.25C154-6.21,225.68,5.94,236.8,33c18.4,24.91,9.91,44.41,10.53,52.74-.56,12.12,16.55,26.25,8.54,36.31-4,4.93-20,11.23-42.25,23.28-22.25,11-43.33,30.34-52.88,35.68-10.41,5.78-16.16-6.14-25.56-14.39-9.17-9.18-18.5-13.87-29.54-19.23a276.63,276.63,0,0,1-35.45-20.29C59.43,119.82,56.26,112.91,56.31,107.58Z"/><path class="cls-43" d="M195.55,145.68c.19,1.14.36,2.28.56,3.42a36.12,36.12,0,0,1,.49,5.39,55.2,55.2,0,0,1-.12,6.17,31.6,31.6,0,0,1-6.43,17.06c-.45.58-.91,1.15-1.34,1.74a7.37,7.37,0,0,1-2.36,1.71,28.89,28.89,0,0,1-9,3.35,62,62,0,0,1-12.45,1.13c-3.2,0-6.38-.19-9.57-.43A101.66,101.66,0,0,1,137.07,182a199.51,199.51,0,0,1-21.61-7.41c-.52-.21-.58-.45-.4-1,1.92-5.47,3.81-10.94,5.71-16.42,0-.14.07-.3.11-.46a10.11,10.11,0,0,1-6-1.91,11.79,11.79,0,0,1-4.07-6,34.4,34.4,0,0,1-1.51-7.71,166.61,166.61,0,0,1-.81-18.42c0-4.22,0-8.43.06-12.64.08-3.23.27-6.47.6-9.69A73.44,73.44,0,0,1,110.18,93a1.1,1.1,0,0,1,.33,1.07c-.07.19.08.35.32.2s.33,0,.39.19.1.3.14.45a1.8,1.8,0,0,1-.62,2c-.28.21-.32.9,0,1.05.62.26.45.75.51,1.21a11.57,11.57,0,0,0,.15,2c.09.31.24.5.58.29.56-.35.72,0,.77.47,0,.3.06.51.42.3a.38.38,0,0,1,.57.13.79.79,0,0,1-.08.88c-.12.19-.31.44-.53.29-.55-.39-.91.13-1.37.19-.19,0-.21.2-.21.36a.4.4,0,0,0,.28.42,2.05,2.05,0,0,0,.78.16,1.1,1.1,0,0,1,.71.14.5.5,0,0,1,.24.51c0,.25-.18.27-.37.29s-.58.08-.55.45.29.45.62.5a12,12,0,0,0,1.71.28c.19,0,.53,0,.53.27s-.36.45-.52.43c-.49-.06-.82-.07-.69.58,0,.08-.14.16-.26.12-.35-.12-.47.07-.45.37s.26.37.54.33c.89-.12.9-.11.6.7-.07.2-.12.35.17.38.13,0,.32-.2.39.06s-.12.31-.3.36-.29.1-.27.25.24.15.38.15.59,0,.61.37c0,.55.33.46.69.38.84-.19,1.42.25,1.17,1.06-.3,1,.12,1.11.86,1.16.11,0,.22.09.33.08.73,0,.73.58.67,1-.09.56-.5.14-.79.09a1,1,0,0,0-1,.39c-.21.27.19.48.36.7.46.62,1.13-.11,1.63.26l.1-.16c.36-.55.79-.52,1.07.08.08.17.12.28.32.2s.42.07.62.24c.42.37,1,.59,1.1,1.24a.37.37,0,0,0,.32.19c.49-.06,1,.3,1.46.08a.37.37,0,0,1,.41.15c.14.18,0,.27-.15.35s-.09.2,0,.28a3.09,3.09,0,0,0,2.08,0c.19-.15.42-.23.48,0,.12.47.35.38.63.22a.44.44,0,0,1,.61.07.72.72,0,0,0,.74.21c.58-.13,1.05.29,1.61.3.26,0,.18.2.07.33-.35.43-.77.8-1.36.63s-.69.43-.78.72.36.28.61.31.49,0,.73,0,.48.14.49.38c0,.75.7.69,1.14.87.16.07.33,0,.38.26s-.1.38-.3.45l-1,.28c-.2.07-.55,0-.53.29a.79.79,0,0,0,.42.69,2.92,2.92,0,0,1,.31.14,2.3,2.3,0,0,1,.75,1.57c.1.4-.46.44-.78.57s-.5.35-.1.63a2.26,2.26,0,0,1,.86.82c.13.25,0,.58.26.82.51-2,.69-4.1,1.13-6.1-.16,2-.51,3.95-.85,5.92a1.61,1.61,0,0,1-1.06,1.45c-2.41.9-4.63,2.23-7,3.33-.18.09-.45.12-.46.47a4.13,4.13,0,0,0,1.51-.45,68,68,0,0,1,8.08-3.75c1.15-.38,2.27-.77,3.38-1.25a7.7,7.7,0,0,1,1.89-.81h0c0,.13-.25.13-.17.37.54-.22,1.06.14,1.61,0,.33-.06.68-.26,1-.1,1,.54,2.19-.05,3.2.5a.31.31,0,0,0,.19,0c1.31-.36,2.49.4,3.76.42a8.87,8.87,0,0,0,1.64-.06,2.14,2.14,0,0,1,2.15.64l-.56.2a.38.38,0,0,0-.29.33.34.34,0,0,0,.31.38c.95.07,1.82.57,2.79.43a1,1,0,0,1,.39,0c.66.13,1.45-.17,1.93.58,0,0,.05,0,.07,0a19.39,19.39,0,0,1,2.72.4,4.12,4.12,0,0,0,1,.13,2,2,0,0,1,2.16,1.56s.12,0,.18.07a7.78,7.78,0,0,1-1.57,1.22c-4.69,3.34-9.22,6.92-14.23,9.81l-4.78,2.78c-.05-.08-.08,0-.1,0h0a.26.26,0,0,0-.26.13h0a.78.78,0,0,0-.66.39h0a.26.26,0,0,0-.26.13h0a.84.84,0,0,0-.67.4h0a.37.37,0,0,0-.38.25l0,0a.2.2,0,0,0-.23.11l0,0a.22.22,0,0,0-.25.12h0a.27.27,0,0,0-.26.12h0a.27.27,0,0,0-.27.13h0a3.13,3.13,0,0,0-1.47.8l0,0a.22.22,0,0,0-.25.12h0c-.11,0-.21,0-.26.12h0a.25.25,0,0,0-.26.13h0c-.11,0-.21,0-.26.14h0c-.23,0-.44,0-.54.26h0a.27.27,0,0,0-.27.13h0c-.23,0-.43,0-.53.27h0a.25.25,0,0,0-.26.13h0c-.11,0-.21,0-.26.12h0a.26.26,0,0,0-.26.13h0a2.48,2.48,0,0,0-1.47.66h0c-.11,0-.21,0-.26.12a.78.78,0,0,1-.21.16,47.34,47.34,0,0,1-7.7,2.66c-1.11.28-2.24.49-3.37.73a8.38,8.38,0,0,0,2.79-.22A48.67,48.67,0,0,0,137,151.56c2.89-1.49,5.68-3.18,8.5-4.81a143.46,143.46,0,0,0,13.93-9.35c1.5-1.12,3-2.19,4.55-3.28,0,.14.09.25.26.26a7.2,7.2,0,0,0,1.8,0,14.79,14.79,0,0,1,4.2-.07c.69,0,1.37-.08,2.06,0a.44.44,0,0,0,.51-.43c0-.35-.33-.26-.51-.2a.49.49,0,0,1-.59-.16.36.36,0,0,0-.42-.09,6,6,0,0,1-2.27.08c-.13,0-.29,0-.29-.19s.15-.22.28-.2c.71.09,1.41-.07,2.12,0,.46,0,.95-.34,1.48-.16,0,0,.1-.08.14-.14.17-.27.37-.14.57,0l.53.27c.16.09.4.12.41.32s-.27.13-.41.2-.66.13-.31.49a1.38,1.38,0,0,0,.87.44c1.8.08,3.6.16,5.4.27a13.18,13.18,0,0,1,3.45.67,6.38,6.38,0,0,0,2.73.55c.36,0,.55.28.76.49s-.09.26-.21.36-.37.14-.33.37.3.26.48.3c.87.16,1.7.55,2.55.68a2.61,2.61,0,0,1,2.11,1.23c.16.27.18.34-.06.51-.53.37-.48.72,0,1.19a9.45,9.45,0,0,0,1.3.77,1.19,1.19,0,0,1,.48,1c0,.34-.44.26-.71.34s-.5,0-.54.31.25.33.44.43.34.12.5.2c.55.28,1.21.44,1.56,1A1.23,1.23,0,0,0,195.55,145.68Zm-34.64-11.83a.57.57,0,0,0,.88.06c.06,0,.16-.15.09-.22-.27-.26-.54,0-.8,0C161,133.73,161,133.79,160.91,133.85Zm-10-3.5c-.13,0-.3,0-.29.18s.15.21.29.21.29,0,.29-.19S151,130.36,150.88,130.35Z"/><path class="cls-44" d="M163,134.12c-.06,0-.17,0-.18-.07a2,2,0,0,0-2.16-1.56,4.12,4.12,0,0,1-1-.13A19.39,19.39,0,0,0,157,132s-.06,0-.07,0c-.48-.75-1.27-.45-1.93-.58a1,1,0,0,0-.39,0c-1,.14-1.84-.36-2.79-.43a.34.34,0,0,1-.31-.38.38.38,0,0,1,.29-.33l.56-.2a2.14,2.14,0,0,0-2.15-.64,8.87,8.87,0,0,1-1.64.06c-1.27,0-2.45-.78-3.76-.42a.31.31,0,0,1-.19,0c-1-.55-2.19,0-3.2-.5-.31-.16-.66,0-1,.1-.55.11-1.07-.25-1.61,0-.08-.24.14-.24.17-.37a.27.27,0,0,0,.27-.13.28.28,0,0,0,.27-.14.27.27,0,0,0,.27-.13.29.29,0,0,0,.27-.13l.17-.06,0,0-.15.1c-.11,0-.21,0-.26.14a.27.27,0,0,0-.27.13.31.31,0,0,0-.27.13.3.3,0,0,0-.27.14,7.7,7.7,0,0,0-1.89.81c-1.11.48-2.23.87-3.38,1.25a68,68,0,0,0-8.08,3.75,4.13,4.13,0,0,1-1.51.45c0-.35.28-.38.46-.47,2.32-1.1,4.54-2.43,7-3.33a1.61,1.61,0,0,0,1.06-1.45c.34-2,.69-3.93.85-5.92-.44,2-.62,4-1.13,6.1-.31-.24-.13-.57-.26-.82a2.26,2.26,0,0,0-.86-.82c-.4-.28-.33-.47.1-.63s.88-.17.78-.57a2.3,2.3,0,0,0-.75-1.57,2.92,2.92,0,0,0-.31-.14.79.79,0,0,1-.42-.69c0-.29.33-.22.53-.29l1-.28c.2-.07.36-.2.3-.45s-.22-.19-.38-.26c-.44-.18-1.1-.12-1.14-.87,0-.24-.24-.37-.49-.38s-.49,0-.73,0-.69-.06-.61-.31.08-.92.78-.72,1-.2,1.36-.63c.11-.13.19-.32-.07-.33-.56,0-1-.43-1.61-.3a.72.72,0,0,1-.74-.21.44.44,0,0,0-.61-.07c-.28.16-.51.25-.63-.22-.06-.25-.29-.17-.48,0a3.09,3.09,0,0,1-2.08,0c-.13-.08-.24-.18,0-.28s.29-.17.15-.35a.37.37,0,0,0-.41-.15c-.5.22-1-.14-1.46-.08a.37.37,0,0,1-.32-.19c-.11-.65-.68-.87-1.1-1.24-.2-.17-.33-.37-.62-.24s-.24,0-.32-.2c-.28-.6-.71-.63-1.07-.08l-.1.16c-.5-.37-1.17.36-1.63-.26-.17-.22-.57-.43-.36-.7a1,1,0,0,1,1-.39c.29.05.7.47.79-.09.06-.38.06-1-.67-1-.11,0-.22-.07-.33-.08-.74,0-1.16-.19-.86-1.16.25-.81-.33-1.25-1.17-1.06-.36.08-.67.17-.69-.38,0-.37-.33-.36-.61-.37s-.35.07-.38-.15.13-.21.27-.25.35-.14.3-.36-.26,0-.39-.06c-.29,0-.24-.18-.17-.38.3-.81.29-.82-.6-.7-.28,0-.51,0-.54-.33s.1-.49.45-.37c.12,0,.28,0,.26-.12-.13-.65.2-.64.69-.58.16,0,.53-.17.52-.43s-.34-.28-.53-.27a12,12,0,0,1-1.71-.28c-.33,0-.59-.16-.62-.5s.28-.42.55-.45.36,0,.37-.29a.5.5,0,0,0-.24-.51,1.1,1.1,0,0,0-.71-.14,2.05,2.05,0,0,1-.78-.16.4.4,0,0,1-.28-.42c0-.16,0-.33.21-.36.46-.06.82-.58,1.37-.19.22.15.41-.1.53-.29a.79.79,0,0,0,.08-.88.38.38,0,0,0-.57-.13c-.36.21-.39,0-.42-.3-.05-.46-.21-.82-.77-.47-.34.21-.49,0-.58-.29a11.57,11.57,0,0,1-.15-2c-.06-.46.11-1-.51-1.21-.33-.15-.29-.84,0-1.05a1.8,1.8,0,0,0,.62-2c0-.15-.11-.3-.14-.45s-.19-.32-.39-.19-.39,0-.32-.2a1.1,1.1,0,0,0-.33-1.07l.06-.25c.17,0,.32-.16.51-.08s.22,0,.25-.11,0-.28-.09-.29c-.59-.08-.28-.48-.26-.75s.19-.37-.05-.53l.05-.26c.25-.07.43-.27.7-.34s.56-.32.43-.57c-.21-.41-.17-.92-.53-1.26l.07-.25c.06,0,.16,0,.18-.08a3.57,3.57,0,0,0,.29-.81c.07-.5.51-.11.66-.3s-.46-.37-.25-.72c0,0,.07-.07.08-.11a4.23,4.23,0,0,0,.21-1.23.11.11,0,0,1,0-.11c.35-.07.22-.34.24-.55h0c.14-.05.15-.16.13-.28h0c.14,0,.15-.16.13-.28h0c.15,0,.38.06.39-.13,0-.64.47-1.14.55-1.75h0c.15,0,.17-.15.16-.27h0c.41-.07.42-.37.39-.69v0c.15,0,.16-.16.16-.28a19,19,0,0,1,2.4-3.5A32.11,32.11,0,0,1,123.82,71c1.54-.91,3.08-1.83,4.71-2.59a37.86,37.86,0,0,1,6-2.27c.18.09.35.14.42.41a5.74,5.74,0,0,0,1,2,22.9,22.9,0,0,0,11.89,8.59,8.22,8.22,0,0,0,4.17.37,6.82,6.82,0,0,0,5-4.58c.1-.23.06-.56.42-.62.53.24,1.07.46,1.58.73a29.9,29.9,0,0,1,6.85,5.09,65.64,65.64,0,0,1,7.36,9.41,71,71,0,0,1,7,14.11c-.49.35-1,0-1.48,0-1.33,0-2.65.15-4,.17a2.32,2.32,0,0,0-1-1.51c-2.67-1.76-5.49-3.25-8.29-4.79a1.25,1.25,0,0,0-1-.09A2,2,0,0,0,163,97.11a1.74,1.74,0,0,0,.91,1.86c2.49,1.49,5,3,7.53,4.37-.26.24-.54.47-.79.72a43.82,43.82,0,0,0-5,6.92,31.57,31.57,0,0,1-4.39,5.94c-1,1-2.17,1.86-3.16,2.89-.1.1-.3.08-.2.38.31.92.51,1.89.81,2.82a25.65,25.65,0,0,0,4.76,8.16c.56.69.88.72,1.71.21,1.5-.92,3-1.89,4.48-2.8a25.1,25.1,0,0,1,2.61-1.73c0,.36-.28.53-.46.77a2.11,2.11,0,0,0-.29,2.47,2.27,2.27,0,0,0,1.59,1.07l13.13,3.37,5.35,1.35c0,.1-.23.12-.13.25.26.38.33.87.66,1.21a1.78,1.78,0,0,0,.05.47,37.11,37.11,0,0,1,1.37,3.69c0,.06,0,.18.24.1a25,25,0,0,0-1.65-4.26c0-.52-.41-.92-.41-1.44l10.91,2.61c-1,1.08-1.86,2.29-3,3.27l-.15.14h0l-.14.14h0l-.14.14h0l-.14.14h0l-.14.14h0l-.14.14h0l-.14.14h0l-.14.14h0l-.14.14h0l-.14.14h0a.23.23,0,0,0-.27.27h0l-.14.15-.13.12c-.18,0-.27.09-.27.28h0l-.14.14h0l-.14.14h0c-.63-.12-.94.1-.82.78l-.79.69a1.23,1.23,0,0,1-1.24-.6c-.35-.55-1-.71-1.56-1-.16-.08-.34-.12-.5-.2s-.48-.15-.44-.43.34-.26.54-.31.7,0,.71-.34a1.19,1.19,0,0,0-.48-1,9.45,9.45,0,0,1-1.3-.77c-.49-.47-.54-.82,0-1.19.24-.17.22-.24.06-.51a2.61,2.61,0,0,0-2.11-1.23c-.85-.13-1.68-.52-2.55-.68-.18,0-.44,0-.48-.3s.2-.26.33-.37.33-.24.21-.36-.4-.53-.76-.49a6.38,6.38,0,0,1-2.73-.55,13.18,13.18,0,0,0-3.45-.67c-1.8-.11-3.6-.19-5.4-.27a1.38,1.38,0,0,1-.87-.44c-.35-.36.11-.39.31-.49s.42.08.41-.2-.25-.23-.41-.32l-.53-.27c-.2-.1-.4-.23-.57,0,0,.06-.11.15-.14.14-.53-.18-1,.17-1.48.16-.71,0-1.41.13-2.12,0-.13,0-.28,0-.28.2s.16.19.29.19a6,6,0,0,0,2.27-.08.36.36,0,0,1,.42.09.49.49,0,0,0,.59.16c.18-.06.51-.15.51.2a.44.44,0,0,1-.51.43c-.69,0-1.37,0-2.06,0a14.79,14.79,0,0,0-4.2.07,7.2,7.2,0,0,1-1.8,0c-.17,0-.23-.12-.26-.26h0l.13-.13h0a.38.38,0,0,0,.23-.53c-.08-.18-.23-.17-.35,0l0,0a.22.22,0,0,0-.25.12h0l-.12.13h0a.24.24,0,0,0-.26.12h0a.42.42,0,0,0-.26.26ZM141.52,127l-.17.05,0,0,.15-.1,0-.06Zm4-1.88.17,0,0,0-.15.1a.26.26,0,0,0-.26.13c-.17,0-.37,0-.45.2.21.06.33-.07.45-.19A.3.3,0,0,0,145.56,125.11Zm-9.69-23.4a5.21,5.21,0,0,0-.23,1.83c-.17,2.1-.34,4.21-.55,6.31-.27,2.58-.61,5.15-.94,7.73a3.83,3.83,0,0,0-.06,1.86c.11-.87.23-1.61.31-2.36.32-2.79.74-5.58,1-8.39.19-2.32.46-4.63.52-7,.19-.18.09-.42.13-.63a37.07,37.07,0,0,0,.22-3.8c.06-1.51.21-3,.17-4.68a1.39,1.39,0,0,0-.26.81C136.23,96.19,135.89,99,135.87,101.71Zm-15.52,12.66a.54.54,0,0,0-.45.57c0,.19.11.37.33.3s.58-.22.57-.56S120.54,114.41,120.35,114.37Zm13.22,8.46.45-3.08A8.69,8.69,0,0,0,133.57,122.83ZM194.26,143a1.17,1.17,0,0,0-.06-.92c0-.18-.16-.17-.31-.14s-.27,0-.21.17C193.81,142.47,193.77,142.92,194.26,143ZM124.05,117.2c0-.25-.17-.35-.37-.37s-.29.16-.29.35.11.39.35.38S124,117.4,124.05,117.2ZM116.39,110a.3.3,0,0,0,.24-.4c0-.13-.07-.34-.27-.31s-.23.23-.23.41S116.17,110,116.39,110Zm28.1,15.5-1.13.52C143.78,126,144.3,126.12,144.49,125.53ZM112.36,98.46c0-.08,0-.21-.21-.21s-.26.08-.27.23.09.23.23.26S112.35,98.67,112.36,98.46Zm7.13,14.08c-.16,0-.23,0-.24.11s.07.2.19.21.26,0,.24-.14S119.53,112.58,119.49,112.54Zm59.12,20.3c-.35-.09-.56-.27-.84-.14C178,132.91,178.2,132.93,178.61,132.84Zm-36.07-6.41c-.28.09-.53.07-.61.39C142.1,126.68,142.4,126.81,142.54,126.43Zm-21.33-11.54c.12,0,.23,0,.22-.13s-.1-.13-.19-.11-.18.07-.17.17S121.18,114.87,121.21,114.89Zm46.64,18.25-.2.15s.06.11.1.12.18,0,.18-.11A.79.79,0,0,0,167.85,133.14Zm-56.64-42c-.1,0-.15,0-.15.08a.2.2,0,0,0,0,.16c.1,0,.16,0,.17-.1S111.22,91.21,111.21,91.18Zm3.3,14.15c0-.07.11-.12.11-.16s0-.14-.07-.15-.15,0-.14.14S114.46,105.26,114.51,105.33Zm32.43,19.18a.49.49,0,0,0-.16-.05c-.09,0-.18.05-.18.16s.1.07.15.06A.18.18,0,0,0,146.94,124.51ZM115.36,103s0-.09,0-.11-.07,0-.11,0-.05.08,0,.11S115.32,103,115.36,103Zm61.84,29.61.1-.06a.13.13,0,0,0-.2,0Z"/><path class="cls-45" d="M134.54,66.09a37.86,37.86,0,0,0-6,2.27c-1.63.76-3.17,1.68-4.71,2.59-.53.12-.65-.45-1-.62a9.2,9.2,0,0,1-4.47-3.45,12,12,0,0,1-1.79-5A14.83,14.83,0,0,1,118,54.32a78.16,78.16,0,0,1,6.57-11.66c1.11-1.69,2.2-3.4,3.21-5.16a12.6,12.6,0,0,0,1.35-4.24A36.67,36.67,0,0,1,130.28,29c.63-2.2,1.37-4.37,2.17-6.52a26.77,26.77,0,0,1,3.28-6,23.19,23.19,0,0,1,3.37-3.89,24.78,24.78,0,0,1,7.09-4.73,22.84,22.84,0,0,1,7.1-1.71A22.47,22.47,0,0,1,157,5.9,26.94,26.94,0,0,1,166.46,8a25.55,25.55,0,0,1,7.85,5.6,27.17,27.17,0,0,1,3.14,4.16,27.94,27.94,0,0,1,3.47,8.73,40.15,40.15,0,0,1,.94,6,71,71,0,0,1,.08,7.58c-.06,2.1-.39,4.2-.58,6.3a75.27,75.27,0,0,1-2,9.93,68.54,68.54,0,0,1-3.41,11.11,19.18,19.18,0,0,1-4.54,7,11.73,11.73,0,0,1-4.23,2.61c-.43.14-.93.18-1,.79,0,.08-.22.14-.33.21A29.9,29.9,0,0,0,159,73c-.51-.27-1-.49-1.58-.73a1.15,1.15,0,0,1,0-.32,23.9,23.9,0,0,0,.76-3.65c.09-.6.39-.68.83-.68a3.65,3.65,0,0,0,1-.12,12.8,12.8,0,0,0,5.17-2.55,25.56,25.56,0,0,0,4.2-4.18,32.09,32.09,0,0,0,2.62-4.1c3.89-7.21,6-14.81,5.34-23.07a28.3,28.3,0,0,0-2.2-9.16,14.49,14.49,0,0,0-2.46-4c-.55-.6-.68-.58-1.2,0s-.91,1.1-1.41,1.61a33.74,33.74,0,0,1-11.44,7.51,32.35,32.35,0,0,1-9.86,2.39,6.47,6.47,0,0,1-4.33-.78,7.13,7.13,0,0,0-2.53-1,5.55,5.55,0,0,0-5.19,1.17,7.19,7.19,0,0,0-2.25,5.31,10,10,0,0,0,1.5,6.23,5.39,5.39,0,0,0,2.3,2.26c.55.21.62.5.62,1,0,1.72-.12,3.43-.26,5.15a43.28,43.28,0,0,1-1.46,8,60.29,60.29,0,0,1-2,5.87C135,65.49,134.94,65.89,134.54,66.09Z"/><path class="cls-46" d="M174.77,101.75c1.33,0,2.65-.21,4-.17.49,0,1,.36,1.48,0a19.16,19.16,0,0,0,2.8.52c.63.4,1.4.44,2,.81l0,.06,0-.06.29,0,0,0c0,.41.31.29.54.31v0a.77.77,0,0,0,.82.42h0c0,.15.15.15.28.14h0c0,.21.07.29.28.27h0c0,.14.14.17.28.14h0l.14.14h0l.14.14h0l.15.14h0l.14.14h0a4.23,4.23,0,0,1,0,3.13l.09.11a27.64,27.64,0,0,1-3.17-1.1,2.13,2.13,0,0,0-.43-.31,10.44,10.44,0,0,0-6.07-.68c-.22,0-.44,0-.66.08a3.47,3.47,0,0,0-.55.16c2.59-.18,5.1-.18,7.46,1a3.44,3.44,0,0,1,1.46,3.16c-.3.37-.3,1-.84,1.15-.33-.23-.58.31-1,0a7.64,7.64,0,0,0-6.05-.85c-.18,0-.37,0-.51.3.25,0,.42-.06.6-.07a9.28,9.28,0,0,1,5.35.74,2.8,2.8,0,0,0,1.12.37h0a.83.83,0,0,0,.13.63,3.33,3.33,0,0,1,.41,1.84c0,.57-.41,1-.41,1.58a.13.13,0,0,0-.12.14c-.2,0-.29.08-.28.27-.19,0-.28.07-.27.26-.12,0-.24,0-.26.15-.12,0-.23,0-.27.13-.13,0-.29-.1-.36.11-.22,0-.49,0-.46.33a16.19,16.19,0,0,1-.12,1.71c-.15,0-.15.15-.14.26l-.13.14a.35.35,0,0,0-.41.4.26.26,0,0,0-.28.12,8.18,8.18,0,0,1-2,.54c-.34,0-.71-.15-1,.15h0c-.13,0-.24,0-.28.15v0a.55.55,0,0,0-.41.42v0l-.14.14h0a.3.3,0,0,0-.27.28h0l-.14.14h0l-.14.14h0c-.33,0-.43.16-.42.45l-.1.07-.17.14h0c-.13,0-.23,0-.28.15h0c-.31,0-.43.13-.42.43l-.1.09-.18.14h0c-.19,0-.27.09-.32.25l-3.43,3.09a25.1,25.1,0,0,0-2.61,1.73c-1.51.91-3,1.88-4.48,2.8-.83.51-1.15.48-1.71-.21a25.65,25.65,0,0,1-4.76-8.16c-.3-.93-.5-1.9-.81-2.82-.1-.3.1-.28.2-.38,1-1,2.13-1.9,3.16-2.89a31.57,31.57,0,0,0,4.39-5.94,43.82,43.82,0,0,1,5-6.92c.25-.25.53-.48.79-.72A9.46,9.46,0,0,1,174.77,101.75Zm7.31,14.78c.13.16.24.34.54.33-.15-.22-.27-.37-.49-.39-.08-.36-.37-.49-.65-.62a5,5,0,0,0-4.12,0A7.83,7.83,0,0,1,182.08,116.53Zm-5.22-10.21,0,0s0,0,0,.05l.08-.06Z"/><path class="cls-47" d="M185.07,102.92c-.64-.37-1.41-.41-2-.81l3.51-7.27q3.57-7.36,7.12-14.73a6.79,6.79,0,0,1,2.08-2.66,5.49,5.49,0,0,1,4.36-.69c2.87.47,5.74,1,8.6,1.44l7.75,1.31c2.83.47,5.66.91,8.49,1.38,3.22.53,6.44,1,9.65,1.63a2.52,2.52,0,0,1,2,3.79c-1.07,2.49-2.25,4.94-3.4,7.4q-4.16,8.88-8.33,17.77c0,.1-.07.21-.11.31a23.59,23.59,0,0,0-2.33-1.36.58.58,0,0,1,0-.14q4.22-9.11,8.44-18.23c.86-1.88,1.86-3.7,2.59-5.65a1,1,0,0,0-.81-1.48l-.58-.13L214.2,81.86c-4.83-.8-9.67-1.6-14.49-2.42-2.33-.4-3.32.43-4.16,2.21-1.87,3.94-3.76,7.87-5.64,11.8q-2.28,4.77-4.55,9.52l-.29,0Z"/><path class="cls-47" d="M172.19,126.85l3.43-3.09.17,0c0,.22-.12.37-.2.55-.39.92-.84,1.82-1.17,2.77s0,1.68,1.09,2l.52.13,18.56,4.34q6.38,1.49,12.74,2.92a2.49,2.49,0,0,0,3.1-1.55c.95-2,1.88-4,2.82-6s1.79-3.83,2.68-5.74a1.76,1.76,0,0,0,.18,1.15,2.74,2.74,0,0,0,.63,1.16c.5.64.81,1.27.23,2a1.06,1.06,0,0,0-.08.45c-.37.26-.45.7-.63,1.08-1.27,2.66-2.53,5.34-3.79,8a4.14,4.14,0,0,1-3,2.56,8.63,8.63,0,0,1-3.11-.3l-3.78-.78-10.91-2.61a.2.2,0,0,0-.13,0l-5.35-1.35L173,131.16a2.27,2.27,0,0,1-1.59-1.07,2.11,2.11,0,0,1,.29-2.47C171.91,127.38,172.21,127.21,172.19,126.85Z"/><path class="cls-46" d="M216.89,127.93a1.06,1.06,0,0,1,.08-.45c.58-.76.27-1.39-.23-2a2.74,2.74,0,0,1-.63-1.16l.12-1.75h0c.15,0,.16-.15.15-.27h0c.45-.36.47-.46.13-.65h0l-.14-.14h0l-.14-.14h0l-.14-.14h0l-.15-.14h0c0-.21,0-.42-.29-.4h0a4.39,4.39,0,0,1-.14-3h0c.36,0,.39-.27.42-.54h0l.15-.14h0c.33,0,.58-.45,1,0a41.69,41.69,0,0,0,3.9,3.37,10.4,10.4,0,0,0,1.94,1.53,2.83,2.83,0,0,0-.78-1c-1.21-1-2.46-2-3.64-3S216,116,217,114.21h0a.64.64,0,0,0,.41-.42h0a.34.34,0,0,0,.42-.27h0c.28,0,.56-.1.85-.12s.25-.3.51-.07c1.28,1.16,2.87,1.88,4.18,3a.63.63,0,0,0,.48.19l.14.14c.09.33.34.53.71.85a1.6,1.6,0,0,0-.66-.9l-.13-.14a5.49,5.49,0,0,0-1.41-1.22,28.31,28.31,0,0,1-2.7-1.75c-.83-.64-1.57-1.31-.89-2.49,0,0,0-.13,0-.2l.09-.1.19-.14h0l.14-.15h0a3.17,3.17,0,0,1,2.74.12.25.25,0,0,0,.34-.1v0a23.59,23.59,0,0,1,2.33,1.36A13.93,13.93,0,0,1,226,113a3.18,3.18,0,0,1-.72,4.86c-.15.11-.31.15-.23.44a3,3,0,0,1-1.42,3.47.77.77,0,0,0-.48.84c.17,1.73-.43,2.55-2.16,3-.52-.52-1-1.08-1.56-1.55a5.35,5.35,0,0,0-1.73-1.19l-.14-.14a.47.47,0,0,0-.4-.4c-.1-.11-.12-.31-.33-.31a.32.32,0,0,0,.28.38.47.47,0,0,0,.4.39l.14.14,3.24,2.93a2.53,2.53,0,0,1-1.66,3.18,2.07,2.07,0,0,1-1.89-.63A6.28,6.28,0,0,1,216.89,127.93Z"/><path class="cls-43" d="M111.25,88.53c.36.34.32.85.53,1.26.13.25-.2.51-.43.57s-.45.27-.7.34A12.45,12.45,0,0,1,111.25,88.53Z"/><path class="cls-44" d="M220.93,125.92,217.69,123l.05-.06a5.35,5.35,0,0,1,1.73,1.19c.55.47,1,1,1.56,1.55A1.86,1.86,0,0,0,220.93,125.92Z"/><path class="cls-43" d="M112.49,85a4.23,4.23,0,0,1-.21,1.23s-.06.08-.08.11c-.21.35.48.4.25.72s-.59-.2-.66.3a3.57,3.57,0,0,1-.29.81s-.12,0-.18.08A16.38,16.38,0,0,1,112.49,85Z"/><path class="cls-43" d="M110.6,91c.24.16.07.35.05.53s-.33.67.26.75c.1,0,.11.17.09.29s-.13.16-.25.11-.34.08-.51.08A5.07,5.07,0,0,1,110.6,91Z"/><path class="cls-43" d="M114,81.94c-.08.61-.52,1.11-.55,1.75,0,.19-.24.14-.39.13A7.2,7.2,0,0,1,114,81.94Z"/><path class="cls-43" d="M196.34,145c-.12-.68.19-.9.82-.78A3,3,0,0,1,196.34,145Z"/><path class="cls-43" d="M114.49,81c0,.32,0,.62-.39.69A1.26,1.26,0,0,1,114.49,81Z"/><path class="cls-43" d="M112.76,84.37c0,.21.11.48-.24.55A.65.65,0,0,1,112.76,84.37Z"/><path class="cls-43" d="M197.43,143.94c0-.19.09-.28.27-.28Z"/><path class="cls-43" d="M198,143.4a.23.23,0,0,1,.27-.27Z"/><path class="cls-43" d="M114.64,80.73c0,.12,0,.24-.16.28C114.5,80.89,114.51,80.78,114.64,80.73Z"/><path class="cls-43" d="M114.1,81.68c0,.12,0,.23-.16.27C114,81.84,114,81.72,114.1,81.68Z"/><path class="cls-43" d="M113,83.82c0,.12,0,.23-.13.28C112.89,84,112.89,83.88,113,83.82Z"/><path class="cls-43" d="M112.88,84.09c0,.12,0,.23-.13.28C112.77,84.27,112.75,84.14,112.88,84.09Z"/><path class="cls-43" d="M199.44,141.92l.15-.14Z"/><path class="cls-43" d="M199.31,142.06l.14-.14Z"/><path class="cls-43" d="M199.18,142.19l.14-.14Z"/><path class="cls-43" d="M199,142.33l.14-.14Z"/><path class="cls-43" d="M198.91,142.46l.14-.14Z"/><path class="cls-43" d="M198.77,142.6l.14-.14Z"/><path class="cls-43" d="M198.64,142.73l.14-.14Z"/><path class="cls-43" d="M198.5,142.86l.14-.14Z"/><path class="cls-43" d="M198.37,143l.14-.14Z"/><path class="cls-43" d="M198.23,143.13l.14-.14Z"/><path class="cls-43" d="M197.83,143.54l.14-.15Z"/><path class="cls-43" d="M197.29,144.07l.14-.14Z"/><path class="cls-43" d="M197.16,144.21l.14-.14Z"/><path class="cls-44" d="M142.44,147.93l4.78-2.78c5-2.89,9.54-6.47,14.23-9.81a7.78,7.78,0,0,0,1.57-1.22h0a.23.23,0,0,0,.26-.26h0a.27.27,0,0,0,.26-.12h0l.12-.13h0c.1,0,.2,0,.25-.12l0,0c.18.15.1.35.12.54h0l-.13.13h0c-1.52,1.09-3.05,2.16-4.55,3.28a143.46,143.46,0,0,1-13.93,9.35c-2.82,1.63-5.61,3.32-8.5,4.81A48.67,48.67,0,0,1,124,156.39a8.38,8.38,0,0,1-2.79.22c1.13-.24,2.26-.45,3.37-.73a47.34,47.34,0,0,0,7.7-2.66.78.78,0,0,0,.21-.16l.26-.12h0a4.16,4.16,0,0,0,1.47-.66h0l.26-.13h0l.26-.12h0l.26-.13h0a.57.57,0,0,0,.53-.27h0l.27-.13h0a.56.56,0,0,0,.54-.26h0l.26-.14h0l.26-.13h0l.26-.12h0l.25-.12,0,0a4.13,4.13,0,0,0,1.47-.8h0l.27-.13h0l.26-.12h0l.25-.12,0,0,.23-.11,0,0a.43.43,0,0,0,.38-.25h0a1,1,0,0,0,.67-.4h0l.26-.13h0a1,1,0,0,0,.66-.39h0l.26-.13h0A.38.38,0,0,0,142.44,147.93Z"/><path class="cls-44" d="M160.91,133.85c.07-.06.12-.12.17-.13.26-.07.53-.29.8,0,.07.07,0,.17-.09.22A.57.57,0,0,1,160.91,133.85Z"/><path class="cls-46" d="M134.26,152.27a4.16,4.16,0,0,1-1.47.66A2.48,2.48,0,0,1,134.26,152.27Z"/><path class="cls-46" d="M139,149.84a4.13,4.13,0,0,1-1.47.8A3.13,3.13,0,0,1,139,149.84Z"/><path class="cls-44" d="M150.88,130.36c.14,0,.28,0,.29.19s-.15.2-.29.19-.28-.07-.29-.21S150.75,130.36,150.88,130.36Z"/><path class="cls-46" d="M141.12,148.63a1,1,0,0,1-.67.4A.84.84,0,0,1,141.12,148.63Z"/><path class="cls-46" d="M142.06,148.1a1,1,0,0,1-.66.39A.78.78,0,0,1,142.06,148.1Z"/><path class="cls-46" d="M136.42,151.19a.56.56,0,0,1-.54.26C136,151.21,136.19,151.18,136.42,151.19Z"/><path class="cls-46" d="M135.61,151.59a.57.57,0,0,1-.53.27C135.18,151.61,135.38,151.58,135.61,151.59Z"/><path class="cls-46" d="M140.44,149a.43.43,0,0,1-.38.25A.37.37,0,0,1,140.44,149Z"/><path class="cls-46" d="M132.79,152.94l-.26.12C132.58,153,132.68,152.94,132.79,152.94Z"/><path class="cls-46" d="M134.53,152.13l-.26.13A.26.26,0,0,1,134.53,152.13Z"/><path class="cls-46" d="M134.8,152l-.26.12C134.59,152,134.69,152,134.8,152Z"/><path class="cls-46" d="M135.07,151.86l-.26.13A.25.25,0,0,1,135.07,151.86Z"/><path class="cls-46" d="M135.88,151.46l-.27.13A.27.27,0,0,1,135.88,151.46Z"/><path class="cls-46" d="M136.68,151.05l-.26.14C136.47,151.07,136.57,151.06,136.68,151.05Z"/><path class="cls-46" d="M137,150.92l-.26.13A.25.25,0,0,1,137,150.92Z"/><path class="cls-46" d="M137.22,150.79l-.26.12C137,150.8,137.11,150.79,137.22,150.79Z"/><path class="cls-46" d="M137.48,150.66l-.25.12A.22.22,0,0,1,137.48,150.66Z"/><path class="cls-46" d="M139.24,149.71l-.27.13A.27.27,0,0,1,139.24,149.71Z"/><path class="cls-46" d="M139.5,149.58l-.26.12A.27.27,0,0,1,139.5,149.58Z"/><path class="cls-46" d="M139.77,149.45l-.25.12A.22.22,0,0,1,139.77,149.45Z"/><path class="cls-46" d="M140,149.32l-.23.11A.2.2,0,0,1,140,149.32Z"/><path class="cls-46" d="M141.38,148.5l-.26.13A.26.26,0,0,1,141.38,148.5Z"/><path class="cls-46" d="M142.32,148l-.26.13A.26.26,0,0,1,142.32,148Z"/><path class="cls-46" d="M142.44,147.93a.38.38,0,0,1-.1,0C142.36,147.9,142.39,147.85,142.44,147.93Z"/><path class="cls-46" d="M134.54,66.09c.4-.2.47-.6.62-1a60.29,60.29,0,0,0,2-5.87,43.28,43.28,0,0,0,1.46-8c.14-1.72.26-3.43.26-5.15,0-.49-.07-.78-.62-1a5.39,5.39,0,0,1-2.3-2.26,10,10,0,0,1-1.5-6.23,7.19,7.19,0,0,1,2.25-5.31,5.55,5.55,0,0,1,5.19-1.17,7.13,7.13,0,0,1,2.53,1,6.47,6.47,0,0,0,4.33.78,32.35,32.35,0,0,0,9.86-2.39A33.74,33.74,0,0,0,170,22c.5-.51.95-1.06,1.41-1.61s.65-.64,1.2,0a14.49,14.49,0,0,1,2.46,4,28.3,28.3,0,0,1,2.2,9.16c.63,8.26-1.45,15.86-5.34,23.07a32.09,32.09,0,0,1-2.62,4.1,25.56,25.56,0,0,1-4.2,4.18A12.8,12.8,0,0,1,160,67.48a3.65,3.65,0,0,1-1,.12c-.44,0-.74.08-.83.68a23.9,23.9,0,0,1-.76,3.65,1.15,1.15,0,0,0,0,.32c-.36.06-.32.39-.42.62a6.82,6.82,0,0,1-5,4.58,8.22,8.22,0,0,1-4.17-.37,22.9,22.9,0,0,1-11.89-8.59,5.74,5.74,0,0,1-1-2C134.89,66.23,134.72,66.18,134.54,66.09ZM158.23,34.9a7.07,7.07,0,0,1,1.82.15,14.47,14.47,0,0,1,3,.61.94.94,0,0,0,1.3-.33c.3-.57,0-.93-.46-1.21a9.33,9.33,0,0,0-8.87-.7c-.29.12-.63.29-.61.63s.4.51.69.55A11.55,11.55,0,0,0,158.23,34.9Zm1,6.57a4.28,4.28,0,0,0-.1-1.11c-.16-.47-.37-.88-.9-1A1.23,1.23,0,0,0,157,40a4.8,4.8,0,0,0-1,3.47,1.28,1.28,0,0,0,1,1.22,1.31,1.31,0,0,0,1.3-.66A4.63,4.63,0,0,0,159.25,41.47Zm8.15-1.38c-.18,0-.18.12-.21.2a11.63,11.63,0,0,0-.52,3.09,18.4,18.4,0,0,0,0,3.15,29.47,29.47,0,0,1,.34,5.14,1.89,1.89,0,0,1-1.65,2,6.58,6.58,0,0,1-3.08-.34c-.17,0-.35-.2-.47,0a.41.41,0,0,0,.19.53,5.26,5.26,0,0,0,.93.36,3.66,3.66,0,0,0,4.76-2.93,21.47,21.47,0,0,0-.2-4.39,24.43,24.43,0,0,1-.1-5.2A4.21,4.21,0,0,0,167.4,40.09Zm4-4.71c-.35,0-.71.07-1.07.09a.71.71,0,0,0-.72.79c0,.44.28.67.76.66a11.83,11.83,0,0,1,5.53,1c.51.24.87,0,.92-.59a.79.79,0,0,0-.55-.88A14.09,14.09,0,0,0,171.44,35.38Zm-1.14,9.2c0,.2,0,.41,0,.6a1.29,1.29,0,0,0,.84,1.25c.61.19,1-.19,1.3-.69a4.09,4.09,0,0,0,.53-3.07c-.14-.58-.41-1-1-1.11s-.88.36-1.14.79A3.65,3.65,0,0,0,170.3,44.58Zm-8.54,14.81A5,5,0,0,0,163,59.1c.18-.09.51-.13.44-.41s-.35-.12-.53-.11a9.85,9.85,0,0,1-3.81-.59,5.49,5.49,0,0,1-3.4-3.1c-.06-.15-.12-.39-.36-.31s-.15.29-.1.45a5.61,5.61,0,0,0,1.28,2.39C158,58.89,159.79,59.2,161.76,59.39Zm-4.27,8.12c-1-.18-2-.31-2.93-.56a17.25,17.25,0,0,1-9.19-5.4c-.14-.16-.3-.53-.55-.32s0,.49.12.72a7.09,7.09,0,0,0,1.39,1.45A20.64,20.64,0,0,0,153.89,67,9.17,9.17,0,0,0,157.49,67.51Z"/><path class="cls-47" d="M174.77,101.75a9.46,9.46,0,0,0-3.38,1.59c-2.57-1.35-5-2.88-7.53-4.37a1.74,1.74,0,0,1-.91-1.86,2,2,0,0,1,1.54-1.75,1.25,1.25,0,0,1,1,.09c2.8,1.54,5.62,3,8.29,4.79A2.32,2.32,0,0,1,174.77,101.75Z"/><path class="cls-43" d="M135.89,101.72c-.06,2.34-.33,4.65-.52,7-.23,2.81-.65,5.6-1,8.39-.08.75-.2,1.49-.31,2.36a3.83,3.83,0,0,1,.06-1.86c.33-2.58.67-5.15.94-7.73.21-2.1.38-4.21.55-6.31a5.21,5.21,0,0,1,.23-1.83Z"/><path class="cls-43" d="M135.87,101.71c0-2.76.36-5.52.28-8.29a1.39,1.39,0,0,1,.26-.81c0,1.65-.11,3.17-.17,4.68a37.07,37.07,0,0,1-.22,3.8c0,.21.06.45-.13.63Z"/><path class="cls-43" d="M192.05,137.34a25,25,0,0,1,1.65,4.26c-.2.08-.22,0-.24-.1a37.11,37.11,0,0,0-1.37-3.69,1.78,1.78,0,0,1-.05-.47Z"/><path class="cls-43" d="M120.35,114.37c.19,0,.44.08.45.31s-.29.47-.57.56-.32-.11-.33-.3A.54.54,0,0,1,120.35,114.37Z"/><path class="cls-43" d="M133.57,122.83a8.69,8.69,0,0,1,.45-3.08Z"/><path class="cls-43" d="M194.26,143c-.49-.12-.45-.57-.58-.89-.06-.16.11-.14.21-.17s.26,0,.31.14A1.17,1.17,0,0,1,194.26,143Z"/><path class="cls-43" d="M124.05,117.2c0,.2-.1.35-.31.36s-.35-.16-.35-.38.07-.37.29-.35S124.06,117,124.05,117.2Z"/><path class="cls-43" d="M116.39,110c-.22,0-.26-.13-.26-.3s0-.38.23-.41.24.18.27.31A.3.3,0,0,1,116.39,110Z"/><path class="cls-43" d="M144.49,125.53c-.19.59-.71.42-1.13.52Z"/><path class="cls-43" d="M191.51,135.88a.2.2,0,0,1,.13,0c0,.52.39.92.41,1.44h0c-.33-.34-.4-.83-.66-1.21C191.28,136,191.48,136,191.51,135.88Z"/><path class="cls-43" d="M112.36,98.46c0,.21-.08.3-.25.28s-.24-.11-.23-.26.12-.22.27-.23S112.34,98.38,112.36,98.46Z"/><path class="cls-43" d="M119.49,112.54s.18.1.19.18-.13.15-.24.14-.21-.07-.19-.21S119.33,112.51,119.49,112.54Z"/><path class="cls-43" d="M164.1,134c0-.19.06-.39-.12-.54.12-.16.27-.17.35,0A.38.38,0,0,1,164.1,134Z"/><path class="cls-43" d="M178.61,132.84c-.41.09-.63.07-.84-.14C178.05,132.57,178.26,132.75,178.61,132.84Z"/><path class="cls-43" d="M142.54,126.43c-.14.38-.44.25-.61.39C142,126.5,142.26,126.52,142.54,126.43Z"/><path class="cls-43" d="M121.21,114.89s-.13,0-.14-.07.08-.15.17-.17.19,0,.19.11S121.33,114.88,121.21,114.89Z"/><path class="cls-43" d="M167.85,133.14a.79.79,0,0,1,.08.16c0,.12-.09.14-.18.11s-.06-.08-.1-.12Z"/><path class="cls-43" d="M111.21,91.18s.06.09.06.14-.07.15-.17.1a.2.2,0,0,1,0-.16C111.06,91.2,111.11,91.14,111.21,91.18Z"/><path class="cls-43" d="M114.51,105.33c-.05-.07-.1-.12-.1-.17s0-.17.14-.14.07.1.07.15S114.56,105.26,114.51,105.33Z"/><path class="cls-43" d="M146.94,124.51a.18.18,0,0,1-.19.17c-.05,0-.15,0-.15-.06s.09-.15.18-.16A.49.49,0,0,1,146.94,124.51Z"/><path class="cls-43" d="M145.29,125.25c-.12.12-.24.25-.45.19.08-.24.28-.18.45-.2Z"/><path class="cls-43" d="M115.36,103s-.1,0-.11,0,0-.08,0-.11.1,0,.11,0S115.37,103,115.36,103Z"/><path class="cls-43" d="M177.2,132.63l-.1-.06a.13.13,0,0,1,.2,0Z"/><path class="cls-43" d="M163.29,133.85a.23.23,0,0,1-.26.26A.42.42,0,0,1,163.29,133.85Z"/><path class="cls-43" d="M145.55,125.11l.15-.1,0,0-.17,0Z"/><path class="cls-43" d="M145.56,125.11a.3.3,0,0,1-.27.14h0a.26.26,0,0,1,.26-.13Z"/><path class="cls-43" d="M141.53,127l-.15.1,0,0,.17-.05Z"/><path class="cls-43" d="M140,127.66l.15-.1,0,0-.17.06Z"/><path class="cls-43" d="M139.78,127.8c.05-.11.15-.13.26-.14h0a.29.29,0,0,1-.27.13Z"/><path class="cls-43" d="M139.51,127.93a.27.27,0,0,1,.27-.13h0a.27.27,0,0,1-.27.13Z"/><path class="cls-43" d="M139.24,128.06a.31.31,0,0,1,.27-.13h0a.28.28,0,0,1-.27.14Z"/><path class="cls-43" d="M139.24,128.07a.27.27,0,0,1-.27.13h0a.3.3,0,0,1,.27-.14Z"/><path class="cls-43" d="M164,133.46c0,.1-.15.11-.25.12A.22.22,0,0,1,164,133.46Z"/><path class="cls-43" d="M163.56,133.72a.27.27,0,0,1-.26.12A.24.24,0,0,1,163.56,133.72Z"/><path class="cls-43" d="M164,134.11l.13-.13Z"/><path class="cls-43" d="M163.69,133.58l-.12.13Z"/><path class="cls-43" d="M141.52,127l0-.06,0,.06Z"/><path class="cls-48" d="M219,110.72l-.09.1a1.88,1.88,0,0,0-.15,2.31c-.3.18-.72.06-.92.41h0a.34.34,0,0,0-.42.27h0a.37.37,0,0,0-.41.42h0a1.4,1.4,0,0,0-.61,1.49,1.23,1.23,0,0,1-.33,1.33h0a.14.14,0,0,0-.15.14h0a.87.87,0,0,0-.42.54h0a2.48,2.48,0,0,0,.14,3h0a.57.57,0,0,0,.29.4h0l.15.14h0a.14.14,0,0,0,.14.14h0a.14.14,0,0,0,.14.14h0c0,.08,0,.14.14.14h0c.11.25-.12.43-.13.65h0c-.14,0-.13.16-.15.27h0a1.18,1.18,0,0,0-.3.6c-.89,1.91-1.78,3.83-2.68,5.74s-1.87,4-2.82,6a2.49,2.49,0,0,1-3.1,1.55Q201,135,194.59,133.47L176,129.13l-.52-.13c-1.06-.27-1.46-.92-1.09-2s.78-1.85,1.17-2.77c.08-.18.24-.33.2-.55l.15-.22h0l.18-.14.1-.09c.14-.14.42-.16.42-.43h0c.17.09.21,0,.28-.15h0l.17-.14.1-.07c.16-.13.37-.22.42-.45h0c.11,0,.18,0,.14-.14h0c.11,0,.19,0,.14-.14h0c.21,0,.29-.08.27-.28h0c.13,0,.17,0,.14-.14v0a.43.43,0,0,0,.41-.42v0c.15.07.21,0,.28-.15h0a4.3,4.3,0,0,0,2.92-.48.77.77,0,0,0,.55.34c1.71.42,3.42.83,5.11,1.28a.63.63,0,0,0,.88-.43c.51-1.24,1-2.46,1.57-3.69.62-1.47.62-1.52-.92-1.83a16.23,16.23,0,0,0-3.51-.73,3.63,3.63,0,0,0-.68-3.22h0c0-.37.37-.31.5-.52.54-.19.54-.78.84-1.15a5.48,5.48,0,0,0,.52.31c1.62.86,3.24,1.75,4.89,2.57a1.67,1.67,0,0,0,2.42-.76,1.85,1.85,0,0,0-.35-1.74,13,13,0,0,0,1.2-2.73c.17-.41-.12-.58-.5-.67-1.21-.27-2.41-.62-3.63-.85-.69-.13-1.37-.58-2.13-.23a2.11,2.11,0,0,0-.55-1.48h0l-.14-.14h0a.14.14,0,0,0-.15-.14h0a.13.13,0,0,0-.14-.14h0c0-.09-.05-.13-.14-.14h0c-.07-.1-.12-.24-.28-.14h0c0-.22-.16-.22-.28-.27h0c-.05-.13-.17-.14-.28-.14h0a1.39,1.39,0,0,0-.82-.42v0a1,1,0,0,0-.54-.31l0,0q2.28-4.75,4.55-9.52c1.88-3.93,3.77-7.86,5.64-11.8.84-1.78,1.83-2.61,4.16-2.21,4.82.82,9.66,1.62,14.49,2.42l17.85,2.94.58.13a1,1,0,0,1,.81,1.48c-.73,2-1.73,3.77-2.59,5.65q-4.22,9.12-8.44,18.23a.58.58,0,0,0,0,.14v0c-.24-.1-.48-.22-.73-.3a2.23,2.23,0,0,0-2.35.28h0l-.14.15h0Zm.52-18.23.1.12-.87,2.57c-.07.22-.31.48.15.53.3,0,.66.42.86-.16.61-1.74,1.23-3.47,1.84-5.2.05-.14.15-.31-.09-.38-.41-.11-.88-.3-1.14.17a11.52,11.52,0,0,1-1.32,1.46c-.47.58-1,1.12-1.59,1.79.08-1.35-.17-2.54-.12-3.74,0-.53-.28-.62-.66-.71s-.64-.07-.79.39c-.55,1.62-1.16,3.21-1.72,4.82-.07.2-.45.49.1.65s.74.19.92-.36c.35-1.12.76-2.23,1.14-3.34a25.73,25.73,0,0,1,.14,3.62c0,.24,0,.41.3.5a.42.42,0,0,0,.55-.22,4.87,4.87,0,0,1,.59-.8C218.49,93.67,218.79,92.88,219.52,92.49Zm-23,10.59c.41.09.5-.23.6-.5.74-2,1.49-3.9,2.21-5.86.27-.72.2-.83-.56-1-1.69-.39-3.39-.74-5.07-1.15-.45-.11-.67,0-.83.4-.81,2-1.61,4.1-2.43,6.14-.19.46,0,.66.41.75l2.41.52Zm18-13.41a1.32,1.32,0,0,0-.92-1.18c-.65-.25-1.34-.3-2-.49-.39-.12-.6,0-.73.41-.53,1.6-1.1,3.18-1.64,4.78-.07.19-.31.47.16.52.31,0,.68.38.85-.21a12.73,12.73,0,0,1,.54-1.5c.07-.16,0-.51.38-.41s.47.12.51.5c.06.66.25,1.3.36,2,.08.5.49.4.78.41s.23-.36.21-.55a7,7,0,0,0-.26-1.51c-.19-.61.13-.8.61-1A1.65,1.65,0,0,0,214.51,89.67ZM206.38,93a3,3,0,0,0,.78-.1,3.72,3.72,0,0,0,2.25-3.68,2.17,2.17,0,0,0-3-2.08,3.47,3.47,0,0,0-2.39,3.15A2.21,2.21,0,0,0,206.38,93Zm-1.62-6.46c-1.16-.37-2.38-.47-3.56-.78-.22-.06-.25.12-.3.26q-.93,2.59-1.84,5.19c-.06.15-.11.3.07.42a.7.7,0,0,0,1.11-.39c.07-.21.13-.42.2-.63.14-.4.18-.94.46-1.15s.78.1,1.19.17a2.26,2.26,0,0,1,.45.1c.54.19.7-.13.81-.56s-.3-.34-.52-.41-.48-.09-.72-.14c-1-.18-.92-.17-.63-1.11.18-.57.45-.67,1-.49a10.19,10.19,0,0,0,1.1.22C204.48,87.45,204.48,87.45,204.76,86.56Zm12.43,19.2c.33,0,.58,0,.63-.29s-.26-.23-.42-.29l-.32-.1c-2.55-.53-5.09-1.06-7.63-1.61q-4.44-.94-8.86-1.94c-.31-.07-.58-.08-.66.22s.26.33.48.38l13.42,2.9Zm4.38-2.85c.24.06.49,0,.5-.28s-.37-.32-.59-.36c-4.19-.89-8.4-1.74-12.6-2.62-1.41-.3-2.82-.64-4.23-1-.19,0-.41-.13-.49.15s.11.36.31.43.22,0,.33.07c3.67.91,7.38,1.64,11.08,2.4Zm-25,8.22c-.09,0-.3,0-.33.22s.24.39.48.45l14,3.2c.76.18,1.52.32,2.28.49.18.05.32,0,.39-.14a.31.31,0,0,0-.2-.43,2.15,2.15,0,0,0-.45-.14l-12-2.72Zm13.72,11.26c.14,0,.28-.06.31-.31s-.16-.29-.37-.34l-12.29-2.82-3.76-.89c-.2,0-.42-.12-.49.17a.36.36,0,0,0,.3.45l.33.06c3.42.79,6.84,1.59,10.26,2.37Zm-4.44,2.73c.2,0,.42,0,.44-.23s-.23-.39-.47-.45l-9.18-2.09c-1.28-.29-2.55-.61-3.83-.92-.2,0-.41-.17-.47.15a.34.34,0,0,0,.34.46,3.69,3.69,0,0,1,.45.11l9.3,2.16Zm4.3-13.58c.17,0,.38,0,.44-.2s-.13-.34-.34-.4l-.38-.09-11.52-2.66c-.29-.06-.75-.31-.83.19s.46.37.72.43c3.12.74,6.24,1.44,9.37,2.15Z"/><path class="cls-47" d="M193.64,110.76a1.85,1.85,0,0,1,.35,1.74,1.67,1.67,0,0,1-2.42.76c-1.65-.82-3.27-1.71-4.89-2.57a5.48,5.48,0,0,1-.52-.31,3.44,3.44,0,0,0-1.46-3.16c.08-.1.17-.19.25-.28a27.64,27.64,0,0,0,3.17,1.1c1.72.92,3.57,1.56,5.26,2.52l.05,0c0,.12.13.14.23.16Z"/><path class="cls-48" d="M193.38,110.56c-1.69-1-3.54-1.6-5.26-2.52l-.09-.11c.4-.36.38-.9.55-1.36,1.74.44,3.47.91,5.22,1.3.53.11.46.29.29.63A5.44,5.44,0,0,0,193.38,110.56Z"/><path class="cls-44" d="M185.32,111.53c-.13.21-.54.15-.5.52a2.8,2.8,0,0,1-1.12-.37,9.28,9.28,0,0,0-5.35-.74c-.18,0-.35,0-.6.07.14-.26.33-.26.51-.3a7.64,7.64,0,0,1,6.05.85C184.74,111.84,185,111.3,185.32,111.53Z"/><path class="cls-44" d="M185,106.94c-.08.09-.17.18-.25.28-2.36-1.21-4.87-1.21-7.46-1a3.47,3.47,0,0,1,.55-.16c.22,0,.44,0,.66-.08a10.44,10.44,0,0,1,6.07.68A2.13,2.13,0,0,1,185,106.94Z"/><path class="cls-44" d="M182.08,116.53a7.83,7.83,0,0,0-4.72-.65,5,5,0,0,1,4.12,0c.28.13.57.26.65.62Z"/><path class="cls-44" d="M184.8,112.06a3.63,3.63,0,0,1,.68,3.22l-.2.4-.34.44h0c0-.56.41-1,.41-1.58a3.33,3.33,0,0,0-.41-1.84A.83.83,0,0,1,184.8,112.06Z"/><path class="cls-43" d="M181.8,120.34a4.3,4.3,0,0,1-2.92.48c.29-.3.66-.11,1-.15a8.18,8.18,0,0,0,2-.54l.08.09Z"/><path class="cls-44" d="M188.58,106.57c-.17.46-.15,1-.55,1.36a4.23,4.23,0,0,0,0-3.13,2.11,2.11,0,0,1,.55,1.48Z"/><path class="cls-43" d="M182.79,119.21a16.19,16.19,0,0,0,.12-1.71c0-.32.24-.31.46-.33h.07c-.26.1-.33.26-.28.56a1.83,1.83,0,0,1-.35,1.48Z"/><path class="cls-44" d="M185.87,103.31a1.39,1.39,0,0,1,.82.42A.77.77,0,0,1,185.87,103.31Z"/><path class="cls-43" d="M177.56,122c-.05.23-.26.32-.42.45C177.13,122.2,177.23,122,177.56,122Z"/><path class="cls-44" d="M176.62,122.85c0,.27-.28.29-.42.43C176.19,123,176.31,122.82,176.62,122.85Z"/><path class="cls-43" d="M182.11,120a.35.35,0,0,1,.41-.4h0a.68.68,0,0,1-.41.4Z"/><path class="cls-44" d="M182.13,116.47c.22,0,.34.17.49.39-.3,0-.41-.17-.54-.33Z"/><path class="cls-44" d="M185.34,103a1,1,0,0,1,.54.31C185.65,103.31,185.35,103.43,185.34,103Z"/><path class="cls-43" d="M178.63,121a.43.43,0,0,1-.41.42A.55.55,0,0,1,178.63,121Z"/><path class="cls-44" d="M187,103.85c.12.05.3.05.28.27C187,104.14,186.93,104.06,187,103.85Z"/><path class="cls-44" d="M184.53,116.52c0-.19.08-.29.28-.27l0,0a.37.37,0,0,1-.29.25Z"/><path class="cls-44" d="M175.94,123.51l-.15.22-.17,0C175.67,123.6,175.75,123.48,175.94,123.51Z"/><path class="cls-43" d="M178.09,121.49c0,.2-.06.31-.27.28A.3.3,0,0,1,178.09,121.49Z"/><path class="cls-44" d="M183.44,117.18h-.07c.07-.21.23-.1.36-.11h0C183.67,117.19,183.56,117.19,183.44,117.18Z"/><path class="cls-44" d="M184.26,116.78c0-.19.08-.28.27-.26h0a.4.4,0,0,1-.28.27Z"/><path class="cls-44" d="M176.88,122.7c-.07.1-.11.24-.28.15C176.65,122.7,176.75,122.68,176.88,122.7Z"/><path class="cls-43" d="M178.9,120.82c-.07.1-.13.22-.28.15C178.66,120.82,178.77,120.81,178.9,120.82Z"/><path class="cls-43" d="M181.83,120.13a.26.26,0,0,1,.28-.12h0l0,.1-.19.1Z"/><path class="cls-43" d="M182.65,119.47c0-.11,0-.23.14-.26h0l-.15.26Z"/><path class="cls-44" d="M186.68,103.72c.11,0,.23,0,.28.14C186.83,103.87,186.72,103.87,186.68,103.72Z"/><path class="cls-44" d="M183.73,117.06c0-.16.15-.15.27-.13l0,0c-.07.11-.18.11-.28.12Z"/><path class="cls-44" d="M184,116.93c0-.16.14-.15.26-.15h0a.28.28,0,0,1-.24.16Z"/><path class="cls-44" d="M187.22,104.12c.16-.1.21,0,.28.14C187.36,104.29,187.26,104.26,187.22,104.12Z"/><path class="cls-44" d="M176.86,106.32l.06,0-.08.06s0,0,0-.05Z"/><path class="cls-44" d="M177,122.56l-.17.14Z"/><path class="cls-44" d="M187.89,104.67l.14.14Z"/><path class="cls-44" d="M187.75,104.53a.14.14,0,0,1,.15.14Z"/><path class="cls-44" d="M187.62,104.4a.13.13,0,0,1,.14.14Z"/><path class="cls-44" d="M187.48,104.26c.09,0,.15,0,.14.14Z"/><path class="cls-44" d="M184.81,116.25a.13.13,0,0,1,.12-.14h0l-.11.15Z"/><path class="cls-43" d="M182.52,119.61l.13-.14h0l-.13.14Z"/><path class="cls-44" d="M185.07,102.92l0,.06,0-.06Z"/><path class="cls-43" d="M178.22,121.35c0,.13,0,.18-.14.14Z"/><path class="cls-44" d="M176.1,123.37l-.18.14Z"/><path class="cls-43" d="M177.82,121.76c.05.14,0,.16-.14.14Z"/><path class="cls-43" d="M177.68,121.89c0,.13,0,.16-.14.14Z"/><path class="cls-44" d="M215.93,123.14a1.18,1.18,0,0,1,.3-.6l-.12,1.75A1.76,1.76,0,0,1,215.93,123.14Z"/><path class="cls-44" d="M216.08,117a1.23,1.23,0,0,0,.33-1.33,1.4,1.4,0,0,1,.61-1.49c-1.05,1.82.42,2.66,1.47,3.6s2.43,2,3.64,3a2.83,2.83,0,0,1,.78,1,10.4,10.4,0,0,1-1.94-1.53,41.69,41.69,0,0,1-3.9-3.37C216.66,116.58,216.41,117,216.08,117Z"/><path class="cls-44" d="M217.84,113.54c.2-.35.62-.23.92-.41a1.88,1.88,0,0,1,.15-2.31c0,.07,0,.15,0,.2-.68,1.18.06,1.85.89,2.49a28.31,28.31,0,0,0,2.7,1.75,5.49,5.49,0,0,1,1.41,1.22l-.06,0a.63.63,0,0,1-.48-.19c-1.31-1.11-2.9-1.83-4.18-3-.26-.23-.34.06-.51.07S218.12,113.5,217.84,113.54Z"/><path class="cls-44" d="M219.31,110.45a2.23,2.23,0,0,1,2.35-.28c.25.08.49.2.73.3a.25.25,0,0,1-.34.1A3.17,3.17,0,0,0,219.31,110.45Z"/><path class="cls-44" d="M215.69,120.69a2.48,2.48,0,0,1-.14-3A4.39,4.39,0,0,0,215.69,120.69Z"/><path class="cls-44" d="M224.05,116.62a1.6,1.6,0,0,1,.66.9c-.37-.32-.62-.52-.71-.85C224,116.65,224,116.63,224.05,116.62Z"/><path class="cls-44" d="M216.35,122.28c0-.22.24-.4.13-.65C216.82,121.82,216.8,121.92,216.35,122.28Z"/><path class="cls-44" d="M217.55,122.85a.47.47,0,0,1-.4-.39l0-.07a.47.47,0,0,1,.4.4Z"/><path class="cls-44" d="M215.54,117.7a.87.87,0,0,1,.42-.54C215.93,117.43,215.9,117.69,215.54,117.7Z"/><path class="cls-44" d="M217.15,122.46a.32.32,0,0,1-.28-.38c.21,0,.23.2.33.31Z"/><path class="cls-44" d="M217,114.22a.37.37,0,0,1,.41-.42A.64.64,0,0,1,217,114.22Z"/><path class="cls-44" d="M217.42,113.8a.34.34,0,0,1,.42-.27A.34.34,0,0,1,217.42,113.8Z"/><path class="cls-44" d="M216,121.09a.57.57,0,0,1-.29-.4C216,120.67,216,120.88,216,121.09Z"/><path class="cls-44" d="M216.21,122.55c0-.11,0-.23.15-.27C216.37,122.4,216.36,122.51,216.21,122.55Z"/><path class="cls-44" d="M219,110.72l.19-.14Z"/><path class="cls-44" d="M223.92,116.48l.13.14s0,0-.05,0l-.14-.14Z"/><path class="cls-44" d="M216,117.17a.14.14,0,0,1,.15-.14Z"/><path class="cls-44" d="M216.1,121.22l-.15-.14Z"/><path class="cls-44" d="M216.23,121.36a.14.14,0,0,1-.14-.14Z"/><path class="cls-44" d="M216.36,121.49a.14.14,0,0,1-.14-.14Z"/><path class="cls-44" d="M216.5,121.63c-.1,0-.13-.06-.14-.14Z"/><path class="cls-44" d="M217.6,122.79l.14.14-.05.06-.14-.14Z"/><path class="cls-44" d="M219.18,110.59l.14-.15Z"/><path class="cls-45" d="M158.23,34.9a11.55,11.55,0,0,1-3.08-.3c-.29,0-.66-.2-.69-.55s.32-.51.61-.63a9.33,9.33,0,0,1,8.87.7c.47.28.76.64.46,1.21a.94.94,0,0,1-1.3.33,14.47,14.47,0,0,0-3-.61A7.07,7.07,0,0,0,158.23,34.9Z"/><path class="cls-45" d="M159.25,41.47a4.63,4.63,0,0,1-.88,2.51,1.31,1.31,0,0,1-1.3.66,1.28,1.28,0,0,1-1-1.22A4.8,4.8,0,0,1,157,40a1.23,1.23,0,0,1,1.21-.57c.53.1.74.51.9,1A4.28,4.28,0,0,1,159.25,41.47Z"/><path class="cls-44" d="M167.4,40.09a4.21,4.21,0,0,1,0,1.62,24.43,24.43,0,0,0,.1,5.2,21.47,21.47,0,0,1,.2,4.39A3.66,3.66,0,0,1,163,54.23a5.26,5.26,0,0,1-.93-.36.41.41,0,0,1-.19-.53c.12-.24.3-.07.47,0a6.58,6.58,0,0,0,3.08.34,1.89,1.89,0,0,0,1.65-2,29.47,29.47,0,0,0-.34-5.14,18.4,18.4,0,0,1,0-3.15,11.63,11.63,0,0,1,.52-3.09C167.22,40.21,167.22,40.11,167.4,40.09Z"/><path class="cls-45" d="M171.44,35.38a14.09,14.09,0,0,1,4.87,1.1.79.79,0,0,1,.55.88c-.05.55-.41.83-.92.59a11.83,11.83,0,0,0-5.53-1c-.48,0-.74-.22-.76-.66a.71.71,0,0,1,.72-.79C170.73,35.45,171.09,35.41,171.44,35.38Z"/><path class="cls-45" d="M170.3,44.58a3.65,3.65,0,0,1,.53-2.23c.26-.43.6-.85,1.14-.79s.86.53,1,1.11a4.09,4.09,0,0,1-.53,3.07c-.28.5-.69.88-1.3.69a1.29,1.29,0,0,1-.84-1.25C170.28,45,170.3,44.78,170.3,44.58Z"/><path class="cls-44" d="M161.76,59.39c-2-.19-3.8-.5-5.2-2A5.61,5.61,0,0,1,155.28,55c-.05-.16-.14-.38.1-.45s.3.16.36.31a5.49,5.49,0,0,0,3.4,3.1,9.85,9.85,0,0,0,3.81.59c.18,0,.47-.11.53.11s-.26.32-.44.41A5,5,0,0,1,161.76,59.39Z"/><path class="cls-44" d="M157.49,67.51a9.17,9.17,0,0,1-3.6-.5,20.64,20.64,0,0,1-7.56-3.61A7.09,7.09,0,0,1,144.94,62c-.16-.23-.34-.53-.12-.72s.41.16.55.32a17.25,17.25,0,0,0,9.19,5.4C155.52,67.2,156.51,67.33,157.49,67.51Z"/><path class="cls-47" d="M196.52,103.08l-3.26-.7-2.41-.52c-.43-.09-.6-.29-.41-.75.82-2,1.62-4.09,2.43-6.14.16-.4.38-.51.83-.4,1.68.41,3.38.76,5.07,1.15.76.17.83.28.56,1-.72,2-1.47,3.91-2.21,5.86C197,102.85,196.93,103.17,196.52,103.08Zm-3.37-5.87c-.5,1.25-.94,2.36-1.4,3.47-.09.21-.1.3.16.36l4,.93c.17,0,.3,0,.37-.17.48-1.21,1-2.42,1.5-3.74-1,.53-1.89,1-2.73,1.48-.42.26-.59.14-.78-.21C193.89,98.65,193.55,98,193.15,97.21Zm.89-1.56c-.47,0-.42.25-.29.53.33.7.69,1.39,1,2.09.16.33.33.3.62.14a12.18,12.18,0,0,1,2.55-1.28c.14,0,.24-.1.26-.25a.31.31,0,0,0-.27-.34Z"/><path class="cls-47" d="M219.52,92.49c-.73.39-1,1.18-1.61,1.71a4.87,4.87,0,0,0-.59.8.42.42,0,0,1-.55.22c-.28-.09-.3-.26-.3-.5a25.73,25.73,0,0,0-.14-3.62c-.38,1.11-.79,2.22-1.14,3.34-.18.55-.49.49-.92.36s-.17-.45-.1-.65c.56-1.61,1.17-3.2,1.72-4.82.15-.46.41-.48.79-.39s.69.18.66.71c-.05,1.2.2,2.39.12,3.74.6-.67,1.12-1.21,1.59-1.79a11.52,11.52,0,0,0,1.32-1.46c.26-.47.73-.28,1.14-.17.24.07.14.24.09.38-.61,1.73-1.23,3.46-1.84,5.2-.2.58-.56.2-.86.16-.46,0-.22-.31-.15-.53l.87-2.57c0-.08.08-.21.06-.22S219.58,92.47,219.52,92.49Z"/><path class="cls-47" d="M214.51,89.67a1.65,1.65,0,0,1-1.15,1.78c-.48.15-.8.34-.61,1a7,7,0,0,1,.26,1.51c0,.19.21.57-.21.55s-.7.09-.78-.41c-.11-.66-.3-1.3-.36-2,0-.38-.25-.43-.51-.5s-.31.25-.38.41a12.73,12.73,0,0,0-.54,1.5c-.17.59-.54.24-.85.21-.47,0-.23-.33-.16-.52.54-1.6,1.11-3.18,1.64-4.78.13-.4.34-.53.73-.41.66.19,1.35.24,2,.49A1.32,1.32,0,0,1,214.51,89.67Zm-2.26,1.13c.74,0,1.11-.27,1.13-.82s-.58-1-1.36-.85-.66.87-.69,1.3S212,90.63,212.25,90.8Z"/><path class="cls-47" d="M206.38,93a2.21,2.21,0,0,1-2.32-2.71,3.47,3.47,0,0,1,2.39-3.15,2.17,2.17,0,0,1,3,2.08,3.72,3.72,0,0,1-2.25,3.68A3,3,0,0,1,206.38,93Zm1.93-3.33c0-.75-.12-1.28-.76-1.55a1.37,1.37,0,0,0-1.57.43,2.82,2.82,0,0,0-.87,2.17,1.27,1.27,0,0,0,2,1.08A2.57,2.57,0,0,0,208.31,89.69Z"/><path class="cls-47" d="M204.76,86.56c-.28.89-.28.89-1.2.7a10.19,10.19,0,0,1-1.1-.22c-.53-.18-.8-.08-1,.49-.29.94-.32.93.63,1.11.24,0,.49.07.72.14s.67-.15.52.41-.27.75-.81.56a2.26,2.26,0,0,0-.45-.1c-.41-.07-.9-.38-1.19-.17s-.32.75-.46,1.15c-.07.21-.13.42-.2.63a.7.7,0,0,1-1.11.39c-.18-.12-.13-.27-.07-.42q.91-2.6,1.84-5.19c0-.14.08-.32.3-.26C202.38,86.09,203.6,86.19,204.76,86.56Z"/><path class="cls-49" d="M217.19,105.76l-3.36-.73-13.42-2.9c-.22,0-.57,0-.48-.38s.35-.29.66-.22q4.42,1,8.86,1.94c2.54.55,5.08,1.08,7.63,1.61l.32.1c.16.06.46,0,.42.29S217.52,105.76,217.19,105.76Z"/><path class="cls-49" d="M221.57,102.91l-5.69-1.18c-3.7-.76-7.41-1.49-11.08-2.4-.11,0-.22,0-.33-.07s-.38-.18-.31-.43.3-.19.49-.15c1.41.33,2.82.67,4.23,1,4.2.88,8.41,1.73,12.6,2.62.22,0,.62,0,.59.36S221.81,103,221.57,102.91Z"/><path class="cls-49" d="M196.55,111.13l4.19.93,12,2.72a2.15,2.15,0,0,1,.45.14.31.31,0,0,1,.2.43c-.07.17-.21.19-.39.14-.76-.17-1.52-.31-2.28-.49l-14-3.2c-.24-.06-.51-.11-.48-.45S196.46,111.13,196.55,111.13Z"/><path class="cls-49" d="M210.27,122.39l-5.71-1.31c-3.42-.78-6.84-1.58-10.26-2.37l-.33-.06a.36.36,0,0,1-.3-.45c.07-.29.29-.21.49-.17l3.76.89,12.29,2.82c.21.05.41.06.37.34S210.41,122.43,210.27,122.39Z"/><path class="cls-49" d="M181.91,120.22l.19-.1a5.67,5.67,0,0,1,.72.1c1.45.34,2.91.68,4.35,1,.36.09.6.07.76-.3.57-1.38,1.15-2.75,1.75-4.17l-4.4-1.12.2-.4A16.23,16.23,0,0,1,189,116c1.54.31,1.54.36.92,1.83-.52,1.23-1.06,2.45-1.57,3.69a.63.63,0,0,1-.88.43c-1.69-.45-3.4-.86-5.11-1.28a.77.77,0,0,1-.55-.34Z"/><path class="cls-49" d="M205.83,125.12l-3.42-.81-9.3-2.16a3.69,3.69,0,0,0-.45-.11.34.34,0,0,1-.34-.46c.06-.32.27-.19.47-.15,1.28.31,2.55.63,3.83.92l9.18,2.09c.24.06.51.1.47.45S206,125.1,205.83,125.12Z"/><path class="cls-49" d="M210.13,111.54l-2.54-.58c-3.13-.71-6.25-1.41-9.37-2.15-.26-.06-.77,0-.72-.43s.54-.25.83-.19l11.52,2.66.38.09c.21.06.41.13.34.4S210.3,111.53,210.13,111.54Z"/><path class="cls-49" d="M188.58,106.57v-.29c.76-.35,1.44.1,2.13.23,1.22.23,2.42.58,3.63.85.38.09.67.26.5.67a13,13,0,0,1-1.2,2.73h0a.25.25,0,0,0-.23-.16l-.05,0a5.44,5.44,0,0,1,.71-2.06c.17-.34.24-.52-.29-.63C192.05,107.48,190.32,107,188.58,106.57Z"/><path class="cls-48" d="M193.43,110.59a.25.25,0,0,1,.23.16C193.56,110.73,193.46,110.71,193.43,110.59Z"/><path class="cls-48" d="M185.28,115.68l4.4,1.12c-.6,1.42-1.18,2.79-1.75,4.17-.16.37-.4.39-.76.3-1.44-.37-2.9-.71-4.35-1a5.67,5.67,0,0,0-.72-.1l0-.1a.68.68,0,0,0,.41-.4l.13-.14.15-.26a1.83,1.83,0,0,0,.35-1.48c0-.3,0-.46.28-.56s.23,0,.3-.11.21,0,.28-.12a.28.28,0,0,0,.24-.16.4.4,0,0,0,.28-.27.37.37,0,0,0,.29-.25l.11-.15Z"/><path class="cls-48" d="M193.15,97.21c.4.77.74,1.44,1.08,2.12.19.35.36.47.78.21.84-.51,1.73-1,2.73-1.48-.53,1.32-1,2.53-1.5,3.74-.07.19-.2.21-.37.17l-4-.93c-.26-.06-.25-.15-.16-.36C192.21,99.57,192.65,98.46,193.15,97.21Z"/><path class="cls-48" d="M194,95.65l3.89.89a.31.31,0,0,1,.27.34c0,.15-.12.21-.26.25a12.18,12.18,0,0,0-2.55,1.28c-.29.16-.46.19-.62-.14-.33-.7-.69-1.39-1-2.09C193.62,95.9,193.57,95.64,194,95.65Z"/><path class="cls-48" d="M219.52,92.49c.06,0,.06-.16.16-.1s0,.14-.06.22Z"/><path class="cls-48" d="M212.25,90.8c-.27-.17-1,.14-.92-.37s0-1.22.69-1.3,1.38.36,1.36.85S213,90.82,212.25,90.8Z"/><path class="cls-48" d="M208.31,89.69a2.57,2.57,0,0,1-1.2,2.13,1.27,1.27,0,0,1-2-1.08,2.82,2.82,0,0,1,.87-2.17,1.37,1.37,0,0,1,1.57-.43C208.19,88.41,208.32,88.94,208.31,89.69Z"/></svg>