<svg id="Calque_1" data-name="Calque 1" xmlns="http://www.w3.org/2000/svg" xmlns:xlink="http://www.w3.org/1999/xlink" viewBox="0 0 109 109"><defs><style>.cls-1{fill:#fff;}.cls-2{fill:#f2f2f2;}.cls-3{fill:url(#Dégradé_sans_nom_5);}.cls-4{fill:url(#Dégradé_sans_nom_5-2);}.cls-5{fill:url(#Dégradé_sans_nom_5-3);}.cls-6{fill:url(#Dégradé_sans_nom_5-4);}.cls-7{fill:url(#Dégradé_sans_nom_5-5);}</style><linearGradient id="Dégradé_sans_nom_5" x1="10.95" y1="54.5" x2="46.29" y2="54.5" gradientUnits="userSpaceOnUse"><stop offset="0" stop-color="#329986"/><stop offset="1" stop-color="#49ba75"/></linearGradient><linearGradient id="Dégradé_sans_nom_5-2" x1="72.11" y1="59.58" x2="98.05" y2="59.58" xlink:href="#Dégradé_sans_nom_5"/><linearGradient id="Dégradé_sans_nom_5-3" x1="48.59" y1="59.77" x2="68.44" y2="59.77" xlink:href="#Dégradé_sans_nom_5"/><linearGradient id="Dégradé_sans_nom_5-4" x1="52.12" y1="45.83" x2="63.91" y2="45.83" xlink:href="#Dégradé_sans_nom_5"/><linearGradient id="Dégradé_sans_nom_5-5" x1="19.94" y1="59.72" x2="36.86" y2="59.72" xlink:href="#Dégradé_sans_nom_5"/></defs><title>logo Ovom</title><rect class="cls-1" x="2.5" y="2.5" width="104" height="104" rx="25.41"/><path class="cls-2" d="M81.09,3A24.93,24.93,0,0,1,106,27.91V81.09A24.93,24.93,0,0,1,81.09,106H27.91A24.93,24.93,0,0,1,3,81.09V27.91A24.93,24.93,0,0,1,27.91,3H81.09m0-1H27.91A26,26,0,0,0,2,27.91V81.09A26,26,0,0,0,27.91,107H81.09A26,26,0,0,0,107,81.09V27.91A26,26,0,0,0,81.09,2Z"/><path class="cls-3" d="M28.53,72.16A17.66,17.66,0,1,1,46.28,55.1,17.73,17.73,0,0,1,28.53,72.16Zm0-2c.58-1.16,1.15-2.21,1.64-3.29.3-.67.64-1.18,1.45-1.2a2.36,2.36,0,0,0,.55-.18A11.38,11.38,0,0,0,40,52.71a11.2,11.2,0,0,0-8.14-9.25A11.54,11.54,0,0,0,20.72,62.93a11.68,11.68,0,0,0,5.09,2.75,1,1,0,0,1,.75.61c.3.64.63,1.26.94,1.89Z"/><path class="cls-4" d="M72.11,50.85H75.9v2.21l.45-.41a6.55,6.55,0,0,1,5.84-2.21A5.27,5.27,0,0,1,86.11,53c.12.19.22.38.35.59.32-.09.42-.39.59-.6a6.36,6.36,0,0,1,3.58-2.38,6.84,6.84,0,0,1,3.48.08A4.87,4.87,0,0,1,97.53,54a14.37,14.37,0,0,1,.52,4.7c0,2.73,0,5.46,0,8.19,0,.61,0,1.21,0,1.81a15.55,15.55,0,0,1-3.81.06c0-.24,0-.49,0-.75,0-3.51,0-7,0-10.53A4.17,4.17,0,0,0,93.42,55a2.38,2.38,0,0,0-1.74-1.09,3.67,3.67,0,0,0-3.62,1.43A5.36,5.36,0,0,0,87,58.55V68.63a14.76,14.76,0,0,1-3.8.06c0-.24,0-.5,0-.76,0-3.24,0-6.49,0-9.73A8.39,8.39,0,0,0,82.83,56,2.69,2.69,0,0,0,80,53.86a3.8,3.8,0,0,0-3.53,2.4,8.1,8.1,0,0,0-.5,3.23c0,2.83,0,5.66,0,8.49,0,.24,0,.47,0,.75H72.11Z"/><path class="cls-5" d="M58.72,50.32a9.8,9.8,0,0,1,9.61,8.12,8.27,8.27,0,0,1-.39,4.18A9.91,9.91,0,0,1,54.56,68.4a9.24,9.24,0,0,1-5.32-5.34,9,9,0,0,1,3.5-10.93A9.84,9.84,0,0,1,58.72,50.32Zm-.62,3.62a5.58,5.58,0,0,0-3.91,1.79,5.75,5.75,0,0,0-.94,6.82,6.07,6.07,0,0,0,11.06-1.21C65.31,57.5,62.53,53.94,58.1,53.94Z"/><path class="cls-6" d="M58,47.82H53.92a7.09,7.09,0,0,1-.8,0,1,1,0,0,1-1-1.06c0-.56,0-1.12,0-1.68,0-.91.33-1.23,1.23-1.23l5.69,0,3.58,0c1,0,1.27.29,1.28,1.26,0,.53,0,1.07,0,1.6,0,.76-.38,1.12-1.14,1.12H58Z"/><path class="cls-7" d="M28.48,68.37c-2.88-5.81-5.69-11.49-8.54-17.26.29,0,.47,0,.66,0,.78,0,1.56,0,2.34,0a1,1,0,0,1,1.17.7c.72,1.6,1.53,3.16,2.3,4.73.56,1.17,1.11,2.33,1.66,3.5l.37.7c.88-1.64,1.6-3.24,2.36-4.82l2.3-4.78h3.76Z"/></svg>