<svg id="Calque_1" data-name="Calque 1" xmlns="http://www.w3.org/2000/svg" viewBox="0 0 146 208"><defs><style>.cls-1{fill:#fefefe;}.cls-2{fill:#b2d5fe;}.cls-3{fill:#feb684;}.cls-4{fill:#6fa6d5;}.cls-5{fill:#323352;}.cls-6{fill:#d6e9fe;}.cls-7{fill:#0c122d;}.cls-8{fill:#8cbef9;}.cls-9{fill:#f58940;}.cls-10{fill:#101344;}.cls-11{fill:#f0f7fe;}.cls-12{fill:#203b6c;}.cls-13{fill:#fdfdfe;}.cls-14{fill:#1e3055;}</style></defs><title>doctors</title><path class="cls-1" d="M104.36,201.32c.18,1.82.34,3.64.56,5.45,0,.42.06.82.08,1.23H57.25a9.65,9.65,0,0,1-.15-1.06c-.07-2.4,0-4.8-.15-7.2-.18-2.58,0-5.18-.17-7.77-.17-2.39,0-4.79-.16-7.19-.19-3.44,0-6.9-.16-10.35-.2-4.07-.11-8.16-.15-12.24-.09-8.06-.21-16.12.07-24.18.1-2.81.16-5.62.21-8.44a1.13,1.13,0,0,1,.23-.84c2.85-3.22,5.7-6.43,8.52-9.67,1.81-2.08,3.56-4.2,5.36-6.29,1.22-1.41,2.26-3,3.58-4.3A64.17,64.17,0,0,0,72.07,120a11.24,11.24,0,0,0,1,6.36,3.25,3.25,0,0,0,1.73,1.8c.17.41.22,1,.86.94.59.34,1-.12,1.5-.31a.93.93,0,0,0,.41-1.26,1.23,1.23,0,0,0-1.25-.76,2.16,2.16,0,0,0-1,.36,5.29,5.29,0,0,1-1.82-3.33,17.92,17.92,0,0,1,.12-6.49,98.77,98.77,0,0,1,2.74-11.73c.27,0,.42-.24.58-.43a93.67,93.67,0,0,0,5.92-7.81c.39-.59,1-1.13.92-2v-.23a6.29,6.29,0,0,1,4.44,0l0,0,1.31.69,0,0,0,0,.4.28.14.13.3.25,0,0,.19.18,0,0,.19.19,0,0,.19.19,0,0a.08.08,0,0,0,.07.07l.15.16.18.2,0,0a9.66,9.66,0,0,1,1.51,7.2,6,6,0,0,0-.29,2.18c-.87,4.09-1.55,8.21-2.62,12.25a19.2,19.2,0,0,1-2.66,6.62,5.24,5.24,0,0,1-3.52,2.4c-.13-.61-.31-1.18-1-1.31a2.06,2.06,0,0,0-2,1,1.52,1.52,0,0,0,.19,2,1.34,1.34,0,0,0,2.19-.17c.22,0,.28-.25.42-.37a4,4,0,0,0,2.86-.87,9.3,9.3,0,0,0,3.51-4.89,65.78,65.78,0,0,0,2.8-11,46.32,46.32,0,0,0,1-5.35,3.85,3.85,0,0,0,.78-2.68.21.21,0,0,0,0-.15c.18-.07.17-.21.14-.36a12.73,12.73,0,0,0,0-2.31l-.2-1.17a9.13,9.13,0,0,0-1.26-3.18l0,0a1,1,0,0,0-.52-.68l0,0c0-.13,0-.29-.19-.36l-.13-.14-.2-.2,0,0-.19-.19,0,0-.2-.19,0,0-.2-.19,0,0-.2-.19,0,0-.3-.24,0,0-.21-.18,0,0-.21-.18,0,0A3.29,3.29,0,0,0,89.63,94v0a7.4,7.4,0,0,0-2.37-.81l0,0A38.89,38.89,0,0,0,88.57,80.4a15.68,15.68,0,0,0-2.4-7.76h0L86,72.31l0,0a2.11,2.11,0,0,0-.53-.84v0l-.17-.21,0,0L85.12,71h0c-.08-.17-.14-.35-.34-.42l-.19-.21A1.68,1.68,0,0,0,85,69.15q0-11,0-22a2.94,2.94,0,0,1,.2-.26,6.52,6.52,0,0,0-.9-10,72.39,72.39,0,0,0,3-8.88,7.4,7.4,0,0,0-1.42-6.44h0a.37.37,0,0,0-.39-.29.16.16,0,0,0-.17-.16l-.8-1.41c.54-.11.47-.53.47-.91,0-2.66,0-5.31,0-8,0-.65.17-.85.83-.85q26.61,0,53.22,0c.84,0,.85.38.85,1q0,25.65,0,51.31v77c0,1.19,0,1.19-1.21,1.19h-7.05a2.43,2.43,0,0,1-1.66-.34,15.35,15.35,0,0,0,.54,3.21c.57,3.22,1.19,6.42,1.44,9.68a25.17,25.17,0,0,1-.25,8.22,44,44,0,0,1-3.2,8.22,124.66,124.66,0,0,1-9.58,16.12c-2.63,3.8-5.43,7.48-8.21,11.17a2,2,0,0,1-1.66.85,25.24,25.24,0,0,1-3-.42,34.79,34.79,0,0,0-3.19-2.47c-2.74-2.11-5.6-4.09-8.28-6.28,0-.13,0-.27,0-.4a10.08,10.08,0,0,1,.23-3.28c2.25-5.76,5-11.29,7.54-16.92,1.53-3.39,3.09-6.77,4.56-10.19a1.6,1.6,0,0,1,1.44-1.11,25.65,25.65,0,0,0,2.56-.6c.15,0,.37-.06.3-.29s-.26-.27-.47-.18a11.9,11.9,0,0,1-3,.68c-.49.08-.65-.05-.76-.46-.33-1.22-.68-2.43-1-3.66q-2.8-11.17-5.59-22.34c-.84-3.42-1.62-6.86-2.43-10.28q-.81-3.37-1.61-6.75c0-.21-.06-.51-.35-.45s-.13.37-.14.57a1.83,1.83,0,0,0,.07.32c.5,2.09,1,4.18,1.49,6.27q2.69,11.1,5.39,22.21c.45,1.84,1,3.65,1.33,5.53a8.11,8.11,0,0,0-.37,2.07c-.47,2.82-.53,5.68-.77,8.52-.2,2.43-.28,4.87-.51,7.3,0,.24-.08.51.16.69,0,.13-.07.27-.12.39-2.37,5.25-4.72,10.51-7.13,15.74a12.31,12.31,0,0,0-1.34,6.57,28.34,28.34,0,0,0-1.92,3.66l-.28,0c-1.45-1.43-3.21-2.47-4.75-3.78-.13-.12-.29-.17-.43,0s0,.28.12.39c.55.41,1.08.85,1.64,1.25a28.15,28.15,0,0,0,3.42,2.52c.4.33.79.68,1.2,1C96.75,196.19,100.59,198.7,104.36,201.32ZM83.09,161.25l-6.8-.16c-.55,0-1.1,0-1.65,0-.36,0-.49.11-.48.47,0,1.19,0,2.38,0,3.56,0,.38.16.46.49.47l3.31.11c1.1.05,2.2.12,3.3.15l9.35.25c.29,0,.46-.06.5-.4.13-1.23.15-2.47.17-3.72,0-.35-.13-.5-.48-.5l-5.21-.07.3-6.52a1.22,1.22,0,0,0-.55-1.21c-1-.61-2,0-2,1.33C83.23,157.06,83.16,159.15,83.09,161.25ZM104.18,60.11c0-3.29,0-6.57,0-9.86,0-.61-.17-.8-.79-.8-2.9,0-5.8,0-8.7,0-.7,0-.8.26-.82.87a55.38,55.38,0,0,1,0,6.18,18.81,18.81,0,0,0,0,2.81c.06,2.15-.07,4.29.12,6.45.12,1.35-.15,2.74-.14,4.12,0,.66.2.84.85.83q4.3,0,8.61,0c.64,0,.86-.15.85-.83C104.16,66.63,104.18,63.37,104.18,60.11Zm0-30.94c0-3.24,0-6.47,0-9.7,0-.61-.12-.87-.81-.86-2.9,0-5.8,0-8.7,0-.63,0-.8.19-.79.8q0,9.66,0,19.3c0,.69.24.83.86.82,2.87,0,5.75,0,8.62,0,.66,0,.84-.2.83-.85C104.16,35.52,104.18,32.34,104.18,29.17ZM122.92,60.1c0,3.26,0,6.52,0,9.78,0,.66.19.84.85.83,2.81,0,5.63,0,8.44,0,.65,0,.85-.16.85-.83q0-9.81,0-19.63c0-.62-.18-.8-.8-.8-2.82,0-5.63,0-8.45,0-.68,0-.9.18-.89.88C122.93,53.59,122.92,56.84,122.92,60.1Zm-14.27,0c0,3.26,0,6.51,0,9.77,0,.58.1.84.76.83,2.87,0,5.75,0,8.62,0,.57,0,.76-.17.75-.75q0-9.85,0-19.72c0-.63-.2-.79-.81-.79-2.82,0-5.63,0-8.45,0-.69,0-.89.19-.89.88C108.67,53.59,108.65,56.85,108.65,60.11ZM133,91.31c0-3.29,0-6.57,0-9.86,0-.59-.13-.83-.78-.82q-4.31,0-8.61,0c-.6,0-.75.21-.74.77q0,9.85,0,19.71c0,.65.23.79.82.78q4.27,0,8.53,0c.64,0,.79-.2.79-.81C133,97.82,133,94.57,133,91.31ZM118.76,29.09q0-4.85,0-9.69c0-.53-.09-.79-.72-.79q-4.35,0-8.69,0c-.54,0-.72.16-.72.71q0,9.74,0,19.47c0,.59.19.75.76.74,2.84,0,5.69,0,8.53,0,.65,0,.85-.18.85-.84C118.75,35.5,118.76,32.29,118.76,29.09Zm14.27.08c0-3.26,0-6.52,0-9.78,0-.54-.12-.78-.73-.78q-4.35,0-8.7,0c-.54,0-.71.19-.7.72q0,9.74,0,19.46c0,.61.22.75.78.74,2.84,0,5.68,0,8.53,0,.66,0,.84-.2.83-.85C133,35.52,133,32.34,133,29.17Zm-4.74,104.31c.16-.47.48-.43.78-.43,1.05,0,2.11,0,3.15,0,.6,0,.82-.14.82-.78q0-9.94,0-19.89c0-.6-.21-.74-.77-.74-2.82,0-5.64,0-8.45,0-.74,0-1,.45-.84,1.15.6,2.06,1.21,4.12,1.75,6.19C126,123.76,127.23,128.52,128.29,133.48Zm-9.69-32.79c.11-.17.16-.21.16-.25q0-9.61,0-19.23c0-.44-.18-.57-.6-.57q-4.47,0-9,0c-.43,0-.58.16-.58.59,0,1,0,2.1,0,3.15a1.69,1.69,0,0,0,.61,1.44,33.14,33.14,0,0,1,7,9.73C117.1,97.2,117.88,98.86,118.6,100.69Zm-7.47,93.43c0-.32-.3-.41-.5-.55l-7-5.07c-2.31-1.66-4.62-3.32-6.94-5-.24-.17-.6-.63-.81-.32s.31.54.56.72q5.83,4.22,11.69,8.41l2.43,1.72C110.7,194.2,110.91,194.39,111.13,194.12Z"/><path class="cls-1" d="M10.49,203.5c0-.62-.51-.58-.88-.62a11.88,11.88,0,0,0-1.58,0c-.58,0-.85-.27-.86-.86,0-1.46-.1-2.92-.12-4.37,0-3.12-.18-6.23-.24-9.34-.07-3.39-.13-6.78-.32-10.16-.28-4.66-.16-9.32-.09-14,0-2.12,0-4.25.12-6.36.19-3,.09-6,.36-9,.28-3.14.42-6.3.94-9.41a2.17,2.17,0,0,0-.1-1c-.08.5-.18,1-.21,1.52s-.36.59-.79.6-.57-.22-.54-.61,0-.55,0-.83V74.34H38.41a8.55,8.55,0,0,0,2-.08,15.78,15.78,0,0,0,4.19-1.45.85.85,0,0,1,.71-.07l-.22.43h0a4.66,4.66,0,0,0-.83,1.18v0a2.34,2.34,0,0,0-.51.84h0a2.35,2.35,0,0,0-.23.32,32.14,32.14,0,0,0-3.54,12c-.05.43-.48.91,0,1.37-.4.55,0,1.25-.3,1.81a77.89,77.89,0,0,0,.16,11.93,8.78,8.78,0,0,0,.29,2.34l.05.83a3.67,3.67,0,0,0,0,.81c.18,1,.33,2.08.49,3.12a2.69,2.69,0,0,0-1.45.55,5.17,5.17,0,0,0-.09,8.63c2.3,1.78,6.66,1.93,8.15-2.07a6.4,6.4,0,0,0,.32-2.6,5,5,0,0,0-5-4.8c-.1-.49-.19-1-.3-1.49a15.17,15.17,0,0,0-.49-2.85.27.27,0,0,0,0-.15,6.76,6.76,0,0,0,0-.9c-.21-2.68-.41-5.36-.36-8,.21.11.19.31.19.5a15,15,0,0,0,2,7.16c1.85,3.65,3.85,7.21,6,10.65s4.57,7.1,7.16,10.43a1.44,1.44,0,0,1,.22,1.86,6.75,6.75,0,0,0-1,3.26c-.1,3.84-.3,7.67-.3,11.5,0,7.4-.17,14.8.11,22.21.15,4-.06,8,.16,12,.17,3.2,0,6.41.17,9.61.17,2.64,0,5.29.16,7.94.17,2.28,0,4.58.16,6.87.15,2.7,0,5.41.2,8.11H24.09l0-4.79a16.25,16.25,0,0,0,.26-3.68q.16-6.25.34-12.49c.11-4.58.15-9.16.35-13.74.11-2.42,0-4.85.15-7.28s0-5,.16-7.44c.18-2.31,0-4.63.17-7s0-4.74.17-7.12c.16-2.14.08-4.3.15-6.45.14-4.57.21-9.15.36-13.73.12-4,.13-8,.2-11.92,0-.17,0-.33,0-.5.31-3.27,0-6.56.29-9.84,0-.18.05-.45-.2-.47s-.27.28-.27.48c0,1.21-.07,2.42-.14,3.64-.15,2.61,0,5.24-.16,7.86s-.06,5-.15,7.53c-.17,4.18-.24,8.38-.35,12.57-.11,4.6-.2,9.21-.33,13.81s-.15,8.94-.35,13.4c-.11,2.68-.05,5.35-.13,8-.14,4.44-.24,8.88-.34,13.32-.11,5.1-.22,10.2-.38,15.3a30.85,30.85,0,0,1-.14,4.3c0,.28-.12.61.15.86l-.06.53c-1.37.25-2.76,0-4.13.19h-.82C16.11,203.41,13.3,203.62,10.49,203.5ZM27.84,80.83l-.09-.19h-.64c-3.4,0-6.8,0-10.19,0-.76,0-1,.19-1,1,0,5.86,0,11.71,0,17.57v.53C18.7,92.62,21.73,85.77,27.84,80.83ZM9.67,126.11a86.78,86.78,0,0,0-1.73,11.74Q8.81,132,9.67,126.11Zm.16-.68,1.32-6.93A30.31,30.31,0,0,0,9.83,125.43Zm2-9.87A3.84,3.84,0,0,0,11.3,118Zm0-.49c.19-.42.36-.73.2-1.13A1.34,1.34,0,0,0,11.88,115.07Zm.3-1.69a.8.8,0,0,0,.24-.94A1.32,1.32,0,0,0,12.18,113.38Z"/><path class="cls-2" d="M56.75,208c-.22-2.7,0-5.41-.2-8.11-.14-2.29,0-4.59-.16-6.87-.2-2.65,0-5.3-.16-7.94-.21-3.2,0-6.41-.17-9.61-.22-4,0-8-.16-12-.28-7.41-.13-14.81-.11-22.21,0-3.83.2-7.66.3-11.5a6.75,6.75,0,0,1,1-3.26,1.44,1.44,0,0,0-.22-1.86c-2.59-3.33-4.89-6.87-7.16-10.43s-4.2-7-6-10.65a15,15,0,0,1-2-7.16c0-.19,0-.39-.19-.5v-.32a25.92,25.92,0,0,0,3.7-3.85.61.61,0,0,0-.07-1A8.58,8.58,0,0,0,41.81,89l0-.35a6.89,6.89,0,0,1,3.67,1.92.85.85,0,0,1,.15,1.33,27.16,27.16,0,0,1-3.24,3.54A1.24,1.24,0,0,0,42,96.48a16.64,16.64,0,0,0,1,4.17,58.45,58.45,0,0,0,3.58,7.17,147.71,147.71,0,0,0,10.21,15.83,3.61,3.61,0,0,0,1.1,1.25l.59-1.32.32.36a22.31,22.31,0,0,0-1.19,3l-.11.19s0,0,0,0l.09-.21a.62.62,0,0,0,.41-.24c1.81-2.07,3.61-4.15,5.44-6.2q4.68-5.28,9.12-10.75c.54-.66.87-1.55,1.75-1.91l0,.64c-1.32,1.33-2.36,2.89-3.58,4.3-1.8,2.09-3.55,4.21-5.36,6.29-2.82,3.24-5.67,6.45-8.52,9.67a1.13,1.13,0,0,0-.23.84c-.05,2.82-.11,5.63-.21,8.44-.28,8.06-.16,16.12-.07,24.18,0,4.08-.05,8.17.15,12.24.16,3.45,0,6.91.16,10.35.14,2.4,0,4.8.16,7.19.19,2.59,0,5.19.17,7.77.16,2.4.08,4.8.15,7.2a9.65,9.65,0,0,0,.15,1.06Z"/><path class="cls-3" d="M19.74,203.42c1.37-.2,2.76.06,4.13-.19,0,1.59,0,3.18.05,4.77H10.16a19.88,19.88,0,0,1,.13-4.08,1.26,1.26,0,0,1,1-.24c2.55,0,5.1,0,7.66,0C19.23,203.66,19.58,203.83,19.74,203.42Z"/><path class="cls-4" d="M23.92,208c0-1.59,0-3.18-.05-4.77l.06-.53c.18.13.13.33.18.51l0,4.79Z"/><path class="cls-3" d="M84.24,36.88a6.52,6.52,0,0,1,.9,10,2.94,2.94,0,0,0-.2.26,7.54,7.54,0,0,1-5,1.5c-.36,0-.48.13-.5.47,0,1.19-.14,2.37-.16,3.55-.08,4.7-.13,9.39-.19,14.08A1.27,1.27,0,0,0,79,67.88c.18,1-.52,1.65-.84,2.45a.69.69,0,0,0-.18.16,19.26,19.26,0,0,1-9.66,7.94,12.9,12.9,0,0,1-8.34.34,6.81,6.81,0,0,1-5-4.67,17.9,17.9,0,0,1-.53-5.24,2.64,2.64,0,0,0,.45-1.49l0-.66.36-2.1c.07-.34-.12-.51-.37-.67-5-3.25-7-8.23-7.8-13.88a36.42,36.42,0,0,1-.31-4.78c0-3.57-.06-7.13-.19-10.69-.05-1.24-.1-2.48-.17-3.71,0-.1,0-.2,0-.29l.69-3,0,0c.21-.13.15-.34.19-.52h0a5.24,5.24,0,0,0,.52-1.5v0a1.3,1.3,0,0,0,.34-.68h0l.18-.35v0c.15-.07.15-.22.18-.35v0c.14-.07.16-.21.18-.35l0,0,.15-.2,0,0,0,0,.61-.92.21-.33.2-.33,0,0L50,22l.14-.15.17-.18h0l.18-.18v0l.18-.18v0l.18-.15.31-.2c1.42-.83,2.86-.47,4.31-.11a29,29,0,0,0,4.07.88,23.32,23.32,0,0,0,5.34-.26,7.26,7.26,0,0,1,3.67.19l0,0c.07.15.22.16.36.18h0l.36.3h0l.32.2h0l.69.65v0l.18.17h0c.2.21.33.48.65.53v0c0,.13.07.17.18.19l0,0a.2.2,0,0,0,.19.19h0a.63.63,0,0,0,.5.36v0a3.34,3.34,0,0,0,1.46.86l0,0,1.17.84v0l.18.19,0,0,.19.18,0,0,.19.19h0l.33.35v0a.35.35,0,0,0,.19.37.12.12,0,0,0,0,.13l.13.17h0a33.4,33.4,0,0,1,1,4.06c.67,2.62,1.2,5.27.14,8a.65.65,0,0,0,.29.85.71.71,0,0,0,1-.37l0,0c.15,0,.18-.07.19-.19v0l.32-.37h0l.18-.18.15-.16.16-.18h0c.21-.12.18-.31.17-.5a9.05,9.05,0,0,1,3-1.86A4.59,4.59,0,0,1,84.24,36.88ZM63.19,32,63,32.2a.77.77,0,0,0,0,1c.4.52,1,.38,1.45.29a16.15,16.15,0,0,1,5.88-.15c.44.08,1,.15,1.19-.45s-.25-.84-.64-1.11c-.17-.12-.32-.28-.55-.27a8,8,0,0,0-6.34,0c-.13,0-.27,0-.35.15s-.26,0-.31.19Zm-9.41,9.35.19-.2a3.73,3.73,0,0,0,.23-2.33,1.82,1.82,0,0,0-.41-1.18c-.76-.45-1.32-.39-1.53.28a4,4,0,0,0,.18,3.39.84.84,0,0,0,1.37,0ZM49,31.71a1,1,0,0,0-.68.33v0c-.75.32-.55.81-.17,1.25s.95.34,1.46.2A9.28,9.28,0,0,1,51.72,33a8.38,8.38,0,0,1,3.47.59.88.88,0,0,0,1-.18c.31-.31.06-.67-.15-.94A1.87,1.87,0,0,0,55,31.66l0,0a.73.73,0,0,0-.84-.28.41.41,0,0,0-.16,0,6.09,6.09,0,0,0-5,.33ZM66.2,41.34h0c.67.47,1.32.41,1.55-.24a4.49,4.49,0,0,0,0-3.15.91.91,0,0,0-.92-.57.76.76,0,0,0-.82.55A4,4,0,0,0,66.2,41.34ZM56.11,64.71l-.1-.07.06.1a9.26,9.26,0,0,0,6.64,3.42,13.57,13.57,0,0,0,8.84-2.64,9.85,9.85,0,0,0,3-2.94l0-.08,0,.07C73,63.35,71.6,64.36,70,65a16.48,16.48,0,0,1-10.66.91C58.22,65.63,57.24,65,56.11,64.71ZM58.41,38c-.18.06-.13.22-.15.35-.22,1.82-.48,3.65-.64,5.48-.13,1.4-.16,2.81-.19,4.21a2.63,2.63,0,0,0,1.73,2.66,1.72,1.72,0,0,0,2.11-.47c-2.26.17-2.28-.56-2.63-1.81a6.3,6.3,0,0,1-.22-1.55C58.4,43.89,58.41,41,58.41,38Zm2.83,18.47c1.83.15,3.72-.85,5.58-2a.36.36,0,0,0,.21-.4c0-.24-.24-.27-.44-.3a3.12,3.12,0,0,0-1.93.63c-2.28,1.21-4.55,1.76-6.76-.16a.4.4,0,0,0-.53-.06c-.19.13-.15.35-.06.53a3.06,3.06,0,0,0,.4.61C58.54,56.24,59.63,56.45,61.24,56.44Z"/><path class="cls-5" d="M49.62,22.45l-.21.33c-.68,0-.61.48-.61.92l0,0,0,0-.15.2,0,0c-.18.06-.2.2-.18.35v0c-.18.06-.19.2-.18.35v0c-.17.06-.18.2-.18.35h0c-.35.11-.39.37-.34.68v0a1.63,1.63,0,0,0-.52,1.5h0c-.26.1-.2.32-.19.52l0,0c-.5.37-.34,1-.57,1.47s.1.88-.46,1c-.63-1.3-1.26-2.59-1.88-3.89-.33-.67-.41-1.49-1.13-1.92h0A2.65,2.65,0,0,0,43,23.08a8.9,8.9,0,0,1-.22-4.8A14.35,14.35,0,0,0,43.48,16v0c.32,0,.34-.2.34-.43l1-1.07c.14,0,.26-.05.23-.23h0c.73.2.88-.29,1-.84v0c.43.2.54-.17.66-.41.59-1.2,1.16-2.41,1.74-3.62A.45.45,0,0,1,48.8,9c.1,0,.23,0,.3-.12a7.58,7.58,0,0,1,4.45-2.08A10.28,10.28,0,0,1,57.38,7l4.18.8c.64.42,1.38,0,2,.22.34.27.74.11,1.11.13,2.56.16,5.15-.34,7.69.35a25.55,25.55,0,0,1,4.92,1.83c.83.42,1.44,1.22,2.43,1.32l.38.52c.19.59.7.85,1.17,1.15l.5.39c0,.14,0,.25.23.23h0a.54.54,0,0,0,.09.46,10.8,10.8,0,0,1,1.25,3.37,5.72,5.72,0,0,0,.7,1.89c.31.53.47,1.28,1.22,1.47a.16.16,0,0,1,.17.16c0,.21.14.35.39.29h0c-.18.76.54,1.16.72,1.77a10.31,10.31,0,0,1-.25,6.8c-.63,1.59-1.18,3.21-1.68,4.85a3.4,3.4,0,0,1-.49,1.27c-.39.42-.84-.16-1.28-.16s-.71-.14-.69.41a9.05,9.05,0,0,0-3,1.86c-.19.12-.17.31-.17.5h0l-.16.18-.15.16-.18.18h0c-.26,0-.36.11-.32.37v0l-.19.19,0,0c-.14,0-.3,0-.4,0-.57.31-.71.17-.52-.42a4.81,4.81,0,0,0,.12-.48,10.06,10.06,0,0,0,.3-4.3c-.22-1.84-.81-3.58-1.17-5.37-.13-.67,0-1.46-.73-1.92h0l-.13-.17a.12.12,0,0,1,0-.13c0-.16,0-.31-.19-.37v0c0-.25-.07-.37-.33-.35h0l-.19-.19,0,0-.19-.18,0,0-.18-.19v0a1.16,1.16,0,0,0-1.17-.84l0,0c-.21-.76-.93-.65-1.46-.86v0c0-.3-.23-.39-.5-.36h0l-.19-.19,0,0L71,23.62v0a.67.67,0,0,0-.65-.53h0l-.18-.17v0c0-.5-.19-.73-.69-.65h0c-.05-.16-.18-.18-.32-.2h0c0-.24-.13-.34-.36-.3h0a.28.28,0,0,0-.36-.18l0,0c-.31-.6-.91-.6-1.44-.69a7.09,7.09,0,0,0-2.75.3c-.72.15-1.42,0-2.11.12A12.09,12.09,0,0,1,58,21.13c-1.52-.27-3-.73-4.55-.95a2.23,2.23,0,0,0-2.3.78l-.31.2c-.24-.19-.17,0-.18.15v0l-.18.18v0l-.18.18h0l-.17.18L50,22l-.19.19,0,0C49.65,22.17,49.64,22.31,49.62,22.45Z"/><path class="cls-6" d="M54.91,66.71c0,.22,0,.44,0,.66a10.84,10.84,0,0,0-5.59,2h0l-.51.34h0L48.4,70h0a.42.42,0,0,0-.31.22h0l-.37.31h0a.83.83,0,0,0-.48.38h0L47.1,71v0a5.41,5.41,0,0,0-1.17,1.17h0l-.13,0c-.36,0-.53.18-.49.54h0a.85.85,0,0,0-.71.07,15.78,15.78,0,0,1-4.19,1.45,8.55,8.55,0,0,1-2,.08H6.18c0-2.29,0-4.58,0-6.87,0-.57.16-.75.74-.77a53,53,0,0,1,5.34-.06c2.17.12,4.33-.37,6.5,0a20.56,20.56,0,0,0,3.12-.15c2.27.1,4.55.14,6.82.17,1.76,0,3.52.1,5.27,0s3.7-.1,5.54-.07l3.17.07c2.63.07,5.26.06,7.89,0A30.08,30.08,0,0,1,54.91,66.71Z"/><path class="cls-3" d="M94.56,188.47c2.68,2.19,5.54,4.17,8.28,6.28a34.79,34.79,0,0,1,3.19,2.47l-1.87,3.45a102.49,102.49,0,0,1-8.53-5.81,20,20,0,0,1-3.45-2.78,28.34,28.34,0,0,1,1.92-3.66Z"/><path class="cls-7" d="M79.75,11.65c-1-.1-1.6-.9-2.43-1.32A25.55,25.55,0,0,0,72.4,8.5c-2.54-.69-5.13-.19-7.69-.35-.37,0-.77.14-1.11-.13.58-.14,1.26.31,1.78-.28h1.47l-.47.19c1.06-.08,2.12.36,3.14-.1A16.18,16.18,0,0,1,79.75,11.65Z"/><path class="cls-8" d="M92.18,192.08a20,20,0,0,0,3.45,2.78,102.49,102.49,0,0,0,8.53,5.81c.53.39.53.39.2.65-3.77-2.62-7.61-5.13-11.26-7.92-.41-.31-.8-.66-1.2-1V192Z"/><path class="cls-7" d="M61.56,7.8,57.38,7a10.28,10.28,0,0,0-3.83-.19A7.58,7.58,0,0,0,49.1,8.89C49,9,48.9,9,48.8,9c-.06-.37.23-.53.45-.73a7.76,7.76,0,0,1,4.43-1.76,21.15,21.15,0,0,1,6.43.72c.54.12,1.08.2,1.62.3Z"/><path class="cls-7" d="M85.27,21.12c-.75-.19-.91-.94-1.22-1.47a5.72,5.72,0,0,1-.7-1.89,10.8,10.8,0,0,0-1.25-3.37.54.54,0,0,1-.09-.46,8.07,8.07,0,0,1,1.77,4,2.31,2.31,0,0,0,.35,1,.9.9,0,0,0,.34.73v0Z"/><path class="cls-7" d="M43.13,24.28c.72.43.8,1.25,1.13,1.92.62,1.3,1.25,2.59,1.88,3.89,0,.25.24.32.34.5s0,.19,0,.29a7.27,7.27,0,0,1-1.35-2.31c-.66-1.28-1.17-2.64-1.9-3.89A1,1,0,0,1,43.13,24.28Z"/><path class="cls-7" d="M43.48,16a14.35,14.35,0,0,1-.74,2.33,8.9,8.9,0,0,0,.22,4.8,2.65,2.65,0,0,1,.18,1.21C42,21.46,41.83,18.67,43.48,16Z"/><path class="cls-9" d="M19.74,203.42c-.16.41-.51.24-.78.24-2.56,0-5.11,0-7.66,0a1.26,1.26,0,0,0-1,.24c0-.07,0-.13,0-.2a.77.77,0,0,0,.07-.16l.15-.06c2.81.12,5.62-.09,8.43-.08Z"/><path class="cls-7" d="M48.46,9.35c-.58,1.21-1.15,2.42-1.74,3.62-.12.24-.23.61-.66.41a16.12,16.12,0,0,0,1.24-2.54C47.63,10.3,47.75,9.59,48.46,9.35Z"/><path class="cls-10" d="M61.56,7.8l.17-.26c1.2.23,2.43.08,3.65.2-.52.59-1.2.14-1.78.28C62.94,7.76,62.2,8.22,61.56,7.8Z"/><path class="cls-10" d="M69.52,7.83c-1,.46-2.08,0-3.14.1l.47-.19A6.86,6.86,0,0,1,69.52,7.83Z"/><path class="cls-7" d="M81.3,13.32c-.47-.3-1-.56-1.17-1.15A1.64,1.64,0,0,1,81.3,13.32Z"/><path class="cls-7" d="M46.07,13.41c-.11.55-.26,1-1,.84Z"/><path class="cls-1" d="M84.47,19.69a.9.9,0,0,1-.34-.73C84.51,19.08,84.65,19.31,84.47,19.69Z"/><path class="cls-7" d="M43.81,15.54c0,.23,0,.46-.34.43C43.55,15.8,43.59,15.6,43.81,15.54Z"/><path class="cls-7" d="M45.09,14.24c0,.18-.09.22-.23.23C44.85,14.32,45,14.29,45.09,14.24Z"/><path class="cls-7" d="M82,13.94c-.18,0-.22-.09-.23-.23C82,13.7,82,13.84,82,13.94Z"/><path class="cls-3" d="M10.34,203.56a.77.77,0,0,1-.07.16C10.19,203.62,10.21,203.57,10.34,203.56Z"/><path class="cls-6" d="M104.18,60.11c0,3.26,0,6.52,0,9.77,0,.68-.21.84-.85.83q-4.31,0-8.61,0c-.65,0-.85-.17-.85-.83,0-1.38.26-2.77.14-4.12-.19-2.16-.06-4.3-.12-6.45a18.81,18.81,0,0,1,0-2.81,55.38,55.38,0,0,0,0-6.18c0-.61.12-.88.82-.87,2.9,0,5.8,0,8.7,0,.62,0,.79.19.79.8C104.16,53.54,104.18,56.82,104.18,60.11Z"/><path class="cls-6" d="M104.18,29.17c0,3.17,0,6.35,0,9.52,0,.65-.17.86-.83.85-2.87,0-5.75,0-8.62,0-.62,0-.86-.13-.86-.82q0-9.64,0-19.3c0-.61.16-.81.79-.8,2.9,0,5.8,0,8.7,0,.69,0,.81.25.81.86C104.16,22.7,104.18,25.93,104.18,29.17Z"/><path class="cls-6" d="M122.92,60.1c0-3.26,0-6.51,0-9.77,0-.7.21-.89.89-.88,2.82,0,5.63,0,8.45,0,.62,0,.8.18.8.8q0,9.81,0,19.63c0,.67-.2.84-.85.83-2.81,0-5.63,0-8.44,0-.66,0-.86-.17-.85-.83C122.93,66.62,122.92,63.36,122.92,60.1Z"/><path class="cls-6" d="M108.65,60.11c0-3.26,0-6.52,0-9.78,0-.69.2-.89.89-.88,2.82,0,5.63,0,8.45,0,.61,0,.81.16.81.79q0,9.85,0,19.72c0,.58-.18.76-.75.75-2.87,0-5.75,0-8.62,0-.66,0-.76-.25-.76-.83C108.66,66.62,108.65,63.37,108.65,60.11Z"/><path class="cls-6" d="M133,91.31c0,3.26,0,6.51,0,9.77,0,.61-.15.82-.79.81q-4.26,0-8.53,0c-.59,0-.82-.13-.82-.78q0-9.85,0-19.71c0-.56.14-.77.74-.77q4.3,0,8.61,0c.65,0,.78.23.78.82C133,84.74,133,88,133,91.31Z"/><path class="cls-6" d="M118.76,29.09c0,3.2,0,6.41,0,9.61,0,.66-.2.84-.85.84-2.84,0-5.69,0-8.53,0-.57,0-.76-.15-.76-.74q0-9.74,0-19.47c0-.55.18-.71.72-.71q4.33,0,8.69,0c.63,0,.72.26.72.79Q118.76,24.24,118.76,29.09Z"/><path class="cls-6" d="M133,29.17c0,3.17,0,6.35,0,9.52,0,.65-.17.86-.83.85-2.85,0-5.69,0-8.53,0-.56,0-.78-.13-.78-.74q0-9.72,0-19.46c0-.53.16-.72.7-.72q4.35,0,8.7,0c.61,0,.73.24.73.78C133,22.65,133,25.91,133,29.17Z"/><path class="cls-6" d="M128.29,133.48c-1.06-5-2.31-9.72-3.56-14.48-.54-2.07-1.15-4.13-1.75-6.19-.2-.7.1-1.15.84-1.15,2.81,0,5.63,0,8.45,0,.56,0,.77.14.77.74q0,9.94,0,19.89c0,.64-.22.8-.82.78-1,0-2.1,0-3.15,0C128.77,133.05,128.45,133,128.29,133.48Z"/><path class="cls-11" d="M79.13,66.76c.06-4.69.11-9.38.19-14.08,0-1.18.12-2.36.16-3.55,0-.34.14-.51.5-.47a7.54,7.54,0,0,0,5-1.5q0,11,0,22a1.68,1.68,0,0,1-.35,1.23l-1.73-1.69-.24-.18h0a1,1,0,0,0-.52-.35l0,0a3.68,3.68,0,0,0-1.32-.71h0A8.89,8.89,0,0,0,79.13,66.76Z"/><path class="cls-6" d="M118.6,100.69c-.72-1.83-1.5-3.49-2.33-5.14a33.14,33.14,0,0,0-7-9.73,1.69,1.69,0,0,1-.61-1.44c0-1,0-2.1,0-3.15,0-.43.15-.59.58-.59q4.48,0,9,0c.42,0,.6.13.6.57q0,9.62,0,19.23S118.71,100.52,118.6,100.69Z"/><path class="cls-12" d="M82.87,68.69l1.73,1.69.19.21c0,.24,0,.46.34.42h0c0,.17,0,.31.22.33l0,0a.21.21,0,0,0,.17.21v0c0,.38.09.73.53.84l0,0c0,.17,0,.32.22.32h0c-.13.31.08.53.21.76a18.19,18.19,0,0,1,2,8.58c0,1.32,0,2.64-.13,4a35.88,35.88,0,0,1-.92,6c-.1.4-.45.84-.06,1.28l0,0a4.3,4.3,0,0,0,2.37.81v0c.18.56.68.61,1.15.72l0,0a.21.21,0,0,0,.21.18l0,0a.17.17,0,0,0,.21.18l0,0c0,.22.13.24.3.24h0l.2.18,0,0,.2.19,0,0,.2.19,0,0,.19.19,0,0,.2.2.13.14c0,.16,0,.3.19.36l0,0a.68.68,0,0,0,.52.68l0,0c.37,1.08.74,2.15,1.1,3.23l.16-.05.2,1.17a7.48,7.48,0,0,0-.15,2.31v.36a.21.21,0,0,1,0,.15c-.22.67-.45,1.34-.65,2-.13.42-.42.35-.72.29s-.41-.28-.32-.61a9.8,9.8,0,0,0,.17-1A10.15,10.15,0,0,0,92,98.2c-.16-.32-.27-.75-.75-.79l0,0-.18-.2-.15-.16L91,97l-.13,0,0,0c0-.14,0-.2-.19-.19l0,0c0-.14-.06-.2-.19-.19l0,0c0-.13,0-.19-.19-.18l0,0c0-.23-.14-.24-.3-.25l-.14-.13c0-.21-.14-.36-.4-.28l0,0,0,0a1.19,1.19,0,0,0-1.31-.69l0,0c-.07-.36-.38-.38-.63-.44a7.46,7.46,0,0,0-3.42,0c-.21,0-.44.1-.53.35h0c-.15,0-.3,0-.35.18h0c-.29,0-.57,0-.68.33-.15,0-.29,0-.31.19a.37.37,0,0,0-.5.32l-.19.14c-.26,0-.44.08-.47.36-.11,0-.16.06-.18.16l-.17.15-.17.16a.32.32,0,0,0-.35.15l-.17.17a.32.32,0,0,0-.15.35l-.16.17-.15.17a.15.15,0,0,0-.15.18c-.18,0-.19.16-.21.29l-.15.18a.17.17,0,0,0-.15.19c-.18,0-.19.16-.18.31-.17,0-.17.19-.18.32l-.14.19a.64.64,0,0,0-.35.64,4,4,0,0,0-1,2.33,1.2,1.2,0,0,0-.43.86c-.15.67-.59.29-.91.27s-.3-.34-.2-.6c.24-.7.52-1.39.72-2.1.26-.92,1-1.65,1.06-2.64v0c.49,0,.53-.41.56-.79v0a.19.19,0,0,0,.16-.21l0,0c.31,0,.41-.2.39-.48h0l.18-.2,0,0a.21.21,0,0,0,.19-.2l0,0a.21.21,0,0,0,.19-.2l0,0a.21.21,0,0,0,.19-.21l0,0c.29,0,.58-.11.51-.52h0c.26.06.4,0,.37-.32l0,0,.2-.18,0,0c.17,0,.32,0,.29-.24l0,.06,0-.06c.27.11.39,0,.39-.27h0c.17,0,.31,0,.32-.22l0,0a.18.18,0,0,0,.22-.15h0c1.37-.42,2.67-1.06,4.08-1.37,0,0,.05-.09.08-.14l.07-.15c.35-.07.29-.3.19-.53h0c.37-.06.35-.41.4-.65.25-1.12.49-2.25.68-3.38,0-.28.37-.62,0-.91l.05-.82A.63.63,0,0,0,87.1,86c0-2.86.21-5.75-.54-8.55-.26-1-.32-2-1.15-2.74v0c0-.3,0-.59-.34-.69v0c0-.15,0-.31-.19-.35l0,0a2.15,2.15,0,0,0-1-1.68l0,0c0-.18,0-.32-.23-.3h.07l-.07,0c.11-.27,0-.39-.27-.4v0c0-.18,0-.31-.23-.31v0c.16-.29-.11-.35-.25-.48L80,68.4a.44.44,0,0,0-.52-.34l0,0a1.51,1.51,0,0,0-.15-.28c-.15-.18-.25-.4-.12-.59s.39,0,.57.07c.36.09.68.35,1.08.21h0a1.59,1.59,0,0,0,1.32.71l0,0a.41.41,0,0,0,.52.35h0C82.64,68.66,82.75,68.68,82.87,68.69Z"/><path class="cls-8" d="M76.29,161.09l6.8.16-.06.95-.15-.46a7.8,7.8,0,0,0,.05,2.81c.07.23-.11.65.3.64s.21-.38.24-.59c.07-.54.11-1.09.13-1.64.06-1.89.05-1.89,2-1.59l5.21.07c.35,0,.48.15.48.5,0,1.25,0,2.49-.17,3.72,0,.34-.21.41-.5.4l-9.35-.25c-1.1,0-2.2-.1-3.3-.15-.1-.41-.44-.26-.68-.26-.78,0-1.55,0-2.32,0-.47,0-.64-.16-.63-.63,0-1,0-1.94,0-2.9,0-.53.22-.65.7-.65S75.89,161.37,76.29,161.09Z"/><path class="cls-2" d="M94.56,188.47l-.46-.05a12.31,12.31,0,0,1,1.34-6.57c2.41-5.23,4.76-10.49,7.13-15.74.05-.12.08-.26.12-.39a4.73,4.73,0,0,0,.35-.56c.95-2.1,1.82-4.25,2.87-6.31a4.67,4.67,0,0,0,.29-4.25,11.57,11.57,0,0,1-.38-1.43c-.55-2-1.09-4-1.64-6-.3-1.88-.88-3.69-1.33-5.53q-2.7-11.12-5.39-22.21c-.51-2.09-1-4.18-1.49-6.27a1.83,1.83,0,0,1-.07-.32c0-.2-.15-.51.14-.57s.3.24.35.45q.8,3.38,1.61,6.75c.81,3.42,1.59,6.86,2.43,10.28q2.77,11.17,5.59,22.34c.31,1.23.66,2.44,1,3.66.11.41.27.54.76.46a11.9,11.9,0,0,0,3-.68c.21-.09.41-.06.47.18s-.15.25-.3.29a25.65,25.65,0,0,1-2.56.6,1.6,1.6,0,0,0-1.44,1.11c-1.47,3.42-3,6.8-4.56,10.19-2.55,5.63-5.29,11.16-7.54,16.92a10.08,10.08,0,0,0-.23,3.28C94.57,188.2,94.56,188.34,94.56,188.47Z"/><path class="cls-11" d="M104.18,147.14c.55,2,1.09,4,1.64,6a11.57,11.57,0,0,0,.38,1.43,4.67,4.67,0,0,1-.29,4.25c-1,2.06-1.92,4.21-2.87,6.31a4.73,4.73,0,0,1-.35.56c-.24-.18-.18-.45-.16-.69.23-2.43.31-4.87.51-7.3.24-2.84.3-5.7.77-8.52A8.11,8.11,0,0,1,104.18,147.14Z"/><path class="cls-4" d="M83.63,128.06a5.24,5.24,0,0,0,3.52-2.4A19.2,19.2,0,0,0,89.81,119c1.07-4,1.75-8.16,2.62-12.25l1.16.26a46.32,46.32,0,0,1-1,5.35,65.78,65.78,0,0,1-2.8,11,9.3,9.3,0,0,1-3.51,4.89,4,4,0,0,1-2.86.87Z"/><path class="cls-4" d="M74.28,108.47c0-.22,0-.43,0-.64h0l.1-.18a21.67,21.67,0,0,0,.91-3.63,3,3,0,0,1,1.31.32l0,.35c-.22.25-.1.6-.25.86a98.77,98.77,0,0,0-2.74,11.73,17.92,17.92,0,0,0-.12,6.49,5.29,5.29,0,0,0,1.82,3.33.35.35,0,0,1,0,.14h0l-.18.18h0l-.36.73a3.25,3.25,0,0,1-1.73-1.8,11.24,11.24,0,0,1-1-6.36A64.17,64.17,0,0,1,74.28,108.47Z"/><path class="cls-8" d="M111.13,194.12c-.22.27-.43.08-.62-.05l-2.43-1.72q-5.85-4.2-11.69-8.41c-.25-.18-.83-.33-.56-.72s.57.15.81.32c2.32,1.64,4.63,3.3,6.94,5l7,5.07C110.83,193.71,111.08,193.8,111.13,194.12Z"/><path class="cls-10" d="M85.58,161.37c-1.93-.3-1.92-.3-2,1.59,0,.55-.06,1.1-.13,1.64,0,.21.13.59-.24.59s-.23-.41-.3-.64c0-.78.07-1.57.1-2.35l.06-.95c.07-2.1.14-4.19.23-6.28.06-1.32,1-1.94,2-1.33a1.22,1.22,0,0,1,.55,1.21Zm-1-.3c.67.17,1-.11.72-.91a3.62,3.62,0,0,1,0-.66c-.14-1.62.4-3.2.19-4.83-.07-.58-.35-.81-.81-.83s-.9,0-.87.54c.06,1.24-.48,2.42-.24,3.68a4.65,4.65,0,0,1,0,1.89C83.29,161,83.39,161.07,84.58,161.07Zm-1.15.91-.07-.12s-.06.08,0,.13,0,.08.06.12Z"/><path class="cls-7" d="M82.14,36.5c0-.55.36-.41.69-.41s.89.58,1.28.16A3.4,3.4,0,0,0,84.6,35c.5-1.64,1.05-3.26,1.68-4.85a10.31,10.31,0,0,0,.25-6.8c-.18-.61-.9-1-.72-1.77A7.4,7.4,0,0,1,87.23,28a72.39,72.39,0,0,1-3,8.88A4.59,4.59,0,0,0,82.14,36.5Z"/><path class="cls-2" d="M76.37,105.55c.15-.26,0-.61.25-.86a.41.41,0,0,0,.15-.07c2.17-2.63,4.2-5.37,6.14-8.18a1.29,1.29,0,0,0,.35-1.07h0l.53,0c.09.84-.53,1.38-.92,2A93.67,93.67,0,0,1,77,105.12C76.79,105.31,76.64,105.52,76.37,105.55Z"/><path class="cls-10" d="M87.3,93.24c-.39-.44,0-.88.06-1.28a35.88,35.88,0,0,0,.92-6c.09-1.32.17-2.64.13-4a18.19,18.19,0,0,0-2-8.58c-.13-.23-.34-.45-.21-.76a15.68,15.68,0,0,1,2.4,7.76A38.89,38.89,0,0,1,87.3,93.24Z"/><path class="cls-12" d="M77.15,128.76c-.48.19-.91.65-1.5.31a2.42,2.42,0,0,1-.5-1.67h0l.18-.18h0c.22,0,.43-.12.64-.15,1-.17,1.43.23,1.24,1.26A2.73,2.73,0,0,0,77.15,128.76Z"/><path class="cls-10" d="M93.59,107.05l-1.16-.26a6,6,0,0,1,.29-2.18,9.66,9.66,0,0,0-1.51-7.2c.48,0,.59.47.75.79a10.15,10.15,0,0,1,.89,6.89,9.8,9.8,0,0,1-.17,1c-.09.33-.05.54.32.61s.59.13.72-.29c.2-.67.43-1.34.65-2A3.85,3.85,0,0,1,93.59,107.05Z"/><path class="cls-2" d="M91.9,192v.37a28.15,28.15,0,0,1-3.42-2.52c-.56-.4-1.09-.84-1.64-1.25-.13-.11-.28-.21-.12-.39s.3-.11.43,0C88.69,189.57,90.45,190.61,91.9,192Z"/><path class="cls-10" d="M83.63,128.06l-.24,1.15c-.14.12-.2.34-.42.37l0,0c.09-.25.21-.5.29-.76.21-.7-.18-1.63-.7-1.71a1.74,1.74,0,0,0-1.88,2c0,.22.09.43.14.64l0,0a1.52,1.52,0,0,1-.19-2,2.06,2.06,0,0,1,2-1C83.32,126.88,83.5,127.45,83.63,128.06Z"/><path class="cls-4" d="M76.29,161.09c-.4.28-.85.13-1.28.13s-.71.12-.7.65c0,1,0,1.93,0,2.9,0,.47.16.64.63.63.77,0,1.54,0,2.32,0,.24,0,.58-.15.68.26l-3.31-.11c-.33,0-.5-.09-.49-.47,0-1.18,0-2.37,0-3.56,0-.36.12-.49.48-.47C75.19,161.08,75.74,161.08,76.29,161.09Z"/><path class="cls-10" d="M77.15,128.76a2.73,2.73,0,0,1,0-.41c.19-1-.2-1.43-1.24-1.26-.21,0-.42.1-.64.15a.35.35,0,0,0,0-.14,2.16,2.16,0,0,1,1-.36,1.23,1.23,0,0,1,1.25.76A.93.93,0,0,1,77.15,128.76Z"/><path class="cls-10" d="M83.64,95.1c.09-.25.32-.3.53-.35a7.46,7.46,0,0,1,3.42,0c.25.06.56.08.63.44a6.29,6.29,0,0,0-4.44,0A.17.17,0,0,0,83.64,95.1Z"/><path class="cls-10" d="M94.34,100.38l-.16.05c-.36-1.08-.73-2.15-1.1-3.23A9.13,9.13,0,0,1,94.34,100.38Z"/><path class="cls-10" d="M83,129.58a1.34,1.34,0,0,1-2.19.17l0,0a3,3,0,0,0,2.15-.17Z"/><path class="cls-10" d="M89.64,94a4.3,4.3,0,0,1-2.37-.81A7.4,7.4,0,0,1,89.64,94Z"/><path class="cls-10" d="M75.15,127.4a2.42,2.42,0,0,0,.5,1.67c-.64,0-.69-.53-.86-.94Z"/><path class="cls-7" d="M94.39,103.86a7.48,7.48,0,0,1,.15-2.31,12.73,12.73,0,0,1,0,2.31Z"/><path class="cls-10" d="M88.2,95.13a1.19,1.19,0,0,1,1.31.69Z"/><path class="cls-10" d="M90.78,94.72c-.47-.11-1-.16-1.15-.72A3.29,3.29,0,0,1,90.78,94.72Z"/><path class="cls-10" d="M93.1,97.22a.68.68,0,0,1-.52-.68A1,1,0,0,1,93.1,97.22Z"/><path class="cls-10" d="M86,72.33c-.44-.11-.51-.46-.53-.84A2.11,2.11,0,0,1,86,72.33Z"/><path class="cls-10" d="M85.13,71c-.33,0-.35-.18-.34-.42C85,70.66,85.05,70.84,85.13,71Z"/><path class="cls-13" d="M83.64,95.1a.17.17,0,0,1,.14,0v.23l-.53,0a.37.37,0,0,1,0-.11h0c.13,0,.29,0,.35-.18Z"/><path class="cls-7" d="M85.83,21.57c-.25.06-.34-.08-.39-.29A.37.37,0,0,1,85.83,21.57Z"/><path class="cls-10" d="M89.51,95.83c.26-.08.35.07.4.28Z"/><path class="cls-10" d="M85.34,71.33c-.21,0-.23-.16-.22-.33Z"/><path class="cls-10" d="M94.39,103.86h.15c0,.15,0,.29-.14.36Z"/><path class="cls-10" d="M86.19,72.63c-.24,0-.25-.15-.22-.32A3.62,3.62,0,0,1,86.19,72.63Z"/><path class="cls-10" d="M92.6,96.56c-.18-.06-.2-.2-.19-.36C92.57,96.27,92.56,96.43,92.6,96.56Z"/><path class="cls-10" d="M90.05,96.24c.16,0,.32,0,.3.25Z"/><path class="cls-10" d="M91.43,95.23c-.17,0-.32,0-.3-.24Z"/><path class="cls-10" d="M91.78,95.56l-.2-.19Z"/><path class="cls-10" d="M92,95.72l-.2-.19Z"/><path class="cls-10" d="M91.61,95.4l-.2-.18Z"/><path class="cls-10" d="M91.15,95a.17.17,0,0,1-.21-.18Z"/><path class="cls-10" d="M92.11,95.89l-.19-.19Z"/><path class="cls-10" d="M91,94.88a.21.21,0,0,1-.21-.18Z"/><path class="cls-10" d="M92.28,96.06l-.2-.2Z"/><path class="cls-10" d="M90.33,96.46c.14,0,.2.05.19.18Z"/><path class="cls-10" d="M90.5,96.62c.13,0,.2,0,.19.19Z"/><path class="cls-10" d="M90.66,96.79c.14,0,.2,0,.19.19A1.7,1.7,0,0,0,90.66,96.79Z"/><path class="cls-10" d="M90.83,97,91,97l-.06.11A.08.08,0,0,1,90.83,97Z"/><path class="cls-10" d="M91.05,97.23l.18.2Z"/><path class="cls-10" d="M85.47,71.51a.21.21,0,0,1-.17-.21Z"/><path class="cls-6" d="M27.84,80.83C21.73,85.77,18.7,92.62,16,99.69v-.53c0-5.86,0-11.71,0-17.57,0-.77.22-1,1-1,3.39,0,6.79,0,10.19,0h.64Z"/><path class="cls-12" d="M39.7,90.6c.34-.56-.1-1.26.3-1.81A5.12,5.12,0,0,0,40.31,87a36.71,36.71,0,0,1,2.16-8.7,14.68,14.68,0,0,0,1.33-3.17h0c.5-.07.51-.45.51-.84v0a1.36,1.36,0,0,0,.83-1.18h0c.32,0,.35-.17.35-.41l.37-.42.12-.18h0A1.55,1.55,0,0,0,47.11,71v0l.19-.18h0c.28,0,.46-.08.48-.38h0c.26.06.39,0,.37-.31h0c.17,0,.31,0,.31-.22h0c.27.11.38,0,.38-.27h0c.26,0,.51,0,.51-.34h0a1.17,1.17,0,0,0,.84-.26,11.59,11.59,0,0,1,3.45-1.33c.29-.07.75-.28.86.28s-.18.64-.61.69a2.48,2.48,0,0,0-.8.2c-.52.24-1.19.22-1.49.86l0,0c-.51,0-1,.08-1.13.68v0a.17.17,0,0,0-.22.14l0,0c-.34,0-.65.07-.68.51v0c-.28,0-.47.07-.48.39h0c-.37-.07-.55.09-.54.47h0c-.26,0-.36.09-.35.34l-.14.14-.2.19,0,0-.18.2,0,0c-.28,0-.38.1-.32.37l0,0c-.13,0-.19.08-.18.21h0c-.13,0-.21,0-.16.17v.06c-.53,0-.51.39-.57.73v0c-.38,0-.36.25-.35.51h0a.41.41,0,0,0-.34.52l0,0a.17.17,0,0,0-.15.22h0c-.56.11-.56.54-.57,1l0,0c-.19,0-.19.2-.19.35l0,0c-.19.06-.19.21-.18.36l0,0a.82.82,0,0,0-.47,1l0,0a4.6,4.6,0,0,0-1.18,2.54,49.49,49.49,0,0,0-2,12.91,67.2,67.2,0,0,0,.19,7.77,12.64,12.64,0,0,0,.44,3.56.27.27,0,0,1,0,.15,18.82,18.82,0,0,0,.59,4.79c.14.69-.25.72-.66.87-.57.19-.56-.24-.62-.58-.17-.91-.27-1.85-.51-2.74-.15-.55.14-1.22-.44-1.64l-.05-.83a5.24,5.24,0,0,0-.13-2.33c-.06-1.56-.15-3.13-.17-4.7,0-2.12,0-4.24,0-6.37C39.84,91.18,39.94,90.86,39.7,90.6Z"/><path class="cls-4" d="M42.63,109.34a5,5,0,0,1,5,4.8,6.4,6.4,0,0,1-.32,2.6c-1.49,4-5.85,3.85-8.15,2.07a5.17,5.17,0,0,1,.09-8.63,2.69,2.69,0,0,1,1.45-.55c.33.4.12,1.06.63,1.38l-.49.29a1.34,1.34,0,0,0-.51.52c-.57,0-.65.59-1,.84a3,3,0,0,0,.17,4c.23.25.41.7.91.55a1.55,1.55,0,0,0,0,.21,3.21,3.21,0,0,0,2.32.82c.22,0,.48.12.65-.13h0a1.61,1.61,0,0,0,1.31-.53A3.18,3.18,0,0,0,45.8,115a3.65,3.65,0,0,0,0-.81c-.16-.83-.28-1.71-1.19-2.12-.49-1-1.42-1.07-2.32-1.24C43.16,110.5,42.44,109.81,42.63,109.34Z"/><path class="cls-2" d="M24.11,203.21c-.05-.18,0-.38-.18-.51s-.19-.58-.15-.86a30.85,30.85,0,0,0,.14-4.3c.16-5.1.27-10.2.38-15.3.1-4.44.2-8.88.34-13.32.08-2.68,0-5.35.13-8,.2-4.46.23-8.93.35-13.4s.22-9.21.33-13.81c.11-4.19.18-8.39.35-12.57.09-2.52,0-5,.15-7.53s0-5.25.16-7.86c.07-1.22.12-2.43.14-3.64,0-.2-.08-.51.27-.48s.22.29.2.47c-.3,3.28,0,6.57-.29,9.84,0,.17,0,.33,0,.5-.07,4-.08,8-.2,11.92-.15,4.58-.22,9.16-.36,13.73-.07,2.15,0,4.31-.15,6.45-.18,2.38,0,4.75-.17,7.12s0,4.64-.17,7c-.19,2.48,0,5-.16,7.44s0,4.86-.15,7.28c-.2,4.58-.24,9.16-.35,13.74q-.16,6.24-.34,12.49A16.25,16.25,0,0,1,24.11,203.21Z"/><path class="cls-10" d="M41.81,104.85a12.64,12.64,0,0,1-.44-3.56,67.2,67.2,0,0,1-.19-7.77,49.49,49.49,0,0,1,2-12.91,4.6,4.6,0,0,1,1.18-2.54l-.21.53a36.7,36.7,0,0,0-2.35,10l0,.35a44.5,44.5,0,0,0-.34,6.63v.32c0,2.69.15,5.37.36,8A6.76,6.76,0,0,1,41.81,104.85Z"/><path class="cls-10" d="M43.8,75.15a14.68,14.68,0,0,1-1.33,3.17A36.71,36.71,0,0,0,40.31,87,5.12,5.12,0,0,1,40,88.79c-.45-.46,0-.94,0-1.37a32.14,32.14,0,0,1,3.54-12A2.35,2.35,0,0,1,43.8,75.15Z"/><path class="cls-10" d="M41.34,111c-.51-.32-.3-1-.63-1.38-.16-1-.31-2.09-.49-3.12a3.67,3.67,0,0,1,0-.81c.58.42.29,1.09.44,1.64.24.89.34,1.83.51,2.74.06.34.05.77.62.58.41-.15.8-.18.66-.87a18.82,18.82,0,0,1-.59-4.79,15.17,15.17,0,0,1,.49,2.85c.11.49.2,1,.3,1.49-.19.47.53,1.16-.35,1.46Z"/><path class="cls-10" d="M39.7,90.6c.24.26.14.58.14.87,0,2.13,0,4.25,0,6.37,0,1.57.11,3.14.17,4.7h-.16A77.89,77.89,0,0,1,39.7,90.6Z"/><path class="cls-11" d="M9.67,126.11Q8.8,132,7.94,137.85A86.78,86.78,0,0,1,9.67,126.11Z"/><path class="cls-11" d="M9.83,125.43a30.31,30.31,0,0,1,1.32-6.93Z"/><path class="cls-14" d="M39.86,102.53H40a5.24,5.24,0,0,1,.13,2.33A8.78,8.78,0,0,1,39.86,102.53Z"/><path class="cls-11" d="M11.86,115.56,11.3,118A3.84,3.84,0,0,1,11.86,115.56Z"/><path class="cls-10" d="M45.13,73.16a1.36,1.36,0,0,1-.83,1.18A4.66,4.66,0,0,1,45.13,73.16Z"/><path class="cls-11" d="M11.88,115.07a1.34,1.34,0,0,1,.2-1.13C12.24,114.34,12.07,114.65,11.88,115.07Z"/><path class="cls-11" d="M12.18,113.38a1.32,1.32,0,0,1,.24-.94A.8.8,0,0,1,12.18,113.38Z"/><path class="cls-10" d="M44.3,74.32c0,.39,0,.77-.51.84A2.34,2.34,0,0,1,44.3,74.32Z"/><path class="cls-10" d="M45.47,72.76c0,.24,0,.45-.35.41l.22-.43h.07Z"/><path class="cls-8" d="M54.41,68.86a17.9,17.9,0,0,0,.53,5.24,6.81,6.81,0,0,0,5,4.67,12.9,12.9,0,0,0,8.34-.34A19.26,19.26,0,0,0,78,70.49a.69.69,0,0,1,.18-.16,4.51,4.51,0,0,1,0,.82A157.06,157.06,0,0,1,71.25,95.6c-3.58,9.71-8.06,19-12.49,28.34l-.32-.36a3.78,3.78,0,0,0-.1-.57,94.86,94.86,0,0,1-2.46-10.93c-.69-3.7-1.22-7.43-1.76-11.16-.34-2.33-.56-4.69-.83-7,0-.07.12-.14.12-.21-.11-1.62-.23-3.25-.35-4.87,0-.07-.16-.12-.24-.18v-.38c.1,0,.21,0,.21-.14S52.9,88,52.8,88v-.37c.2-.17.14-.41.14-.62V76.64c0-.21.06-.44-.14-.61v-.54c.25,0,.31-.2.3-.41a59.5,59.5,0,0,1,.28-6Z"/><path class="cls-13" d="M58.76,123.94c4.43-9.33,8.91-18.63,12.49-28.34a157.06,157.06,0,0,0,6.86-24.45,4.51,4.51,0,0,0,0-.82c.32-.8,1-1.48.84-2.45l.47.2,0,0,.52.34,3,2.22c-.11.26.14.33.25.48v0l.23.31v0l.27.4.07,0h-.07l.23.3,0,0,1,1.68,0,0,.19.35v0l.34.69v0A23.06,23.06,0,0,1,87,83.92a16.13,16.13,0,0,0-.16,2.69l-.05.82c-.35,1.65-.71,3.29-1.06,4.94h0c-.06.18-.13.35-.19.53l-.07.15a8.63,8.63,0,0,0-4.16,1.51h0l-.22.15,0,0-.32.22h0l-.39.27,0,.06,0-.06-.29.24,0,0-.2.18,0,0-.37.32h0a1.34,1.34,0,0,0-.51.52l0,0-.19.21,0,0-.19.2,0,0-.19.2,0,0-.18.2h0l-.39.48,0,0-.16.21v0l-.56.79v0a23.9,23.9,0,0,0-2.23,5.26c0,.11.06.2.16.26a21.67,21.67,0,0,1-.91,3.63l-.1.18h0c-.88.36-1.21,1.25-1.75,1.91q-4.45,5.48-9.12,10.75c-1.83,2.05-3.63,4.13-5.44,6.2a.62.62,0,0,1-.41.24l0,0A22.31,22.31,0,0,1,58.76,123.94ZM82.62,93.63c-.37-.76-.89-1.2-1.16-1.81s-.12-.65.35-.84a8.28,8.28,0,0,1,4-.71,1.18,1.18,0,0,0-1-.51,8.53,8.53,0,0,0-2.87.67c-1.46.43-1.47.42-.77,1.77C81.47,92.77,81.72,93.4,82.62,93.63Z"/><path class="cls-13" d="M52.79,75.49V76c-.18,3.85-.15,7.7,0,11.56v.66c0,.13,0,.26,0,.38.15,1.75.31,3.5.47,5.26.27,2.34.49,4.7.83,7,.54,3.73,1.07,7.46,1.76,11.16A94.86,94.86,0,0,0,58.34,123a3.78,3.78,0,0,1,.1.57l-.59,1.32a3.61,3.61,0,0,1-1.1-1.25,147.71,147.71,0,0,1-10.21-15.83A58.45,58.45,0,0,1,43,100.65a16.64,16.64,0,0,1-1-4.17,1.24,1.24,0,0,1,.43-1.09,27.16,27.16,0,0,0,3.24-3.54.85.85,0,0,0-.15-1.33,6.89,6.89,0,0,0-3.67-1.92,36.7,36.7,0,0,1,2.35-10l.21-.53,0,0,.47-1,0,0c.16-.07.15-.22.18-.36l0,0c.15-.08.16-.22.19-.35l0,0,.57-1h0l.15-.22,0,0a1.13,1.13,0,0,0,.34-.52h0l.35-.51v0l.57-.73v-.06a1.29,1.29,0,0,1,.16-.17h0l.18-.21,0,0,.32-.37,0,0,.18-.2,0,0,.2-.19.14-.14.35-.34h0l.54-.47h0l.48-.39v0l.68-.51,0,0,.22-.14v0l1.13-.68,0,0a8.12,8.12,0,0,1,1.58-.59Q53,72.35,52.79,75.49Z"/><path class="cls-13" d="M41.47,95.58A44.5,44.5,0,0,1,41.81,89a8.58,8.58,0,0,1,3.29,1.81.61.61,0,0,1,.07,1A25.92,25.92,0,0,1,41.47,95.58Z"/><path class="cls-13" d="M57.6,126.93l-.09.21s-.06,0,0,0l.11-.19Z"/><path class="cls-9" d="M74.5,62.58a9.85,9.85,0,0,1-3,2.94,13.57,13.57,0,0,1-8.84,2.64,9.26,9.26,0,0,1-6.64-3.42l0,0c1.13.26,2.11.92,3.23,1.21A16.48,16.48,0,0,0,70,65c1.6-.65,3-1.66,4.49-2.44Z"/><path class="cls-5" d="M54,31.39a.41.41,0,0,1,.16,0,.89.89,0,0,0,.84.28l0,0c-.08.49.4.53.62.78s.59.46.39.8-.56.18-.84.08a8.6,8.6,0,0,0-5.73-.12c-1,.34-1.47-.14-1.17-1.19v0c.3,0,.57,0,.68-.33h0a2.52,2.52,0,0,0,.73,0,4.63,4.63,0,0,1,3.58-.16A.88.88,0,0,0,54,31.39Z"/><path class="cls-9" d="M58.41,38c0,3,0,5.92,0,8.87a6.3,6.3,0,0,0,.22,1.55c.35,1.25.37,2,2.63,1.81a1.72,1.72,0,0,1-2.11.47A2.63,2.63,0,0,1,57.43,48c0-1.4.06-2.81.19-4.21.16-1.83.42-3.66.64-5.48C58.28,38.19,58.23,38,58.41,38Z"/><path class="cls-9" d="M61.24,56.44c-1.61,0-2.7-.2-3.53-1.12a3.06,3.06,0,0,1-.4-.61c-.09-.18-.13-.4.06-.53a.4.4,0,0,1,.53.06c2.21,1.92,4.48,1.37,6.76.16a3.12,3.12,0,0,1,1.93-.63c.2,0,.39.06.44.3a.36.36,0,0,1-.21.4C65,55.59,63.07,56.59,61.24,56.44Z"/><path class="cls-10" d="M51.12,21a2.23,2.23,0,0,1,2.3-.78c1.53.22,3,.68,4.55.95a12.09,12.09,0,0,0,4.24.26c.69-.13,1.39,0,2.11-.12a7.09,7.09,0,0,1,2.75-.3c.53.09,1.13.09,1.44.69a7.26,7.26,0,0,0-3.67-.19,23.32,23.32,0,0,1-5.34.26,29,29,0,0,1-4.07-.88C54,20.49,52.54,20.13,51.12,21Z"/><path class="cls-10" d="M75.63,27.42c.71.46.6,1.25.73,1.92.36,1.79,1,3.53,1.17,5.37a10.06,10.06,0,0,1-.3,4.3,4.81,4.81,0,0,1-.12.48c-.19.59,0,.73.52.42.1,0,.26,0,.4,0a.71.71,0,0,1-1,.37.65.65,0,0,1-.29-.85c1.06-2.68.53-5.33-.14-7.95A33.4,33.4,0,0,0,75.63,27.42Z"/><path class="cls-10" d="M48.26,32c-.3,1.05.12,1.53,1.17,1.19a8.6,8.6,0,0,1,5.73.12c.28.1.67.21.84-.08s-.17-.56-.39-.8-.7-.29-.62-.78a1.87,1.87,0,0,1,1.09.84c.21.27.46.63.15.94a.88.88,0,0,1-1,.18A8.38,8.38,0,0,0,51.72,33a9.28,9.28,0,0,0-2.17.43c-.51.14-1.06.26-1.46-.2S47.51,32.33,48.26,32Z"/><path class="cls-10" d="M66.2,41.34a4,4,0,0,1-.19-3.4.76.76,0,0,1,.82-.55.91.91,0,0,1,.92.57,4.49,4.49,0,0,1,0,3.15c-.23.65-.88.71-1.55.24,1.26,0,1.49-.27,1.5-1.5a10.44,10.44,0,0,1-.08-1.38c0-.27-.4-.62-.73-.75s-.52.27-.7.53A1.68,1.68,0,0,0,66,39,11.76,11.76,0,0,0,66.2,41.34Z"/><path class="cls-10" d="M53.1,69.21a8.12,8.12,0,0,0-1.58.59c.3-.64,1-.62,1.49-.86a2.48,2.48,0,0,1,.8-.2c.43,0,.7-.23.61-.69s-.57-.35-.86-.28a11.59,11.59,0,0,0-3.45,1.33,1.17,1.17,0,0,1-.84.26,10.84,10.84,0,0,1,5.59-2,2.64,2.64,0,0,1-.45,1.49l-1,.25Z"/><path class="cls-10" d="M70.92,31.81c.39.27.81.54.64,1.11s-.75.53-1.19.45a16.15,16.15,0,0,0-5.88.15c-.47.09-1,.23-1.45-.29h0c2.32.14,4.6-.61,7-.2,1.26.22,1.33,0,.84-1.13Z"/><path class="cls-10" d="M64,31.54a8,8,0,0,1,6.34,0l0,0a11.61,11.61,0,0,0-4.07-.25,7,7,0,0,1-2.23.26Z"/><path class="cls-10" d="M52.44,41.35A4,4,0,0,1,52.26,38c.21-.67.77-.73,1.53-.28l0,0c-.63,0-1.43-.16-1.44.84a12.49,12.49,0,0,0,.12,2.8Z"/><path class="cls-10" d="M54,31.39a.88.88,0,0,1-.7.12,4.63,4.63,0,0,0-3.58.16,2.52,2.52,0,0,1-.73,0A6.09,6.09,0,0,1,54,31.39Z"/><path class="cls-14" d="M54.2,38.86A3.73,3.73,0,0,1,54,41.19l-.19.2h0l-.36,0A3.84,3.84,0,0,0,53.93,39Z"/><path class="cls-10" d="M79.46,68.08l-.47-.2a1.27,1.27,0,0,1,.14-1.12,8.89,8.89,0,0,1,1.71.73c-.4.14-.72-.12-1.08-.21-.18,0-.39-.32-.57-.07s0,.41.12.59A1.51,1.51,0,0,1,79.46,68.08Z"/><path class="cls-10" d="M46.48,30.59c-.1-.18-.35-.25-.34-.5.56-.15.28-.69.46-1s.07-1.1.57-1.47Z"/><path class="cls-10" d="M71.81,24.3c.53.21,1.25.1,1.46.86A3.34,3.34,0,0,1,71.81,24.3Z"/><path class="cls-10" d="M53.44,41.35l.36,0a.83.83,0,0,1-1.36,0h1Z"/><path class="cls-10" d="M73.31,25.12a1.16,1.16,0,0,1,1.17.84Z"/><path class="cls-10" d="M47.31,27.1a1.63,1.63,0,0,1,.52-1.5A5.24,5.24,0,0,1,47.31,27.1Z"/><path class="cls-10" d="M54.2,38.86l-.27.17c.09-.46-.15-.88-.17-1.33l0,0A1.82,1.82,0,0,1,54.2,38.86Z"/><path class="cls-10" d="M48.8,23.7c0-.44-.07-.93.61-.92Z"/><path class="cls-10" d="M69.48,22.31c.5-.08.73.15.69.65Z"/><path class="cls-10" d="M55,31.7a.89.89,0,0,1-.84-.28A.73.73,0,0,1,55,31.7Z"/><path class="cls-10" d="M70.34,23.11a.67.67,0,0,1,.65.53C70.67,23.59,70.54,23.32,70.34,23.11Z"/><path class="cls-10" d="M63,33.23a.77.77,0,0,1,0-1l0,0v1Z"/><path class="cls-10" d="M47.82,25.62c0-.31,0-.57.34-.68A1.3,1.3,0,0,1,47.82,25.62Z"/><path class="cls-10" d="M49,31.71c-.11.34-.38.37-.68.33A1,1,0,0,1,49,31.71Z"/><path class="cls-10" d="M70.37,31.54c.23,0,.38.15.55.27l-.07.08a.49.49,0,0,1-.5-.33Z"/><path class="cls-10" d="M78.18,39.74c0-.26.06-.38.32-.37Z"/><path class="cls-10" d="M71.31,24c.27,0,.46.06.5.36A.63.63,0,0,1,71.31,24Z"/><path class="cls-10" d="M47.15,27.61c0-.2-.07-.42.19-.52C47.3,27.27,47.36,27.48,47.15,27.61Z"/><path class="cls-10" d="M79,38.86c0-.19,0-.38.17-.5C79.15,38.55,79.18,38.74,79,38.86Z"/><path class="cls-10" d="M75,26.44c.26,0,.37.1.33.35Z"/><path class="cls-10" d="M68.82,21.81c.23,0,.36.06.36.3Z"/><path class="cls-10" d="M48.14,25c0-.15,0-.29.18-.35Z"/><path class="cls-10" d="M68.49,21.64a.28.28,0,0,1,.36.18C68.71,21.8,68.56,21.79,68.49,21.64Z"/><path class="cls-10" d="M50.63,21.31c0-.11-.06-.34.18-.15Z"/><path class="cls-10" d="M63.37,31.88c.05-.15.18-.17.31-.19l0,0a.35.35,0,0,1-.33.17Z"/><path class="cls-10" d="M49.62,22.45c0-.14,0-.28.2-.33Z"/><path class="cls-10" d="M69.19,22.11c.14,0,.27,0,.32.2Z"/><path class="cls-10" d="M75.29,26.76c.18.06.19.21.19.37A.35.35,0,0,1,75.29,26.76Z"/><path class="cls-10" d="M48.31,24.62c0-.15,0-.29.18-.35C48.46,24.4,48.46,24.55,48.31,24.62Z"/><path class="cls-10" d="M48.48,24.29c0-.15,0-.29.18-.35C48.64,24.08,48.62,24.22,48.48,24.29Z"/><path class="cls-10" d="M63.68,31.69c.08-.14.22-.14.35-.15l0,0a.32.32,0,0,1-.33.16Z"/><path class="cls-9" d="M56.07,64.74l-.06-.1.1.07Z"/><path class="cls-9" d="M74.49,62.57l0-.07,0,.08Z"/><path class="cls-10" d="M53.78,41.39l.19-.2Z"/><path class="cls-10" d="M78,39.89l.19-.19C78.17,39.82,78.14,39.91,78,39.89Z"/><path class="cls-10" d="M78.48,39.38l.18-.18Z"/><path class="cls-10" d="M78.81,39l.16-.18Z"/><path class="cls-10" d="M63,32.2l.16-.16,0,0-.17.17Z"/><path class="cls-10" d="M63.19,32l.18-.16,0,0-.17.16Z"/><path class="cls-10" d="M75.52,27.26l.13.17Z"/><path class="cls-10" d="M74.8,26.26l.19.19Z"/><path class="cls-10" d="M74.63,26.1l.19.18Z"/><path class="cls-10" d="M74.47,25.93l.18.19Z"/><path class="cls-10" d="M71.14,23.78l.19.19A.2.2,0,0,1,71.14,23.78Z"/><path class="cls-10" d="M48.64,24l.15-.2Z"/><path class="cls-10" d="M71,23.62l.18.18C71.05,23.79,71,23.75,71,23.62Z"/><path class="cls-10" d="M70.16,22.94l.18.17Z"/><path class="cls-10" d="M49.8,22.14,50,22Z"/><path class="cls-10" d="M50.13,21.8l.17-.18Z"/><path class="cls-10" d="M50.29,21.63l.18-.18Z"/><path class="cls-10" d="M50.46,21.47l.18-.18Z"/><path class="cls-10" d="M47.11,71a1.55,1.55,0,0,1-1.17,1.17A5.41,5.41,0,0,1,47.11,71Z"/><path class="cls-1" d="M45.47,72.76l-.06,0h-.07c0-.36.13-.53.49-.54a.14.14,0,0,0,0,.14Z"/><path class="cls-10" d="M49.28,69.35c0,.37-.25.36-.51.34Z"/><path class="cls-10" d="M47.76,70.47c0,.3-.2.4-.48.38A.83.83,0,0,1,47.76,70.47Z"/><path class="cls-10" d="M48.11,70.17c0,.27-.11.37-.37.31Z"/><path class="cls-10" d="M48.78,69.68c0,.26-.11.38-.38.27Z"/><path class="cls-10" d="M48.41,70c0,.22-.14.24-.31.22A.42.42,0,0,1,48.41,70Z"/><path class="cls-10" d="M45.84,72.34a.14.14,0,0,1,0-.14l.13,0Z"/><path class="cls-10" d="M47.29,70.84,47.1,71Z"/><path class="cls-10" d="M82.15,68.19a1.59,1.59,0,0,1-1.32-.71A3.68,3.68,0,0,1,82.15,68.19Z"/><path class="cls-10" d="M82.65,68.52a.41.41,0,0,1-.52-.35A1,1,0,0,1,82.65,68.52Z"/><path class="cls-10" d="M82.87,68.69c-.12,0-.23,0-.24-.18Z"/><path class="cls-10" d="M86.79,86.61A16.13,16.13,0,0,1,87,83.92a23.06,23.06,0,0,0-1.54-9.23c.83.72.89,1.79,1.15,2.74.75,2.8.53,5.69.54,8.55A.63.63,0,0,1,86.79,86.61Z"/><path class="cls-10" d="M75.33,104c-.1-.06-.2-.15-.16-.26A23.9,23.9,0,0,1,77.4,98.5c-.07,1-.8,1.72-1.06,2.64-.2.71-.48,1.4-.72,2.1-.1.26-.26.58.2.6s.76.4.91-.27a1.2,1.2,0,0,1,.43-.86l.08.07-.6,1.56A3,3,0,0,0,75.33,104Z"/><path class="cls-10" d="M85.68,92.37c.35-1.65.71-3.29,1.06-4.94.39.29.06.63,0,.91-.19,1.13-.43,2.26-.68,3.38C86,92,86.05,92.31,85.68,92.37Z"/><path class="cls-10" d="M81.27,94.56a8.63,8.63,0,0,1,4.16-1.51s-.05.13-.08.14C83.94,93.5,82.64,94.14,81.27,94.56Z"/><path class="cls-10" d="M77.16,102.71a4,4,0,0,1,1-2.33v0l-.92,2.38Z"/><path class="cls-10" d="M84.92,73.72,83.9,72A2.15,2.15,0,0,1,84.92,73.72Z"/><path class="cls-10" d="M77.39,98.48l.56-.79C77.92,98.07,77.88,98.44,77.39,98.48Z"/><path class="cls-10" d="M83.21,71.1c-.11-.15-.36-.22-.25-.48C83.1,70.75,83.37,70.81,83.21,71.1Z"/><path class="cls-10" d="M79.07,96.36a1.34,1.34,0,0,1,.51-.52C79.65,96.25,79.36,96.31,79.07,96.36Z"/><path class="cls-10" d="M83.31,95.26a.37.37,0,0,0,0,.11h0l-.62.23h0C82.74,95.23,83,95.23,83.31,95.26Z"/><path class="cls-10" d="M78.15,100.38a.64.64,0,0,1,.35-.64l0,0c-.09.23-.14.48-.38.62Z"/><path class="cls-10" d="M85.42,74.71,85.08,74C85.45,74.12,85.45,74.41,85.42,74.71Z"/><path class="cls-10" d="M85.5,92.9c.06-.18.13-.35.19-.53C85.79,92.6,85.85,92.83,85.5,92.9Z"/><path class="cls-10" d="M81.82,96.1a.37.37,0,0,1,.5-.32h0l-.51.33Z"/><path class="cls-10" d="M80.39,95.15l.39-.27C80.78,95.16,80.66,95.26,80.39,95.15Z"/><path class="cls-10" d="M81.16,96.6c0-.28.21-.38.47-.36h0l-.46.38Z"/><path class="cls-10" d="M78.07,97.52l.39-.48C78.48,97.32,78.38,97.51,78.07,97.52Z"/><path class="cls-10" d="M79.57,95.85l.37-.32C80,95.81,79.83,95.91,79.57,95.85Z"/><path class="cls-10" d="M83.69,71.77l-.27-.4C83.7,71.38,83.8,71.5,83.69,71.77Z"/><path class="cls-10" d="M80,68.4l-.52-.34A.44.44,0,0,1,80,68.4Z"/><path class="cls-10" d="M83.43,71.39l-.23-.31C83.41,71.08,83.45,71.21,83.43,71.39Z"/><path class="cls-10" d="M79.3,98.55c0-.13,0-.27.21-.29h0l-.21.29Z"/><path class="cls-10" d="M78.82,99.23c0-.15,0-.28.18-.31l0,0c0,.13-.07.25-.21.3Z"/><path class="cls-10" d="M80.29,97.22a.32.32,0,0,1,.35-.15h0l-.24.26Z"/><path class="cls-10" d="M80,97.74a.32.32,0,0,1,.15-.35l.13.11-.27.24Z"/><path class="cls-10" d="M85.09,74l-.19-.35C85.1,73.73,85.09,73.89,85.09,74Z"/><path class="cls-10" d="M78.64,99.55c0-.13,0-.27.18-.32h0c0,.13,0,.26-.18.32Z"/><path class="cls-10" d="M80.77,94.89l.32-.22C81.08,94.88,80.94,94.91,80.77,94.89Z"/><path class="cls-10" d="M83.64,95.09c-.06.18-.22.15-.35.18C83.34,95.08,83.49,95.08,83.64,95.09Z"/><path class="cls-10" d="M80.1,95.39l.29-.24C80.42,95.38,80.27,95.4,80.1,95.39Z"/><path class="cls-10" d="M82.32,95.78c0-.21.16-.2.31-.19h0c0,.14-.18.16-.3.19Z"/><path class="cls-10" d="M83.92,72.06l-.23-.3C83.91,71.74,83.94,71.88,83.92,72.06Z"/><path class="cls-10" d="M79.92,95.55l.2-.18Z"/><path class="cls-10" d="M81.06,94.7l.22-.15A.18.18,0,0,1,81.06,94.7Z"/><path class="cls-10" d="M81.63,96.24l.19-.14v0l-.19.13Z"/><path class="cls-10" d="M78.91,96.54l.19-.21A.21.21,0,0,1,78.91,96.54Z"/><path class="cls-10" d="M78.75,96.71l.19-.2A.21.21,0,0,1,78.75,96.71Z"/><path class="cls-10" d="M81,96.76c0-.1.07-.17.18-.16l0,0-.18.14Z"/><path class="cls-10" d="M78.59,96.88l.19-.2A.21.21,0,0,1,78.59,96.88Z"/><path class="cls-10" d="M80.81,96.91l.17-.15h0l-.18.15Z"/><path class="cls-10" d="M78.44,97.05l.18-.2Z"/><path class="cls-10" d="M80.64,97.07l.17-.16h0l-.17.16Z"/><path class="cls-10" d="M80.12,97.39l.17-.17.12.12-.16.16Z"/><path class="cls-10" d="M77.94,97.71l.16-.21A.19.19,0,0,1,77.94,97.71Z"/><path class="cls-10" d="M79.81,97.91l.16-.17h0l-.16.18Z"/><path class="cls-10" d="M79.66,98.08l.15-.17h0l-.15.17Z"/><path class="cls-10" d="M79.51,98.26a.15.15,0,0,1,.15-.18h0l-.15.18Z"/><path class="cls-10" d="M79.15,98.73l.15-.18h0l-.15.18Z"/><path class="cls-10" d="M79,98.92a.17.17,0,0,1,.15-.19h0l-.12.2Z"/><path class="cls-10" d="M78.5,99.74l.14-.19h0l-.11.22Z"/><path class="cls-2" d="M83,162.2c0,.78-.07,1.57-.1,2.35a7.8,7.8,0,0,1-.05-2.81Z"/><path class="cls-13" d="M78.54,99.78l.11-.22c.15-.06.16-.19.18-.32s.17-.17.21-.3l.12-.2.15-.18.21-.29.15-.18.15-.17.16-.18.27-.24.16-.16.24-.26.17-.16.18-.15.18-.14.46-.38.19-.13.51-.33c.12,0,.25-.05.3-.19l.62-.23a1.29,1.29,0,0,1-.35,1.07c-1.94,2.81-4,5.55-6.14,8.18a.41.41,0,0,1-.15.07c0-.11,0-.23,0-.35l.6-1.56.92-2.38C78.4,100.26,78.45,100,78.54,99.78Z"/><path class="cls-2" d="M74.32,107.83l.1-.18Z"/><path class="cls-10" d="M75.32,127.23l-.18.18Z"/><path class="cls-5" d="M84.58,161.07c-1.19,0-1.29-.1-1.07-1.12a4.65,4.65,0,0,0,0-1.89c-.24-1.26.3-2.44.24-3.68,0-.5.51-.56.87-.54s.74.25.81.83c.21,1.63-.33,3.21-.19,4.83a3.62,3.62,0,0,0,0,.66C85.55,161,85.25,161.24,84.58,161.07Z"/><path class="cls-5" d="M83.43,162l-.06.13s-.06-.08-.06-.12,0-.09,0-.13Z"/><path class="cls-12" d="M83,129.56a3,3,0,0,1-2.15.17c0-.21-.1-.42-.14-.64a1.74,1.74,0,0,1,1.88-2c.52.08.91,1,.7,1.71C83.16,129.06,83,129.31,83,129.56Z"/><path class="cls-10" d="M51.49,69.78l-1.13.68C50.52,69.86,51,69.79,51.49,69.78Z"/><path class="cls-10" d="M44.85,77l-.47,1A.82.82,0,0,1,44.85,77Z"/><path class="cls-10" d="M45.73,75.4l-.57,1C45.17,75.94,45.17,75.51,45.73,75.4Z"/><path class="cls-10" d="M47.06,73.48l-.57.73C46.55,73.87,46.53,73.46,47.06,73.48Z"/><path class="cls-10" d="M50.15,70.55l-.68.51C49.5,70.62,49.81,70.56,50.15,70.55Z"/><path class="cls-10" d="M49,71.42l-.54.47C48.47,71.51,48.65,71.35,49,71.42Z"/><path class="cls-10" d="M46.5,74.19l-.35.51C46.14,74.44,46.12,74.18,46.5,74.19Z"/><path class="cls-10" d="M46.17,74.69a1.13,1.13,0,0,1-.34.52A.41.41,0,0,1,46.17,74.69Z"/><path class="cls-10" d="M47.67,72.71l-.32.37C47.29,72.81,47.39,72.69,47.67,72.71Z"/><path class="cls-10" d="M49.48,71l-.48.39C49,71.11,49.2,71,49.48,71Z"/><path class="cls-10" d="M48.49,71.88l-.35.34C48.13,72,48.23,71.85,48.49,71.88Z"/><path class="cls-10" d="M45.18,76.35c0,.13,0,.27-.19.35C45,76.55,45,76.39,45.18,76.35Z"/><path class="cls-10" d="M45,76.67c0,.14,0,.29-.18.36C44.82,76.88,44.82,76.73,45,76.67Z"/><path class="cls-10" d="M45.85,75.19l-.15.22A.17.17,0,0,1,45.85,75.19Z"/><path class="cls-10" d="M47.22,73.25a1.29,1.29,0,0,0-.16.17C47,73.27,47.09,73.24,47.22,73.25Z"/><path class="cls-10" d="M47.37,73.05l-.18.21C47.18,73.13,47.24,73.07,47.37,73.05Z"/><path class="cls-10" d="M47.83,72.53l-.18.2Z"/><path class="cls-10" d="M48,72.36l-.2.19Z"/><path class="cls-10" d="M50.35,70.43l-.22.14A.17.17,0,0,1,50.35,70.43Z"/><path class="cls-2" d="M45.8,115a3.18,3.18,0,0,1-1.17,2.63c-.55-.09-.87.37-1.31.53h0c-.23,0-.47-.07-.65.13a3.21,3.21,0,0,1-2.32-.82l.33,0c1.07.23,2.13.52,3.16-.13a.82.82,0,0,0,.51-.32,2.42,2.42,0,0,0,1.13-1.85l.14-.2Z"/><path class="cls-11" d="M40.4,117.23c-.5.15-.68-.3-.91-.55a3,3,0,0,1-.17-4c0,.14,0,.29,0,.43h0c-.16.08-.13.24-.16.38l0,0a2.4,2.4,0,0,0,0,2.11c0,.74.74,1,1.17,1.4l.06.26Z"/><path class="cls-11" d="M41.34,111l.94-.21c.9.17,1.83.29,2.32,1.24h0l-.61-.37a.21.21,0,0,0-.13-.07v0a.67.67,0,0,0-.45-.24h0a4.81,4.81,0,0,0-2.58-.08Z"/><path class="cls-10" d="M40.85,111.3a4.81,4.81,0,0,1,2.58.08,7.54,7.54,0,0,0-3.09.44h0A1.34,1.34,0,0,1,40.85,111.3Z"/><path class="cls-11" d="M45.8,115h-.17a3.33,3.33,0,0,0-.46-2h0a1.1,1.1,0,0,0-.48-.69l0,0,0,0-.1-.24h0c.91.41,1,1.29,1.19,2.12A3.65,3.65,0,0,1,45.8,115Z"/><path class="cls-10" d="M39.28,113.09l0-.43c.37-.25.45-.83,1-.84h0A2.92,2.92,0,0,1,39.28,113.09Z"/><path class="cls-11" d="M43.32,118.13c.44-.16.76-.62,1.31-.53A1.61,1.61,0,0,1,43.32,118.13Z"/><path class="cls-11" d="M42.68,118.26c.18-.2.42-.12.65-.13C43.16,118.38,42.9,118.24,42.68,118.26Z"/><path class="cls-11" d="M40.69,117.46l-.33,0a1.55,1.55,0,0,1,0-.21h0Z"/><path class="cls-4" d="M52.79,87.59c-.15-3.86-.18-7.71,0-11.56.2.17.14.4.14.61V87C52.93,87.18,53,87.42,52.79,87.59Z"/><path class="cls-4" d="M53.1,69.21l.27-.1a59.5,59.5,0,0,0-.28,6c0,.21-.05.38-.3.41Q53,72.34,53.1,69.21Z"/><path class="cls-4" d="M53.29,93.89c-.16-1.76-.32-3.51-.47-5.26.08.06.23.11.24.18.12,1.62.24,3.25.35,4.87C53.41,93.75,53.33,93.82,53.29,93.89Z"/><path class="cls-4" d="M52.81,88.25V88c.1,0,.22,0,.22.15S52.91,88.25,52.81,88.25Z"/><path class="cls-2" d="M82.62,93.63c-.9-.23-1.15-.86-1.44-1.43-.7-1.35-.69-1.34.77-1.77a8.53,8.53,0,0,1,2.87-.67,1.18,1.18,0,0,1,1,.51,8.28,8.28,0,0,0-4,.71c-.47.19-.56.37-.35.84S82.25,92.87,82.62,93.63Z"/><path class="cls-5" d="M66.2,41.34A11.76,11.76,0,0,1,66,39a1.68,1.68,0,0,1,.17-.79c.18-.26.26-.69.7-.53s.76.48.73.75a10.44,10.44,0,0,0,.08,1.38c0,1.23-.24,1.48-1.5,1.5Z"/><path class="cls-5" d="M63.22,32.06l.17-.16a.35.35,0,0,0,.33-.17.32.32,0,0,0,.33-.16,7,7,0,0,0,2.23-.26,11.61,11.61,0,0,1,4.07.25.49.49,0,0,0,.5.33c.49,1.12.42,1.35-.84,1.13-2.35-.41-4.63.34-7,.2v-1Z"/><path class="cls-5" d="M53.76,37.7c0,.45.26.87.17,1.33a3.84,3.84,0,0,1-.49,2.32h-1a12.49,12.49,0,0,1-.12-2.8C52.33,37.54,53.13,37.72,53.76,37.7Z"/><path class="cls-10" d="M40.69,117.46l-.29-.23-.06-.26a6.55,6.55,0,0,0,3.48.32l0,0C42.82,118,41.76,117.69,40.69,117.46Z"/><path class="cls-10" d="M45.49,115.16A2.42,2.42,0,0,1,44.36,117l0-.05c.41-.73,1.15-1.34,1-2.32C45.51,114.77,45.44,115,45.49,115.16Z"/><path class="cls-14" d="M45.49,115.16c-.05-.18,0-.39-.18-.52L45.17,113a3.33,3.33,0,0,1,.46,2Z"/><path class="cls-10" d="M44.36,117a.82.82,0,0,1-.51.32l0,0a.47.47,0,0,1,.5-.33Z"/><path class="cls-12" d="M44.32,117a.47.47,0,0,0-.5.33,6.55,6.55,0,0,1-3.48-.32c-.43-.43-1.12-.66-1.17-1.4v-2.11l0,0c.21-.06.19-.22.16-.38h0a2.92,2.92,0,0,0,1.06-1.27,7.54,7.54,0,0,1,3.09-.44h0c0,.39.25.26.45.24v0l.13.25c.07.42.34.51.71.43l0,0,0,0c-.13.43.14.59.48.69h0l.14,1.68C45.47,115.62,44.73,116.23,44.32,117Z"/><path class="cls-7" d="M39.17,113.46v2.11A2.4,2.4,0,0,1,39.17,113.46Z"/><path class="cls-7" d="M39.3,113.1c0,.16.05.32-.16.38C39.17,113.34,39.14,113.18,39.3,113.1Z"/><path class="cls-14" d="M44.69,112.28c-.37.08-.64,0-.71-.43v-.18l.61.37Z"/><path class="cls-10" d="M43.86,111.62c-.2,0-.46.15-.45-.24A.67.67,0,0,1,43.86,111.62Z"/><path class="cls-10" d="M44,111.67v.18c0-.09-.09-.17-.13-.25A.21.21,0,0,1,44,111.67Z"/><path class="cls-14" d="M45.17,113c-.34-.1-.61-.26-.48-.69A1.1,1.1,0,0,1,45.17,113Z"/></svg>