<svg id="Calque_1" data-name="Calque 1" xmlns="http://www.w3.org/2000/svg" viewBox="0 0 303 208"><defs><style>.cls-1{fill:#b8d1fe;}.cls-2{fill:#333349;}.cls-3{fill:#f4f3f2;}.cls-4{fill:#febd9f;}.cls-5{fill:#49ba75;}.cls-6{fill:red;}.cls-7{fill:#e5effe;}.cls-8{fill:#fefefe;}</style></defs><title>imgs</title><path class="cls-1" d="M21.9,117.34a84.36,84.36,0,0,1,14.91-12.88,42,42,0,0,1,14.75-7c1.65-.19,3.31-.48,5-.57a50,50,0,0,1,17.2,1.95c1.9.57,3.77,1.23,5.66,1.86a8,8,0,0,0,2.14,1.05,62.25,62.25,0,0,1,13.87,9.9,42.72,42.72,0,0,1,6.55,8.53c.33.64.67,1.27,1,1.9a61.11,61.11,0,0,1,3.85,11.79c1.93,8.43,4.11,16.78,6.61,25.23,2.74-5.22,5.37-10.28,8-15.32a59.69,59.69,0,0,1,3.45-6.33c3.39-.46,6.78-.83,10.12.28a25.78,25.78,0,0,1,5.51,3c.3.29.71.41.6,1.07a254.61,254.61,0,0,1-7.32,31.35c-1.27,4.14-2.71,8.21-4.2,12.26a51,51,0,0,1-4.34,8.16c-5.12,7.13-13.23,9.52-21.4,6.28-.85-.34-1.7-.71-2.67-1.12.07,1,.14,1.85.21,2.74H29.11c-.36-1.2-.06-2.48-.34-3.72-.11.07-.22.11-.22.14,0,1.2.09,2.39.13,3.58H15.42c-.36-4.6-.76-9.21-1.05-13.82-.22-3.48-.3-7-.44-10.45-.26-6.3-.29-12.6-.23-18.9.06-5.19.29-10.38.84-15.55a12.86,12.86,0,0,0,0-1.39c.36-2.38.65-4.77,1.07-7.14C16.68,128.21,18.08,122.32,21.9,117.34Zm67.84,66.27a9.71,9.71,0,0,0,1.43,2.45,10.39,10.39,0,0,0-1.27-2.59,6.78,6.78,0,0,0-.3-.79,118.28,118.28,0,0,1-5.93-15.34,175.54,175.54,0,0,1-5.43-21.07,7.7,7.7,0,0,0-.66-2.74.61.61,0,0,0-.09.42,171.27,171.27,0,0,0,5.09,20.94A120.76,120.76,0,0,0,89.74,183.61ZM26.15,167.8c-.83-8.87-2.13-17.67-3.67-26.43C23.68,150.18,25,159,26.15,167.8Zm1.6,15.3h-.31l.94,13.14C28.52,191.84,28,187.48,27.75,183.1Zm-.45-1.57.31,0-1.13-12.2-.3,0Zm86.4-21.46-.25.08a46.33,46.33,0,0,0,2.74,7.16Z"/><path class="cls-2" d="M28.68,201.47c0-1.19-.09-2.38-.13-3.58,0,0,.11-.07.22-.14.28,1.24,0,2.52.34,3.72Z"/><path class="cls-3" d="M95.4,111.66a62.25,62.25,0,0,0-13.87-9.9c0-2.78,0-5.57,0-8.34,0-1.07.33-1.29,1.33-1.29,12.48,0,25,0,37.43,0,.92,0,1.23-.17,1.31-1.21.37-4.87.08-9.75.14-14.63,0-1,.26-1.31,1.3-1.31q63.74,0,127.47,0c1.12,0,1.36.33,1.34,1.39,0,4.84,0,9.69,0,14.54,0,1,.32,1.23,1.27,1.23,13.55,0,27.09,0,40.64,0,1.1,0,1.35.31,1.35,1.37q0,44.66,0,89.3a3.83,3.83,0,0,0,0,1.27c.42,1.13-.19,1.15-1,1.15h-66.2c0-1.57,0-3.14,0-4.7,0-.65-.2-.88-.86-.87-2,0-4,0-6,0,0-1.18,0-2.36,0-3.53,0-.76-.25-1-1-1-3,0-5.91,0-8.87,0-.85,0-1.08-.26-1.08-1.1q0-23.19,0-46.4c1.71,0,3.42,0,5.13,0,.65,0,.89-.2.87-.86,0-1.17,0-2.35,0-3.53,0-1.4,0-1.4-1.37-1.4H160.33c-.82,0-1.64,0-2.46,0-.66,0-.86.24-.84.87,0,1.36,0,2.71,0,4.06,0,.65.2.88.86.87,1.78,0,3.56,0,5.34,0q0,23.2,0,46.4c0,.84-.23,1.1-1.08,1.09-2.81-.05-5.63,0-8.44,0-.74,0-1,.21-1,1,0,1.18,0,2.36,0,3.53-2,0-3.92,0-5.88,0-.75,0-1,.23-1,1,.05,1.53,0,3.07,0,4.6H131.08a3.15,3.15,0,0,0-1.46.2c1.49-4,2.93-8.12,4.2-12.26a254.61,254.61,0,0,0,7.32-31.35c.11-.66-.3-.78-.6-1.07a38,38,0,0,1,3.53-8.3A18.76,18.76,0,0,0,145.58,118a62.64,62.64,0,0,1-2.22-9.18c1.92,0,3.84,0,5.75.05.95,0,1.17-.33,1.08-1.17a23.91,23.91,0,0,1-.19-2.54c0-2.7,0-5.39,0-8.09V95.36c0-3.88,0-7.77,0-11.65,0-.74-.21-1-1-1-1.56.1-3.13.19-4.69.18-3.27,0-6.54-.07-9.81-.18-1,0-1.28.22-1.26,1.23.06,2.84.24,5.68,0,8.51a1.8,1.8,0,0,0,.2,1.14c-.61,0-1.21,0-1.81,0-2.39,0-4.78,0-7.16.08-1.8,0-2.72.77-3,2.5-.55,3.46-1,6.92-1.53,10.39s-1,7.13-1.53,10.7c-.41,2.78-.88,5.55-1.23,8.34-.26,2,.56,2.86,2.65,2.87H126a70.12,70.12,0,0,0-1.07,8.91,59.69,59.69,0,0,0-3.45,6.33c-2.67,5-5.3,10.1-8,15.32-2.5-8.45-4.68-16.8-6.61-25.23h3.51c.44,0,.77-.07.75-.63-.14-3.79.21-7.58-.24-11.36V120.2c0-4,0-8,0-12,0-.67-.16-.93-.89-.93q-6.93,0-13.86,0c-.74,0-1,.29-.85,1A16.72,16.72,0,0,1,95.4,111.66Zm144.85,42.11c.39-.47.15-1,.18-1.53s-.15-1.13-.15-1.7c0-3.45,0-6.91,0-10.36,0-.72-.18-1-1-1-4.77,0-9.54,0-14.31,0-.92,0-1,.35-1,1.12,0,4,0,8,0,12a1.87,1.87,0,0,0,0,1.68c0,3.35.06,6.7,0,10,0,.9.27,1.12,1.14,1.12,4.77.05,9.54-.23,14.31.18.86.07,1.12-.25,1.06-1.09-.23-3.16-.23-6.33-.2-9.49C240.28,154.41,240.26,154.09,240.25,153.77ZM210.07,97.09V95.34c-.06-1.17-.15-2.33-.16-3.5,0-2.85,0-5.69,0-8.54,0-.71-.17-1-.95-1q-7.14,0-14.3,0c-.76,0-1.06.16-1,1,0,4,0,8,0,12.06V97.1c-.1,1.35.14,2.69.16,4,0,2.09.08,4.2,0,6.29,0,1,.34,1.25,1.28,1.22,2.2-.06,4.41,0,6.61,0,2.49,0,5,0,7.47.07.8,0,1-.08,1-.84C210.07,104.28,210.08,100.69,210.07,97.09Zm-46.61,0c-.05,3.56,0,7.12.17,10.68,0,.73.3.88,1,.88q7.33,0,14.65,0c.7,0,1-.22.91-.92-.1-1.2-.17-2.41-.19-3.62,0-2.35,0-4.7,0-7.05V95.38c0-4,0-7.91,0-11.86,0-.83-.28-1-1.05-1q-7.2,0-14.41,0c-.79,0-1,.21-1,1,0,4,0,7.9,0,11.85Zm99.26,60.76c-.06,3.64.35,7.26.19,10.89,0,.74.29.89.95.89,4.77,0,9.55,0,14.33,0,.79,0,1-.22,1-1-.11-3.59-.16-7.18-.24-10.78,0-.57,0-1.14,0-1.71,0-4,0-8,0-12,0-.5,0-.91-.71-.89-4.83.13-9.66-.14-14.5-.18-.65,0-.85.22-.86.87,0,4.05-.11,8.1-.18,12.15ZM240.24,97.08V95.36c0-4,0-8,0-12.07,0-.7-.14-1-.94-1q-7.2,0-14.41,0c-.67,0-1,.17-.93.9.14,4-.16,8.1-.18,12.15,0,.58,0,1.17,0,1.75a17.07,17.07,0,0,1,.17,3.19c0,2.5.05,5,0,7.49,0,.88.28,1.08,1.1,1.07q7.17,0,14.33,0c.85,0,1.14-.23,1.08-1.08C240.23,104.2,240.25,100.64,240.24,97.08Zm38.72,25v-1.73c0-3.87,0-7.75,0-11.63,0-.72-.18-1-1-1-4.73,0-9.46,0-14.19,0-.67,0-1,.17-.93.9.16,3.91-.21,7.81-.19,11.72,0,.58,0,1.16,0,1.74.06,3.63.15,7.26.16,10.88,0,.85.24,1.1,1.09,1.08,4.77-.09,9.53-.16,14.3-.18.8,0,1-.32.92-1-.1-2.23-.16-4.47-.21-6.71C279,124.83,279,123.47,279,122.12Z"/><path class="cls-2" d="M53.94,81.86c-3.19-2-4.83-5.14-6-8.56a15.66,15.66,0,0,0-3.16-5.48,30.85,30.85,0,0,1-7.23-13c-1.18-4.86-1.35-9.69.6-14.44A15,15,0,0,1,43.71,34a2.17,2.17,0,0,0,.9-1.3c1.28-4.49,4.36-7.39,8.48-9.29a33.08,33.08,0,0,1,6.79-2,20.69,20.69,0,0,1,10.66.46,75.75,75.75,0,0,0,9.66,2.51,6.15,6.15,0,0,0,4.72-.73c2.52-1.74,4.18-1.07,4.86,1.91,0,.17.08.34.14.62.87-.65,1.88-.46,2.83-.56A1.91,1.91,0,0,1,94.84,27a5.61,5.61,0,0,1-.24,5,19,19,0,0,1-3.9,4.35c-.64.51-1.29,1-1.9,1.55s-.7,1.16.06,1.74a8.39,8.39,0,0,0,.81.5,2,2,0,0,1,.57,3.42,6.78,6.78,0,0,1-3.48,2,9.85,9.85,0,0,1-3.67,0c1.55,5.12,1.15,10.11-.37,15.27a34.48,34.48,0,0,0-3.35-3.22,4.75,4.75,0,0,0-4.63-1.23c-3.65,1-5.08,5.1-3,8.68a9.27,9.27,0,0,0,4.49,3.8.8.8,0,0,1,.54,1.05,18.41,18.41,0,0,1-1,3.81c-1.59,3.77-3.93,7.09-7.86,8.41C63.32,83.67,58.55,84,53.94,81.86Z"/><path class="cls-4" d="M53.94,81.86c4.61,2.18,9.38,1.81,14,.26,3.93-1.32,6.27-4.64,7.86-8.41a18.41,18.41,0,0,0,1-3.81.8.8,0,0,0-.54-1.05,9.27,9.27,0,0,1-4.49-3.8c-2-3.58-.62-7.65,3-8.68a4.75,4.75,0,0,1,4.63,1.23,34.48,34.48,0,0,1,3.35,3.22c1.52-5.16,1.92-10.15.37-15.27a9.85,9.85,0,0,0,3.67,0,6.78,6.78,0,0,0,3.48-2,2,2,0,0,0-.57-3.42,8.39,8.39,0,0,1-.81-.5c-.76-.58-.79-1.1-.06-1.74s1.26-1,1.9-1.55c.35.61.72,1.21,1.06,1.83A19.7,19.7,0,0,1,94,49.52a44.9,44.9,0,0,0,.17,9.27,6.55,6.55,0,0,0,2.12,3.74,5.25,5.25,0,0,1,1.24,1.72c.75,1.85.16,3.35-1.73,3.89-1.09.31-1.31.8-1.27,1.85a21.39,21.39,0,0,1-2.11,10.55,12,12,0,0,1-2.54,3.54,5.26,5.26,0,0,1-3.46,1.47A22.5,22.5,0,0,1,80.84,85c-.8-.16-.93.17-1,.78a42.8,42.8,0,0,0-.48,6.59c0,2.78,0,5.56,0,8.34-1.89-.63-3.76-1.29-5.66-1.86a50,50,0,0,0-17.2-1.95c-1.66.09-3.32.38-5,.57,1.6-1.29,1.75-3.14,1.94-5A104.53,104.53,0,0,0,53.94,81.86Z"/><path class="cls-5" d="M21.9,117.34c-3.82,5-5.22,10.87-6.27,16.88-.42,2.37-.71,4.76-1.07,7.14-.86.7-1.49,1.74-2.72,1.93V106c-.43.25-.3.52-.32.75-.23,2.28,0,4.56-.08,6.84-.15,5.06-.11,10.12,0,15.18.09,4.85.22,9.7-.09,14.54-1.41.51-2.5-.18-3.47-1A11.27,11.27,0,0,1,5,137.55a50.75,50.75,0,0,1-2.87-13.07,100.91,100.91,0,0,1-.59-12.77A84.38,84.38,0,0,1,5,88.41,21,21,0,0,1,8.74,81c1.7-2,3.83-2.17,5.69-.3a16.19,16.19,0,0,1,3.4,6.1A61.09,61.09,0,0,1,21,101.48c.36,3.36.49,6.73.67,10.1C21.81,113.5,21.82,115.42,21.9,117.34Z"/><path class="cls-6" d="M206.91,29.05a21.67,21.67,0,0,1-2.78,7.87c-3.75,5.91-9.11,9.19-16.13,9.49-10.13.45-18.22-5.88-20.39-15.8a4.6,4.6,0,0,0-.3-1.56,24,24,0,0,1,1.25-9.76,19.87,19.87,0,0,1,37.86,2.41A20.89,20.89,0,0,1,206.91,29.05ZM187.06,39.11c1.17,0,2.35,0,3.53,0,.69,0,.91-.17.9-.89-.05-2.13,0-4.27,0-6.41,0-.72.22-.89.9-.88,2.07,0,4.14,0,6.21,0,.63,0,.86-.14.85-.82q-.06-3.54,0-7.06c0-.7-.19-.91-.89-.9-2,.05-4,0-6,0-.93,0-1.1-.27-1.08-1.12.07-2.11,0-4.21,0-6.31,0-.71-.12-1-.92-1-2.31.06-4.63,0-6.95,0-.71,0-.9.21-.89.91,0,2.21,0,4.42,0,6.63,0,.71-.2.89-.89.87-2,0-4,0-6,0-.65,0-.94.11-.93.86q.08,3.54,0,7.06c0,.76.29.87.94.86,1.92,0,3.85,0,5.77,0,.8,0,1.11.14,1.08,1-.07,2.14,0,4.28,0,6.42,0,.55.13.76.71.74C184.63,39.09,185.84,39.12,187.06,39.11Z"/><path class="cls-1" d="M145.94,185.21c0-1.53,0-3.07,0-4.6,0-.74.21-1,1-1,2,0,3.92,0,5.88,0H221c2,0,4,0,6,0,.66,0,.87.22.86.87,0,1.56,0,3.13,0,4.7Z"/><path class="cls-1" d="M233,18.28a20.26,20.26,0,0,1,3.4-2.31c3.31-2.09,6.69-4.06,10.19-5.81A13,13,0,0,1,253.72,9a4,4,0,0,1,3,1.86c.92,1.36.91,1.34,2.12.17A26,26,0,0,1,262.9,7.6c2.45-1.54,6-1.6,8,1a6,6,0,0,1,.73,5.08,13.36,13.36,0,0,1-2,4.67,1.72,1.72,0,0,1-1.6.83c-5,0-9.94-.35-14.92-.51-5.52-.18-11-.05-16.55-.13C235.36,18.55,234.28,18.37,233,18.28Z"/><path class="cls-1" d="M271.5,38.41a91.31,91.31,0,0,1,7.07-5.84,12.85,12.85,0,0,1,4-2A2.57,2.57,0,0,1,285.87,32c.36.7.75.8,1.45.5a42.91,42.91,0,0,1,9.5-3.09,6.26,6.26,0,0,1,1.49-.13c3.05.25,3.68,1.1,2.86,4.09A10.72,10.72,0,0,1,298,38.12a1.44,1.44,0,0,1-1.08.34c-4.77,0-9.54.45-14.3.16C279,38.4,275.34,38.55,271.5,38.41Z"/><path class="cls-2" d="M11.33,143.29c.31-4.84.18-9.69.09-14.54-.09-5.06-.13-10.12,0-15.18.06-2.28-.15-4.56.08-6.84,0-.23-.11-.5.32-.75v37.31c-.22,5.56-.15,11.12-.17,16.67,0,7.74,0,15.47,0,23.21a3.87,3.87,0,0,1-.3,2.47v-2.25q0-18.39,0-36.79a7.34,7.34,0,0,0,.08-2.29s.05-.05.05-.07,0-.1-.05-.15A1.17,1.17,0,0,0,11.33,143.29Z"/><path class="cls-1" d="M11.42,144.09s0,.1.05.15,0,0-.05.07Z"/><path class="cls-4" d="M124.91,137.46a68.37,68.37,0,0,1,1.08-8.91c.92,0,1.84-.09,2.76-.07.52,0,.77-.13.87-.65a15.45,15.45,0,0,1,3.27-6.5c1.44-1.84,3-3.57,4.38-5.49a1.59,1.59,0,0,0,.31-1.55,11.4,11.4,0,0,1-.44-3.9c.13-3,1.37-4.66,3.88-5.15a2.35,2.35,0,0,1,1.7,1.7c.2.63.43,1.25.64,1.88a62.64,62.64,0,0,0,2.22,9.18,18.76,18.76,0,0,1-1.51,14.43,38,38,0,0,0-3.53,8.3,25.78,25.78,0,0,0-5.51-3C131.69,136.63,128.3,137,124.91,137.46Z"/><path class="cls-1" d="M95.4,111.66a16.72,16.72,0,0,0-.15-3.39c-.14-.66.11-1,.85-1q6.93,0,13.86,0c.73,0,.9.26.89.93,0,4,0,8,0,12H102A42.72,42.72,0,0,0,95.4,111.66Z"/><path class="cls-1" d="M110.83,121.89c.45,3.78.1,7.57.24,11.36,0,.56-.31.63-.75.63h-3.51A61.11,61.11,0,0,0,103,122.09a2.12,2.12,0,0,1,1.24-.19Z"/><path class="cls-2" d="M89.74,183.61a120.76,120.76,0,0,1-7.16-18.72A171.27,171.27,0,0,1,77.49,144a.61.61,0,0,1,.09-.42,7.7,7.7,0,0,1,.66,2.74,175.54,175.54,0,0,0,5.43,21.07,118.28,118.28,0,0,0,5.93,15.34,6.78,6.78,0,0,1,.3.79Z"/><path class="cls-7" d="M110.83,121.89H104.2a2.12,2.12,0,0,0-1.24.19c-.34-.63-.68-1.26-1-1.9h8.89C110.84,120.76,110.83,121.32,110.83,121.89Z"/><path class="cls-2" d="M26.15,167.8C25,159,23.68,150.18,22.48,141.37,24,150.13,25.32,158.93,26.15,167.8Z"/><path class="cls-2" d="M27.75,183.1c.28,4.38.77,8.74.63,13.15l-.94-13.14Z"/><path class="cls-2" d="M27.3,181.53l-1.12-12.2.3,0,1.13,12.2Z"/><path class="cls-2" d="M113.7,160.07l2.49,7.24a46.33,46.33,0,0,1-2.74-7.16Z"/><path class="cls-2" d="M89.9,183.47a10.39,10.39,0,0,1,1.27,2.59,9.71,9.71,0,0,1-1.43-2.45A1.07,1.07,0,0,0,89.9,183.47Z"/><path class="cls-2" d="M141,105.24c-2.51.49-3.75,2.15-3.88,5.15a11.4,11.4,0,0,0,.44,3.9,1.59,1.59,0,0,1-.31,1.55c-1.35,1.92-2.94,3.65-4.38,5.49a15.45,15.45,0,0,0-3.27,6.5c-.1.52-.35.67-.87.65-.92,0-1.84,0-2.76.07H119.9c-2.09,0-2.91-.84-2.65-2.87.35-2.79.82-5.56,1.23-8.34.52-3.57,1-7.14,1.53-10.7s1-6.93,1.53-10.39c.27-1.73,1.19-2.47,3-2.5,2.38,0,4.77,0,7.16-.08.6,0,1.2,0,1.81,0h7c1.42,0,1.8.34,2,1.73l-.33,2.49Z"/><path class="cls-7" d="M221,179.64H152.75c0-1.17,0-2.35,0-3.53,0-.76.25-1,1-1,2.81,0,5.63,0,8.44,0,.85,0,1.09-.25,1.08-1.09q0-23.21,0-46.4h46.86q0,23.2,0,46.4c0,.84.23,1.11,1.08,1.1,3-.05,5.92,0,8.87,0,.74,0,1,.2,1,1C221,177.28,221,178.46,221,179.64Zm-35.08-27.8h0c0-7.38,0-14.76,0-22.14,0-1-.27-1.2-1.2-1.19-6,0-12,0-18,0-2.24,0-2.26,0-2.23,2.32,0,4,.16,8,.18,12q0,15.51,0,31c0,1.05.31,1.3,1.32,1.29q9.36-.06,18.72,0c.95,0,1.2-.26,1.19-1.2C185.9,166.6,185.92,159.22,185.92,151.84Zm1.91-.11c0,7.45,0,14.9,0,22.34,0,.82.19,1.11,1.07,1.11q9.3-.06,18.6,0c.92,0,1.12-.31,1.12-1.16q0-22.08,0-44.16c0-1-.26-1.36-1.32-1.35q-9.14.06-18.28,0c-.94,0-1.2.25-1.19,1.2C187.85,137.05,187.83,144.39,187.83,151.73Z"/><path class="cls-1" d="M210.09,127.68H163.23c-1.78,0-3.56,0-5.34,0-.66,0-.88-.22-.86-.87,0-1.35,0-2.7,0-4.06,0-.63.18-.91.84-.87.82,0,1.64,0,2.46,0h54.38c1.37,0,1.37,0,1.37,1.4,0,1.18,0,2.36,0,3.53,0,.66-.22.87-.87.86C213.51,127.65,211.8,127.68,210.09,127.68Z"/><path class="cls-1" d="M223.79,95.35c0-4,.32-8.1.18-12.15,0-.73.26-.9.93-.9q7.2,0,14.41,0c.8,0,.94.29.94,1,0,4,0,8,0,12.07Z"/><path class="cls-1" d="M193.62,95.36c0-4,0-8,0-12.06,0-.84.29-1,1-1q7.16.06,14.3,0c.78,0,.95.28.95,1,0,2.85,0,5.69,0,8.54,0,1.17.1,2.33.16,3.5Z"/><path class="cls-1" d="M224,152.28c0-4,0-8,0-12,0-.77.12-1.13,1-1.12,4.77,0,9.54,0,14.31,0,.77,0,1,.27,1,1,0,3.45,0,6.91,0,10.36,0,.57.1,1.13.15,1.7Z"/><path class="cls-1" d="M163.45,95.37c0-4,0-7.9,0-11.85,0-.81.25-1,1-1q7.2.06,14.41,0c.77,0,1.06.17,1.05,1,0,4,0,7.9,0,11.86Z"/><path class="cls-1" d="M262.72,156.1c.07-4,.14-8.1.18-12.15,0-.65.21-.88.86-.87,4.84,0,9.67.31,14.5.18.71,0,.71.39.71.89,0,4,0,8,0,12Z"/><path class="cls-1" d="M262.71,120.39c0-3.91.35-7.81.19-11.72,0-.73.26-.9.93-.9,4.73,0,9.46,0,14.19,0,.77,0,1,.27,1,1,0,3.88,0,7.76,0,11.63Z"/><path class="cls-1" d="M142.55,95.36c-.24-1.39-.62-1.73-2-1.73h-7a1.8,1.8,0,0,1-.2-1.14c.21-2.83,0-5.67,0-8.51,0-1,.29-1.27,1.26-1.23,3.27.11,6.54.16,9.81.18,1.56,0,3.13-.08,4.69-.18.75,0,1,.23,1,1,0,3.88,0,7.77,0,11.65Z"/><path class="cls-1" d="M279,122.12c0,1.35,0,2.71,0,4.06.05,2.24.11,4.48.21,6.71,0,.7-.12,1-.92,1-4.77,0-9.53.09-14.3.18-.85,0-1.08-.23-1.09-1.08,0-3.62-.1-7.25-.16-10.88Z"/><path class="cls-1" d="M240.24,97.08c0,3.56,0,7.12.24,10.68.06.85-.23,1.09-1.08,1.08q-7.16,0-14.33,0c-.82,0-1.12-.19-1.1-1.07.05-2.49,0-5,0-7.49a17.07,17.07,0,0,0-.17-3.19Z"/><path class="cls-1" d="M279,157.82c.08,3.6.13,7.19.24,10.78,0,.81-.23,1-1,1-4.78,0-9.56,0-14.33,0-.66,0-1-.15-.95-.89.16-3.63-.25-7.25-.19-10.89Z"/><path class="cls-1" d="M179.93,97.07c0,2.35,0,4.7,0,7.05,0,1.21.09,2.42.19,3.62.05.7-.21.92-.91.92q-7.32,0-14.65,0c-.65,0-.93-.15-1-.88-.13-3.56-.22-7.12-.17-10.68Z"/><path class="cls-1" d="M210.07,97.09c0,3.6,0,7.19,0,10.78,0,.76-.16.88-1,.84-2.48-.12-5-.07-7.47-.07-2.2,0-4.41,0-6.61,0-.94,0-1.32-.19-1.28-1.22.08-2.09,0-4.2,0-6.29,0-1.35-.26-2.69-.16-4Z"/><path class="cls-1" d="M240.25,153.77c0,.32,0,.64,0,1,0,3.16,0,6.33.2,9.49.06.84-.2,1.16-1.06,1.09-4.77-.41-9.54-.13-14.31-.18-.87,0-1.15-.22-1.14-1.12,0-3.35,0-6.7,0-10C229.38,154,234.82,154.05,240.25,153.77Z"/><path class="cls-1" d="M141,105.24l1.2-7.39s.05.05.08.06h.1c0-.82.55-.86,1.21-.85,2.12,0,4.25,0,6.37,0,0,2.7,0,5.39,0,8.09a23.91,23.91,0,0,0,.19,2.54c.09.84-.13,1.21-1.08,1.17-1.91-.08-3.83,0-5.75-.05-.21-.63-.44-1.25-.64-1.88A2.35,2.35,0,0,0,141,105.24Z"/><path class="cls-7" d="M179.93,97.07H163.46c0-.57,0-1.14,0-1.71h16.48Z"/><path class="cls-7" d="M210.07,97.09H193.63c0-.58,0-1.16,0-1.74l16.45,0Z"/><path class="cls-7" d="M240.24,97.08l-16.44,0c0-.58,0-1.17,0-1.75h16.46C240.25,95.93,240.24,96.51,240.24,97.08Z"/><path class="cls-7" d="M240.25,153.77c-5.43.28-10.87.2-16.31.19a1.87,1.87,0,0,1,0-1.68l16.47,0C240.4,152.75,240.64,153.3,240.25,153.77Z"/><path class="cls-7" d="M279,122.12H262.73c0-.58,0-1.16,0-1.74H279Z"/><path class="cls-7" d="M279,157.82l-16.25,0V156.1H279C279,156.68,279,157.25,279,157.82Z"/><path class="cls-7" d="M150,97.07c-2.12,0-4.25,0-6.37,0-.66,0-1.18,0-1.21.85h-.1s-.05,0-.08-.06l.33-2.49H150Z"/><path class="cls-8" d="M187.06,39.12c-1.22,0-2.43,0-3.64,0-.58,0-.72-.19-.71-.74,0-2.14,0-4.28,0-6.42,0-.88-.28-1-1.08-1-1.92.05-3.85,0-5.77,0-.65,0-1-.1-.94-.86q.08-3.53,0-7.06c0-.75.28-.87.93-.86,2,0,4,0,6,0,.69,0,.91-.16.89-.87,0-2.21,0-4.42,0-6.63,0-.7.18-.92.89-.91,2.32,0,4.64.06,6.95,0,.8,0,.93.28.92,1-.05,2.1,0,4.2,0,6.31,0,.85.15,1.16,1.08,1.12,2-.08,4,0,6,0,.7,0,.9.2.89.9q-.06,3.52,0,7.06c0,.68-.22.83-.85.82-2.07,0-4.14,0-6.21,0-.68,0-.91.16-.9.88.05,2.14,0,4.28,0,6.41,0,.72-.21.92-.9.89C189.41,39.08,188.23,39.11,187.06,39.12Z"/><path class="cls-1" d="M185.92,151.84c0,7.38,0,14.76,0,22.14,0,.94-.24,1.21-1.19,1.2q-9.36-.06-18.72,0c-1,0-1.32-.24-1.32-1.29q.06-15.51,0-31c0-4-.14-8-.18-12,0-2.32,0-2.32,2.23-2.32,6,0,12,0,18,0,.93,0,1.21.23,1.2,1.19,0,7.38,0,14.76,0,22.14Z"/><path class="cls-1" d="M187.83,151.73c0-7.34,0-14.68,0-22,0-1,.25-1.21,1.19-1.2q9.15.06,18.28,0c1.06,0,1.32.35,1.32,1.35q0,22.08,0,44.16c0,.85-.2,1.16-1.12,1.16q-9.3-.06-18.6,0c-.88,0-1.07-.29-1.07-1.11C187.84,166.63,187.83,159.18,187.83,151.73Z"/><path class="cls-3" d="M256.11,30.36c0-1.13-.35-1.34-1.39-1.34q-23.91.06-47.81,0a21.67,21.67,0,0,1-2.78,7.87c-3.75,5.91-9.11,9.19-16.13,9.49-10.13.45-18.22-5.88-20.39-15.8a4.6,4.6,0,0,0-.3-1.56q-24.43,0-48.88,0c-.81,0-1.2.1-1.2,1.08q0,20.87,0,41.72c0,.84.24,1.09,1.09,1.08,3.75,0,7.51,0,11.26,0,3.41,0,6.83,0,10.24-.08,2.28,0,4.59-.09,6.89.06s4.56,0,6.84,0c3.5.09,7-.15,10.51,0,2.53.08,5.06-.05,7.59-.15,2-.07,4,.18,6,.16,2.33,0,4.65,0,7,0,8.3,0,16.6,0,24.91,0,2.39,0,4.78-.17,7.18,0,1,.06,2-.3,3-.15a37.39,37.39,0,0,0,5.18.1c4.53.09,9.08-.07,13.61-.06,2.5,0,5-.08,7.53.06,3.06.18,6.14,0,9.22.06,1,0,.89-.52.89-1.16C256.08,58,256.06,44.16,256.11,30.36ZM208.67,51.48c1.81,0,3.63,0,5.44,0-1.81,0-3.63,0-5.44,0h0Z"/><path d="M148.18,65.3h-3V57.07h-8.41V65.3h-3V47.07h3v7.45h8.41V47.07h3Z"/><path d="M167.85,58.37a9.55,9.55,0,0,1-.45,3.05,6,6,0,0,1-1.31,2.25,5.63,5.63,0,0,1-2.07,1.4,7.34,7.34,0,0,1-2.73.48,6.89,6.89,0,0,1-2.61-.48,5.81,5.81,0,0,1-2.05-1.4,6.3,6.3,0,0,1-1.34-2.25,9.26,9.26,0,0,1-.47-3.05,8.6,8.6,0,0,1,.79-3.88,5.52,5.52,0,0,1,2.26-2.42,7,7,0,0,1,3.51-.84,6.66,6.66,0,0,1,3.37.84A5.77,5.77,0,0,1,167,54.5,8.32,8.32,0,0,1,167.85,58.37Zm-10,0A8.2,8.2,0,0,0,158.2,61a3.33,3.33,0,0,0,1.15,1.64,3.83,3.83,0,0,0,4,0A3.3,3.3,0,0,0,164.47,61a8.2,8.2,0,0,0,.36-2.58,8,8,0,0,0-.36-2.57,3.21,3.21,0,0,0-1.13-1.61,3.39,3.39,0,0,0-2-.55,3,3,0,0,0-2.66,1.22A6.17,6.17,0,0,0,157.84,58.37Z"/><path d="M181.24,51.23a4.88,4.88,0,0,1,3.95,1.8,8.21,8.21,0,0,1,1.49,5.34,10,10,0,0,1-.7,3.94,5.26,5.26,0,0,1-1.93,2.42,5.1,5.1,0,0,1-2.89.82,5.31,5.31,0,0,1-1.82-.28,4.61,4.61,0,0,1-1.32-.71,4.92,4.92,0,0,1-.92-1h-.18c0,.33.08.7.12,1.1s.06.78.06,1.11v5.62h-2.95V51.49h2.4L177,53.4h.14a5.61,5.61,0,0,1,.94-1.08,3.91,3.91,0,0,1,1.35-.79A5.16,5.16,0,0,1,181.24,51.23Zm-.79,2.4a3.51,3.51,0,0,0-1.94.48,2.74,2.74,0,0,0-1.06,1.44,7.71,7.71,0,0,0-.35,2.4v.42a9,9,0,0,0,.32,2.6,3,3,0,0,0,1.06,1.62,3.26,3.26,0,0,0,2,.55,2.7,2.7,0,0,0,1.78-.58,3.52,3.52,0,0,0,1-1.68,8.4,8.4,0,0,0,.35-2.55,6.39,6.39,0,0,0-.79-3.47A2.69,2.69,0,0,0,180.45,53.63Z"/><path d="M194.48,46.21a1.91,1.91,0,0,1,1.16.36,1.43,1.43,0,0,1,.49,1.25,1.45,1.45,0,0,1-.49,1.24,2.08,2.08,0,0,1-2.34,0,1.47,1.47,0,0,1-.48-1.24,1.46,1.46,0,0,1,.48-1.25A1.9,1.9,0,0,1,194.48,46.21Zm1.44,5.28V65.3H193V51.49Z"/><path d="M208.19,63.18a6.1,6.1,0,0,0,1.13-.11,8.19,8.19,0,0,0,1-.25V65a6.47,6.47,0,0,1-1.26.36,8.53,8.53,0,0,1-1.61.15,5.44,5.44,0,0,1-2.11-.39,3.09,3.09,0,0,1-1.48-1.36,5.31,5.31,0,0,1-.55-2.65V53.73h-1.89V52.42l2-1,1-3h1.85v3.06h3.95v2.24h-3.95v7.38a2.08,2.08,0,0,0,.52,1.56A1.9,1.9,0,0,0,208.19,63.18Z"/><path d="M221.5,51.23a5.9,5.9,0,0,1,4,1.16A4.56,4.56,0,0,1,226.8,56V65.3h-2.08l-.56-2h-.1a7.53,7.53,0,0,1-1.21,1.24,4.65,4.65,0,0,1-1.44.73,7.18,7.18,0,0,1-2,.24,5.08,5.08,0,0,1-2.21-.46,3.37,3.37,0,0,1-1.53-1.39,4.47,4.47,0,0,1-.56-2.37,3.6,3.6,0,0,1,1.59-3.2,9.25,9.25,0,0,1,4.8-1.19l2.4-.08v-.73a2.28,2.28,0,0,0-2.55-2.65,6.68,6.68,0,0,0-2,.3,14.59,14.59,0,0,0-1.9.73l-1-2.07a11,11,0,0,1,5-1.21Zm2.4,7.47-1.79.06a5.58,5.58,0,0,0-3.08.75,2.2,2.2,0,0,0-.88,1.85,1.75,1.75,0,0,0,.61,1.49,2.57,2.57,0,0,0,1.61.47,3.71,3.71,0,0,0,2.52-.87,3.19,3.19,0,0,0,1-2.55Z"/><path d="M236.78,65.3h-2.94V45.89h2.94Z"/></svg>