<svg id="Calque_1" data-name="Calque 1" xmlns="http://www.w3.org/2000/svg" xmlns:xlink="http://www.w3.org/1999/xlink" viewBox="0 0 178 81"><defs><style>.cls-1{fill:url(#Dégradé_sans_nom_5);}.cls-2{fill:url(#Dégradé_sans_nom_5-2);}.cls-3{fill:url(#Dégradé_sans_nom_5-3);}.cls-4{fill:url(#Dégradé_sans_nom_5-4);}.cls-5{fill:url(#Dégradé_sans_nom_5-5);}</style><linearGradient id="Dégradé_sans_nom_5" x1="3" y1="40.5" x2="72.78" y2="40.5" gradientUnits="userSpaceOnUse"><stop offset="0" stop-color="#329986"/><stop offset="1" stop-color="#49ba75"/></linearGradient><linearGradient id="Dégradé_sans_nom_5-2" x1="123.77" y1="50.54" x2="175" y2="50.54" xlink:href="#Dégradé_sans_nom_5"/><linearGradient id="Dégradé_sans_nom_5-3" x1="77.32" y1="50.91" x2="116.53" y2="50.91" xlink:href="#Dégradé_sans_nom_5"/><linearGradient id="Dégradé_sans_nom_5-4" x1="84.3" y1="23.38" x2="107.59" y2="23.38" xlink:href="#Dégradé_sans_nom_5"/><linearGradient id="Dégradé_sans_nom_5-5" x1="20.76" y1="50.8" x2="54.17" y2="50.8" xlink:href="#Dégradé_sans_nom_5"/></defs><title>logo</title><path class="cls-1" d="M37.71,75.38a34.88,34.88,0,1,1,35.06-33.7A35,35,0,0,1,37.71,75.38Zm0-4c1.15-2.29,2.28-4.35,3.24-6.49.59-1.32,1.27-2.32,2.86-2.38a4.68,4.68,0,0,0,1.1-.35A22.47,22.47,0,0,0,60.37,37c-1.63-9.29-7.18-15.42-16.08-18.26-10-3.21-21,1.45-26.29,10.81a22.57,22.57,0,0,0,4.3,27.63,23.13,23.13,0,0,0,10.05,5.43,2,2,0,0,1,1.48,1.19c.59,1.27,1.23,2.51,1.86,3.75S36.94,70,37.67,71.42Z"/><path class="cls-2" d="M123.77,33.28h7.48v4.38c.47-.42.7-.61.89-.82a12.93,12.93,0,0,1,11.54-4.36,10.37,10.37,0,0,1,7.74,5c.24.36.44.74.69,1.16.64-.19.83-.78,1.17-1.2a12.55,12.55,0,0,1,7.07-4.7,13.62,13.62,0,0,1,6.86.16A9.68,9.68,0,0,1,174,39.42c1,3,1,6.16,1,9.28,0,5.39-.05,10.79-.08,16.18,0,1.19,0,2.38,0,3.56a31.81,31.81,0,0,1-7.53.13c0-.48-.07-1-.07-1.49,0-6.94,0-13.87,0-20.8a8.18,8.18,0,0,0-1.43-4.77,4.72,4.72,0,0,0-3.43-2.17c-2.86-.3-5.38.42-7.15,2.84a10.57,10.57,0,0,0-2.13,6.32V68.4a29.19,29.19,0,0,1-7.5.12c0-.48-.07-1-.07-1.5,0-6.4.05-12.81,0-19.21A17.78,17.78,0,0,0,145,43.4c-.78-2.82-2.74-4.17-5.68-4.16a7.48,7.48,0,0,0-7,4.74,15.78,15.78,0,0,0-1,6.38c0,5.58,0,11.17,0,16.75,0,.47,0,1-.07,1.49h-7.48Z"/><path class="cls-3" d="M97.34,32.25a19.35,19.35,0,0,1,19,16,16.37,16.37,0,0,1-.77,8.26c-4,11.15-15.87,15.8-26.43,11.42A18.26,18.26,0,0,1,78.61,57.4c-3.39-8.81.27-17,6.92-21.59A19.37,19.37,0,0,1,97.34,32.25Zm-1.22,7.14a11,11,0,0,0-7.73,3.55c-3.51,3.47-4.36,9.4-1.86,13.46A12,12,0,0,0,108.37,54C110.34,46.42,104.86,39.4,96.12,39.39Z"/><path class="cls-4" d="M95.93,27.31H87.85a13.85,13.85,0,0,1-1.58,0,2,2,0,0,1-1.94-2.09c0-1.11,0-2.21,0-3.32,0-1.8.64-2.43,2.42-2.43,3.75,0,7.5,0,11.25,0,2.36,0,4.71,0,7.07,0,1.94,0,2.51.57,2.53,2.47,0,1.06,0,2.12,0,3.17a2,2,0,0,1-2.25,2.21c-3.12,0-6.25,0-9.37,0Z"/><path class="cls-5" d="M37.61,67.9,20.76,33.8c.56,0,.92-.1,1.29-.1,1.54,0,3.08.1,4.62,0A2.06,2.06,0,0,1,29,35.1c1.44,3.14,3,6.22,4.54,9.34,1.11,2.29,2.19,4.6,3.29,6.9.19.38.4.76.73,1.39,1.74-3.23,3.16-6.4,4.66-9.52l4.54-9.44h7.43Z"/></svg>