<svg id="Calque_1" data-name="Calque 1" xmlns="http://www.w3.org/2000/svg" viewBox="0 0 303 208"><defs><style>.cls-1{fill:#1b1464;}.cls-2{fill:#fff;}.cls-3{fill:#55b3b3;}.cls-4{fill:#56b3b4;}.cls-5{fill:#57b4b4;}.cls-6{fill:#58b4b5;}.cls-7{fill:#59b4b6;}.cls-8{fill:#5ab5b6;}.cls-9{fill:#5bb5b7;}.cls-10{fill:#5cb5b8;}.cls-11{fill:#5db6b8;}.cls-12{fill:#5eb6b9;}.cls-13{fill:#5fb7ba;}.cls-14{fill:#60b7ba;}.cls-15{fill:#61b7bb;}.cls-16{fill:#62b8bc;}.cls-17{fill:#63b8bc;}.cls-18{fill:#64b8bd;}.cls-19{fill:#65b9be;}.cls-20{fill:#66b9be;}.cls-21{fill:#67b9bf;}.cls-22{fill:#68bac0;}.cls-23{fill:#69bac0;}.cls-24{fill:#6abac1;}.cls-25{fill:#6bbbc1;}.cls-26{fill:#6cbbc2;}.cls-27{fill:#6dbbc3;}.cls-28{fill:#6ebcc3;}.cls-29{fill:#6fbcc4;}.cls-30{fill:#70bcc5;}.cls-31{fill:#71bdc5;}.cls-32{fill:#72bdc6;}.cls-33{fill:#73bec7;}.cls-34{fill:#74bec7;}.cls-35{fill:#75bec8;}.cls-36{fill:#76bfc9;}.cls-37{fill:#77bfc9;}.cls-38{fill:#78bfca;}.cls-39{fill:#79c0cb;}.cls-40{fill:#7ac0cb;}.cls-41{fill:#7bc0cc;}.cls-42{fill:#7cc1cd;}.cls-43{fill:#7dc1cd;}.cls-44{fill:#7ec1ce;}.cls-45{fill:#7fc2cf;}.cls-46{fill:#80c2cf;}.cls-47{fill:#81c2d0;}.cls-48{fill:#82c3d1;}.cls-49{fill:#83c3d1;}.cls-50{fill:#84c3d2;}.cls-51{fill:#85c4d3;}.cls-52{fill:#86c4d3;}.cls-53{fill:#87c5d4;}.cls-54{fill:#88c5d5;}.cls-55{fill:#89c5d5;}.cls-56{fill:#8ac6d6;}.cls-57{fill:#8bc6d7;}.cls-58{fill:#8cc6d7;}.cls-59{fill:#8dc7d8;}.cls-60{fill:#8ec7d9;}.cls-61{fill:#8fc8da;}.cls-62{fill:#90c8da;}.cls-63{fill:#91c8db;}.cls-64{fill:#92c9dc;}.cls-65{fill:#93c9dc;}.cls-66{fill:#94c9dd;}.cls-67{fill:#95cade;}.cls-68{fill:#96cade;}.cls-69{fill:#97cbdf;}.cls-70{fill:#98cbe0;}.cls-71{fill:#99cbe0;}.cls-72{fill:#9acce1;}.cls-73{fill:#9bcce2;}.cls-74{fill:#9ccce2;}.cls-75{fill:#9dcde3;}.cls-76{fill:#9ecde4;}.cls-77{fill:#9fcde4;}.cls-78{fill:#a0cee5;}.cls-79{fill:#a1cee6;}.cls-80{fill:#a2cee6;}.cls-81{fill:#a3cfe7;}.cls-82{fill:#a4cfe8;}.cls-83{fill:#a5cfe8;}.cls-84{fill:#a6d0e9;}.cls-85{fill:#a7d0ea;}.cls-86{fill:#a8d0ea;}.cls-87{fill:#a9d1eb;}.cls-88{fill:#aad1ec;}.cls-89{fill:#abd2ec;}.cls-90{fill:#acd2ed;}.cls-91{fill:#add2ee;}.cls-92{fill:#aed3ee;}.cls-93{fill:#afd3ef;}.cls-94{fill:#b0d3f0;}.cls-95{fill:#b1d4f0;}.cls-96{fill:#b2d4f1;}.cls-97{fill:#b3d4f1;}.cls-98{fill:#b4d5f2;}.cls-99{fill:#b5d5f3;}.cls-100{fill:#b6d5f3;}.cls-101{fill:#b7d6f4;}.cls-102{fill:#b8d6f5;}.cls-103{fill:#b9d6f5;}.cls-104{fill:#bad7f6;}.cls-105{fill:#bbd7f7;}.cls-106{fill:#bcd7f7;}.cls-107{fill:#bdd8f8;}.cls-108{fill:#bed8f9;}.cls-109{fill:#bfd9f9;}.cls-110{fill:#c0d9fa;}.cls-111{fill:#c1d9fb;}.cls-112{fill:#c2dafb;}.cls-113{fill:#c3dafc;}.cls-114{fill:#c4dafd;}.cls-115{fill:#c5dbfd;}.cls-116{fill:#c6dbfe;}.cls-117{fill:#24304f;}.cls-118{fill:#feae6f;}.cls-119{fill:#2f1b16;}.cls-120{fill:#49ba75;}.cls-121{fill:#d8edfe;}.cls-122{fill:#f4f9fe;}.cls-123{fill:#fe7d37;}</style></defs><title>pages_ims</title><rect class="cls-1" x="0.01" y="0.5" width="303" height="207" rx="29.38"/><path class="cls-2" d="M130.35,92.74,129.4,90h-3.73l-1,2.71H123L126.66,83h1.77l3.62,9.78ZM129,88.66,128.06,86c0-.11-.09-.27-.15-.49s-.14-.42-.2-.64-.13-.41-.17-.56c0,.18-.1.39-.16.61l-.19.63-.14.45-.93,2.67Z"/><path class="cls-2" d="M134.87,92.74l-2.81-7.38h1.66l1.52,4.33q.15.42.27.9a8,8,0,0,1,.16.8h.06a5.84,5.84,0,0,1,.18-.81,8.56,8.56,0,0,1,.27-.89l1.52-4.33h1.65l-2.81,7.38Z"/><path class="cls-2" d="M147,89a5.15,5.15,0,0,1-.24,1.64,3.25,3.25,0,0,1-.7,1.2,2.91,2.91,0,0,1-1.1.75,4,4,0,0,1-1.46.25,3.75,3.75,0,0,1-1.4-.25,3,3,0,0,1-1.09-.75,3.43,3.43,0,0,1-.72-1.2A4.87,4.87,0,0,1,140,89a4.66,4.66,0,0,1,.42-2.07,3,3,0,0,1,1.21-1.29,3.7,3.7,0,0,1,1.87-.45,3.54,3.54,0,0,1,1.8.45,3.07,3.07,0,0,1,1.22,1.3A4.48,4.48,0,0,1,147,89Zm-5.35,0a4.28,4.28,0,0,0,.2,1.38,1.69,1.69,0,0,0,.61.88,1.75,1.75,0,0,0,1.06.3,1.78,1.78,0,0,0,1.07-.3,1.75,1.75,0,0,0,.61-.88,5.07,5.07,0,0,0,0-2.75,1.78,1.78,0,0,0-.61-.86,1.85,1.85,0,0,0-1.07-.29,1.6,1.6,0,0,0-1.42.65A3.29,3.29,0,0,0,141.65,89Z"/><path class="cls-2" d="M149.59,82.54a1,1,0,0,1,.63.19.79.79,0,0,1,.26.67.78.78,0,0,1-.26.66,1.14,1.14,0,0,1-1.26,0,.78.78,0,0,1-.25-.66.79.79,0,0,1,.25-.67A1,1,0,0,1,149.59,82.54Zm.78,2.82v7.38H148.8V85.36Z"/><path class="cls-2" d="M156.35,85.22l.4,0,.38.05L157,86.76a1.58,1.58,0,0,0-.35-.06l-.36,0a2.36,2.36,0,0,0-.8.14,1.92,1.92,0,0,0-.67.41,1.94,1.94,0,0,0-.46.69,2.61,2.61,0,0,0-.17,1v3.86h-1.57V85.36h1.22l.22,1.3h.07a3.44,3.44,0,0,1,.55-.72,2.34,2.34,0,0,1,.75-.52A2.18,2.18,0,0,1,156.35,85.22Z"/><path class="cls-2" d="M167,90.63a2,2,0,0,1-.35,1.23,2.2,2.2,0,0,1-1,.76,4.72,4.72,0,0,1-1.66.25,6.55,6.55,0,0,1-1.33-.11,4.59,4.59,0,0,1-1-.33V91.07a7.2,7.2,0,0,0,1.19.43,4.7,4.7,0,0,0,1.24.18,1.94,1.94,0,0,0,1.11-.24.76.76,0,0,0,.34-.65.71.71,0,0,0-.13-.43,1.52,1.52,0,0,0-.51-.4c-.25-.13-.61-.29-1.08-.49a7.72,7.72,0,0,1-1.18-.56,2.07,2.07,0,0,1-.73-.67,2,2,0,0,1-.25-1,1.67,1.67,0,0,1,.78-1.49,3.7,3.7,0,0,1,2.06-.51,5.84,5.84,0,0,1,1.28.14,6.28,6.28,0,0,1,1.18.39l-.49,1.18a10,10,0,0,0-1-.36,4,4,0,0,0-1-.14,1.9,1.9,0,0,0-.92.18.61.61,0,0,0-.32.54.68.68,0,0,0,.16.44,1.61,1.61,0,0,0,.53.36c.25.12.6.27,1.05.44a8.81,8.81,0,0,1,1.14.53,2.13,2.13,0,0,1,.74.68A1.81,1.81,0,0,1,167,90.63Z"/><path class="cls-2" d="M175.22,89a5.15,5.15,0,0,1-.24,1.64,3.25,3.25,0,0,1-.7,1.2,3,3,0,0,1-1.11.75,3.92,3.92,0,0,1-1.46.25,3.7,3.7,0,0,1-1.39-.25,3,3,0,0,1-1.09-.75,3.43,3.43,0,0,1-.72-1.2,4.87,4.87,0,0,1-.25-1.64,4.66,4.66,0,0,1,.42-2.07,3,3,0,0,1,1.21-1.29,3.7,3.7,0,0,1,1.87-.45,3.54,3.54,0,0,1,1.8.45,3.07,3.07,0,0,1,1.22,1.3A4.48,4.48,0,0,1,175.22,89Zm-5.35,0a4,4,0,0,0,.2,1.38,1.69,1.69,0,0,0,.61.88,1.75,1.75,0,0,0,1.06.3,1.78,1.78,0,0,0,1.07-.3,1.68,1.68,0,0,0,.6-.88,4.83,4.83,0,0,0,0-2.75,1.7,1.7,0,0,0-.6-.86,1.89,1.89,0,0,0-1.08-.29,1.59,1.59,0,0,0-1.41.65A3.29,3.29,0,0,0,169.87,89Z"/><path class="cls-2" d="M180.87,85.22a2.8,2.8,0,0,1,1.94.64,2.72,2.72,0,0,1,.69,2.07v4.81h-1.56V88.22a2,2,0,0,0-.35-1.29,1.33,1.33,0,0,0-1.1-.43,1.63,1.63,0,0,0-1.49.66,3.69,3.69,0,0,0-.41,1.91v3.67H177V85.36h1.22l.22,1h.09a2.27,2.27,0,0,1,.59-.64,2.78,2.78,0,0,1,.8-.37A3.22,3.22,0,0,1,180.87,85.22Z"/><path class="cls-2" d="M191.72,92.87a2.62,2.62,0,0,1-2.12-1,4.37,4.37,0,0,1-.8-2.84,4.42,4.42,0,0,1,.81-2.88,2.68,2.68,0,0,1,2.14-1,2.93,2.93,0,0,1,1,.15,2.49,2.49,0,0,1,.72.4,2.8,2.8,0,0,1,.52.57H194c0-.14,0-.34-.07-.6a6.39,6.39,0,0,1-.05-.72V82.37h1.58V92.74h-1.23l-.28-1h-.07a2.34,2.34,0,0,1-1.22,1A2.93,2.93,0,0,1,191.72,92.87Zm.44-1.27a1.62,1.62,0,0,0,1.42-.58,3.14,3.14,0,0,0,.42-1.74v-.21a3.68,3.68,0,0,0-.4-1.9,1.56,1.56,0,0,0-1.46-.66,1.46,1.46,0,0,0-1.29.68,3.54,3.54,0,0,0-.44,1.9,3.33,3.33,0,0,0,.44,1.87A1.49,1.49,0,0,0,192.16,91.6Z"/><path class="cls-2" d="M204.27,89a5.15,5.15,0,0,1-.24,1.64,3.39,3.39,0,0,1-.7,1.2,3,3,0,0,1-1.11.75,4,4,0,0,1-1.46.25,3.66,3.66,0,0,1-1.39-.25,3.08,3.08,0,0,1-1.1-.75,3.43,3.43,0,0,1-.72-1.2A5.14,5.14,0,0,1,197.3,89a4.66,4.66,0,0,1,.42-2.07,3.08,3.08,0,0,1,1.21-1.29,3.74,3.74,0,0,1,1.88-.45,3.54,3.54,0,0,1,1.8.45,3.13,3.13,0,0,1,1.22,1.3A4.48,4.48,0,0,1,204.27,89Zm-5.36,0a4.28,4.28,0,0,0,.2,1.38,1.69,1.69,0,0,0,.61.88,1.78,1.78,0,0,0,1.07.3,1.75,1.75,0,0,0,1.06-.3,1.69,1.69,0,0,0,.61-.88,5.07,5.07,0,0,0,0-2.75,1.72,1.72,0,0,0-.61-.86,1.83,1.83,0,0,0-1.07-.29,1.61,1.61,0,0,0-1.42.65A3.29,3.29,0,0,0,198.91,89Z"/><path class="cls-2" d="M211,90.63a2,2,0,0,1-.35,1.23,2.15,2.15,0,0,1-1,.76,4.72,4.72,0,0,1-1.66.25,6.38,6.38,0,0,1-1.32-.11,4.3,4.3,0,0,1-1-.33V91.07a6.76,6.76,0,0,0,1.18.43,4.7,4.7,0,0,0,1.24.18,1.94,1.94,0,0,0,1.11-.24.76.76,0,0,0,.34-.65.71.71,0,0,0-.13-.43,1.52,1.52,0,0,0-.51-.4c-.25-.13-.61-.29-1.08-.49a7.72,7.72,0,0,1-1.18-.56,2.07,2.07,0,0,1-.73-.67,2,2,0,0,1-.24-1,1.66,1.66,0,0,1,.77-1.49,3.7,3.7,0,0,1,2.06-.51,5.84,5.84,0,0,1,1.28.14,6.28,6.28,0,0,1,1.18.39l-.49,1.18a10,10,0,0,0-1-.36,4,4,0,0,0-1-.14,1.9,1.9,0,0,0-.92.18.6.6,0,0,0-.31.54.67.67,0,0,0,.15.44,1.61,1.61,0,0,0,.53.36c.25.12.6.27,1,.44a8.81,8.81,0,0,1,1.14.53,2.13,2.13,0,0,1,.74.68A1.81,1.81,0,0,1,211,90.63Z"/><path class="cls-2" d="M217.67,90.63a2.1,2.1,0,0,1-.35,1.23,2.2,2.2,0,0,1-1,.76,4.79,4.79,0,0,1-1.66.25,6.42,6.42,0,0,1-1.33-.11,4.59,4.59,0,0,1-1.05-.33V91.07a7.08,7.08,0,0,0,1.18.43,4.78,4.78,0,0,0,1.25.18,2,2,0,0,0,1.11-.24.76.76,0,0,0,.34-.65.71.71,0,0,0-.14-.43,1.57,1.57,0,0,0-.5-.4c-.25-.13-.61-.29-1.09-.49a8.21,8.21,0,0,1-1.18-.56,2,2,0,0,1-.72-.67,1.88,1.88,0,0,1-.25-1,1.67,1.67,0,0,1,.78-1.49,3.66,3.66,0,0,1,2.05-.51,5.93,5.93,0,0,1,1.29.14,6.52,6.52,0,0,1,1.18.39l-.49,1.18a10.18,10.18,0,0,0-1-.36,3.86,3.86,0,0,0-1-.14,1.9,1.9,0,0,0-.92.18.61.61,0,0,0-.32.54.67.67,0,0,0,.15.44,1.72,1.72,0,0,0,.53.36c.25.12.6.27,1.05.44a9.68,9.68,0,0,1,1.15.53,2.13,2.13,0,0,1,.74.68A1.89,1.89,0,0,1,217.67,90.63Z"/><path class="cls-2" d="M220.15,82.54a1,1,0,0,1,.62.19.76.76,0,0,1,.26.67.75.75,0,0,1-.26.66,1.12,1.12,0,0,1-1.25,0,.78.78,0,0,1-.26-.66.79.79,0,0,1,.26-.67A1,1,0,0,1,220.15,82.54Zm.77,2.82v7.38h-1.57V85.36Z"/><path class="cls-2" d="M226.1,85.22a3.33,3.33,0,0,1,1.69.41,2.69,2.69,0,0,1,1.09,1.15,3.94,3.94,0,0,1,.38,1.79v.84h-4.93a2.4,2.4,0,0,0,.58,1.65,2,2,0,0,0,1.54.58,5.42,5.42,0,0,0,1.27-.14,6.49,6.49,0,0,0,1.17-.4v1.27a4.85,4.85,0,0,1-1.13.38,6.77,6.77,0,0,1-1.37.12,4.14,4.14,0,0,1-1.91-.42,3,3,0,0,1-1.29-1.26,4.28,4.28,0,0,1-.46-2.09,4.81,4.81,0,0,1,.42-2.11,3.09,3.09,0,0,1,1.18-1.32A3.38,3.38,0,0,1,226.1,85.22Zm0,1.18a1.6,1.6,0,0,0-1.2.48,2.27,2.27,0,0,0-.53,1.41h3.36a2.67,2.67,0,0,0-.19-1,1.37,1.37,0,0,0-.53-.67A1.6,1.6,0,0,0,226.1,86.4Z"/><path class="cls-2" d="M234.76,85.22l.41,0,.38.05-.15,1.47a1.39,1.39,0,0,0-.34-.06l-.36,0a2.36,2.36,0,0,0-.8.14,2,2,0,0,0-.68.41,2.25,2.25,0,0,0-.46.69,2.61,2.61,0,0,0-.16,1v3.86H231V85.36h1.23l.21,1.3h.08a3.39,3.39,0,0,1,.54-.72,2.59,2.59,0,0,1,.75-.52A2.25,2.25,0,0,1,234.76,85.22Z"/><path class="cls-2" d="M248.8,85.22a2.49,2.49,0,0,1,1.87.64,2.84,2.84,0,0,1,.63,2v4.83h-1.57V88.19a2.09,2.09,0,0,0-.32-1.26,1.17,1.17,0,0,0-1-.43,1.5,1.5,0,0,0-1.34.6,3.07,3.07,0,0,0-.41,1.73v3.91h-1.57V88.19a2.53,2.53,0,0,0-.14-.93,1.11,1.11,0,0,0-.44-.57,1.29,1.29,0,0,0-.74-.19,1.65,1.65,0,0,0-1,.29,1.62,1.62,0,0,0-.55.87,4.67,4.67,0,0,0-.17,1.39v3.69h-1.57V85.36h1.22l.22,1H242a2.13,2.13,0,0,1,.56-.63,2.65,2.65,0,0,1,.75-.38,3.08,3.08,0,0,1,.86-.12,3,3,0,0,1,1.39.29,1.86,1.86,0,0,1,.85.88h.12a2.07,2.07,0,0,1,1-.88A3.09,3.09,0,0,1,248.8,85.22Z"/><path class="cls-2" d="M256.43,85.22a3.36,3.36,0,0,1,1.69.41,2.67,2.67,0,0,1,1.08,1.15,3.82,3.82,0,0,1,.38,1.79v.84h-4.92a2.4,2.4,0,0,0,.58,1.65,2,2,0,0,0,1.54.58,5.49,5.49,0,0,0,1.27-.14,6.67,6.67,0,0,0,1.16-.4v1.27a4.7,4.7,0,0,1-1.13.38,6.77,6.77,0,0,1-1.37.12,4.16,4.16,0,0,1-1.91-.42,2.94,2.94,0,0,1-1.28-1.26,4.28,4.28,0,0,1-.47-2.09,4.81,4.81,0,0,1,.42-2.11,3.16,3.16,0,0,1,1.18-1.32A3.44,3.44,0,0,1,256.43,85.22Zm0,1.18a1.57,1.57,0,0,0-1.2.48,2.28,2.28,0,0,0-.54,1.41h3.36a2.48,2.48,0,0,0-.18-1,1.44,1.44,0,0,0-.54-.67A1.57,1.57,0,0,0,256.43,86.4Z"/><path class="cls-2" d="M263.83,92.87a2.62,2.62,0,0,1-2.12-1,5.51,5.51,0,0,1,0-5.72,2.66,2.66,0,0,1,2.13-1,2.88,2.88,0,0,1,1,.15,2.69,2.69,0,0,1,.73.4,2.74,2.74,0,0,1,.51.57h.08c0-.14-.05-.34-.08-.6a6.24,6.24,0,0,1,0-.72V82.37h1.57V92.74h-1.23l-.28-1H266a2.56,2.56,0,0,1-.51.58,2.3,2.3,0,0,1-.72.41A2.88,2.88,0,0,1,263.83,92.87Zm.44-1.27a1.62,1.62,0,0,0,1.42-.58,3.13,3.13,0,0,0,.43-1.74v-.21a3.78,3.78,0,0,0-.4-1.9,1.58,1.58,0,0,0-1.46-.66,1.44,1.44,0,0,0-1.29.68,3.45,3.45,0,0,0-.45,1.9A3.25,3.25,0,0,0,263,91,1.47,1.47,0,0,0,264.27,91.6Z"/><path class="cls-2" d="M270.64,82.54a1,1,0,0,1,.62.19.77.77,0,0,1,.27.67.76.76,0,0,1-.27.66,1.12,1.12,0,0,1-1.25,0,.78.78,0,0,1-.26-.66.79.79,0,0,1,.26-.67A1,1,0,0,1,270.64,82.54Zm.77,2.82v7.38h-1.56V85.36Z"/><path class="cls-2" d="M276.63,92.87a3.85,3.85,0,0,1-1.82-.4,2.76,2.76,0,0,1-1.18-1.25,4.9,4.9,0,0,1-.41-2.13,4.7,4.7,0,0,1,.45-2.2,2.89,2.89,0,0,1,1.26-1.26,4,4,0,0,1,1.84-.41,5,5,0,0,1,1.2.13,4.17,4.17,0,0,1,.91.32l-.47,1.25a8.09,8.09,0,0,0-.83-.28,3.5,3.5,0,0,0-.82-.11,1.93,1.93,0,0,0-1.08.28,1.74,1.74,0,0,0-.64.86,4,4,0,0,0-.21,1.4,3.64,3.64,0,0,0,.22,1.37,1.71,1.71,0,0,0,.63.84,1.79,1.79,0,0,0,1,.29,3.64,3.64,0,0,0,1.09-.15,4.86,4.86,0,0,0,.91-.38V92.4a3.53,3.53,0,0,1-.9.36A5.64,5.64,0,0,1,276.63,92.87Z"/><path class="cls-2" d="M283.32,85.22a3.17,3.17,0,0,1,2.12.62,2.41,2.41,0,0,1,.72,1.93v5H285l-.3-1h-.05a3.4,3.4,0,0,1-.65.66,2,2,0,0,1-.77.39,3.61,3.61,0,0,1-1.06.13,2.8,2.8,0,0,1-1.18-.24,1.89,1.89,0,0,1-.82-.74,2.46,2.46,0,0,1-.3-1.27,1.94,1.94,0,0,1,.85-1.71,4.88,4.88,0,0,1,2.57-.64l1.28,0v-.39a1.22,1.22,0,0,0-1.36-1.42,3.47,3.47,0,0,0-1.07.16,8.13,8.13,0,0,0-1,.39l-.51-1.1a5.73,5.73,0,0,1,1.23-.47A5.66,5.66,0,0,1,283.32,85.22Zm1.28,4-1,0a3,3,0,0,0-1.65.4,1.18,1.18,0,0,0-.47,1,.94.94,0,0,0,.33.8,1.35,1.35,0,0,0,.86.25,2,2,0,0,0,1.35-.46,1.74,1.74,0,0,0,.53-1.37Z"/><path class="cls-2" d="M289.92,92.74h-1.57V82.37h1.57Z"/><path class="cls-2" d="M127.09,101.6a3.37,3.37,0,0,1,1.7.41,2.67,2.67,0,0,1,1.08,1.15,3.82,3.82,0,0,1,.38,1.79v.84h-4.92a2.45,2.45,0,0,0,.57,1.65,2,2,0,0,0,1.55.58,5.49,5.49,0,0,0,1.27-.14,6.67,6.67,0,0,0,1.16-.4v1.27a4.7,4.7,0,0,1-1.13.38,6.77,6.77,0,0,1-1.37.12,4.16,4.16,0,0,1-1.91-.42,2.94,2.94,0,0,1-1.28-1.26,4.28,4.28,0,0,1-.47-2.09,4.81,4.81,0,0,1,.42-2.11,3.09,3.09,0,0,1,1.18-1.32A3.43,3.43,0,0,1,127.09,101.6Zm0,1.18a1.56,1.56,0,0,0-1.19.48,2.22,2.22,0,0,0-.54,1.41h3.36a2.68,2.68,0,0,0-.18-1A1.44,1.44,0,0,0,128,103,1.58,1.58,0,0,0,127.09,102.78Z"/><path class="cls-2" d="M135.86,101.6a2.81,2.81,0,0,1,1.95.64,2.72,2.72,0,0,1,.69,2.07v4.81h-1.56V104.6a2,2,0,0,0-.36-1.29,1.31,1.31,0,0,0-1.09-.43,1.63,1.63,0,0,0-1.49.66,3.59,3.59,0,0,0-.41,1.91v3.67H132v-7.38h1.22l.22,1h.09a2.13,2.13,0,0,1,.59-.64,2.78,2.78,0,0,1,.8-.37A3.15,3.15,0,0,1,135.86,101.6Z"/><path class="cls-2" d="M152.57,101.6a2.49,2.49,0,0,1,1.87.64,2.84,2.84,0,0,1,.63,2.05v4.83h-1.56v-4.55a2,2,0,0,0-.33-1.26,1.16,1.16,0,0,0-1-.43,1.52,1.52,0,0,0-1.35.6,3.07,3.07,0,0,0-.41,1.73v3.91h-1.56v-4.55a2.52,2.52,0,0,0-.15-.93,1.14,1.14,0,0,0-.43-.57,1.31,1.31,0,0,0-.74-.19,1.68,1.68,0,0,0-1,.29,1.62,1.62,0,0,0-.55.87,5,5,0,0,0-.17,1.39v3.69h-1.56v-7.38h1.22l.22,1h.08a2,2,0,0,1,.57-.63,2.41,2.41,0,0,1,.75-.38,3,3,0,0,1,.86-.12,3.07,3.07,0,0,1,1.39.29,1.8,1.8,0,0,1,.84.88h.12a2.17,2.17,0,0,1,1-.88A3.09,3.09,0,0,1,152.57,101.6Z"/><path class="cls-2" d="M160.15,101.6a3.19,3.19,0,0,1,2.12.62,2.41,2.41,0,0,1,.71,1.93v5h-1.11l-.3-1.05h0a3.71,3.71,0,0,1-.65.66,2.08,2.08,0,0,1-.77.39,3.61,3.61,0,0,1-1.06.13,2.8,2.8,0,0,1-1.18-.24,1.84,1.84,0,0,1-.82-.74,2.46,2.46,0,0,1-.3-1.27,1.91,1.91,0,0,1,.85-1.71,4.88,4.88,0,0,1,2.57-.64l1.28,0v-.39a1.4,1.4,0,0,0-.36-1.09,1.42,1.42,0,0,0-1-.33A3.58,3.58,0,0,0,159,103a9.56,9.56,0,0,0-1,.39l-.5-1.1a5.73,5.73,0,0,1,1.23-.47A5.55,5.55,0,0,1,160.15,101.6Zm1.28,4-1,0a3,3,0,0,0-1.65.4,1.18,1.18,0,0,0-.47,1,.94.94,0,0,0,.33.8,1.32,1.32,0,0,0,.85.25,2,2,0,0,0,1.35-.46,1.71,1.71,0,0,0,.54-1.37Z"/><path class="cls-2" d="M166,98.92a1,1,0,0,1,.62.19.77.77,0,0,1,.27.67.76.76,0,0,1-.27.66,1.12,1.12,0,0,1-1.25,0,.78.78,0,0,1-.26-.66.79.79,0,0,1,.26-.67A1,1,0,0,1,166,98.92Zm.77,2.82v7.38h-1.56v-7.38Z"/><path class="cls-2" d="M172.83,101.6a2.78,2.78,0,0,1,1.94.64,2.68,2.68,0,0,1,.7,2.07v4.81H173.9V104.6a2,2,0,0,0-.35-1.29,1.33,1.33,0,0,0-1.09-.43,1.61,1.61,0,0,0-1.49.66,3.58,3.58,0,0,0-.42,1.91v3.67H169v-7.38h1.22l.22,1h.09a2.16,2.16,0,0,1,.6-.64,2.61,2.61,0,0,1,.79-.37A3.22,3.22,0,0,1,172.83,101.6Z"/><path class="cls-2" d="M182.61,107a2.1,2.1,0,0,1-.35,1.23,2.2,2.2,0,0,1-1,.76,4.72,4.72,0,0,1-1.66.25,6.49,6.49,0,0,1-1.33-.11,4.59,4.59,0,0,1-1.05-.33v-1.36a6.88,6.88,0,0,0,1.19.43,4.65,4.65,0,0,0,1.24.18,2,2,0,0,0,1.11-.24.76.76,0,0,0,.34-.65.71.71,0,0,0-.13-.43,1.64,1.64,0,0,0-.51-.4c-.25-.13-.61-.3-1.08-.49a7.72,7.72,0,0,1-1.18-.56,1.76,1.76,0,0,1-1-1.69,1.67,1.67,0,0,1,.78-1.49,3.7,3.7,0,0,1,2.06-.51,5.84,5.84,0,0,1,1.28.14,6.28,6.28,0,0,1,1.18.39l-.49,1.18a10,10,0,0,0-1-.36,4,4,0,0,0-1-.14,1.9,1.9,0,0,0-.92.18.61.61,0,0,0-.32.54.63.63,0,0,0,.16.44,1.61,1.61,0,0,0,.53.36c.25.12.6.27,1.05.44a8.81,8.81,0,0,1,1.14.53,2.13,2.13,0,0,1,.74.68A1.81,1.81,0,0,1,182.61,107Z"/><path class="cls-2" d="M191.63,101.6a2.61,2.61,0,0,1,2.11,1,4.38,4.38,0,0,1,.8,2.85,5.42,5.42,0,0,1-.37,2.11,2.91,2.91,0,0,1-1,1.3,2.72,2.72,0,0,1-1.54.43,3.1,3.1,0,0,1-1-.14,2.41,2.41,0,0,1-.71-.39,2.6,2.6,0,0,1-.49-.51h-.1c0,.17.05.37.07.59s0,.41,0,.59v3h-1.58V101.74h1.28l.22,1h.08a2.7,2.7,0,0,1,.5-.58,2.14,2.14,0,0,1,.72-.42A2.71,2.71,0,0,1,191.63,101.6Zm-.42,1.28a1.88,1.88,0,0,0-1,.26,1.4,1.4,0,0,0-.56.77,4.17,4.17,0,0,0-.19,1.28v.22a4.67,4.67,0,0,0,.17,1.39,1.63,1.63,0,0,0,.56.87,1.77,1.77,0,0,0,1.08.3,1.44,1.44,0,0,0,1-.32,1.82,1.82,0,0,0,.56-.89,4.32,4.32,0,0,0,.19-1.37,3.45,3.45,0,0,0-.42-1.85A1.45,1.45,0,0,0,191.21,102.88Z"/><path class="cls-2" d="M199.23,101.6a3.17,3.17,0,0,1,2.12.62,2.41,2.41,0,0,1,.72,1.93v5H201l-.3-1.05h-.05a3.4,3.4,0,0,1-.65.66,2,2,0,0,1-.77.39,3.61,3.61,0,0,1-1.06.13,2.8,2.8,0,0,1-1.18-.24,1.84,1.84,0,0,1-.82-.74,2.46,2.46,0,0,1-.3-1.27,1.91,1.91,0,0,1,.85-1.71,4.88,4.88,0,0,1,2.57-.64l1.28,0v-.39a1.22,1.22,0,0,0-1.36-1.42,3.47,3.47,0,0,0-1.07.16,8.94,8.94,0,0,0-1,.39l-.5-1.1a5.73,5.73,0,0,1,1.23-.47A5.66,5.66,0,0,1,199.23,101.6Zm1.28,4-.95,0a3,3,0,0,0-1.65.4,1.18,1.18,0,0,0-.47,1,.94.94,0,0,0,.33.8,1.35,1.35,0,0,0,.86.25,2,2,0,0,0,1.35-.46,1.74,1.74,0,0,0,.53-1.37Z"/><path class="cls-2" d="M208,101.6l.4,0,.38,0-.14,1.47a1.58,1.58,0,0,0-.35-.06l-.36,0a2.4,2.4,0,0,0-.8.14,1.92,1.92,0,0,0-.67.41,1.86,1.86,0,0,0-.46.69,2.61,2.61,0,0,0-.17,1v3.86h-1.57v-7.38h1.23l.21,1.3h.07a3.44,3.44,0,0,1,.55-.72,2.59,2.59,0,0,1,.75-.52A2.18,2.18,0,0,1,208,101.6Z"/><path class="cls-2" d="M212.9,108a3.05,3.05,0,0,0,.6-.06,3.67,3.67,0,0,0,.55-.14V109a3.45,3.45,0,0,1-.67.19,4.11,4.11,0,0,1-.86.08,2.88,2.88,0,0,1-1.13-.21,1.62,1.62,0,0,1-.79-.72,2.83,2.83,0,0,1-.3-1.42v-4h-1v-.7l1.08-.55.51-1.58h1v1.64H214v1.19h-2.11v3.95a1.1,1.1,0,0,0,.28.83A1,1,0,0,0,212.9,108Z"/><path class="cls-2" d="M222.08,105.41a5.15,5.15,0,0,1-.24,1.64,3.25,3.25,0,0,1-.7,1.2A3,3,0,0,1,220,109a3.9,3.9,0,0,1-1.45.25,3.71,3.71,0,0,1-1.4-.25,3,3,0,0,1-1.09-.75,3.43,3.43,0,0,1-.72-1.2,4.87,4.87,0,0,1-.25-1.64,4.66,4.66,0,0,1,.42-2.07,3,3,0,0,1,1.21-1.29,3.7,3.7,0,0,1,1.87-.45,3.54,3.54,0,0,1,1.8.45,3.07,3.07,0,0,1,1.22,1.3A4.48,4.48,0,0,1,222.08,105.41Zm-5.35,0a4,4,0,0,0,.2,1.38,1.69,1.69,0,0,0,.61.88,1.75,1.75,0,0,0,1.06.3,1.78,1.78,0,0,0,1.07-.3,1.68,1.68,0,0,0,.6-.88,4.83,4.83,0,0,0,0-2.75,1.7,1.7,0,0,0-.6-.86,1.85,1.85,0,0,0-1.07-.29,1.6,1.6,0,0,0-1.42.65A3.29,3.29,0,0,0,216.73,105.41Z"/><path class="cls-2" d="M230.31,101.74v7.38h-1.23l-.21-1h-.09a2.22,2.22,0,0,1-.59.63,2.78,2.78,0,0,1-.8.37,3.59,3.59,0,0,1-.93.12A3.21,3.21,0,0,1,225,109a1.94,1.94,0,0,1-.91-.88,3.23,3.23,0,0,1-.31-1.53v-4.82h1.57v4.53a2,2,0,0,0,.35,1.28,1.33,1.33,0,0,0,1.09.43,2,2,0,0,0,1.14-.29,1.62,1.62,0,0,0,.59-.87,4.74,4.74,0,0,0,.18-1.41v-3.67Z"/><path class="cls-2" d="M237.67,109.12H236.1V98.75h1.57Z"/><path class="cls-2" d="M242.8,101.6a3.16,3.16,0,0,1,2.11.62,2.41,2.41,0,0,1,.72,1.93v5h-1.11l-.31-1.05h-.05a3.67,3.67,0,0,1-.64.66,2.16,2.16,0,0,1-.77.39,3.73,3.73,0,0,1-1.07.13,2.8,2.8,0,0,1-1.18-.24,1.89,1.89,0,0,1-.82-.74,2.46,2.46,0,0,1-.3-1.27,1.94,1.94,0,0,1,.85-1.71,4.9,4.9,0,0,1,2.57-.64l1.28,0v-.39a1.21,1.21,0,0,0-1.36-1.42,3.51,3.51,0,0,0-1.07.16,8.13,8.13,0,0,0-1,.39l-.51-1.1a5.77,5.77,0,0,1,2.67-.65Zm1.28,4-1,0a2.89,2.89,0,0,0-1.64.4,1.16,1.16,0,0,0-.48,1,.94.94,0,0,0,.33.8,1.35,1.35,0,0,0,.86.25,2,2,0,0,0,1.35-.46,1.71,1.71,0,0,0,.54-1.37Z"/><path class="cls-2" d="M257.9,105.41a5.15,5.15,0,0,1-.24,1.64,3.39,3.39,0,0,1-.7,1.2,3,3,0,0,1-1.11.75,4,4,0,0,1-1.46.25A3.7,3.7,0,0,1,253,109a3.08,3.08,0,0,1-1.1-.75,3.27,3.27,0,0,1-.71-1.2,4.87,4.87,0,0,1-.26-1.64,4.52,4.52,0,0,1,.43-2.07,3,3,0,0,1,1.21-1.29,3.67,3.67,0,0,1,1.87-.45,3.54,3.54,0,0,1,1.8.45,3.13,3.13,0,0,1,1.22,1.3A4.48,4.48,0,0,1,257.9,105.41Zm-5.35,0a4.3,4.3,0,0,0,.19,1.38,1.75,1.75,0,0,0,.61.88,1.78,1.78,0,0,0,1.07.3,1.8,1.8,0,0,0,1.07-.3,1.73,1.73,0,0,0,.6-.88,4.83,4.83,0,0,0,0-2.75,1.77,1.77,0,0,0-.6-.86,1.89,1.89,0,0,0-1.08-.29,1.61,1.61,0,0,0-1.42.65A3.3,3.3,0,0,0,252.55,105.41Z"/><path class="cls-2" d="M266.13,101.74v7.38H264.9l-.22-1h-.08a2.25,2.25,0,0,1-.6.63,2.67,2.67,0,0,1-.8.37,3.46,3.46,0,0,1-.92.12,3.29,3.29,0,0,1-1.43-.28,2,2,0,0,1-.9-.88,3.23,3.23,0,0,1-.31-1.53v-4.82h1.57v4.53a2,2,0,0,0,.35,1.28,1.31,1.31,0,0,0,1.09.43,2,2,0,0,0,1.13-.29,1.63,1.63,0,0,0,.6-.87,4.74,4.74,0,0,0,.18-1.41v-3.67Z"/><path class="cls-2" d="M128,118a2.74,2.74,0,0,1,1.94.64,2.68,2.68,0,0,1,.7,2.07v4.81h-1.57V121a2,2,0,0,0-.35-1.29,1.33,1.33,0,0,0-1.09-.43,1.62,1.62,0,0,0-1.49.66,3.58,3.58,0,0,0-.42,1.91v3.67h-1.57v-7.38h1.22l.22,1h.09a2.16,2.16,0,0,1,.6-.64,2.67,2.67,0,0,1,.8-.37A3.1,3.1,0,0,1,128,118Z"/><path class="cls-2" d="M139.36,121.79a5,5,0,0,1-.24,1.63,3.35,3.35,0,0,1-.7,1.21,3.16,3.16,0,0,1-1.11.75,4,4,0,0,1-1.46.25,3.7,3.7,0,0,1-1.39-.25,3.12,3.12,0,0,1-1.81-2,4.76,4.76,0,0,1-.26-1.63,4.52,4.52,0,0,1,.43-2.07,2.91,2.91,0,0,1,1.21-1.29,3.67,3.67,0,0,1,1.87-.45,3.54,3.54,0,0,1,1.8.45,3.07,3.07,0,0,1,1.22,1.3A4.45,4.45,0,0,1,139.36,121.79Zm-5.35,0a4.3,4.3,0,0,0,.19,1.38,1.61,1.61,0,0,0,1.68,1.18,1.75,1.75,0,0,0,1.06-.3,1.73,1.73,0,0,0,.61-.88,4.3,4.3,0,0,0,.19-1.38,4.23,4.23,0,0,0-.19-1.37,1.72,1.72,0,0,0-.61-.86,1.83,1.83,0,0,0-1.07-.29,1.59,1.59,0,0,0-1.42.65A3.3,3.3,0,0,0,134,121.79Z"/><path class="cls-2" d="M147.59,118.12v7.38h-1.23l-.22-1h-.08a2,2,0,0,1-.6.63,2.46,2.46,0,0,1-.8.38,3.46,3.46,0,0,1-.92.12,3.29,3.29,0,0,1-1.43-.28,2,2,0,0,1-.9-.88,3.23,3.23,0,0,1-.31-1.53v-4.82h1.57v4.53a2,2,0,0,0,.35,1.28,1.31,1.31,0,0,0,1.09.43,2,2,0,0,0,1.13-.29,1.63,1.63,0,0,0,.6-.87,4.74,4.74,0,0,0,.18-1.41v-3.67Z"/><path class="cls-2" d="M157.22,118a2.74,2.74,0,0,1,1.94.64,2.68,2.68,0,0,1,.7,2.07v4.81h-1.57V121a2,2,0,0,0-.35-1.29,1.33,1.33,0,0,0-1.09-.43,1.61,1.61,0,0,0-1.49.66,3.58,3.58,0,0,0-.42,1.91v3.67h-1.57v-7.38h1.22l.22,1h.09a2.16,2.16,0,0,1,.6-.64,2.56,2.56,0,0,1,.8-.37A3.1,3.1,0,0,1,157.22,118Z"/><path class="cls-2" d="M168.58,121.79a5,5,0,0,1-.24,1.63,3.35,3.35,0,0,1-.7,1.21,3.16,3.16,0,0,1-1.11.75,4,4,0,0,1-1.46.25,3.66,3.66,0,0,1-1.39-.25,3.21,3.21,0,0,1-1.1-.75,3.39,3.39,0,0,1-.72-1.21,5,5,0,0,1-.25-1.63,4.66,4.66,0,0,1,.42-2.07,3,3,0,0,1,1.21-1.29,3.74,3.74,0,0,1,1.88-.45,3.54,3.54,0,0,1,1.8.45,3.07,3.07,0,0,1,1.22,1.3A4.45,4.45,0,0,1,168.58,121.79Zm-5.36,0a4.28,4.28,0,0,0,.2,1.38,1.73,1.73,0,0,0,.61.88,1.78,1.78,0,0,0,1.07.3,1.75,1.75,0,0,0,1.06-.3,1.73,1.73,0,0,0,.61-.88,4.3,4.3,0,0,0,.19-1.38,4.23,4.23,0,0,0-.19-1.37,1.72,1.72,0,0,0-.61-.86,1.83,1.83,0,0,0-1.07-.29,1.59,1.59,0,0,0-1.42.65A3.29,3.29,0,0,0,163.22,121.79Z"/><path class="cls-2" d="M176.81,118.12v7.38h-1.24l-.21-1h-.09a1.88,1.88,0,0,1-.59.63,2.56,2.56,0,0,1-.8.38,3.46,3.46,0,0,1-.92.12,3.29,3.29,0,0,1-1.43-.28,2,2,0,0,1-.9-.88,3.23,3.23,0,0,1-.31-1.53v-4.82h1.57v4.53a1.94,1.94,0,0,0,.35,1.28,1.3,1.3,0,0,0,1.09.43,2,2,0,0,0,1.13-.29,1.63,1.63,0,0,0,.6-.87,4.77,4.77,0,0,0,.17-1.41v-3.67Z"/><path class="cls-2" d="M184,123.39a2,2,0,0,1-.35,1.23,2.21,2.21,0,0,1-1,.76,4.7,4.7,0,0,1-1.65.25,7.2,7.2,0,0,1-1.33-.11,4.16,4.16,0,0,1-1-.34v-1.35a6.76,6.76,0,0,0,1.18.43,4.7,4.7,0,0,0,1.24.18,2,2,0,0,0,1.12-.24.79.79,0,0,0,.34-.66.71.71,0,0,0-.14-.42,1.52,1.52,0,0,0-.51-.4,11.36,11.36,0,0,0-1.08-.49,7.72,7.72,0,0,1-1.18-.56,2.07,2.07,0,0,1-.73-.67,2,2,0,0,1-.24-1,1.69,1.69,0,0,1,.77-1.49,3.72,3.72,0,0,1,2.06-.51,5.84,5.84,0,0,1,1.28.14,6.62,6.62,0,0,1,1.19.39l-.5,1.18a10,10,0,0,0-1-.36,3.58,3.58,0,0,0-1-.14,1.91,1.91,0,0,0-.93.18.59.59,0,0,0-.31.54.67.67,0,0,0,.15.44,1.61,1.61,0,0,0,.53.36c.25.12.6.26,1.05.44a8.81,8.81,0,0,1,1.14.53,2.25,2.25,0,0,1,.75.68A1.89,1.89,0,0,1,184,123.39Z"/><path class="cls-2" d="M192,124.37a3.08,3.08,0,0,0,.61-.06c.2,0,.38-.09.55-.14v1.19a3.57,3.57,0,0,1-.68.19,4.74,4.74,0,0,1-.86.08,2.87,2.87,0,0,1-1.12-.21,1.64,1.64,0,0,1-.8-.72,3,3,0,0,1-.29-1.42v-4h-1v-.7l1.08-.55.52-1.58h1v1.64h2.12v1.19H191v4a1.14,1.14,0,0,0,.28.83A1,1,0,0,0,192,124.37Z"/><path class="cls-2" d="M198.37,118l.41,0,.38,0-.15,1.47a1.39,1.39,0,0,0-.34-.06l-.36,0a2.36,2.36,0,0,0-.8.14,2,2,0,0,0-.68.41,1.88,1.88,0,0,0-.45.69,2.39,2.39,0,0,0-.17,1v3.86h-1.57v-7.38h1.22l.21,1.3h.08a3.39,3.39,0,0,1,.54-.72,2.59,2.59,0,0,1,.75-.52A2.25,2.25,0,0,1,198.37,118Z"/><path class="cls-2" d="M207.06,121.79a5,5,0,0,1-.24,1.63,3.21,3.21,0,0,1-.7,1.21,3.16,3.16,0,0,1-1.11.75,4,4,0,0,1-1.46.25,3.7,3.7,0,0,1-1.39-.25,3.21,3.21,0,0,1-1.1-.75,3.37,3.37,0,0,1-.71-1.21,4.76,4.76,0,0,1-.26-1.63,4.52,4.52,0,0,1,.43-2.07,2.91,2.91,0,0,1,1.21-1.29,3.7,3.7,0,0,1,1.87-.45,3.54,3.54,0,0,1,1.8.45,3,3,0,0,1,1.22,1.3A4.45,4.45,0,0,1,207.06,121.79Zm-5.35,0a4.3,4.3,0,0,0,.19,1.38,1.75,1.75,0,0,0,3.35,0,4.28,4.28,0,0,0,.2-1.38,4.22,4.22,0,0,0-.2-1.37,1.77,1.77,0,0,0-.6-.86,1.89,1.89,0,0,0-1.08-.29,1.59,1.59,0,0,0-1.42.65A3.38,3.38,0,0,0,201.71,121.79Z"/><path class="cls-2" d="M215.29,118.12v7.38h-1.23l-.22-1h-.08a2,2,0,0,1-.6.63,2.46,2.46,0,0,1-.8.38,3.46,3.46,0,0,1-.92.12,3.29,3.29,0,0,1-1.43-.28,2,2,0,0,1-.9-.88,3.23,3.23,0,0,1-.31-1.53v-4.82h1.57v4.53a2,2,0,0,0,.35,1.28,1.31,1.31,0,0,0,1.09.43,2,2,0,0,0,1.13-.29,1.63,1.63,0,0,0,.6-.87,4.74,4.74,0,0,0,.18-1.41v-3.67Z"/><path class="cls-2" d="M219.21,125.5l-2.8-7.38h1.66l1.52,4.33c.1.28.18.58.26.9a5.83,5.83,0,0,1,.17.8h0c0-.23.1-.5.18-.82s.18-.61.28-.88l1.52-4.33h1.65l-2.81,7.38Z"/><path class="cls-2" d="M231.35,121.79a5,5,0,0,1-.24,1.63,3.21,3.21,0,0,1-.7,1.21,3,3,0,0,1-1.1.75,4,4,0,0,1-1.46.25,3.75,3.75,0,0,1-1.4-.25,3.17,3.17,0,0,1-1.09-.75,3.39,3.39,0,0,1-.72-1.21,4.77,4.77,0,0,1-.25-1.63,4.66,4.66,0,0,1,.42-2.07,3,3,0,0,1,1.21-1.29,3.7,3.7,0,0,1,1.87-.45,3.54,3.54,0,0,1,1.8.45,3,3,0,0,1,1.22,1.3A4.33,4.33,0,0,1,231.35,121.79Zm-5.35,0a4.28,4.28,0,0,0,.2,1.38,1.73,1.73,0,0,0,.61.88,1.75,1.75,0,0,0,1.06.3,1.61,1.61,0,0,0,1.68-1.18,4.6,4.6,0,0,0,.19-1.38,4.53,4.53,0,0,0-.19-1.37,1.78,1.78,0,0,0-.61-.86,1.85,1.85,0,0,0-1.07-.29,1.58,1.58,0,0,0-1.42.65A3.29,3.29,0,0,0,226,121.79Z"/><path class="cls-2" d="M237,118a2.37,2.37,0,0,1,2.64,2.71v4.81h-1.57V121a2,2,0,0,0-.35-1.29,1.33,1.33,0,0,0-1.1-.43,1.63,1.63,0,0,0-1.49.66,3.69,3.69,0,0,0-.41,1.91v3.67h-1.57v-7.38h1.22l.22,1h.09a2.27,2.27,0,0,1,.59-.64,2.78,2.78,0,0,1,.8-.37A3.22,3.22,0,0,1,237,118Z"/><path class="cls-2" d="M246.78,123.39a2.1,2.1,0,0,1-.35,1.23,2.27,2.27,0,0,1-1,.76,4.72,4.72,0,0,1-1.66.25,7.28,7.28,0,0,1-1.33-.11,4.16,4.16,0,0,1-1-.34v-1.35a6.88,6.88,0,0,0,1.19.43,4.65,4.65,0,0,0,1.24.18,2,2,0,0,0,1.11-.24.77.77,0,0,0,.34-.66.65.65,0,0,0-.14-.42,1.57,1.57,0,0,0-.5-.4c-.25-.13-.61-.3-1.08-.49a7.72,7.72,0,0,1-1.18-.56,2,2,0,0,1-.73-.67,1.88,1.88,0,0,1-.25-1,1.67,1.67,0,0,1,.78-1.49,3.68,3.68,0,0,1,2.05-.51,5.86,5.86,0,0,1,1.29.14,6.52,6.52,0,0,1,1.18.39l-.49,1.18a10.18,10.18,0,0,0-1-.36,3.49,3.49,0,0,0-1-.14,1.9,1.9,0,0,0-.92.18.6.6,0,0,0-.32.54.63.63,0,0,0,.16.44,1.54,1.54,0,0,0,.52.36c.26.12.61.26,1,.44a9,9,0,0,1,1.15.53,2.13,2.13,0,0,1,.74.68A1.89,1.89,0,0,1,246.78,123.39Z"/><path class="cls-3" d="M113.41,92.3c0-14.14-24.55-37.23-54.83-41.68s-54.84,21.56-54.84,68c0,22.24,6.14,42.28,16.06,50.1,9.92,8.37,23.63,4.53,38.78-8.42s28.85-29.08,38.77-40.55C107.28,107.72,113.41,100.34,113.41,92.3Z"/><path class="cls-4" d="M58.58,50.61a78.17,78.17,0,0,1,28.23,9.83c10.3,6,18.33,13.67,22.77,20.84,2.44,4,3.8,7.76,3.82,11.09,0,6.92-4.42,13.38-11.93,22.72-1.23,1.53-2.53,3.16-3.94,4.85-4.48,5.36-9.89,11.59-15.82,18.06a250.61,250.61,0,0,1-23.1,22.44c-7.8,6.51-15.18,10.61-21.88,12a19.58,19.58,0,0,1-17.07-4c-9.78-7.94-16-27.7-16-49.79a112.89,112.89,0,0,1,1.11-15.91c2.46-17.49,8.9-31.2,18-40.22A41.23,41.23,0,0,1,58.58,50.61Z"/><path class="cls-5" d="M58.58,50.61a77,77,0,0,1,28.3,9.72c10.28,6,18.26,13.81,22.67,21,2.43,4,3.79,7.78,3.83,11.13.07,6.93-4.31,13.42-11.76,22.81-1.23,1.54-2.52,3.18-3.92,4.88-4.46,5.39-9.86,11.66-15.82,18.13a231.94,231.94,0,0,1-23.24,22.31c-7.85,6.4-15.26,10.37-22,11.66a20,20,0,0,1-17.15-4.09c-9.75-7.91-16-27.54-16-49.48a107.68,107.68,0,0,1,1.18-15.88c2.51-17.39,8.94-31.13,18-40.19A41.5,41.5,0,0,1,58.58,50.61Z"/><path class="cls-6" d="M58.58,50.6a75.4,75.4,0,0,1,28.36,9.63c10.28,6,18.19,13.94,22.58,21.14,2.41,4,3.79,7.79,3.85,11.15.09,7-4.21,13.47-11.6,22.91-1.22,1.55-2.5,3.2-3.9,4.91-4.44,5.42-9.84,11.73-15.81,18.21a217.73,217.73,0,0,1-23.39,22.17c-7.91,6.3-15.34,10.13-22.09,11.35a20.48,20.48,0,0,1-17.21-4.21C9.63,160,3.43,140.48,3.44,118.69a104.36,104.36,0,0,1,1.25-15.85c2.56-17.28,9-31,18.12-40.14C32.52,53,45,48.9,58.58,50.6Z"/><path class="cls-7" d="M58.58,50.6A73.9,73.9,0,0,1,87,60.12c10.27,6.06,18.12,14.09,22.48,21.29,2.4,4,3.78,7.81,3.86,11.19.13,7-4.11,13.51-11.43,23-1.21,1.56-2.48,3.22-3.88,4.94-4.41,5.46-9.81,11.8-15.81,18.28a203.39,203.39,0,0,1-23.53,22c-8,6.19-15.42,9.91-22.19,11a20.88,20.88,0,0,1-17.28-4.32c-9.72-7.83-15.9-27.22-15.89-48.85a100.06,100.06,0,0,1,1.32-15.83c2.61-17.17,9-31,18.19-40.1C32.59,53,45,49,58.58,50.6Z"/><path class="cls-8" d="M58.58,50.59A72.53,72.53,0,0,1,87.08,60c10.26,6.1,18,14.23,22.38,21.45,2.39,4,3.78,7.82,3.88,11.22.15,7-4,13.54-11.27,23.09-1.2,1.57-2.47,3.23-3.85,5-4.4,5.5-9.8,11.88-15.81,18.36A191.59,191.59,0,0,1,58.73,161c-8,6.09-15.5,9.67-22.29,10.71a21.4,21.4,0,0,1-17.36-4.42c-9.7-7.79-15.86-27.06-15.84-48.54A95.77,95.77,0,0,1,4.63,103C7.29,85.88,13.7,72.07,22.9,62.89,32.69,53.11,45.08,49.09,58.58,50.59Z"/><path class="cls-9" d="M58.58,50.59a70.75,70.75,0,0,1,28.56,9.32c10.26,6.12,18,14.36,22.29,21.6,2.38,4,3.77,7.83,3.89,11.24.19,7-3.9,13.59-11.11,23.19-1.18,1.58-2.44,3.25-3.82,5-4.38,5.53-9.77,11.95-15.81,18.44a179.5,179.5,0,0,1-23.81,21.77c-8.07,6-15.59,9.43-22.41,10.39A21.8,21.8,0,0,1,18.94,167c-9.68-7.75-15.82-26.9-15.8-48.23A93.11,93.11,0,0,1,4.59,103c2.72-17,9.12-30.79,18.35-40C32.76,53.17,45.13,49.19,58.58,50.59Z"/><path class="cls-10" d="M58.58,50.58A69.64,69.64,0,0,1,87.21,59.8a65.62,65.62,0,0,1,22.2,21.75c2.35,4,3.75,7.84,3.9,11.28.22,7-3.8,13.63-11,23.27-1.17,1.59-2.43,3.28-3.8,5-4.36,5.57-9.75,12-15.8,18.51a170.18,170.18,0,0,1-24,21.64c-8.13,5.89-15.67,9.2-22.51,10.08a22.36,22.36,0,0,1-17.49-4.65C9.13,159,3,140,3.05,118.8a89.65,89.65,0,0,1,1.51-15.75C7.33,86.2,13.72,72.34,23,63.08,32.84,53.22,45.18,49.28,58.58,50.58Z"/><path class="cls-11" d="M58.58,50.58A68.2,68.2,0,0,1,87.27,59.7a65.55,65.55,0,0,1,22.11,21.9c2.34,4,3.75,7.85,3.91,11.31.25,7-3.69,13.67-10.78,23.36-1.17,1.6-2.41,3.3-3.78,5.06-4.34,5.6-9.72,12.09-15.8,18.59a161.13,161.13,0,0,1-24.1,21.5c-8.18,5.79-15.75,9-22.61,9.76a22.87,22.87,0,0,1-17.57-4.75C9,158.75,2.92,139.85,3,118.82a86.18,86.18,0,0,1,1.58-15.71C7.35,86.36,13.73,72.48,23,63.17,32.92,53.27,45.23,49.38,58.58,50.58Z"/><path class="cls-12" d="M58.59,50.57a67.18,67.18,0,0,1,28.75,9,65.53,65.53,0,0,1,22,22c2.33,4,3.74,7.87,3.92,11.34.29,7-3.58,13.72-10.61,23.46-1.16,1.61-2.4,3.31-3.75,5.09-4.33,5.63-9.71,12.16-15.8,18.66a153.55,153.55,0,0,1-24.25,21.37C50.62,167.25,43,170.29,36.14,171a23.38,23.38,0,0,1-17.63-4.86c-9.63-7.64-15.7-26.42-15.66-47.29A83.15,83.15,0,0,1,4.5,103.16c2.87-16.64,9.24-30.55,18.57-39.89C33,53.33,45.28,49.48,58.59,50.57Z"/><path class="cls-13" d="M58.59,50.57A65.78,65.78,0,0,1,87.4,59.48a65.4,65.4,0,0,1,21.92,22.21c2.31,4,3.74,7.88,3.94,11.37.32,7-3.48,13.76-10.45,23.55-1.15,1.62-2.38,3.33-3.73,5.11a237.21,237.21,0,0,1-15.8,18.75A146.57,146.57,0,0,1,58.89,161.7c-8.29,5.59-15.91,8.49-22.82,9.13a23.9,23.9,0,0,1-17.7-5c-9.61-7.59-15.66-26.25-15.62-47a80.12,80.12,0,0,1,1.72-15.65c2.92-16.54,9.28-30.47,18.64-39.85C33.07,53.38,45.33,49.57,58.59,50.57Z"/><path class="cls-14" d="M58.59,50.56a64.72,64.72,0,0,1,28.88,8.82,65.21,65.21,0,0,1,21.82,22.36,27.14,27.14,0,0,1,3.95,11.39c.35,7-3.37,13.81-10.28,23.65-1.14,1.63-2.36,3.35-3.71,5.14a222.26,222.26,0,0,1-15.79,18.82,140.19,140.19,0,0,1-24.54,21.1c-8.35,5.48-16,8.25-22.92,8.81a24.52,24.52,0,0,1-17.78-5.09C8.63,158,2.61,139.47,2.65,118.9a78.94,78.94,0,0,1,1.79-15.63c3-16.43,9.33-30.39,18.72-39.81C33.15,53.43,45.37,49.67,58.59,50.56Z"/><path class="cls-15" d="M58.59,50.55c10,.61,20.59,3.55,29,8.72a65.3,65.3,0,0,1,21.72,22.51,27.73,27.73,0,0,1,4,11.43c.38,7.05-3.27,13.85-10.12,23.74-1.13,1.63-2.35,3.37-3.69,5.17A210.57,210.57,0,0,1,83.63,141,134.34,134.34,0,0,1,59,162c-8.4,5.38-16.07,8-23,8.49a25.06,25.06,0,0,1-17.84-5.19C8.51,157.76,2.5,139.34,2.55,118.92a76.28,76.28,0,0,1,1.86-15.6C7.43,87,13.78,73,23.2,63.56,33.23,53.49,45.42,49.77,58.59,50.55Z"/><path class="cls-16" d="M58.59,50.55c10,.52,20.64,3.41,29,8.62a65.07,65.07,0,0,1,21.63,22.66,28.37,28.37,0,0,1,4,11.46c.41,7.06-3.16,13.89-9.95,23.83-1.12,1.64-2.33,3.39-3.66,5.2a203.48,203.48,0,0,1-15.79,19A128.58,128.58,0,0,1,59,162.12c-8.47,5.28-16.16,7.78-23.14,8.17A25.63,25.63,0,0,1,17.94,165C8.38,157.51,2.4,139.22,2.45,119a74.44,74.44,0,0,1,1.92-15.57c3.08-16.22,9.42-30.23,18.88-39.73C33.31,53.54,45.47,49.86,58.59,50.55Z"/><path class="cls-17" d="M58.59,50.54c10,.45,20.7,3.27,29.08,8.52a65.28,65.28,0,0,1,21.54,22.81,29.35,29.35,0,0,1,4,11.49c.44,7.08-3.06,13.94-9.79,23.93-1.12,1.65-2.32,3.4-3.64,5.22A194.14,194.14,0,0,1,84,141.57a124.24,124.24,0,0,1-25,20.69c-8.52,5.18-16.24,7.54-23.25,7.86a26.35,26.35,0,0,1-18-5.42C8.26,157.26,2.3,139.09,2.35,119a72.13,72.13,0,0,1,2-15.54c3.13-16.1,9.46-30.14,19-39.68C33.38,53.59,45.52,50,58.59,50.54Z"/><path class="cls-18" d="M58.59,50.54c10,.37,20.75,3.13,29.14,8.41a65.18,65.18,0,0,1,21.45,23,29.66,29.66,0,0,1,4,11.52c.48,7.08-3,14-9.62,24-1.11,1.66-2.3,3.42-3.62,5.25a184.32,184.32,0,0,1-15.78,19.13A119.35,119.35,0,0,1,59.05,162.4c-8.58,5.07-16.33,7.31-23.35,7.54a27,27,0,0,1-18.05-5.52C8.14,157,2.2,139,2.25,119a70.55,70.55,0,0,1,2.06-15.52c3.18-16,9.5-30.06,19-39.64C33.46,53.65,45.57,50.05,58.59,50.54Z"/><path class="cls-19" d="M58.59,50.53c10,.3,20.81,3,29.21,8.32A65.25,65.25,0,0,1,109.15,82a30.7,30.7,0,0,1,4,11.55c.5,7.1-2.85,14-9.46,24.12-1.1,1.67-2.28,3.44-3.6,5.28a178.7,178.7,0,0,1-15.77,19.21,115.36,115.36,0,0,1-25.26,20.42c-8.63,5-16.41,7.07-23.45,7.22a27.6,27.6,0,0,1-18.12-5.63C8,156.76,2.09,138.84,2.15,119a68.29,68.29,0,0,1,2.13-15.48c3.23-15.89,9.54-30,19.1-39.6C33.54,53.7,45.63,50.15,58.59,50.53Z"/><path class="cls-20" d="M58.59,50.53a54,54,0,0,1,29.27,8.21C98,65.22,105.07,74.63,109.12,82a31.09,31.09,0,0,1,4,11.58c.54,7.11-2.74,14.07-9.3,24.21-1.08,1.68-2.26,3.46-3.56,5.31a170.85,170.85,0,0,1-15.78,19.28,111.36,111.36,0,0,1-25.4,20.29c-8.69,4.87-16.49,6.84-23.56,6.9a28.29,28.29,0,0,1-18.19-5.74C7.89,156.51,2,138.71,2.06,119.05a65.81,65.81,0,0,1,2.19-15.46C7.53,87.81,13.83,73.69,23.42,64,33.62,53.75,45.68,50.88,58.59,50.53Z"/><path class="cls-21" d="M58.6,50.52a53,53,0,0,1,29.33,8.12c10.17,6.51,17.13,16,21.16,23.42a31.89,31.89,0,0,1,4,11.61c.56,7.12-2.64,14.11-9.14,24.3-1.07,1.68-2.24,3.47-3.54,5.34a164.23,164.23,0,0,1-15.77,19.35,107.72,107.72,0,0,1-25.55,20.17c-8.74,4.75-16.57,6.59-23.66,6.58-6.83,0-13-1.77-18.26-5.85-9.45-7.3-15.33-25-15.26-44.49a64,64,0,0,1,2.26-15.43C7.55,88,13.84,73.83,23.46,64.13,33.7,53.81,45.73,51,58.6,50.52Z"/><path class="cls-22" d="M58.6,50.52a52,52,0,0,1,29.4,8c10.16,6.54,17.06,16.16,21.06,23.57a32.69,32.69,0,0,1,4.06,11.64c.6,7.14-2.53,14.16-9,24.4-1.06,1.69-2.23,3.49-3.52,5.36a157.47,157.47,0,0,1-15.77,19.44c-7.52,7.9-16.52,15.18-25.69,20-8.8,4.65-16.65,6.35-23.76,6.26-6.86-.09-13-1.87-18.34-6C7.64,156,1.78,138.46,1.86,119.1a62.5,62.5,0,0,1,2.32-15.4C7.57,88.13,13.86,74,23.51,64.22,33.77,53.86,45.79,51.14,58.6,50.52Z"/><path class="cls-23" d="M58.6,50.51a51.17,51.17,0,0,1,29.46,7.91c10.16,6.58,17,16.31,21,23.73a33.32,33.32,0,0,1,4.07,11.67c.64,7.14-2.42,14.2-8.8,24.49-1.06,1.7-2.21,3.51-3.5,5.39A152.11,152.11,0,0,1,85,143.21c-7.56,7.92-16.62,15.17-25.83,19.9-8.87,4.55-16.74,6.12-23.88,5.94-6.88-.17-13.06-2-18.4-6.07-9.41-7.21-15.25-24.65-15.17-43.86a61.29,61.29,0,0,1,2.39-15.37c3.43-15.46,9.72-29.65,19.4-39.43C33.85,53.91,45.85,51.26,58.6,50.51Z"/><path class="cls-24" d="M58.6,50.5a50.36,50.36,0,0,1,29.53,7.82c10.15,6.6,16.92,16.44,20.88,23.87a34.54,34.54,0,0,1,4.08,11.7c.66,7.16-2.32,14.25-8.64,24.58-1,1.72-2.19,3.54-3.47,5.43a150.91,150.91,0,0,1-15.77,19.59c-7.6,7.91-16.71,15.14-26,19.76-8.92,4.44-16.82,5.88-24,5.62-6.91-.24-13.11-2.08-18.47-6.17-9.4-7.18-15.21-24.49-15.13-43.55a59.54,59.54,0,0,1,2.46-15.34C7.6,88.45,13.88,74.23,23.6,64.41,33.93,54,45.91,51.39,58.6,50.5Z"/><path class="cls-25" d="M58.6,50.5a49.41,49.41,0,0,1,29.59,7.71C98.33,64.85,105,74.79,109,82.24A35,35,0,0,1,113.07,94c.7,7.17-2.21,14.29-8.47,24.67-1,1.73-2.18,3.55-3.45,5.46a145.9,145.9,0,0,1-15.76,19.66c-7.63,7.93-16.81,15.12-26.12,19.63-9,4.34-16.9,5.64-24.09,5.31-6.93-.33-13.15-2.19-18.54-6.29-9.37-7.14-15.17-24.33-15.08-43.24a58,58,0,0,1,2.53-15.31c3.53-15.25,9.8-29.49,19.55-39.35C34,54,46,51.52,58.6,50.5Z"/><path class="cls-26" d="M58.6,50.49a48.67,48.67,0,0,1,29.66,7.62C98.39,64.78,105,74.82,109,82.28a36.25,36.25,0,0,1,4.11,11.77c.72,7.18-2.11,14.33-8.31,24.76-1,1.73-2.16,3.57-3.43,5.48A140.89,140.89,0,0,1,85.56,144c-7.65,7.94-16.9,15.1-26.26,19.49a49,49,0,0,1-24.19,5c-7-.4-13.21-2.3-18.61-6.4C7.15,155,1.37,138,1.46,119.2a56.59,56.59,0,0,1,2.6-15.29C7.64,88.77,13.9,74.5,23.68,64.6,34.09,54.07,46,51.64,58.6,50.49Z"/><path class="cls-27" d="M58.6,50.49A47.85,47.85,0,0,1,88.32,58c10.13,6.7,16.71,16.85,20.6,24.33A36.86,36.86,0,0,1,113,94.12c.76,7.2-2,14.38-8.14,24.86-1,1.74-2.15,3.59-3.41,5.51a136.61,136.61,0,0,1-15.75,19.82c-7.69,8-17,15.08-26.41,19.36A49.1,49.1,0,0,1,35,168.34c-7-.48-13.26-2.4-18.68-6.51-9.34-7.06-15.09-24-15-42.61A55.45,55.45,0,0,1,4,104c3.63-15,9.88-29.33,19.7-39.27C34.16,54.13,46.1,51.76,58.6,50.49Z"/><path class="cls-28" d="M58.6,50.48c9.79-.4,21.29,1.76,29.79,7.41,10.12,6.74,16.65,17,20.5,24.49A37.83,37.83,0,0,1,113,94.2c.79,7.2-1.9,14.41-8,25-1,1.75-2.13,3.61-3.38,5.54a132.87,132.87,0,0,1-15.76,19.9c-7.71,8-17.09,15-26.55,19.22A49.17,49.17,0,0,1,35,168.16c-7-.56-13.3-2.5-18.75-6.61-9.31-7-15-23.85-14.95-42.3A54.13,54.13,0,0,1,4,104c3.68-14.93,9.92-29.25,19.77-39.23C34.24,54.18,46.09,51,58.6,50.48Z"/><path class="cls-29" d="M58.6,50.48C68.37,50,80,52.1,88.45,57.79,98.57,64.55,105,74.91,108.86,82.42A38.63,38.63,0,0,1,113,94.27c.82,7.22-1.79,14.46-7.81,25-1,1.76-2.12,3.63-3.36,5.57a129.73,129.73,0,0,1-15.75,20c-7.75,8-17.19,15-26.7,19.09a49.36,49.36,0,0,1-24.5,4c-7-.64-13.35-2.62-18.82-6.73-9.29-7-15-23.69-14.91-42A53.15,53.15,0,0,1,4,104.07c3.74-14.82,10-29.16,19.85-39.18C34.32,54.23,46.15,51.09,58.6,50.48Z"/><path class="cls-30" d="M58.6,50.47C68.36,49.92,80,52,88.52,57.68c10.11,6.8,16.51,17.26,20.31,24.79A39.76,39.76,0,0,1,113,94.35c.85,7.23-1.69,14.5-7.66,25.14-1,1.77-2.09,3.64-3.33,5.6a126.21,126.21,0,0,1-15.75,20c-7.77,8-17.28,15-26.83,19a49.51,49.51,0,0,1-24.61,3.72c-7.06-.72-13.41-2.72-18.89-6.84C6.66,154,1,137.45,1.07,119.3a51.8,51.8,0,0,1,2.86-15.17C7.72,89.41,13.94,75,23.86,65,34.4,54.29,46.2,51.18,58.6,50.47Z"/><path class="cls-31" d="M58.61,50.47c9.73-.64,21.45,1.34,30,7.11C98.69,64.4,105,75,108.8,82.51A40.77,40.77,0,0,1,113,94.43c.89,7.24-1.58,14.54-7.49,25.23-1,1.78-2.07,3.66-3.31,5.62a122.63,122.63,0,0,1-15.74,20.13c-7.8,8-17.38,15-27,18.82a49.62,49.62,0,0,1-24.72,3.4c-7.08-.79-13.45-2.82-19-6.94C6.53,153.77.86,137.32,1,119.33c0-5.48,1.47-10.57,2.93-15.15,3.84-14.61,10.06-29,20-39.1C34.47,54.34,46.25,51.27,58.61,50.47Z"/><path class="cls-32" d="M58.61,50.46c9.71-.71,21.5,1.21,30,7C98.75,64.32,105,75,108.78,82.56A42.32,42.32,0,0,1,113,94.5c.91,7.25-1.48,14.59-7.33,25.33-1,1.78-2.06,3.68-3.28,5.65a120.65,120.65,0,0,1-15.74,20.2c-7.84,8-17.48,15-27.13,18.69a49.76,49.76,0,0,1-24.82,3.08c-7.11-.87-13.5-2.93-19-7C6.41,153.52.75,137.2.87,119.35c0-5.47,1.51-10.55,3-15.12C7.76,89.73,14,75.31,24,65.17,34.55,54.39,46.31,51.36,58.61,50.46Z"/><path class="cls-33" d="M58.61,50.46c9.7-.8,21.55,1.07,30.11,6.9C98.8,64.25,105,75,108.75,82.61a43.27,43.27,0,0,1,4.2,12c1,7.26-1.37,14.63-7.16,25.42-1,1.79-2,3.7-3.26,5.68A117.69,117.69,0,0,1,86.79,146c-7.86,8-17.57,14.95-27.27,18.55a50,50,0,0,1-24.92,2.77c-7.14-.95-13.55-3-19.1-7.17C6.29,153.27.65,137.07.77,119.38c0-5.47,1.55-10.54,3.07-15.09C7.78,89.89,14,75.45,24,65.27,34.63,54.45,46.36,51.45,58.61,50.46Z"/><path class="cls-34" d="M58.61,50.45c9.68-.87,21.61.93,30.17,6.81C98.86,64.17,105,75.07,108.72,82.65a44.15,44.15,0,0,1,4.21,12c1,7.28-1.26,14.68-7,25.52-1,1.8-2,3.71-3.24,5.71A114.51,114.51,0,0,1,87,146.23c-7.9,8.06-17.67,14.93-27.42,18.42a50.32,50.32,0,0,1-25,2.45c-7.16-1-13.59-3.14-19.17-7.27C6.16,153,.55,136.94.67,119.4c0-5.46,1.59-10.52,3.14-15.06C7.8,90.06,14,75.58,24,65.36,34.71,54.5,46.41,51.55,58.61,50.45Z"/><path class="cls-35" d="M58.61,50.44c9.67-.95,21.66.8,30.24,6.71C98.92,64.1,105,75.1,108.69,82.7a45.57,45.57,0,0,1,4.23,12c1,7.29-1.16,14.72-6.83,25.61-1,1.81-2,3.73-3.22,5.73a111.6,111.6,0,0,1-15.73,20.44c-7.92,8.06-17.76,14.9-27.56,18.28a50.5,50.5,0,0,1-25.13,2.13c-7.19-1.11-13.65-3.25-19.24-7.38C6,152.76.45,136.82.57,119.43c.05-5.46,1.63-10.51,3.2-15C7.82,90.22,14,75.72,24.08,65.46,34.79,54.55,46.47,51.64,58.61,50.44Z"/><path class="cls-36" d="M58.61,50.44c9.65-1,21.72.66,30.3,6.61C99,64,105,75.14,108.66,82.74a46.83,46.83,0,0,1,4.24,12.07c1,7.3-1.05,14.76-6.66,25.7-.94,1.82-2,3.75-3.19,5.76a110.38,110.38,0,0,1-15.73,20.51c-7.95,8.08-17.86,14.89-27.71,18.15a50.85,50.85,0,0,1-25.24,1.82c-7.21-1.19-13.69-3.36-19.3-7.5C5.92,152.51.34,136.69.47,119.45c.05-5.45,1.67-10.5,3.27-15C7.84,90.38,14,75.85,24.12,65.55,34.86,54.61,46.52,51.73,58.61,50.44Z"/><path class="cls-37" d="M58.61,50.43C68.25,49.32,80.38,51,89,56.94,99,64,105,75.17,108.63,82.79a48.46,48.46,0,0,1,4.26,12.09c1.07,7.31-1,14.81-6.5,25.8-.93,1.82-2,3.77-3.17,5.79a108.09,108.09,0,0,1-15.73,20.59c-8,8.09-17.95,14.86-27.84,18a51.1,51.1,0,0,1-25.35,1.5c-7.24-1.27-13.74-3.47-19.38-7.61C5.8,152.26.24,136.56.37,119.48c0-5.45,1.71-10.49,3.34-15C7.86,90.54,14,76,24.16,65.65,34.94,54.66,46.58,51.82,58.61,50.43Z"/><path class="cls-38" d="M58.61,50.43c9.62-1.19,21.83.38,30.44,6.41,10,7,16,18.36,19.55,26A49.85,49.85,0,0,1,112.87,95c1.11,7.32-.85,14.85-6.33,25.88-.92,1.84-2,3.8-3.15,5.83a105.8,105.8,0,0,1-15.72,20.66c-8,8.11-18,14.84-28,17.89a51.55,51.55,0,0,1-25.45,1.17C27,165,20.44,162.82,14.78,158.68,5.68,152,.14,136.44.27,119.5.32,114.06,2,109,3.68,104.56,7.88,90.7,14,76.12,24.21,65.74,35,54.71,46.63,51.91,58.61,50.43Z"/><path class="cls-39" d="M58.61,50.42c9.61-1.27,21.88.25,30.5,6.31,10,7.07,15.89,18.5,19.47,26.15A52.24,52.24,0,0,1,112.86,95c1.13,7.34-.75,14.9-6.17,26-.91,1.85-2,3.81-3.12,5.86a104.2,104.2,0,0,1-15.73,20.74c-8,8.12-18.14,14.81-28.13,17.75a51.82,51.82,0,0,1-25.56.85c-7.29-1.42-13.83-3.67-19.51-7.82C5.55,151.76,0,136.31.17,119.53c.06-5.44,1.79-10.46,3.48-14.92C7.9,90.86,14,76.26,24.25,65.84,35.1,54.77,46.69,52,58.61,50.42Z"/><path class="cls-40" d="M58.62,50.42c9.59-1.35,21.93.1,30.56,6.2,10,7.1,15.82,18.64,19.37,26.31a53.58,53.58,0,0,1,4.29,12.18c1.17,7.35-.64,14.94-6,26.07-.9,1.86-1.93,3.83-3.1,5.88A101.88,101.88,0,0,1,88,147.88C80,156,69.79,162.67,59.74,165.5a52.21,52.21,0,0,1-25.66.54c-7.32-1.51-13.88-3.79-19.59-7.94C5.43,151.51-.07,136.18.08,119.55c.05-5.43,1.82-10.44,3.54-14.89C7.92,91,14.06,76.39,24.29,65.94,35.17,54.82,46.74,52.09,58.62,50.42Z"/><path class="cls-41" d="M58.62,50.41c9.57-1.43,22,0,30.62,6.11C99.27,63.64,105,75.3,108.52,83a55.29,55.29,0,0,1,4.31,12.22c1.2,7.36-.54,15-5.85,26.16-.89,1.87-1.9,3.85-3.07,5.91a99.93,99.93,0,0,1-15.72,20.9c-8.09,8.14-18.32,14.77-28.42,17.48-9.9,2.66-18.24,1.84-25.76.22-7.35-1.58-13.94-3.89-19.66-8C5.31,151.26-.17,136.06,0,119.58c.05-5.43,1.86-10.43,3.61-14.86C7.94,91.18,14.07,76.53,24.34,66,35.25,54.87,46.8,52.17,58.62,50.41Z"/><path class="cls-42" d="M58.62,50.41c9.56-1.51,22-.17,30.69,6C99.33,63.57,105,75.33,108.49,83a56.69,56.69,0,0,1,4.32,12.24c1.23,7.37-.43,15-5.68,26.26-.88,1.88-1.89,3.87-3,5.94a98.14,98.14,0,0,1-15.71,21C80.24,156.59,70,163.18,59.8,165.78c-10,2.55-18.32,1.6-25.87-.1-7.37-1.66-14-4-19.72-8.15C5.19,151-.27,135.93-.12,119.6c0-5.42,1.9-10.41,3.67-14.83C8,91.34,14.08,76.66,24.38,66.13,35.33,54.93,46.86,52.26,58.62,50.41Z"/><path class="cls-43" d="M58.62,50.4c9.54-1.59,22.09-.31,30.75,5.91,10,7.18,15.61,19,19.09,26.75a58.5,58.5,0,0,1,4.33,12.28c1.27,7.38-.32,15.07-5.51,26.35-.87,1.88-1.87,3.89-3,6a96.75,96.75,0,0,1-15.72,21.05c-8.15,8.17-18.51,14.72-28.71,17.21-10,2.45-18.4,1.36-26-.42-7.4-1.74-14-4.1-19.8-8.26-9-6.48-14.44-21.43-14.28-37.61.06-5.42,1.94-10.41,3.74-14.81C8,91.5,14.09,76.8,24.43,66.22,35.41,55,46.91,52.35,58.62,50.4Z"/><path class="cls-44" d="M58.62,50.39c9.53-1.67,22.15-.44,30.82,5.81,10,7.21,15.54,19.19,19,26.91a61.13,61.13,0,0,1,4.35,12.3c1.29,7.4-.22,15.12-5.35,26.45-.86,1.89-1.86,3.9-3,6A95.14,95.14,0,0,1,88.72,149c-8.19,8.19-18.61,14.7-28.85,17.08-10.08,2.34-18.49,1.13-26.08-.73-7.43-1.82-14.08-4.21-19.87-8.37-9-6.45-14.4-21.28-14.24-37.31.06-5.4,2-10.39,3.81-14.77C8,91.66,14.1,76.93,24.47,66.32,35.49,55,47,52.44,58.62,50.39Z"/><path class="cls-45" d="M58.62,50.39c9.52-1.75,22.2-.59,30.89,5.7,10,7.25,15.47,19.34,18.89,27.06a63.2,63.2,0,0,1,4.36,12.34c1.33,7.41-.11,15.16-5.18,26.54-.85,1.9-1.84,3.92-3,6a93.27,93.27,0,0,1-15.7,21.2c-8.22,8.2-18.71,14.68-29,16.95s-18.58.89-26.19-1c-7.45-1.9-14.12-4.32-19.93-8.48-9-6.42-14.36-21.12-14.2-37,.06-5.4,2-10.38,3.88-14.75C8,91.82,14.11,77.07,24.51,66.41,35.56,55.09,47,52.53,58.62,50.39Z"/><path class="cls-46" d="M58.62,50.38c9.5-1.83,22.25-.72,30.95,5.61,10,7.27,15.4,19.47,18.81,27.21a65.75,65.75,0,0,1,4.37,12.37c1.36,7.41,0,15.2-5,26.63-.84,1.91-1.82,3.94-3,6a91.71,91.71,0,0,1-15.7,21.28c-8.24,8.21-18.8,14.65-29.14,16.81S41.27,167,33.64,165c-7.48-2-14.17-4.42-20-8.59C4.7,150-.69,135.43-.52,119.7c.06-5.39,2.07-10.36,4-14.72C8,92,14.12,77.2,24.56,66.51,35.64,55.14,47.08,52.61,58.62,50.38Z"/><path class="cls-47" d="M58.62,50.38c9.49-1.92,22.31-.86,31,5.5,10,7.3,15.33,19.61,18.71,27.37a68.68,68.68,0,0,1,4.38,12.39c1.39,7.43.1,15.25-4.85,26.73-.84,1.92-1.81,4-2.93,6.08a90.62,90.62,0,0,1-15.7,21.35C81,158,70.35,164.43,60,166.48s-18.74.41-26.4-1.69c-7.5-2-14.22-4.51-20.07-8.7C4.57,149.77-.79,135.3-.62,119.73c.07-5.39,2.11-10.35,4-14.69,4.65-12.9,10.73-27.7,21.2-38.44C35.72,55.19,47.14,52.7,58.62,50.38Z"/><path class="cls-48" d="M58.62,50.37c9.48-2,22.36-1,31.08,5.41,10,7.33,15.26,19.74,18.62,27.51a71.27,71.27,0,0,1,4.4,12.43c1.42,7.44.2,15.28-4.69,26.82-.83,1.93-1.79,4-2.91,6.11a89.18,89.18,0,0,1-15.7,21.43c-8.3,8.24-19,14.6-29.43,16.54s-18.82.17-26.5-2S19.22,160,13.35,155.81C4.44,149.52-.89,135.17-.72,119.75c.07-5.38,2.15-10.33,4.08-14.66C8.07,92.3,14.15,77.47,24.64,66.7,35.8,55.25,47.19,52.78,58.62,50.37Z"/><path class="cls-49" d="M58.62,50.37c9.46-2.08,22.42-1.14,31.15,5.3C99.74,63,105,75.55,108.29,83.34a74.08,74.08,0,0,1,4.41,12.45c1.45,7.46.31,15.33-4.52,26.92-.82,1.93-1.78,4-2.89,6.13A88.08,88.08,0,0,1,89.6,150.35c-8.34,8.26-19.09,14.58-29.58,16.41s-18.9-.06-26.6-2.32-14.32-4.73-20.22-8.92C4.32,149.26-1,135.05-.82,119.78c.07-5.38,2.19-10.32,4.15-14.63C8.09,92.46,14.16,77.61,24.69,66.79,35.88,55.3,47.25,52.87,58.62,50.37Z"/><path class="cls-50" d="M58.63,50.36c9.44-2.16,22.46-1.28,31.2,5.2,10,7.39,15.13,20,18.43,27.82a76.7,76.7,0,0,1,4.43,12.49c1.48,7.47.41,15.37-4.36,27-.81,1.94-1.76,4-2.87,6.16a86.82,86.82,0,0,1-15.69,21.59c-8.36,8.26-19.18,14.55-29.72,16.27s-19-.3-26.71-2.64-14.37-4.84-20.28-9C4.2,149-1.1,134.92-.91,119.81c.06-5.38,2.22-10.32,4.21-14.61C8.11,92.62,14.17,77.74,24.73,66.89,36,55.35,47.31,53,58.63,50.36Z"/><path class="cls-51" d="M58.63,50.36c9.43-2.25,22.52-1.42,31.27,5.1,10,7.42,15,20.16,18.33,28A80.32,80.32,0,0,1,112.67,96c1.52,7.47.52,15.41-4.2,27.1-.79,2-1.73,4-2.83,6.19A85.82,85.82,0,0,1,90,150.9c-8.4,8.28-19.28,14.54-29.86,16.14s-19.08-.54-26.82-3S18.85,159.14,12.91,155C4.08,148.76-1.2,134.79-1,119.83c.07-5.37,2.26-10.3,4.28-14.58C8.13,92.79,14.18,77.88,24.78,67,36,55.41,47.36,53,58.63,50.36Z"/><path class="cls-52" d="M58.63,50.35C68.05,48,81.2,48.8,90,55.35c10,7.45,15,20.3,18.24,28.13A83.49,83.49,0,0,1,112.66,96c1.54,7.49.62,15.46-4,27.19q-1.17,3-2.81,6.23a85.07,85.07,0,0,1-15.69,21.74c-8.42,8.29-19.37,14.51-30,16S41,166.4,33.2,163.91s-14.47-5.06-20.43-9.25C4,148.5-1.3,134.67-1.11,119.86c.07-5.37,2.3-10.29,4.35-14.55C8.15,93,14.19,78,24.82,67.08,36.11,55.46,47.42,53.12,58.63,50.35Z"/><path class="cls-53" d="M58.63,50.34C68,47.93,81.26,48.65,90,55.25c10,7.47,14.91,20.43,18.15,28.27a88.19,88.19,0,0,1,4.46,12.58c1.58,7.5.73,15.5-3.87,27.28-.78,2-1.71,4.07-2.79,6.25A83.71,83.71,0,0,1,90.3,151.45c-8.45,8.31-19.47,14.49-30.15,15.87s-19.24-1-27-3.59-14.51-5.16-20.49-9.36c-8.79-6.12-14-19.83-13.84-34.49.07-5.36,2.34-10.27,4.42-14.52,5-12.25,11-27.21,21.65-38.19C36.19,55.51,47.48,53.21,58.63,50.34Z"/><path class="cls-54" d="M58.63,50.34c9.39-2.5,22.68-1.83,31.47,4.8,9.94,7.51,14.84,20.57,18.05,28.43a92.36,92.36,0,0,1,4.47,12.6c1.62,7.52.84,15.55-3.7,27.38-.77,2-1.69,4.09-2.77,6.28a82.4,82.4,0,0,1-15.68,21.9c-8.48,8.32-19.56,14.46-30.29,15.73s-19.33-1.25-27.13-3.91-14.56-5.27-20.57-9.46c-8.76-6.09-14-19.67-13.79-34.18.07-5.36,2.38-10.26,4.49-14.5,5-12.14,11-27.13,21.73-38.14C36.27,55.57,47.53,53.29,58.63,50.34Z"/><path class="cls-55" d="M58.63,50.33c9.38-2.58,22.73-2,31.53,4.7,9.94,7.54,14.78,20.72,18,28.58a98.21,98.21,0,0,1,4.49,12.64c1.64,7.53,1,15.6-3.54,27.47-.75,2-1.67,4.11-2.74,6.31a81.76,81.76,0,0,1-15.68,22c-8.51,8.33-19.66,14.44-30.44,15.6S40.8,166.11,33,163.37,18.37,158,12.34,153.8C3.6,147.74-1.61,134.29-1.41,119.93c.07-5.35,2.42-10.24,4.55-14.46,5.07-12,11.08-27,21.81-38.11C36.34,55.62,47.59,53.37,58.63,50.33Z"/><path class="cls-56" d="M58.63,50.33c9.37-2.67,22.79-2.11,31.6,4.6,9.93,7.56,14.7,20.85,17.86,28.73a102.28,102.28,0,0,1,4.5,12.67c1.68,7.53,1.07,15.64-3.37,27.56-.75,2-1.66,4.13-2.72,6.34a80.35,80.35,0,0,1-15.68,22c-8.54,8.35-19.75,14.42-30.58,15.48S40.75,166,32.9,163.2s-14.65-5.49-20.7-9.69c-8.72-6-13.92-19.35-13.71-33.55.08-5.35,2.46-10.23,4.62-14.44C8.23,93.59,14.23,78.55,25,67.46,36.42,55.67,47.65,53.46,58.63,50.33Z"/><path class="cls-57" d="M58.63,50.32c9.35-2.75,22.84-2.25,31.66,4.5,9.93,7.6,14.64,21,17.77,28.88a108,108,0,0,1,4.52,12.7c1.7,7.55,1.18,15.69-3.21,27.66-.74,2-1.64,4.14-2.7,6.36A79.59,79.59,0,0,1,91,152.55c-8.57,8.36-19.85,14.39-30.73,15.34s-19.57-2-27.44-4.87-14.7-5.59-20.78-9.8C3.36,147.24-1.82,134-1.61,120c.08-5.34,2.5-10.22,4.69-14.41,5.17-11.82,11.17-26.88,22-38C36.5,55.73,47.71,53.54,58.63,50.32Z"/><path class="cls-58" d="M58.63,50.32c9.34-2.84,22.9-2.39,31.73,4.4,9.92,7.62,14.57,21.12,17.67,29a114.12,114.12,0,0,1,4.53,12.73c1.74,7.56,1.29,15.73-3,27.75-.73,2-1.63,4.16-2.68,6.39a78.43,78.43,0,0,1-15.66,22.2c-8.61,8.38-20,14.37-30.87,15.21s-19.67-2.22-27.56-5.19-14.74-5.7-20.84-9.9C3.24,147-1.92,133.91-1.71,120c.08-5.34,2.54-10.21,4.76-14.38,5.22-11.72,11.21-26.81,22-38C36.58,55.78,47.76,53.62,58.63,50.32Z"/><path class="cls-59" d="M58.63,50.31c9.33-2.92,22.95-2.53,31.79,4.3,9.92,7.65,14.5,21.27,17.58,29.19a121,121,0,0,1,4.55,12.75c1.77,7.58,1.39,15.78-2.88,27.85-.72,2-1.61,4.18-2.65,6.42A77.71,77.71,0,0,1,91.35,153.1c-8.63,8.39-20,14.33-31,15.07s-19.75-2.46-27.66-5.51-14.79-5.8-20.91-10C3.12,146.73-2,133.78-1.81,120-1.73,114.7.77,109.84,3,105.68,8.29,94.07,14.27,79,25.13,67.74,36.65,55.83,47.82,53.7,58.63,50.31Z"/><path class="cls-59" d="M58.64,50.31c9.31-3,23-2.67,31.85,4.19,9.9,7.68,14.43,21.41,17.48,29.34a128,128,0,0,1,4.56,12.79c1.8,7.58,1.5,15.82-2.71,27.94-.71,2-1.59,4.2-2.63,6.45a77,77,0,0,1-15.66,22.35c-8.66,8.4-20.14,14.31-31.16,14.94s-19.83-2.7-27.76-5.82-14.84-5.92-21-10.13C3,146.48-2.13,133.66-1.91,120.06c.09-5.33,2.62-10.18,4.9-14.32C8.31,94.23,14.28,79.1,25.17,67.84,36.73,55.89,47.88,53.78,58.64,50.31Z"/><path class="cls-60" d="M58.64,50.3c9.3-3.09,23-2.8,31.92,4.1,9.89,7.71,14.35,21.54,17.39,29.49,1.64,4.3,3.39,8.5,4.57,12.82,1.83,7.59,1.6,15.86-2.55,28-.7,2-1.58,4.22-2.61,6.48A76.05,76.05,0,0,1,91.7,153.65c-8.69,8.41-20.23,14.28-31.3,14.8s-19.91-2.93-27.87-6.14-14.88-6-21-10.23c-8.6-5.85-13.71-18.55-13.48-32,.08-5.32,2.66-10.16,5-14.29,5.37-11.4,11.34-26.56,22.26-37.86C36.81,55.94,47.93,53.86,58.64,50.3Z"/><path class="cls-61" d="M58.64,50.3c9.28-3.19,23.1-2.95,32,4C100.51,62,104.91,76,107.92,83.93c1.62,4.31,3.39,8.52,4.58,12.85,1.86,7.61,1.71,15.91-2.39,28.13a65.74,65.74,0,0,1-2.58,6.5,75.07,75.07,0,0,1-15.65,22.51c-8.72,8.43-20.33,14.26-31.45,14.67s-20-3.17-28-6.46S17.52,156,11.34,151.79C2.75,146-2.33,133.4-2.1,120.11c.08-5.32,2.7-10.15,5-14.27C8.34,94.55,14.3,79.37,25.26,68,36.89,56,48,53.94,58.64,50.3Z"/><path class="cls-62" d="M58.64,50.29c9.27-3.27,23.16-3.08,32.05,3.9C100.57,62,104.91,76,107.89,84c1.61,4.31,3.38,8.53,4.6,12.88,1.89,7.62,1.81,16-2.23,28.22a69.17,69.17,0,0,1-2.55,6.53A74.51,74.51,0,0,1,92.05,154.2c-8.75,8.44-20.42,14.23-31.59,14.53S40.38,165.32,32.39,162s-15-6.24-21.2-10.46C2.63,145.72-2.44,133.28-2.2,120.13-2.12,114.82.54,110,2.89,105.9,8.36,94.71,14.31,79.5,25.3,68.12,37,56.05,48.05,54,58.64,50.29Z"/><path class="cls-63" d="M58.64,50.28c9.26-3.35,23.21-3.22,32.11,3.8,9.88,7.79,14.15,22,17.11,30,1.6,4.32,3.38,8.54,4.61,12.9,1.93,7.64,1.92,16-2.06,28.32a69.18,69.18,0,0,1-2.53,6.56,73.67,73.67,0,0,1-15.65,22.66c-8.78,8.46-20.52,14.21-31.74,14.4s-20.16-3.65-28.18-7.09-15-6.35-21.26-10.56C2.51,145.47-2.54,133.15-2.3,120.16-2.21,114.85.48,110,2.86,106,8.38,94.87,14.32,79.64,25.34,68.22,37,56.1,48.11,54.1,58.64,50.28Z"/><path class="cls-64" d="M58.64,50.28c9.25-3.44,23.27-3.36,32.18,3.69,9.87,7.82,14.08,22.1,17,30.1,1.59,4.33,3.37,8.56,4.62,12.94,2,7.64,2,16-1.89,28.41a66.6,66.6,0,0,1-2.51,6.59A72.93,72.93,0,0,1,92.4,154.75c-8.8,8.46-20.61,14.18-31.87,14.26s-20.25-3.89-28.29-7.41-15.08-6.45-21.33-10.67C2.39,145.22-2.64,133-2.4,120.18c.09-5.3,2.82-10.11,5.23-14.18C8.4,95,14.34,79.77,25.39,68.31,37.12,56.15,48.16,54.18,58.64,50.28Z"/><path class="cls-65" d="M58.64,50.27c9.23-3.53,23.32-3.5,32.24,3.6,9.87,7.85,14,22.23,16.92,30.25,1.57,4.33,3.37,8.56,4.64,13,2,7.65,2.14,16.08-1.73,28.49a65.71,65.71,0,0,1-2.49,6.62A71.91,71.91,0,0,1,92.58,155c-8.84,8.48-20.71,14.14-32,14.13s-20.34-4.13-28.4-7.73S17,154.86,10.76,150.64C2.27,145-2.74,132.9-2.5,120.21c.09-5.3,2.86-10.1,5.3-14.15C8.42,95.19,14.35,79.91,25.43,68.41,37.2,56.21,48.22,54.26,58.64,50.27Z"/><path class="cls-66" d="M58.64,50.27C67.86,46.65,82,46.63,91,53.76c9.86,7.88,13.94,22.37,16.82,30.4,1.56,4.34,3.36,8.58,4.65,13,2,7.67,2.25,16.13-1.56,28.59a65.59,65.59,0,0,1-2.46,6.65,71.42,71.42,0,0,1-15.65,22.9c-8.86,8.49-20.8,14.11-32.16,14s-20.42-4.37-28.5-8-15.17-6.67-21.47-10.89C2.15,144.71-2.85,132.77-2.6,120.23c.09-5.29,2.9-10.08,5.37-14.12C8.44,95.35,14.36,80,25.48,68.51,37.28,56.26,48.28,54.34,58.64,50.27Z"/><path class="cls-67" d="M58.64,50.26c9.21-3.71,23.43-3.78,32.38,3.4,9.85,7.9,13.87,22.5,16.73,30.55,1.54,4.34,3.34,8.59,4.66,13,2,7.68,2.35,16.17-1.4,28.68a64.15,64.15,0,0,1-2.44,6.68,70.84,70.84,0,0,1-15.64,23C84,164.08,72,169.66,60.62,169.43s-20.5-4.61-28.6-8.36-15.22-6.78-21.54-11C2,144.46-2.95,132.65-2.7,120.26c.1-5.29,2.94-10.07,5.43-14.1,5.73-10.64,11.64-26,22.79-37.56C37.36,56.31,48.33,54.42,58.64,50.26Z"/><path class="cls-68" d="M58.65,50.26c9.19-3.8,23.47-3.92,32.43,3.29,9.85,7.93,13.81,22.65,16.64,30.7,1.53,4.36,3.34,8.61,4.67,13.07,2.09,7.69,2.46,16.21-1.23,28.77a64.21,64.21,0,0,1-2.42,6.71,69.9,69.9,0,0,1-15.64,23c-8.92,8.52-21,14.08-32.45,13.73s-20.58-4.85-28.71-8.68S16.68,154,10.33,149.78C1.91,144.2-3,132.52-2.8,120.28c.1-5.28,3-10,5.5-14.06C8.48,95.68,14.38,80.31,25.56,68.7,37.43,56.37,48.39,54.49,58.65,50.26Z"/><path class="cls-69" d="M58.65,50.25c9.17-3.88,23.53-4.06,32.5,3.19,9.84,8,13.73,22.79,16.54,30.86,1.51,4.36,3.33,8.62,4.69,13.09,2.11,7.7,2.56,16.26-1.07,28.87a64.28,64.28,0,0,1-2.4,6.74,69.35,69.35,0,0,1-15.63,23.12c-9,8.53-21.09,14-32.6,13.59s-20.67-5.09-28.81-9-15.31-7-21.68-11.22C1.79,144-3.16,132.39-2.9,120.31c.1-5.28,3-10,5.57-14C8.5,95.84,14.39,80.45,25.61,68.79,37.51,56.42,48.45,54.57,58.65,50.25Z"/><path class="cls-70" d="M58.65,50.25c9.16-4,23.58-4.2,32.56,3.09,9.84,8,13.67,22.92,16.45,31,1.5,4.36,3.33,8.63,4.7,13.12,2.15,7.71,2.67,16.3-.9,29a63.27,63.27,0,0,1-2.37,6.76,68.93,68.93,0,0,1-15.64,23.2c-9,8.55-21.17,14-32.74,13.46S40,164.53,31.8,160.54s-15.36-7.1-21.75-11.33C1.67,143.7-3.26,132.27-3,120.34c.09-5.28,3.05-10,5.63-14C8.52,96,14.4,80.58,25.65,68.89,37.59,56.47,48.5,54.65,58.65,50.25Z"/><path class="cls-71" d="M58.65,50.24c9.15-4.07,23.64-4.34,32.63,3,9.83,8,13.59,23.06,16.35,31.16,1.49,4.37,3.32,8.65,4.72,13.15,2.18,7.73,2.77,16.35-.74,29.06a64.13,64.13,0,0,1-2.35,6.79,68.3,68.3,0,0,1-15.63,23.28c-9,8.56-21.27,14-32.88,13.32s-20.84-5.56-29-9.63-15.4-7.21-21.82-11.44c-8.35-5.48-13.26-16.78-13-28.56.1-5.26,3.09-10,5.7-14C8.54,96.16,14.41,80.72,25.69,69,37.67,56.52,48.56,54.72,58.65,50.24Z"/><path class="cls-72" d="M58.65,50.23c9.14-4.15,23.69-4.47,32.69,2.9,9.82,8,13.53,23.2,16.26,31.31,1.48,4.37,3.32,8.66,4.73,13.18,2.21,7.74,2.88,16.39-.58,29.15a60.53,60.53,0,0,1-2.32,6.82,67.8,67.8,0,0,1-15.62,23.35c-9,8.58-21.37,14-33,13.19s-20.92-5.8-29.13-9.95S16.2,152.87,9.76,148.63C1.43,143.19-3.44,132-3.19,120.39c.11-5.26,3.13-10,5.77-14,6-10.11,11.85-25.58,23.16-37.35C37.75,56.58,48.62,54.8,58.65,50.23Z"/><path class="cls-73" d="M58.65,50.23C67.77,46,82.4,45.61,91.41,53c9.81,8.07,13.46,23.34,16.16,31.46,1.46,4.39,3.31,8.67,4.74,13.22,2.25,7.74,3,16.43-.41,29.24a60.62,60.62,0,0,1-2.3,6.85A67,67,0,0,1,94,157.22c-9.07,8.58-21.46,14-33.17,13.06s-21-6.05-29.23-10.28-15.51-7.42-22-11.65c-8.31-5.41-13.16-16.46-12.91-27.94.11-5.25,3.17-10,5.83-13.92,6-10,11.9-25.5,23.24-37.32C37.82,56.63,48.67,54.87,58.65,50.23Z"/><path class="cls-74" d="M58.65,50.22c9.11-4.33,23.8-4.75,32.82,2.7,9.81,8.09,13.39,23.47,16.08,31.61,1.44,4.39,3.29,8.68,4.75,13.24,2.27,7.76,3.1,16.47-.25,29.34a59.79,59.79,0,0,1-2.27,6.87,66.62,66.62,0,0,1-15.62,23.51c-9.11,8.6-21.56,13.94-33.32,12.93s-21.09-6.29-29.34-10.59S16,152.3,9.47,148.06c-8.28-5.37-13.11-16.3-12.86-27.62.12-5.25,3.21-10,5.9-13.9,6.09-9.9,11.94-25.42,23.32-37.27C37.9,56.68,48.73,55,58.65,50.22Z"/><path class="cls-75" d="M58.65,50.22c9.1-4.43,23.86-4.9,32.89,2.59,9.8,8.12,13.32,23.61,16,31.76,1.43,4.4,3.29,8.7,4.76,13.28,2.31,7.77,3.21,16.51-.08,29.43a58,58,0,0,1-2.25,6.9,66.1,66.1,0,0,1-15.62,23.59c-9.13,8.61-21.65,13.91-33.46,12.79S39.7,164,31.43,159.65,15.83,152,9.33,147.77c-8.27-5.34-13.07-16.13-12.82-27.31.12-5.24,3.25-10,6-13.87,6.14-9.79,12-25.33,23.39-37.23C38,56.74,48.78,55,58.65,50.22Z"/><path class="cls-76" d="M58.65,50.21c9.08-4.52,23.91-5,33,2.49,9.79,8.16,13.25,23.75,15.88,31.92,1.42,4.4,3.28,8.71,4.78,13.3,2.34,7.79,3.31,16.56.08,29.53a60,60,0,0,1-2.23,6.93A65.52,65.52,0,0,1,94.51,158c-9.17,8.63-21.75,13.89-33.61,12.66s-21.25-6.77-29.55-11.23-15.63-7.76-22.16-12c-8.24-5.33-13-16-12.78-27,.12-5.24,3.3-10,6-13.84,6.19-9.69,12-25.26,23.46-37.19C38.06,56.79,48.84,55.1,58.65,50.21Z"/><path class="cls-77" d="M58.65,50.21c9.07-4.61,24-5.18,33,2.39,9.79,8.18,13.18,23.89,15.79,32.07,1.4,4.41,3.28,8.72,4.79,13.33,2.37,7.8,3.42,16.6.25,29.62a61.22,61.22,0,0,1-2.2,7,65.06,65.06,0,0,1-15.62,23.74c-9.19,8.63-21.84,13.86-33.75,12.52s-21.34-7-29.65-11.55S15.6,151.43,9,147.2c-8.2-5.29-13-15.82-12.73-26.69.13-5.23,3.34-9.94,6.11-13.81C8.66,97.12,14.48,81.53,26,69.55,38.14,56.84,48.89,55.17,58.65,50.21Z"/><path class="cls-78" d="M58.66,50.2c9-4.7,24-5.32,33.08,2.29,9.78,8.21,13.11,24,15.69,32.22,1.39,4.42,3.27,8.74,4.81,13.37,2.4,7.8,3.52,16.64.41,29.71a59.38,59.38,0,0,1-2.18,7,64.64,64.64,0,0,1-15.61,23.81C85.64,167.24,72.93,172.41,61,171s-21.43-7.25-29.76-11.86-15.73-8-22.31-12.21C.72,141.65-4,131.26-3.79,120.54c.13-5.23,3.38-9.93,6.18-13.79C8.68,97.28,14.49,81.66,26,69.65,38.21,56.9,49,55.25,58.66,50.2Z"/><path class="cls-79" d="M58.66,50.2c9-4.8,24.06-5.46,33.14,2.19,9.78,8.23,13,24.16,15.6,32.37,1.38,4.42,3.27,8.75,4.82,13.39,2.43,7.82,3.63,16.69.58,29.8a58.37,58.37,0,0,1-2.16,7A64,64,0,0,1,95,158.86c-9.25,8.67-22,13.8-34,12.26s-21.51-7.49-29.87-12.18-15.77-8.09-22.38-12.32C.6,141.4-4.15,131.13-3.89,120.56c.13-5.22,3.42-9.91,6.25-13.75C8.69,97.44,14.5,81.8,26,69.74,38.29,57,49,55.32,58.66,50.2Z"/><path class="cls-80" d="M58.66,50.19c9-4.89,24.12-5.6,33.21,2.09,9.77,8.26,13,24.3,15.5,32.52,1.37,4.43,3.26,8.77,4.84,13.43,2.46,7.83,3.74,16.73.74,29.89a56.74,56.74,0,0,1-2.14,7,63.69,63.69,0,0,1-15.6,24c-9.28,8.68-22.12,13.77-34.18,12.12-12.22-1.67-21.59-7.73-30-12.5s-15.82-8.19-22.45-12.42C.48,141.15-4.25,131-4,120.59c.13-5.22,3.45-9.9,6.3-13.73,6.39-9.26,12.19-24.93,23.77-37C38.37,57,49.06,55.39,58.66,50.19Z"/><path class="cls-81" d="M58.66,50.19c9-5,24.17-5.74,33.27,2,9.77,8.29,12.91,24.45,15.41,32.68,1.35,4.43,3.25,8.77,4.85,13.45,2.5,7.85,3.85,16.78.91,30a58.51,58.51,0,0,1-2.11,7.08,63.13,63.13,0,0,1-15.61,24c-9.31,8.7-22.21,13.74-34.32,12-12.27-1.78-21.68-8-30.07-12.82s-15.87-8.3-22.52-12.53C.36,140.89-4.35,130.88-4.08,120.61c.13-5.21,3.49-9.88,6.37-13.7,6.44-9.15,12.24-24.84,23.84-37C38.45,57.06,49.11,55.46,58.66,50.19Z"/><path class="cls-82" d="M58.66,50.18c9-5.07,24.23-5.88,33.34,1.89,9.76,8.31,12.83,24.58,15.32,32.83,1.33,4.44,3.24,8.78,4.86,13.48,2.52,7.86,3.95,16.82,1.06,30.08a56.08,56.08,0,0,1-2.08,7.11,62.79,62.79,0,0,1-15.6,24.12c-9.34,8.7-22.31,13.71-34.47,11.85-12.33-1.89-21.76-8.21-30.18-13.13S15,150,8.32,145.76c-8.08-5.12-12.77-15-12.5-25.12C-4,115.43-.65,110.77,2.26,107,8.75,97.92,14.54,82.2,26.17,70,38.53,57.11,49.17,55.54,58.66,50.18Z"/><path class="cls-83" d="M58.66,50.17c9-5.16,24.28-6,33.41,1.79,9.75,8.34,12.76,24.72,15.22,33,1.32,4.45,3.23,8.8,4.87,13.52,2.56,7.86,4.06,16.86,1.23,30.17a54.06,54.06,0,0,1-2.06,7.13A62.3,62.3,0,0,1,95.73,160c-9.37,8.72-22.4,13.69-34.61,11.72-12.38-2-21.84-8.45-30.28-13.45s-16-8.52-22.66-12.75c-8.06-5.1-12.73-14.85-12.46-24.82.14-5.2,3.57-9.86,6.51-13.64,6.54-8.94,12.32-24.68,24-36.9C38.6,57.16,49.22,55.61,58.66,50.17Z"/><path class="cls-84" d="M58.66,50.17c9-5.26,24.33-6.16,33.47,1.69,9.75,8.37,12.7,24.85,15.13,33.13,1.31,4.45,3.23,8.81,4.88,13.54,2.59,7.88,4.17,16.91,1.4,30.27a55.77,55.77,0,0,1-2,7.16,61.86,61.86,0,0,1-15.59,24.28c-9.4,8.73-22.49,13.66-34.76,11.58-12.44-2.11-21.92-8.69-30.38-13.77s-16-8.63-22.73-12.86c-8-5.06-12.69-14.69-12.42-24.5.14-5.2,3.61-9.85,6.58-13.61,6.59-8.83,12.36-24.61,24.06-36.86C38.68,57.22,49.28,55.68,58.66,50.17Z"/><path class="cls-85" d="M58.66,50.16c9-5.35,24.39-6.3,33.54,1.59,9.74,8.4,12.62,25,15,33.28,1.29,4.46,3.22,8.83,4.9,13.58,2.62,7.89,4.27,17,1.56,30.36a55.8,55.8,0,0,1-2,7.19,61.55,61.55,0,0,1-15.59,24.35c-9.43,8.75-22.59,13.64-34.9,11.45-12.5-2.22-22-8.93-30.5-14.08s-16-8.74-22.8-13c-8-5-12.64-14.53-12.37-24.19.15-5.19,3.65-9.83,6.65-13.58,6.64-8.72,12.4-24.52,24.14-36.82C38.76,57.27,49.33,55.75,58.66,50.16Z"/><path class="cls-86" d="M58.66,50.16c8.93-5.45,24.44-6.44,33.6,1.48,9.74,8.43,12.56,25.14,14.94,33.44,1.28,4.46,3.22,8.84,4.91,13.6,2.66,7.91,4.39,17,1.73,30.46a54.39,54.39,0,0,1-2,7.22,61.16,61.16,0,0,1-15.59,24.43c-9.46,8.75-22.68,13.6-35,11.31-12.56-2.32-22.1-9.17-30.6-14.4s-16.1-8.85-22.87-13.08c-8-5-12.6-14.37-12.33-23.88.15-5.19,3.69-9.82,6.72-13.56,6.69-8.61,12.44-24.44,24.21-36.77C38.84,57.32,49.39,55.82,58.66,50.16Z"/><path class="cls-87" d="M58.66,50.15c8.92-5.54,24.5-6.58,33.67,1.39,9.73,8.45,12.49,25.27,14.84,33.58,1.27,4.48,3.21,8.86,4.93,13.64,2.68,7.92,4.49,17,1.89,30.55a55,55,0,0,1-2,7.25,60.73,60.73,0,0,1-15.58,24.5c-9.49,8.77-22.78,13.58-35.19,11.18-12.61-2.43-22.18-9.41-30.71-14.72s-16.14-9-22.93-13.19A27,27,0,0,1-4.68,120.76c.16-5.18,3.73-9.8,6.78-13.52C8.85,98.73,14.59,82.88,26.39,70.5,38.92,57.38,49.44,55.89,58.66,50.15Z"/><path class="cls-88" d="M58.67,50.15c8.89-5.64,24.54-6.72,33.72,1.28,9.73,8.48,12.42,25.41,14.75,33.74,1.26,4.48,3.2,8.87,4.94,13.67,2.72,7.92,4.6,17.08,2.06,30.64a53.48,53.48,0,0,1-2,7.27,60.39,60.39,0,0,1-15.58,24.59c-9.52,8.78-22.86,13.55-35.33,11-12.67-2.54-22.26-9.65-30.81-15s-16.19-9.07-23-13.3A26.6,26.6,0,0,1-4.78,120.79c.16-5.18,3.77-9.79,6.85-13.5C8.87,98.89,14.6,83,26.44,70.6,39,57.43,49.49,56,58.67,50.15Z"/><path class="cls-89" d="M58.67,50.14c8.87-5.73,24.6-6.86,33.79,1.19,9.72,8.5,12.35,25.54,14.66,33.89,1.24,4.48,3.19,8.87,4.95,13.69,2.75,7.94,4.7,17.13,2.22,30.74a55,55,0,0,1-1.92,7.3,59.94,59.94,0,0,1-15.58,24.66c-9.55,8.8-23,13.53-35.48,10.91C48.59,169.87,39,162.63,30.4,157.17S14.16,148,7.32,143.75a26.22,26.22,0,0,1-12.2-22.93c.16-5.18,3.81-9.78,6.92-13.48,6.85-8.29,12.58-24.19,24.44-36.65C39.07,57.48,49.55,56,58.67,50.14Z"/><path class="cls-90" d="M58.67,50.14c8.86-5.84,24.65-7,33.86,1.08,9.71,8.53,12.28,25.69,14.56,34,1.22,4.49,3.18,8.89,5,13.73,2.78,8,4.81,17.17,2.39,30.83a53.69,53.69,0,0,1-1.9,7.33A59.72,59.72,0,0,1,97,161.89c-9.58,8.8-23,13.5-35.62,10.77-12.78-2.76-22.42-10.13-31-15.67S14,147.7,7.18,143.47A25.82,25.82,0,0,1-5,120.84c.16-5.17,3.84-9.77,7-13.44,6.9-8.19,12.62-24.12,24.51-36.61C39.15,57.53,49.6,56.11,58.67,50.14Z"/><path class="cls-91" d="M58.67,50.13c8.84-5.93,24.7-7.14,33.92,1,9.71,8.56,12.21,25.83,14.47,34.2,1.21,4.49,3.18,8.9,5,13.75,2.81,8,4.91,17.22,2.55,30.93a53.85,53.85,0,0,1-1.88,7.36,59.36,59.36,0,0,1-15.57,24.81C87.53,171,74,175.63,61.37,172.81c-12.83-2.88-22.51-10.38-31.12-16S13.92,147.41,7,143.18a25.45,25.45,0,0,1-12.1-22.31c.16-5.17,3.88-9.76,7.05-13.42,7-8.08,12.66-24,24.59-36.57C39.23,57.59,49.65,56.18,58.67,50.13Z"/><path class="cls-92" d="M58.67,50.12c8.82-6,24.76-7.28,34,.89,9.7,8.58,12.14,26,14.37,34.34,1.2,4.51,3.17,8.92,5,13.79a57.5,57.5,0,0,1,2.72,31,53.53,53.53,0,0,1-1.86,7.38,58.87,58.87,0,0,1-15.57,24.89c-9.64,8.84-23.23,13.45-35.9,10.52-12.9-3-22.6-10.61-31.23-16.32s-16.38-9.5-23.29-13.74a25.08,25.08,0,0,1-12.06-22C-5,115.73-1.24,111.15,2,107.5c7-8,12.7-24,24.66-36.52C39.31,57.64,49.7,56.25,58.67,50.12Z"/><path class="cls-93" d="M58.67,50.12c8.81-6.12,24.81-7.42,34.05.78C102.42,59.51,104.8,77,107,85.4c1.19,4.51,3.17,8.93,5,13.82a57.77,57.77,0,0,1,2.87,31.1,52.24,52.24,0,0,1-1.82,7.42,58.65,58.65,0,0,1-15.57,25c-9.67,8.85-23.33,13.42-36,10.38C48.49,170,38.76,162.24,30.1,156.46s-16.42-9.62-23.35-13.85a24.75,24.75,0,0,1-12-21.69c.17-5.16,4-9.73,7.18-13.36C9,99.69,14.66,83.69,26.66,71.08,39.38,57.69,49.75,56.31,58.67,50.12Z"/><path class="cls-94" d="M58.67,50.11c8.79-6.21,24.87-7.56,34.12.69,9.69,8.63,12,26.24,14.18,34.65,1.17,4.51,3.16,8.94,5,13.84a58.1,58.1,0,0,1,3,31.2,52.74,52.74,0,0,1-1.8,7.45,58.31,58.31,0,0,1-15.57,25c-9.69,8.86-23.42,13.4-36.19,10.25C48.47,170,38.71,162.14,30,156.28s-16.47-9.73-23.43-14a24.38,24.38,0,0,1-12-21.38c.18-5.15,4-9.71,7.25-13.33C9,99.85,14.67,83.82,26.7,71.17,39.46,57.75,49.81,56.38,58.67,50.11Z"/><path class="cls-95" d="M58.67,50.11c8.77-6.31,24.92-7.7,34.18.58,9.69,8.66,11.94,26.38,14.09,34.8,1.16,4.52,3.15,9,5,13.88a58.46,58.46,0,0,1,3.21,31.29,51.57,51.57,0,0,1-1.78,7.48,58,58,0,0,1-15.56,25.12c-9.73,8.87-23.52,13.37-36.34,10.11C48.44,170.05,38.65,162,30,156.1S13.44,146.26,6.46,142C-1.32,137.32-5.76,129.11-5.47,121c.18-5.14,4.05-9.7,7.32-13.3C9,100,14.68,84,26.74,71.27,39.54,57.8,49.86,56.45,58.67,50.11Z"/><path class="cls-96" d="M58.67,50.1c8.76-6.41,25-7.84,34.25.48,9.68,8.69,11.87,26.52,14,35,1.14,4.53,3.14,9,5,13.9a58.9,58.9,0,0,1,3.37,31.39,50.47,50.47,0,0,1-1.76,7.51c-2.68,8.71-7.9,18.22-15.56,25.19-9.75,8.89-23.6,13.34-36.48,10-13.11-3.43-22.93-11.57-31.65-17.59S13.33,146,6.32,141.75C-1.44,137.07-5.86,129-5.57,121c.19-5.13,4.09-9.68,7.39-13.27,7.21-7.55,12.87-23.63,25-36.36C39.62,57.85,49.91,56.52,58.67,50.1Z"/><path class="cls-97" d="M58.68,50.1c8.73-6.51,25-8,34.3.38,9.68,8.71,11.8,26.65,13.91,35.1,1.13,4.54,3.13,9,5,13.94A59.27,59.27,0,0,1,115.48,131a51.43,51.43,0,0,1-1.73,7.53c-2.66,8.75-7.88,18.3-15.56,25.28-9.79,8.9-23.7,13.31-36.63,9.84-13.17-3.54-23-11.81-31.75-17.9s-16.6-10.06-23.64-14.29C-1.56,136.81-6,128.86-5.67,121c.19-5.13,4.13-9.68,7.46-13.25,7.26-7.44,12.92-23.54,25-36.31C39.7,57.91,50,56.59,58.68,50.1Z"/><path class="cls-98" d="M58.68,50.09c8.71-6.6,25.08-8.12,34.37.28,9.67,8.74,11.73,26.8,13.81,35.26,1.11,4.54,3.13,9,5.07,14a59.56,59.56,0,0,1,3.7,31.57,50.63,50.63,0,0,1-1.71,7.56c-2.64,8.79-7.86,18.37-15.56,25.35-9.81,8.92-23.79,13.29-36.77,9.71-13.22-3.65-23.09-12-31.86-18.22S13.09,145.4,6,141.17C-1.68,136.55-6.06,128.73-5.77,121c.2-5.12,4.17-9.66,7.53-13.21,7.3-7.34,13-23.47,25.11-36.28C39.77,58,50,56.66,58.68,50.09Z"/><path class="cls-99" d="M58.68,50.09c8.69-6.7,25.13-8.27,34.44.18,9.66,8.76,11.66,26.93,13.71,35.4,1.1,4.55,3.12,9,5.08,14,3.07,8.06,5.78,17.56,3.87,31.67a51.09,51.09,0,0,1-1.69,7.59c-2.62,8.82-7.84,18.43-15.55,25.43-9.85,8.92-23.89,13.26-36.91,9.57-13.29-3.76-23.18-12.29-32-18.54S13,145.11,5.89,140.89c-7.69-4.59-12-12.28-11.76-19.82.2-5.12,4.21-9.65,7.6-13.19,7.35-7.23,13-23.38,25.19-36.23C39.85,58,50.06,56.73,58.68,50.09Z"/><path class="cls-100" d="M58.68,50.08c8.67-6.8,25.18-8.41,34.5.08,9.66,8.79,11.59,27.07,13.62,35.56,1.09,4.55,3.12,9,5.1,14,3.09,8.07,5.88,17.6,4,31.76a51.27,51.27,0,0,1-1.67,7.62c-2.6,8.86-7.81,18.5-15.54,25.5-9.88,8.94-24,13.23-37.06,9.44-13.34-3.87-23.27-12.53-32.07-18.86S12.85,144.83,5.74,140.6C-1.91,136-6.26,128.48-6,121.09c.2-5.11,4.24-9.63,7.65-13.16C9.1,100.81,14.74,84.63,27,71.74,39.93,58.07,50.11,56.8,58.68,50.08Z"/><path class="cls-101" d="M58.68,50.08c8.65-6.9,25.24-8.55,34.57,0,9.65,8.82,11.52,27.21,13.52,35.72,1.08,4.56,3.11,9,5.11,14,3.13,8.09,6,17.65,4.2,31.86a51,51,0,0,1-1.64,7.64c-2.58,8.9-7.8,18.58-15.55,25.59-9.9,9-24.07,13.2-37.2,9.3-13.39-4-23.35-12.77-32.18-19.17S12.73,144.54,5.6,140.31c-7.63-4.52-12-12-11.66-19.19.2-5.11,4.28-9.62,7.72-13.13C9.12,101,14.75,84.77,27,71.84,40,58.12,50.16,56.86,58.68,50.08Z"/><path class="cls-102" d="M58.68,50.07c8.63-7,25.29-8.69,34.63-.12,9.65,8.84,11.46,27.34,13.43,35.86,1.06,4.57,3.1,9,5.13,14.09,3.15,8.09,6.09,17.69,4.36,31.95a51.17,51.17,0,0,1-1.62,7.67c-2.56,8.94-7.78,18.65-15.54,25.66-9.94,9-24.17,13.18-37.35,9.17-13.45-4.09-23.43-13-32.28-19.49S12.61,144.25,5.46,140c-7.61-4.49-11.92-11.79-11.62-18.88.21-5.1,4.32-9.6,7.79-13.1,7.51-6.9,13.13-23.14,25.42-36.11C40.09,58.17,50.21,56.93,58.68,50.07Z"/><path class="cls-103" d="M58.68,50.06C67.29,43,84,41.24,93.38,49.84c9.64,8.87,11.38,27.49,13.34,36,1,4.57,3.09,9.06,5.13,14.12,3.19,8.1,6.21,17.73,4.52,32a49.14,49.14,0,0,1-1.59,7.7c-2.54,9-7.75,18.72-15.54,25.74-10,9-24.25,13.15-37.49,9-13.5-4.2-23.51-13.25-32.38-19.81S12.49,144,5.31,139.74c-7.58-4.46-11.87-11.64-11.57-18.57.22-5.1,4.36-9.59,7.86-13.08C9.16,101.3,14.77,85,27.09,72,40.16,58.23,50.26,57,58.68,50.06Z"/><path class="cls-104" d="M58.68,50.06c8.59-7.19,25.4-9,34.76-.32,9.64,8.89,11.32,27.62,13.25,36.16,1,4.58,3.08,9.08,5.15,14.15,3.22,8.12,6.31,17.78,4.68,32.14a48.21,48.21,0,0,1-1.57,7.73c-2.52,9-7.73,18.79-15.53,25.81-10,9-24.35,13.12-37.64,8.9-13.55-4.31-23.59-13.49-32.49-20.13S12.37,143.67,5.17,139.45C-2.39,135-6.66,128-6.36,121.19c.22-5.09,4.4-9.58,7.93-13,7.61-6.69,13.21-23,25.57-36C40.24,58.28,50.31,57.07,58.68,50.06Z"/><path class="cls-105" d="M58.68,50.05c8.57-7.29,25.46-9.11,34.83-.42,9.63,8.92,11.25,27.76,13.15,36.32,1,4.58,3.08,9.08,5.16,14.18,3.25,8.13,6.42,17.82,4.85,32.23a49.67,49.67,0,0,1-1.54,7.76c-2.5,9-7.71,18.86-15.54,25.88-10,9-24.44,13.1-37.78,8.77C48.2,170.35,38.14,161,29.22,154.33s-17-11-24.19-15.17c-7.54-4.4-11.79-11.31-11.49-17.94.23-5.09,4.44-9.57,8-13,7.66-6.58,13.26-22.89,25.64-36C40.32,58.33,50.36,57.14,58.68,50.05Z"/><path class="cls-106" d="M58.68,50.05c8.55-7.39,25.51-9.25,34.9-.52,9.62,8.94,11.17,27.89,13,36.46,1,4.6,3.07,9.1,5.17,14.21,3.29,8.14,6.53,17.87,5,32.33a48.41,48.41,0,0,1-1.52,7.78c-2.48,9.08-7.69,18.94-15.53,26-10.06,9-24.53,13.07-37.92,8.63-13.67-4.52-23.77-14-32.7-20.76-9.09-6.9-17-11.05-24.27-15.27-7.51-4.37-11.74-11.16-11.44-17.64.23-5.08,4.48-9.55,8.06-13,7.72-6.48,13.31-22.82,25.72-35.95C40.4,58.39,50.41,57.2,58.68,50.05Z"/><path class="cls-107" d="M58.69,50c8.52-7.49,25.56-9.39,35-.62,9.62,9,11.11,28,13,36.62,1,4.6,3.07,9.11,5.19,14.24,3.32,8.15,6.63,17.91,5.18,32.41a48.51,48.51,0,0,1-1.5,7.82c-2.46,9.12-7.67,19-15.53,26-10.08,9-24.62,13-38.06,8.5C48.15,170.42,38,160.84,29.07,154S12,142.81,4.74,138.59c-7.49-4.34-11.7-11-11.4-17.32.24-5.08,4.53-9.54,8.13-13,7.77-6.37,13.35-22.73,25.8-35.9C40.48,58.44,50.46,57.27,58.69,50Z"/><path class="cls-108" d="M58.69,50c8.5-7.59,25.61-9.54,35-.73,9.61,9,11,28.18,12.86,36.78,1,4.6,3.06,9.12,5.2,14.27,3.35,8.16,6.74,18,5.35,32.5a48.91,48.91,0,0,1-1.48,7.85c-2.44,9.15-7.64,19.07-15.52,26.12-10.12,9-24.72,13-38.21,8.36C48.13,170.45,38,160.74,29,153.79c-9.14-7.06-17.1-11.27-24.41-15.49s-11.65-10.83-11.35-17c.25-5.07,4.57-9.52,8.2-12.93C9.26,102.1,14.83,85.71,27.31,72.5,40.55,58.49,50.5,57.34,58.69,50Z"/><path class="cls-109" d="M58.69,50c8.48-7.68,25.67-9.67,35.08-.82,9.61,9,11,28.31,12.77,36.92,1,4.61,3,9.14,5.22,14.3,3.38,8.18,6.85,18,5.51,32.6a49,49,0,0,1-1.45,7.88c-2.42,9.19-7.63,19.14-15.53,26.19-10.14,9.06-24.8,13-38.35,8.24-13.83-4.86-24-14.7-33-21.72-9.16-7.15-17.14-11.39-24.47-15.6s-11.61-10.67-11.31-16.7c.26-5.07,4.61-9.51,8.27-12.9,7.87-6.16,13.43-22.57,26-35.82C40.63,58.54,50.55,57.41,58.69,50Z"/><path class="cls-110" d="M58.69,50c8.45-7.79,25.72-9.82,35.15-.93,9.6,9,10.9,28.45,12.67,37.08,1,4.62,3,9.15,5.23,14.33,3.41,8.19,7,18,5.68,32.69a49.13,49.13,0,0,1-1.43,7.9c-2.4,9.23-7.61,19.22-15.52,26.28-10.17,9.07-24.9,13-38.5,8.1-13.89-5-24.09-14.94-33.12-22-9.19-7.23-17.19-11.5-24.54-15.71S-7.26,127.22-6.95,121.35c.25-5.07,4.64-9.5,8.33-12.88,7.92-6,13.47-22.49,26-35.78C40.71,58.6,50.6,57.47,58.69,50Z"/><path class="cls-111" d="M58.69,50c8.43-7.88,25.77-10,35.21-1,9.6,9.07,10.84,28.59,12.59,37.22.93,4.63,3,9.17,5.24,14.36,3.44,8.2,7.06,18.08,5.84,32.79a48.25,48.25,0,0,1-1.41,7.93c-2.38,9.27-7.58,19.29-15.52,26.35-10.2,9.08-25,12.94-38.64,8-13.94-5.08-24.18-15.18-33.22-22.36-9.22-7.3-17.24-11.61-24.62-15.82S-7.36,127.09-7,121.37c.26-5.06,4.68-9.49,8.4-12.85,8-5.94,13.51-22.4,26.09-35.73C40.79,58.65,50.65,57.54,58.69,50Z"/><path class="cls-112" d="M58.69,50C67.1,42,84.52,39.92,94,48.89s10.76,28.73,12.49,37.38c.92,4.63,3,9.18,5.25,14.39,3.48,8.21,7.17,18.12,6,32.88a48.39,48.39,0,0,1-1.38,8c-2.37,9.3-7.57,19.36-15.52,26.43C90.59,177,75.74,180.84,62,175.76c-14-5.19-24.26-15.43-33.33-22.67C19.46,145.7,11.42,141.36,4,137.15S-7.45,127-7.15,121.4c.27-5.06,4.72-9.48,8.47-12.82,8-5.84,13.55-22.33,26.17-35.7C40.87,58.7,50.69,57.61,58.69,50Z"/><path class="cls-113" d="M58.69,50C67.08,41.93,84.57,39.77,94,48.78s10.69,28.87,12.39,37.54c.91,4.63,3,9.18,5.27,14.42,3.5,8.22,7.27,18.16,6.17,33a48.77,48.77,0,0,1-1.36,8C114.17,151,109,161.13,101,168.2c-10.27,9.11-25.18,12.88-38.93,7.7-14.06-5.3-24.35-15.67-33.44-23-9.27-7.47-17.33-11.84-24.75-16s-11.43-10-11.13-15.45c.28-5,4.76-9.46,8.53-12.79C9.36,102.9,14.89,86.39,27.53,73,40.94,58.76,50.74,57.68,58.69,50Z"/><path class="cls-114" d="M58.69,50c8.36-8.18,25.94-10.38,35.41-1.32s10.63,29,12.3,37.68c.9,4.64,3,9.2,5.28,14.45,3.54,8.24,7.39,18.21,6.33,33.07a46.6,46.6,0,0,1-1.33,8c-2.32,9.38-7.52,19.51-15.51,26.59C90.88,177.6,75.9,181.33,62.1,176,48,170.63,37.67,160.13,28.56,152.73c-9.3-7.55-17.37-11.95-24.83-16.15s-11.38-9.86-11.08-15.13c.29-5,4.8-9.45,8.6-12.77,8.13-5.62,13.65-22.16,26.32-35.61C41,58.81,50.79,57.74,58.69,50Z"/><path class="cls-115" d="M58.69,50c8.34-8.28,26-10.52,35.48-1.43s10.55,29.15,12.2,37.84c.88,4.65,3,9.21,5.29,14.48,3.57,8.25,7.5,18.25,6.5,33.16a47,47,0,0,1-1.31,8c-2.3,9.41-7.5,19.58-15.5,26.66C91,177.88,76,181.58,62.13,176.18,48,170.66,37.62,160,28.48,152.55c-9.32-7.63-17.41-12.06-24.89-16.26-7.29-4.09-11.34-9.7-11-14.82s4.84-9.43,8.67-12.73c8.18-5.52,13.69-22.08,26.4-35.57C41.1,58.86,50.83,57.81,58.69,50Z"/><path class="cls-116" d="M1.19,108.79c8.23-5.41,13.29-22.43,26.47-35.53,13-14.79,22.82-15.8,31-23.27,7.86-8.8,26.7-11.3,35.53-1.52,10.19,8.51,10.37,29.3,12.11,38,2.06,12,13.28,23.22,12,47.77-.8,11.12-6.27,25.75-16.79,34.8-10.23,9.28-25.52,13-39.36,7.3-14.29-5.44-24.43-16.59-33.75-23.94-9.18-7.92-17.53-12-25-16.37-7.34-3.95-11.44-9.56-11-14.51C-7.38,116.46-2.67,112.08,1.19,108.79Z"/><path class="cls-117" d="M79.47,161.51H45.9c0-.08-.07-.15-.1-.24-.48-1.88-.85-3.78-1.19-5.69.54.26.56-.42.92-.51.12,0,.07-.18.08-.27l.21-2.57h0l.16,0c2.92.14,5.85.23,8.77.28,4.21.07,8.41.08,12.62,0q3.72-.1,7.41-.39c1.39-.1,2.77-.26,4.16-.35.13.6,0,1.22.14,1.82s0,1.48.1,2.22,0,1.44.1,2.14C79.38,159.09,79.3,160.31,79.47,161.51Z"/><path class="cls-118" d="M44.61,155.58c.34,1.91.71,3.81,1.19,5.69,0,.09.07.16.1.24H35.49a38,38,0,0,0,.77-6l8,0A.71.71,0,0,1,44.61,155.58Z"/><path class="cls-119" d="M79.47,161.51c-.17-1.2-.09-2.42-.19-3.63-.06-.7,0-1.44-.1-2.14s0-1.49-.1-2.22,0-1.22-.14-1.82h0l.08-.07.12,0c.13,2.24.26,4.47.36,6.71,0,1,.06,1.93.09,2.89,0,.08,0,.17.06.24Z"/><path class="cls-120" d="M79.14,151.67l-.12,0-.08.07h0c-1.39.09-2.77.25-4.16.35q-3.69.28-7.41.39c-4.21.11-8.41.1-12.62,0-2.92-.05-5.85-.14-8.77-.28l-.16,0c.07-1.35.17-2.7.21-4.05.11-3.4.2-6.79.29-10.18,0-2.1.1-4.2.12-6.29.06-6.07.18-12.13,0-18.19,0-.92-.1-1.83-.15-2.75,0-.08,0-.22-.14-.2s-.17.1-.16.21,0,.32,0,.48c.15,3.6.26,7.19.23,10.79,0,2.76,0,5.51-.07,8.27-.12,4.77-.11,9.55-.32,14.32-.15,3.23-.19,6.46-.45,9.69a5,5,0,0,0,0,.55,21.53,21.53,0,0,0,.26-2.25c0-.14-.06-.33.17-.39l-.21,2.57c0,.09,0,.24-.08.27-.36.09-.38.77-.92.51a.71.71,0,0,0-.37-.1l-8,0c-.72,0-.7,0-.78-.76-.2-1.81-.43-3.61-.64-5.41-.17-1.49-.35-3-.49-4.47-.21-2.17-.4-4.34-.59-6.51-.08-1-.13-2-.19-3-.23-3.75-.34-7.51-.25-11.26,0-2,.16-4.08.26-6.11.09-1.86.38-3.7.54-5.56a47.85,47.85,0,0,1,.84-5.32,19,19,0,0,1,2.95-7.38,12.32,12.32,0,0,1,2.32-2.41c.09-.07.16-.16.25-.24l1.93-1.38,2.79-1.49c.48-.23,1-.45,1.45-.7.19-.1.45-.1.57-.34,1.44-.67,2.85-1.4,4.25-2.17a3.58,3.58,0,0,0,.77,2.35,9.71,9.71,0,0,0,3.66,3,9,9,0,0,0,3.43.91A7.41,7.41,0,0,0,62,96.94a4.49,4.49,0,0,0,3.27-3.87A4.69,4.69,0,0,1,65.5,92a6.64,6.64,0,0,1,1.94.61l3.19,1.34c.53.15.91.57,1.41.76a34,34,0,0,1,4.35,2.5,17.13,17.13,0,0,1,4.73,5.33c.2.42.4.84.59,1.26a.71.71,0,0,1,.12.45v0L78.37,104l-8.13-.68c-2.36-.19-4.72-.35-7.08-.54-1.61-.12-3.22-.3-4.83-.41a17,17,0,0,0-2.76-.09q-.91,11.08-1.83,22.13a3.81,3.81,0,0,1-.47-.07,1.25,1.25,0,0,0-1.16.74c-.07.4.14.62.7.75,0,0,0,0,0,.1-.52,0-1,.24-1.06.77s.38,1,1,1.13c-.71.1-1,.3-1.13.83s.16,1,.88,1.19c-.55.16-1,.31-1,.84s.23.8.66,1.08c-.52.11-.67.36-.5.78a.53.53,0,0,1,0,.18,2.06,2.06,0,0,0,1.15,1.82c-.12,1.36-.25,2.72-.35,4.08-.05.68,0,.73.68.82,1.27.18,2.55.25,3.83.33l4.46.29,3.52.28,5.09.4,5.39.41,3.7.28h.26v0c0,1.26,0,2.51.1,3.77.14,2,.2,4.08.31,6.12,0,.17,0,.24-.2.25A.89.89,0,0,0,79.14,151.67Z"/><path class="cls-119" d="M51.47,91c-1.4.77-2.81,1.5-4.25,2.17l-2-.89a13.17,13.17,0,0,1-2.76-2.34l0,0-.25-.29-.1-.14-.08-.1h0l-.09-.1h0l-.1-.14-.26-.39-.09-.13v0h0l-.06-.1c0-.06,0-.13-.1-.16l-.07-.12h0L41.2,88h0l-.1-.18h0L41,87.68h0l-.26-.6v0l-.1-.24h0l-.11-.26h0l-.06-.18h0A10,10,0,0,1,40.6,81c.16-.58.36-1.15.54-1.73h0l.06-.19h0l.12-.25h0l.19-.47s0,0,0-.06L42,77h0l.11-.27h0a.88.88,0,0,0,.14-.38v0c.4-.9.62-1.85.94-2.78.72-2.09,1.18-4.25,1.84-6.36a19.51,19.51,0,0,1,2.79-5.88,13.55,13.55,0,0,1,6.92-4.89,17.17,17.17,0,0,1,6-.89,12.6,12.6,0,0,1,8,3.06,15.66,15.66,0,0,1,4.5,7.24,32.12,32.12,0,0,1,1.15,6.32,66.31,66.31,0,0,1,.35,7.19,15.42,15.42,0,0,0,.73,3.91,11.75,11.75,0,0,1,.41,4.61,6.67,6.67,0,0,1-3.67,5.35,1.18,1.18,0,0,0-.19.11l-1.41.6-3.19-1.34A6.64,6.64,0,0,0,65.5,92a2.35,2.35,0,0,0-.42-.21c-.47-.11-.52-.44-.53-.84,0-1-.09-1.91-.13-2.87a0,0,0,0,0,0-.06c0-.16,0-.31.22-.37A8.13,8.13,0,0,0,69.12,84a13.34,13.34,0,0,0,2.14-7A51.8,51.8,0,0,0,71,70.38a10,10,0,0,0-1.48-4.72,8.17,8.17,0,0,0-4.43-3.47.81.81,0,0,0-.89.09l-2.51,2.24a48.52,48.52,0,0,1-10,7.06.41.41,0,0,1-.53,0A2.47,2.47,0,0,0,47.27,73a4.81,4.81,0,0,0,.9,4.17,2.56,2.56,0,0,0,2.39,1c.23,0,.29,0,.31.23a15.08,15.08,0,0,0,.69,2.64c.17.65.55,1.21.74,1.84v.15c0,2.14-.1,4.28-.08,6.42A1.53,1.53,0,0,1,51.47,91Z"/><path class="cls-120" d="M83.29,109c.55,1.1.93,2.27,1.37,3.42a101.44,101.44,0,0,1,3.77,12,31.09,31.09,0,0,1,1.19,9.25,5.48,5.48,0,0,1-1.7,4.18,7.28,7.28,0,0,1-4.68,1.84c-1,0-2,0-3.06,0h-.25c-.65,0-1.31,0-2,0-1.07-.09-2.13-.24-3.19-.35l-2.73-.28-3.73-.48c-1.55-.2-3.09-.37-4.63-.56a.64.64,0,0,1-.65-.63c0-.42-.08-.84-.12-1.26A17.54,17.54,0,0,1,62.8,134c-.06-1.59-.12-3.17-.21-4.75a.58.58,0,0,1,.68-.52c.62,0,1.23,0,1.84,0,5.37,0,10.75-.08,16.12,0,.33,0,.66.05,1,.06.12,0,.29.09.3-.13s-.16-.16-.28-.19a1.16,1.16,0,0,0-.64,0c-.27.09-.21-.09-.23-.22s0-.38,0-.57c.14-1.26.3-2.52.43-3.78.1-1,.17-2,.27-2.94.14-1.43.3-2.86.43-4.29s.26-2.72.38-4.08l.33-3.51S83.28,109,83.29,109Z"/><path class="cls-121" d="M42.48,89.89l0,0c0,1.92,0,3.84-.09,5.76l-1.93,1.38c0-.24-.25-.17-.39-.17-1,0-1.89,0-2.84,0-.32,0-.46-.06-.45-.42q0-6.06,0-12.1c0-.31.06-.44.41-.43.88,0,1.77,0,2.66,0,.28,0,.25.29.24.46a6.6,6.6,0,0,0,.2,1.59c0,.16,0,.36.24.41h0c-.07.09-.06.15.06.18h0c0,.11-.07.23.11.26h0c0,.11-.1.24.1.24v0a.46.46,0,0,0,.26.6h0c0,.09,0,.16.08.19h0c0,.08,0,.16.1.18h0c0,.09,0,.16.1.18h0l.07.12c.07,0,.08.1.1.16l-.05.06.11,0h0v0s-.07.17.09.13l.26.39.1.14h0l.09.1h0l.08.1.1.14A.24.24,0,0,0,42.48,89.89Z"/><path class="cls-121" d="M91.28,97.11c0-1.56,0-3.12,0-4.68,0-.34.08-.45.44-.45q2.21,0,4.41,0c.34,0,.41.11.41.43q0,4.74,0,9.48c0,.32-.08.43-.41.43-1.49,0-3,0-4.46,0-.31,0-.39-.11-.39-.41C91.28,100.31,91.28,98.71,91.28,97.11Z"/><path class="cls-121" d="M89.09,97.15c0,1.57,0,3.15,0,4.72,0,.33-.08.45-.44.45q-2.2,0-4.41,0c-.33,0-.41-.11-.41-.43q0-4.74,0-9.48c0-.32.08-.43.41-.43,1.49,0,3,0,4.46,0,.31,0,.39.11.39.41C89.09,94,89.09,95.56,89.09,97.15Z"/><path class="cls-121" d="M96.53,80.35c0,1.58,0,3.15,0,4.72,0,.32,0,.47-.42.46q-2.2,0-4.41,0c-.32,0-.43-.09-.43-.42q0-4.74,0-9.48c0-.35.11-.44.45-.43h4.37c.34,0,.45.08.45.43C96.52,77.21,96.53,78.78,96.53,80.35Z"/><path class="cls-121" d="M83.85,80.34c0-1.55,0-3.11,0-4.67,0-.35.07-.48.45-.48,1.46,0,2.91,0,4.37,0,.35,0,.44.11.44.45,0,3.15,0,6.29,0,9.44,0,.32-.07.46-.43.45q-2.2,0-4.41,0c-.33,0-.42-.1-.42-.42C83.85,83.52,83.85,81.93,83.85,80.34Z"/><path class="cls-121" d="M76.5,80.32c0-1.56,0-3.12,0-4.68,0-.33.08-.45.43-.45,1.46,0,2.91,0,4.37,0,.32,0,.46.06.46.43q0,4.73,0,9.47c0,.32-.08.43-.41.43q-2.2,0-4.41,0c-.36,0-.44-.12-.43-.45C76.51,83.49,76.5,81.9,76.5,80.32Z"/><path class="cls-121" d="M96.53,63.65c0,1.57,0,3.14,0,4.72,0,.31,0,.46-.42.46-1.47,0-2.94,0-4.41,0-.32,0-.43-.08-.43-.41,0-3.18,0-6.35,0-9.53,0-.31.11-.39.4-.39,1.49,0,3,0,4.46,0,.35,0,.41.13.4.44C96.52,60.5,96.53,62.07,96.53,63.65Z"/><path class="cls-121" d="M76.5,63.63c0-1.57,0-3.14,0-4.71,0-.32.08-.43.41-.43q2.2,0,4.41,0c.31,0,.44.07.44.41,0,3.17,0,6.35,0,9.52,0,.3-.08.41-.39.4H76.91c-.34,0-.42-.11-.41-.43C76.51,66.81,76.5,65.22,76.5,63.63Z"/><path class="cls-121" d="M83.85,63.66c0-1.57,0-3.15,0-4.72,0-.33.07-.46.43-.45,1.47,0,3,0,4.42,0,.34,0,.41.11.41.43,0,3.15,0,6.29,0,9.44,0,.33-.1.47-.45.46H84.24c-.31,0-.4-.09-.4-.4C83.85,66.84,83.85,65.25,83.85,63.66Z"/><path class="cls-121" d="M81.12,102.5a17.13,17.13,0,0,0-4.73-5.33c.17-.13.11-.32.11-.49,0-1.42,0-2.85,0-4.27,0-.33.08-.43.41-.43q2.2,0,4.41,0c.32,0,.44.07.44.41q0,4.77,0,9.52c0,.3-.07.44-.38.4A.21.21,0,0,0,81.12,102.5Z"/><path class="cls-121" d="M42.24,76.32v0a.26.26,0,0,0-.14.38h0c-.18,0-.13.16-.11.27h0a1.72,1.72,0,0,0-.51,1.31s0,0,0,.06c-.31.06-.22.28-.19.47h0c-.17,0-.12.14-.12.25h0a.11.11,0,0,0-.06.19h0a1.09,1.09,0,0,1-.61.15c-2.55,0-5.1,0-7.64,0-.37,0-.48-.1-.47-.47q0-1.16,0-2.31c0-.4.13-.48.5-.48,2.81,0,5.62,0,8.43,0a1.81,1.81,0,0,0,.65,0C42.18,76.05,42.22,76.18,42.24,76.32Z"/><path class="cls-121" d="M70.63,93.91l1.41-.6v1.36C71.54,94.48,71.16,94.06,70.63,93.91Z"/><path class="cls-119" d="M79.93,139.75h.25c0,.37-.05.75-.11,1.12s-.36.48-.69.53v0a.42.42,0,0,1,0-.13c.43-.11.37-.48.49-.79.21-.51-.06-.5-.38-.49C79.59,139.78,79.93,140.12,79.93,139.75Z"/><path class="cls-117" d="M78.94,151.71l.08-.07Z"/><path class="cls-118" d="M51.47,91a1.53,1.53,0,0,0,.75-1.5c0-2.14.05-4.28.08-6.42a8.24,8.24,0,0,0,.94,1.41,10.48,10.48,0,0,0,4,3.08,10.7,10.7,0,0,0,2.73.73,10.22,10.22,0,0,0,4.4-.24c0,1,.1,1.91.13,2.87,0,.4.06.73.53.84a2.35,2.35,0,0,1,.42.21,4.69,4.69,0,0,0-.19,1.11A4.49,4.49,0,0,1,62,96.94a7.41,7.41,0,0,1-2.71.25,9,9,0,0,1-3.43-.91,9.71,9.71,0,0,1-3.66-3A3.58,3.58,0,0,1,51.47,91Z"/><path class="cls-118" d="M53.74,124.36c1,.31,2,.63,2.95,1a19.35,19.35,0,0,1,4.14,2.6l1.76,1.28c.09,1.58.15,3.16.21,4.75a15.8,15.8,0,0,0,.13,2.17,30.4,30.4,0,0,1-5.39-.54,40.14,40.14,0,0,1-4.73-1.12,2.06,2.06,0,0,1-1.15-1.82.53.53,0,0,0,0-.18c-.17-.42,0-.67.5-.78-.43-.28-.72-.59-.66-1.08s.48-.68,1-.84c-.72-.17-1.05-.54-.88-1.19s.42-.73,1.13-.83c-.6-.16-1.08-.47-1-1.13s.54-.74,1.06-.77c0-.06,0-.1,0-.1-.56-.13-.77-.35-.7-.75a1.25,1.25,0,0,1,1.16-.74A3.81,3.81,0,0,0,53.74,124.36Z"/><path class="cls-117" d="M52.81,134.5a40.14,40.14,0,0,0,4.73,1.12,30.4,30.4,0,0,0,5.39.54c0,.42.08.84.11,1.26a.64.64,0,0,0,.65.63c1.54.19,3.08.36,4.63.56l3.73.48,2.73.28c1.06.11,2.12.26,3.19.35.65.06,1.31,0,2,0,0,.37-.34,0-.42.23.32,0,.59,0,.38.49-.12.31-.06.68-.49.79a.42.42,0,0,0,0,.13h-.17s-.06,0-.09,0l-3.7-.28L70,140.7,65,140.3,61.43,140,57,139.73c-1.28-.08-2.56-.15-3.83-.33-.66-.09-.73-.14-.68-.82C52.56,137.22,52.69,135.86,52.81,134.5Z"/><path class="cls-122" d="M42.41,95.68c.12-1.92.05-3.84.09-5.76a13.17,13.17,0,0,0,2.76,2.34,11.32,11.32,0,0,0-.06,1.93Z"/><path class="cls-121" d="M45.2,94.19a11.32,11.32,0,0,1,.06-1.93l2,.89c-.12.24-.38.24-.57.34C46.17,93.74,45.68,94,45.2,94.19Z"/><path class="cls-118" d="M52.3,82.91c-.19-.63-.57-1.19-.74-1.84a15.08,15.08,0,0,1-.69-2.64c0-.2-.08-.27-.31-.23a2.56,2.56,0,0,1-2.39-1,4.81,4.81,0,0,1-.9-4.17,2.47,2.47,0,0,1,3.9-1.47.41.41,0,0,0,.53,0,48.52,48.52,0,0,0,10-7.06l2.51-2.24a.81.81,0,0,1,.89-.09,8.17,8.17,0,0,1,4.43,3.47A10,10,0,0,1,71,70.38,51.8,51.8,0,0,1,71.26,77a13.34,13.34,0,0,1-2.14,7,8.13,8.13,0,0,1-4.49,3.61c-.23.06-.21.21-.22.36a.73.73,0,0,0-.63-.13A10.13,10.13,0,0,1,59,87.75a11,11,0,0,1-6.37-4.51C52.58,83.1,52.51,82.92,52.3,82.91Zm7-13a1.71,1.71,0,0,0,1.21-.25.48.48,0,0,0-.12-.88,2.36,2.36,0,0,0-.38-.1,5.67,5.67,0,0,0-4.79,1.47c-.11.08-.24.2-.11.36s.24.06.35,0A9.06,9.06,0,0,1,56.72,70,7.34,7.34,0,0,1,59.32,69.87Zm11.07.37a1.1,1.1,0,0,0-.46-.72,5.19,5.19,0,0,0-3.27-1,1.21,1.21,0,0,0-.88.34.58.58,0,0,0-.2.55.47.47,0,0,0,.47.32,5.67,5.67,0,0,0,.82.07,4.51,4.51,0,0,1,3.06.59A.26.26,0,0,0,70.39,70.24Zm-3.78,3.34a1.57,1.57,0,0,0,.18.8.85.85,0,0,0,.87.46.72.72,0,0,0,.63-.64,1.88,1.88,0,0,0-.19-1.43.66.66,0,0,0-1.17-.12A1.37,1.37,0,0,0,66.61,73.58Zm-.89,8.52a.38.38,0,0,0,.44-.32.35.35,0,0,0-.21-.43.44.44,0,0,0-.59.08c-.1.12-.13.29-.27.39-1.25,1-3.47.92-4.22-.36a.45.45,0,0,0-.53-.2.3.3,0,0,0-.26.31.46.46,0,0,0,.36.44,4.68,4.68,0,0,1,.79.36,3.52,3.52,0,0,0,3.76,0C65.22,82.24,65.4,81.89,65.72,82.1Zm-2.4-3.53a.54.54,0,0,0,.24.47,1.2,1.2,0,0,0,1.59-.15,1.07,1.07,0,0,0,.37-1.42,14.66,14.66,0,0,1-1.32-3.26c-.11-.45-.2-.91-.31-1.36,0-.12,0-.34-.24-.3s-.09.23-.07.34c.06.37.15.74.21,1.11a17.15,17.15,0,0,0,1.26,3.47.93.93,0,0,1-.25,1.18C64.32,79.1,63.84,79,63.32,78.57Zm-4-4.85a1.4,1.4,0,0,0-.39-1.16.58.58,0,0,0-.93.09,1.89,1.89,0,0,0-.08,1.8.68.68,0,0,0,.66.41.69.69,0,0,0,.62-.47A1.49,1.49,0,0,0,59.29,73.72Z"/><path class="cls-123" d="M52.3,82.91c.21,0,.28.19.37.33A11,11,0,0,0,59,87.75a10.13,10.13,0,0,0,4.74.09.73.73,0,0,1,.63.13.06.06,0,0,1,0,.07,10.22,10.22,0,0,1-4.4.24,10.7,10.7,0,0,1-2.73-.73,10.48,10.48,0,0,1-4-3.08,8.24,8.24,0,0,1-.94-1.41Z"/><path class="cls-122" d="M41.49,78.28A1.72,1.72,0,0,1,42,77Z"/><path class="cls-122" d="M41.05,87.67a.46.46,0,0,1-.26-.6C40.87,87.27,41,87.47,41.05,87.67Z"/><path class="cls-122" d="M41.3,78.81c0-.19-.12-.41.19-.47Z"/><path class="cls-122" d="M42.48,89.89a.24.24,0,0,1-.25-.29Z"/><path class="cls-122" d="M42.09,76.72a.26.26,0,0,1,.14-.38A.88.88,0,0,1,42.09,76.72Z"/><path class="cls-122" d="M42,77c0-.11-.07-.23.11-.27C42.06,76.8,42,76.89,42,77Z"/><path class="cls-122" d="M41.19,79.07c0-.11,0-.23.12-.25Z"/><path class="cls-122" d="M40.79,87c-.2,0-.12-.13-.1-.24A2.44,2.44,0,0,1,40.79,87Z"/><path class="cls-122" d="M40.7,86.8c-.18,0-.13-.15-.11-.26C40.63,86.63,40.67,86.71,40.7,86.8Z"/><path class="cls-122" d="M40.61,86.55c-.12,0-.13-.09-.06-.18Z"/><path class="cls-122" d="M41.14,79.25a.11.11,0,0,1,.06-.19Z"/><path class="cls-122" d="M41.12,87.87c-.11,0-.11-.1-.08-.19S41.09,87.8,41.12,87.87Z"/><path class="cls-122" d="M41.21,88c-.11,0-.12-.1-.1-.18Z"/><path class="cls-122" d="M41.3,88.21c-.11,0-.12-.09-.1-.18Z"/><path class="cls-122" d="M41.52,88.58l-.11,0,.05-.06Z"/><path class="cls-122" d="M41.62,88.75c-.16,0-.06-.09-.09-.13Z"/><path class="cls-122" d="M42,89.28l-.1-.14Z"/><path class="cls-122" d="M42.06,89.37l-.09-.1Z"/><path class="cls-122" d="M42.13,89.46l-.08-.1Z"/><path class="cls-122" d="M41.36,88.32l-.07-.12Z"/><path class="cls-119" d="M81.23,128.7l.14-.49c0,.13,0,.31.23.22a1.16,1.16,0,0,1,.64,0c.12,0,.29,0,.28.19s-.18.13-.3.13C81.89,128.75,81.56,128.72,81.23,128.7Z"/><ellipse class="cls-123" cx="46.38" cy="120.98" rx="0.02" ry="5.61"/><path class="cls-123" d="M68.26,116.44a4.42,4.42,0,0,1,4.5,4.27,4.64,4.64,0,0,1-4.38,4.79,4.34,4.34,0,0,1-4.68-4.37A4.54,4.54,0,0,1,68.26,116.44Zm1.62,3.71c-.54,0-.7-.2-.62-.62s.09-.72.14-1.08c0-.13,0-.18-.16-.23-.42-.13-.87,0-1.29-.16-.21-.06-.31,0-.32.26,0,.46-.1.92-.13,1.39,0,.19,0,.29-.27.23-.41-.09-.83-.09-1.24-.21s-.56,0-.57.38-.07.73-.11,1.09c0,.17,0,.25.23.27.5,0,1,.14,1.51.2.22,0,.29.11.25.34-.07.5-.1,1-.19,1.51,0,.25,0,.29.25.32a4.86,4.86,0,0,1,1.19.2c.15.06.32,0,.34-.25,0-.51.13-1,.16-1.52,0-.3,0-.38.39-.33.51.07,1.13.33,1.51.08s.12-.87.19-1.33a1.09,1.09,0,0,0,0-.18.13.13,0,0,0-.15-.16A3.56,3.56,0,0,1,69.88,120.15Z"/><path class="cls-119" d="M59.32,69.87a7.34,7.34,0,0,0-2.6.08,9.06,9.06,0,0,0-1.24.53c-.11,0-.25.13-.35,0s0-.28.11-.36A5.67,5.67,0,0,1,60,68.64a2.36,2.36,0,0,1,.38.1.48.48,0,0,1,.12.88A1.71,1.71,0,0,1,59.32,69.87Z"/><path class="cls-119" d="M70.39,70.24a.26.26,0,0,1-.46.2,4.51,4.51,0,0,0-3.06-.59,5.67,5.67,0,0,1-.82-.07.47.47,0,0,1-.47-.32.58.58,0,0,1,.2-.55,1.21,1.21,0,0,1,.88-.34,5.19,5.19,0,0,1,3.27,1A1.1,1.1,0,0,1,70.39,70.24Z"/><path class="cls-119" d="M66.61,73.58a1.37,1.37,0,0,1,.32-.93.66.66,0,0,1,1.17.12,1.88,1.88,0,0,1,.19,1.43.72.72,0,0,1-.63.64.85.85,0,0,1-.87-.46A1.57,1.57,0,0,1,66.61,73.58Z"/><path class="cls-123" d="M65.72,82.1c-.32-.21-.5.14-.73.26a3.52,3.52,0,0,1-3.76,0,4.68,4.68,0,0,0-.79-.36.46.46,0,0,1-.36-.44.3.3,0,0,1,.26-.31.45.45,0,0,1,.53.2c.75,1.28,3,1.31,4.22.36.14-.1.17-.27.27-.39a.44.44,0,0,1,.59-.08.35.35,0,0,1,.21.43A.38.38,0,0,1,65.72,82.1Z"/><path class="cls-123" d="M63.32,78.57c.52.46,1,.53,1.48.08a.93.93,0,0,0,.25-1.18A17.15,17.15,0,0,1,63.79,74c-.06-.37-.15-.74-.21-1.11,0-.11-.09-.3.07-.34s.2.18.24.3c.11.45.2.91.31,1.36a14.66,14.66,0,0,0,1.32,3.26,1.07,1.07,0,0,1-.37,1.42,1.2,1.2,0,0,1-1.59.15A.54.54,0,0,1,63.32,78.57Z"/><path class="cls-119" d="M59.29,73.72a1.49,1.49,0,0,1-.12.67.69.69,0,0,1-.62.47.68.68,0,0,1-.66-.41,1.89,1.89,0,0,1,.08-1.8.58.58,0,0,1,.93-.09A1.4,1.4,0,0,1,59.29,73.72Z"/><path class="cls-122" d="M69.88,120.15a3.56,3.56,0,0,0,1.12.2.13.13,0,0,1,.15.16,1.09,1.09,0,0,1,0,.18c-.07.46.11,1.13-.19,1.33s-1,0-1.51-.08c-.34,0-.38,0-.39.33,0,.51-.11,1-.16,1.52,0,.24-.19.31-.34.25a4.86,4.86,0,0,0-1.19-.2c-.22,0-.29-.07-.25-.32.09-.5.12-1,.19-1.51,0-.23,0-.31-.25-.34-.51-.06-1-.15-1.51-.2-.2,0-.25-.1-.23-.27,0-.36.1-.72.11-1.09s.27-.47.57-.38.83.12,1.24.21c.25.06.26,0,.27-.23,0-.47.09-.93.13-1.39,0-.22.11-.32.32-.26.42.13.87,0,1.29.16.15,0,.18.1.16.23-.05.36-.08.72-.14,1.08S69.34,120.15,69.88,120.15Z"/><path class="cls-117" d="M82.83,104.31c-.33,0-.66-.07-1-.1v0L78.37,104l-8.13-.68c-2.36-.19-4.72-.35-7.08-.54-1.61-.12-3.22-.3-4.83-.41a17,17,0,0,0-2.76-.09q-.91,11.08-1.83,22.13c1,.31,2,.63,2.95,1a19.35,19.35,0,0,1,4.14,2.6l1.76,1.28a.58.58,0,0,1,.68-.52c.62,0,1.23,0,1.84,0,5.37,0,10.75-.08,16.12,0l.14-.49c0-.19,0-.38,0-.57.14-1.26.3-2.52.43-3.78.1-1,.17-2,.27-2.94.14-1.43.3-2.86.43-4.29s.26-2.72.38-4.08l.33-3.51s0,0,0,0c0-.44.07-.87.1-1.3.07-.86.15-1.71.19-2.56C83.61,104.6,83.39,104.38,82.83,104.31ZM68.38,125.5a4.34,4.34,0,0,1-4.68-4.37,4.54,4.54,0,0,1,4.56-4.69,4.42,4.42,0,0,1,4.5,4.27A4.64,4.64,0,0,1,68.38,125.5Z"/><path class="cls-117" d="M46.25,110.76c0-.08,0-.22-.14-.2s-.17.1-.16.21,0,.32,0,.48c.15,3.6.26,7.19.23,10.79,0,2.76,0,5.51-.07,8.27-.12,4.77-.11,9.55-.32,14.32-.15,3.23-.19,6.46-.45,9.69a5,5,0,0,0,0,.55,21.53,21.53,0,0,0,.26-2.25c0-.14-.06-.33.17-.39h0c.07-1.35.17-2.7.21-4.05.11-3.4.2-6.79.29-10.18,0-2.1.1-4.2.12-6.29.06-6.07.18-12.13,0-18.19C46.37,112.59,46.3,111.68,46.25,110.76ZM46.39,125h0V117h0Z"/><path class="cls-117" d="M79.13,141.39h.09S79.16,141.34,79.13,141.39Z"/></svg>