<svg id="Calque_1" data-name="Calque 1" xmlns="http://www.w3.org/2000/svg" xmlns:xlink="http://www.w3.org/1999/xlink" viewBox="0 0 303 208"><defs><style>.cls-1{fill:#55b3b3;}.cls-2{fill:#fff;}.cls-3{fill:#c6dbfe;}.cls-4{fill:url(#Dégradé_sans_nom_3);}.cls-5{fill:url(#Dégradé_sans_nom_2);}.cls-6{fill:#b8d1fe;}.cls-7{fill:#333349;}.cls-8{fill:#f4f3f2;}.cls-9{fill:#febd9f;}.cls-10{fill:#49ba75;}.cls-11{fill:red;}.cls-12{fill:#e5effe;}.cls-13{fill:#fefefe;}</style><linearGradient id="Dégradé_sans_nom_3" x1="3.51" y1="96" x2="125.51" y2="96" gradientUnits="userSpaceOnUse"><stop offset="0" stop-color="#7cbac2"/><stop offset="1" stop-color="#66dca3"/></linearGradient><linearGradient id="Dégradé_sans_nom_2" x1="2" y1="88" x2="124" y2="88" gradientUnits="userSpaceOnUse"><stop offset="0" stop-color="#329986"/><stop offset="1" stop-color="#05dd47"/></linearGradient></defs><title>pages_ims</title><rect class="cls-1" x="0.01" y="0.5" width="303" height="207" rx="29.38"/><path class="cls-2" d="M137.93,78.29a7.37,7.37,0,0,1,2.55.38A2.92,2.92,0,0,1,142,79.81a3.56,3.56,0,0,1,.49,2,3.16,3.16,0,0,1-.33,1.5,3.05,3.05,0,0,1-.85,1,5,5,0,0,1-1.14.65l3.39,5.29h-2.21l-2.89-4.79h-1.92v4.79h-2V78.29Zm-.13,1.64h-1.27v3.9h1.36a3.1,3.1,0,0,0,2-.5,1.84,1.84,0,0,0,.62-1.5,1.63,1.63,0,0,0-.66-1.47A3.76,3.76,0,0,0,137.8,79.93Z"/><path class="cls-2" d="M148.67,81a4.13,4.13,0,0,1,2.08.5,3.36,3.36,0,0,1,1.33,1.41,4.78,4.78,0,0,1,.46,2.19v1h-6a3,3,0,0,0,.71,2,2.46,2.46,0,0,0,1.89.71,6.74,6.74,0,0,0,1.56-.16,9.06,9.06,0,0,0,1.43-.5v1.56a6.26,6.26,0,0,1-1.38.47,8.21,8.21,0,0,1-1.69.15,5.11,5.11,0,0,1-2.34-.52,3.8,3.8,0,0,1-1.58-1.55,5.24,5.24,0,0,1-.57-2.56,5.9,5.9,0,0,1,.52-2.58,3.64,3.64,0,0,1,1.45-1.62A4.15,4.15,0,0,1,148.67,81Zm0,1.45a1.91,1.91,0,0,0-1.47.59,2.79,2.79,0,0,0-.66,1.72h4.12a3.21,3.21,0,0,0-.22-1.2,1.77,1.77,0,0,0-.65-.82A2,2,0,0,0,148.67,82.47Z"/><path class="cls-2" d="M158.36,90.41a4.73,4.73,0,0,1-2.23-.5,3.4,3.4,0,0,1-1.44-1.53,5.91,5.91,0,0,1-.51-2.62,5.57,5.57,0,0,1,.56-2.69,3.5,3.5,0,0,1,1.54-1.55,5,5,0,0,1,2.26-.5,6,6,0,0,1,1.46.16,5.81,5.81,0,0,1,1.12.39l-.57,1.54a10.25,10.25,0,0,0-1-.35,4.09,4.09,0,0,0-1-.14,2.28,2.28,0,0,0-1.32.36,2,2,0,0,0-.78,1,4.81,4.81,0,0,0-.26,1.73,4.63,4.63,0,0,0,.26,1.68,2.11,2.11,0,0,0,.78,1,2.2,2.2,0,0,0,1.26.34,4.51,4.51,0,0,0,1.33-.18,5.85,5.85,0,0,0,1.12-.46v1.67a4.26,4.26,0,0,1-1.11.43A5.89,5.89,0,0,1,158.36,90.41Z"/><path class="cls-2" d="M164.94,77.52v3.2c0,.33,0,.66,0,1s0,.56-.07.74H165a2.65,2.65,0,0,1,.7-.78,2.84,2.84,0,0,1,.94-.46,3.63,3.63,0,0,1,1.11-.16,4.06,4.06,0,0,1,1.76.35,2.42,2.42,0,0,1,1.12,1.07,4,4,0,0,1,.39,1.89v5.9h-1.92V84.7a2.44,2.44,0,0,0-.44-1.58,1.63,1.63,0,0,0-1.34-.53,2.28,2.28,0,0,0-1.38.37,1.91,1.91,0,0,0-.73,1.07,5.68,5.68,0,0,0-.23,1.72v4.49H163V77.52Z"/><path class="cls-2" d="M177.26,81a4.13,4.13,0,0,1,2.08.5,3.3,3.3,0,0,1,1.33,1.41,4.78,4.78,0,0,1,.47,2.19v1h-6a2.92,2.92,0,0,0,.7,2,2.47,2.47,0,0,0,1.9.71,6.71,6.71,0,0,0,1.55-.16,9.06,9.06,0,0,0,1.43-.5v1.56a5.92,5.92,0,0,1-1.38.47,8.21,8.21,0,0,1-1.69.15,5.17,5.17,0,0,1-2.34-.52,3.8,3.8,0,0,1-1.58-1.55,5.36,5.36,0,0,1-.56-2.56,5.9,5.9,0,0,1,.51-2.58,3.7,3.7,0,0,1,1.45-1.62A4.15,4.15,0,0,1,177.26,81Zm0,1.45a1.89,1.89,0,0,0-1.46.59,2.68,2.68,0,0,0-.66,1.72h4.12a3.21,3.21,0,0,0-.23-1.2,1.77,1.77,0,0,0-.65-.82A2,2,0,0,0,177.26,82.47Z"/><path class="cls-2" d="M187.89,81l.5,0a2.72,2.72,0,0,1,.46.06l-.18,1.8a2,2,0,0,0-.42-.07l-.44,0a2.88,2.88,0,0,0-1,.17,2.3,2.3,0,0,0-.83.51,2.18,2.18,0,0,0-.56.84,3.07,3.07,0,0,0-.21,1.18v4.73H183.3v-9h1.51l.26,1.6h.09a4.08,4.08,0,0,1,.67-.89,3.3,3.3,0,0,1,.92-.64A2.68,2.68,0,0,1,187.89,81Z"/><path class="cls-2" d="M194.18,90.41a4.73,4.73,0,0,1-2.23-.5,3.47,3.47,0,0,1-1.45-1.53,6.06,6.06,0,0,1-.5-2.62,5.69,5.69,0,0,1,.55-2.69,3.55,3.55,0,0,1,1.54-1.55,5,5,0,0,1,2.26-.5,6.08,6.08,0,0,1,1.47.16,5.81,5.81,0,0,1,1.12.39l-.57,1.54a9.61,9.61,0,0,0-1-.35,4,4,0,0,0-1-.14A2.28,2.28,0,0,0,193,83a2.12,2.12,0,0,0-.79,1,5.06,5.06,0,0,0-.25,1.73,4.63,4.63,0,0,0,.26,1.68,2.15,2.15,0,0,0,.77,1,2.25,2.25,0,0,0,1.27.34,4.51,4.51,0,0,0,1.33-.18,5.85,5.85,0,0,0,1.12-.46v1.67a4.41,4.41,0,0,1-1.11.43A5.89,5.89,0,0,1,194.18,90.41Z"/><path class="cls-2" d="M200.76,77.52v3.2c0,.33,0,.66,0,1a5.77,5.77,0,0,1-.06.74h.11a2.52,2.52,0,0,1,.7-.78,2.84,2.84,0,0,1,.94-.46,3.59,3.59,0,0,1,1.11-.16,4.06,4.06,0,0,1,1.76.35,2.42,2.42,0,0,1,1.12,1.07,4,4,0,0,1,.39,1.89v5.9h-1.92V84.7a2.44,2.44,0,0,0-.44-1.58,1.63,1.63,0,0,0-1.34-.53,2.28,2.28,0,0,0-1.38.37A2,2,0,0,0,201,84a6,6,0,0,0-.22,1.72v4.49h-1.92V77.52Z"/><path class="cls-2" d="M213.08,81a4.13,4.13,0,0,1,2.08.5,3.3,3.3,0,0,1,1.33,1.41,4.78,4.78,0,0,1,.47,2.19v1h-6a2.92,2.92,0,0,0,.7,2,2.46,2.46,0,0,0,1.89.71,6.74,6.74,0,0,0,1.56-.16,9.06,9.06,0,0,0,1.43-.5v1.56a5.92,5.92,0,0,1-1.38.47,8.21,8.21,0,0,1-1.69.15,5.11,5.11,0,0,1-2.34-.52,3.8,3.8,0,0,1-1.58-1.55,5.24,5.24,0,0,1-.56-2.56,5.9,5.9,0,0,1,.51-2.58,3.7,3.7,0,0,1,1.45-1.62A4.15,4.15,0,0,1,213.08,81Zm0,1.45a1.93,1.93,0,0,0-1.47.59,2.73,2.73,0,0,0-.65,1.72h4.12a3.21,3.21,0,0,0-.23-1.2,1.77,1.77,0,0,0-.65-.82A2,2,0,0,0,213.08,82.47Z"/><path class="cls-2" d="M227.08,81a4.12,4.12,0,0,1,2.07.5,3.3,3.3,0,0,1,1.33,1.41,4.78,4.78,0,0,1,.47,2.19v1h-6a2.92,2.92,0,0,0,.71,2,2.46,2.46,0,0,0,1.89.71,6.74,6.74,0,0,0,1.56-.16,9,9,0,0,0,1.42-.5v1.56a5.92,5.92,0,0,1-1.38.47,8.18,8.18,0,0,1-1.68.15,5.11,5.11,0,0,1-2.34-.52,3.75,3.75,0,0,1-1.58-1.55,5.24,5.24,0,0,1-.57-2.56,5.9,5.9,0,0,1,.51-2.58,3.76,3.76,0,0,1,1.45-1.62A4.18,4.18,0,0,1,227.08,81Zm0,1.45a1.9,1.9,0,0,0-1.47.59,2.79,2.79,0,0,0-.66,1.72h4.12a3.42,3.42,0,0,0-.22-1.2,1.86,1.86,0,0,0-.66-.82A2,2,0,0,0,227.08,82.47Z"/><path class="cls-2" d="M236.48,88.85a3.81,3.81,0,0,0,.75-.07,5.5,5.5,0,0,0,.67-.16v1.45a4.46,4.46,0,0,1-.83.24,6,6,0,0,1-1,.1,3.57,3.57,0,0,1-1.38-.26,2,2,0,0,1-1-.89,3.52,3.52,0,0,1-.36-1.74V82.66h-1.23V81.8l1.32-.68.63-1.94h1.21v2h2.59v1.47h-2.59V87.5a1.39,1.39,0,0,0,.35,1A1.25,1.25,0,0,0,236.48,88.85Z"/><path class="cls-2" d="M247.45,88.85a3.81,3.81,0,0,0,.75-.07,5.5,5.5,0,0,0,.67-.16v1.45a4.46,4.46,0,0,1-.83.24,6,6,0,0,1-1,.1,3.57,3.57,0,0,1-1.38-.26,2,2,0,0,1-1-.89,3.52,3.52,0,0,1-.36-1.74V82.66H243V81.8l1.32-.68.63-1.94h1.21v2h2.59v1.47H246.2V87.5a1.39,1.39,0,0,0,.35,1A1.25,1.25,0,0,0,247.45,88.85Z"/><path class="cls-2" d="M255.29,81l.5,0a2.85,2.85,0,0,1,.47.06l-.18,1.8a2.29,2.29,0,0,0-.42-.07l-.45,0a2.93,2.93,0,0,0-1,.17,2.3,2.3,0,0,0-.83.51,2.43,2.43,0,0,0-.56.84,3.07,3.07,0,0,0-.2,1.18v4.73h-1.93v-9h1.5l.26,1.6h.09a4.42,4.42,0,0,1,.67-.89,3.45,3.45,0,0,1,.92-.64A2.71,2.71,0,0,1,255.29,81Z"/><path class="cls-2" d="M265.94,85.7a6.15,6.15,0,0,1-.29,2,4.09,4.09,0,0,1-.86,1.48,3.66,3.66,0,0,1-1.36.91,4.76,4.76,0,0,1-1.79.32,4.44,4.44,0,0,1-1.7-.32,3.79,3.79,0,0,1-1.35-.91,4.28,4.28,0,0,1-.88-1.48,5.88,5.88,0,0,1-.31-2,5.58,5.58,0,0,1,.52-2.54,3.63,3.63,0,0,1,1.48-1.59,4.55,4.55,0,0,1,2.3-.55,4.34,4.34,0,0,1,2.21.55,3.76,3.76,0,0,1,1.49,1.59A5.51,5.51,0,0,1,265.94,85.7Zm-6.56,0a5.25,5.25,0,0,0,.24,1.69,2.08,2.08,0,0,0,.75,1.07,2.14,2.14,0,0,0,1.31.38,2.11,2.11,0,0,0,1.3-.38,2.08,2.08,0,0,0,.75-1.07A5.25,5.25,0,0,0,264,85.7a5.15,5.15,0,0,0-.24-1.68A2.14,2.14,0,0,0,263,83a2.19,2.19,0,0,0-1.31-.36,2,2,0,0,0-1.74.8A4,4,0,0,0,259.38,85.7Z"/><path class="cls-2" d="M276,81.19v9h-1.51L274.26,89h-.1a2.59,2.59,0,0,1-.73.78,3.25,3.25,0,0,1-1,.45,4.24,4.24,0,0,1-1.14.16,4,4,0,0,1-1.74-.35A2.42,2.42,0,0,1,268.46,89a4.08,4.08,0,0,1-.38-1.88V81.19H270v5.55a2.42,2.42,0,0,0,.43,1.58,1.61,1.61,0,0,0,1.33.52,2.39,2.39,0,0,0,1.39-.36,1.89,1.89,0,0,0,.73-1.06,5.71,5.71,0,0,0,.22-1.72V81.19Z"/><path class="cls-2" d="M280.85,90.24l-3.44-9h2l1.86,5.32c.12.33.23.7.33,1.09a9.62,9.62,0,0,1,.2,1h.07a7.76,7.76,0,0,1,.22-1q.17-.59.33-1.08l1.87-5.32h2l-3.44,9Z"/><path class="cls-2" d="M291.33,81a4.13,4.13,0,0,1,2.08.5,3.3,3.3,0,0,1,1.33,1.41,4.78,4.78,0,0,1,.47,2.19v1h-6a2.92,2.92,0,0,0,.7,2,2.47,2.47,0,0,0,1.9.71,6.71,6.71,0,0,0,1.55-.16,9.06,9.06,0,0,0,1.43-.5v1.56a5.92,5.92,0,0,1-1.38.47,8.21,8.21,0,0,1-1.69.15,5.17,5.17,0,0,1-2.34-.52,3.8,3.8,0,0,1-1.58-1.55,5.36,5.36,0,0,1-.56-2.56,5.9,5.9,0,0,1,.51-2.58,3.7,3.7,0,0,1,1.45-1.62A4.15,4.15,0,0,1,291.33,81Zm0,1.45a1.89,1.89,0,0,0-1.46.59,2.68,2.68,0,0,0-.66,1.72h4.12a3.21,3.21,0,0,0-.23-1.2,1.77,1.77,0,0,0-.65-.82A2,2,0,0,0,291.33,82.47Zm2.68-5v.16c-.14.16-.31.35-.54.57l-.72.69c-.27.25-.52.48-.78.7s-.49.41-.69.56H290v-.21q.27-.31.6-.75c.22-.29.44-.58.66-.89s.39-.58.54-.83Z"/><path class="cls-2" d="M142.26,101.28v9h-1.51l-.26-1.22h-.11a2.59,2.59,0,0,1-.73.78,3.25,3.25,0,0,1-1,.45,4.22,4.22,0,0,1-1.13.15,4,4,0,0,1-1.75-.34,2.42,2.42,0,0,1-1.11-1.08,4.08,4.08,0,0,1-.38-1.88v-5.91h1.93v5.55a2.42,2.42,0,0,0,.43,1.58,1.61,1.61,0,0,0,1.33.52,2.36,2.36,0,0,0,1.39-.36,1.94,1.94,0,0,0,.74-1.06,6.08,6.08,0,0,0,.21-1.72v-4.51Z"/><path class="cls-2" d="M149.72,101.11a3.38,3.38,0,0,1,2.39.79,3.3,3.3,0,0,1,.85,2.53v5.9H151v-5.54a2.44,2.44,0,0,0-.43-1.58,1.65,1.65,0,0,0-1.34-.53,2,2,0,0,0-1.83.81,4.43,4.43,0,0,0-.51,2.35v4.49H145v-9h1.49l.27,1.23h.11a2.6,2.6,0,0,1,.73-.78,3,3,0,0,1,1-.46A3.86,3.86,0,0,1,149.72,101.11Z"/><path class="cls-2" d="M161.91,97.61v3.2c0,.33,0,.65,0,1s0,.56-.06.74h.11a2.52,2.52,0,0,1,.7-.78,3.07,3.07,0,0,1,.94-.47,4.43,4.43,0,0,1,2.87.2,2.42,2.42,0,0,1,1.12,1.07,4.15,4.15,0,0,1,.38,1.89v5.9H166v-5.54a2.44,2.44,0,0,0-.43-1.58,1.65,1.65,0,0,0-1.34-.53,2.39,2.39,0,0,0-1.39.36,2,2,0,0,0-.73,1.07,6.17,6.17,0,0,0-.22,1.73v4.49H160V97.61Z"/><path class="cls-2" d="M178.64,105.79a6.14,6.14,0,0,1-.3,2,3.84,3.84,0,0,1-.86,1.47,3.61,3.61,0,0,1-1.35.92,4.84,4.84,0,0,1-1.79.31,4.49,4.49,0,0,1-1.71-.31,3.69,3.69,0,0,1-1.35-.92,4.15,4.15,0,0,1-.88-1.47,6.13,6.13,0,0,1-.31-2,5.72,5.72,0,0,1,.52-2.54,3.59,3.59,0,0,1,1.49-1.59,4.51,4.51,0,0,1,2.29-.55,4.32,4.32,0,0,1,2.21.55,3.73,3.73,0,0,1,1.5,1.59A5.48,5.48,0,0,1,178.64,105.79Zm-6.57,0a5.25,5.25,0,0,0,.24,1.69,2.08,2.08,0,0,0,.75,1.07,2.14,2.14,0,0,0,3.36-1.07,5.25,5.25,0,0,0,.24-1.69,5.15,5.15,0,0,0-.24-1.68,2.14,2.14,0,0,0-.74-1.06,2.24,2.24,0,0,0-1.32-.36,2,2,0,0,0-1.74.8A4,4,0,0,0,172.07,105.79Z"/><path class="cls-2" d="M185.49,101.11a3.17,3.17,0,0,1,2.58,1.18,5.37,5.37,0,0,1,1,3.5,6.55,6.55,0,0,1-.45,2.58,3.59,3.59,0,0,1-1.27,1.59,3.32,3.32,0,0,1-1.89.53,3.61,3.61,0,0,1-1.2-.18,2.84,2.84,0,0,1-.86-.47,3.3,3.3,0,0,1-.61-.63h-.11c0,.22.05.46.08.72s0,.51,0,.73v3.68h-1.93V101.28h1.57l.27,1.25h.09a4.1,4.1,0,0,1,.62-.71,2.74,2.74,0,0,1,.88-.52A3.47,3.47,0,0,1,185.49,101.11Zm-.52,1.57a2.36,2.36,0,0,0-1.27.31,1.82,1.82,0,0,0-.7,1,5.28,5.28,0,0,0-.23,1.58v.27a6,6,0,0,0,.21,1.7,1.93,1.93,0,0,0,.7,1.06,2.09,2.09,0,0,0,1.32.37,1.75,1.75,0,0,0,1.16-.39,2.23,2.23,0,0,0,.69-1.09,5.64,5.64,0,0,0,.23-1.68,4.17,4.17,0,0,0-.52-2.27A1.77,1.77,0,0,0,185,102.68Z"/><path class="cls-2" d="M192.24,97.82a1.29,1.29,0,0,1,.76.23,1.2,1.2,0,0,1,0,1.63,1.18,1.18,0,0,1-.76.25,1.15,1.15,0,0,1-.77-.25,1.2,1.2,0,0,1,0-1.63A1.26,1.26,0,0,1,192.24,97.82Zm.95,3.46v9h-1.93v-9Z"/><path class="cls-2" d="M199.3,108.94a3.64,3.64,0,0,0,.74-.07,3.85,3.85,0,0,0,.67-.17v1.46a4.33,4.33,0,0,1-.82.24,6.06,6.06,0,0,1-1.06.09,3.57,3.57,0,0,1-1.38-.25,2,2,0,0,1-1-.89,3.52,3.52,0,0,1-.36-1.74v-4.86h-1.23v-.86l1.32-.68.63-1.94h1.21v2h2.59v1.47h-2.59v4.83a1.39,1.39,0,0,0,.34,1A1.26,1.26,0,0,0,199.3,108.94Z"/><path class="cls-2" d="M206.1,101.11a3.86,3.86,0,0,1,2.6.76,3,3,0,0,1,.88,2.37v6.09h-1.37l-.37-1.28h-.06a5.12,5.12,0,0,1-.8.81,2.68,2.68,0,0,1-.94.47,4.48,4.48,0,0,1-1.3.16,3.35,3.35,0,0,1-1.45-.29,2.3,2.3,0,0,1-1-.92,3,3,0,0,1-.36-1.55,2.36,2.36,0,0,1,1-2.1,6,6,0,0,1,3.15-.78l1.57,0v-.48a1.49,1.49,0,0,0-1.67-1.74,4.54,4.54,0,0,0-1.32.2,9.9,9.9,0,0,0-1.24.48l-.62-1.36a7.42,7.42,0,0,1,1.51-.57A6.79,6.79,0,0,1,206.1,101.11Zm1.57,4.9-1.17,0a3.6,3.6,0,0,0-2,.49,1.45,1.45,0,0,0-.58,1.21,1.16,1.16,0,0,0,.4,1,1.67,1.67,0,0,0,1.06.31,2.43,2.43,0,0,0,1.65-.57,2.08,2.08,0,0,0,.66-1.67Z"/><path class="cls-2" d="M214.19,110.33h-1.93V97.61h1.93Z"/><path class="cls-2" d="M227,114.34V110.5c0-.22,0-.45,0-.71a4.88,4.88,0,0,1,.07-.7H227a3.15,3.15,0,0,1-1,1,3.23,3.23,0,0,1-1.71.4,3.16,3.16,0,0,1-2.57-1.18,5.36,5.36,0,0,1-1-3.49,6.48,6.48,0,0,1,.45-2.58,3.5,3.5,0,0,1,1.26-1.59,3.33,3.33,0,0,1,1.89-.54,3.13,3.13,0,0,1,1.69.41,3.29,3.29,0,0,1,1,1h.07l.21-1.23H229v13.06ZM224.86,109a2.4,2.4,0,0,0,1.31-.31,1.75,1.75,0,0,0,.71-1,4.94,4.94,0,0,0,.24-1.57v-.29a4.47,4.47,0,0,0-.5-2.34,1.94,1.94,0,0,0-1.78-.8,1.75,1.75,0,0,0-1.6.84,4.34,4.34,0,0,0-.52,2.32,4.18,4.18,0,0,0,.53,2.3A1.8,1.8,0,0,0,224.86,109Z"/><path class="cls-2" d="M239.59,101.28v9h-1.51l-.26-1.22h-.11a2.59,2.59,0,0,1-.73.78,3.25,3.25,0,0,1-1,.45,4.22,4.22,0,0,1-1.13.15,4,4,0,0,1-1.75-.34,2.42,2.42,0,0,1-1.11-1.08,4.08,4.08,0,0,1-.38-1.88v-5.91h1.93v5.55a2.42,2.42,0,0,0,.43,1.58,1.61,1.61,0,0,0,1.33.52,2.36,2.36,0,0,0,1.39-.36,1.87,1.87,0,0,0,.73-1.06,5.71,5.71,0,0,0,.22-1.72v-4.51Z"/><path class="cls-2" d="M243.31,97.82a1.29,1.29,0,0,1,.76.23,1.17,1.17,0,0,1,0,1.63,1.3,1.3,0,0,1-1.53,0,1.2,1.2,0,0,1,0-1.63A1.28,1.28,0,0,1,243.31,97.82Zm.95,3.46v9h-1.92v-9Z"/><path class="cls-2" d="M253.42,110.33l-3.44-9h2l1.87,5.32c.12.33.23.7.33,1.09s.16.72.2,1h.07a6.37,6.37,0,0,1,.22-1c.1-.39.22-.75.33-1.08l1.87-5.32h2l-3.44,9Z"/><path class="cls-2" d="M268.31,105.79a6.14,6.14,0,0,1-.3,2,3.84,3.84,0,0,1-.86,1.47,3.61,3.61,0,0,1-1.35.92,4.84,4.84,0,0,1-1.79.31,4.49,4.49,0,0,1-1.71-.31,3.69,3.69,0,0,1-1.35-.92,4.15,4.15,0,0,1-.88-1.47,6.13,6.13,0,0,1-.31-2,5.72,5.72,0,0,1,.52-2.54,3.59,3.59,0,0,1,1.49-1.59,4.51,4.51,0,0,1,2.29-.55,4.32,4.32,0,0,1,2.21.55,3.73,3.73,0,0,1,1.5,1.59A5.48,5.48,0,0,1,268.31,105.79Zm-6.57,0a5.25,5.25,0,0,0,.24,1.69,2.08,2.08,0,0,0,.75,1.07,2.14,2.14,0,0,0,3.36-1.07,5.25,5.25,0,0,0,.24-1.69,5.15,5.15,0,0,0-.24-1.68,2.14,2.14,0,0,0-.74-1.06,2.24,2.24,0,0,0-1.32-.36,2,2,0,0,0-1.74.8A4,4,0,0,0,261.74,105.79Z"/><path class="cls-2" d="M278.4,101.28v9h-1.51l-.26-1.22h-.11a2.59,2.59,0,0,1-.73.78,3.25,3.25,0,0,1-1,.45,4.22,4.22,0,0,1-1.13.15,4,4,0,0,1-1.75-.34,2.42,2.42,0,0,1-1.11-1.08,4.08,4.08,0,0,1-.38-1.88v-5.91h1.93v5.55a2.42,2.42,0,0,0,.43,1.58,1.61,1.61,0,0,0,1.33.52,2.36,2.36,0,0,0,1.39-.36,1.94,1.94,0,0,0,.74-1.06,6.08,6.08,0,0,0,.21-1.72v-4.51Z"/><path class="cls-2" d="M287.23,107.75a2.6,2.6,0,0,1-.43,1.5,2.63,2.63,0,0,1-1.27.93,5.74,5.74,0,0,1-2,.31,8.61,8.61,0,0,1-1.63-.13,6.26,6.26,0,0,1-1.29-.41v-1.66a9.79,9.79,0,0,0,1.45.52,5.71,5.71,0,0,0,1.53.22,2.36,2.36,0,0,0,1.36-.3.92.92,0,0,0,.42-.79.82.82,0,0,0-.17-.53,1.75,1.75,0,0,0-.62-.48,10.76,10.76,0,0,0-1.33-.6,10.88,10.88,0,0,1-1.44-.69,2.47,2.47,0,0,1-.89-.83,2.25,2.25,0,0,1-.31-1.25,2,2,0,0,1,1-1.82,4.48,4.48,0,0,1,2.52-.63,7.2,7.2,0,0,1,1.57.17,7.7,7.7,0,0,1,1.45.48l-.6,1.45a8.64,8.64,0,0,0-1.23-.44,4.46,4.46,0,0,0-1.26-.18,2.3,2.3,0,0,0-1.13.23.71.71,0,0,0-.39.65.76.76,0,0,0,.19.54,1.87,1.87,0,0,0,.65.44c.31.15.74.33,1.29.55a11.65,11.65,0,0,1,1.4.65,2.62,2.62,0,0,1,.91.83A2.32,2.32,0,0,1,287.23,107.75Z"/><path class="cls-2" d="M138,130.58a4.55,4.55,0,0,1-2.22-.5,3.34,3.34,0,0,1-1.45-1.52,5.91,5.91,0,0,1-.51-2.62,5.76,5.76,0,0,1,.56-2.7,3.47,3.47,0,0,1,1.54-1.54,5,5,0,0,1,2.26-.5,6.08,6.08,0,0,1,1.47.16,4.63,4.63,0,0,1,1.11.39l-.57,1.53a8.71,8.71,0,0,0-1-.34,4.09,4.09,0,0,0-1-.14,2.36,2.36,0,0,0-1.32.35,2.12,2.12,0,0,0-.78,1,5,5,0,0,0-.26,1.72,4.78,4.78,0,0,0,.26,1.68,2.08,2.08,0,0,0,.78,1,2.13,2.13,0,0,0,1.26.35,4.57,4.57,0,0,0,1.34-.18,5.44,5.44,0,0,0,1.11-.47V130a4.22,4.22,0,0,1-1.1.44A6.09,6.09,0,0,1,138,130.58Z"/><path class="cls-2" d="M150.7,125.87a6.2,6.2,0,0,1-.3,2,3.84,3.84,0,0,1-.86,1.47,3.65,3.65,0,0,1-1.35.92,4.84,4.84,0,0,1-1.79.31,4.52,4.52,0,0,1-1.71-.31,3.82,3.82,0,0,1-1.35-.92,4.13,4.13,0,0,1-.87-1.47,5.93,5.93,0,0,1-.32-2,5.7,5.7,0,0,1,.52-2.53,3.59,3.59,0,0,1,1.49-1.59,4.51,4.51,0,0,1,2.29-.55,4.32,4.32,0,0,1,2.21.55,3.73,3.73,0,0,1,1.5,1.59A5.46,5.46,0,0,1,150.7,125.87Zm-6.57,0a5.32,5.32,0,0,0,.24,1.7,2.13,2.13,0,0,0,.75,1.07,2.5,2.5,0,0,0,2.62,0,2.11,2.11,0,0,0,.74-1.07,5.32,5.32,0,0,0,.24-1.7,5.23,5.23,0,0,0-.24-1.68,2.06,2.06,0,0,0-.74-1,2.24,2.24,0,0,0-1.32-.36,2,2,0,0,0-1.74.8A4.08,4.08,0,0,0,144.13,125.87Z"/><path class="cls-2" d="M157.62,121.2A3.35,3.35,0,0,1,160,122a3.29,3.29,0,0,1,.86,2.53v5.9h-1.92v-5.54a2.42,2.42,0,0,0-.44-1.58,1.6,1.6,0,0,0-1.34-.53,2,2,0,0,0-1.82.81,4.41,4.41,0,0,0-.52,2.34v4.5H152.9v-9h1.5l.27,1.23h.11a2.48,2.48,0,0,1,.73-.78,3.29,3.29,0,0,1,1-.47A4.22,4.22,0,0,1,157.62,121.2Z"/><path class="cls-2" d="M165.61,130.42l-3.44-9h2l1.86,5.31c.12.34.23.71.33,1.1a10,10,0,0,1,.21,1h.06a7.76,7.76,0,0,1,.22-1c.11-.39.22-.75.34-1.09l1.86-5.31h2l-3.44,9Z"/><path class="cls-2" d="M173.45,117.9a1.26,1.26,0,0,1,.77.24,1.2,1.2,0,0,1,0,1.63,1.26,1.26,0,0,1-.77.24,1.24,1.24,0,0,1-.77-.24,1.23,1.23,0,0,1,0-1.63A1.24,1.24,0,0,1,173.45,117.9Zm1,3.47v9h-1.92v-9Z"/><path class="cls-2" d="M180.75,121.2a4.13,4.13,0,0,1,2.08.5,3.3,3.3,0,0,1,1.33,1.41,4.78,4.78,0,0,1,.47,2.19v1h-6a2.93,2.93,0,0,0,.7,2,2.5,2.5,0,0,0,1.9.71,6.69,6.69,0,0,0,1.55-.17,8.08,8.08,0,0,0,1.43-.49V130a6.43,6.43,0,0,1-1.38.47,9.06,9.06,0,0,1-1.69.14,5,5,0,0,1-2.34-.52,3.61,3.61,0,0,1-1.57-1.55,5.17,5.17,0,0,1-.57-2.55,6,6,0,0,1,.51-2.59,3.88,3.88,0,0,1,1.45-1.62A4.14,4.14,0,0,1,180.75,121.2Zm0,1.45a1.92,1.92,0,0,0-1.46.58,2.73,2.73,0,0,0-.66,1.73h4.12a3.21,3.21,0,0,0-.23-1.2,1.77,1.77,0,0,0-.65-.82A1.92,1.92,0,0,0,180.75,122.65Z"/><path class="cls-2" d="M191.51,121.2a3.35,3.35,0,0,1,2.38.79,3.29,3.29,0,0,1,.86,2.53v5.9h-1.92v-5.54a2.42,2.42,0,0,0-.44-1.58,1.6,1.6,0,0,0-1.34-.53,2,2,0,0,0-1.82.81,4.32,4.32,0,0,0-.52,2.34v4.5h-1.92v-9h1.5l.27,1.23h.11a2.48,2.48,0,0,1,.73-.78,3.29,3.29,0,0,1,1-.47A4.22,4.22,0,0,1,191.51,121.2Z"/><path class="cls-2" d="M200.8,129a3.71,3.71,0,0,0,.74-.07,5,5,0,0,0,.67-.17v1.46a3.86,3.86,0,0,1-.83.23,5.06,5.06,0,0,1-1,.1,3.57,3.57,0,0,1-1.38-.25,2,2,0,0,1-1-.89,3.52,3.52,0,0,1-.36-1.74v-4.87h-1.24V122l1.33-.68.63-1.94h1.21v2h2.59v1.46h-2.59v4.84a1.35,1.35,0,0,0,.34,1A1.22,1.22,0,0,0,200.8,129Z"/><circle class="cls-3" cx="66.01" cy="104" r="61"/><circle class="cls-4" cx="64.51" cy="96" r="61"/><circle class="cls-5" cx="63" cy="88" r="61"/><path class="cls-6" d="M20.28,108.76a29.56,29.56,0,0,1,5.32-4.6,15.12,15.12,0,0,1,5.25-2.49c.6-.07,1.19-.17,1.78-.2a17.65,17.65,0,0,1,6.13.69c.68.21,1.35.44,2,.67a3,3,0,0,0,.77.37,22.36,22.36,0,0,1,4.94,3.53,14.73,14.73,0,0,1,2.34,3l.36.67a21.36,21.36,0,0,1,1.37,4.21c.69,3,1.47,6,2.36,9,1-1.86,1.92-3.67,2.87-5.47A21.31,21.31,0,0,1,57,115.94a7.73,7.73,0,0,1,3.61.1,8.93,8.93,0,0,1,2,1.06c.1.11.25.15.21.38a91.26,91.26,0,0,1-2.61,11.19c-.45,1.47-1,2.92-1.5,4.37A18,18,0,0,1,57.15,136a6.19,6.19,0,0,1-7.63,2.24c-.31-.12-.61-.25-1-.4l.07,1H22.85c-.13-.43,0-.89-.12-1.33,0,0-.08,0-.08.05,0,.43,0,.85.05,1.28H18c-.13-1.64-.28-3.29-.38-4.93-.08-1.24-.1-2.49-.16-3.73-.09-2.25-.1-4.49-.08-6.74,0-1.85.1-3.7.3-5.55a4,4,0,0,0,0-.49c.13-.85.23-1.71.38-2.55A13.21,13.21,0,0,1,20.28,108.76Zm24.2,23.64a3.58,3.58,0,0,0,.5.87,3.28,3.28,0,0,0-.45-.92,2.31,2.31,0,0,0-.1-.28,41.36,41.36,0,0,1-2.12-5.48,62.21,62.21,0,0,1-1.94-7.51,2.75,2.75,0,0,0-.23-1,.21.21,0,0,0,0,.15,59.76,59.76,0,0,0,1.81,7.47A43.2,43.2,0,0,0,44.48,132.4Zm-22.69-5.64c-.29-3.17-.76-6.3-1.31-9.43C20.91,120.47,21.39,123.61,21.79,126.76Zm.57,5.45h-.11l.34,4.68C22.64,135.33,22.46,133.78,22.36,132.21Zm-.16-.56h.11l-.4-4.35H21.8ZM53,124l-.09,0a16.37,16.37,0,0,0,1,2.55Z"/><path class="cls-7" d="M22.7,138.77c0-.43,0-.85-.05-1.28,0,0,0,0,.08-.05.1.44,0,.9.12,1.33Z"/><path class="cls-8" d="M46.49,106.73a22.36,22.36,0,0,0-4.94-3.53c0-1,0-2,0-3,0-.37.11-.45.47-.45H55.36c.33,0,.44-.06.47-.43.13-1.74,0-3.48.05-5.22,0-.36.09-.47.46-.47q22.74,0,45.47,0c.4,0,.49.12.48.49,0,1.73,0,3.46,0,5.19,0,.36.12.44.46.44,4.83,0,9.66,0,14.49,0,.4,0,.49.11.49.5q0,15.92,0,31.85a1.68,1.68,0,0,0,0,.45c.15.4-.07.41-.37.41H93.73c0-.56,0-1.12,0-1.68,0-.23-.07-.31-.31-.31-.71,0-1.42,0-2.13,0,0-.42,0-.84,0-1.26s-.09-.35-.35-.34c-1.06,0-2.11,0-3.17,0-.3,0-.38-.09-.38-.39q0-8.28,0-16.55c.61,0,1.22,0,1.83,0,.22,0,.31-.07.3-.31,0-.42,0-.83,0-1.25s0-.5-.49-.5H69.66c-.3,0-.59,0-.88,0s-.31.09-.3.31c0,.49,0,1,0,1.45,0,.23.07.31.3.31.64,0,1.27,0,1.91,0q0,8.28,0,16.55c0,.3-.09.39-.39.39-1,0-2,0-3,0-.26,0-.36.07-.35.34s0,.84,0,1.26c-.7,0-1.4,0-2.09,0-.27,0-.36.08-.35.35,0,.54,0,1.09,0,1.64h-5.3a1.15,1.15,0,0,0-.52.07c.53-1.45,1-2.9,1.5-4.37a91.26,91.26,0,0,0,2.61-11.19c0-.23-.11-.27-.21-.38a13.77,13.77,0,0,1,1.25-3,6.66,6.66,0,0,0,.54-5.15,22.9,22.9,0,0,1-.79-3.27c.69,0,1.37,0,2.05,0,.34,0,.42-.12.39-.42a6.84,6.84,0,0,1-.07-.91c0-1,0-1.92,0-2.88v-.61c0-1.39,0-2.77,0-4.16,0-.26-.08-.36-.35-.34-.55,0-1.11.06-1.67.06-1.17,0-2.33,0-3.5-.06-.34,0-.46.08-.45.44,0,1,.09,2,0,3a.65.65,0,0,0,.07.41h-.64c-.85,0-1.71,0-2.56,0a.94.94,0,0,0-1.06.89c-.2,1.23-.37,2.47-.55,3.71l-.54,3.81c-.15,1-.32,2-.44,3-.1.72.2,1,.94,1H57.4a25.8,25.8,0,0,0-.38,3.18,21.31,21.31,0,0,0-1.23,2.25c-.95,1.8-1.89,3.61-2.87,5.47-.89-3-1.67-6-2.36-9h1.26c.15,0,.27,0,.26-.23,0-1.35.08-2.7-.08-4.05v-.6c0-1.42,0-2.84,0-4.26,0-.24-.06-.34-.32-.34H46.74c-.26,0-.35.11-.3.34A6.13,6.13,0,0,1,46.49,106.73Zm51.67,15c.14-.17.06-.36.07-.54s-.06-.41-.06-.61c0-1.23,0-2.46,0-3.69,0-.26-.06-.36-.34-.36-1.7,0-3.4,0-5.1,0-.33,0-.37.13-.37.4,0,1.43,0,2.85,0,4.27a.7.7,0,0,0,0,.6c0,1.2,0,2.39,0,3.58,0,.33.1.4.41.41,1.7,0,3.41-.09,5.11.06.31,0,.39-.09.37-.39-.08-1.13-.08-2.26-.07-3.39C98.17,122,98.17,121.87,98.16,121.75ZM87.4,101.54v-.63c0-.42-.06-.83-.06-1.25,0-1,0-2,0-3,0-.26-.06-.36-.34-.36H81.9c-.27,0-.38.06-.37.36,0,1.43,0,2.86,0,4.3v.62c0,.48,0,1,.06,1.44,0,.75,0,1.5,0,2.24,0,.37.12.45.46.44.78,0,1.57,0,2.36,0s1.77,0,2.66,0c.29,0,.35,0,.34-.3C87.4,104.1,87.4,102.82,87.4,101.54Zm-16.63,0c0,1.27,0,2.54.06,3.81,0,.26.11.31.34.31H76.4c.25,0,.34-.08.32-.33,0-.43-.06-.86-.07-1.29,0-.83,0-1.67,0-2.51v-.61c0-1.41,0-2.82,0-4.22,0-.3-.1-.36-.37-.36-1.72,0-3.43,0-5.14,0-.29,0-.38.08-.37.36,0,1.41,0,2.82,0,4.23Zm35.41,21.68c0,1.29.12,2.58.07,3.88,0,.26.1.32.33.32h5.11c.29,0,.38-.08.37-.37,0-1.28-.06-2.56-.08-3.84v-4.88c0-.18,0-.32-.25-.31-1.72,0-3.45-.06-5.17-.07-.23,0-.3.08-.31.31,0,1.44,0,2.89-.06,4.34Zm-8-21.68v-.61c0-1.44,0-2.87,0-4.31,0-.25,0-.35-.33-.35H92.69c-.24,0-.34.06-.34.32.05,1.44,0,2.89-.06,4.33v.63a6.22,6.22,0,0,1,0,1.14c0,.89,0,1.78,0,2.67,0,.31.1.38.39.38,1.7,0,3.41,0,5.11,0,.3,0,.41-.09.38-.39C98.15,104.07,98.16,102.8,98.16,101.53ZM112,110.46V105.7c0-.26-.06-.36-.33-.35-1.69,0-3.38,0-5.07,0-.24,0-.34.06-.33.32.06,1.39-.07,2.78-.06,4.18v.62c0,1.29.06,2.59.06,3.88,0,.3.09.39.39.38q2.55,0,5.1-.06c.28,0,.34-.12.33-.36,0-.8-.06-1.6-.08-2.4C112,111.43,112,111,112,110.46Z"/><path class="cls-7" d="M31.71,96.1a5.33,5.33,0,0,1-2.13-3,5.74,5.74,0,0,0-1.13-2,11,11,0,0,1-2.58-4.63,8.11,8.11,0,0,1,.22-5.15,5.29,5.29,0,0,1,2-2.27.76.76,0,0,0,.32-.47,5.13,5.13,0,0,1,3-3.31,11.36,11.36,0,0,1,2.42-.7,7.34,7.34,0,0,1,3.81.16,25.94,25.94,0,0,0,3.44.89,2.15,2.15,0,0,0,1.69-.26c.89-.62,1.49-.38,1.73.68,0,.07,0,.13,0,.22a1.87,1.87,0,0,1,1-.2.69.69,0,0,1,.74.48,2,2,0,0,1-.08,1.79,6.86,6.86,0,0,1-1.39,1.55c-.23.19-.46.36-.68.55s-.25.42,0,.63l.29.18a.71.71,0,0,1,.2,1.21,2.31,2.31,0,0,1-1.24.7,3.4,3.4,0,0,1-1.31,0A9.22,9.22,0,0,1,42,88.6a11.54,11.54,0,0,0-1.19-1.15A1.69,1.69,0,0,0,39.13,87,2,2,0,0,0,38,90.11a3.35,3.35,0,0,0,1.6,1.35.29.29,0,0,1,.2.38,7.15,7.15,0,0,1-.35,1.36,4.94,4.94,0,0,1-2.81,3A6.44,6.44,0,0,1,31.71,96.1Z"/><path class="cls-9" d="M31.71,96.1a6.44,6.44,0,0,0,5,.1,4.94,4.94,0,0,0,2.81-3,7.15,7.15,0,0,0,.35-1.36.29.29,0,0,0-.2-.38A3.35,3.35,0,0,1,38,90.11,2,2,0,0,1,39.13,87a1.69,1.69,0,0,1,1.65.44A11.54,11.54,0,0,1,42,88.6a9.22,9.22,0,0,0,.13-5.45,3.4,3.4,0,0,0,1.31,0,2.31,2.31,0,0,0,1.24-.7.71.71,0,0,0-.2-1.21l-.29-.18c-.27-.21-.28-.4,0-.63s.45-.36.68-.55c.12.22.25.44.38.66a7.07,7.07,0,0,1,.81,4,15.18,15.18,0,0,0,.06,3.3,2.38,2.38,0,0,0,.75,1.34,1.93,1.93,0,0,1,.45.61.94.94,0,0,1-.62,1.39c-.39.11-.47.29-.45.66a7.63,7.63,0,0,1-.76,3.76,4.52,4.52,0,0,1-.9,1.27,2,2,0,0,1-1.24.52,8,8,0,0,1-2-.2c-.28,0-.33.06-.36.28a15.39,15.39,0,0,0-.17,2.35c0,1,0,2,0,3-.67-.23-1.34-.46-2-.67a17.65,17.65,0,0,0-6.13-.69c-.59,0-1.18.13-1.78.2a2.33,2.33,0,0,0,.7-1.78A36.83,36.83,0,0,0,31.71,96.1Z"/><path class="cls-10" d="M20.28,108.76a13.21,13.21,0,0,0-2.24,6c-.15.84-.25,1.7-.38,2.55-.31.25-.53.62-1,.68v-13.3c-.16.08-.11.18-.12.26-.08.82,0,1.63,0,2.44-.05,1.81,0,3.61,0,5.42s.08,3.46,0,5.18a1.16,1.16,0,0,1-1.24-.37,4.08,4.08,0,0,1-1-1.67,18.58,18.58,0,0,1-1-4.66,36.63,36.63,0,0,1-.21-4.56,30.34,30.34,0,0,1,1.24-8.31,7.51,7.51,0,0,1,1.33-2.63,1.26,1.26,0,0,1,2-.11,5.73,5.73,0,0,1,1.22,2.18A21.74,21.74,0,0,1,20,103.1c.12,1.2.17,2.4.24,3.6C20.24,107.39,20.25,108.07,20.28,108.76Z"/><path class="cls-11" d="M86.27,77.26a7.8,7.8,0,0,1-1,2.81,6.86,6.86,0,0,1-5.75,3.39,6.94,6.94,0,0,1-7.28-5.64,1.72,1.72,0,0,0-.1-.55,8.45,8.45,0,0,1,.44-3.49,7.09,7.09,0,0,1,13.5.86A7.46,7.46,0,0,1,86.27,77.26Zm-7.08,3.6c.42,0,.84,0,1.26,0,.25,0,.32-.06.32-.32,0-.76,0-1.52,0-2.28,0-.26.07-.32.32-.32.74,0,1.47,0,2.21,0,.23,0,.31,0,.3-.29,0-.84,0-1.68,0-2.52,0-.25-.07-.32-.32-.32-.71,0-1.43,0-2.14,0-.33,0-.39-.1-.38-.41,0-.75,0-1.5,0-2.25,0-.25,0-.35-.33-.35-.82,0-1.65,0-2.48,0-.25,0-.32.08-.31.33,0,.78,0,1.57,0,2.36,0,.25-.08.32-.32.31-.71,0-1.42,0-2.14,0-.23,0-.33,0-.33.31q0,1.26,0,2.52c0,.27.1.31.33.3.69,0,1.38,0,2.06,0,.29,0,.4,0,.39.37,0,.76,0,1.52,0,2.29,0,.19,0,.27.25.26C78.32,80.85,78.76,80.86,79.19,80.86Z"/><path class="cls-6" d="M64.52,133c0-.55,0-1.1,0-1.64,0-.27.08-.36.35-.35.69,0,1.39,0,2.09,0H91.3c.71,0,1.42,0,2.13,0,.24,0,.31.08.31.31,0,.56,0,1.12,0,1.68Z"/><path class="cls-6" d="M95.57,73.42a7.18,7.18,0,0,1,1.21-.82,39.46,39.46,0,0,1,3.63-2.07A4.74,4.74,0,0,1,103,70.1a1.42,1.42,0,0,1,1.06.67c.33.48.33.48.76.06a9.37,9.37,0,0,1,1.45-1.22,2.1,2.1,0,0,1,2.84.37,2.12,2.12,0,0,1,.26,1.81,4.78,4.78,0,0,1-.73,1.67.64.64,0,0,1-.57.3c-1.78,0-3.55-.13-5.32-.19-2-.06-3.94,0-5.9,0C96.42,73.52,96,73.46,95.57,73.42Z"/><path class="cls-6" d="M109.31,80.6c.88-.74,1.64-1.48,2.52-2.08a4.67,4.67,0,0,1,1.42-.73.92.92,0,0,1,1.19.52c.12.25.26.29.51.18a15.62,15.62,0,0,1,3.39-1.1,1.93,1.93,0,0,1,.53,0c1.09.08,1.32.39,1,1.45a3.76,3.76,0,0,1-1.12,1.7.49.49,0,0,1-.38.12c-1.7,0-3.41.16-5.1.06C112,80.6,110.68,80.66,109.31,80.6Z"/><path class="cls-7" d="M16.51,118c.11-1.72.06-3.45,0-5.18s-.05-3.61,0-5.42c0-.81-.05-1.62,0-2.44,0-.08,0-.18.12-.26V118c-.08,2-.06,4-.06,5.95,0,2.76,0,5.52,0,8.28a1.36,1.36,0,0,1-.11.88v-.8q0-6.57,0-13.12a2.52,2.52,0,0,0,0-.82s0,0,0,0,0,0,0-.06S16.57,118.1,16.51,118Z"/><path class="cls-6" d="M16.54,118.3s0,0,0,.06,0,0,0,0Z"/><path class="cls-9" d="M57,115.94a25.8,25.8,0,0,1,.38-3.18c.33,0,.66,0,1,0s.28,0,.31-.23a5.55,5.55,0,0,1,1.17-2.32c.51-.65,1.08-1.27,1.56-2a.55.55,0,0,0,.11-.55,4.08,4.08,0,0,1-.16-1.39c0-1.07.49-1.66,1.39-1.84a.84.84,0,0,1,.6.61c.08.22.16.45.23.67a22.9,22.9,0,0,0,.79,3.27,6.66,6.66,0,0,1-.54,5.15,13.77,13.77,0,0,0-1.25,3,8.93,8.93,0,0,0-2-1.06A7.73,7.73,0,0,0,57,115.94Z"/><path class="cls-6" d="M46.49,106.73a6.13,6.13,0,0,0-.05-1.21c0-.23,0-.34.3-.34h4.95c.26,0,.32.1.32.34,0,1.42,0,2.84,0,4.26H48.83A14.73,14.73,0,0,0,46.49,106.73Z"/><path class="cls-6" d="M52,110.38c.16,1.35,0,2.7.08,4.05,0,.2-.11.23-.26.23H50.56a21.36,21.36,0,0,0-1.37-4.21.75.75,0,0,1,.44-.07Z"/><path class="cls-7" d="M44.48,132.4a43.2,43.2,0,0,1-2.56-6.68,59.76,59.76,0,0,1-1.81-7.47.21.21,0,0,1,0-.15,2.75,2.75,0,0,1,.23,1,62.21,62.21,0,0,0,1.94,7.51,41.36,41.36,0,0,0,2.12,5.48,2.31,2.31,0,0,1,.1.28Z"/><path class="cls-12" d="M52,110.38H49.63a.75.75,0,0,0-.44.07l-.36-.67H52Z"/><path class="cls-7" d="M21.79,126.76c-.4-3.15-.88-6.29-1.31-9.43C21,120.46,21.5,123.59,21.79,126.76Z"/><path class="cls-7" d="M22.36,132.21c.1,1.57.28,3.12.23,4.69l-.34-4.68Z"/><path class="cls-7" d="M22.2,131.65l-.4-4.35h.11l.4,4.35Z"/><path class="cls-7" d="M53,124l.89,2.58a16.37,16.37,0,0,1-1-2.55Z"/><path class="cls-7" d="M44.53,132.35a3.28,3.28,0,0,1,.45.92,3.58,3.58,0,0,1-.5-.87Z"/><path class="cls-7" d="M62.77,104.44c-.9.18-1.34.77-1.39,1.84a4.08,4.08,0,0,0,.16,1.39.55.55,0,0,1-.11.55c-.48.69-1,1.31-1.56,2a5.55,5.55,0,0,0-1.17,2.32c0,.18-.12.24-.31.23s-.66,0-1,0H55.23c-.74,0-1-.3-.94-1,.12-1,.29-2,.44-3l.54-3.81c.18-1.24.35-2.48.55-3.71a.94.94,0,0,1,1.06-.89c.85,0,1.71,0,2.56,0h3.14c.51,0,.65.12.73.62l-.12.89Z"/><path class="cls-12" d="M91.3,131H67c0-.42,0-.84,0-1.26s.09-.35.35-.34c1,0,2,0,3,0,.3,0,.39-.09.39-.39q0-8.28,0-16.55H87.41q0,8.26,0,16.55c0,.3.08.39.38.39,1.06,0,2.11,0,3.17,0,.26,0,.36.07.35.34S91.3,130.56,91.3,131Zm-12.52-9.92h0q0-3.94,0-7.89c0-.34-.1-.43-.43-.43-2.13,0-4.27,0-6.41,0-.79,0-.8,0-.79.83,0,1.43.06,2.86.06,4.29q0,5.52,0,11.06c0,.37.11.46.47.46,2.22,0,4.45,0,6.68,0,.33,0,.42-.09.42-.43Q78.78,125,78.78,121.06Zm.68,0c0,2.65,0,5.31,0,8,0,.29.07.39.38.39h6.63c.33,0,.4-.11.4-.41q0-7.87,0-15.75c0-.36-.09-.49-.47-.49q-3.25,0-6.52,0c-.33,0-.43.09-.42.43C79.47,115.79,79.46,118.41,79.46,121Z"/><path class="cls-6" d="M87.41,112.45H70.69c-.64,0-1.27,0-1.91,0-.23,0-.31-.08-.3-.31,0-.48,0-1,0-1.45,0-.22.06-.32.3-.31s.58,0,.88,0H89.05c.49,0,.49,0,.49.5s0,.83,0,1.25c0,.24-.08.31-.3.31C88.63,112.44,88,112.45,87.41,112.45Z"/><path class="cls-6" d="M92.29,100.91c0-1.44.11-2.89.06-4.33,0-.26.1-.32.34-.32h5.14c.28,0,.33.1.33.35,0,1.44,0,2.87,0,4.31Z"/><path class="cls-6" d="M81.53,100.92c0-1.44,0-2.87,0-4.3,0-.3.1-.36.37-.36H87c.28,0,.34.1.34.36,0,1,0,2,0,3,0,.42,0,.83.06,1.25Z"/><path class="cls-6" d="M92.35,121.22c0-1.42,0-2.84,0-4.27,0-.27,0-.4.37-.4,1.7,0,3.4,0,5.1,0,.28,0,.34.1.34.36,0,1.23,0,2.46,0,3.69,0,.2,0,.4.06.61Z"/><path class="cls-6" d="M70.77,100.92c0-1.41,0-2.82,0-4.23,0-.28.08-.36.37-.36,1.71,0,3.42,0,5.14,0,.27,0,.37.06.37.36,0,1.4,0,2.81,0,4.22Z"/><path class="cls-6" d="M106.18,122.59c0-1.45,0-2.9.06-4.34,0-.23.08-.31.31-.31,1.72,0,3.45.11,5.17.07.25,0,.26.13.25.31v4.27Z"/><path class="cls-6" d="M106.18,109.85c0-1.4.12-2.79.06-4.18,0-.26.09-.33.33-.32,1.69,0,3.38,0,5.07,0,.27,0,.34.09.33.35v4.15Z"/><path class="cls-6" d="M63.31,100.92c-.08-.5-.22-.62-.73-.62h-2.5a.65.65,0,0,1-.07-.41c.08-1,0-2,0-3,0-.36.11-.46.45-.44,1.17,0,2.33,0,3.5.06.56,0,1.12,0,1.67-.06.27,0,.35.08.35.34,0,1.39,0,2.77,0,4.16Z"/><path class="cls-6" d="M112,110.46c0,.49,0,1,0,1.45,0,.8,0,1.6.08,2.4,0,.24,0,.36-.33.36q-2.55,0-5.1.06c-.3,0-.39-.08-.39-.38,0-1.29,0-2.59-.06-3.88Z"/><path class="cls-6" d="M98.16,101.53c0,1.27,0,2.54.08,3.81,0,.3-.08.39-.38.39-1.7,0-3.41,0-5.11,0-.29,0-.4-.07-.39-.38,0-.89,0-1.78,0-2.67a6.22,6.22,0,0,0,0-1.14Z"/><path class="cls-6" d="M112,123.2c0,1.28,0,2.56.08,3.84,0,.29-.08.37-.37.37h-5.11c-.23,0-.35-.06-.33-.32,0-1.3-.09-2.59-.07-3.88Z"/><path class="cls-6" d="M76.65,101.53c0,.84,0,1.68,0,2.51,0,.43,0,.86.07,1.29,0,.25-.07.33-.32.33H71.17c-.23,0-.33-.05-.34-.31,0-1.27-.08-2.54-.06-3.81Z"/><path class="cls-6" d="M87.4,101.54c0,1.28,0,2.56,0,3.84,0,.27,0,.32-.34.3-.89,0-1.78,0-2.66,0s-1.58,0-2.36,0c-.34,0-.47-.07-.46-.44,0-.74,0-1.49,0-2.24,0-.48-.09-1-.06-1.44Z"/><path class="cls-6" d="M98.16,121.75c0,.12,0,.23,0,.34,0,1.13,0,2.26.07,3.39,0,.3-.06.42-.37.39-1.7-.15-3.41-.05-5.11-.06-.31,0-.41-.08-.41-.41,0-1.19,0-2.38,0-3.58C94.28,121.82,96.22,121.85,98.16,121.75Z"/><path class="cls-6" d="M62.77,104.44l.42-2.63,0,0h0c0-.29.2-.31.43-.3.76,0,1.52,0,2.27,0,0,1,0,1.92,0,2.88a6.84,6.84,0,0,0,.07.91c0,.3-.05.43-.39.42-.68,0-1.36,0-2.05,0-.07-.22-.15-.45-.23-.67A.84.84,0,0,0,62.77,104.44Z"/><path class="cls-12" d="M76.65,101.53H70.77v-.61h5.88Z"/><path class="cls-12" d="M87.4,101.54H81.53v-.62H87.4Z"/><path class="cls-12" d="M98.16,101.53H92.3c0-.21,0-.42,0-.63h5.87Z"/><path class="cls-12" d="M98.16,121.75c-1.94.1-3.88.07-5.82.07a.7.7,0,0,1,0-.6h5.88C98.22,121.39,98.3,121.58,98.16,121.75Z"/><path class="cls-12" d="M112,110.46h-5.79v-.62H112Z"/><path class="cls-12" d="M112,123.2h-5.8v-.62H112Z"/><path class="cls-12" d="M66,101.53c-.75,0-1.51,0-2.27,0-.23,0-.42,0-.43.3h0l0,0,.12-.89H66Z"/><path class="cls-13" d="M79.19,80.86c-.43,0-.87,0-1.3,0-.2,0-.26-.07-.25-.26,0-.77,0-1.53,0-2.29,0-.32-.1-.38-.39-.37-.68,0-1.37,0-2.06,0-.23,0-.34,0-.33-.3q0-1.26,0-2.52c0-.27.1-.31.33-.31.72,0,1.43,0,2.14,0,.24,0,.32-.06.32-.31,0-.79,0-1.58,0-2.36,0-.25.06-.33.31-.33.83,0,1.66,0,2.48,0,.29,0,.33.1.33.35,0,.75,0,1.5,0,2.25,0,.31,0,.42.38.41.71,0,1.43,0,2.14,0,.25,0,.32.07.32.32,0,.84,0,1.68,0,2.52,0,.24-.07.3-.3.29-.74,0-1.47,0-2.21,0-.25,0-.33.06-.32.32,0,.76,0,1.52,0,2.28,0,.26-.07.33-.32.32C80,80.84,79.61,80.86,79.19,80.86Z"/><path class="cls-6" d="M78.78,121.06q0,4,0,7.9c0,.34-.09.43-.42.43-2.23,0-4.46,0-6.68,0-.36,0-.47-.09-.47-.46q0-5.54,0-11.06c0-1.43,0-2.86-.06-4.29,0-.83,0-.83.79-.83,2.14,0,4.28,0,6.41,0,.33,0,.43.09.43.43q0,3.94,0,7.89Z"/><path class="cls-6" d="M79.46,121c0-2.62,0-5.24,0-7.86,0-.34.09-.43.42-.43q3.27,0,6.52,0c.38,0,.47.13.47.49q0,7.88,0,15.75c0,.3-.07.41-.4.41H79.84c-.31,0-.38-.1-.38-.39C79.47,126.34,79.46,123.68,79.46,121Z"/><path class="cls-8" d="M103.82,77.73c0-.4-.13-.47-.5-.47h-17a7.8,7.8,0,0,1-1,2.81,6.86,6.86,0,0,1-5.75,3.39,6.94,6.94,0,0,1-7.28-5.64,1.72,1.72,0,0,0-.1-.55H54.71c-.29,0-.43,0-.43.38q0,7.44,0,14.88c0,.3.09.4.39.39,1.34,0,2.68,0,4,0s2.43,0,3.65,0c.81,0,1.64,0,2.46,0s1.62,0,2.44,0c1.25,0,2.49,0,3.75,0,.9,0,1.8,0,2.7,0,.71,0,1.43.07,2.14.06s1.65,0,2.48,0H87.2c.85,0,1.7-.05,2.56,0,.36,0,.72-.11,1.06-.06a12.57,12.57,0,0,0,1.84,0c1.62,0,3.24,0,4.86,0,.89,0,1.79,0,2.68,0,1.09.06,2.19,0,3.29,0,.34,0,.32-.19.32-.41C103.81,87.58,103.8,82.65,103.82,77.73ZM86.9,85.26h0Z"/><path d="M65.32,90.2H64.26V87.26h-3V90.2H60.19V83.69h1.07v2.66h3V83.69h1.06Z"/><path d="M72.34,87.72a3.62,3.62,0,0,1-.16,1.09,2,2,0,0,1-.47.8,1.9,1.9,0,0,1-.74.5,2.5,2.5,0,0,1-1,.17,2.33,2.33,0,0,1-.93-.17,1.94,1.94,0,0,1-.73-.5,2.06,2.06,0,0,1-.48-.8,3.33,3.33,0,0,1-.17-1.09A3.06,3.06,0,0,1,68,86.34a1.93,1.93,0,0,1,.81-.86,2.49,2.49,0,0,1,1.25-.3,2.38,2.38,0,0,1,1.2.3,1.93,1.93,0,0,1,.81.86A2.93,2.93,0,0,1,72.34,87.72Zm-3.57,0a2.76,2.76,0,0,0,.13.92,1.15,1.15,0,0,0,.4.59,1.25,1.25,0,0,0,.72.2,1.22,1.22,0,0,0,.71-.2,1.15,1.15,0,0,0,.4-.59,2.76,2.76,0,0,0,.13-.92,2.69,2.69,0,0,0-.13-.91,1.17,1.17,0,0,0-.4-.58A1.25,1.25,0,0,0,70,86a1.07,1.07,0,0,0-1,.43A2.29,2.29,0,0,0,68.77,87.72Z"/><path d="M77.11,85.18a1.72,1.72,0,0,1,1.41.64,2.89,2.89,0,0,1,.53,1.9,3.64,3.64,0,0,1-.24,1.41,1.94,1.94,0,0,1-.69.86,1.8,1.8,0,0,1-1,.29,2.08,2.08,0,0,1-.65-.09,1.51,1.51,0,0,1-.47-.26,1.76,1.76,0,0,1-.33-.34h-.07c0,.11,0,.25.05.39s0,.27,0,.39v2h-1V85.27h.85l.15.68h0a2,2,0,0,1,.33-.39,1.6,1.6,0,0,1,.48-.28A1.91,1.91,0,0,1,77.11,85.18Zm-.28.85a1.28,1.28,0,0,0-.69.17,1,1,0,0,0-.38.52,2.62,2.62,0,0,0-.12.86v.14a3.12,3.12,0,0,0,.11.93,1.1,1.1,0,0,0,.38.58,1.16,1.16,0,0,0,.72.2,1,1,0,0,0,.63-.21,1.3,1.3,0,0,0,.38-.6,3.09,3.09,0,0,0,.12-.91,2.3,2.3,0,0,0-.28-1.24A1,1,0,0,0,76.83,86Z"/><path d="M81.84,83.38a.71.71,0,0,1,.41.13.53.53,0,0,1,.18.45.51.51,0,0,1-.18.44.65.65,0,0,1-.41.13.69.69,0,0,1-.43-.13.53.53,0,0,1-.17-.44.55.55,0,0,1,.17-.45A.75.75,0,0,1,81.84,83.38Zm.51,1.89V90.2h-1V85.27Z"/><path d="M86.73,89.44a1.81,1.81,0,0,0,.4,0,2,2,0,0,0,.37-.09v.79a2,2,0,0,1-.45.13,2.78,2.78,0,0,1-.58,0,1.79,1.79,0,0,1-.75-.14,1.07,1.07,0,0,1-.53-.48,1.93,1.93,0,0,1-.19-1V86.07h-.68V85.6l.72-.37.35-1h.66v1.09h1.41v.8H86.05V88.7a.77.77,0,0,0,.18.56A.7.7,0,0,0,86.73,89.44Z"/><path d="M91.48,85.18a2.14,2.14,0,0,1,1.41.41,1.62,1.62,0,0,1,.48,1.29V90.2h-.75l-.2-.7h0a3.61,3.61,0,0,1-.43.44,1.69,1.69,0,0,1-.52.26,2.44,2.44,0,0,1-.71.08,1.86,1.86,0,0,1-.79-.16,1.22,1.22,0,0,1-.54-.49,1.6,1.6,0,0,1-.2-.85,1.29,1.29,0,0,1,.56-1.14,3.3,3.3,0,0,1,1.72-.43l.85,0v-.25a1,1,0,0,0-.23-.73,1,1,0,0,0-.67-.22,2.46,2.46,0,0,0-.72.1,5.66,5.66,0,0,0-.68.27l-.33-.74a3.59,3.59,0,0,1,.82-.31A3.71,3.71,0,0,1,91.48,85.18Zm.85,2.66-.64,0a2,2,0,0,0-1.1.27.78.78,0,0,0-.31.66.61.61,0,0,0,.22.53.9.9,0,0,0,.57.17,1.36,1.36,0,0,0,.9-.31,1.14,1.14,0,0,0,.36-.91Z"/><path d="M96.93,90.2H95.88V83.27h1.05Z"/></svg>