<svg id="Calque_1" data-name="Calque 1" xmlns="http://www.w3.org/2000/svg" xmlns:xlink="http://www.w3.org/1999/xlink" viewBox="0 0 303 208"><defs><style>.cls-1{fill:url(#Dégradé_sans_nom_2);}.cls-2{fill:#fff;}.cls-3{fill:#c6dbfe;}.cls-4{fill:#c5dafe;}.cls-5{fill:#c4dafe;}.cls-6{fill:#c3d9fe;}.cls-7{fill:#c2d9fe;}.cls-8{fill:#c1d8fe;}.cls-9{fill:#c0d8fd;}.cls-10{fill:#bfd7fd;}.cls-11{fill:#bed7fd;}.cls-12{fill:#bdd6fd;}.cls-13{fill:#bcd6fd;}.cls-14{fill:#bbd5fd;}.cls-15{fill:#bad5fd;}.cls-16{fill:#b9d4fd;}.cls-17{fill:#b8d4fd;}.cls-18{fill:#b7d3fd;}.cls-19{fill:#b6d3fc;}.cls-20{fill:#b5d2fc;}.cls-21{fill:#b4d2fc;}.cls-22{fill:#b3d1fc;}.cls-23{fill:#b2d1fc;}.cls-24{fill:#b1d0fc;}.cls-25{fill:#b0d0fc;}.cls-26{fill:#afcffc;}.cls-27{fill:#aecffc;}.cls-28{fill:#adcefc;}.cls-29{fill:#accefb;}.cls-30{fill:#abcdfb;}.cls-31{fill:#aacdfb;}.cls-32{fill:#a9ccfb;}.cls-33{fill:#a8ccfb;}.cls-34{fill:#a7cbfb;}.cls-35{fill:#a6cbfb;}.cls-36{fill:#a5cafb;}.cls-37{fill:#a4cafb;}.cls-38{fill:#a3c9fb;}.cls-39{fill:#a2c9fa;}.cls-40{fill:#a1c8fa;}.cls-41{fill:#a0c8fa;}.cls-42{fill:#9fc7fa;}.cls-43{fill:#9ec7fa;}.cls-44{fill:#9dc6fa;}.cls-45{fill:#fe7c23;}.cls-46{fill:#fe761d;}.cls-47{fill:#321d13;}.cls-48{fill:#fd9f45;}.cls-49{fill:#39bcc7;}.cls-50{fill:#fefefe;}.cls-51{fill:#f0eae6;}</style><linearGradient id="Dégradé_sans_nom_2" x1="0.01" y1="104" x2="303.01" y2="104" gradientUnits="userSpaceOnUse"><stop offset="0" stop-color="#329986"/><stop offset="1" stop-color="#05dd47"/></linearGradient></defs><title>pages_ims</title><rect class="cls-1" x="0.01" y="0.5" width="303" height="207" rx="29.38"/><path class="cls-2" d="M133.35,92.76l-.95-2.71h-3.73l-.95,2.71H126L129.66,83h1.77l3.62,9.78ZM132,88.68,131.06,86c0-.11-.09-.27-.15-.49s-.14-.42-.2-.64-.13-.41-.17-.56c0,.18-.1.39-.16.61l-.19.63-.14.45-.93,2.67Z"/><path class="cls-2" d="M137.86,92.76l-2.8-7.38h1.66l1.52,4.33q.15.42.27.9a8,8,0,0,1,.16.8h.06a7.45,7.45,0,0,1,.17-.81c.09-.32.18-.62.28-.89l1.52-4.33h1.65l-2.81,7.38Z"/><path class="cls-2" d="M150,89.05a5.15,5.15,0,0,1-.24,1.64,3.25,3.25,0,0,1-.7,1.2,2.91,2.91,0,0,1-1.1.75,4,4,0,0,1-1.46.25,3.71,3.71,0,0,1-1.4-.25,3,3,0,0,1-1.09-.75,3.43,3.43,0,0,1-.72-1.2,4.87,4.87,0,0,1-.25-1.64,4.66,4.66,0,0,1,.42-2.07,3,3,0,0,1,1.21-1.29,3.7,3.7,0,0,1,1.87-.45,3.54,3.54,0,0,1,1.8.45,3.07,3.07,0,0,1,1.22,1.3A4.35,4.35,0,0,1,150,89.05Zm-5.35,0a4.28,4.28,0,0,0,.2,1.38,1.69,1.69,0,0,0,.61.88,1.75,1.75,0,0,0,1.06.3,1.78,1.78,0,0,0,1.07-.3,1.75,1.75,0,0,0,.61-.88,5.07,5.07,0,0,0,0-2.75,1.78,1.78,0,0,0-.61-.86,1.85,1.85,0,0,0-1.07-.29,1.6,1.6,0,0,0-1.42.65A3.29,3.29,0,0,0,144.65,89.05Z"/><path class="cls-2" d="M152.59,82.56a1,1,0,0,1,.63.19.79.79,0,0,1,.26.67.78.78,0,0,1-.26.66,1.14,1.14,0,0,1-1.26,0,.78.78,0,0,1-.25-.66.79.79,0,0,1,.25-.67A1,1,0,0,1,152.59,82.56Zm.78,2.82v7.38H151.8V85.38Z"/><path class="cls-2" d="M159.35,85.24l.4,0,.38,0L160,86.78a1.58,1.58,0,0,0-.35-.06l-.36,0a2.36,2.36,0,0,0-.8.14,1.92,1.92,0,0,0-.67.41,1.94,1.94,0,0,0-.46.69,2.42,2.42,0,0,0-.17,1v3.86h-1.57V85.38h1.22l.22,1.3h.07a3.44,3.44,0,0,1,.55-.72,2.34,2.34,0,0,1,.75-.52A2.18,2.18,0,0,1,159.35,85.24Z"/><path class="cls-2" d="M170,90.65a2,2,0,0,1-.35,1.23,2.2,2.2,0,0,1-1,.76,4.72,4.72,0,0,1-1.66.25,6.55,6.55,0,0,1-1.33-.11,4.59,4.59,0,0,1-1-.33V91.09a7.2,7.2,0,0,0,1.19.43,4.65,4.65,0,0,0,1.24.18,1.94,1.94,0,0,0,1.11-.24.76.76,0,0,0,.34-.65.71.71,0,0,0-.13-.43,1.52,1.52,0,0,0-.51-.4c-.25-.13-.61-.29-1.08-.49a7.72,7.72,0,0,1-1.18-.56,2.07,2.07,0,0,1-.73-.67,2,2,0,0,1-.25-1,1.67,1.67,0,0,1,.78-1.49,3.7,3.7,0,0,1,2.06-.51,5.84,5.84,0,0,1,1.28.14,6.28,6.28,0,0,1,1.18.39L169.39,87a10,10,0,0,0-1-.36,4,4,0,0,0-1-.14,1.9,1.9,0,0,0-.92.18.61.61,0,0,0-.32.54.68.68,0,0,0,.16.44,1.61,1.61,0,0,0,.53.36c.25.12.6.27,1.05.44a8.81,8.81,0,0,1,1.14.53,2.13,2.13,0,0,1,.74.68A1.81,1.81,0,0,1,170,90.65Z"/><path class="cls-2" d="M178.22,89.05a5.15,5.15,0,0,1-.24,1.64,3.25,3.25,0,0,1-.7,1.2,3,3,0,0,1-1.11.75,3.92,3.92,0,0,1-1.46.25,3.7,3.7,0,0,1-1.39-.25,3,3,0,0,1-1.09-.75,3.43,3.43,0,0,1-.72-1.2,4.87,4.87,0,0,1-.25-1.64,4.66,4.66,0,0,1,.42-2.07,3,3,0,0,1,1.21-1.29,3.7,3.7,0,0,1,1.87-.45,3.54,3.54,0,0,1,1.8.45,3.07,3.07,0,0,1,1.22,1.3A4.48,4.48,0,0,1,178.22,89.05Zm-5.35,0a4,4,0,0,0,.2,1.38,1.69,1.69,0,0,0,.61.88,1.75,1.75,0,0,0,1.06.3,1.78,1.78,0,0,0,1.07-.3,1.68,1.68,0,0,0,.6-.88,4.83,4.83,0,0,0,0-2.75,1.7,1.7,0,0,0-.6-.86,1.89,1.89,0,0,0-1.08-.29,1.59,1.59,0,0,0-1.41.65A3.29,3.29,0,0,0,172.87,89.05Z"/><path class="cls-2" d="M183.87,85.24a2.8,2.8,0,0,1,1.94.64A2.72,2.72,0,0,1,186.5,88v4.81h-1.56V88.24a2,2,0,0,0-.35-1.29,1.33,1.33,0,0,0-1.1-.43,1.63,1.63,0,0,0-1.49.66,3.69,3.69,0,0,0-.41,1.91v3.67H180V85.38h1.22l.22,1h.09a2.13,2.13,0,0,1,.59-.64,2.78,2.78,0,0,1,.8-.37A3.22,3.22,0,0,1,183.87,85.24Z"/><path class="cls-2" d="M194.72,92.89a2.62,2.62,0,0,1-2.12-1,4.37,4.37,0,0,1-.8-2.84,4.42,4.42,0,0,1,.81-2.88,2.67,2.67,0,0,1,2.14-1,2.93,2.93,0,0,1,1,.15,2.49,2.49,0,0,1,.72.4,2.8,2.8,0,0,1,.52.57H197c0-.14,0-.34-.07-.6a6.39,6.39,0,0,1-.05-.72V82.39h1.57V92.76h-1.22l-.28-1h-.07a2.34,2.34,0,0,1-1.22,1A2.93,2.93,0,0,1,194.72,92.89Zm.44-1.27a1.62,1.62,0,0,0,1.42-.58A3.14,3.14,0,0,0,197,89.3v-.21a3.68,3.68,0,0,0-.4-1.9,1.56,1.56,0,0,0-1.46-.66,1.46,1.46,0,0,0-1.29.68,3.54,3.54,0,0,0-.44,1.9,3.33,3.33,0,0,0,.44,1.87A1.49,1.49,0,0,0,195.16,91.62Z"/><path class="cls-2" d="M207.27,89.05a5.15,5.15,0,0,1-.24,1.64,3.39,3.39,0,0,1-.7,1.2,3,3,0,0,1-1.11.75,4,4,0,0,1-1.46.25,3.66,3.66,0,0,1-1.39-.25,3,3,0,0,1-1.1-.75,3.43,3.43,0,0,1-.72-1.2,5.14,5.14,0,0,1-.25-1.64,4.66,4.66,0,0,1,.42-2.07,3.08,3.08,0,0,1,1.21-1.29,3.74,3.74,0,0,1,1.88-.45,3.54,3.54,0,0,1,1.8.45,3.13,3.13,0,0,1,1.22,1.3A4.48,4.48,0,0,1,207.27,89.05Zm-5.36,0a4.28,4.28,0,0,0,.2,1.38,1.69,1.69,0,0,0,.61.88,1.78,1.78,0,0,0,1.07.3,1.75,1.75,0,0,0,1.06-.3,1.69,1.69,0,0,0,.61-.88,5.07,5.07,0,0,0,0-2.75,1.72,1.72,0,0,0-.61-.86,1.83,1.83,0,0,0-1.07-.29,1.61,1.61,0,0,0-1.42.65A3.29,3.29,0,0,0,201.91,89.05Z"/><path class="cls-2" d="M214,90.65a2,2,0,0,1-.35,1.23,2.15,2.15,0,0,1-1,.76,4.72,4.72,0,0,1-1.66.25,6.55,6.55,0,0,1-1.33-.11,4.36,4.36,0,0,1-1-.33V91.09a6.76,6.76,0,0,0,1.18.43,4.7,4.7,0,0,0,1.24.18,1.94,1.94,0,0,0,1.11-.24.76.76,0,0,0,.34-.65.71.71,0,0,0-.13-.43,1.52,1.52,0,0,0-.51-.4c-.25-.13-.61-.29-1.08-.49a7.72,7.72,0,0,1-1.18-.56,2.07,2.07,0,0,1-.73-.67,2,2,0,0,1-.24-1,1.66,1.66,0,0,1,.77-1.49,3.7,3.7,0,0,1,2.06-.51,5.84,5.84,0,0,1,1.28.14,6.28,6.28,0,0,1,1.18.39L213.41,87a10,10,0,0,0-1-.36,4,4,0,0,0-1-.14,1.9,1.9,0,0,0-.92.18.6.6,0,0,0-.31.54.67.67,0,0,0,.15.44,1.61,1.61,0,0,0,.53.36c.25.12.6.27,1,.44a8.81,8.81,0,0,1,1.14.53,2.13,2.13,0,0,1,.74.68A1.81,1.81,0,0,1,214,90.65Z"/><path class="cls-2" d="M220.67,90.65a2.1,2.1,0,0,1-.35,1.23,2.2,2.2,0,0,1-1,.76,4.79,4.79,0,0,1-1.66.25,6.42,6.42,0,0,1-1.33-.11,4.59,4.59,0,0,1-1.05-.33V91.09a7.08,7.08,0,0,0,1.18.43,4.78,4.78,0,0,0,1.25.18,2,2,0,0,0,1.11-.24.76.76,0,0,0,.34-.65.71.71,0,0,0-.14-.43,1.57,1.57,0,0,0-.5-.4c-.25-.13-.61-.29-1.09-.49a8.21,8.21,0,0,1-1.18-.56,2,2,0,0,1-.72-.67,1.88,1.88,0,0,1-.25-1,1.67,1.67,0,0,1,.78-1.49,3.66,3.66,0,0,1,2.05-.51,5.93,5.93,0,0,1,1.29.14,6.52,6.52,0,0,1,1.18.39L220.06,87a10.18,10.18,0,0,0-1-.36,3.86,3.86,0,0,0-1-.14,1.9,1.9,0,0,0-.92.18.61.61,0,0,0-.32.54.67.67,0,0,0,.15.44,1.72,1.72,0,0,0,.53.36c.25.12.6.27,1.05.44a9.68,9.68,0,0,1,1.15.53,2.13,2.13,0,0,1,.74.68A1.89,1.89,0,0,1,220.67,90.65Z"/><path class="cls-2" d="M223.15,82.56a1,1,0,0,1,.62.19.76.76,0,0,1,.26.67.75.75,0,0,1-.26.66,1.12,1.12,0,0,1-1.25,0,.78.78,0,0,1-.26-.66.79.79,0,0,1,.26-.67A1,1,0,0,1,223.15,82.56Zm.77,2.82v7.38h-1.56V85.38Z"/><path class="cls-2" d="M229.1,85.24a3.33,3.33,0,0,1,1.69.41,2.69,2.69,0,0,1,1.09,1.15,3.94,3.94,0,0,1,.38,1.79v.84h-4.93a2.4,2.4,0,0,0,.58,1.65,2,2,0,0,0,1.54.58,5.42,5.42,0,0,0,1.27-.14,6.49,6.49,0,0,0,1.17-.4v1.27a4.85,4.85,0,0,1-1.13.38,6.77,6.77,0,0,1-1.37.12,4.14,4.14,0,0,1-1.91-.42,3,3,0,0,1-1.29-1.26,4.28,4.28,0,0,1-.46-2.09,4.81,4.81,0,0,1,.42-2.11,3.09,3.09,0,0,1,1.18-1.32A3.38,3.38,0,0,1,229.1,85.24Zm0,1.18a1.6,1.6,0,0,0-1.2.48,2.27,2.27,0,0,0-.53,1.41h3.36a2.67,2.67,0,0,0-.19-1,1.37,1.37,0,0,0-.53-.67A1.6,1.6,0,0,0,229.1,86.42Z"/><path class="cls-2" d="M237.76,85.24l.41,0,.38,0-.15,1.47a1.39,1.39,0,0,0-.34-.06l-.36,0a2.36,2.36,0,0,0-.8.14,2,2,0,0,0-.68.41,2.25,2.25,0,0,0-.46.69,2.61,2.61,0,0,0-.16,1v3.86H234V85.38h1.23l.21,1.3h.08a3.39,3.39,0,0,1,.54-.72,2.59,2.59,0,0,1,.75-.52A2.25,2.25,0,0,1,237.76,85.24Z"/><path class="cls-2" d="M251.8,85.24a2.49,2.49,0,0,1,1.87.64,2.84,2.84,0,0,1,.63,2.05v4.83h-1.57V88.21a2.09,2.09,0,0,0-.32-1.26,1.17,1.17,0,0,0-1-.43,1.5,1.5,0,0,0-1.34.6,3.07,3.07,0,0,0-.41,1.73v3.91h-1.57V88.21a2.53,2.53,0,0,0-.14-.93,1.11,1.11,0,0,0-.44-.57,1.29,1.29,0,0,0-.74-.19,1.7,1.7,0,0,0-1,.29,1.75,1.75,0,0,0-.55.87,5.06,5.06,0,0,0-.16,1.39v3.69h-1.57V85.38h1.22l.22,1H245a2.13,2.13,0,0,1,.56-.63,2.65,2.65,0,0,1,.75-.38,3.08,3.08,0,0,1,.86-.12,3,3,0,0,1,1.39.29,1.86,1.86,0,0,1,.85.88h.12a2.07,2.07,0,0,1,1-.88A3.09,3.09,0,0,1,251.8,85.24Z"/><path class="cls-2" d="M259.43,85.24a3.36,3.36,0,0,1,1.69.41,2.67,2.67,0,0,1,1.08,1.15,3.82,3.82,0,0,1,.38,1.79v.84h-4.92a2.45,2.45,0,0,0,.57,1.65,2,2,0,0,0,1.55.58,5.49,5.49,0,0,0,1.27-.14,6.67,6.67,0,0,0,1.16-.4v1.27a4.7,4.7,0,0,1-1.13.38,6.77,6.77,0,0,1-1.37.12,4.16,4.16,0,0,1-1.91-.42,2.94,2.94,0,0,1-1.28-1.26,4.28,4.28,0,0,1-.47-2.09,4.81,4.81,0,0,1,.42-2.11,3.16,3.16,0,0,1,1.18-1.32A3.44,3.44,0,0,1,259.43,85.24Zm0,1.18a1.57,1.57,0,0,0-1.2.48,2.28,2.28,0,0,0-.54,1.41h3.36a2.48,2.48,0,0,0-.18-1,1.44,1.44,0,0,0-.54-.67A1.57,1.57,0,0,0,259.43,86.42Zm2.17-4.12v.14c-.1.12-.25.28-.43.46l-.59.57-.64.56c-.2.18-.39.33-.56.46h-1.05v-.18c.15-.16.31-.37.49-.6l.54-.73c.17-.25.32-.47.44-.68Z"/><path class="cls-2" d="M266.83,92.89a2.62,2.62,0,0,1-2.12-1,5.51,5.51,0,0,1,0-5.72,2.66,2.66,0,0,1,2.13-1,2.88,2.88,0,0,1,1,.15,2.69,2.69,0,0,1,.73.4,2.74,2.74,0,0,1,.51.57h.07c0-.14,0-.34-.07-.6a6.24,6.24,0,0,1,0-.72V82.39h1.57V92.76h-1.23l-.28-1H269a2.56,2.56,0,0,1-.51.58,2.3,2.3,0,0,1-.72.41A2.88,2.88,0,0,1,266.83,92.89Zm.44-1.27a1.62,1.62,0,0,0,1.42-.58,3.13,3.13,0,0,0,.43-1.74v-.21a3.78,3.78,0,0,0-.4-1.9,1.58,1.58,0,0,0-1.46-.66,1.44,1.44,0,0,0-1.29.68,3.45,3.45,0,0,0-.45,1.9A3.25,3.25,0,0,0,266,91,1.47,1.47,0,0,0,267.27,91.62Z"/><path class="cls-2" d="M273.64,82.56a1,1,0,0,1,.62.19.77.77,0,0,1,.27.67.76.76,0,0,1-.27.66,1.12,1.12,0,0,1-1.25,0,.78.78,0,0,1-.26-.66.79.79,0,0,1,.26-.67A1,1,0,0,1,273.64,82.56Zm.77,2.82v7.38h-1.56V85.38Z"/><path class="cls-2" d="M279.63,92.89a3.85,3.85,0,0,1-1.82-.4,2.76,2.76,0,0,1-1.18-1.25,4.9,4.9,0,0,1-.41-2.13,4.7,4.7,0,0,1,.45-2.2,2.89,2.89,0,0,1,1.26-1.26,4,4,0,0,1,1.84-.41,5,5,0,0,1,1.2.13,4.17,4.17,0,0,1,.91.32l-.47,1.25a8.09,8.09,0,0,0-.83-.28,3.5,3.5,0,0,0-.82-.11,1.93,1.93,0,0,0-1.08.28,1.74,1.74,0,0,0-.64.86,4,4,0,0,0-.21,1.4,3.64,3.64,0,0,0,.22,1.37,1.71,1.71,0,0,0,.63.84,1.79,1.79,0,0,0,1,.29,3.64,3.64,0,0,0,1.09-.15,4.5,4.5,0,0,0,.9-.38v1.36a3.32,3.32,0,0,1-.89.36A5.64,5.64,0,0,1,279.63,92.89Z"/><path class="cls-2" d="M286.32,85.24a3.17,3.17,0,0,1,2.12.62,2.41,2.41,0,0,1,.72,1.93v5H288l-.3-1.05h-.05a3.4,3.4,0,0,1-.65.66,2,2,0,0,1-.77.39,3.61,3.61,0,0,1-1.06.13,2.8,2.8,0,0,1-1.18-.24,1.89,1.89,0,0,1-.82-.74,2.46,2.46,0,0,1-.3-1.27,1.91,1.91,0,0,1,.85-1.71,4.88,4.88,0,0,1,2.57-.64l1.28,0v-.39a1.22,1.22,0,0,0-1.36-1.42,3.47,3.47,0,0,0-1.07.16,8.94,8.94,0,0,0-1,.39l-.5-1.1a5.73,5.73,0,0,1,1.23-.47A5.66,5.66,0,0,1,286.32,85.24Zm1.28,4-1,0a3,3,0,0,0-1.65.4,1.18,1.18,0,0,0-.47,1,.94.94,0,0,0,.33.8,1.35,1.35,0,0,0,.86.25,2,2,0,0,0,1.35-.46,1.74,1.74,0,0,0,.53-1.37Z"/><path class="cls-2" d="M292.92,92.76h-1.57V82.39h1.57Z"/><path class="cls-2" d="M130.09,101.62a3.37,3.37,0,0,1,1.7.41,2.67,2.67,0,0,1,1.08,1.15,3.82,3.82,0,0,1,.38,1.79v.84h-4.92a2.45,2.45,0,0,0,.57,1.65,2,2,0,0,0,1.55.58,5.49,5.49,0,0,0,1.27-.14,6.67,6.67,0,0,0,1.16-.4v1.27a4.7,4.7,0,0,1-1.13.38,6.77,6.77,0,0,1-1.37.12,4.16,4.16,0,0,1-1.91-.42,2.94,2.94,0,0,1-1.28-1.26,4.28,4.28,0,0,1-.47-2.09,4.81,4.81,0,0,1,.42-2.11,3.09,3.09,0,0,1,1.18-1.32A3.43,3.43,0,0,1,130.09,101.62Zm0,1.18a1.56,1.56,0,0,0-1.19.48,2.22,2.22,0,0,0-.54,1.41h3.36a2.68,2.68,0,0,0-.18-1A1.44,1.44,0,0,0,131,103,1.58,1.58,0,0,0,130.09,102.8Z"/><path class="cls-2" d="M138.86,101.62a2.83,2.83,0,0,1,1.95.64,2.72,2.72,0,0,1,.69,2.07v4.81h-1.56v-4.52a2,2,0,0,0-.36-1.29,1.31,1.31,0,0,0-1.09-.43,1.63,1.63,0,0,0-1.49.66,3.59,3.59,0,0,0-.41,1.91v3.67H135v-7.38h1.22l.22,1h.09a2,2,0,0,1,.59-.64,2.78,2.78,0,0,1,.8-.37A3.15,3.15,0,0,1,138.86,101.62Z"/><path class="cls-2" d="M155.57,101.62a2.49,2.49,0,0,1,1.87.64,2.84,2.84,0,0,1,.63,2v4.83h-1.56v-4.55a2,2,0,0,0-.33-1.26,1.16,1.16,0,0,0-1-.43,1.53,1.53,0,0,0-1.35.6,3.07,3.07,0,0,0-.41,1.73v3.91h-1.56v-4.55a2.52,2.52,0,0,0-.15-.93,1.14,1.14,0,0,0-.43-.57,1.31,1.31,0,0,0-.74-.19,1.68,1.68,0,0,0-1,.29,1.62,1.62,0,0,0-.55.87,5,5,0,0,0-.17,1.39v3.69h-1.56v-7.38h1.22l.22,1h.08a2.13,2.13,0,0,1,.56-.63,2.65,2.65,0,0,1,.75-.38,3.15,3.15,0,0,1,.87-.12,3.07,3.07,0,0,1,1.39.29,1.8,1.8,0,0,1,.84.88h.12a2.12,2.12,0,0,1,1-.88A3.09,3.09,0,0,1,155.57,101.62Z"/><path class="cls-2" d="M163.15,101.62a3.19,3.19,0,0,1,2.12.62,2.44,2.44,0,0,1,.71,1.93v5h-1.11l-.3-1h0a3.71,3.71,0,0,1-.65.66,2.08,2.08,0,0,1-.77.39,3.61,3.61,0,0,1-1.06.13,2.76,2.76,0,0,1-1.18-.24,1.84,1.84,0,0,1-.82-.74,2.46,2.46,0,0,1-.3-1.27,1.91,1.91,0,0,1,.85-1.71,4.85,4.85,0,0,1,2.57-.64l1.28,0v-.39a1.4,1.4,0,0,0-.36-1.09,1.42,1.42,0,0,0-1-.33A3.58,3.58,0,0,0,162,103a9.56,9.56,0,0,0-1,.39l-.51-1.1a6,6,0,0,1,1.24-.47A5.55,5.55,0,0,1,163.15,101.62Zm1.28,4-1,0a3,3,0,0,0-1.65.4,1.18,1.18,0,0,0-.47,1,.94.94,0,0,0,.33.8,1.32,1.32,0,0,0,.85.25,2,2,0,0,0,1.35-.46,1.71,1.71,0,0,0,.54-1.37Z"/><path class="cls-2" d="M169,98.94a1,1,0,0,1,.62.19.77.77,0,0,1,.27.67.76.76,0,0,1-.27.66,1.12,1.12,0,0,1-1.25,0,.78.78,0,0,1-.26-.66.79.79,0,0,1,.26-.67A1,1,0,0,1,169,98.94Zm.77,2.82v7.38h-1.56v-7.38Z"/><path class="cls-2" d="M175.83,101.62a2.78,2.78,0,0,1,1.94.64,2.72,2.72,0,0,1,.7,2.07v4.81H176.9v-4.52a2,2,0,0,0-.35-1.29,1.33,1.33,0,0,0-1.1-.43,1.6,1.6,0,0,0-1.48.66,3.58,3.58,0,0,0-.42,1.91v3.67H172v-7.38h1.22l.22,1h.09a2.16,2.16,0,0,1,.6-.64,2.61,2.61,0,0,1,.79-.37A3.22,3.22,0,0,1,175.83,101.62Z"/><path class="cls-2" d="M185.61,107a2.1,2.1,0,0,1-.35,1.23,2.2,2.2,0,0,1-1,.76,4.72,4.72,0,0,1-1.66.25,6.49,6.49,0,0,1-1.33-.11,4.59,4.59,0,0,1-1.05-.33v-1.36a6.88,6.88,0,0,0,1.19.43,4.65,4.65,0,0,0,1.24.18,2,2,0,0,0,1.11-.24.76.76,0,0,0,.34-.65.71.71,0,0,0-.13-.43,1.64,1.64,0,0,0-.51-.4c-.25-.13-.61-.3-1.08-.49a7.72,7.72,0,0,1-1.18-.56,1.76,1.76,0,0,1-1-1.69,1.67,1.67,0,0,1,.78-1.49,3.7,3.7,0,0,1,2.06-.51,5.84,5.84,0,0,1,1.28.14,6.28,6.28,0,0,1,1.18.39l-.49,1.18a10,10,0,0,0-1-.36,4,4,0,0,0-1-.14,1.9,1.9,0,0,0-.92.18.61.61,0,0,0-.32.54.63.63,0,0,0,.16.44,1.5,1.5,0,0,0,.53.36c.25.12.6.27,1.05.44a8.81,8.81,0,0,1,1.14.53,2.13,2.13,0,0,1,.74.68A1.89,1.89,0,0,1,185.61,107Z"/><path class="cls-2" d="M194.63,101.62a2.61,2.61,0,0,1,2.11,1,4.38,4.38,0,0,1,.79,2.85,5.44,5.44,0,0,1-.36,2.11,2.91,2.91,0,0,1-1,1.3,2.72,2.72,0,0,1-1.54.43,3.1,3.1,0,0,1-1-.14,2.41,2.41,0,0,1-.71-.39,2.6,2.6,0,0,1-.49-.51h-.1c0,.17.05.37.07.59s0,.41,0,.59v3h-1.58V101.76h1.28l.22,1h.08a2.7,2.7,0,0,1,.5-.58,2.14,2.14,0,0,1,.72-.42A2.71,2.71,0,0,1,194.63,101.62Zm-.42,1.28a1.88,1.88,0,0,0-1,.26,1.4,1.4,0,0,0-.56.77,4.17,4.17,0,0,0-.19,1.28v.22a4.67,4.67,0,0,0,.17,1.39,1.63,1.63,0,0,0,.56.87,1.77,1.77,0,0,0,1.08.3,1.44,1.44,0,0,0,1-.32,1.82,1.82,0,0,0,.56-.89,4.32,4.32,0,0,0,.19-1.37,3.45,3.45,0,0,0-.42-1.85A1.45,1.45,0,0,0,194.21,102.9Z"/><path class="cls-2" d="M202.23,101.62a3.17,3.17,0,0,1,2.12.62,2.41,2.41,0,0,1,.72,1.93v5H204l-.3-1h-.05a3.4,3.4,0,0,1-.65.66,2,2,0,0,1-.77.39,3.61,3.61,0,0,1-1.06.13,2.8,2.8,0,0,1-1.18-.24,1.84,1.84,0,0,1-.82-.74,2.46,2.46,0,0,1-.3-1.27,1.94,1.94,0,0,1,.85-1.71,4.88,4.88,0,0,1,2.57-.64l1.28,0v-.39a1.22,1.22,0,0,0-1.36-1.42,3.47,3.47,0,0,0-1.07.16,8.94,8.94,0,0,0-1,.39l-.5-1.1a5.73,5.73,0,0,1,1.23-.47A5.66,5.66,0,0,1,202.23,101.62Zm1.28,4-.95,0a3,3,0,0,0-1.65.4,1.18,1.18,0,0,0-.47,1,.94.94,0,0,0,.33.8,1.33,1.33,0,0,0,.86.25,2,2,0,0,0,1.35-.46,1.74,1.74,0,0,0,.53-1.37Z"/><path class="cls-2" d="M211,101.62l.4,0,.38,0-.14,1.47a1.58,1.58,0,0,0-.35-.06l-.36,0a2.4,2.4,0,0,0-.8.14,1.92,1.92,0,0,0-.67.41,1.86,1.86,0,0,0-.46.69,2.61,2.61,0,0,0-.17,1v3.86h-1.57v-7.38h1.23l.21,1.3h.07a3.44,3.44,0,0,1,.55-.72,2.59,2.59,0,0,1,.75-.52A2.18,2.18,0,0,1,211,101.62Z"/><path class="cls-2" d="M215.9,108a3.05,3.05,0,0,0,.6-.06,3.67,3.67,0,0,0,.55-.14V109a3.45,3.45,0,0,1-.67.19,4.11,4.11,0,0,1-.86.08,2.88,2.88,0,0,1-1.13-.21,1.62,1.62,0,0,1-.79-.72,2.83,2.83,0,0,1-.3-1.42v-4h-1v-.7l1.08-.55.51-1.58h1v1.64H217V103h-2.11v4a1.1,1.1,0,0,0,.28.83A1,1,0,0,0,215.9,108Z"/><path class="cls-2" d="M225.08,105.43a5.15,5.15,0,0,1-.24,1.64,3.25,3.25,0,0,1-.7,1.2A3,3,0,0,1,223,109a3.92,3.92,0,0,1-1.46.25,3.7,3.7,0,0,1-1.39-.25,3,3,0,0,1-1.09-.75,3.43,3.43,0,0,1-.72-1.2,4.87,4.87,0,0,1-.25-1.64,4.66,4.66,0,0,1,.42-2.07,3,3,0,0,1,1.21-1.29,3.7,3.7,0,0,1,1.87-.45,3.54,3.54,0,0,1,1.8.45,3.07,3.07,0,0,1,1.22,1.3A4.48,4.48,0,0,1,225.08,105.43Zm-5.35,0a4,4,0,0,0,.2,1.38,1.69,1.69,0,0,0,.61.88,1.75,1.75,0,0,0,1.06.3,1.78,1.78,0,0,0,1.07-.3,1.68,1.68,0,0,0,.6-.88,4.83,4.83,0,0,0,0-2.75,1.7,1.7,0,0,0-.6-.86,1.87,1.87,0,0,0-1.07-.29,1.6,1.6,0,0,0-1.42.65A3.29,3.29,0,0,0,219.73,105.43Z"/><path class="cls-2" d="M233.31,101.76v7.38h-1.23l-.21-1h-.09a2.22,2.22,0,0,1-.59.63,2.78,2.78,0,0,1-.8.37,3.59,3.59,0,0,1-.93.12A3.21,3.21,0,0,1,228,109a1.94,1.94,0,0,1-.91-.88,3.23,3.23,0,0,1-.31-1.53v-4.82h1.57v4.53a2,2,0,0,0,.35,1.28,1.33,1.33,0,0,0,1.09.43,2,2,0,0,0,1.14-.29,1.62,1.62,0,0,0,.59-.87,4.74,4.74,0,0,0,.18-1.41v-3.67Z"/><path class="cls-2" d="M240.67,109.14H239.1V98.77h1.57Z"/><path class="cls-2" d="M245.8,101.62a3.16,3.16,0,0,1,2.11.62,2.41,2.41,0,0,1,.72,1.93v5h-1.11l-.31-1h-.05a3.67,3.67,0,0,1-.64.66,2.16,2.16,0,0,1-.77.39,3.73,3.73,0,0,1-1.07.13,2.8,2.8,0,0,1-1.18-.24,1.89,1.89,0,0,1-.82-.74,2.46,2.46,0,0,1-.3-1.27,1.94,1.94,0,0,1,.85-1.71,4.9,4.9,0,0,1,2.57-.64l1.28,0v-.39a1.21,1.21,0,0,0-1.36-1.42,3.51,3.51,0,0,0-1.07.16,8.13,8.13,0,0,0-1,.39l-.51-1.1a5.77,5.77,0,0,1,2.67-.65Zm1.27,4-.95,0a2.89,2.89,0,0,0-1.64.4,1.16,1.16,0,0,0-.48,1,.94.94,0,0,0,.33.8,1.35,1.35,0,0,0,.86.25,2,2,0,0,0,1.35-.46,1.71,1.71,0,0,0,.53-1.37Z"/><path class="cls-2" d="M260.9,105.43a5.15,5.15,0,0,1-.24,1.64,3.39,3.39,0,0,1-.7,1.2,3,3,0,0,1-1.11.75,4,4,0,0,1-1.46.25A3.7,3.7,0,0,1,256,109a3.08,3.08,0,0,1-1.1-.75,3.41,3.41,0,0,1-.71-1.2,4.87,4.87,0,0,1-.26-1.64,4.52,4.52,0,0,1,.43-2.07,3,3,0,0,1,1.21-1.29,3.67,3.67,0,0,1,1.87-.45,3.54,3.54,0,0,1,1.8.45,3.13,3.13,0,0,1,1.22,1.3A4.48,4.48,0,0,1,260.9,105.43Zm-5.35,0a4.3,4.3,0,0,0,.19,1.38,1.75,1.75,0,0,0,.61.88,1.78,1.78,0,0,0,1.07.3,1.75,1.75,0,0,0,1.06-.3,1.69,1.69,0,0,0,.61-.88,5.07,5.07,0,0,0,0-2.75,1.72,1.72,0,0,0-.61-.86,1.83,1.83,0,0,0-1.07-.29,1.61,1.61,0,0,0-1.42.65A3.3,3.3,0,0,0,255.55,105.43Z"/><path class="cls-2" d="M269.13,101.76v7.38H267.9l-.22-1h-.08a2.25,2.25,0,0,1-.6.63,2.67,2.67,0,0,1-.8.37,3.46,3.46,0,0,1-.92.12,3.29,3.29,0,0,1-1.43-.28,2,2,0,0,1-.9-.88,3.23,3.23,0,0,1-.31-1.53v-4.82h1.57v4.53a2,2,0,0,0,.35,1.28,1.31,1.31,0,0,0,1.09.43,2,2,0,0,0,1.13-.29,1.63,1.63,0,0,0,.6-.87,4.74,4.74,0,0,0,.18-1.41v-3.67Z"/><path class="cls-2" d="M131,118a2.74,2.74,0,0,1,1.94.64,2.68,2.68,0,0,1,.7,2.07v4.81h-1.57V121a2,2,0,0,0-.35-1.29,1.33,1.33,0,0,0-1.09-.43,1.61,1.61,0,0,0-1.49.66,3.58,3.58,0,0,0-.42,1.91v3.67h-1.57v-7.38h1.22l.22,1h.09a2.16,2.16,0,0,1,.6-.64,2.67,2.67,0,0,1,.8-.37A3.1,3.1,0,0,1,131,118Z"/><path class="cls-2" d="M142.36,121.81a5,5,0,0,1-.24,1.63,3.35,3.35,0,0,1-.7,1.21,3.16,3.16,0,0,1-1.11.75,4,4,0,0,1-1.46.25,3.7,3.7,0,0,1-1.39-.25,3.12,3.12,0,0,1-1.81-2,4.76,4.76,0,0,1-.26-1.63,4.52,4.52,0,0,1,.43-2.07,2.94,2.94,0,0,1,1.2-1.29,3.74,3.74,0,0,1,1.88-.45,3.54,3.54,0,0,1,1.8.45,3.07,3.07,0,0,1,1.22,1.3A4.45,4.45,0,0,1,142.36,121.81Zm-5.35,0a4.3,4.3,0,0,0,.19,1.38,1.61,1.61,0,0,0,1.68,1.18,1.75,1.75,0,0,0,1.06-.3,1.73,1.73,0,0,0,.61-.88,4.3,4.3,0,0,0,.19-1.38,4.23,4.23,0,0,0-.19-1.37,1.72,1.72,0,0,0-.61-.86,1.83,1.83,0,0,0-1.07-.29,1.59,1.59,0,0,0-1.42.65A3.3,3.3,0,0,0,137,121.81Z"/><path class="cls-2" d="M150.59,118.14v7.38h-1.23l-.22-1h-.08a2,2,0,0,1-.6.63,2.46,2.46,0,0,1-.8.38,3.46,3.46,0,0,1-.92.12,3.29,3.29,0,0,1-1.43-.28,2,2,0,0,1-.9-.88,3.23,3.23,0,0,1-.31-1.53v-4.82h1.57v4.53A2,2,0,0,0,146,124a1.31,1.31,0,0,0,1.09.43,2,2,0,0,0,1.13-.29,1.63,1.63,0,0,0,.6-.87,4.74,4.74,0,0,0,.18-1.41v-3.67Z"/><path class="cls-2" d="M160.22,118a2.74,2.74,0,0,1,1.94.64,2.68,2.68,0,0,1,.7,2.07v4.81h-1.57V121a2,2,0,0,0-.35-1.29,1.33,1.33,0,0,0-1.09-.43,1.61,1.61,0,0,0-1.49.66,3.58,3.58,0,0,0-.42,1.91v3.67h-1.57v-7.38h1.22l.22,1h.09a2.16,2.16,0,0,1,.6-.64,2.56,2.56,0,0,1,.8-.37A3.1,3.1,0,0,1,160.22,118Z"/><path class="cls-2" d="M171.58,121.81a5,5,0,0,1-.24,1.63,3.35,3.35,0,0,1-.7,1.21,3.16,3.16,0,0,1-1.11.75,4,4,0,0,1-1.46.25,3.66,3.66,0,0,1-1.39-.25,3.21,3.21,0,0,1-1.1-.75,3.39,3.39,0,0,1-.72-1.21,5,5,0,0,1-.25-1.63,4.66,4.66,0,0,1,.42-2.07,3,3,0,0,1,1.21-1.29,3.74,3.74,0,0,1,1.88-.45,3.54,3.54,0,0,1,1.8.45,3.07,3.07,0,0,1,1.22,1.3A4.45,4.45,0,0,1,171.58,121.81Zm-5.36,0a4.28,4.28,0,0,0,.2,1.38,1.73,1.73,0,0,0,.61.88,1.78,1.78,0,0,0,1.07.3,1.75,1.75,0,0,0,1.06-.3,1.73,1.73,0,0,0,.61-.88,4.3,4.3,0,0,0,.19-1.38,4.23,4.23,0,0,0-.19-1.37,1.72,1.72,0,0,0-.61-.86,1.83,1.83,0,0,0-1.07-.29,1.59,1.59,0,0,0-1.42.65A3.29,3.29,0,0,0,166.22,121.81Z"/><path class="cls-2" d="M179.81,118.14v7.38h-1.24l-.21-1h-.09a1.88,1.88,0,0,1-.59.63,2.56,2.56,0,0,1-.8.38,3.48,3.48,0,0,1-.93.12,3.27,3.27,0,0,1-1.42-.28,2,2,0,0,1-.9-.88,3.23,3.23,0,0,1-.31-1.53v-4.82h1.57v4.53a1.94,1.94,0,0,0,.35,1.28,1.3,1.3,0,0,0,1.09.43,2,2,0,0,0,1.13-.29,1.63,1.63,0,0,0,.6-.87,4.77,4.77,0,0,0,.17-1.41v-3.67Z"/><path class="cls-2" d="M187,123.41a2,2,0,0,1-.35,1.23,2.21,2.21,0,0,1-1,.76,4.7,4.7,0,0,1-1.65.25,7.2,7.2,0,0,1-1.33-.11,4.16,4.16,0,0,1-1-.34v-1.35a6.76,6.76,0,0,0,1.18.43,4.7,4.7,0,0,0,1.24.18,2,2,0,0,0,1.12-.24.79.79,0,0,0,.34-.66.71.71,0,0,0-.14-.42,1.52,1.52,0,0,0-.51-.4,11.36,11.36,0,0,0-1.08-.49,7.72,7.72,0,0,1-1.18-.56,2.07,2.07,0,0,1-.73-.67,2,2,0,0,1-.24-1,1.69,1.69,0,0,1,.77-1.49,3.72,3.72,0,0,1,2.06-.51,5.84,5.84,0,0,1,1.28.14,6.62,6.62,0,0,1,1.19.39l-.5,1.18a10,10,0,0,0-1-.36,3.58,3.58,0,0,0-1-.14,1.91,1.91,0,0,0-.93.18.59.59,0,0,0-.31.54.67.67,0,0,0,.15.44,1.61,1.61,0,0,0,.53.36c.25.12.6.26,1.05.44a8.81,8.81,0,0,1,1.14.53,2.13,2.13,0,0,1,.74.68A1.81,1.81,0,0,1,187,123.41Z"/><path class="cls-2" d="M195,124.39a3.08,3.08,0,0,0,.61-.06c.2,0,.38-.09.55-.14v1.19a3.57,3.57,0,0,1-.68.19,4.74,4.74,0,0,1-.86.08,2.87,2.87,0,0,1-1.12-.21,1.64,1.64,0,0,1-.8-.72,3,3,0,0,1-.29-1.42v-4h-1v-.7l1.08-.55.52-1.58h1v1.64h2.12v1.19H194v4a1.14,1.14,0,0,0,.28.83A1,1,0,0,0,195,124.39Z"/><path class="cls-2" d="M201.37,118l.41,0,.38,0-.15,1.47a1.39,1.39,0,0,0-.34-.06l-.36,0a2.36,2.36,0,0,0-.8.14,2,2,0,0,0-.68.41,2,2,0,0,0-.46.69,2.58,2.58,0,0,0-.16,1v3.86h-1.57v-7.38h1.22l.21,1.3h.08a3.39,3.39,0,0,1,.54-.72,2.59,2.59,0,0,1,.75-.52A2.25,2.25,0,0,1,201.37,118Z"/><path class="cls-2" d="M210.06,121.81a5,5,0,0,1-.24,1.63,3.21,3.21,0,0,1-.7,1.21,3.16,3.16,0,0,1-1.11.75,4,4,0,0,1-1.46.25,3.7,3.7,0,0,1-1.39-.25,3.21,3.21,0,0,1-1.1-.75,3.37,3.37,0,0,1-.71-1.21,4.76,4.76,0,0,1-.26-1.63,4.52,4.52,0,0,1,.43-2.07,2.91,2.91,0,0,1,1.21-1.29,3.67,3.67,0,0,1,1.87-.45,3.54,3.54,0,0,1,1.8.45,3.07,3.07,0,0,1,1.22,1.3A4.45,4.45,0,0,1,210.06,121.81Zm-5.35,0a4.3,4.3,0,0,0,.19,1.38,1.75,1.75,0,0,0,3.35,0,4.28,4.28,0,0,0,.2-1.38,4.22,4.22,0,0,0-.2-1.37,1.77,1.77,0,0,0-.6-.86,1.89,1.89,0,0,0-1.08-.29,1.59,1.59,0,0,0-1.42.65A3.38,3.38,0,0,0,204.71,121.81Z"/><path class="cls-2" d="M218.29,118.14v7.38h-1.23l-.22-1h-.08a2,2,0,0,1-.6.63,2.46,2.46,0,0,1-.8.38,3.46,3.46,0,0,1-.92.12,3.29,3.29,0,0,1-1.43-.28,2,2,0,0,1-.9-.88,3.23,3.23,0,0,1-.31-1.53v-4.82h1.57v4.53a2,2,0,0,0,.35,1.28,1.31,1.31,0,0,0,1.09.43,2,2,0,0,0,1.13-.29,1.63,1.63,0,0,0,.6-.87,4.74,4.74,0,0,0,.18-1.41v-3.67Z"/><path class="cls-2" d="M222.21,125.52l-2.8-7.38h1.66l1.52,4.33c.1.28.18.58.27.9a7.47,7.47,0,0,1,.16.8h0c0-.23.1-.5.18-.82s.18-.61.28-.88l1.52-4.33h1.65l-2.81,7.38Z"/><path class="cls-2" d="M234.35,121.81a5,5,0,0,1-.24,1.63,3.21,3.21,0,0,1-.7,1.21,3,3,0,0,1-1.1.75,4,4,0,0,1-1.46.25,3.75,3.75,0,0,1-1.4-.25,3.17,3.17,0,0,1-1.09-.75,3.39,3.39,0,0,1-.72-1.21,4.77,4.77,0,0,1-.25-1.63,4.66,4.66,0,0,1,.42-2.07,3,3,0,0,1,1.21-1.29,3.7,3.7,0,0,1,1.87-.45,3.54,3.54,0,0,1,1.8.45,3,3,0,0,1,1.22,1.3A4.45,4.45,0,0,1,234.35,121.81Zm-5.35,0a4.28,4.28,0,0,0,.2,1.38,1.73,1.73,0,0,0,.61.88,1.75,1.75,0,0,0,1.06.3,1.61,1.61,0,0,0,1.68-1.18,4.6,4.6,0,0,0,.19-1.38,4.53,4.53,0,0,0-.19-1.37,1.78,1.78,0,0,0-.61-.86,1.85,1.85,0,0,0-1.07-.29,1.58,1.58,0,0,0-1.42.65A3.29,3.29,0,0,0,229,121.81Z"/><path class="cls-2" d="M240,118a2.37,2.37,0,0,1,2.64,2.71v4.81h-1.57V121a2,2,0,0,0-.35-1.29,1.33,1.33,0,0,0-1.1-.43,1.63,1.63,0,0,0-1.49.66,3.69,3.69,0,0,0-.41,1.91v3.67h-1.57v-7.38h1.22l.22,1h.09a2.27,2.27,0,0,1,.59-.64,2.78,2.78,0,0,1,.8-.37A3.22,3.22,0,0,1,240,118Z"/><path class="cls-2" d="M249.78,123.41a2.1,2.1,0,0,1-.35,1.23,2.27,2.27,0,0,1-1,.76,4.72,4.72,0,0,1-1.66.25,7.28,7.28,0,0,1-1.33-.11,4.16,4.16,0,0,1-1-.34v-1.35a6.88,6.88,0,0,0,1.19.43,4.65,4.65,0,0,0,1.24.18,2,2,0,0,0,1.11-.24.77.77,0,0,0,.34-.66.7.7,0,0,0-.13-.42,1.77,1.77,0,0,0-.51-.4c-.25-.13-.61-.3-1.08-.49a7.29,7.29,0,0,1-1.18-.56,2,2,0,0,1-.73-.67,1.88,1.88,0,0,1-.25-1,1.67,1.67,0,0,1,.78-1.49,3.68,3.68,0,0,1,2.05-.51,5.86,5.86,0,0,1,1.29.14,6.52,6.52,0,0,1,1.18.39l-.49,1.18a10.18,10.18,0,0,0-1-.36,3.49,3.49,0,0,0-1-.14,1.9,1.9,0,0,0-.92.18.6.6,0,0,0-.32.54.63.63,0,0,0,.16.44,1.54,1.54,0,0,0,.52.36c.26.12.61.26,1,.44a9,9,0,0,1,1.15.53,2.13,2.13,0,0,1,.74.68A1.89,1.89,0,0,1,249.78,123.41Z"/><path class="cls-2" d="M251.24,124.69a.93.93,0,0,1,.28-.77,1.08,1.08,0,0,1,.69-.22,1.1,1.1,0,0,1,.7.22.93.93,0,0,1,.29.77,1,1,0,0,1-.29.77,1.06,1.06,0,0,1-.7.24,1,1,0,0,1-.69-.24A.94.94,0,0,1,251.24,124.69Z"/><path class="cls-3" d="M1.3,108.47c7.44-4.89,12-20.29,23.94-32.13C37,63,45.87,62.05,53.31,55.29c7.11-8,24.15-10.22,32.14-1.38,9.21,7.71,9.37,26.51,11,34.36,1.86,10.82,12,21,10.83,43.2C106.5,141.53,101.56,154.76,92,163c-9.26,8.39-23.08,11.74-35.6,6.6-12.92-4.93-22.1-15-30.53-21.66-8.3-7.16-15.85-10.89-22.57-14.8C-3.29,129.52-7,124.45-6.61,120-6.46,115.41-2.19,111.45,1.3,108.47Z"/><path class="cls-4" d="M1.06,108.46c7.33-4.93,11.79-19.91,23.28-32.2,12.2-13,21.37-14,28.63-21.21,7.76-7.67,24.48-9.49,33.09-1s9.42,26.55,10.85,34.37c2,10.73,12.2,20.93,10.71,42.75-.68,9.9-6,22.79-15.49,31.09S69,174,56.54,169.24c-12.72-4.89-22-14.56-30.2-21.37-8.4-7-15.71-11-22.5-14.76C-2.74,129.45-6.53,124.48-6.43,120S-2.34,111.44,1.06,108.46Z"/><path class="cls-5" d="M.83,108.44C8,103.48,12,88.52,23.45,76.18,35.61,63.08,45.18,62,52.64,54.8c8-7.75,25.41-9.34,34-.67S96,80.75,97.43,88.51c1.92,10.66,12.16,20.85,10.58,42.29-.72,9.74-6.13,22.43-15.8,30.72s-23.29,12-35.57,7.4c-12.57-4.67-21.7-14.29-29.88-21.07-8.35-6.93-15.62-10.93-22.43-14.71C-2.25,129.48-6.19,124.5-6.26,120S-2.49,111.44.83,108.44Z"/><path class="cls-6" d="M.6,108.43c7.09-5,10.53-19.94,22-32.33C34.68,62.93,44.66,61.82,52.3,54.55c8.26-7.84,26.34-9.18,35-.31,8.78,9,9.3,26.69,10.67,34.4,1.88,10.58,12.14,20.75,10.46,41.83-.77,9.58-6.3,22.05-16.1,30.33S68.87,173,56.74,168.61c-12.43-4.47-21.43-14-29.55-20.79-8.3-6.9-15.54-10.88-22.36-14.65C-1.76,129.52-5.85,124.52-6.08,120S-2.64,111.44.6,108.43Z"/><path class="cls-7" d="M.37,108.41c7-5,9.89-20,21.28-32.4C33.75,62.79,44.13,61.62,52,54.31c8.5-7.93,27.26-9,35.91,0,8.81,9.24,9.24,26.76,10.57,34.41,1.84,10.52,12.12,20.67,10.34,41.37-.81,9.42-6.47,21.69-16.41,30s-23.55,12.37-35.54,8.22C44.55,164,35.68,154.53,27.61,147.8,19.37,140.93,12.16,137,5.32,133.19-1.27,129.56-5.5,124.54-5.91,120S-2.8,111.44.37,108.41Z"/><path class="cls-8" d="M.13,108.4c6.86-5.07,9.27-20,20.63-32.47C32.83,62.64,43.6,61.41,51.63,54.06c8.75-8,28.19-8.88,36.86.4C97.34,63.93,97.67,81.28,99,88.88c1.79,10.45,12.09,20.59,10.21,40.92-.86,9.26-6.65,21.31-16.71,29.56S68.78,171.94,56.94,168C44.79,163.94,36.05,154.47,28,147.78c-8.19-6.85-15.36-10.8-22.21-14.56-6.6-3.63-11-8.66-11.56-13.16S-2.95,111.44.13,108.4Z"/><path class="cls-9" d="M-.1,108.38c6.74-5.1,8.64-20,20-32.53,12-13.35,23.22-14.64,31.44-22,9-8.09,29.11-8.72,37.8.76C98,64.26,98.21,81.46,99.48,89c1.74,10.39,12.06,20.5,10.09,40.46-.91,9.1-6.82,20.95-17,29.19s-23.82,12.77-35.51,9c-12-3.85-20.62-13.26-28.58-19.93-8.14-6.81-15.28-10.75-22.15-14.5-6.6-3.62-11.12-8.67-11.87-13.17S-3.1,111.43-.1,108.38Z"/><path class="cls-10" d="M-.33,108.37c6.62-5.14,8-20,19.3-32.6C31,62.36,42.55,61,51,53.57,60.2,45.39,81,45,89.7,54.68c8.93,9.92,9.06,27,10.29,34.44,1.7,10.32,12,20.42,10,40-.95,8.93-7,20.58-17.32,28.8s-24,13-35.5,9.44c-11.87-3.64-20.35-13-28.26-19.64-8.09-6.79-15.2-10.71-22.07-14.46C.2,129.67-4.47,124.6-5.39,120.1S-3.25,111.43-.33,108.37Z"/><path class="cls-11" d="M-.57,108.35c6.51-5.17,7.38-20,18.64-32.66,12-13.48,24-14.88,32.56-22.37,9.49-8.26,31-8.42,39.68,1.46,9,10.16,9,27,10.2,34.47,1.65,10.25,12,20.33,9.84,39.54-1,8.78-7.17,20.21-17.62,28.42s-24.1,13.17-35.49,9.84c-11.73-3.42-20.08-12.73-27.93-19.34-8-6.77-15.12-10.67-22-14.41-6.62-3.6-11.44-8.68-12.52-13.18S-3.4,111.43-.57,108.35Z"/><path class="cls-12" d="M-.8,108.34c6.39-5.21,6.75-20,18-32.74,12-13.53,24.33-15,33.13-22.53,9.73-8.34,31.88-8.26,40.62,1.82,9,10.39,8.93,27.1,10.1,34.48,1.61,10.18,12,20.24,9.72,39.09-1,8.61-7.34,19.84-17.93,28s-24.23,13.36-35.47,10.24c-11.59-3.22-19.81-12.47-27.61-19.05-8-6.74-15-10.63-21.93-14.36C1.18,129.74-3.78,124.65-5,120.14S-3.55,111.43-.8,108.34Z"/><path class="cls-13" d="M-1,108.32c6.27-5.24,6.12-20,17.31-32.8C28.19,61.92,41,60.41,50,52.83c10-8.43,32.81-8.12,41.57,2.17,9,10.61,8.87,27.17,10,34.49,1.57,10.12,12,20.16,9.6,38.64-1.09,8.45-7.51,19.47-18.23,27.65s-24.37,13.57-35.46,10.65c-11.44-3-19.54-12.21-27.29-18.77C22.22,141,15.21,137.08,8.3,133.35c-6.63-3.57-11.74-8.68-13.17-13.19S-3.7,111.43-1,108.32Z"/><path class="cls-14" d="M-1.26,108.31c6.15-5.28,5.49-20,16.64-32.87C27.26,61.78,40.45,60.21,49.63,52.58c10.22-8.51,33.73-8,42.51,2.53,9.07,10.84,8.81,27.23,9.91,34.5,1.51,10,11.93,20.08,9.47,38.18-1.13,8.29-7.69,19.1-18.54,27.27s-24.5,13.77-35.44,11.06c-11.3-2.8-19.27-12-27-18.48C22.7,141,15.72,137.1,8.79,133.38c-6.63-3.57-11.89-8.69-13.48-13.21S-3.85,111.42-1.26,108.31Z"/><path class="cls-15" d="M-1.5,108.29c6-5.31,4.86-20.05,16-32.93,11.85-13.73,25.44-15.35,34.8-23,10.48-8.59,34.65-7.81,43.45,2.89,9.11,11.07,8.76,27.3,9.82,34.51,1.47,10,11.91,20,9.35,37.73-1.18,8.13-7.86,18.73-18.84,26.89s-24.64,14-35.43,11.46c-11.16-2.6-19-11.69-26.64-18.19-7.83-6.66-14.77-10.5-21.71-14.21-6.64-3.56-12-8.7-13.81-13.22C-6.34,115.52-4,111.42-1.5,108.29Z"/><path class="cls-16" d="M-1.73,108.28c5.92-5.35,4.23-20.07,15.32-33C25.41,61.49,39.4,59.82,49,52.09c10.72-8.68,35.57-7.66,44.39,3.24,9.15,11.29,8.69,27.37,9.72,34.53,1.43,9.92,11.88,19.9,9.23,37.26-1.22,8-8,18.38-19.14,26.51-11,8.05-24.78,14.16-35.42,11.86-11-2.38-18.73-11.42-26.31-17.9C23.65,141,16.74,137.14,9.79,133.43c-6.65-3.55-12.21-8.69-14.13-13.22S-4.15,111.42-1.73,108.28Z"/><path class="cls-17" d="M-2,108.26c5.8-5.38,3.6-20.08,14.65-33.07C24.48,61.34,38.87,59.62,48.62,51.84c11-8.75,36.5-7.51,45.34,3.6C103.14,67,102.59,82.88,103.59,90c1.38,9.85,11.85,19.82,9.1,36.81-1.27,7.81-8.2,18-19.45,26.12-11.08,8-24.92,14.37-35.4,12.27C47,163,39.39,154,31.85,147.57c-7.72-6.61-14.6-10.41-21.57-14.11-6.65-3.54-12.35-8.7-14.45-13.23C-6.35,115.54-4.3,111.42-2,108.26Z"/><path class="cls-18" d="M-2.2,108.25c5.69-5.42,3-20.1,14-33.14C23.55,61.2,38.35,59.42,48.29,51.59c11.22-8.83,37.42-7.35,46.28,4,9.21,11.75,8.57,27.5,9.53,34.55,1.34,9.79,11.83,19.74,9,36.35-1.32,7.65-8.38,17.63-19.75,25.74-11.21,8-25.06,14.57-35.39,12.68-10.74-2-18.18-10.9-25.67-17.32C24.6,141,17.75,137.18,10.78,133.48,4.12,130-1.73,124.78-4,120.25-6.35,115.55-4.45,111.42-2.2,108.25Z"/><path class="cls-19" d="M-2.43,108.23C3.14,102.78-.09,88.12,10.9,75,22.63,61.05,37.82,59.22,48,51.35c11.47-8.92,38.34-7.21,47.23,4.3,9.24,12,8.5,27.58,9.43,34.57,1.3,9.72,11.8,19.65,8.86,35.9-1.36,7.49-8.56,17.25-20.06,25.36-11.34,8-25.19,14.76-35.37,13.08-10.6-1.75-17.91-10.65-25.34-17-7.62-6.55-14.44-10.32-21.43-14C4.61,130-1.39,124.81-3.82,120.27-6.35,115.56-4.6,111.42-2.43,108.23Z"/><path class="cls-20" d="M-2.66,108.22C2.79,102.73-.95,88.09,10,75,21.7,60.91,37.3,59,47.62,51.1c11.71-9,39.26-7.05,48.17,4.66,9.28,12.21,8.44,27.65,9.34,34.58,1.24,9.66,11.77,19.57,8.73,35.45-1.41,7.32-8.74,16.87-20.36,25-11.47,8-25.33,15-35.36,13.49-10.46-1.54-17.64-10.39-25-16.75-7.57-6.53-14.35-10.28-21.35-14C5.1,130-1,124.83-3.65,120.29-6.35,115.57-4.75,111.41-2.66,108.22Z"/><path class="cls-21" d="M-2.89,108.2c5.33-5.52,1.08-20.13,12-33.34,11.66-14.1,27.66-16,38.17-24,12-9.07,40.19-6.9,49.11,5,9.32,12.44,8.39,27.72,9.25,34.6,1.2,9.58,11.74,19.48,8.61,35C112.8,132.61,105.34,142,93.58,150c-11.58,8-25.46,15.17-35.34,13.9-10.32-1.34-17.37-10.13-24.69-16.46C26,141,19.28,137.24,12.26,133.56c-6.67-3.49-13-8.71-15.73-13.25C-6.36,115.58-4.91,111.41-2.89,108.2Z"/><path class="cls-22" d="M-3.13,108.19C2.09,102.63-2.67,88,8.21,74.78,19.85,60.62,36.25,58.63,47,50.61,59.16,41.45,88.05,43.86,97,56c9.35,12.66,8.32,27.78,9.15,34.61,1.16,9.52,11.72,19.4,8.49,34.53-1.5,7-9.08,16.15-21,24.21C82,157.26,68.07,164.7,58.34,163.62c-10.18-1.12-17.1-9.86-24.37-16.16-7.46-6.48-14.18-10.2-21.21-13.87C6.08,130.1-.36,124.88-3.3,120.33-6.36,115.59-5.06,111.41-3.13,108.19Z"/><path class="cls-23" d="M-3.36,108.17C1.74,102.58-3.53,88,7.32,74.7c11.6-14.23,28.4-16.27,39.3-24.34,12.45-9.23,42-6.6,51,5.73C107,69,105.87,83.94,106.67,90.71c1.11,9.46,11.68,19.31,8.36,34.07-1.55,6.84-9.26,15.79-21.27,23.83-11.84,7.92-25.74,15.57-35.32,14.7-10-.91-16.83-9.6-24-15.88C27,141,20.3,137.28,13.26,133.62,6.57,130.14,0,124.9-3.13,120.35-6.36,115.6-5.21,111.41-3.36,108.17Z"/><path class="cls-23" d="M-3.59,108.16c5-5.63-.81-20.18,10-33.54C18,60.33,35.2,58.23,46.28,50.11,59,40.8,89.22,43.66,98.22,56.2c9.41,13.12,8.19,27.92,9,34.63,1.07,9.39,11.66,19.23,8.24,33.62-1.59,6.68-9.43,15.41-21.58,23.44-12,7.9-25.87,15.78-35.3,15.11-9.9-.7-16.56-9.34-23.72-15.59-7.36-6.42-14-10.11-21.07-13.77-6.69-3.47-13.43-8.71-16.7-13.27C-6.36,115.62-5.36,111.41-3.59,108.16Z"/><path class="cls-24" d="M-3.83,108.14C1.05,102.48-5.26,88,5.53,74.54,17.07,60.18,34.67,58,46,49.87c12.95-9.39,43.86-6.3,52.88,6.44,9.44,13.34,8.13,28,8.86,34.64,1,9.33,11.63,19.15,8.12,33.16-1.64,6.52-9.6,15-21.88,23.07-12.08,7.88-26,16-35.29,15.51-9.76-.49-16.29-9.08-23.4-15.3-7.31-6.4-13.92-10.07-21-13.72-6.7-3.46-13.59-8.72-17-13.28A10.7,10.7,0,0,1-3.83,108.14Z"/><path class="cls-25" d="M-4.06,108.12c4.76-5.7-2.06-20.2,8.69-33.67C16.14,60,34.14,57.84,45.61,49.62c13.2-9.47,44.78-6.15,53.82,6.8,9.48,13.57,8.08,28.05,8.77,34.66,1,9.25,11.6,19,8,32.7-1.69,6.36-9.78,14.68-22.19,22.68-12.2,7.87-26.14,16.18-35.27,15.92-9.62-.28-16-8.82-23.07-15-7.26-6.37-13.85-10-20.93-13.66C8,130.25,1,125-2.61,120.4-6.37,115.64-5.66,111.4-4.06,108.12Z"/><path class="cls-26" d="M-4.29,108.11c4.64-5.74-2.69-20.22,8-33.74,11.48-14.48,29.89-16.72,41.55-25,13.45-9.54,45.7-6,54.76,7.15,9.51,13.8,8,28.13,8.68,34.68.93,9.19,11.57,19,7.87,32.24-1.73,6.2-10,14.32-22.49,22.3-12.33,7.85-26.28,16.38-35.26,16.33-9.48-.07-15.75-8.56-22.75-14.73-7.2-6.34-13.76-10-20.85-13.62C8.53,130.28,1.35,125-2.43,120.42-6.37,115.65-5.81,111.4-4.29,108.11Z"/><path class="cls-27" d="M-4.53,108.09C0,102.32-7.85,87.86,2.84,74.29c11.44-14.54,30.25-16.84,42.1-25.17,13.7-9.62,46.62-5.84,55.71,7.51,9.54,14,7.95,28.2,8.58,34.69.89,9.13,11.54,18.89,7.75,31.79-1.78,6-10.13,14-22.79,21.91-12.46,7.84-26.42,16.59-35.25,16.73-9.34.16-15.48-8.29-22.43-14.43-7.15-6.32-13.67-9.94-20.77-13.57-6.72-3.43-14-8.72-18-13.31C-6.37,115.67-6,111.4-4.53,108.09Z"/><path class="cls-28" d="M-4.76,108.08c4.41-5.81-4-20.25,6.7-33.87,11.42-14.61,30.63-17,42.67-25.33,13.94-9.7,47.54-5.7,56.65,7.86,9.57,14.25,7.89,28.27,8.48,34.7.85,9.06,11.51,18.81,7.63,31.34-1.83,5.87-10.3,13.57-23.1,21.53C81.69,152.13,67.72,161.1,59,161.44c-9.2.37-15.21-8-22.1-14.15-7.1-6.29-13.59-9.89-20.71-13.51C9.51,130.36,2,125.05-2.08,120.46-6.37,115.68-6.11,111.4-4.76,108.08Z"/><path class="cls-29" d="M-5,108.06C-.7,102.22-9.57,87.8,1,74.13c11.39-14.67,31-17.07,43.23-25.5,14.2-9.78,48.46-5.55,57.6,8.22,9.6,14.48,7.82,28.34,8.39,34.72.79,9,11.48,18.71,7.5,30.87-1.88,5.72-10.48,13.21-23.4,21.15-12.71,7.8-26.69,17-35.22,17.54-9.06.58-14.94-7.78-21.78-13.86-7-6.26-13.5-9.85-20.63-13.47C10,130.39,2.38,125.08-1.91,120.48-6.37,115.69-6.26,111.39-5,108.06Z"/><path class="cls-30" d="M-5.22,108.05C-1,102.17-10.43,87.78.15,74,11.5,59.31,31.52,56.86,43.94,48.38,58.38,38.53,93.32,43,102.47,57c9.64,14.7,7.77,28.4,8.3,34.73.75,8.93,11.45,18.63,7.38,30.42-1.92,5.55-10.66,12.84-23.71,20.76-12.83,7.79-26.82,17.2-35.2,17.95-8.91.79-14.67-7.52-21.45-13.57-7-6.24-13.42-9.81-20.57-13.42-6.73-3.4-14.5-8.72-19-13.33C-6.38,115.7-6.41,111.39-5.22,108.05Z"/><path class="cls-31" d="M-5.46,108C-1.4,102.12-11.3,87.75-.75,74,10.58,59.17,31,56.67,43.6,48.14c14.69-9.94,50.3-5.26,59.48,8.93,9.67,14.93,7.71,28.47,8.2,34.74.71,8.86,11.42,18.54,7.26,30-2,5.39-10.83,12.48-24,20.39-13,7.77-27,17.4-35.19,18.35-8.77,1-14.4-7.26-21.13-13.28-6.94-6.22-13.33-9.77-20.49-13.37-6.74-3.4-14.66-8.73-19.28-13.34C-6.38,115.72-6.56,111.39-5.46,108Z"/><path class="cls-32" d="M-5.69,108c3.94-6-6.47-20.3,4.05-34.14C9.65,59,30.46,56.47,43.27,47.89c14.94-10,51.21-5.1,60.42,9.29,9.7,15.15,7.64,28.54,8.11,34.75.66,8.8,11.38,18.46,7.13,29.51-2,5.23-11,12.11-24.32,20-13.08,7.76-27.09,17.61-35.17,18.75-8.63,1.23-14.13-7-20.81-13-6.89-6.18-13.24-9.72-20.41-13.32-6.75-3.38-14.81-8.72-19.61-13.34C-6.38,115.73-6.71,111.39-5.69,108Z"/><path class="cls-33" d="M-5.92,108c3.82-6-7.1-20.31,3.38-34.2C8.72,58.88,29.94,56.28,42.93,47.64c15.19-10.08,52.14-5,61.37,9.65,9.73,15.38,7.58,28.61,8,34.76.62,8.74,11.35,18.38,7,29.05-2.07,5.07-11.18,11.75-24.62,19.62-13.21,7.74-27.23,17.82-35.16,19.16-8.49,1.44-13.85-6.73-20.48-12.7C32.22,141,25.9,137.5,18.71,133.91c-6.75-3.37-15-8.73-19.92-13.35C-6.38,115.74-6.87,111.39-5.92,108Z"/><path class="cls-34" d="M-6.16,108c3.71-6-7.72-20.33,2.72-34.27,11.23-15,32.85-17.64,46-26.32,15.43-10.17,53.05-4.81,62.31,10,9.75,15.6,7.51,28.68,7.91,34.78.57,8.67,11.32,18.28,6.89,28.59-2.12,4.91-11.36,11.37-24.92,19.24-13.34,7.72-27.37,18-35.15,19.56-8.35,1.66-13.58-6.47-20.16-12.41-6.79-6.14-13.08-9.64-20.27-13.22A101,101,0,0,1-1,120.58C-6.38,115.76-7,111.39-6.16,108Z"/><path class="cls-35" d="M-6.39,108c3.59-6-8.36-20.34,2.06-34.34,11.2-15,33.22-17.74,46.6-26.48,15.68-10.24,54-4.66,63.24,10.35,9.79,15.84,7.46,28.75,7.83,34.8.52,8.6,11.28,18.2,6.76,28.13-2.17,4.75-11.53,11-25.23,18.86-13.46,7.71-27.5,18.22-35.13,20-8.2,1.87-13.31-6.21-19.84-12.13-6.73-6.1-13-9.59-20.2-13.17A108,108,0,0,1-.87,120.6C-6.38,115.77-7.17,111.38-6.39,108Z"/><path class="cls-36" d="M-6.62,108c3.47-6.09-9-20.36,1.39-34.41C5.94,58.44,28.36,55.69,41.93,46.9c15.93-10.31,54.89-4.51,64.19,10.71,9.82,16.06,7.39,28.82,7.73,34.81.48,8.54,11.25,18.11,6.64,27.68-2.21,4.58-11.71,10.64-25.53,18.47C81.37,146.27,67.33,157,59.84,159c-8.06,2.09-13-5.95-19.51-11.84C33.64,141,27.42,137.56,20.2,134A114,114,0,0,1-.69,120.61C-6.38,115.78-7.32,111.38-6.62,108Z"/><path class="cls-37" d="M-6.85,107.94c3.35-6.12-9.62-20.37.73-34.47C5,58.29,27.84,55.5,41.6,46.66c16.17-10.4,55.8-4.37,65.13,11.06,9.85,16.28,7.33,28.89,7.63,34.82.44,8.48,11.22,18,6.52,27.23C118.62,124.18,109,130,95,137.85c-13.71,7.68-27.76,18.64-35.1,20.79C52,160.94,47.17,153,40.75,147.09,34.12,141,27.93,137.57,20.69,134A121.65,121.65,0,0,1-.52,120.63C-6.39,115.8-7.47,111.38-6.85,107.94Z"/><path class="cls-38" d="M-7.09,107.93c3.24-6.16-10.24-20.39.07-34.54,11.11-15.24,34.33-18.09,48.28-27C57.69,35.94,98,42.2,107.34,57.83c9.88,16.51,7.27,29,7.54,34.83.38,8.42,11.18,17.94,6.39,26.77-2.31,4.26-12.06,9.91-26.14,17.71C81.29,144.8,67.23,156,60,158.32c-7.77,2.53-12.5-5.43-18.86-11.25-6.58-6-12.74-9.48-20-13A130.16,130.16,0,0,1-.34,120.65C-6.39,115.81-7.62,111.38-7.09,107.93Z"/><path class="cls-39" d="M-7.32,107.91c3.12-6.19-10.88-20.4-.6-34.6C3.16,58,26.78,55.11,40.93,46.16,57.6,35.62,98.57,42.1,108,57.94c9.91,16.73,7.2,29,7.44,34.85.34,8.34,11.15,17.84,6.27,26.31-2.36,4.09-12.24,9.54-26.45,17.32-14,7.65-28,19.05-35.07,21.59-7.63,2.75-12.23-5.17-18.54-11-6.53-6-12.65-9.43-19.91-13A139.49,139.49,0,0,1-.17,120.67C-6.39,115.82-7.77,111.38-7.32,107.91Z"/><path class="cls-40" d="M-7.55,107.9c3-6.23-11.51-20.42-1.26-34.68,11-15.37,35.07-18.31,49.4-27.3,16.93-10.62,58.56-3.92,68,12.13,9.93,17,7.14,29.1,7.34,34.86.3,8.28,11.11,17.75,6.15,25.85-2.41,3.93-12.41,9.18-26.75,16.94-14.09,7.64-28.16,19.27-35.06,22-7.48,3-12-4.91-18.22-10.68-6.47-6-12.56-9.39-19.84-12.93A149.66,149.66,0,0,1,0,120.69C-6.39,115.84-7.92,111.37-7.55,107.9Z"/><path class="cls-41" d="M-7.79,107.88c2.89-6.26-12.13-20.43-1.92-34.74,11-15.43,35.44-18.42,50-27.47C57.43,35,99.73,41.9,109.16,58.16c10,17.18,7.08,29.17,7.26,34.87.25,8.22,11.07,17.66,6,25.4-2.46,3.76-12.59,8.8-27,16.56-14.22,7.61-28.29,19.47-35,22.4C53,160.57,48.65,152.74,42.45,147,36,141.05,30,137.65,22.68,134.12A159.1,159.1,0,0,1,.18,120.71C-6.39,115.85-8.07,111.37-7.79,107.88Z"/><path class="cls-42" d="M-8,107.87c2.77-6.3-12.76-20.45-2.58-34.81,11-15.5,35.8-18.54,50.52-27.64,17.42-10.77,60.39-3.62,69.85,12.85,10,17.4,7,29.23,7.16,34.88.2,8.16,11,17.57,5.9,24.94-2.51,3.6-12.76,8.44-27.36,16.18-14.34,7.6-28.41,19.69-35,22.81C53.26,160.49,49,152.69,42.87,147c-6.37-5.92-12.39-9.3-19.7-12.82A171.51,171.51,0,0,1,.35,120.73C-6.39,115.86-8.22,111.37-8,107.87Z"/><path class="cls-43" d="M-8.25,107.85C-5.6,101.52-21.65,87.39-11.5,73c11-15.56,36.18-18.65,51.09-27.8,17.67-10.85,61.31-3.48,70.79,13.19,10,17.64,7,29.31,7.06,34.9.16,8.1,11,17.48,5.78,24.49-2.57,3.43-12.94,8.07-27.66,15.79-14.47,7.59-28.55,19.89-35,23.22-7,3.61-11.15-4.13-17.24-9.82C37,141.05,31,137.69,23.67,134.17A183.16,183.16,0,0,1,.53,120.75C-6.39,115.88-8.37,111.37-8.25,107.85Z"/><path class="cls-44" d="M-8.48,107.84c2.53-6.37-14.69-21-3.92-34.94,10.18-16.12,35.82-20.09,51.65-28C56.17,32.52,103.63,40.56,111,58.48c12.18,16.49,6.56,29.4,7,34.92-.37,8,11,17.37,5.65,24-2.62,3.26-13.26,7.43-28,15.41-14.72,7.3-28.68,20.08-35,23.61-6.89,3.83-10.7-4.06-16.92-9.52-6.07-6.08-12.24-9.18-19.55-12.73A184.06,184.06,0,0,1,.7,120.77C-6.42,115.94-8.52,111.37-8.48,107.84Z"/><path class="cls-45" d="M83.68,133.06c.12.75.24,1.51.37,2.26a23.7,23.7,0,0,1,.33,3.57,37,37,0,0,1-.09,4.08A20.88,20.88,0,0,1,80,154.26c-.3.39-.6.77-.89,1.16a5,5,0,0,1-1.56,1.13,18.87,18.87,0,0,1-6,2.21,40.69,40.69,0,0,1-8.24.75c-2.12,0-4.23-.12-6.34-.28A67.55,67.55,0,0,1,45,157.08a131.06,131.06,0,0,1-14.3-4.91c-.35-.13-.39-.29-.27-.63,1.27-3.62,2.52-7.25,3.78-10.87a2.82,2.82,0,0,0,.07-.31,6.6,6.6,0,0,1-4-1.26,7.74,7.74,0,0,1-2.69-4,22.15,22.15,0,0,1-1-5.1A110.26,110.26,0,0,1,26,117.84c0-2.79,0-5.58,0-8.37q.08-3.21.4-6.41a47.37,47.37,0,0,1,.7-4.9.74.74,0,0,1,.22.71c0,.13.05.23.21.13s.22,0,.26.13.06.2.09.3a1.18,1.18,0,0,1-.41,1.3c-.19.14-.21.6,0,.7.41.17.3.49.34.8a6.94,6.94,0,0,0,.1,1.29c.05.21.15.33.38.19s.48,0,.51.31,0,.34.28.2a.24.24,0,0,1,.37.09.51.51,0,0,1-.05.58c-.08.13-.21.29-.35.19-.36-.25-.61.09-.9.13s-.14.13-.14.24a.25.25,0,0,0,.18.27,1.12,1.12,0,0,0,.51.11.8.8,0,0,1,.48.09.36.36,0,0,1,.16.34c0,.17-.12.18-.25.19s-.38.06-.36.3.19.3.4.33a8.47,8.47,0,0,0,1.14.19c.12,0,.35,0,.35.18s-.24.29-.35.28c-.32,0-.54,0-.45.38,0,.06-.1.11-.18.09s-.31,0-.29.24.17.24.36.22c.58-.08.59-.08.39.46-.05.13-.07.23.11.25s.22-.13.26,0-.07.21-.2.24-.19.07-.17.17.16.09.25.1.39,0,.4.24.22.3.46.25c.55-.12.94.17.77.71s.08.73.57.76c.08,0,.15.06.22.06.48,0,.48.38.44.63s-.33.09-.52.06a.7.7,0,0,0-.65.25c-.14.19.13.32.24.47.3.41.75-.07,1.08.17a.61.61,0,0,1,.07-.1c.23-.37.52-.35.7,0,.06.11.08.19.22.13s.27.05.4.16c.29.24.66.39.74.82,0,.06.14.14.21.13.32,0,.63.19,1,.05a.24.24,0,0,1,.27.1c.1.12,0,.18-.09.23s-.06.13,0,.19a2,2,0,0,0,1.38,0c.12-.09.27-.15.32,0s.23.25.42.14a.27.27,0,0,1,.39,0,.49.49,0,0,0,.49.14c.39-.09.7.19,1.07.2.18,0,.12.13.05.22a.85.85,0,0,1-.9.41c-.46-.13-.46.28-.52.48s.24.18.4.2.33,0,.49,0,.32.09.33.25c0,.5.46.46.75.58.11,0,.22,0,.25.17s-.06.25-.2.3l-.64.18c-.13,0-.36,0-.35.19a.53.53,0,0,0,.28.46l.21.09a1.58,1.58,0,0,1,.5,1c.06.27-.31.3-.52.38s-.34.23-.07.42a1.41,1.41,0,0,1,.57.54c.08.16,0,.38.17.54.34-1.35.46-2.71.75-4-.1,1.32-.34,2.61-.56,3.91a1.07,1.07,0,0,1-.7,1c-1.6.6-3.07,1.48-4.6,2.21-.12.06-.3.08-.31.31a2.83,2.83,0,0,0,1-.3,43.16,43.16,0,0,1,5.35-2.48c.76-.26,1.51-.51,2.24-.83a5.56,5.56,0,0,1,1.25-.54h0c0,.08-.17.08-.12.24.36-.15.71.09,1.07,0s.45-.17.65-.06c.68.35,1.46,0,2.12.32a.19.19,0,0,0,.13,0c.87-.23,1.65.27,2.49.29a6.48,6.48,0,0,0,1.09,0,1.43,1.43,0,0,1,1.42.43l-.37.13a.27.27,0,0,0-.2.22.24.24,0,0,0,.21.25,8.37,8.37,0,0,0,1.85.28.76.76,0,0,1,.26,0c.43.09,1-.11,1.28.39,0,0,0,0,0,0a12.39,12.39,0,0,1,1.8.26,2.83,2.83,0,0,0,.65.09,1.34,1.34,0,0,1,1.43,1s.08,0,.12.05a4.77,4.77,0,0,1-1,.81c-3.11,2.21-6.1,4.58-9.42,6.49l-3.17,1.85c0-.06-.05,0-.06,0h0c-.07,0-.14,0-.17.08h0a.54.54,0,0,0-.44.26h0a.18.18,0,0,0-.18.09h0a.55.55,0,0,0-.44.26h0a.24.24,0,0,0-.25.17h0c-.07,0-.13,0-.16.08h0c-.07,0-.14,0-.17.08h0c-.07,0-.14,0-.17.08h0a.18.18,0,0,0-.17.09h0a2,2,0,0,0-1,.53h0c-.07,0-.13,0-.16.08h0c-.07,0-.14,0-.17.08h0c-.07,0-.14,0-.17.09h0a.18.18,0,0,0-.17.09h0a.32.32,0,0,0-.36.18h0c-.07,0-.14,0-.17.09h0c-.15,0-.28,0-.35.17h0a.18.18,0,0,0-.18.08h0c-.07,0-.14,0-.17.08h0c-.07,0-.14,0-.17.08h0a1.64,1.64,0,0,0-1,.44h0a.18.18,0,0,0-.17.08.45.45,0,0,1-.13.11,31.69,31.69,0,0,1-5.1,1.76c-.74.18-1.49.32-2.23.48a5.73,5.73,0,0,0,1.85-.14,32.88,32.88,0,0,0,8.56-3.2c1.92-1,3.76-2.11,5.63-3.19a95,95,0,0,0,9.22-6.18c1-.75,2-1.45,3-2.18,0,.1.06.17.17.17a5.25,5.25,0,0,0,1.19,0,9.6,9.6,0,0,1,2.78,0c.46,0,.91-.05,1.37,0a.3.3,0,0,0,.34-.28c0-.23-.22-.17-.34-.13a.32.32,0,0,1-.39-.11.24.24,0,0,0-.28-.06,3.79,3.79,0,0,1-1.5,0c-.09,0-.2,0-.2-.13s.1-.14.19-.13a13.08,13.08,0,0,0,1.4,0c.3,0,.63-.22,1-.11,0,0,.07,0,.09-.09s.25-.09.38,0l.36.18c.1.05.26.07.26.2s-.18.09-.27.14-.44.08-.2.32a.85.85,0,0,0,.58.29q1.78.08,3.57.18a8.85,8.85,0,0,1,2.28.44,4.17,4.17,0,0,0,1.81.37c.24,0,.37.18.5.32s-.06.18-.14.24-.24.09-.21.25.19.17.31.19c.58.11,1.12.37,1.69.45a1.78,1.78,0,0,1,1.4.82c.1.18.11.22,0,.34-.36.24-.32.47,0,.78a5.89,5.89,0,0,0,.86.51.79.79,0,0,1,.32.69c0,.22-.29.17-.47.22s-.33,0-.35.2.16.23.29.29.22.08.32.13c.37.19.81.29,1,.66A.82.82,0,0,0,83.68,133.06Zm-22.93-7.84a.37.37,0,0,0,.58,0c.05,0,.11-.1.06-.15s-.35,0-.53,0A.48.48,0,0,0,60.75,125.22Zm-6.64-2.31c-.09,0-.2,0-.19.12s.1.13.19.14.19,0,.19-.13S54.2,122.91,54.11,122.91Z"/><path class="cls-46" d="M62.15,125.4s-.11,0-.12-.05a1.34,1.34,0,0,0-1.43-1,2.83,2.83,0,0,1-.65-.09,12.39,12.39,0,0,0-1.8-.26s0,0,0,0c-.32-.5-.85-.3-1.28-.39a.76.76,0,0,0-.26,0,8.37,8.37,0,0,1-1.85-.28.24.24,0,0,1-.21-.25.27.27,0,0,1,.2-.22l.37-.13a1.43,1.43,0,0,0-1.42-.43,6.48,6.48,0,0,1-1.09,0c-.84,0-1.62-.52-2.49-.29a.19.19,0,0,1-.13,0c-.66-.36-1.44,0-2.12-.32-.2-.11-.43,0-.65.06s-.71-.17-1.07,0c0-.16.1-.16.12-.24a.21.21,0,0,0,.18-.09.19.19,0,0,0,.18-.09.18.18,0,0,0,.17-.09.18.18,0,0,0,.18-.09l.12,0,0,0-.09.07a.19.19,0,0,0-.18.09.19.19,0,0,0-.18.09.17.17,0,0,0-.17.09c-.08,0-.14,0-.18.08A5.56,5.56,0,0,0,45,122c-.73.32-1.48.57-2.24.83a43.16,43.16,0,0,0-5.35,2.48,2.83,2.83,0,0,1-1,.3c0-.23.19-.25.31-.31,1.53-.73,3-1.61,4.6-2.21a1.07,1.07,0,0,0,.7-1c.22-1.3.46-2.59.56-3.91-.29,1.32-.41,2.68-.75,4-.2-.16-.09-.38-.17-.54a1.41,1.41,0,0,0-.57-.54c-.27-.19-.21-.31.07-.42s.58-.11.52-.38a1.58,1.58,0,0,0-.5-1l-.21-.09a.53.53,0,0,1-.28-.46c0-.19.22-.14.35-.19l.64-.18c.14-.05.24-.13.2-.3s-.14-.13-.25-.17c-.29-.12-.73-.08-.75-.58,0-.16-.16-.24-.33-.25s-.33,0-.49,0-.45,0-.4-.2.06-.61.52-.48a.85.85,0,0,0,.9-.41c.07-.09.13-.22-.05-.22-.37,0-.68-.29-1.07-.2a.49.49,0,0,1-.49-.14.27.27,0,0,0-.39,0c-.19.11-.35.17-.42-.14s-.2-.11-.32,0a2,2,0,0,1-1.38,0c-.08-.06-.16-.12,0-.19s.19-.11.09-.23a.24.24,0,0,0-.27-.1c-.33.14-.64-.09-1-.05-.07,0-.21-.07-.21-.13-.08-.43-.45-.58-.74-.82-.13-.11-.21-.24-.4-.16s-.16,0-.22-.13c-.18-.4-.47-.42-.7,0a.61.61,0,0,0-.07.1c-.33-.24-.78.24-1.08-.17-.11-.15-.38-.28-.24-.47a.7.7,0,0,1,.65-.25c.19,0,.46.31.52-.06s0-.66-.44-.63c-.07,0-.14,0-.22-.06-.49,0-.77-.13-.57-.76s-.22-.83-.77-.71c-.24,0-.44.11-.46-.25s-.22-.24-.4-.24-.23,0-.25-.1.08-.14.17-.17.24-.1.2-.24-.17,0-.26,0-.16-.12-.11-.25c.2-.54.19-.54-.39-.46-.19,0-.34,0-.36-.22s.06-.32.29-.24.19,0,.18-.09c-.09-.43.13-.42.45-.38.11,0,.36-.11.35-.28s-.23-.19-.35-.18a8.47,8.47,0,0,1-1.14-.19c-.21,0-.38-.11-.4-.33s.18-.28.36-.3.24,0,.25-.19a.36.36,0,0,0-.16-.34.8.8,0,0,0-.48-.09,1.12,1.12,0,0,1-.51-.11.25.25,0,0,1-.18-.27c0-.11,0-.23.14-.24s.54-.38.9-.13c.14.1.27-.06.35-.19a.51.51,0,0,0,.05-.58.24.24,0,0,0-.37-.09c-.24.14-.26,0-.28-.2s-.14-.54-.51-.31-.33,0-.38-.19a6.94,6.94,0,0,1-.1-1.29c0-.31.07-.63-.34-.8-.22-.1-.2-.56,0-.7a1.18,1.18,0,0,0,.41-1.3c0-.1-.07-.2-.09-.3s-.13-.21-.26-.13-.25,0-.21-.13a.74.74,0,0,0-.22-.71l0-.16c.12,0,.21-.11.34,0s.15,0,.17-.08,0-.18-.07-.19c-.39-.05-.18-.31-.17-.49s.13-.25,0-.35l0-.18c.17,0,.29-.17.46-.22s.38-.22.29-.38-.11-.61-.35-.83l.05-.17s.1,0,.11,0a3,3,0,0,0,.2-.54c0-.33.34-.07.43-.2s-.3-.24-.16-.47c0,0,0,0,0-.07a2.88,2.88,0,0,0,.14-.82.08.08,0,0,1,0-.07c.23,0,.15-.23.16-.37h0a.16.16,0,0,0,.09-.19h0c.09,0,.1-.1.09-.18h0c.1,0,.26,0,.26-.09,0-.42.32-.75.37-1.16h0c.1,0,.11-.1.11-.18h0c.28,0,.28-.24.26-.45h0c.1,0,.11-.11.1-.19a12.64,12.64,0,0,1,1.59-2.31,21.38,21.38,0,0,1,4.49-4.16c1-.6,2-1.21,3.12-1.71a24.75,24.75,0,0,1,4-1.51c.12.06.24.09.28.28A4.09,4.09,0,0,0,44.21,82a15.22,15.22,0,0,0,7.87,5.69,5.4,5.4,0,0,0,2.76.24,4.51,4.51,0,0,0,3.31-3c.06-.15,0-.37.28-.41.35.16.7.31,1,.48A19.69,19.69,0,0,1,64,88.3a43.14,43.14,0,0,1,4.87,6.23,47.36,47.36,0,0,1,4.66,9.34c-.33.24-.65,0-1,0-.88,0-1.75.1-2.63.11a1.54,1.54,0,0,0-.68-1c-1.76-1.17-3.63-2.15-5.49-3.17a.83.83,0,0,0-.64-.07,1.35,1.35,0,0,0-1,1.17,1.15,1.15,0,0,0,.61,1.22c1.64,1,3.28,2,5,2.9-.18.16-.36.31-.52.48a27.76,27.76,0,0,0-3.33,4.58A21.5,21.5,0,0,1,60.93,114c-.68.65-1.44,1.23-2.1,1.91-.06.07-.19.06-.13.25.21.61.34,1.25.54,1.87a16.79,16.79,0,0,0,3.16,5.4c.36.46.57.48,1.12.14,1-.61,2-1.25,3-1.86a19.7,19.7,0,0,1,1.72-1.14c0,.24-.18.35-.3.51a1.38,1.38,0,0,0-.19,1.63,1.5,1.5,0,0,0,1,.72l8.69,2.22,3.55.9c0,.06-.16.08-.09.17a5.21,5.21,0,0,0,.44.8,1,1,0,0,0,0,.3c.37.79.62,1.63.91,2.45,0,0,0,.12.16.06a16.15,16.15,0,0,0-1.1-2.82c0-.34-.27-.61-.27-1l7.23,1.73c-.67.71-1.23,1.51-2,2.17l-.09.09h0l-.09.09h0l-.09.09h0l-.09.1h0l-.09.1h0l-.1.1h0l-.1.09h0l-.09.09h0l-.09.09h0l-.09.09h0q-.18,0-.18.18h0l-.09.1-.08.08c-.13,0-.19.06-.19.18h0l-.1.09h0l-.09.09h0c-.42-.08-.62.07-.55.52l-.52.46a.82.82,0,0,1-.82-.4c-.23-.37-.67-.47-1-.66-.1-.05-.22-.07-.32-.13s-.32-.1-.29-.29.22-.16.35-.2.47,0,.47-.22a.79.79,0,0,0-.32-.69,5.89,5.89,0,0,1-.86-.51c-.32-.31-.36-.54,0-.78.15-.12.14-.16,0-.34a1.78,1.78,0,0,0-1.4-.82c-.57-.08-1.11-.34-1.69-.45-.12,0-.29,0-.31-.19s.13-.17.21-.25.22-.16.14-.24-.26-.35-.5-.32a4.17,4.17,0,0,1-1.81-.37,8.85,8.85,0,0,0-2.28-.44q-1.78-.11-3.57-.18a.85.85,0,0,1-.58-.29c-.24-.24.07-.26.2-.32s.28,0,.27-.14-.16-.15-.26-.2l-.36-.18c-.13-.07-.26-.16-.38,0s-.07.1-.09.09c-.35-.11-.68.12-1,.11a13.08,13.08,0,0,1-1.4,0c-.09,0-.19,0-.19.13s.11.13.2.13a3.79,3.79,0,0,0,1.5,0,.24.24,0,0,1,.28.06.32.32,0,0,0,.39.11c.12,0,.33-.1.34.13a.3.3,0,0,1-.34.28c-.46,0-.91,0-1.37,0a9.6,9.6,0,0,0-2.78,0,5.25,5.25,0,0,1-1.19,0c-.11,0-.15-.07-.17-.17h0l.09-.09h0A.26.26,0,0,0,63,125c-.06-.12-.16-.11-.24,0h0c-.07,0-.13,0-.16.08h0l-.08.08h0a.17.17,0,0,0-.17.08h0a.26.26,0,0,0-.18.17Zm-14.23-4.72-.12,0,0,0,.09-.06,0,0Zm2.67-1.24.11,0,0,0-.09.07a.18.18,0,0,0-.18.09c-.11,0-.24,0-.3.13.14,0,.22,0,.3-.13A.19.19,0,0,0,50.59,119.44ZM44.18,104a3.33,3.33,0,0,0-.15,1.21c-.12,1.39-.23,2.79-.37,4.18-.18,1.71-.41,3.41-.62,5.11a2.56,2.56,0,0,0,0,1.24c.07-.58.15-1.07.2-1.56.21-1.86.49-3.7.64-5.56.13-1.53.31-3.07.35-4.61.13-.12.06-.28.08-.42a23.48,23.48,0,0,0,.15-2.51c0-1,.14-2,.11-3.1a1,1,0,0,0-.17.53C44.41,100.3,44.19,102.12,44.18,104ZM33.9,112.33c-.19.06-.31.17-.29.38s.07.24.22.2.38-.15.37-.37S34,112.36,33.9,112.33Zm8.76,5.6.29-2A5.64,5.64,0,0,0,42.66,117.93Zm40.16,13.38a.76.76,0,0,0,0-.61c0-.12-.11-.11-.21-.09s-.18,0-.14.11S82.5,131.23,82.82,131.31Zm-46.47-17.1a.23.23,0,0,0-.24-.25c-.15,0-.19.1-.19.23s.07.26.23.25S36.34,114.34,36.35,114.21Zm-5.07-4.75a.21.21,0,0,0,.16-.27c0-.09-.05-.22-.18-.2s-.15.15-.15.27S31.14,109.47,31.28,109.46Zm18.6,10.26-.75.34C49.41,120,49.76,120.11,49.88,119.72ZM28.61,101.8s0-.14-.14-.14a.16.16,0,0,0-.17.15.15.15,0,0,0,.15.17C28.56,102,28.61,101.94,28.61,101.8Zm4.72,9.32c-.1,0-.15,0-.16.07a.12.12,0,0,0,.13.14c.07,0,.17,0,.16-.09S33.36,111.15,33.33,111.12Zm39.14,13.44c-.24-.06-.37-.18-.56-.1C72.05,124.6,72.2,124.62,72.47,124.56Zm-23.88-4.24c-.19.05-.35,0-.4.25C48.3,120.48,48.5,120.57,48.59,120.32Zm-14.11-7.64c.07,0,.14,0,.14-.09s-.07-.09-.13-.07-.12,0-.11.11S34.45,112.66,34.48,112.68Zm30.86,12.07-.13.1s0,.08.07.08.12,0,.11-.07A.34.34,0,0,0,65.34,124.75ZM27.85,97c-.07,0-.09,0-.1,0s0,.1,0,.11.11,0,.11-.07A.25.25,0,0,0,27.85,97ZM30,106.35s.07-.08.07-.11,0-.09-.05-.1-.1,0-.09.1S30,106.3,30,106.35ZM51.51,119l-.11,0c-.06,0-.12,0-.12.1s.06,0,.1,0A.15.15,0,0,0,51.51,119ZM30.6,104.82a.41.41,0,0,0,0-.08l-.07,0s0,.05,0,.07S30.57,104.8,30.6,104.82Zm40.93,19.6.07,0s0,0-.07,0,0,0-.06,0Z"/><path class="cls-47" d="M43.29,80.37a24.75,24.75,0,0,0-4,1.51c-1.08.5-2.1,1.11-3.12,1.71-.35.08-.43-.3-.69-.41a6,6,0,0,1-2.95-2.29,7.77,7.77,0,0,1-1.19-3.3,9.82,9.82,0,0,1,1-5,51.16,51.16,0,0,1,4.34-7.71c.74-1.12,1.46-2.26,2.13-3.42a8.32,8.32,0,0,0,.89-2.81,28,28,0,0,1,.76-2.82q.64-2.18,1.44-4.32a17.59,17.59,0,0,1,2.18-4,15.2,15.2,0,0,1,2.22-2.58A16.57,16.57,0,0,1,51,41.8a15.18,15.18,0,0,1,4.7-1.13,14,14,0,0,1,2.42-.14,17.81,17.81,0,0,1,6.3,1.41,16.87,16.87,0,0,1,5.19,3.7A18,18,0,0,1,74,54.17a26.45,26.45,0,0,1,.62,4,46.52,46.52,0,0,1,0,5c0,1.4-.25,2.79-.38,4.18A48.73,48.73,0,0,1,73,73.9a44.32,44.32,0,0,1-2.25,7.36,12.75,12.75,0,0,1-3,4.65,7.83,7.83,0,0,1-2.8,1.73c-.29.09-.62.12-.67.52,0,.06-.15.1-.22.14a19.69,19.69,0,0,0-4.54-3.37c-.34-.17-.69-.32-1-.48a.76.76,0,0,1,0-.21,15.29,15.29,0,0,0,.5-2.42c.06-.4.27-.45.55-.45a2.36,2.36,0,0,0,.65-.08,8.33,8.33,0,0,0,3.42-1.69,16.5,16.5,0,0,0,2.78-2.76,20.15,20.15,0,0,0,1.74-2.71,27.29,27.29,0,0,0,3.53-15.28,18.42,18.42,0,0,0-1.46-6.06,9.36,9.36,0,0,0-1.62-2.67c-.37-.39-.45-.38-.79,0s-.61.73-.94,1.07a22.35,22.35,0,0,1-7.57,5,21.09,21.09,0,0,1-6.53,1.58,4.18,4.18,0,0,1-2.86-.51,4.8,4.8,0,0,0-1.68-.66,3.65,3.65,0,0,0-3.43.78,4.67,4.67,0,0,0-1.49,3.51,6.6,6.6,0,0,0,1,4.12,3.55,3.55,0,0,0,1.52,1.5c.37.14.41.33.41.65,0,1.14-.08,2.28-.17,3.41a28.53,28.53,0,0,1-1,5.28,40.38,40.38,0,0,1-1.31,3.89C43.61,80,43.56,80.24,43.29,80.37Z"/><path class="cls-48" d="M69.93,104c.88,0,1.75-.14,2.63-.11.33,0,.65.24,1,0a14.37,14.37,0,0,0,1.85.35c.42.26.93.28,1.35.53l0,0,0,0,.2,0,0,0c0,.27.21.19.36.2h0a.52.52,0,0,0,.54.28h0c0,.1.1.1.18.09h0c0,.15.05.2.19.18h0c0,.09.1.11.19.09h0l.09.09h0l.09.09h0l.09.09h0l.09.09h0a2.82,2.82,0,0,1,0,2.08l.06.07a17.39,17.39,0,0,1-2.1-.73,1.31,1.31,0,0,0-.28-.2,6.93,6.93,0,0,0-4-.45c-.14,0-.29,0-.44,0s-.24.07-.36.1a9.07,9.07,0,0,1,4.94.69,2.26,2.26,0,0,1,1,2.09c-.19.24-.19.63-.55.76-.22-.15-.38.21-.67,0a5.05,5.05,0,0,0-4-.56.38.38,0,0,0-.34.2l.39,0a6.14,6.14,0,0,1,3.54.49,1.85,1.85,0,0,0,.75.25h0a.57.57,0,0,0,.08.42,2.13,2.13,0,0,1,.27,1.22c0,.38-.27.67-.27,1a.09.09,0,0,0-.08.1c-.13,0-.19,0-.18.17s-.19,0-.18.18-.16,0-.17.1-.16,0-.18.08-.2-.06-.24.07-.33,0-.3.22c0,.39-.09.75-.09,1.13-.1,0-.09.1-.09.18l-.09.09c-.18,0-.27.08-.26.27a.16.16,0,0,0-.19.07,5.27,5.27,0,0,1-1.29.36c-.22,0-.47-.1-.66.1h0c-.09,0-.16,0-.19.1h0a.37.37,0,0,0-.27.27h0l-.09.1h0a.19.19,0,0,0-.19.18h0l-.09.09h0l-.09.09h0c-.21,0-.28.1-.27.3l-.07,0-.12.1h0a.13.13,0,0,0-.18.09h0c-.2,0-.29.09-.28.29l-.06.06-.12.09h0c-.13,0-.18.06-.21.17l-2.28,2a19.7,19.7,0,0,0-1.72,1.14c-1,.61-2,1.25-3,1.86-.55.34-.76.32-1.12-.14a16.79,16.79,0,0,1-3.16-5.4c-.2-.62-.33-1.26-.54-1.87-.06-.19.07-.18.13-.25.66-.68,1.42-1.26,2.1-1.91a21.5,21.5,0,0,0,2.91-3.93,27.76,27.76,0,0,1,3.33-4.58c.16-.17.34-.32.52-.48A6.22,6.22,0,0,1,69.93,104Zm4.84,9.78c.08.1.15.23.35.22-.1-.15-.18-.24-.32-.26,0-.24-.25-.33-.43-.41a3.37,3.37,0,0,0-2.73,0A5.19,5.19,0,0,1,74.77,113.76ZM71.31,107l0,0s0,0,0,0l0,0Z"/><path class="cls-49" d="M76.74,104.75c-.42-.25-.93-.27-1.35-.53l2.33-4.82c1.57-3.25,3.15-6.49,4.71-9.75a4.48,4.48,0,0,1,1.38-1.76,3.6,3.6,0,0,1,2.88-.45l5.7,1,5.13.86,5.61.92c2.13.35,4.27.67,6.39,1.08a1.66,1.66,0,0,1,1.3,2.5c-.71,1.66-1.49,3.28-2.25,4.9l-5.52,11.77c0,.06,0,.13-.07.2a16.75,16.75,0,0,0-1.54-.9s0-.06,0-.09c1.86-4,3.73-8,5.58-12.07.58-1.24,1.24-2.45,1.72-3.73a.65.65,0,0,0-.53-1c-.13,0-.26-.07-.39-.09L96,90.81l-9.59-1.6a2.18,2.18,0,0,0-2.75,1.46c-1.24,2.61-2.49,5.21-3.74,7.82-1,2.09-2,4.2-3,6.3l-.2,0Z"/><path class="cls-49" d="M68.21,120.59l2.28-2,.11,0c0,.15-.08.25-.13.37-.26.61-.56,1.21-.78,1.83a.9.9,0,0,0,.72,1.3l.35.08L83.05,125l8.43,1.93a1.65,1.65,0,0,0,2-1c.63-1.31,1.25-2.63,1.87-3.95l1.77-3.79a1.18,1.18,0,0,0,.12.76,1.87,1.87,0,0,0,.42.77c.33.42.54.83.15,1.34a.84.84,0,0,0-.06.3c-.24.17-.29.46-.41.71-.84,1.76-1.68,3.54-2.51,5.31a2.72,2.72,0,0,1-2,1.69,5.49,5.49,0,0,1-2.05-.19l-2.5-.52-7.23-1.73a.11.11,0,0,0-.08,0l-3.55-.9-8.69-2.22a1.5,1.5,0,0,1-1-.72,1.38,1.38,0,0,1,.19-1.63C68,120.94,68.23,120.83,68.21,120.59Z"/><path class="cls-48" d="M97.8,121.31a.84.84,0,0,1,.06-.3c.39-.51.18-.92-.15-1.34a1.87,1.87,0,0,1-.42-.77l.08-1.16h0c.1,0,.1-.1.1-.19h0c.29-.24.31-.31.08-.43h0l-.1-.09h0l-.1-.1h0l-.1-.1h0l-.1-.1h0c0-.14,0-.28-.19-.27h0a2.84,2.84,0,0,1-.09-2h0c.24,0,.26-.18.28-.36h0l.1-.1h0c.22,0,.39-.3.66,0a26,26,0,0,0,2.58,2.22,6.6,6.6,0,0,0,1.28,1,1.76,1.76,0,0,0-.52-.68c-.8-.68-1.63-1.32-2.4-2s-1.67-1.18-1-2.39h0a.45.45,0,0,0,.27-.27h0a.22.22,0,0,0,.27-.17h0a5.58,5.58,0,0,1,.57-.08c.11,0,.17-.19.33,0,.85.76,1.9,1.24,2.77,2a.44.44,0,0,0,.32.13l.09.09c.06.22.23.35.47.57a1,1,0,0,0-.43-.6l-.09-.09a3.64,3.64,0,0,0-.94-.81,18.71,18.71,0,0,1-1.78-1.16c-.55-.43-1-.86-.59-1.65,0,0,0-.08,0-.13l.06-.07.13-.09h0l.09-.1h0a2.09,2.09,0,0,1,1.81.09.17.17,0,0,0,.23-.07v0a16.75,16.75,0,0,1,1.54.9,8.45,8.45,0,0,1,.88.81,2.11,2.11,0,0,1-.47,3.22c-.1.07-.21.1-.15.29a2,2,0,0,1-.95,2.3.49.49,0,0,0-.31.55c.11,1.15-.29,1.69-1.44,2-.34-.34-.66-.71-1-1a3.48,3.48,0,0,0-1.14-.79l-.09-.09a.32.32,0,0,0-.27-.27c-.06-.07-.08-.2-.22-.21a.22.22,0,0,0,.19.26.29.29,0,0,0,.26.25l.09.09,2.15,1.94a1.68,1.68,0,0,1-1.1,2.11,1.38,1.38,0,0,1-1.25-.42C98,121.56,97.91,121.42,97.8,121.31Z"/><path class="cls-45" d="M27.88,95.23c.24.22.21.56.35.83s-.13.34-.29.38-.29.18-.46.22A8,8,0,0,1,27.88,95.23Z"/><path class="cls-46" d="M100.48,120,98.33,118l0,0a3.48,3.48,0,0,1,1.14.79c.37.31.69.68,1,1Z"/><path class="cls-45" d="M28.7,92.91a2.88,2.88,0,0,1-.14.82s0,0,0,.07c-.14.23.32.26.16.47s-.39-.13-.43.2A3,3,0,0,1,28,95s-.07,0-.11,0A10.41,10.41,0,0,1,28.7,92.91Z"/><path class="cls-45" d="M27.45,96.84c.16.1,0,.23,0,.35s-.22.44.17.49c.07,0,.08.12.07.19s-.09.11-.17.08-.22,0-.34,0A3.25,3.25,0,0,1,27.45,96.84Z"/><path class="cls-45" d="M29.67,90.86c-.05.41-.35.74-.37,1.16,0,.13-.16.1-.26.09A4.45,4.45,0,0,1,29.67,90.86Z"/><path class="cls-45" d="M84.2,132.6c-.07-.45.13-.6.55-.52A2.27,2.27,0,0,1,84.2,132.6Z"/><path class="cls-45" d="M30,90.24c0,.21,0,.41-.26.45A.85.85,0,0,1,30,90.24Z"/><path class="cls-45" d="M28.88,92.47c0,.14.07.32-.16.37A.44.44,0,0,1,28.88,92.47Z"/><path class="cls-45" d="M84.92,131.9c0-.12.06-.18.19-.18Z"/><path class="cls-45" d="M85.28,131.55q0-.2.18-.18Z"/><path class="cls-45" d="M30.12,90.06c0,.08,0,.16-.1.19S30,90.09,30.12,90.06Z"/><path class="cls-45" d="M29.77,90.69c0,.08,0,.16-.11.18S29.68,90.72,29.77,90.69Z"/><path class="cls-45" d="M29.05,92.11c0,.08,0,.15-.09.18S29,92.15,29.05,92.11Z"/><path class="cls-45" d="M29,92.29a.16.16,0,0,1-.09.19C28.88,92.4,28.87,92.32,29,92.29Z"/><path class="cls-45" d="M86.26,130.57l.09-.09Z"/><path class="cls-45" d="M86.17,130.66l.09-.09Z"/><path class="cls-45" d="M86.08,130.75l.09-.09Z"/><path class="cls-45" d="M86,130.84l.09-.1Z"/><path class="cls-45" d="M85.9,130.93l.09-.1Z"/><path class="cls-45" d="M85.81,131l.1-.1Z"/><path class="cls-45" d="M85.72,131.1l.1-.09Z"/><path class="cls-45" d="M85.64,131.19l.09-.09Z"/><path class="cls-45" d="M85.55,131.28l.09-.09Z"/><path class="cls-45" d="M85.46,131.37l.09-.09Z"/><path class="cls-45" d="M85.19,131.64l.09-.1Z"/><path class="cls-45" d="M84.83,132l.1-.09Z"/><path class="cls-45" d="M84.75,132.08l.09-.09Z"/><path class="cls-46" d="M48.52,134.55l3.17-1.85c3.32-1.91,6.31-4.28,9.42-6.49a4.77,4.77,0,0,0,1-.81h0a.17.17,0,0,0,.18-.17h0c.07,0,.14,0,.17-.08h0l.08-.08h0a.15.15,0,0,0,.16-.08h0c.12.1.07.24.08.36h0l-.09.09h0c-1,.73-2,1.43-3,2.18a95,95,0,0,1-9.22,6.18c-1.87,1.08-3.71,2.2-5.63,3.19a32.88,32.88,0,0,1-8.56,3.2,5.73,5.73,0,0,1-1.85.14c.74-.16,1.49-.3,2.23-.48a31.69,31.69,0,0,0,5.1-1.76.45.45,0,0,0,.13-.11l.17-.08h0a2.85,2.85,0,0,0,1-.44h0l.17-.08h0l.17-.08h0l.18-.08h0A.34.34,0,0,0,44,137h0l.17-.09h0a.39.39,0,0,0,.36-.18h0l.17-.09h0l.17-.09h0l.17-.08h0l.16-.08h0a2.79,2.79,0,0,0,1-.53h0l.17-.09h0l.17-.08h0l.17-.08h0l.16-.08h0a.29.29,0,0,0,.25-.17h0a.65.65,0,0,0,.44-.26h0l.18-.09h0a.67.67,0,0,0,.44-.26h0l.17-.08h.07Z"/><path class="cls-46" d="M60.75,125.22a.48.48,0,0,1,.11-.08c.18,0,.36-.19.53,0s0,.11-.06.15A.37.37,0,0,1,60.75,125.22Z"/><path class="cls-48" d="M43.11,137.42a2.85,2.85,0,0,1-1,.44A1.64,1.64,0,0,1,43.11,137.42Z"/><path class="cls-48" d="M46.23,135.81a2.79,2.79,0,0,1-1,.53A2,2,0,0,1,46.23,135.81Z"/><path class="cls-46" d="M54.11,122.91c.09,0,.19,0,.19.13s-.09.13-.19.13-.18,0-.19-.14S54,122.92,54.11,122.91Z"/><path class="cls-48" d="M47.65,135a.65.65,0,0,1-.44.26A.55.55,0,0,1,47.65,135Z"/><path class="cls-48" d="M48.27,134.66a.67.67,0,0,1-.44.26A.54.54,0,0,1,48.27,134.66Z"/><path class="cls-48" d="M44.54,136.7a.39.39,0,0,1-.36.18A.32.32,0,0,1,44.54,136.7Z"/><path class="cls-48" d="M44,137a.34.34,0,0,1-.35.17C43.72,137,43.85,137,44,137Z"/><path class="cls-48" d="M47.2,135.28a.29.29,0,0,1-.25.17A.24.24,0,0,1,47.2,135.28Z"/><path class="cls-48" d="M42.13,137.86l-.17.08A.18.18,0,0,1,42.13,137.86Z"/><path class="cls-48" d="M43.29,137.33l-.17.08C43.15,137.34,43.22,137.33,43.29,137.33Z"/><path class="cls-48" d="M43.47,137.24l-.17.08C43.33,137.25,43.4,137.24,43.47,137.24Z"/><path class="cls-48" d="M43.65,137.15l-.18.08A.18.18,0,0,1,43.65,137.15Z"/><path class="cls-48" d="M44.18,136.88,44,137C44,136.89,44.11,136.88,44.18,136.88Z"/><path class="cls-48" d="M44.71,136.61l-.17.09A.18.18,0,0,1,44.71,136.61Z"/><path class="cls-48" d="M44.89,136.52l-.17.09C44.75,136.54,44.82,136.53,44.89,136.52Z"/><path class="cls-48" d="M45.07,136.44l-.17.08C44.93,136.45,45,136.44,45.07,136.44Z"/><path class="cls-48" d="M45.24,136.35l-.16.08C45.11,136.36,45.17,136.35,45.24,136.35Z"/><path class="cls-48" d="M46.4,135.72l-.17.09A.18.18,0,0,1,46.4,135.72Z"/><path class="cls-48" d="M46.58,135.64l-.17.08C46.44,135.65,46.51,135.64,46.58,135.64Z"/><path class="cls-48" d="M46.76,135.55l-.17.08C46.62,135.56,46.69,135.55,46.76,135.55Z"/><path class="cls-48" d="M46.93,135.46l-.16.08C46.8,135.47,46.86,135.46,46.93,135.46Z"/><path class="cls-48" d="M47.83,134.92l-.18.09A.18.18,0,0,1,47.83,134.92Z"/><path class="cls-48" d="M48.45,134.57l-.17.08C48.31,134.58,48.38,134.57,48.45,134.57Z"/><path class="cls-48" d="M48.52,134.55h-.06S48.49,134.49,48.52,134.55Z"/><path class="cls-48" d="M43.29,80.37c.27-.13.32-.39.41-.64A40.38,40.38,0,0,0,45,75.84a28.53,28.53,0,0,0,1-5.28c.09-1.13.17-2.27.17-3.41,0-.32,0-.51-.41-.65A3.55,3.55,0,0,1,44.21,65a6.6,6.6,0,0,1-1-4.12,4.67,4.67,0,0,1,1.49-3.51,3.65,3.65,0,0,1,3.43-.78,4.8,4.8,0,0,1,1.68.66,4.18,4.18,0,0,0,2.86.51,21.09,21.09,0,0,0,6.53-1.58,22.35,22.35,0,0,0,7.57-5c.33-.34.63-.71.94-1.07s.42-.42.79,0a9.36,9.36,0,0,1,1.62,2.67,18.42,18.42,0,0,1,1.46,6.06,27.29,27.29,0,0,1-3.53,15.28,20.15,20.15,0,0,1-1.74,2.71,16.5,16.5,0,0,1-2.78,2.76,8.33,8.33,0,0,1-3.42,1.69,2.36,2.36,0,0,1-.65.08c-.28,0-.49,0-.55.45a15.29,15.29,0,0,1-.5,2.42.76.76,0,0,0,0,.21c-.24,0-.22.26-.28.41a4.51,4.51,0,0,1-3.31,3,5.4,5.4,0,0,1-2.76-.24A15.22,15.22,0,0,1,44.21,82a4.09,4.09,0,0,1-.64-1.31C43.53,80.46,43.41,80.43,43.29,80.37ZM59,59.73a4,4,0,0,1,1.2.1,9.27,9.27,0,0,1,2,.4.62.62,0,0,0,.86-.22c.2-.38,0-.61-.3-.8a6.18,6.18,0,0,0-5.88-.46c-.19.08-.41.19-.4.42s.27.33.46.36A7.72,7.72,0,0,0,59,59.73Zm.67,4.35a2.57,2.57,0,0,0-.07-.74c-.1-.31-.24-.58-.59-.65a.82.82,0,0,0-.8.38,3.16,3.16,0,0,0-.63,2.29.83.83,0,0,0,.65.81.87.87,0,0,0,.86-.43A3.09,3.09,0,0,0,59.65,64.08ZM65,63.16c-.11,0-.11.08-.13.13a7.58,7.58,0,0,0-.34,2.05,12.16,12.16,0,0,0,0,2.09,20.31,20.31,0,0,1,.23,3.4,1.25,1.25,0,0,1-1.1,1.3,4.41,4.41,0,0,1-2-.22c-.11,0-.23-.14-.3,0a.25.25,0,0,0,.12.34,2.67,2.67,0,0,0,.61.24,2.43,2.43,0,0,0,3.16-1.94,14.8,14.8,0,0,0-.13-2.9,15.91,15.91,0,0,1-.08-3.45A2.42,2.42,0,0,0,65,63.16Zm2.68-3.11-.7.06a.46.46,0,0,0-.49.52.43.43,0,0,0,.51.43,8,8,0,0,1,3.66.69c.33.16.58,0,.61-.4a.53.53,0,0,0-.37-.58A9.14,9.14,0,0,0,67.72,60.05ZM67,66.14c0,.13,0,.26,0,.39a.86.86,0,0,0,.56.83c.39.12.67-.13.86-.46a2.73,2.73,0,0,0,.34-2c-.09-.38-.27-.69-.66-.73s-.58.23-.75.52A2.41,2.41,0,0,0,67,66.14Zm-5.64,9.79a3.1,3.1,0,0,0,.84-.18c.12-.06.34-.09.29-.27s-.23-.08-.35-.08A6.5,6.5,0,0,1,59.58,75,3.6,3.6,0,0,1,57.33,73c0-.1-.08-.26-.24-.21s-.1.19-.07.3a3.9,3.9,0,0,0,.85,1.59A5.09,5.09,0,0,0,61.32,75.93Zm-2.83,5.38c-.65-.12-1.31-.2-1.94-.37a11.41,11.41,0,0,1-6.09-3.57c-.09-.11-.19-.35-.36-.21s0,.32.08.47a4.42,4.42,0,0,0,.92,1,13.57,13.57,0,0,0,5,2.39A6,6,0,0,0,58.49,81.31Z"/><path class="cls-49" d="M69.93,104a6.22,6.22,0,0,0-2.24,1c-1.7-.89-3.34-1.91-5-2.9a1.15,1.15,0,0,1-.61-1.22,1.35,1.35,0,0,1,1-1.17.83.83,0,0,1,.64.07c1.86,1,3.73,2,5.49,3.17A1.54,1.54,0,0,1,69.93,104Z"/><path class="cls-45" d="M44.19,104c0,1.54-.22,3.08-.35,4.61-.15,1.86-.43,3.7-.64,5.56-.05.49-.13,1-.2,1.56a2.56,2.56,0,0,1,0-1.24c.21-1.7.44-3.4.62-5.11.14-1.39.25-2.79.37-4.18a3.33,3.33,0,0,1,.15-1.21Z"/><path class="cls-45" d="M44.18,104c0-1.83.23-3.65.18-5.49a1,1,0,0,1,.17-.53c0,1.09-.07,2.09-.11,3.1a23.48,23.48,0,0,1-.15,2.51c0,.14,0,.3-.08.42Z"/><path class="cls-45" d="M81.37,127.53a16.94,16.94,0,0,1,1.09,2.82c-.14.06-.15,0-.16-.06-.29-.82-.54-1.66-.91-2.45a1,1,0,0,1,0-.3Z"/><path class="cls-45" d="M33.9,112.33c.13,0,.3,0,.3.21s-.19.31-.37.37-.22-.08-.22-.2S33.71,112.39,33.9,112.33Z"/><path class="cls-45" d="M42.66,117.93a5.64,5.64,0,0,1,.29-2Z"/><path class="cls-45" d="M82.82,131.31c-.32-.08-.29-.38-.38-.59s.07-.1.14-.11.17,0,.21.09A.76.76,0,0,1,82.82,131.31Z"/><path class="cls-45" d="M36.35,114.21c0,.13-.07.23-.2.23s-.23-.1-.23-.25,0-.25.19-.23A.23.23,0,0,1,36.35,114.21Z"/><path class="cls-45" d="M31.28,109.46c-.14,0-.17-.09-.17-.2s0-.25.15-.27.16.11.18.2A.21.21,0,0,1,31.28,109.46Z"/><path class="cls-45" d="M49.88,119.72c-.12.39-.47.28-.75.34Z"/><path class="cls-45" d="M81,126.57a.11.11,0,0,1,.08,0c0,.34.26.61.27,1h0a5.21,5.21,0,0,1-.44-.8C80.85,126.65,81,126.63,81,126.57Z"/><path class="cls-45" d="M28.61,101.8c0,.14-.05.2-.16.18a.15.15,0,0,1-.15-.17.16.16,0,0,1,.17-.15C28.59,101.66,28.6,101.75,28.61,101.8Z"/><path class="cls-45" d="M33.33,111.12s.12.07.13.12-.09.1-.16.09a.12.12,0,0,1-.13-.14C33.18,111.12,33.23,111.1,33.33,111.12Z"/><path class="cls-45" d="M62.86,125.31c0-.12,0-.26-.08-.36.08-.1.18-.11.24,0A.26.26,0,0,1,62.86,125.31Z"/><path class="cls-45" d="M72.47,124.56c-.27.06-.42,0-.56-.1C72.1,124.38,72.23,124.5,72.47,124.56Z"/><path class="cls-45" d="M48.59,120.32c-.09.25-.29.16-.4.25C48.24,120.36,48.4,120.37,48.59,120.32Z"/><path class="cls-45" d="M34.48,112.68s-.1,0-.1-.05,0-.1.11-.11.13,0,.13.07S34.55,112.67,34.48,112.68Z"/><path class="cls-45" d="M65.34,124.75a.34.34,0,0,1,0,.11c0,.08,0,.09-.11.07s0-.05-.07-.08Z"/><path class="cls-45" d="M27.85,97a.25.25,0,0,1,0,.09c0,.07-.05.1-.11.07s0-.07,0-.11S27.78,97,27.85,97Z"/><path class="cls-45" d="M30,106.35s-.07-.08-.07-.11,0-.12.09-.1.05.07.05.1S30.07,106.3,30,106.35Z"/><path class="cls-45" d="M51.51,119a.15.15,0,0,1-.13.12s-.1,0-.1,0,.06-.09.12-.1Z"/><path class="cls-45" d="M50.41,119.53c-.08.08-.16.17-.3.13.06-.16.19-.12.3-.13Z"/><path class="cls-45" d="M30.6,104.82s-.07,0-.07,0,0,0,0-.07l.07,0A.41.41,0,0,1,30.6,104.82Z"/><path class="cls-45" d="M71.53,124.42l-.06,0s0,0,.06,0,0,0,.07,0Z"/><path class="cls-45" d="M62.33,125.23a.17.17,0,0,1-.18.17A.26.26,0,0,1,62.33,125.23Z"/><path class="cls-45" d="M50.59,119.44l.09-.07,0,0-.11,0Z"/><path class="cls-45" d="M50.59,119.44a.19.19,0,0,1-.18.09h0a.18.18,0,0,1,.18-.09Z"/><path class="cls-45" d="M47.92,120.69l-.09.06,0,0,.12,0Z"/><path class="cls-45" d="M46.94,121.13l.09-.07,0,0-.12,0Z"/><path class="cls-45" d="M46.76,121.22a.19.19,0,0,1,.18-.09h0a.18.18,0,0,1-.18.09Z"/><path class="cls-45" d="M46.58,121.31a.19.19,0,0,1,.18-.09h0a.18.18,0,0,1-.17.09Z"/><path class="cls-45" d="M46.41,121.4a.17.17,0,0,1,.17-.09h0a.19.19,0,0,1-.18.09Z"/><path class="cls-45" d="M46.41,121.4a.21.21,0,0,1-.18.09h0c0-.07.1-.08.18-.08Z"/><path class="cls-45" d="M62.76,125a.15.15,0,0,1-.16.08C62.63,125,62.69,125,62.76,125Z"/><path class="cls-45" d="M62.5,125.14c0,.07-.1.08-.17.08A.17.17,0,0,1,62.5,125.14Z"/><path class="cls-45" d="M62.77,125.4l.09-.09Z"/><path class="cls-45" d="M62.59,125.05l-.08.08Z"/><path class="cls-45" d="M47.92,120.68l0,0,0,0Z"/><path class="cls-50" d="M99.2,109.91l-.06.07a1.25,1.25,0,0,0-.1,1.53c-.19.12-.47,0-.61.27h0a.22.22,0,0,0-.27.17h0a.24.24,0,0,0-.27.27h0a.92.92,0,0,0-.41,1,.8.8,0,0,1-.22.88h0c-.06,0-.09,0-.1.1h0a.57.57,0,0,0-.28.36h0a1.62,1.62,0,0,0,.09,2h0a.38.38,0,0,0,.19.27h0l.1.1h0a.11.11,0,0,0,.1.1h0a.11.11,0,0,0,.1.1h0c0,.06,0,.09.1.09h0c.07.16-.08.28-.08.43h0c-.1,0-.09.11-.1.19h0a.76.76,0,0,0-.2.4l-1.77,3.79c-.62,1.32-1.24,2.64-1.87,3.95a1.65,1.65,0,0,1-2,1L83.05,125,70.76,122.1l-.35-.08a.9.9,0,0,1-.72-1.3c.22-.62.52-1.22.78-1.83,0-.12.15-.22.13-.37l.1-.14h0l.12-.09.06-.06c.1-.1.28-.1.28-.29h0c.11.06.14,0,.18-.09h0l.12-.1.07,0c.1-.09.24-.15.27-.3h0c.07,0,.12,0,.09-.09h0c.08,0,.12,0,.09-.09h0c.14,0,.2,0,.19-.18h0c.08,0,.11,0,.09-.1h0a.27.27,0,0,0,.27-.27h0c.11,0,.14,0,.19-.1h0a2.89,2.89,0,0,0,1.93-.32.51.51,0,0,0,.36.23c1.13.28,2.26.55,3.39.85a.42.42,0,0,0,.58-.29c.33-.82.69-1.63,1-2.44.41-1,.41-1-.61-1.21a11,11,0,0,0-2.33-.49,2.4,2.4,0,0,0-.44-2.13h0c0-.25.24-.21.33-.35.36-.13.36-.52.55-.76l.35.2c1.07.57,2.14,1.16,3.23,1.7a1.1,1.1,0,0,0,1.61-.5,1.2,1.2,0,0,0-.24-1.15,8.12,8.12,0,0,0,.8-1.81c.11-.27-.08-.38-.33-.44-.8-.18-1.59-.41-2.4-.56-.46-.09-.91-.39-1.41-.16a1.43,1.43,0,0,0-.37-1h0l-.09-.09h0a.08.08,0,0,0-.09-.09h0a.08.08,0,0,0-.09-.09h0c0-.06,0-.08-.09-.09h0c0-.07-.08-.16-.19-.09h0c0-.14-.1-.14-.19-.18v0c0-.09-.11-.1-.18-.1h0a.86.86,0,0,0-.54-.28h0a.65.65,0,0,0-.36-.2l0,0c1-2.1,2-4.21,3-6.3,1.25-2.61,2.5-5.21,3.74-7.82a2.18,2.18,0,0,1,2.75-1.46L96,90.81l11.82,2c.13,0,.26.06.39.09a.65.65,0,0,1,.53,1c-.48,1.28-1.14,2.49-1.72,3.73-1.85,4-3.72,8-5.58,12.07,0,0,0,.06,0,.09v0l-.49-.2a1.48,1.48,0,0,0-1.55.18h0l-.09.1h0Zm.35-12.06.06.07L99,99.63c-.05.14-.21.31.09.35s.44.28.58-.11c.4-1.15.81-2.29,1.21-3.44,0-.09.1-.2-.06-.25s-.58-.2-.75.11a7.34,7.34,0,0,1-.87,1c-.32.38-.66.74-1.06,1.18,0-.89-.11-1.68-.07-2.47,0-.36-.19-.41-.45-.47s-.41,0-.52.26c-.36,1.07-.76,2.12-1.14,3.19,0,.13-.3.32.07.43s.49.12.61-.24c.23-.74.5-1.48.76-2.21a19,19,0,0,1,.09,2.39c0,.16,0,.27.2.34s.27,0,.36-.15a3,3,0,0,1,.39-.53C98.87,98.63,99.06,98.1,99.55,97.85Zm-15.23,7c.27,0,.33-.16.4-.33.49-1.29,1-2.59,1.46-3.89.18-.47.13-.54-.37-.66-1.12-.25-2.24-.49-3.36-.76a.39.39,0,0,0-.54.27c-.54,1.36-1.07,2.71-1.61,4.06-.13.31,0,.44.27.5l1.6.35ZM96.23,96a.88.88,0,0,0-.61-.78c-.43-.17-.89-.2-1.32-.33-.26-.07-.4,0-.49.28-.35,1-.72,2.1-1.08,3.16,0,.13-.21.31.1.35s.45.25.57-.15.22-.67.35-1c0-.1,0-.34.26-.27s.31.08.33.33c0,.44.17.86.24,1.3s.32.27.52.27.15-.23.14-.36a4.75,4.75,0,0,0-.17-1c-.13-.4.08-.53.4-.63A1.09,1.09,0,0,0,96.23,96ZM90.85,98.2a2.2,2.2,0,0,0,.52-.07,2.45,2.45,0,0,0,1.48-2.44,1.43,1.43,0,0,0-1.95-1.37,2.31,2.31,0,0,0-1.59,2.08A1.47,1.47,0,0,0,90.85,98.2Zm-1.07-4.28c-.77-.24-1.58-.31-2.36-.51-.15,0-.17.08-.2.17-.41,1.14-.81,2.29-1.22,3.43,0,.1-.07.2,0,.28a.45.45,0,0,0,.73-.26l.14-.42c.09-.26.11-.62.3-.75s.52.06.79.11a1.59,1.59,0,0,1,.3.06c.36.13.46-.08.54-.36s-.21-.23-.35-.28-.32-.06-.48-.09c-.63-.12-.61-.11-.41-.73.11-.38.29-.45.64-.33a5.7,5.7,0,0,0,.74.15C89.59,94.51,89.59,94.51,89.78,93.92ZM98,106.63c.21,0,.38,0,.41-.19s-.17-.15-.28-.19l-.21-.07-5.05-1.06q-2.94-.63-5.86-1.29c-.21,0-.39,0-.44.15s.17.21.32.25l8.88,1.91Zm2.89-1.89c.16,0,.33,0,.34-.18s-.25-.21-.39-.24c-2.78-.58-5.56-1.15-8.34-1.74-.94-.19-1.87-.42-2.8-.63-.13,0-.28-.09-.33.09s.07.24.21.29l.21,0c2.43.61,4.89,1.09,7.34,1.6Zm-16.56,5.45c-.06,0-.2,0-.21.14s.15.26.31.3l9.27,2.12c.5.11,1,.21,1.51.33.12,0,.21,0,.25-.1s0-.23-.13-.29a1.4,1.4,0,0,0-.29-.09l-7.94-1.8Zm9.08,7.45c.09,0,.19,0,.21-.2s-.11-.2-.25-.23l-8.13-1.87-2.49-.58c-.13,0-.28-.08-.32.11a.22.22,0,0,0,.19.29l.22,0,6.8,1.56Zm-2.94,1.81c.14,0,.28,0,.3-.16s-.16-.26-.32-.29l-6.07-1.39c-.85-.19-1.69-.4-2.54-.6-.13,0-.27-.12-.31.09s0,.29.22.31a1.46,1.46,0,0,1,.3.07l6.16,1.43Zm2.85-9c.11,0,.25,0,.29-.13s-.09-.23-.22-.27l-.26-.06-7.62-1.76c-.19,0-.5-.2-.55.13s.3.24.48.28c2.06.49,4.13.95,6.2,1.43Z"/><path class="cls-49" d="M82.41,109.94a1.2,1.2,0,0,1,.24,1.15,1.1,1.1,0,0,1-1.61.5c-1.09-.54-2.16-1.13-3.23-1.7l-.35-.2a2.26,2.26,0,0,0-1-2.09l.16-.19a17.39,17.39,0,0,0,2.1.73c1.14.61,2.36,1,3.48,1.67l0,0c0,.07.08.09.15.1Z"/><path class="cls-50" d="M82.24,109.81c-1.12-.64-2.34-1.06-3.48-1.67l-.06-.07c.27-.24.26-.6.36-.9,1.16.29,2.3.6,3.46.85.35.08.3.2.19.43A3.61,3.61,0,0,0,82.24,109.81Z"/><path class="cls-46" d="M76.91,110.45c-.09.14-.36.1-.33.35a1.85,1.85,0,0,1-.75-.25,6.14,6.14,0,0,0-3.54-.49l-.39,0a.38.38,0,0,1,.34-.2,5.05,5.05,0,0,1,4,.56C76.53,110.66,76.69,110.3,76.91,110.45Z"/><path class="cls-46" d="M76.66,107.41l-.16.19a9.07,9.07,0,0,0-4.94-.69c.12,0,.24-.08.36-.1s.3,0,.44,0a6.93,6.93,0,0,1,4,.45A1.31,1.31,0,0,1,76.66,107.41Z"/><path class="cls-46" d="M74.77,113.76a5.19,5.19,0,0,0-3.13-.43,3.37,3.37,0,0,1,2.73,0c.18.08.38.17.43.41Z"/><path class="cls-46" d="M76.57,110.8a2.4,2.4,0,0,1,.44,2.13l-.13.27-.22.29h0c0-.37.27-.66.27-1a2.13,2.13,0,0,0-.27-1.22A.57.57,0,0,1,76.57,110.8Z"/><path class="cls-45" d="M74.58,116.28a2.89,2.89,0,0,1-1.93.32c.19-.2.44-.07.66-.1a5.27,5.27,0,0,0,1.29-.36l.05.06Z"/><path class="cls-46" d="M79.06,107.17c-.1.3-.09.66-.36.9a2.82,2.82,0,0,0,0-2.08,1.43,1.43,0,0,1,.37,1Z"/><path class="cls-45" d="M75.23,115.53c0-.38.12-.74.09-1.13,0-.21.15-.2.3-.22h0c-.17.07-.21.18-.18.37a1.2,1.2,0,0,1-.24,1Z"/><path class="cls-46" d="M77.27,105a.86.86,0,0,1,.54.28A.52.52,0,0,1,77.27,105Z"/><path class="cls-45" d="M71.77,117.41c0,.15-.17.21-.27.3C71.49,117.51,71.56,117.39,71.77,117.41Z"/><path class="cls-46" d="M71.15,117.94c0,.19-.18.19-.28.29C70.86,118,71,117.93,71.15,117.94Z"/><path class="cls-45" d="M74.79,116.07c0-.19.08-.28.26-.27h0a.46.46,0,0,1-.27.26Z"/><path class="cls-46" d="M74.8,113.72c.14,0,.22.11.32.26-.2,0-.27-.12-.35-.22Z"/><path class="cls-46" d="M76.92,104.82a.65.65,0,0,1,.36.2C77.13,105,76.93,105.09,76.92,104.82Z"/><path class="cls-45" d="M72.48,116.69a.27.27,0,0,1-.27.27A.37.37,0,0,1,72.48,116.69Z"/><path class="cls-46" d="M78,105.36c.09,0,.2,0,.19.18S78,105.51,78,105.36Z"/><path class="cls-46" d="M76.39,113.75c0-.12,0-.19.18-.17h0a.24.24,0,0,1-.19.17Z"/><path class="cls-46" d="M70.7,118.38l-.1.14-.11,0C70.52,118.44,70.57,118.36,70.7,118.38Z"/><path class="cls-45" d="M72.13,117.05c0,.13,0,.2-.19.18A.19.19,0,0,1,72.13,117.05Z"/><path class="cls-46" d="M75.66,114.19h0c0-.13.15-.06.24-.07h0C75.81,114.19,75.74,114.19,75.66,114.19Z"/><path class="cls-46" d="M76.21,113.93q0-.2.18-.18h0a.28.28,0,0,1-.18.17Z"/><path class="cls-46" d="M71.32,117.85c0,.06-.07.15-.18.09A.13.13,0,0,1,71.32,117.85Z"/><path class="cls-45" d="M72.66,116.6c0,.07-.08.14-.19.1S72.57,116.59,72.66,116.6Z"/><path class="cls-45" d="M74.6,116.14a.16.16,0,0,1,.19-.07h0v.07l-.13.06Z"/><path class="cls-45" d="M75.14,115.71c0-.08,0-.16.09-.18h0l-.1.17Z"/><path class="cls-46" d="M77.81,105.28c.07,0,.15,0,.18.1S77.83,105.38,77.81,105.28Z"/><path class="cls-46" d="M75.86,114.11c0-.1.1-.1.18-.08h0c0,.07-.12.07-.19.08Z"/><path class="cls-46" d="M76,114c0-.11.09-.11.17-.1h0a.23.23,0,0,1-.16.11Z"/><path class="cls-46" d="M78.16,105.55c.11-.07.15,0,.19.09S78.19,105.64,78.16,105.55Z"/><path class="cls-46" d="M71.31,107l0,0,0,0s0,0,0,0Z"/><path class="cls-46" d="M71.43,117.75l-.12.1Z"/><path class="cls-46" d="M78.61,105.91l.09.09Z"/><path class="cls-46" d="M78.52,105.82a.08.08,0,0,1,.09.09Z"/><path class="cls-46" d="M78.43,105.73a.08.08,0,0,1,.09.09Z"/><path class="cls-46" d="M78.34,105.64c.06,0,.1,0,.09.09Z"/><path class="cls-46" d="M76.57,113.58a.09.09,0,0,1,.08-.1h0l-.08.1Z"/><path class="cls-45" d="M75.05,115.8l.09-.09h0l-.08.1Z"/><path class="cls-46" d="M76.74,104.75l0,0,0,0Z"/><path class="cls-45" d="M72.21,117c0,.09,0,.12-.09.1Z"/><path class="cls-46" d="M70.81,118.29l-.12.09Z"/><path class="cls-45" d="M71.94,117.22c0,.09,0,.11-.09.09Z"/><path class="cls-45" d="M71.85,117.31c0,.08,0,.1-.09.09Z"/><path class="cls-46" d="M97.17,118.14a.76.76,0,0,1,.2-.4l-.08,1.16A1.18,1.18,0,0,1,97.17,118.14Z"/><path class="cls-46" d="M97.27,114.09a.8.8,0,0,0,.22-.88.92.92,0,0,1,.41-1c-.7,1.21.27,1.76,1,2.39s1.6,1.34,2.4,2a1.76,1.76,0,0,1,.52.68,6.6,6.6,0,0,1-1.28-1,26,26,0,0,1-2.58-2.22C97.66,113.79,97.49,114.06,97.27,114.09Z"/><path class="cls-46" d="M98.43,111.78c.14-.23.42-.15.61-.27a1.25,1.25,0,0,1,.1-1.53s0,.1,0,.13c-.45.79,0,1.22.59,1.65a18.71,18.71,0,0,0,1.78,1.16,3.64,3.64,0,0,1,.94.81l0,0a.44.44,0,0,1-.32-.13c-.87-.73-1.92-1.21-2.77-2-.16-.15-.22,0-.33,0A5.58,5.58,0,0,0,98.43,111.78Z"/><path class="cls-46" d="M99.41,109.73a1.48,1.48,0,0,1,1.55-.18l.49.2a.17.17,0,0,1-.23.07A2.09,2.09,0,0,0,99.41,109.73Z"/><path class="cls-46" d="M97,116.51a1.62,1.62,0,0,1-.09-2A2.84,2.84,0,0,0,97,116.51Z"/><path class="cls-46" d="M102.55,113.82a1,1,0,0,1,.43.6c-.24-.22-.41-.35-.47-.57Z"/><path class="cls-46" d="M97.45,117.57c0-.15.15-.27.08-.43C97.76,117.26,97.74,117.33,97.45,117.57Z"/><path class="cls-46" d="M98.24,117.94a.29.29,0,0,1-.26-.25l0,0a.32.32,0,0,1,.27.27Z"/><path class="cls-46" d="M96.91,114.54a.57.57,0,0,1,.28-.36C97.17,114.36,97.15,114.53,96.91,114.54Z"/><path class="cls-46" d="M98,117.69a.22.22,0,0,1-.19-.26c.14,0,.16.14.22.21Z"/><path class="cls-46" d="M97.9,112.23a.24.24,0,0,1,.27-.27A.45.45,0,0,1,97.9,112.23Z"/><path class="cls-46" d="M98.16,112a.22.22,0,0,1,.27-.17A.22.22,0,0,1,98.16,112Z"/><path class="cls-46" d="M97.19,116.78a.38.38,0,0,1-.19-.27C97.21,116.5,97.2,116.64,97.19,116.78Z"/><path class="cls-46" d="M97.36,117.75c0-.08,0-.16.1-.19S97.46,117.72,97.36,117.75Z"/><path class="cls-46" d="M99.2,109.91l.13-.09Z"/><path class="cls-46" d="M102.46,113.73l.09.09,0,0-.09-.09Z"/><path class="cls-46" d="M97.18,114.19c0-.06,0-.1.1-.1Z"/><path class="cls-46" d="M97.28,116.87l-.1-.1Z"/><path class="cls-46" d="M97.37,117a.11.11,0,0,1-.1-.1Z"/><path class="cls-46" d="M97.46,117.05a.11.11,0,0,1-.1-.1Z"/><path class="cls-46" d="M97.55,117.13c-.07,0-.09,0-.1-.09Z"/><path class="cls-46" d="M98.28,117.91l.09.09,0,0-.09-.09Z"/><path class="cls-46" d="M99.32,109.83l.09-.1Z"/><path class="cls-47" d="M59,59.73a7.72,7.72,0,0,1-2-.2c-.19,0-.44-.13-.46-.36s.21-.34.4-.42a6.18,6.18,0,0,1,5.88.46c.31.19.5.42.3.8a.62.62,0,0,1-.86.22,9.27,9.27,0,0,0-2-.4A4,4,0,0,0,59,59.73Z"/><path class="cls-47" d="M59.65,64.08a3.09,3.09,0,0,1-.58,1.66.87.87,0,0,1-.86.43.83.83,0,0,1-.65-.81,3.16,3.16,0,0,1,.63-2.29.82.82,0,0,1,.8-.38c.35.07.49.34.59.65A2.57,2.57,0,0,1,59.65,64.08Z"/><path class="cls-46" d="M65,63.16a2.42,2.42,0,0,1,0,1.07,15.91,15.91,0,0,0,.08,3.45,14.8,14.8,0,0,1,.13,2.9,2.43,2.43,0,0,1-3.16,1.94,2.67,2.67,0,0,1-.61-.24.25.25,0,0,1-.12-.34c.07-.17.19,0,.3,0a4.41,4.41,0,0,0,2,.22,1.25,1.25,0,0,0,1.1-1.3,20.31,20.31,0,0,0-.23-3.4,12.16,12.16,0,0,1,0-2.09,7.58,7.58,0,0,1,.34-2.05S64.93,63.18,65,63.16Z"/><path class="cls-47" d="M67.72,60.05a9.14,9.14,0,0,1,3.22.72.53.53,0,0,1,.37.58c0,.37-.28.56-.61.4A8,8,0,0,0,67,61.06a.43.43,0,0,1-.51-.43.46.46,0,0,1,.49-.52Z"/><path class="cls-47" d="M67,66.14a2.41,2.41,0,0,1,.36-1.48c.17-.29.39-.57.75-.52s.57.35.66.73a2.73,2.73,0,0,1-.34,2c-.19.33-.47.58-.86.46a.86.86,0,0,1-.56-.83C67,66.4,67,66.27,67,66.14Z"/><path class="cls-46" d="M61.32,75.93a5.09,5.09,0,0,1-3.45-1.29A3.9,3.9,0,0,1,57,73.05c0-.11-.09-.25.07-.3s.2.11.24.21A3.6,3.6,0,0,0,59.58,75a6.5,6.5,0,0,0,2.52.39c.12,0,.31-.07.35.08s-.17.21-.29.27A3.1,3.1,0,0,1,61.32,75.93Z"/><path class="cls-46" d="M58.49,81.31A6,6,0,0,1,56.11,81a13.57,13.57,0,0,1-5-2.39,4.42,4.42,0,0,1-.92-1c-.1-.15-.23-.35-.08-.47s.27.1.36.21a11.41,11.41,0,0,0,6.09,3.57C57.18,81.11,57.84,81.19,58.49,81.31Z"/><path class="cls-49" d="M84.32,104.86l-2.15-.46-1.6-.35c-.28-.06-.4-.19-.27-.5.54-1.35,1.07-2.7,1.61-4.06a.39.39,0,0,1,.54-.27c1.12.27,2.24.51,3.36.76.5.12.55.19.37.66-.48,1.3-1,2.6-1.46,3.89C84.65,104.7,84.59,104.91,84.32,104.86ZM82.09,101l-.92,2.3c-.06.14-.07.2.1.24l2.62.62c.11,0,.2,0,.25-.12.31-.8.64-1.6,1-2.47-.66.35-1.25.63-1.81,1-.27.17-.39.09-.51-.15Zm.59-1c-.31,0-.27.17-.19.35.22.46.45.92.68,1.39.1.21.22.19.4.08a8.87,8.87,0,0,1,1.69-.84.19.19,0,0,0,.17-.17.2.2,0,0,0-.17-.22Z"/><path class="cls-49" d="M99.55,97.85c-.49.25-.68.78-1.07,1.13a3,3,0,0,0-.39.53c-.09.14-.18.21-.36.15s-.2-.18-.2-.34a19,19,0,0,0-.09-2.39c-.26.73-.53,1.47-.76,2.21-.12.36-.33.32-.61.24S96,99.08,96,99c.38-1.07.78-2.12,1.14-3.19.11-.31.27-.32.52-.26s.46.11.45.47c0,.79.12,1.58.07,2.47.4-.44.74-.8,1.06-1.18a7.34,7.34,0,0,0,.87-1c.17-.31.48-.18.75-.11s.1.16.06.25c-.4,1.15-.81,2.29-1.21,3.44-.14.39-.38.13-.58.11s-.14-.21-.09-.35l.57-1.71s0-.13,0-.14S99.59,97.83,99.55,97.85Z"/><path class="cls-49" d="M96.23,96a1.09,1.09,0,0,1-.76,1.18c-.32.1-.53.23-.4.63a4.75,4.75,0,0,1,.17,1c0,.13.14.37-.14.36s-.46.06-.52-.27-.19-.86-.24-1.3c0-.25-.16-.28-.33-.33s-.21.17-.26.27c-.13.32-.25.66-.35,1s-.36.17-.57.15-.15-.22-.1-.35c.36-1.06.73-2.11,1.08-3.16.09-.27.23-.35.49-.28.43.13.89.16,1.32.33A.88.88,0,0,1,96.23,96Zm-1.5.75c.49,0,.74-.18.75-.54s-.38-.63-.9-.57-.44.58-.46.86S94.56,96.62,94.73,96.73Z"/><path class="cls-49" d="M90.85,98.2a1.47,1.47,0,0,1-1.54-1.8,2.31,2.31,0,0,1,1.59-2.08,1.43,1.43,0,0,1,1.95,1.37,2.45,2.45,0,0,1-1.48,2.44A2.2,2.2,0,0,1,90.85,98.2ZM92.13,96c0-.5-.08-.85-.51-1a.91.91,0,0,0-1,.28A1.9,1.9,0,0,0,90,96.69a.84.84,0,0,0,1.32.72A1.7,1.7,0,0,0,92.13,96Z"/><path class="cls-49" d="M89.78,93.92c-.19.59-.19.59-.79.47a5.7,5.7,0,0,1-.74-.15c-.35-.12-.53,0-.64.33-.2.62-.22.61.41.73.16,0,.32,0,.48.09s.45-.1.35.28-.18.49-.54.36A1.59,1.59,0,0,0,88,96c-.27,0-.6-.25-.79-.11s-.21.49-.3.75l-.14.42a.45.45,0,0,1-.73.26c-.12-.08-.08-.18,0-.28.41-1.14.81-2.29,1.22-3.43,0-.09,0-.21.2-.17C88.2,93.61,89,93.68,89.78,93.92Z"/><path class="cls-51" d="M98,106.63l-2.23-.49-8.88-1.91c-.15,0-.38,0-.32-.25s.23-.19.44-.15q2.92.66,5.86,1.29l5.05,1.06.21.07c.11,0,.31,0,.28.19S98.22,106.63,98,106.63Z"/><path class="cls-51" d="M100.9,104.74,97.14,104c-2.45-.51-4.91-1-7.34-1.6l-.21,0c-.14,0-.26-.12-.21-.29s.2-.12.33-.09c.93.21,1.86.44,2.8.63,2.78.59,5.56,1.16,8.34,1.74.14,0,.4,0,.39.24S101.06,104.78,100.9,104.74Z"/><path class="cls-51" d="M84.34,110.19l2.77.61,7.94,1.8a1.4,1.4,0,0,1,.29.09c.13.06.19.15.13.29s-.13.12-.25.1c-.5-.12-1-.22-1.51-.33l-9.27-2.12c-.16,0-.34-.07-.31-.3S84.28,110.19,84.34,110.19Z"/><path class="cls-51" d="M93.42,117.64l-3.77-.87-6.8-1.56-.22,0a.22.22,0,0,1-.19-.29c0-.19.19-.15.32-.11l2.49.58,8.13,1.87c.14,0,.27,0,.25.23S93.51,117.67,93.42,117.64Z"/><path class="cls-51" d="M74.65,116.2l.13-.06c.16,0,.32,0,.48.06,1,.23,1.92.45,2.87.7.24.06.4,0,.5-.2.38-.91.77-1.82,1.16-2.76l-2.91-.74.13-.27a11,11,0,0,1,2.33.49c1,.2,1,.24.61,1.21-.35.81-.71,1.62-1,2.44a.42.42,0,0,1-.58.29c-1.13-.3-2.26-.57-3.39-.85a.51.51,0,0,1-.36-.23Z"/><path class="cls-51" d="M90.48,119.45l-2.26-.54-6.16-1.43a1.46,1.46,0,0,0-.3-.07c-.19,0-.25-.13-.22-.31s.18-.13.31-.09c.85.2,1.69.41,2.54.6L90.46,119c.16,0,.34.07.32.29S90.62,119.44,90.48,119.45Z"/><path class="cls-51" d="M93.33,110.46l-1.68-.38c-2.07-.48-4.14-.94-6.2-1.43-.18,0-.51,0-.48-.28s.36-.17.55-.13L93.14,110l.26.06c.13,0,.27.08.22.27S93.44,110.45,93.33,110.46Z"/><path class="cls-51" d="M79.06,107.17V107c.5-.23,1,.07,1.41.16.81.15,1.6.38,2.4.56.25.06.44.17.33.44a8.12,8.12,0,0,1-.8,1.81h0a.18.18,0,0,0-.15-.1l0,0a3.61,3.61,0,0,1,.47-1.36c.11-.23.16-.35-.19-.43C81.36,107.77,80.22,107.46,79.06,107.17Z"/><path class="cls-50" d="M82.28,109.83a.18.18,0,0,1,.15.1C82.36,109.92,82.3,109.9,82.28,109.83Z"/><path class="cls-50" d="M76.88,113.2l2.91.74c-.39.94-.78,1.85-1.16,2.76-.1.25-.26.26-.5.2-.95-.25-1.91-.47-2.87-.7-.16,0-.32,0-.48-.06v-.07a.46.46,0,0,0,.27-.26l.08-.1.1-.17a1.2,1.2,0,0,0,.24-1c0-.19,0-.3.18-.37s.15,0,.2-.07.14,0,.19-.08a.23.23,0,0,0,.16-.11.28.28,0,0,0,.18-.17.24.24,0,0,0,.19-.17l.08-.1Z"/><path class="cls-50" d="M82.09,101l.72,1.4c.12.24.24.32.51.15.56-.35,1.15-.63,1.81-1-.35.87-.68,1.67-1,2.47,0,.13-.14.14-.25.12l-2.62-.62c-.17,0-.16-.1-.1-.24Z"/><path class="cls-50" d="M82.68,99.94l2.58.59a.2.2,0,0,1,.17.22.19.19,0,0,1-.17.17,8.87,8.87,0,0,0-1.69.84c-.18.11-.3.13-.4-.08-.23-.47-.46-.93-.68-1.39C82.41,100.11,82.37,99.93,82.68,99.94Z"/><path class="cls-50" d="M99.55,97.85s0-.11.1-.07,0,.09,0,.14Z"/><path class="cls-50" d="M94.73,96.73c-.17-.11-.63.09-.61-.25s0-.8.46-.86.92.24.9.57S95.22,96.74,94.73,96.73Z"/><path class="cls-50" d="M92.13,96a1.7,1.7,0,0,1-.8,1.41A.84.84,0,0,1,90,96.69a1.9,1.9,0,0,1,.57-1.44.91.91,0,0,1,1-.28C92.05,95.15,92.14,95.5,92.13,96Z"/></svg>