<svg id="Calque_1" data-name="Calque 1" xmlns="http://www.w3.org/2000/svg" xmlns:xlink="http://www.w3.org/1999/xlink" viewBox="0 0 303 208"><defs><style>.cls-1{fill:url(#Dégradé_sans_nom_2);}.cls-2{fill:#009245;}.cls-3{fill:aqua;}.cls-4{fill:#fefefe;}.cls-5{fill:url(#Dégradé_sans_nom_5);}.cls-6{fill:#c6dbfe;}.cls-7{fill:#392222;}.cls-8{fill:#feb994;}.cls-9{fill:#90b5ea;}.cls-10{fill:#98bdf0;}.cls-11{fill:#100c0d;}.cls-12{fill:#fa5c1b;}.cls-13{fill:#fa7c44;}.cls-14{fill:#0e1633;}.cls-15{fill:#333656;}.cls-16{fill:#2f4260;}.cls-17{fill:#eef5fe;}.cls-18{fill:#dceafe;}.cls-19{fill:#55b3b3;}.cls-20{fill:#75d8c8;}.cls-21{fill:#fff;}</style><linearGradient id="Dégradé_sans_nom_2" x1="0.01" y1="104" x2="303.01" y2="104" gradientUnits="userSpaceOnUse"><stop offset="0" stop-color="#329986"/><stop offset="1" stop-color="#05dd47"/></linearGradient><linearGradient id="Dégradé_sans_nom_5" x1="198.08" y1="113.83" x2="235.31" y2="113.83" gradientUnits="userSpaceOnUse"><stop offset="0" stop-color="#329986"/><stop offset="1" stop-color="#49ba75"/></linearGradient></defs><title>pages_ims</title><rect class="cls-1" x="0.01" y="0.5" width="303" height="207" rx="29.38"/><path class="cls-2" d="M300.19,96.51c3,10.68-2.55,21.62-12.85,32.9C277,140.32,262,151.56,246,154.36c-31.56,5.95-62.43-25.34-56.73-56,2.68-15.62,13.81-30.13,24.58-40.49C225,47.53,235.74,41.36,246,43.44c10.26,1.76,20.74,11.14,31.19,21.18C287.34,74.91,297.48,85.86,300.19,96.51Z"/><path class="cls-3" d="M282.05,112.91c8.23,14.74,10.4,25.56,3.65,32.35-6.41,6.59-23.34,11.12-45.26,8.64-21.49-1.52-42.74-14.25-51.18-26-9.2-12-5.59-23,5.26-26.26,11-4.11,24.77-9.39,31.86-18.34,7.68-8.43,10.14-17.6,12.77-19.49,2.54-2.2,6.62,2.33,14.86,11.16C261.83,83.65,274,98.32,282.05,112.91Z"/><path class="cls-4" d="M248.12,131.14c-.39,0-.5-.15-.57-.5-.43-2.18-.86-4.36-1.32-6.53s-1-4.46-1.46-6.68l0-.21-.12-.07a17.23,17.23,0,0,1-2.37.29v.14c0,.29-.29.11-.43.2s-.13-.1-.14-.19l0,0-1.93.3c-.2,0-.4,0-.6.06l-3.12.48-.46,0c-.15.16-.31.28-.51.07l-1.21.21,1.29,12.35c-.23-.24-.17-.54-.2-.8-.15-1.27-.26-2.54-.39-3.8-.15-1.5-.32-3-.48-4.48-.11-1.09-.23-2.17-.35-3.26l-.66.09s0,0,0,0c-.17,1.16-.14,2.33-.28,3.49,0,.15-.06.3-.09.45a.93.93,0,0,1,0,.44l-.48,5.61c-.06.66-.1,1.32-.15,2,0,.21-.05.3-.28.3h-4.79a.22.22,0,0,1,0,.08h21A.34.34,0,0,1,248.12,131.14Z"/><path class="cls-5" d="M232.63,122.81a.93.93,0,0,1,0,.44c-.16.08-.12.24-.13.38-.08.93-.14,1.87-.23,2.8s-.23,2.1-.28,3.16c0,.33-.08.66-.12,1a.19.19,0,0,1-.21.19,7.46,7.46,0,0,1-2.11,0h0c0-.17-.1-.17-.21-.16h0l-.07-.08h0c0-.19-.14-.21-.28-.23h0l-.09-.08a2.09,2.09,0,0,1-.42-.42c0-.07,0-.13-.08-.15h0l-.08-.07h0c0-.08,0-.16-.13-.09-.23-.16-.3-.45-.5-.64,0-.14-.08-.22-.23-.21h0l-.09-.08-.06-.06a.12.12,0,0,0-.07-.15h0c0-.11,0-.16-.14-.15h0l-.08-.08h0l-.08-.08h0c0-.06,0-.13-.09-.13s-.12.06-.12.13a3.58,3.58,0,0,0-.07.64c.05.78.07,1.56.07,2.34l-.29,0H205.05a13.31,13.31,0,0,1,.22-2,34.89,34.89,0,0,0-.45-5.21c-.11-1-.28-2-.42-3s-.24-2-.38-2.92c-.2-1.49-.42-3-.62-4.45-.14-1.07-.22-2.15-.38-3.22a2,2,0,0,0-.22-1c0,.24,0,.4,0,.55.06.54.12,1.09.19,1.63.13,1,.25,2.1.39,3.15s.32,2.25.47,3.38c.09.67.15,1.35.25,2,.12.88.27,1.77.39,2.66.17,1.21.33,2.42.47,3.64a11.27,11.27,0,0,1,.12,3,8,8,0,0,0-.16,1.77h-6.3a15.37,15.37,0,0,0-.23-1.79,40.61,40.61,0,0,1-.34-4.8c0-1,0-1.91,0-2.86v-.42c.13-.1.07-.24.08-.37,0-.6,0-1.21.08-1.81.09-1.2.18-2.39.28-3.59.07-.83.13-1.66.23-2.48.14-1.07.33-2.13.48-3.2a19.64,19.64,0,0,1,1.24-4.64,1,1,0,0,0,.12-.55h0a1,1,0,0,0,.36-.73h0c.08,0,.09-.08.08-.15h0c.08,0,.07-.09.08-.15h0a1.25,1.25,0,0,0,.51-.86h0c.16,0,.16-.11.15-.22h0c.21,0,.24-.13.22-.3h0c.11,0,.16,0,.13-.16h0c.17-.09.33-.2.29-.43h0c.19,0,.21-.14.22-.29h0l.08-.08h0c.16,0,.23-.06.21-.22h0c.08,0,.08-.08.08-.15l.06-.06.09-.08h0l.07-.1.06,0,.09-.07h0l.08-.08h0a.49.49,0,0,0,.43-.43h0l.07-.08h0l.07-.08h0l.08-.08h0l.08-.1.12-.12.09-.08.07-.06s.14,0,.08-.07a9,9,0,0,1,2-1.44.72.72,0,0,0,.2-.14.48.48,0,0,0,.33-.1c.41-.21.82-.43,1.25-.61a6.85,6.85,0,0,1,2.6-.63l1.32.3c0,.09.08.1.16.11a9.2,9.2,0,0,0,1.65.21,17.78,17.78,0,0,0,2.53-.07c.58-.07,1.16-.12,1.73-.2a3.84,3.84,0,0,1,2.62.35s.09,0,.13,0v0a.67.67,0,0,0,.58.29h0c0,.12.1.16.22.14h0c0,.08.08.09.15.08h0a.65.65,0,0,0,.51.22h0c0,.08.09.08.16.08h0c0,.08.08.09.15.08h0c0,.08.08.09.15.08h0a1.21,1.21,0,0,0,1,.37h0a.93.93,0,0,0,.72.37h0c0,.23.19.23.36.22h0c0,.08.09.08.15.08h0c0,.16.11.16.22.15h0c0,.19.14.22.29.21h0a.38.38,0,0,0,.37.22h0c0,.08.08.08.14.08h0l.08.08v0c0,.17.1.17.21.16h0c0,.11,0,.16.15.14h0c0,.08.08.09.15.08h0c0,.21.12.24.29.22h0c0,.11,0,.16.15.14h0l.08.07h0c0,.08.08.09.15.08h0l.08.08h0l.08.08h0l.08.08h0l.09.07.06.06.08.09h0c0,.06,0,.13.08.15v0c0,.12,0,.17.15.16h0l.08.07h0a.12.12,0,0,0,.08.15v0c0,.11,0,.17.14.16h0a.6.6,0,0,0,.36.58h0a.73.73,0,0,0,.37.65h0a.54.54,0,0,0,.06.35,17.52,17.52,0,0,1,1,2.7c.06.19,0,.42.22.54a.13.13,0,0,1,0,.06,6.8,6.8,0,0,0,.36,1.62,11.42,11.42,0,0,0,.5,1.91v.06a1.46,1.46,0,0,0,0,.46c.19.82.35,1.65.57,2.46a2.81,2.81,0,0,0,.33,1.17h0a1.86,1.86,0,0,0,.21,1s0,0,0,.06a14.46,14.46,0,0,0,.45,2.25c0,.13,0,.36.19.41l0,.07c.28-.13.3-.39.31-.65h0c.23-.09.14-.28.16-.44h0a.14.14,0,0,0,.08-.15h0c.1,0,.08-.13.08-.21h0a1.48,1.48,0,0,0,.43-1h0a.82.82,0,0,0,.3-.72h0a.83.83,0,0,0,.29-.72h0c.18-.07.15-.22.15-.36h0c.07,0,.28,0,.11-.21l0-.07h0c.05,0,.07,0,.08,0l.14-.16c.13,0,.17-.24.37-.2-.06,1.27-.11,2.54-.2,3.8a7.79,7.79,0,0,1-.08,1.28.82.82,0,0,1-.42.17l-1.32.17c-.12,0-.28,0-.28.17,0,0,0,0,0,0a.15.15,0,0,0-.14.14c0,.24-.06.49-.07.74,0,.63-.13,1.27-.13,1.91A3.41,3.41,0,0,0,232.63,122.81Zm-6.07,4.8.08,0c-.19-.35-.39-.7-.57-1.06a45.53,45.53,0,0,1-2.3-6.15c-1-3-1.76-6-2.59-9.06a2.37,2.37,0,0,0-.24-.69.19.19,0,0,0,0,.2c.3,1.09.61,2.17.89,3.26A112.41,112.41,0,0,0,225.25,125,15.36,15.36,0,0,0,226.56,127.61Z"/><path class="cls-4" d="M240.47,112.92s0,0,0,0c.18.53.63.42,1,.42h2.75c.25,0,.35,0,.25-.32a5.57,5.57,0,0,1-.1-2.19c0-.75.18-1.48.26-2.23a26.89,26.89,0,0,1,.75-4.16c.37-1.42.66-2.87,1-4.3.14-.63.32-1.25.5-1.86.06-.23,0-.31-.22-.29H231.1c-.46,0-.46,0-.46-.46V72c0-.47,0-.48.46-.47,8.44.16,16.89,0,25.33.07.29,0,.56-.08.85-.08,0,0,.11,0,.13,0,.34-.57.91-.51,1.44-.52a5.89,5.89,0,0,1,1.78.08c.58.17,1.21,0,1.74.22a8.2,8.2,0,0,0,2.06.33,10.59,10.59,0,0,0,1.38,0c2.28,0,4.57,0,6.85,0,1,0,1.92.05,2.87,0,2-.13,4,0,5.94-.07.36,0,.43.11.43.44q0,12.87,0,25.73c0,.35-.09.45-.44.43-2.18-.11-4.36-.07-6.55-.08-.43,0-.45,0-.33.41a26.54,26.54,0,0,1,.91,4.39c.21,1.53.67,3,.79,4.55a11.51,11.51,0,0,1-.08,3.84,3.79,3.79,0,0,1-1,1.82c-.14.14-.33.24-.37.46H260.37a11.64,11.64,0,0,0-.2-2.36c-.07-.56-.1-.56-.68-.58l-.68-.05c0-.55.05-1.09.05-1.64,0-1.14.08-2.27.19-3.41a2,2,0,0,1,.21-1.1.63.63,0,0,0,.23-.28.36.36,0,0,0,.19-.23,1.08,1.08,0,0,0,.35-.56,1,1,0,0,0-.39.52.41.41,0,0,0-.2.23l-.2.16a2.69,2.69,0,0,1,.06-.63c.16-.75.33-1.48.54-2.21l0-.08-.07,0a2.33,2.33,0,0,0-.14.33,21.3,21.3,0,0,0-.73,3.87,44,44,0,0,0-.19,5,2.83,2.83,0,0,1-.5,0,3.88,3.88,0,0,0-1.76,0,6.65,6.65,0,0,0-2.58,1.47,4.14,4.14,0,0,0-1.27,1.42l-.13.14h-.43c-.15,0-.2,0-.21-.2l-.21-4.15c-.06-1.16-.11-2.33-.17-3.5-.11-2-.23-4-.33-6-.07-1.27-.11-2.55-.17-3.82,0-.22,0-.43-.08-.64a27.26,27.26,0,0,0,.08,3c.12,2,.2,4.1.3,6.15s.2,4,.31,6c0,.92.07,1.84.16,2.75,0,.34,0,.42-.37.42h-10.7A1.4,1.4,0,0,1,240.47,112.92Zm24-40.5-.08-.09-.13-.12-.09-.08h0a2.7,2.7,0,0,0-1.39-.64c-1-.16-2-.16-3-.39a2.14,2.14,0,0,0-2.07.4s0,0,0,0a.77.77,0,0,0-.25.37c-.06.18-.12.22-.32.18a1,1,0,0,0-.89.19h0a.5.5,0,0,0-.29.22h0l-.09.09-.06.05a2.58,2.58,0,0,0-.59,2.29c-.21,0-.17-.23-.19-.37a3,3,0,0,1,.25-1.31H232.41c-.27,0-.35.08-.34.35q0,5.1,0,10.21c0,.32.13.42.43.41.88,0,1.77,0,2.65,0,.28,0,.38-.1.38-.38,0-.91,0-1.81,0-2.72h7.31v2.8c0,.14,0,.31.2.3.81,0,1.62.06,2.43,0l2.81,0a.32.32,0,0,0,.23-.06.78.78,0,0,0,.45.07h6.91l.36,1.43c-2.07,0-4.14,0-6.22-.07-1.43,0-2.86,0-4.3,0-4.43,0-8.86,0-13.29,0-.25,0-.34.06-.33.32V96c0,.24.05.34.31.34h11.24c1.21,0,2.43,0,3.65,0a.4.4,0,0,0,.43-.27c.27-.59.57-1.18.87-1.76A10.5,10.5,0,0,1,251.34,91a19.24,19.24,0,0,1,4.84-2.42A20.51,20.51,0,0,0,255,92.76c-.09.38,0,.46.35.52s.51.06.77.08c.09,0,.21,0,.21.13l0,.07.06,0c.06-.07.16-.11.13-.23a11.91,11.91,0,0,1-1.2-.14c-.23,0-.25-.11-.2-.3.12-.48.24-1,.33-1.46a10.14,10.14,0,0,1,.93-2.9,6.67,6.67,0,0,1,1.08-.22c.1.22,0,.48.1.71.06.93.1,1.86.18,2.78a5.13,5.13,0,0,0,.28,1.6h0a5.29,5.29,0,0,0,.36,1.79h0v.28l0,.15c0,.09,0,.19.1.25v0c0,.12,0,.24,0,.35.26,1.06.55,2.11.86,3.16a15.28,15.28,0,0,0,.51,1.6,8.57,8.57,0,0,0,.4-1.37h0a16.63,16.63,0,0,0,.72-2h0a1.21,1.21,0,0,0,.22-.58h0a.93.93,0,0,0,.21-.65.13.13,0,0,0,0-.06,4,4,0,0,0,.41-1.08,6.47,6.47,0,0,0,.45-1.37h0a1.21,1.21,0,0,0,.29-.64h0a.41.41,0,0,0,.13-.29.13.13,0,0,0,0-.06.14.14,0,0,0,.07-.16h0a.19.19,0,0,0,.07-.22h0c.08,0,.07-.09.09-.14l0-.08,0-.14h0a.73.73,0,0,0,.14-.5h0c.15-.11.13-.28.17-.43l.18-.58.51-2c0-.13.11-.26.05-.41l0-.36a4.84,4.84,0,0,0,1.64.64c.09.78.21,1.56.26,2.34s0,1.38,0,2.07c0,.18-.05.37-.28.3s-.64.06-1,0c-.07,0-.2,0-.16.11A1.05,1.05,0,0,0,265,94l-.28-.61a3.53,3.53,0,0,1,1,0c.26,0,.36-.09.38-.33a11.92,11.92,0,0,0,0-2.07c-.07-.78-.16-1.56-.24-2.34.74.36,1.48.69,2.24,1a9.44,9.44,0,0,1,3.89,3,12.91,12.91,0,0,1,1.84,3.53c.08.21.18.31.41.29h5.87c.21,0,.3-.06.3-.28q0-5.05,0-10.11c0-.21-.06-.3-.29-.3-1,0-2.07,0-3.11,0-4.36,0-8.72,0-13.08,0a9.27,9.27,0,0,1,.13-1.49.82.82,0,0,0,.41.06h10.28c.49,0,.49,0,.49-.51v-3a.73.73,0,0,1,.15-.57c0,.29-.07.57-.07.86,0,1,0,2,0,2.93,0,.3.12.35.38.35.78,0,1.57,0,2.36,0a.54.54,0,0,0,.35-.06c.52,0,1.05,0,1.57,0,.35,0,.44-.09.44-.43,0-3.39,0-6.78,0-10.17,0-.38-.11-.45-.46-.45H265.17c.08.33.41.56.26.92a5,5,0,0,0-.58-1.16h0a1.39,1.39,0,0,0-.31-.45s0,0,0,0l-.09-.1Zm-2.85,28.71a.21.21,0,0,0-.12.16.68.68,0,0,0-.22.29c-.08.09-.19.15-.18.32a.36.36,0,0,0,.23-.27.44.44,0,0,0,.22-.28.27.27,0,0,0,.12-.17l.1-.12a.51.51,0,0,0,.21-.29l.12-.16.15-.21.14-.22a1.42,1.42,0,0,0,.29-.43.79.79,0,0,0,.23-.34,3,3,0,0,0,.58-.79,6.54,6.54,0,0,0,.74-1.21l-.09,0-.71,1.21a5.46,5.46,0,0,0-.57.79.76.76,0,0,0-.24.34.83.83,0,0,0-.28.43.33.33,0,0,0-.14.22.3.3,0,0,0-.15.21l-.12.16a.63.63,0,0,0-.22.29Zm-5.38-7.31c.05,0,.15-.1.06-.16s-.09,0-.11.11l-.09.13a.31.31,0,0,0-.14.21l-.12.16a.37.37,0,0,0-.15.22l-.09.13a.34.34,0,0,0-.14.21c-.12.19,0,.35.07.51.75,1.77,1.67,3.47,2.52,5.2a.68.68,0,0,0,.28.35s0-.08,0-.1c-.64-1.12-1.15-2.29-1.74-3.44a14,14,0,0,1-1.09-2.47l.14-.22.09-.13a.31.31,0,0,0,.14-.21.23.23,0,0,0,.13-.16.37.37,0,0,0,.14-.22Zm2.73,8c0-.07-.07-.21-.13-.16s0,.14.07.21l.15.21c0,.06.05.17.12.11s0-.11-.07-.16A.33.33,0,0,0,258.92,101.78Zm-.34-.38s.05.16.13.1,0-.11-.08-.15-.05-.17-.16-.18A.25.25,0,0,0,258.58,101.4Zm2,1.15a1.65,1.65,0,0,0,.41-.64,1.26,1.26,0,0,0-.46.59c-.09,0-.17.1-.16.24S260.58,102.63,260.62,102.55Zm4.8-8c0-.11-.07-.22-.21-.27a.36.36,0,0,0,.17.32.54.54,0,0,1,0,.55c-.21.35-.37.73-.55,1.1a1.73,1.73,0,0,0-.37.66,1.4,1.4,0,0,0,.42-.61c.27-.34.38-.77.62-1.12A.43.43,0,0,0,265.42,94.56Zm-6.07,15.78,0,.08h.17c1.15-.19,2.28-.49,3.41-.78,2-.51,4-.95,6-1.38a13.38,13.38,0,0,1,3.21-.4c.23,0,.46,0,.69,0a.14.14,0,0,0-.15-.12,16.19,16.19,0,0,0-2,0c-1.22.14-2.4.5-3.6.73-2.08.4-4.11,1-6.18,1.5C260.39,110.14,259.87,110.23,259.35,110.34Zm9.33-9.37-.1,0c.43,2.26.74,4.55,1.32,6.78C269.49,105.51,269.09,103.24,268.68,101Zm-8.61,2.26a.53.53,0,0,0,.28-.4A.5.5,0,0,0,260.07,103.23ZM264.38,97a.27.27,0,0,0-.16.28A.27.27,0,0,0,264.38,97Zm-5.11,5.31,0,0s0,0-.06,0l.05.08Zm-.95-1.31s0,.07.06.08.06,0,.05,0a.24.24,0,0,0-.06-.08Zm6.86-6.86-.08-.06s0,.06,0,.08.05,0,.07,0Z"/><path class="cls-6" d="M283.9,125.82c-.1,1.71-.06,3.41,0,5.12,0,.17-.06.2-.2.19h-.18q-17.67,0-35.32,0c-.41,0-.53-.14-.6-.5-.43-2.18-.86-4.36-1.32-6.53s-1-4.46-1.46-6.68h.14c.12.12.27.07.41.07h22.77c.13,0,.32.11.39-.12.57,0,1.14,0,1.7,0,1.25,0,2.49,0,3.73,0h9.93c0,2.7,0,5.39,0,8.09A.71.71,0,0,0,283.9,125.82Z"/><path class="cls-7" d="M203.32,84.45l.06-.06a.49.49,0,0,0,.51-.51l.13-.13c.2,0,.28-.16.38-.29a18.27,18.27,0,0,0,2.29-4.35A13.06,13.06,0,0,1,209.14,75c.07-.07.17-.14.07-.27a0,0,0,0,1,0,0c.17.12.24,0,.32-.13a7,7,0,0,1,1.14-1A8.52,8.52,0,0,1,215,72.36a14,14,0,0,1,2.42.13,8.69,8.69,0,0,1,5,2.1c.08.06.15.17.27.06a.08.08,0,0,1,0,0c-.14.2.07.29.15.38a4.8,4.8,0,0,1,1,1.76,4.54,4.54,0,0,1,0,3.47.75.75,0,0,0-.07.41v0l-.07.09h0c-.24,0-.31.16-.3.37l-.06.06a.64.64,0,0,0-.66.44.07.07,0,0,1,0,.06c-.13,0-.11.11-.15.2-.14.4-.27.8-.44,1.19-.06.14-.14.36-.31.36s-.18-.25-.27-.38,0-.36-.27-.36h0c0-.12,0-.23-.15-.22l-.06-.07c0-.17,0-.25-.23-.21h0s0-.05,0-.07a1.15,1.15,0,0,0-1.54.23s0,0,0,.07h0c-.25-.06-.25.1-.23.27h0c-.18,0-.2.14-.25.25a2.82,2.82,0,0,0,.31,2.61.14.14,0,0,0,.16,0h0c0,.17,0,.3.22.3h0a1,1,0,0,0,.72.73h0l.08.08h0c0,.16.11.16.22.13h0a.45.45,0,0,0,.51.33v0c0,.23.25.4.19.67-.1.46-.14.94-.21,1.41a15,15,0,0,1-1.13,4.21c-.06.14-.13.26-.06.41h0c-.26,0-.24.24-.23.43h0c-.15,0-.25.08-.36.15a9.67,9.67,0,0,1-2.77,1.22,11.45,11.45,0,0,1-3.41.44,23.07,23.07,0,0,1-3.8-.46,22.36,22.36,0,0,1-3.64-1.17.82.82,0,0,1-.51-.55c-.14-.52-.29-1-.43-1.55,0-.12,0-.27-.18-.3s-.23.12-.29.22c-.17.33-.32.67-.48,1-.05.12-.11.27-.28.15a6.82,6.82,0,0,1-.88-.67,1.74,1.74,0,0,0-.78-.63h0a.35.35,0,0,0-.09-.29,4.94,4.94,0,0,1-.55-1.16,5.65,5.65,0,0,1-.22-2.49,4.91,4.91,0,0,1,1.73-3.15C202.91,84.93,203.26,84.82,203.32,84.45Z"/><path class="cls-8" d="M223.83,80.74v0a4.46,4.46,0,0,0,.42-1,5.43,5.43,0,0,1,.28,1.54,40.34,40.34,0,0,1,.23,5.16,14.12,14.12,0,0,1-.66,4A2.71,2.71,0,0,1,221,92.15c-.12,0-.24-.11-.36-.16a1.67,1.67,0,0,1,0-.32,27.85,27.85,0,0,0,.7-3.73c0-.3,0-.57-.33-.7v0a1.6,1.6,0,0,0-.51-.33h0a.25.25,0,0,0-.22-.13h0l-.08-.08h0l-.72-.73h0l-.22-.3h0a2.78,2.78,0,0,1-.22-2.91h0l.23-.27h0a1.29,1.29,0,0,1,1.53-.23h0l.23.21.06.07.15.22h0c.1.25.2.5.31.75s.22.33.41.06a3.86,3.86,0,0,0,.72-1.82.07.07,0,0,0,0-.06,2.31,2.31,0,0,0,.66-.44l.06-.06a.84.84,0,0,0,.3-.37h0Z"/><path class="cls-8" d="M241.51,109.81a4.14,4.14,0,0,1-.8,2.11c-.13.19-.28.38-.42.57l-.4.51-.29.48a4,4,0,0,0-.45.73h-.05l-.08-.06-.14-.1-.06,0-.15-.08h0l-.08-.08h0a.18.18,0,0,0-.15-.07h0l-.09-.08a4.88,4.88,0,0,0-2.56-.7,2.54,2.54,0,0,1,.07-1,1,1,0,0,0,.2-.49,10.92,10.92,0,0,1,.84-2.43l.21-.36c.2-.37.54-.69.47-1.24l-.53,1.19a.82.82,0,0,0-.21.36l-.33.49c-.16.24-.31.46-.65.39s-.26-.08-.2-.28a7.75,7.75,0,0,1,.91-1.61,9.29,9.29,0,0,1,1.16-1.35c.28-.27.68-.38.92-.71a.34.34,0,0,1,.34-.07,3.16,3.16,0,0,1,2.08,1.32.33.33,0,0,1,.07.27c-.21,0-.09.12,0,.18a2.37,2.37,0,0,1,.29.72A9.7,9.7,0,0,1,241.51,109.81Zm-2.21-.59c.14-1,.1-2.41-.35-2.69A7.16,7.16,0,0,1,239.3,109.22Z"/><path class="cls-9" d="M283.84,117.38h-9.93c-1.24,0-2.48,0-3.73,0-.56,0-1.13,0-1.7,0h-.43c-4.49,0-9,0-13.47.06-3.22,0-6.45,0-9.67,0h-.14l0-.21a1.08,1.08,0,0,0,.56.07c9.08,0,18.15.07,27.23-.06,4.37-.06,8.74,0,13.11,0,.33,0,.43-.09.42-.42,0-.94,0-1.89,0-2.83,0-.33-.09-.43-.42-.42-2.29,0-4.58,0-6.87.06-7,.06-13.93,0-20.89,0h-.39c.11-.11.25,0,.32-.13H258a.84.84,0,0,0,.56,0,8.38,8.38,0,0,0,1.66,0l.2,0h16.75c2.89,0,5.78,0,8.67,0,.34,0,.41.1.41.42,0,1,0,2.1,0,3.15,0,.25-.07.33-.32.32C285.2,117.36,284.52,117.37,283.84,117.38Z"/><path class="cls-8" d="M212.15,96.83l-1.32-.3-.42-.16-.07-.07h0s0-.07-.08-.07h0c0-.08-.05,0-.07,0a.12.12,0,0,1-.06-.16,8.94,8.94,0,0,1,1.16.12,13.63,13.63,0,0,0,4.55-.15A12.46,12.46,0,0,0,219,94.82a9.06,9.06,0,0,0,.49,1.61v.24c-.8.08-1.59.13-2.38.23A16.31,16.31,0,0,1,212.15,96.83Z"/><path class="cls-10" d="M232.22,115.42s0,0,0-.06a2.73,2.73,0,0,0-.21-1h0c0-.3-.15-.57-.15-.86h.07c0,.06,0,.09.11.09l2.62,0h.05v.09h0a.13.13,0,0,0-.06.14l0,.14h0a.53.53,0,0,0-.15.36h0a1.82,1.82,0,0,0-.29.72h0a2,2,0,0,0-.3.72h0a4.27,4.27,0,0,0-.43,1h0a.25.25,0,0,0-.08.21h0c-.08,0-.07.09-.08.15h0c-.1.08-.11.21-.16.31h-.48c0-.11-.05-.23-.08-.34A12.69,12.69,0,0,0,232.22,115.42Z"/><path class="cls-11" d="M219,94.82A12.46,12.46,0,0,1,215.85,96a13.63,13.63,0,0,1-4.55.15,8.94,8.94,0,0,0-1.16-.12h0c0-.08-.08-.07-.14-.06a22.25,22.25,0,0,1-4.45-1.37.87.87,0,0,1-.54-.58,13.18,13.18,0,0,1-.5-1.9,4.5,4.5,0,0,0-.67,1.33c-.09.29-.19.29-.42.15a5.29,5.29,0,0,1-1.62-1.43,1.74,1.74,0,0,1,.78.63,6.82,6.82,0,0,0,.88.67c.17.12.23,0,.28-.15.16-.33.31-.67.48-1,.06-.1.12-.25.29-.22s.15.18.18.3c.14.52.29,1,.43,1.55a.82.82,0,0,0,.51.55,22.36,22.36,0,0,0,3.64,1.17,23.07,23.07,0,0,0,3.8.46,11.45,11.45,0,0,0,3.41-.44,9.67,9.67,0,0,0,2.77-1.22c.11-.07.21-.17.36-.15l-.06.13Z"/><path class="cls-11" d="M222.71,74.65c-.12.11-.19,0-.27-.06a8.69,8.69,0,0,0-5-2.1,14,14,0,0,0-2.42-.13,8.52,8.52,0,0,0-4.31,1.27,7,7,0,0,0-1.14,1c-.08.09-.15.25-.32.13a7.21,7.21,0,0,1,4.59-2.38,12,12,0,0,1,7.36,1.15A5.31,5.31,0,0,1,222.71,74.65Z"/><path class="cls-12" d="M200.59,104.6a1,1,0,0,1-.12.55,19.64,19.64,0,0,0-1.24,4.64c-.15,1.07-.34,2.13-.48,3.2-.1.82-.16,1.65-.23,2.48-.1,1.2-.19,2.39-.28,3.59,0,.6-.05,1.21-.08,1.81,0,.13.05.27-.08.37-.11-.06-.07-.17-.06-.26.09-1.59.15-3.19.29-4.77s.34-3.34.57-5a24.51,24.51,0,0,1,1.59-6.4A2.25,2.25,0,0,1,200.59,104.6Z"/><path class="cls-11" d="M209.21,74.76c.1.13,0,.2-.07.27a13.06,13.06,0,0,0-2.45,4.08,18.27,18.27,0,0,1-2.29,4.35c-.1.13-.18.3-.38.29a21.64,21.64,0,0,0,2.89-5.51A11.22,11.22,0,0,1,209.21,74.76Z"/><path class="cls-11" d="M203.32,84.45c-.06.37-.41.48-.64.68A4.91,4.91,0,0,0,201,88.28a5.65,5.65,0,0,0,.22,2.49,4.94,4.94,0,0,0,.55,1.16.35.35,0,0,1,.09.29,4.4,4.4,0,0,1-1-2.24,5.41,5.41,0,0,1,.26-2.87A5.74,5.74,0,0,1,203.32,84.45Z"/><path class="cls-13" d="M219,94.82l.53-.32a.3.3,0,0,0,.29-.22c.09-.22.21-.42.32-.63-.17.93-.41,1.85-.65,2.78A9.06,9.06,0,0,1,219,94.82Z"/><path class="cls-12" d="M198.09,121.66c0,1,0,1.91,0,2.86a40.61,40.61,0,0,0,.34,4.8,15.37,15.37,0,0,1,.23,1.79h-.09a43.14,43.14,0,0,1-.56-9.22C198,121.8,198,121.71,198.09,121.66Z"/><path class="cls-12" d="M212.15,96.83a16.31,16.31,0,0,0,5,.07c.79-.1,1.58-.15,2.38-.23a3.48,3.48,0,0,1,1.46.53s-.1,0-.13,0a3.84,3.84,0,0,0-2.62-.35c-.57.08-1.15.13-1.73.2a17.78,17.78,0,0,1-2.53.07,9.2,9.2,0,0,1-1.65-.21C212.23,96.93,212.16,96.92,212.15,96.83Z"/><path class="cls-11" d="M221.05,87.24c.33.13.37.4.33.7a27.85,27.85,0,0,1-.7,3.73,1.67,1.67,0,0,0,0,.32l-.42,1.19-.4.76c-.07-.15,0-.27.06-.41A15,15,0,0,0,221,89.32c.07-.47.11-.95.21-1.41C221.3,87.64,221.08,87.47,221.05,87.24Z"/><path class="cls-14" d="M235.88,109.92c.34.07.49-.15.65-.39l.33-.49.06,0a10.92,10.92,0,0,0-.84,2.43,1,1,0,0,1-.2.49,19.29,19.29,0,0,1,.49-2c-.18.07-.38,0-.47.16a13.58,13.58,0,0,0-1,3.3l-.14.16v-.18A16,16,0,0,1,235.88,109.92Z"/><path class="cls-11" d="M224.25,79.73a4.46,4.46,0,0,1-.42,1,.75.75,0,0,1,.07-.41,4.54,4.54,0,0,0,0-3.47,4.8,4.8,0,0,0-1-1.76c-.08-.09-.29-.18-.15-.38A5.42,5.42,0,0,1,224.39,79,4.57,4.57,0,0,1,224.25,79.73Z"/><path class="cls-15" d="M239.89,113l.4-.51.18.43a1.4,1.4,0,0,0,.21.57c0,.16.06.33.2.44h0l0,.26c-.15,0-.14-.14-.19-.23a6.2,6.2,0,0,0-.45-1,1.27,1.27,0,0,0,0,.92c.1.3.33.56.26.91l-.12-.17h0a.58.58,0,0,0-.15-.36h0c0-.08,0-.16-.08-.22h0c0-.06,0-.13-.07-.15h0a.2.2,0,0,0-.08-.21h0c0-.06,0-.12-.07-.15h0l0-.07Zm.18,0s0,0,0,0,0,0,0,.05a.09.09,0,0,0,0-.05S240.08,113.07,240.07,113.05Z"/><path class="cls-12" d="M210.41,96.37l.42.16a6.85,6.85,0,0,0-2.6.63c-.43.18-.84.4-1.25.61a.48.48,0,0,1-.33.1,9.15,9.15,0,0,1,3.29-1.36c.14,0,.3,0,.42-.14h0Z"/><path class="cls-12" d="M231.86,113.49c0,.29.17.56.15.86a2.81,2.81,0,0,1-.33-1.17c-.22-.81-.38-1.64-.57-2.46a1.46,1.46,0,0,1,0-.46,9.52,9.52,0,0,1,.43,1.67C231.63,112.44,231.74,113,231.86,113.49Z"/><path class="cls-12" d="M230.2,106.61c-.2-.12-.16-.35-.22-.54a17.52,17.52,0,0,0-1-2.7.54.54,0,0,1-.06-.35A12.83,12.83,0,0,1,230.2,106.61Z"/><path class="cls-12" d="M231.07,110.2a11.42,11.42,0,0,1-.5-1.91,6.8,6.8,0,0,1-.36-1.62,11.22,11.22,0,0,1,.56,2A5.8,5.8,0,0,1,231.07,110.2Z"/><path class="cls-12" d="M241.51,109.81a9.7,9.7,0,0,0-.11-1.42,2.37,2.37,0,0,0-.29-.72c0-.06-.16-.18,0-.18A3.52,3.52,0,0,1,241.51,109.81Z"/><path class="cls-9" d="M234.66,113.56l-2.62,0c-.08,0-.1,0-.11-.09h2.47C234.49,113.49,234.59,113.47,234.66,113.56Z"/><path class="cls-8" d="M219.84,93.94l.4-.76a.5.5,0,0,1-.08.47c-.11.21-.23.41-.32.63a.3.3,0,0,1-.29.22l.06-.13h0a1.19,1.19,0,0,0,.23-.43Z"/><path class="cls-12" d="M201.6,102.74a1.25,1.25,0,0,1-.51.86A3.55,3.55,0,0,1,201.6,102.74Z"/><path class="cls-12" d="M223.83,98.51a1.21,1.21,0,0,1-1-.37A8.53,8.53,0,0,1,223.83,98.51Z"/><path class="cls-12" d="M201,103.88a1,1,0,0,1-.36.73A2,2,0,0,1,201,103.88Z"/><path class="cls-12" d="M224.55,98.87a.93.93,0,0,1-.72-.37A2.14,2.14,0,0,1,224.55,98.87Z"/><path class="cls-11" d="M203.89,83.88a.49.49,0,0,1-.51.51Z"/><path class="cls-12" d="M228.93,103a.73.73,0,0,1-.37-.65A2,2,0,0,1,228.93,103Z"/><path class="cls-12" d="M203.81,100.08a.49.49,0,0,1-.43.43A1.36,1.36,0,0,1,203.81,100.08Z"/><path class="cls-12" d="M228.57,102.38a.6.6,0,0,1-.36-.58A2.34,2.34,0,0,1,228.57,102.38Z"/><path class="cls-12" d="M221.54,97.51a.67.67,0,0,1-.58-.29A1.27,1.27,0,0,1,221.54,97.51Z"/><path class="cls-12" d="M202.38,101.66c0,.23-.12.34-.29.43C202.1,101.89,202.25,101.78,202.38,101.66Z"/><path class="cls-12" d="M222.4,97.94a.65.65,0,0,1-.51-.22A.75.75,0,0,1,222.4,97.94Z"/><path class="cls-12" d="M224.91,99.08c-.17,0-.33,0-.36-.22A.75.75,0,0,1,224.91,99.08Z"/><path class="cls-12" d="M202,102.23c0,.17,0,.29-.22.3A.84.84,0,0,1,202,102.23Z"/><path class="cls-12" d="M225.56,99.5c-.15,0-.28,0-.29-.21A.45.45,0,0,1,225.56,99.5Z"/><path class="cls-12" d="M225.92,99.73a.38.38,0,0,1-.37-.22A.5.5,0,0,1,225.92,99.73Z"/><path class="cls-12" d="M226.92,100.44c-.17,0-.29,0-.29-.22Z"/><path class="cls-12" d="M202.87,101.08c0,.16-.05.23-.21.22C202.72,101.21,202.76,101.11,202.87,101.08Z"/><path class="cls-12" d="M202.6,101.37c0,.15,0,.29-.22.29A.63.63,0,0,1,202.6,101.37Z"/><path class="cls-12" d="M225.27,99.3c-.11,0-.22,0-.22-.15A.42.42,0,0,1,225.27,99.3Z"/><path class="cls-12" d="M226.34,100c-.11,0-.22,0-.21-.16A.41.41,0,0,1,226.34,100Z"/><path class="cls-12" d="M201.74,102.52c0,.11,0,.22-.15.22Z"/><path class="cls-12" d="M227.07,100.58c-.11,0-.16,0-.15-.14S227.05,100.5,227.07,100.58Z"/><path class="cls-12" d="M227.93,101.45c-.11,0-.16,0-.15-.16S227.9,101.38,227.93,101.45Z"/><path class="cls-12" d="M221.76,97.64c-.12,0-.2,0-.22-.14A.24.24,0,0,1,221.76,97.64Z"/><path class="cls-12" d="M228.21,101.81c-.11,0-.16,0-.14-.16S228.18,101.74,228.21,101.81Z"/><path class="cls-12" d="M202.08,102.08c0,.12,0,.16-.13.16S202,102.08,202.08,102.08Z"/><path class="cls-12" d="M226.49,100.15c-.1,0-.16,0-.15-.14S226.48,100.06,226.49,100.15Z"/><path class="cls-16" d="M234.79,113.42v.18s0,.07-.08,0v-.09Z"/><path class="cls-12" d="M228.07,101.67a.12.12,0,0,1-.08-.15A.12.12,0,0,1,228.07,101.67Z"/><path class="cls-12" d="M227.78,101.31c-.08,0-.08-.09-.08-.15S227.8,101.23,227.78,101.31Z"/><path class="cls-12" d="M201.1,103.6c0,.06,0,.13-.08.15Z"/><path class="cls-12" d="M201,103.74c0,.07,0,.13-.08.15S201,103.77,201,103.74Z"/><path class="cls-12" d="M203,100.94c0,.07,0,.13-.08.15S202.91,101,203,100.94Z"/><path class="cls-12" d="M227.28,100.73c-.07,0-.13,0-.15-.08S227.24,100.68,227.28,100.73Z"/><path class="cls-12" d="M226.63,100.23c-.07,0-.12,0-.15-.08S226.6,100.17,226.63,100.23Z"/><path class="cls-8" d="M210,96c.06,0,.12,0,.14.06A.14.14,0,0,1,210,96Z"/><path class="cls-12" d="M226.05,99.8c-.06,0-.12,0-.14-.08Z"/><path class="cls-12" d="M204.47,99.45c.06.12-.05,0-.08.07Z"/><path class="cls-12" d="M225.05,99.16c-.06,0-.12,0-.15-.08Z"/><path class="cls-12" d="M222.83,98.15c-.07,0-.13,0-.15-.08S222.8,98.08,222.83,98.15Z"/><path class="cls-12" d="M222.69,98.08c-.07,0-.13,0-.15-.08S222.66,98,222.69,98.08Z"/><path class="cls-12" d="M222.55,98c-.07,0-.13,0-.16-.08S222.52,97.94,222.55,98Z"/><path class="cls-12" d="M221.9,97.72c-.07,0-.13,0-.15-.08S221.89,97.62,221.9,97.72Z"/><path class="cls-13" d="M210.41,96.37h0l0-.05a0,0,0,0,0,0,0Z"/><path class="cls-13" d="M210.27,96.23s.07,0,.08.07S210.25,96.3,210.27,96.23Z"/><path class="cls-12" d="M204.32,99.58l-.09.08Z"/><path class="cls-13" d="M210.2,96.23s.05-.08.07,0Z"/><path class="cls-12" d="M204.11,99.78l-.08.1Z"/><path class="cls-12" d="M228,101.52l-.08-.07Z"/><path class="cls-12" d="M226.13,99.88l-.08-.08Z"/><path class="cls-12" d="M204,99.87,204,100S204,99.88,204,99.87Z"/><path class="cls-12" d="M203.89,100l-.07.08S203.84,100,203.89,100Z"/><path class="cls-12" d="M203.39,100.51l-.08.08A.09.09,0,0,1,203.39,100.51Z"/><path class="cls-12" d="M203.32,100.59l-.09.07Z"/><path class="cls-12" d="M227.13,100.66l-.08-.07C227.11,100.58,227.16,100.58,227.13,100.66Z"/><path class="cls-12" d="M203.17,100.71l-.07.1Z"/><path class="cls-12" d="M227.35,100.81l-.08-.08Z"/><path class="cls-12" d="M203.11,100.8l-.09.08Z"/><path class="cls-12" d="M227.42,100.88l-.08-.08Z"/><path class="cls-12" d="M227.49,101l-.08-.08Z"/><path class="cls-12" d="M227.57,101l-.09-.07Z"/><path class="cls-12" d="M227.71,101.17l-.08-.09Z"/><path class="cls-12" d="M202.67,101.3l-.08.08Z"/><path class="cls-12" d="M204,99.94l-.07.08A.08.08,0,0,1,204,99.94Z"/><path class="cls-10" d="M257.81,113.51c-.07.1-.21,0-.32.13h.39c7,0,13.93,0,20.89,0,2.29,0,4.58,0,6.87-.06.33,0,.43.09.42.42,0,.94,0,1.89,0,2.83,0,.33-.09.42-.42.42-4.37,0-8.74-.06-13.11,0-9.08.13-18.15,0-27.23.06a1.08,1.08,0,0,1-.56-.07l-.12-.07a.47.47,0,0,0-.44-.05,10.43,10.43,0,0,1-1.93.19c-.08-.11-.08-.27-.23-.34a1.82,1.82,0,0,0-.42-1.09c0-.21,0-.44-.22-.56,0-.15,0-.29-.14-.37a.46.46,0,0,0-.14-.43c0-.06,0-.12-.08-.13a.42.42,0,0,0-.15-.44h0a.49.49,0,0,0-.06-.29h12.3c-.15-.12-.33,0-.48-.14h.72Z"/><path class="cls-17" d="M228.48,129.85a2.09,2.09,0,0,0,.42.42l.09.08h0a.62.62,0,0,0,.28.23h0a.08.08,0,0,0,.07.08h0a.34.34,0,0,0,.21.16h0a.61.61,0,0,0,.57.21l1.88-.16c0,.21-.05.3-.28.3h-4.83c0-.92,0-1.83,0-2.75,0-.08-.11-.26.13-.24h0l.08.08h0c0,.05,0,.08.08.08h0a.18.18,0,0,0,.14.15h0c0,.07,0,.11.07.15l.06.06.09.08h0a.31.31,0,0,0,.23.21c.2.19.27.48.5.64,0,0,.05.12.13.09h0c0,.07,0,.1.08.07h0C228.35,129.79,228.44,129.81,228.48,129.85Z"/><path class="cls-16" d="M234.94,113.44a13.58,13.58,0,0,1,1-3.3c.09-.2.29-.09.47-.16a19.29,19.29,0,0,0-.49,2,2.54,2.54,0,0,0-.07,1c0,.67-.13,1.34-.15,2,0,1.1-.09,2.2-.13,3.3v.13c-.15.16-.31.28-.51.07l0-.2a7.79,7.79,0,0,0,.08-1.28c.09-1.26.14-2.53.2-3.8C235.11,113.2,235.07,113.4,234.94,113.44Z"/><path class="cls-15" d="M205,131.12a8,8,0,0,1,.16-1.77,11.27,11.27,0,0,0-.12-3c-.14-1.22-.3-2.43-.47-3.64-.12-.89-.27-1.78-.39-2.66-.1-.67-.16-1.35-.25-2-.15-1.13-.32-2.25-.47-3.38s-.26-2.1-.39-3.15c-.07-.54-.13-1.09-.19-1.63,0-.15,0-.31,0-.55a2,2,0,0,1,.22,1c.16,1.07.24,2.15.38,3.22.2,1.48.42,3,.62,4.45.14,1,.25,2,.38,2.92s.31,2,.42,3a34.89,34.89,0,0,1,.45,5.21,13.31,13.31,0,0,0-.22,2Z"/><path class="cls-9" d="M233.8,118.73l1.29,12.35c-.23-.24-.17-.54-.2-.8-.15-1.27-.26-2.54-.39-3.8-.15-1.5-.32-3-.48-4.48-.11-1.09-.23-2.17-.35-3.26Z"/><path class="cls-12" d="M232,130.83l-1.88.16a.61.61,0,0,1-.57-.21,7.46,7.46,0,0,0,2.11,0,.19.19,0,0,0,.21-.19c0-.33.11-.66.12-1,0-1.06.18-2.11.28-3.16s.15-1.87.23-2.8c0-.14,0-.3.13-.38l-.48,5.61C232.09,129.52,232.05,130.18,232,130.83Z"/><path class="cls-12" d="M235.52,118.45v-.13c.89,0,1.76-.25,2.64-.38s.86-.11,1-.93a3.53,3.53,0,0,0-.1-2.67s0-.09,0-.14h.05a2.21,2.21,0,0,1,.38,1.24,13.45,13.45,0,0,1-.28,1.92l-.15.56-3.12.48Z"/><path class="cls-6" d="M239.1,117.93l.15-.56a15.7,15.7,0,0,0,2.06.06c.15,0,.15-.12.17-.22l.15.36-1.93.3C239.5,117.9,239.3,117.91,239.1,117.93Z"/><path class="cls-12" d="M232.63,122.81a3.41,3.41,0,0,1,0-1.15c0-.64.08-1.28.13-1.91,0-.25.05-.5.07-.74a.15.15,0,0,1,.14-.14c-.17,1.16-.14,2.33-.28,3.49C232.7,122.51,232.66,122.66,232.63,122.81Z"/><path class="cls-12" d="M227,128.13c-.24,0-.13.16-.13.24,0,.92,0,1.83,0,2.75h-.12c0-.78,0-1.56-.07-2.34a3.58,3.58,0,0,1,.07-.64c0-.07,0-.14.12-.13S227,128.07,227,128.13Z"/><path class="cls-9" d="M242.25,117.29a10.43,10.43,0,0,0,1.93-.19.47.47,0,0,1,.44.05,17.23,17.23,0,0,1-2.37.29Z"/><path class="cls-12" d="M233.8,118.73h-.13l-.66.09c0-.21.16-.16.28-.17l1.32-.17a.82.82,0,0,0,.42-.17l0,.2Z"/><path class="cls-15" d="M241.63,117.57l-.15-.36h0a.52.52,0,0,0-.16-.36h0a.24.24,0,0,0-.08-.22h0l-.06-.25a2.05,2.05,0,0,1,.48,1.12.17.17,0,0,1,0,.07Z"/><path class="cls-14" d="M241.67,117.59a.17.17,0,0,0,0-.07c.18.16.34.25.43-.08h.06s0,.12.07.14c0,.29-.29.11-.43.2S241.68,117.68,241.67,117.59Z"/><path class="cls-6" d="M242.24,117.58c-.07,0-.05-.09-.07-.14l0-.09h0c0-.13-.07-.27-.11-.4h0c.15.07.15.23.23.34v.29Z"/><path class="cls-15" d="M226.56,127.61a15.36,15.36,0,0,1-1.31-2.63,112.41,112.41,0,0,1-3.44-10.92c-.28-1.09-.59-2.17-.89-3.26a.19.19,0,0,1,0-.2,2.37,2.37,0,0,1,.24.69c.83,3,1.58,6.08,2.59,9.06a45.53,45.53,0,0,0,2.3,6.15c.18.36.38.71.57,1.06Z"/><path class="cls-12" d="M232.22,115.42a12.69,12.69,0,0,1,.42,1.61c0,.11.05.23.08.34l.14.71c-.24,0-.16-.28-.19-.41A14.46,14.46,0,0,1,232.22,115.42Z"/><path class="cls-18" d="M232.86,118.08l-.14-.71h.48v.13h0c-.18.18-.18.45-.31.65Z"/><path class="cls-12" d="M233.5,116.72a4.27,4.27,0,0,1,.43-1A1.48,1.48,0,0,1,233.5,116.72Z"/><path class="cls-12" d="M232,114.35a2.73,2.73,0,0,1,.21,1A1.86,1.86,0,0,1,232,114.35Z"/><path class="cls-12" d="M233.92,115.71a2,2,0,0,1,.3-.72A.82.82,0,0,1,233.92,115.71Z"/><path class="cls-12" d="M234.21,115a1.82,1.82,0,0,1,.29-.72A.83.83,0,0,1,234.21,115Z"/><path class="cls-12" d="M232.9,118.15c.13-.2.13-.47.31-.65C233.2,117.76,233.18,118,232.9,118.15Z"/><path class="cls-12" d="M233.2,117.51v-.13c.05-.1.06-.23.16-.31C233.34,117.23,233.43,117.42,233.2,117.51Z"/><path class="cls-12" d="M227.7,128.91a.31.31,0,0,1-.23-.21C227.62,128.69,227.68,128.77,227.7,128.91Z"/><path class="cls-12" d="M229.26,130.57a.62.62,0,0,1-.28-.23C229.12,130.36,229.26,130.38,229.26,130.57Z"/><path class="cls-12" d="M234.5,114.28a.53.53,0,0,1,.15-.36C234.65,114.06,234.68,114.21,234.5,114.28Z"/><path class="cls-12" d="M234.64,113.92l0-.14.08-.07C234.92,113.89,234.71,113.87,234.64,113.92Z"/><path class="cls-12" d="M229.55,130.79a.34.34,0,0,1-.21-.16C229.45,130.62,229.56,130.62,229.55,130.79Z"/><path class="cls-12" d="M227.25,128.42a.18.18,0,0,1-.14-.15C227.22,128.26,227.27,128.31,227.25,128.42Z"/><path class="cls-12" d="M228.33,129.64c-.08,0-.1,0-.13-.09S228.32,129.56,228.33,129.64Z"/><path class="cls-12" d="M233.42,116.93a.25.25,0,0,1,.08-.21C233.5,116.8,233.52,116.89,233.42,116.93Z"/><path class="cls-12" d="M228.48,129.85s-.13-.06-.08-.15S228.49,129.78,228.48,129.85Z"/><path class="cls-12" d="M227.33,128.56s-.1-.08-.07-.15A.12.12,0,0,1,227.33,128.56Z"/><path class="cls-12" d="M233.35,117.08c0-.06,0-.13.08-.15A.14.14,0,0,1,233.35,117.08Z"/><path class="cls-16" d="M234.75,113.71l-.08.07a.13.13,0,0,1,.06-.14Z"/><path class="cls-12" d="M227.05,128.2l-.08-.08Z"/><path class="cls-12" d="M227.12,128.27c-.05,0-.07,0-.08-.08Z"/><path class="cls-12" d="M227.48,128.7l-.09-.08Z"/><path class="cls-12" d="M228.41,129.7c-.08,0-.1,0-.08-.07Z"/><path class="cls-12" d="M229,130.35l-.09-.08Z"/><path class="cls-12" d="M229.34,130.64a.08.08,0,0,1-.07-.08Z"/><path class="cls-18" d="M255.85,84.18h-6.91a.78.78,0,0,1-.45-.07V84h0a1.33,1.33,0,0,0,.21-.7c0-.78,0-1.57,0-2.36l0-.32V80.6l0-.21a1.77,1.77,0,0,0-.77-1.08c0-.27,0-.53,0-.79s-.05-.22-.23-.22c-.4,0-.81,0-1.21,0s-.38.08-.38.38.13.57-.16.79a1.37,1.37,0,0,0-.54.65,2.59,2.59,0,0,0-.07,1v2.27h0c-.11.2-.16.39,0,.57,0,0,0,0,0,0a.25.25,0,0,0,.07.2h0c-.81.1-1.62,0-2.43,0-.22,0-.19-.16-.2-.3v-2.8a.13.13,0,0,1,0-.06,3.24,3.24,0,0,0,0-1.42.13.13,0,0,1,0-.06c0-.91,0-1.83,0-2.74,0-.33-.06-.36-.33-.36-2.22,0-4.43,0-6.65,0-.31,0-.36.11-.35.37,0,.91,0,1.81,0,2.72v1.56c0,.91,0,1.81,0,2.72,0,.28-.1.38-.38.38-.88,0-1.77,0-2.65,0-.3,0-.43-.09-.43-.41q0-5.11,0-10.21c0-.27.07-.35.34-.35h22.85a3,3,0,0,0-.25,1.31c0,.14,0,.32.19.37h0a.08.08,0,0,0,0,.1h0v0c0,.12,0,.24.15.25h0c0,.06,0,.13.11.1v0a.53.53,0,0,0,0,.41h0c-.14,0-.1.12-.09.21h0c-.11,0-.13.11-.18.2a3.26,3.26,0,0,0-.18.94,4.46,4.46,0,0,0,.14,1.54c0,.07,0,0,.06,0s0,0,0-.06,0,.29.12.4A16,16,0,0,0,255.85,84.18Z"/><path class="cls-18" d="M257.46,88.27a6.67,6.67,0,0,0-1.08.22l-.05-.11-.15.17A19.24,19.24,0,0,0,251.34,91a10.5,10.5,0,0,0-2.77,3.37c-.3.58-.6,1.17-.87,1.76a.4.4,0,0,1-.43.27c-1.22,0-2.44,0-3.65,0a2.3,2.3,0,0,0,.27-1.28V92.83c-.06-.24.06-.53-.2-.71l-.06-.06-.16-.15h0l-.15-.15h0l-.07-.08h0l-.1-.11a2.56,2.56,0,0,0,0-.73c0-.17-.05-.23-.22-.23-.39,0-.78,0-1.17,0-.07,0-.14,0-.19.07a1.87,1.87,0,0,0,.08.93c0,.08-.14.11-.1.22h0c-.15,0-.2.14-.29.22l-.14.13-.07.09h0c-.23.15-.11.39-.14.58V95a1.75,1.75,0,0,0,.37,1.34h-9c-.26,0-.31-.1-.31-.34V85.86c0-.26.08-.32.33-.32,4.43,0,8.86,0,13.29,0,1.44,0,2.87,0,4.3,0,2.08,0,4.15.11,6.22.07.16.41.31.9.72,1.08.58.25.54.68.53,1.15C257.45,88,257.46,88.12,257.46,88.27Zm-22.52,7.38a2.41,2.41,0,0,0,1,.07h2.85a.52.52,0,0,0,.4-.77.43.43,0,0,1,0-.25,5.73,5.73,0,0,0,.12-1.24c0-1,0-2.07,0-3.11,0-.48-.12-.6-.58-.74-.26-.09-.49,0-.74,0-.86,0-1.72,0-2.57,0s-1.22.17-1.15,1.17c.05.74,0,1.49,0,2.23a7,7,0,0,1,.05,1.21,3.24,3.24,0,0,0,.07,1.12c0,.27.25.29.46.27Z"/><path class="cls-18" d="M275.45,80.17a.73.73,0,0,0-.15.57v3c0,.51,0,.5-.49.51h-2c0-.63,0-1.25,0-1.88,0-.17.06-.35-.07-.51,0-.75,0-1.5,0-2.25,0-.18-.08-.16-.18-.19s.16,0,.16-.12a7.58,7.58,0,0,0-.07-1.72c-.09-.11-.22-.07-.33-.07h-1.86c-.13,0-.27,0-.38.06a6.83,6.83,0,0,0-.05,1.75l0,.1V82a6.4,6.4,0,0,0-.05,1.45,1.17,1.17,0,0,0,.06.69v.14h-5.47a.82.82,0,0,1-.41-.06,6.63,6.63,0,0,1,.07-1c0-.31.05-.53.45-.39a.46.46,0,0,0,.28,0,1.41,1.41,0,0,0,1-1.28c0-.34-.17-.67,0-1,0,0,0,0,0,0s.12-.12.1-.22h0c.22,0,.18-.2.14-.35v0c.16,0,.1-.14.11-.22v0s.05-.06,0-.1,0,0,0,0,.15-.08.18-.16a4.81,4.81,0,0,0-.14-3.26.14.14,0,0,0-.13-.1v0c0-.09.05-.21-.11-.23v0c0-.14.12-.32-.15-.32v0c.06-.15.07-.27-.13-.27v0c0-.07,0-.13-.06-.14h0c0-.3,0-.59-.3-.75h0c.15-.36-.18-.59-.26-.92H280c.35,0,.46.07.46.45,0,3.39,0,6.78,0,10.17,0,.34-.09.45-.44.43-.52,0-1,0-1.57,0v-.08c.1-.11,0-.25,0-.37,0-.6,0-1.21.06-1.81a4.32,4.32,0,0,0-.13-1.75h0c0-.08,0-.16-.07-.21h0c0-.08,0-.17-.07-.22h0a.13.13,0,0,0-.1-.14l0-.12c0-.12,0-.24-.16-.24l-.05-.07c0-.07,0-.13-.09-.15l-.05-.06c0-.33-.09-.66.1-1,.07-.1-.05-.16-.16-.16-.42,0-.84,0-1.26,0-.25,0-.35.06-.33.32s0,.52,0,.78l-.57.84a.15.15,0,0,0-.07.15h0c-.09,0-.07.14-.07.22Z"/><path class="cls-8" d="M265.89,80.47c-.13.35.06.68,0,1a1.41,1.41,0,0,1-1,1.28.46.46,0,0,1-.28,0c-.4-.14-.44.08-.45.39a6.63,6.63,0,0,0-.07,1,9.27,9.27,0,0,0-.13,1.49c-.06.73.13,1.44.14,2.16l0,.36-.42.49h0l-.07.08h0l-.1.07a1,1,0,0,0-.34.27.36.36,0,0,0-.21.16h0a.14.14,0,0,0-.15.08h0a2.35,2.35,0,0,0-.57.29h0a7.33,7.33,0,0,1-2,.36c-.36,0-.71-.09-1.06-.14h0c0-.07-.08-.08-.14-.08h0a1.46,1.46,0,0,0-.43-.22h0l-.43-.22-.08-.06H258a1.08,1.08,0,0,0-.47-.28c-.09-.23,0-.49-.1-.71s0-.29,0-.43c0-.47.05-.9-.53-1.15-.41-.18-.56-.67-.72-1.08l-.36-1.43a16,16,0,0,1-.48-5.16c.26,0,.18-.18.17-.33a5.54,5.54,0,0,1,.2-2.46h0l.22-.36h0l.24-.29.12-.14.14-.15h0l.37-.35h0l.34-.23h.06l.08.07h0a.42.42,0,0,0,.22.15h0a3.37,3.37,0,0,0,1.6.52,2.13,2.13,0,0,0,1.5-.24v0c.2,0,.27.16.41.22l.05,0a2.29,2.29,0,0,0,.51.37h0a.34.34,0,0,0,.22.15h0a.32.32,0,0,0,.24.14c.75.14,1,.69,1.14,1.35a20.44,20.44,0,0,0,.56,2.34c0,.11.07.28.18.29s.14-.15.19-.25h0l.08-.08h0a1,1,0,0,1,.93-.08h0a.17.17,0,0,0,.18.08h0c0,.06,0,.07.08.08h0l.07.08.07.07.08.08h0C265.7,80.23,265.75,80.39,265.89,80.47Zm-3.69,5.31s.11,0,.07-.07-.07,0-.1,0l0,0S262.18,85.8,262.2,85.78Zm-1.37-6.27h0c-.16-.22-.3-.14-.41,0a.73.73,0,0,0,0,.74c.11.22.31.24.43,0A.61.61,0,0,0,260.83,79.51Zm-1-1.35c-.15,0-.17.12-.24.23a4.47,4.47,0,0,1,2.56.2,1.5,1.5,0,0,0-1.21-.71,1.16,1.16,0,0,0-1.11.28Zm-1.77,9a2,2,0,0,0,2.13.57,3.75,3.75,0,0,0,1.8-1.76,9,9,0,0,1-1.8,1A5.35,5.35,0,0,1,258.08,87.12Zm-2.38-8.64,1.91-.11c.07,0,.15,0,.19-.05s0-.16-.1-.21a.46.46,0,0,0-.3-.09,5.76,5.76,0,0,0-1.1.08A.8.8,0,0,0,255.7,78.48Zm2.91,3.83a6.68,6.68,0,0,1-.19-2.81A4,4,0,0,0,258.61,82.31ZM256.51,80c0,.23,0,.54.33.55s.31-.26.31-.48,0-.53-.31-.55S256.55,79.8,256.51,80Zm1.41,3.72c.75.05,1.53.32,2.24-.18A5.17,5.17,0,0,1,257.92,83.74Z"/><path class="cls-18" d="M264.13,87.84c0-.72-.2-1.43-.14-2.16,4.36,0,8.72,0,13.08,0,1,0,2.08.07,3.11,0,.23,0,.29.09.29.3q0,5.06,0,10.11c0,.22-.09.29-.3.28h-1.79a.39.39,0,0,1-.22-.4c0-.24,0-.48,0-.72s-.07-.25-.26-.24h-2.43c-.18,0-.26.06-.25.25v1.11h-.93c-.23,0-.33-.08-.41-.29a12.91,12.91,0,0,0-1.84-3.53,9.44,9.44,0,0,0-3.89-3c-.76-.33-1.5-.66-2.24-1a.17.17,0,0,0-.15-.08A4.84,4.84,0,0,1,264.13,87.84ZM276,90.36V91a3.4,3.4,0,0,0-.68,1.08c-.07.16,0,.22.16.22H278c.13,0,.24,0,.16-.19-.19-.35-.27-.77-.61-1v-.87a6.68,6.68,0,0,0-1.48-.07s-.05,0-.07.07Zm.7,2.06h0c-.4,0-.81,0-1.21,0-.22,0-.23.07-.23.24q0,1,0,2.07c0,.23.08.28.29.28.78,0,1.55,0,2.33,0,.19,0,.27-.06.26-.27,0-.7,0-1.4,0-2.11,0-.16,0-.22-.22-.21C277.54,92.43,277.14,92.42,276.73,92.42Z"/><path class="cls-15" d="M265.54,80l-.07-.07-.07-.08h0l-.08-.08h0c0-.08-.11-.08-.18-.08h0a.55.55,0,0,0-.93.08h0l-.08.08h0c-.2.07-.24-.06-.3-.23-.25-.81-.36-1.66-.61-2.48a1.38,1.38,0,0,0-1.4-1.16h0c0-.17-.1-.17-.22-.15h0a.48.48,0,0,0-.51-.37l-.05,0c0-.16-.09-.25-.22-.32s-.21-.1-.19.1v0a.74.74,0,0,0-.21,0,3.58,3.58,0,0,1-1.81,0,6,6,0,0,0-1.08-.3h0c0-.16-.1-.16-.22-.15h0l-.08-.07h-.06c-.22-.08-.32,0-.34.23h0c-.26,0-.38.1-.37.35h0c-.1,0-.16,0-.14.15l-.12.14c-.21,0-.26.11-.24.29h0c-.26,0-.24.18-.22.36h0c-.29.13-.2.48-.4.74a1.76,1.76,0,0,1,.16-.8.92.92,0,0,0-.1-1.16.47.47,0,0,1-.11-.26,2.62,2.62,0,0,1,.38-1.77c.06-.11.17-.21.12-.36l.06-.05a.1.1,0,0,0,.09-.09h0c.17,0,.3,0,.29-.22h0c.26,0,.51,0,.77-.06.47,0,.64-.16.69-.68,0,0,0,0,0,0s.18,0,.25,0a2.18,2.18,0,0,1,1.67-.28,10.94,10.94,0,0,0,2.42.33,2.78,2.78,0,0,1,1.77.53.32.32,0,0,0,.31.07h0a.1.1,0,0,0,.09.08l.13.12a.1.1,0,0,0,.08.09h0c0,.08,0,.15.09.1s0,0,0,0c0,.22,0,.42.31.45h0a8.24,8.24,0,0,0,.73,1.88,5.71,5.71,0,0,1,.41,5c-.09.21-.17.28-.38.2h0Z"/><path class="cls-10" d="M258.09,89.27l.08.06c.05.26.25.22.43.22h0c.06.25.25.22.43.22h0a.13.13,0,0,0,.14.08h0a.39.39,0,0,0,.27.15,5.45,5.45,0,0,0,2.6-.19.29.29,0,0,0,.21-.18h0a.5.5,0,0,0,.57-.29h0a.14.14,0,0,0,.15-.08h0c.13,0,.23,0,.21-.16a1,1,0,0,1,.34-.27l.1-.07h0l.07-.08h0c.16,0,.24,0,.18.24-.12.45-.22.92-.34,1.37,0,.12-.1.23,0,.33l-.18.58c-.19.09-.18.26-.17.43h0a.61.61,0,0,0-.14.5h0c-.08,0-.09.08,0,.14l0,.08c-.07,0-.09.07-.09.14h0c-.09,0-.07.13-.07.22h0a.15.15,0,0,0-.07.16.13.13,0,0,1,0,.06c-.19,0-.13.17-.13.29h0a.76.76,0,0,0-.29.64h0a.54.54,0,0,0-.19.3c-.21.61-.42,1.22-.64,1.84a.8.8,0,0,0,0,.31.13.13,0,0,1,0,.06.88.88,0,0,0-.21.65h0c-.22.14-.22.36-.22.58h0a5.33,5.33,0,0,0-.72,2h0c-.27.23-.18.63-.41.9,0,0-.07-.06-.07-.09-.37-1.33-.8-2.63-1.11-4,0-.2,0-.43-.22-.58v0c0-.09,0-.2-.1-.25l0-.15a.16.16,0,0,0,0-.28h0a6.47,6.47,0,0,0-.36-1.79h0a3.46,3.46,0,0,0,0-.46,28.9,28.9,0,0,1-.27-3.35c0-.23.1-.3.3-.29h0S258.06,89.31,258.09,89.27Z"/><path class="cls-8" d="M257.81,113.51l-4.45,0,.24-.19.07-.07,0,0s-.05,0-.08,0l-.07.07a1.48,1.48,0,0,1-.93.08,4.14,4.14,0,0,1,1.27-1.42,6.65,6.65,0,0,1,2.58-1.47,3.88,3.88,0,0,1,1.76,0,2.83,2.83,0,0,0,.5,0h.07l.68.05c.58,0,.61,0,.68.58a11.64,11.64,0,0,1,.2,2.36l-.2,0h-2.36Zm-4-.41,0,0,0,0s0,0,0,0Z"/><path class="cls-9" d="M278.47,84.17v.08a.54.54,0,0,1-.35.06c-.79,0-1.58,0-2.36,0-.26,0-.39,0-.38-.35,0-1,0-2,0-2.93,0-.29.05-.57.07-.86h0c.07,0,.06-.14.07-.22h0l.07-.15.57-.84a4.81,4.81,0,0,1,1.65.06l.05.06.09.15.05.07.16.24,0,.12.1.14h0c0,.08,0,.17.07.22h0c0,.08,0,.16.07.21h0Z"/><path class="cls-9" d="M270,84.25v-.14c0-.71,0-1.43,0-2.14v-.09a4.43,4.43,0,0,0,2.72,0c.13.16.06.34.07.51,0,.63,0,1.25,0,1.88Z"/><path class="cls-6" d="M275.23,96.44V95.33c0-.19.07-.26.25-.25h2.43c.19,0,.27.06.26.24s0,.48,0,.72a.39.39,0,0,0,.22.4Z"/><path class="cls-9" d="M252.64,113.5c.15.13.33,0,.48.14h-12.3v-.15h10.57c.34,0,.4-.08.37-.42-.09-.91-.12-1.83-.16-2.75q-.17-3-.31-6c-.1-2-.18-4.1-.3-6.15a27.26,27.26,0,0,1-.08-3c0,.21.07.42.08.64.06,1.27.1,2.55.17,3.82.1,2,.22,4,.33,6,.06,1.17.11,2.34.17,3.5l.21,4.15c0,.15.06.21.21.2h.43Z"/><path class="cls-19" d="M242.82,79.54a.13.13,0,0,0,0,.06V81a.13.13,0,0,0,0,.06h-7.31V79.53Zm-3.69.13h-2.65c-.9,0-.88,0-.91.89,0,.35.13.41.44.4h5.76c.92,0,.91,0,.92-.91,0-.29-.07-.4-.38-.39C241.25,79.68,240.19,79.67,239.13,79.67Z"/><path class="cls-9" d="M259.35,110.34c.52-.11,1-.2,1.56-.32,2.07-.48,4.1-1.1,6.18-1.5,1.2-.23,2.38-.59,3.6-.73a16.19,16.19,0,0,1,2,0,.14.14,0,0,1,.15.12c-.23,0-.46,0-.69,0a13.38,13.38,0,0,0-3.21.4c-2,.43-4,.87-6,1.38-1.13.29-2.26.59-3.41.78h-.17Z"/><path class="cls-14" d="M255.79,72.62c.05.15-.06.25-.12.36a2.62,2.62,0,0,0-.38,1.77.47.47,0,0,0,.11.26.92.92,0,0,1,.1,1.16,1.76,1.76,0,0,0-.16.8c.2-.26.11-.61.4-.74a5.54,5.54,0,0,0-.2,2.46c0,.15.09.33-.17.33s0-.28-.12-.4a5.1,5.1,0,0,1,.14-2.6h0l.09-.21h0c.06-.13.19-.27,0-.41v0l-.11-.1h0l-.15-.25v0h0l0-.1h0A2.58,2.58,0,0,1,255.79,72.62Zm-.42,4.91-.05,0s0,.06,0,.09,0,.13,0,.12S255.36,77.59,255.37,77.53Zm0,1a.2.2,0,0,0,0-.24A.25.25,0,0,0,255.4,78.53Z"/><path class="cls-14" d="M265.61,80.1c.21.08.29,0,.38-.2a5.71,5.71,0,0,0-.41-5,8.24,8.24,0,0,1-.73-1.88,5,5,0,0,1,.58,1.16h0l.3.75h0l.06.14v0l.13.27v0l.15.32v0l.11.23v0a5.19,5.19,0,0,1,.09,3.52s0,0,0,0l0,.1v0l-.11.22v0l-.14.35h0l-.1.22s0,0,0,0S265.7,80.23,265.61,80.1Z"/><path class="cls-9" d="M258.81,110.49h-.07a44,44,0,0,1,.19-5,21.3,21.3,0,0,1,.73-3.87,2.33,2.33,0,0,1,.14-.33l0,0c-.21.73-.38,1.46-.54,2.21a2.69,2.69,0,0,0-.06.63h0c-.09,0-.08.08,0,.13l0,0a2,2,0,0,0-.21,1.1c-.11,1.14-.19,2.27-.19,3.41C258.86,109.4,258.83,109.94,258.81,110.49Z"/><path class="cls-19" d="M245.34,83.94s0,0,0,0l0-.57h0a5.55,5.55,0,0,0,1.15.06c.76,0,1.52,0,2.28,0a1.33,1.33,0,0,1-.21.7c0-.06,0-.13,0-.18.15-.37,0-.42-.35-.41-.81,0-1.63.06-2.45,0-.09,0-.22,0-.28.09a.42.42,0,0,0,.06.34c.08.16.23.14.37.14h2.64v.07a.32.32,0,0,1-.23.06l-2.81,0h0A.18.18,0,0,0,245.34,83.94Z"/><path class="cls-9" d="M265.77,88.48a.17.17,0,0,1,.15.08c.08.78.17,1.56.24,2.34a11.92,11.92,0,0,1,0,2.07c0,.24-.12.35-.38.33a3.53,3.53,0,0,0-1,0L265,94a1.05,1.05,0,0,1-.39-.64c0-.14.09-.12.16-.11.32,0,.63-.11,1,0s.28-.12.28-.3c0-.69,0-1.38,0-2.07S265.86,89.26,265.77,88.48Z"/><path class="cls-14" d="M264.13,72.13a.32.32,0,0,1-.31-.07,2.78,2.78,0,0,0-1.77-.53,10.94,10.94,0,0,1-2.42-.33,2.18,2.18,0,0,0-1.67.28c-.07,0-.16.12-.25,0a2.14,2.14,0,0,1,2.07-.4c1,.23,2,.23,3,.39A2.7,2.7,0,0,1,264.13,72.13Z"/><path class="cls-9" d="M255.46,94.88a14,14,0,0,0,1.09,2.47c.59,1.15,1.1,2.32,1.74,3.44,0,0,0,0,0,.1a.68.68,0,0,1-.28-.35c-.85-1.73-1.77-3.43-2.52-5.2-.07-.16-.19-.32-.07-.51Z"/><path class="cls-9" d="M268.68,101c.41,2.27.81,4.54,1.22,6.8-.58-2.23-.89-4.52-1.32-6.78Z"/><path class="cls-9" d="M256.18,88.55l.15-.17.05.11a10.14,10.14,0,0,0-.93,2.9c-.09.49-.21,1-.33,1.46-.05.19,0,.27.2.3a11.91,11.91,0,0,0,1.2.14c0,.12-.07.16-.13.23l0,0c0-.16-.12-.12-.21-.13-.26,0-.52,0-.77-.08s-.44-.14-.35-.52A20.51,20.51,0,0,1,256.18,88.55Z"/><path class="cls-9" d="M258.51,95.85c.19.15.18.38.22.58.31,1.34.74,2.64,1.11,4,0,0,0,0,.07.09.23-.27.14-.67.41-.9a8.57,8.57,0,0,1-.4,1.37,15.28,15.28,0,0,1-.51-1.6c-.31-1-.6-2.1-.86-3.16C258.53,96.09,258.52,96,258.51,95.85Z"/><path class="cls-12" d="M241.34,96.36A1.75,1.75,0,0,1,241,95c.17,0,.35,0,.5.12,0,0-.07.06-.09,0-.33-.11-.39,0-.29.31,0,0,0,.09,0,.14.11.4.27.71.77.66a10.84,10.84,0,0,1,1.14,0c.57,0,.72-.13.75-.71,0-.25,0-.43-.35-.32a2.37,2.37,0,0,1-.6,0c-.09,0-.08-.06-.06-.12H243c.05.06.09.06.14,0l.78-.08a2.3,2.3,0,0,1-.27,1.28Z"/><path class="cls-9" d="M258,89.26c-.2,0-.31.06-.3.29A28.9,28.9,0,0,0,258,92.9a3.46,3.46,0,0,1,0,.46,5.13,5.13,0,0,1-.28-1.6c-.08-.92-.12-1.85-.18-2.78A1.08,1.08,0,0,1,258,89.26Z"/><path class="cls-9" d="M263.54,90.63c-.12-.1-.05-.21,0-.33.12-.45.22-.92.34-1.37.06-.2,0-.23-.18-.24l.42-.49c.06.15,0,.28-.05.41Z"/><path class="cls-9" d="M261.47,96.31a.8.8,0,0,1,0-.31c.22-.62.43-1.23.64-1.84a.54.54,0,0,1,.19-.3,6.47,6.47,0,0,1-.45,1.37A4,4,0,0,1,261.47,96.31Z"/><path class="cls-9" d="M264.8,96.26c.18-.37.34-.75.55-1.1a.54.54,0,0,0,0-.55l0,0a.43.43,0,0,1,.05.63c-.24.35-.35.78-.62,1.12Z"/><path class="cls-9" d="M260.32,99.6a5.33,5.33,0,0,1,.72-2A16.63,16.63,0,0,1,260.32,99.6Z"/><path class="cls-14" d="M257.67,71.53c-.05.52-.22.68-.69.68-.26,0-.51,0-.77.06a1,1,0,0,1,.89-.19c.2,0,.26,0,.32-.18A.77.77,0,0,1,257.67,71.53Z"/><path class="cls-9" d="M258,93.36a6.47,6.47,0,0,1,.36,1.79A5.29,5.29,0,0,1,258,93.36Z"/><path class="cls-9" d="M263.38,98.57l.71-1.21.09,0a6.54,6.54,0,0,1-.74,1.21Z"/><path class="cls-13" d="M252.64,113.5l-.14,0,.13-.14a1.48,1.48,0,0,0,.93-.08l0,0-.24.19Z"/><path class="cls-9" d="M263.44,98.62a3,3,0,0,1-.58.79l-.05,0a5.46,5.46,0,0,1,.57-.79Z"/><path class="cls-9" d="M264.85,96.31a1.4,1.4,0,0,1-.42.61,1.73,1.73,0,0,1,.37-.66Z"/><path class="cls-9" d="M260.57,102.5a1.26,1.26,0,0,1,.46-.59,1.65,1.65,0,0,1-.41.64Z"/><path class="cls-9" d="M262.33,93.86a.76.76,0,0,1,.29-.64A1.21,1.21,0,0,1,262.33,93.86Z"/><path class="cls-9" d="M259.64,103.79a1,1,0,0,1,.39-.52,1.08,1.08,0,0,1-.35.56S259.66,103.8,259.64,103.79Z"/><path class="cls-9" d="M260.07,103.23a.5.5,0,0,1,.28-.4A.53.53,0,0,1,260.07,103.23Z"/><path class="cls-14" d="M264.85,73c-.28,0-.31-.23-.31-.45A1.39,1.39,0,0,1,264.85,73Z"/><path class="cls-9" d="M261.25,97a.88.88,0,0,1,.21-.65A.93.93,0,0,1,261.25,97Z"/><path class="cls-9" d="M262.29,100.13a.83.83,0,0,1,.28-.43l.06,0a1.42,1.42,0,0,1-.29.43S262.31,100.15,262.29,100.13Z"/><path class="cls-9" d="M261,97.59c0-.22,0-.44.22-.58A1.21,1.21,0,0,1,261,97.59Z"/><path class="cls-6" d="M240.81,113.49v.15a.49.49,0,0,1,.06.29c-.14-.11-.15-.28-.2-.44Z"/><path class="cls-9" d="M262.86,99.41a.79.79,0,0,1-.23.34l-.06,0a.76.76,0,0,1,.24-.34Z"/><path class="cls-14" d="M256.22,72.27c0,.21-.12.24-.29.22A.5.5,0,0,1,256.22,72.27Z"/><path class="cls-9" d="M264.38,97a.27.27,0,0,1-.16.28A.27.27,0,0,1,264.38,97Z"/><path class="cls-9" d="M261.28,101.63a.36.36,0,0,1-.23.27c0-.17.1-.23.18-.32Z"/><path class="cls-9" d="M261.23,101.58a.68.68,0,0,1,.22-.29l.05.06a.44.44,0,0,1-.22.28Z"/><path class="cls-9" d="M263.19,91.64c0-.17,0-.34.17-.43C263.32,91.36,263.34,91.53,263.19,91.64Z"/><path class="cls-9" d="M263.05,92.14a.61.61,0,0,1,.14-.5A.73.73,0,0,1,263.05,92.14Z"/><path class="cls-9" d="M261.93,100.77a.51.51,0,0,1-.21.29l-.06,0a.63.63,0,0,1,.22-.29Z"/><path class="cls-9" d="M265.38,94.61a.36.36,0,0,1-.17-.32c.14,0,.17.16.21.27Z"/><path class="cls-9" d="M259.44,104a.41.41,0,0,1,.2-.23s0,0,0,0a.36.36,0,0,1-.19.23Z"/><path class="cls-9" d="M260.62,102.55c0,.08-.07.19-.21.19s.07-.19.16-.24Z"/><path class="cls-9" d="M259.49,104.06a.63.63,0,0,1-.23.28l0,0v-.13h0l.2-.16Z"/><path class="cls-9" d="M262.62,93.22c0-.12-.06-.27.13-.29A.41.41,0,0,1,262.62,93.22Z"/><path class="cls-9" d="M258.58,101.4a.25.25,0,0,1-.11-.23c.11,0,.13.1.16.18Z"/><path class="cls-9" d="M256.1,93.94a.37.37,0,0,1-.14.22l-.05,0a.31.31,0,0,1,.14-.21Z"/><path class="cls-9" d="M259,102l-.15-.21.06,0a.33.33,0,0,1,.14.21Z"/><path class="cls-9" d="M255.83,94.32a.31.31,0,0,1-.14.21l-.05,0a.37.37,0,0,1,.15-.22Z"/><path class="cls-9" d="M258.86,101.83c-.05-.07-.17-.14-.07-.21s.1.09.13.16Z"/><path class="cls-9" d="M255.41,94.83a.34.34,0,0,1,.14-.21l0,0-.14.22Z"/><path class="cls-9" d="M262.34,100.18l-.14.22s0,0-.05-.05a.33.33,0,0,1,.14-.22S262.33,100.16,262.34,100.18Z"/><path class="cls-9" d="M262,100.56a.3.3,0,0,1,.15-.21s0,0,.05.05l-.15.21Z"/><path class="cls-9" d="M261.88,100.72l.12-.16.05,0-.12.16Z"/><path class="cls-9" d="M258.63,101.35c.05,0,.14.1.08.15s-.1,0-.13-.1Z"/><path class="cls-9" d="M259.27,102.31l0,0-.05-.08s0,0,.06,0Z"/><path class="cls-9" d="M258.38,95.15a.16.16,0,0,1,0,.28Z"/><path class="cls-9" d="M256.14,93.77c0-.06.07-.14.11-.11s0,.11-.06.16Z"/><path class="cls-9" d="M259.06,102c.05.05.14.11.07.16s-.09-.05-.12-.11Z"/><path class="cls-9" d="M255.79,94.27l.12-.16.05,0a.23.23,0,0,1-.13.16Z"/><path class="cls-9" d="M261.45,101.29a.18.18,0,0,1,.12-.15l.05,0a.27.27,0,0,1-.12.17Z"/><path class="cls-9" d="M258.32,101l.05,0a.24.24,0,0,1,.06.08s0,.08-.05,0S258.34,101,258.32,101Z"/><path class="cls-9" d="M265.18,94.14l0,.07s-.06,0-.07,0,0,0,0-.08Z"/><path class="cls-9" d="M258.42,95.58c.13,0,.1.16.1.25C258.43,95.77,258.45,95.67,258.42,95.58Z"/><path class="cls-9" d="M262.83,92.72c0-.09,0-.17.07-.22A.19.19,0,0,1,262.83,92.72Z"/><path class="cls-9" d="M255.55,94.62l.09-.13.05,0-.09.13Z"/><path class="cls-9" d="M261.72,101.06l-.1.12-.05,0,.09-.13Z"/><path class="cls-9" d="M263,92.28c-.07-.06-.06-.1,0-.14Z"/><path class="cls-9" d="M262.76,92.87a.15.15,0,0,1,.07-.16A.14.14,0,0,1,262.76,92.87Z"/><path class="cls-9" d="M262.9,92.5c0-.07,0-.12.09-.14S263,92.48,262.9,92.5Z"/><path class="cls-14" d="M264.51,72.51c-.11,0-.1,0-.09-.1Z"/><path class="cls-9" d="M256.19,93.82l-.09.12-.05,0,.09-.13Z"/><path class="cls-9" d="M256.39,93.52l-.06,0,0-.07Z"/><path class="cls-14" d="M264.21,72.21a.1.1,0,0,1-.09-.08Z"/><path class="cls-14" d="M264.42,72.42a.1.1,0,0,1-.08-.09Z"/><path class="cls-14" d="M255.94,72.48a.1.1,0,0,1-.09.09Z"/><path class="cls-9" d="M259.8,101.29l.07,0,0,.08Z"/><path class="cls-18" d="M244.91,117.44c3.22,0,6.45,0,9.67,0,4.49-.05,9-.05,13.47-.06h.43c-.07.23-.26.12-.39.12H245.32C245.18,117.51,245,117.56,244.91,117.44Z"/><path class="cls-11" d="M222.74,81.75a3.86,3.86,0,0,1-.72,1.82c-.19.27-.28.24-.41-.06s-.21-.5-.31-.75c.24,0,.19.23.27.36s.09.37.27.38.25-.22.31-.36c.17-.39.3-.79.44-1.19C222.63,81.86,222.61,81.76,222.74,81.75Z"/><path class="cls-11" d="M219.11,82.76a2.78,2.78,0,0,0,.22,2.91.14.14,0,0,1-.16,0,2.82,2.82,0,0,1-.31-2.61C218.91,82.9,218.93,82.74,219.11,82.76Z"/><path class="cls-11" d="M220.88,82.26a1.29,1.29,0,0,0-1.53.23s0,0,0-.07a1.15,1.15,0,0,1,1.54-.23S220.88,82.24,220.88,82.26Z"/><path class="cls-11" d="M219.53,86l.72.73A1,1,0,0,1,219.53,86Z"/><path class="cls-11" d="M223.41,81.25a2.31,2.31,0,0,1-.66.44A.64.64,0,0,1,223.41,81.25Z"/><path class="cls-11" d="M220.54,86.89a1.6,1.6,0,0,1,.51.33A.45.45,0,0,1,220.54,86.89Z"/><path class="cls-11" d="M223.77,80.82a.84.84,0,0,1-.3.37C223.46,81,223.53,80.83,223.77,80.82Z"/><path class="cls-11" d="M219.83,93.94a1.19,1.19,0,0,1-.23.43C219.59,94.18,219.57,94,219.83,93.94Z"/><path class="cls-11" d="M219.32,85.67l.22.3C219.33,86,219.29,85.84,219.32,85.67Z"/><path class="cls-11" d="M219.34,82.5l-.23.27C219.09,82.6,219.09,82.44,219.34,82.5Z"/><path class="cls-11" d="M221.1,82.47l-.23-.21C221.05,82.22,221.12,82.3,221.1,82.47Z"/><path class="cls-11" d="M220.32,86.76a.25.25,0,0,1,.22.13C220.43,86.92,220.32,86.92,220.32,86.76Z"/><path class="cls-11" d="M221.31,82.76l-.15-.22C221.32,82.53,221.32,82.64,221.31,82.76Z"/><path class="cls-11" d="M220.24,86.68l.08.08Z"/><path class="cls-11" d="M223.83,80.74l-.07.09Z"/><path class="cls-13" d="M239.1,114.2s0,.11,0,.14a3.53,3.53,0,0,1,.1,2.67c-.17.82-.19.81-1,.93s-1.75.33-2.64.38c0-1.1.1-2.2.13-3.3,0-.68.11-1.35.15-2a4.88,4.88,0,0,1,2.56.7l.09.08h0a.15.15,0,0,0,.15.07h0l.08.08h0c0,.07.08.07.15.08l.06,0a.12.12,0,0,0,.14.1Z"/><path class="cls-10" d="M241.48,117.21c0,.1,0,.22-.17.22a15.7,15.7,0,0,1-2.06-.06,13.45,13.45,0,0,0,.28-1.92,2.21,2.21,0,0,0-.38-1.24,4,4,0,0,1,.45-.73l.36,0,.08.06h0c0,.06,0,.12.07.15h0c0,.08,0,.17.08.21h0c0,.07,0,.13.07.15h0c0,.09,0,.18.08.22h0c0,.14,0,.3.15.36h0c0,.22,0,.45.23.57,0,.09,0,.17.06.23s0,.12.08.13-.05.3.14.36c0,.15-.05.3.15.36,0,.15-.05.3.14.37h0c0,.09,0,.18.08.22h0c0,.14,0,.3.16.36Z"/><path class="cls-13" d="M239.3,109.22a7.16,7.16,0,0,0-.35-2.69C239.4,106.81,239.44,108.21,239.3,109.22Z"/><path class="cls-14" d="M237.07,108.68l.53-1.19c.07.55-.27.87-.47,1.24Z"/><path class="cls-17" d="M240,113.5l-.36,0,.29-.48.13.49Z"/><path class="cls-14" d="M236.86,109a.82.82,0,0,1,.21-.36l.06,0-.21.36Z"/><path class="cls-12" d="M239,114.14a.12.12,0,0,1-.14-.1Z"/><path class="cls-12" d="M238.82,114c-.07,0-.13,0-.15-.08Z"/><path class="cls-12" d="M238.6,113.85a.15.15,0,0,1-.15-.07A.18.18,0,0,1,238.6,113.85Z"/><path class="cls-12" d="M238.46,113.78l-.09-.08Z"/><path class="cls-12" d="M238.67,113.93l-.08-.08Z"/><path class="cls-10" d="M258,113.51h2.22a8.38,8.38,0,0,1-1.66,0A.84.84,0,0,1,258,113.51Z"/><path class="cls-16" d="M242.11,117.44c-.09.33-.25.24-.43.08a2.05,2.05,0,0,0-.48-1.12v0a.23.23,0,0,0,0-.23c-.16-.42-.32-.84-.49-1.25,0-.05-.09-.07-.14-.1h0c.07-.35-.16-.61-.26-.91a1.27,1.27,0,0,1,0-.92,6.2,6.2,0,0,1,.45,1c.05.09,0,.22.19.23h0c0,.22,0,.45.23.57h0c0,.15,0,.3.13.38s0,0,0,0,0,.26.15.31h0c0,.09,0,.18.09.22h0a.72.72,0,0,0,.29.72h0c0,.15-.06.3.14.36h0c0,.22,0,.45.22.57h0Z"/><path class="cls-6" d="M240.69,115.2c-.24-.12-.22-.35-.23-.57l.12.17h0l.12.4Z"/><path class="cls-6" d="M240.87,113.93a.42.42,0,0,1,.15.44h0l-.12-.17h0Z"/><path class="cls-6" d="M240.47,114.64c-.18-.06-.15-.22-.15-.36A.58.58,0,0,1,240.47,114.64Z"/><path class="cls-16" d="M240.07,113.05s0,0,0,0a.09.09,0,0,1,0,.05s0,0,0-.05S240.06,113.07,240.07,113.05Z"/><path class="cls-6" d="M240.33,114.28c-.11,0-.08-.13-.08-.22C240.33,114.12,240.32,114.2,240.33,114.28Z"/><path class="cls-6" d="M240.18,113.92c-.1,0-.08-.13-.08-.21A.2.2,0,0,1,240.18,113.92Z"/><path class="cls-6" d="M240.25,114.07c-.07,0-.08-.08-.07-.15S240.24,114,240.25,114.07Z"/><path class="cls-6" d="M240.11,113.71c-.08,0-.08-.09-.07-.15S240.1,113.65,240.11,113.71Z"/><path class="cls-6" d="M240,113.5H240l0,.07Z"/><path class="cls-6" d="M241.6,115.86A1.82,1.82,0,0,1,242,117h0l-.11-.17h0a.67.67,0,0,0-.14-.36h0c-.05-.18-.11-.37-.17-.55Z"/><path class="cls-6" d="M241.38,115.3c.23.12.21.35.22.56h0l-.12-.17h0c0-.08,0-.16-.09-.22h0l0-.2Z"/><path class="cls-6" d="M241.26,115.19s0,0,0,0v-.21h0c.18.08.16.22.14.37h0Z"/><path class="cls-6" d="M241.1,114.5a.46.46,0,0,1,.14.43h0l-.12-.17h0l-.07-.24Z"/><path class="cls-6" d="M241,114.37c.07,0,.08.07.08.13l0,0,0-.16Z"/><path class="cls-6" d="M241.26,116.65c-.19-.07-.16-.22-.14-.37h0l.08.1v0Z"/><path class="cls-6" d="M241.48,117.22c-.19-.06-.16-.22-.16-.36A.52.52,0,0,1,241.48,117.22Z"/><path class="cls-6" d="M241.33,116.86c-.1,0-.08-.13-.08-.22A.24.24,0,0,1,241.33,116.86Z"/><path class="cls-15" d="M242.11,117.44l0-.09,0,.09h-.06Z"/><path class="cls-15" d="M241.91,116.78l.11.17c0,.13.07.27.11.4C241.87,117.23,241.91,117,241.91,116.78Z"/><path class="cls-4" d="M242.82,79.54h-7.31c0-.91,0-1.81,0-2.72,0-.26,0-.38.35-.37,2.22,0,4.43,0,6.65,0,.27,0,.35,0,.33.36C242.79,77.71,242.82,78.63,242.82,79.54Z"/><path class="cls-4" d="M248.7,83.35c-.76,0-1.52,0-2.28,0a5.55,5.55,0,0,1-1.15-.06V81.06a23,23,0,0,0,3.42-.07Z"/><path class="cls-20" d="M245.34,80.1a1.37,1.37,0,0,1,.54-.65,1.62,1.62,0,0,1,.92-.14,6.14,6.14,0,0,0,1,0,1.77,1.77,0,0,1,.77,1.08c-.05.29-.11.56-.5.56-.84,0-1.68,0-2.52,0-.16,0-.19-.09-.2-.22S245.47,80.3,245.34,80.1Z"/><path class="cls-19" d="M247.85,79.31a6.14,6.14,0,0,1-1,0,1.62,1.62,0,0,0-.92.14c.29-.22.17-.53.16-.79s.08-.41.38-.38.81,0,1.21,0c.18,0,.24.06.23.22S247.86,79,247.85,79.31Z"/><path class="cls-19" d="M245.34,80.1c.13.2,0,.42.06.63s0,.23.2.22c.84,0,1.68,0,2.52,0,.39,0,.45-.27.5-.56l0,.21a0,0,0,0,1,0,0,.17.17,0,0,1,0,0l0,.32a23,23,0,0,1-3.42.07A2.59,2.59,0,0,1,245.34,80.1Z"/><path class="cls-4" d="M255.39,76a5.1,5.1,0,0,0-.14,2.6s0,0,0,.06,0,.09-.06,0a4.46,4.46,0,0,1-.14-1.54,3.26,3.26,0,0,1,.18-.94C255.26,76.13,255.28,76,255.39,76Z"/><path class="cls-4" d="M242.83,81V79.6A3.24,3.24,0,0,1,242.83,81Z"/><path class="cls-4" d="M245.27,83.32l0,.57C245.11,83.71,245.16,83.52,245.27,83.32Z"/><path class="cls-4" d="M255.49,75.41c.17.14,0,.28,0,.41A.53.53,0,0,1,255.49,75.41Z"/><path class="cls-4" d="M255.23,75l.15.25C255.21,75.28,255.23,75.16,255.23,75Z"/><path class="cls-4" d="M255.48,75.82l-.09.21C255.38,75.94,255.34,75.84,255.48,75.82Z"/><path class="cls-4" d="M245.34,83.94a.18.18,0,0,1,.07.2A.25.25,0,0,1,245.34,83.94Z"/><path class="cls-4" d="M255.37,75.29l.11.1C255.39,75.42,255.38,75.35,255.37,75.29Z"/><path class="cls-4" d="M255.2,74.91l0,.1A.08.08,0,0,1,255.2,74.91Z"/><path class="cls-20" d="M248.67,80.67a.17.17,0,0,0,0,0,0,0,0,0,0,0,0Z"/><path class="cls-6" d="M234.8,95.64c-.21,0-.43,0-.46-.27a3.24,3.24,0,0,1-.07-1.12,7,7,0,0,0-.05-1.21c0-.74.06-1.49,0-2.23-.07-1,.33-1.15,1.15-1.17s1.71,0,2.57,0c.25,0,.48-.13.74,0,.46.14.57.26.58.74,0,1,0,2.08,0,3.11a5.73,5.73,0,0,1-.12,1.24.43.43,0,0,0,0,.25.52.52,0,0,1-.4.77c-.1-.07-.19-.1-.15-.29.08-.43,0-.87.08-1.32s-.26-.77,0-1.19a.66.66,0,0,0-.12-.51.23.23,0,0,1,0-.26.93.93,0,0,0,.09-.76,2,2,0,0,1,0-.74c.11-.7.11-.71-.59-.79-.44,0-.58.07-.56.51a11.5,11.5,0,0,1,0,1.44,8.64,8.64,0,0,0,0,1,2.56,2.56,0,0,1,0,1.23c0,.12,0,.28.11.4s.12.14.06.19c-.34.31-.13.72-.18,1.08h-1.59v-.14c.25-.13.15-.36.11-.53s-.13-.41,0-.64a.54.54,0,0,0,0-.45c-.12-.28-.3-.48,0-.82a.72.72,0,0,0-.13-.88c-.07-.06,0-.13,0-.19s.16-.41.14-.63a4.09,4.09,0,0,1,0-.7c.06-.72-.06-.83-.77-.82h0c-.33,0-.47.11-.47.45a4.3,4.3,0,0,1,0,1.34.38.38,0,0,0,.13.48c.07,0,0,.11,0,.18a.64.64,0,0,0,.11.9c.1.1.2.23,0,.33a.62.62,0,0,0-.28.53.64.64,0,0,0,.37.64c-.38,0-.37.16-.36.34Z"/><path class="cls-4" d="M243.89,95.09l-.78.08h-.36l-1.28,0c-.15-.13-.33-.09-.5-.12,0-.72,0-1.44,0-2.17a10.65,10.65,0,0,0,2.93,0Z"/><path class="cls-10" d="M234.8,95.64v-.53c0-.18,0-.36.36-.34a.64.64,0,0,1-.37-.64.62.62,0,0,1,.28-.53c.16-.1.06-.23,0-.33a.64.64,0,0,1-.11-.9c.05-.07.09-.13,0-.18a.38.38,0,0,1-.13-.48,4.3,4.3,0,0,0,0-1.34c0-.34.14-.48.47-.45h0c.71,0,.83.1.77.82a4.09,4.09,0,0,0,0,.7c0,.22.06.46-.14.63s-.08.13,0,.19a.72.72,0,0,1,.13.88c-.29.34-.11.54,0,.82a.54.54,0,0,1,0,.45c-.14.23-.05.42,0,.64s.14.4-.11.53c0-.17.05-.35-.06-.5s-.47-.14-.7-.12-.08.24-.1.36,0,.22,0,.32h-.29Zm.66-3.64c.23,0,.44,0,.41-.3s-.09-.41-.53-.42-.23.22-.26.4S235.22,92,235.46,92Zm0,.5c-.23,0-.42,0-.42.3s.13.38.4.36.41,0,.41-.32S235.76,92.45,235.49,92.5ZM235.4,91c.25,0,.48.07.48-.29s-.14-.38-.41-.37-.41,0-.4.32S235.19,91,235.4,91Zm.12,2.86c-.22,0-.43,0-.42.27s.15.39.45.38.32-.11.32-.35S235.75,93.81,235.52,93.86Z"/><path class="cls-10" d="M237.53,95.72c.05-.36-.16-.77.18-1.08.06,0,0-.13-.06-.19s-.16-.28-.11-.4a2.56,2.56,0,0,0,0-1.23,8.64,8.64,0,0,1,0-1,11.5,11.5,0,0,0,0-1.44c0-.44.12-.56.56-.51.7.08.7.09.59.79a2,2,0,0,0,0,.74.93.93,0,0,1-.09.76.23.23,0,0,0,0,.26.66.66,0,0,1,.12.51c-.24.42.1.81,0,1.19s0,.89-.08,1.32c0,.19.05.22.15.29Zm.55-4.42c-.06,0-.3-.16-.33.13,0,.45.06.56.4.57s.4,0,.39-.32S238.48,91.21,238.08,91.3Zm.15-1.18c-.25,0-.49-.06-.49.27s.1.43.48.46.29-.17.31-.38S238.44,90.08,238.23,90.12Zm-.1,4.23c.26.05.39,0,.4-.32,0-.53-.39-.27-.6-.36s-.2.1-.2.24S237.75,94.44,238.13,94.35Zm0,1.15c.26,0,.39,0,.39-.34s-.16-.3-.37-.3-.43,0-.43.34S237.9,95.52,238.14,95.5Zm0-2.37c.27.08.34,0,.36-.32s-.27-.34-.49-.38-.24.16-.26.34S237.85,93.21,238.18,93.13Z"/><path class="cls-13" d="M243.63,92.06l.06.06a1.52,1.52,0,0,0,0,.21c.09.41.06.4-.36.47a11.22,11.22,0,0,1-1.74,0c-.52,0-.52,0-.52-.52h0l.07-.09.14-.13a.3.3,0,0,0,.29-.22h0a1.24,1.24,0,0,1,.68-.15h1l.07.08h0a.13.13,0,0,0,.15.15h0C243.47,92,243.53,92.07,243.63,92.06Z"/><path class="cls-19" d="M241.69,91.63a1.87,1.87,0,0,1-.08-.93c0-.08.12-.07.19-.07.39,0,.78,0,1.17,0,.17,0,.24.06.22.23a2.56,2.56,0,0,1,0,.73Z"/><path class="cls-12" d="M241.1,92.27c0,.51,0,.52.52.52a11.22,11.22,0,0,0,1.74,0c.42-.07.45-.06.36-.47a1.52,1.52,0,0,1,0-.21c.26.18.14.47.2.71a10.65,10.65,0,0,1-2.93,0C241,92.66,240.87,92.42,241.1,92.27Z"/><path class="cls-12" d="M241.69,91.63l1.47,0,.1.11h-1a1.24,1.24,0,0,0-.68.15C241.55,91.74,241.67,91.71,241.69,91.63Z"/><path class="cls-9" d="M234.94,95.65h.36c.55,0,.55,0,.58-.53v0c.11.15,0,.33.06.5v.14A2.41,2.41,0,0,1,234.94,95.65Z"/><path class="cls-12" d="M241.6,91.84a.3.3,0,0,1-.29.22C241.4,92,241.45,91.84,241.6,91.84Z"/><path class="cls-12" d="M243.48,91.92a.13.13,0,0,1-.15-.15Z"/><path class="cls-12" d="M243.63,92.06c-.1,0-.16,0-.16-.15Z"/><path class="cls-12" d="M241.17,92.19l-.07.09Z"/><path class="cls-12" d="M243.33,91.78l-.07-.08Z"/><path class="cls-4" d="M272.71,81.87a4.43,4.43,0,0,1-2.72,0c0-.81,0-1.63,0-2.45.85,0,1.7,0,2.55,0,.1,0,.19,0,.18.19C272.71,80.37,272.72,81.12,272.71,81.87Z"/><path class="cls-9" d="M270,79.33a6.83,6.83,0,0,1,.05-1.75l2.45,0c0,.12.14.16.13.28v1.25c0,.13-.07.17-.2.19A10.4,10.4,0,0,1,270,79.33Z"/><path class="cls-4" d="M277.81,79a4.81,4.81,0,0,0-1.65-.06c0-.26,0-.52,0-.78s.08-.33.33-.32c.42,0,.84,0,1.26,0,.11,0,.23.06.16.16C277.72,78.37,277.85,78.7,277.81,79Z"/><path class="cls-4" d="M266.29,79.46a5.19,5.19,0,0,0-.09-3.52.14.14,0,0,1,.13.1,4.81,4.81,0,0,1,.14,3.26C266.44,79.38,266.44,79.51,266.29,79.46Z"/><path class="cls-4" d="M278.47,84.17l0-3.93a4.32,4.32,0,0,1,.13,1.75c-.07.6,0,1.21-.06,1.81C278.52,83.92,278.57,84.06,278.47,84.17Z"/><path class="cls-19" d="M270,79.33a10.4,10.4,0,0,0,2.43,0c.13,0,.2-.06.2-.19V77.88c0-.12-.13-.16-.13-.28h.12a7.58,7.58,0,0,1,.07,1.72c0,.08-.11.07-.16.12-.85,0-1.7,0-2.55,0Z"/><path class="cls-4" d="M272.64,77.59h-.12l-2.45,0c.11-.11.25-.06.38-.06h1.86C272.42,77.52,272.55,77.48,272.64,77.59Z"/><path class="cls-4" d="M270,82c0,.71,0,1.43,0,2.14a1.17,1.17,0,0,1-.06-.69A6.4,6.4,0,0,1,270,82Z"/><path class="cls-4" d="M265.73,74.89l-.3-.75C265.75,74.3,265.76,74.59,265.73,74.89Z"/><path class="cls-4" d="M266,80.22l.14-.35C266.2,80,266.24,80.17,266,80.22Z"/><path class="cls-4" d="M266.09,75.67l-.15-.32C266.21,75.35,266.11,75.53,266.09,75.67Z"/><path class="cls-4" d="M265.93,75.32l-.13-.27C266,75.05,266,75.17,265.93,75.32Z"/><path class="cls-4" d="M278.16,79.55l-.16-.24C278.18,79.31,278.17,79.43,278.16,79.55Z"/><path class="cls-4" d="M278.38,80c-.08,0-.07-.14-.07-.22S278.38,80,278.38,80Z"/><path class="cls-4" d="M275.52,80c0,.08,0,.17-.07.22S275.43,80,275.52,80Z"/><path class="cls-4" d="M278.45,80.24c-.09,0-.07-.13-.07-.21S278.45,80.16,278.45,80.24Z"/><path class="cls-4" d="M265.93,80.44l.1-.22C266.05,80.32,266.06,80.41,265.93,80.44Z"/><path class="cls-4" d="M266.15,79.84l.11-.22C266.25,79.7,266.31,79.83,266.15,79.84Z"/><path class="cls-4" d="M266.19,75.92l-.11-.23C266.24,75.71,266.18,75.83,266.19,75.92Z"/><path class="cls-4" d="M278.31,79.81l-.1-.14A.13.13,0,0,1,278.31,79.81Z"/><path class="cls-4" d="M275.59,79.81l-.07.15A.15.15,0,0,1,275.59,79.81Z"/><path class="cls-4" d="M278,79.24l-.09-.15C277.93,79.11,278,79.17,278,79.24Z"/><path class="cls-4" d="M265.79,75l-.06-.14C265.83,74.9,265.83,75,265.79,75Z"/><path class="cls-4" d="M266.26,79.6l0-.1S266.3,79.57,266.26,79.6Z"/><path class="cls-13" d="M258.08,87.12a5.35,5.35,0,0,0,2.13-.2,9,9,0,0,0,1.8-1,3.75,3.75,0,0,1-1.8,1.76A2,2,0,0,1,258.08,87.12Z"/><path class="cls-14" d="M259.85,78.16a1.16,1.16,0,0,1,1.11-.28,1.5,1.5,0,0,1,1.21.71,4.47,4.47,0,0,0-2.56-.2c.07-.11.09-.22.24-.23a.34.34,0,0,0,.3.07,3.34,3.34,0,0,1,1.6.08l0,0,0,0a1,1,0,0,0-.4-.21A2,2,0,0,0,259.85,78.16Z"/><path class="cls-14" d="M261.81,76a1.38,1.38,0,0,1,1.4,1.16c.25.82.36,1.67.61,2.48.06.17.1.3.3.23-.05.1-.05.27-.19.25s-.14-.18-.18-.29a20.44,20.44,0,0,1-.56-2.34c-.15-.66-.39-1.21-1.14-1.35A.32.32,0,0,1,261.81,76Z"/><path class="cls-14" d="M255.7,78.48a.8.8,0,0,1,.6-.38,5.76,5.76,0,0,1,1.1-.08.46.46,0,0,1,.3.09c.07,0,.13.11.1.21s-.12.05-.19.05Zm1.82-.28a2.65,2.65,0,0,0-1.28.08A3.44,3.44,0,0,0,257.52,78.2Z"/><path class="cls-7" d="M258.61,82.31a4,4,0,0,1-.19-2.81A6.68,6.68,0,0,0,258.61,82.31Z"/><path class="cls-14" d="M257.51,75a6,6,0,0,1,1.08.3,3.58,3.58,0,0,0,1.81,0,.74.74,0,0,1,.21,0,2.13,2.13,0,0,1-1.5.24A3.37,3.37,0,0,1,257.51,75Z"/><path class="cls-9" d="M262.25,89.62a.29.29,0,0,1-.21.18,5.45,5.45,0,0,1-2.6.19.39.39,0,0,1-.27-.15c.35,0,.7.11,1.06.14A7.33,7.33,0,0,0,262.25,89.62Z"/><path class="cls-14" d="M256.51,80c0-.22.06-.5.33-.48s.32.32.31.55-.06.5-.31.48S256.55,80.25,256.51,80Zm.15,0c0,.15,0,.39.17.41s.19-.2.19-.35,0-.37-.21-.38S256.67,79.87,256.66,80Z"/><path class="cls-14" d="M260.83,79.51a.61.61,0,0,1,.05.8c-.12.22-.32.2-.43,0a.73.73,0,0,1,0-.74c.11-.18.25-.26.41,0-.36,0-.46.27-.32.63,0,.08,0,.17.16.16s.1-.08.14-.14S260.81,79.73,260.83,79.51Z"/><path class="cls-11" d="M257.92,83.74a5.17,5.17,0,0,0,2.24-.18C259.45,84.06,258.67,83.79,257.92,83.74Z"/><path class="cls-14" d="M264.19,79.82a.55.55,0,0,1,.93-.08A1,1,0,0,0,264.19,79.82Z"/><path class="cls-14" d="M261.08,75.52a.48.48,0,0,1,.51.37A2.29,2.29,0,0,1,261.08,75.52Z"/><path class="cls-14" d="M260.62,75.25c0-.2.09-.15.19-.1s.24.16.22.32C260.89,75.41,260.82,75.2,260.62,75.25Z"/><path class="cls-9" d="M262.82,89.33a.5.5,0,0,1-.57.29A2.35,2.35,0,0,1,262.82,89.33Z"/><path class="cls-14" d="M256.45,75.3c0-.25.11-.37.37-.35Z"/><path class="cls-14" d="M256.82,75c0-.21.12-.31.34-.23Z"/><path class="cls-9" d="M258.6,89.55c-.18,0-.38,0-.43-.22Z"/><path class="cls-9" d="M259,89.77c-.18,0-.37,0-.43-.22A1.46,1.46,0,0,1,259,89.77Z"/><path class="cls-14" d="M255.74,76.24c0-.18,0-.36.22-.36Z"/><path class="cls-14" d="M256,75.88c0-.18,0-.3.24-.29Z"/><path class="cls-9" d="M263.17,89.1c0,.16-.08.18-.21.16A.36.36,0,0,1,263.17,89.1Z"/><path class="cls-14" d="M257.29,74.8c.12,0,.23,0,.22.15A.42.42,0,0,1,257.29,74.8Z"/><path class="cls-14" d="M261.59,75.88c.12,0,.23,0,.22.15A.34.34,0,0,1,261.59,75.88Z"/><path class="cls-14" d="M256.31,75.45c0-.11,0-.16.14-.15Z"/><path class="cls-14" d="M265.15,79.74c.07,0,.15,0,.18.08A.17.17,0,0,1,265.15,79.74Z"/><path class="cls-13" d="M262.17,85.75s.07-.08.1,0,0,.06-.07.07Z"/><path class="cls-9" d="M263,89.26a.14.14,0,0,1-.15.08A.14.14,0,0,1,263,89.26Z"/><path class="cls-9" d="M259.17,89.84a.13.13,0,0,1-.14-.08C259.09,89.76,259.15,89.77,259.17,89.84Z"/><path class="cls-14" d="M257.22,74.73l.08.07Z"/><path class="cls-9" d="M258.09,89.27s0,0-.06,0Z"/><path class="cls-9" d="M263.61,88.76l-.1.07Z"/><path class="cls-9" d="M263.68,88.69l-.07.08Z"/><path class="cls-13" d="M262.2,85.78s0,.06-.07,0l0,0Z"/><path class="cls-14" d="M265.54,80l.08.08Z"/><path class="cls-14" d="M265.4,79.88l.07.08Z"/><path class="cls-14" d="M265.32,79.81l.08.08S265.32,79.87,265.32,79.81Z"/><path class="cls-14" d="M264.12,79.89l.08-.08Z"/><path class="cls-9" d="M276.73,92.42c.41,0,.81,0,1.22,0,.18,0,.22,0,.22.21,0,.71,0,1.41,0,2.11,0,.21-.07.27-.26.27-.78,0-1.55,0-2.33,0-.21,0-.29,0-.29-.28q0-1,0-2.07c0-.17,0-.25.23-.24.4,0,.81,0,1.21,0Z"/><path class="cls-6" d="M277.59,91.06c.34.26.42.68.61,1,.08.14,0,.19-.16.19H275.5c-.16,0-.23-.06-.16-.22A3.4,3.4,0,0,1,276,91l.06,0,.09,0h.26Z"/><path class="cls-9" d="M277.59,91.06l-1.16,0a1.3,1.3,0,0,1-.38-.66s0,0,0,0v-.17h1.55Z"/><path class="cls-19" d="M277.58,90.19H276s.05-.07.07-.07A6.68,6.68,0,0,1,277.58,90.19Z"/><path class="cls-19" d="M276,90.36s0,0,0,0a1.3,1.3,0,0,0,.38.66h-.26l-.09,0L276,91Z"/><path class="cls-13" d="M253.67,113.23l-.07.07,0,0,.07-.07Z"/><path class="cls-13" d="M253.63,113.19s.05,0,.08,0l0,0Z"/><path class="cls-13" d="M253.85,113.1l0,0s0,0,0,0l0,0Z"/><path class="cls-20" d="M239.13,79.67c1.06,0,2.12,0,3.18,0,.31,0,.38.1.38.39,0,.91,0,.91-.92.91H236c-.31,0-.44,0-.44-.4,0-.89,0-.89.91-.89Z"/><path class="cls-15" d="M255.37,77.53c0,.06,0,.18,0,.19s0-.07,0-.12,0-.06,0-.09Z"/><path class="cls-15" d="M255.4,78.53a.25.25,0,0,1,0-.24A.2.2,0,0,1,255.4,78.53Z"/><path class="cls-4" d="M259.24,104.18v.13C259.16,104.26,259.15,104.21,259.24,104.18Z"/><path class="cls-20" d="M248.49,84h-2.64c-.14,0-.29,0-.37-.14a.42.42,0,0,1-.06-.34c.06-.14.19-.1.28-.09.82,0,1.64,0,2.45,0,.33,0,.5,0,.35.41,0,0,0,.12,0,.18Z"/><path class="cls-13" d="M241.47,95.14l1.28,0c0,.06,0,.12.06.12a2.37,2.37,0,0,0,.6,0c.35-.11.36.07.35.32,0,.58-.18.72-.75.71a10.84,10.84,0,0,0-1.14,0c-.5,0-.66-.26-.77-.66,0,0,0-.1,0-.14-.1-.29,0-.42.29-.31C241.4,95.2,241.44,95.16,241.47,95.14Z"/><path class="cls-13" d="M243,95.17h.14C243.06,95.23,243,95.23,243,95.17Z"/><path class="cls-6" d="M241,115.92c-.2-.06-.16-.21-.15-.36h0l.14.36Z"/><path class="cls-6" d="M241.12,116.28c-.2-.06-.16-.21-.15-.36h0a1,1,0,0,1,.14.37Z"/><path class="cls-6" d="M240.75,115.43c-.1-.06-.08-.14-.06-.23h0l.09.2Z"/><path class="cls-6" d="M240.83,115.56c-.08,0-.08-.07-.08-.13l0,0,.05.15Z"/><path class="cls-15" d="M240.84,115.55l-.05-.15-.09-.2-.12-.4s.12,0,.14.1c.17.41.33.83.49,1.25a.23.23,0,0,1,0,.23l-.08-.1a1,1,0,0,0-.14-.37Z"/><path class="cls-15" d="M241.48,115.7l.12.17c.06.18.12.37.17.55A.72.72,0,0,1,241.48,115.7Z"/><path class="cls-15" d="M241,114.37l0,.16.07.24c-.26-.12-.23-.35-.23-.57Z"/><path class="cls-15" d="M241.12,114.77l.12.17v.21C241.08,115.07,241.09,114.92,241.12,114.77Z"/><path class="cls-15" d="M241.77,116.42a.67.67,0,0,1,.14.36C241.71,116.72,241.75,116.57,241.77,116.42Z"/><path class="cls-15" d="M241.26,115.19l.11.11,0,.2C241.24,115.45,241.24,115.32,241.26,115.19Z"/><path class="cls-15" d="M241.4,115.49c.07.06.07.14.09.22S241.4,115.58,241.4,115.49Z"/><path class="cls-4" d="M235.88,95.08v0c0,.53,0,.53-.58.53h-.21c0-.1,0-.21,0-.32s-.07-.35.1-.36S235.7,94.79,235.88,95.08Z"/><path class="cls-4" d="M235.46,92c-.24,0-.42,0-.38-.32s-.05-.4.26-.4.51.07.53.42S235.69,92,235.46,92Z"/><path class="cls-4" d="M235.49,92.5c.27,0,.39,0,.39.34s-.19.3-.41.32-.4,0-.4-.36S235.26,92.48,235.49,92.5Z"/><path class="cls-4" d="M235.4,91c-.21,0-.33,0-.33-.34s.17-.31.4-.32.41,0,.41.37S235.65,91,235.4,91Z"/><path class="cls-4" d="M235.52,93.86c.23,0,.36,0,.35.3s0,.35-.32.35-.45-.07-.45-.38S235.3,93.84,235.52,93.86Z"/><path class="cls-4" d="M238.08,91.3c.4-.09.46.08.46.38s-.15.33-.39.32-.43-.12-.4-.57C237.78,91.14,238,91.35,238.08,91.3Z"/><path class="cls-4" d="M238.23,90.12c.21,0,.33.06.3.35s0,.4-.31.38-.48-.1-.48-.46S238,90.14,238.23,90.12Z"/><path class="cls-4" d="M238.13,94.35c-.38.09-.39-.17-.4-.44s0-.32.2-.24.62-.17.6.36C238.52,94.35,238.39,94.4,238.13,94.35Z"/><path class="cls-4" d="M238.14,95.5c-.24,0-.42,0-.41-.3s.19-.34.43-.34.37,0,.37.3S238.4,95.55,238.14,95.5Z"/><path class="cls-4" d="M238.18,93.13c-.33.08-.41-.08-.39-.36s0-.38.26-.34.51,0,.49.38S238.45,93.21,238.18,93.13Z"/><path class="cls-15" d="M259.85,78.16a2,2,0,0,1,1.5-.07,1,1,0,0,1,.4.21h0a3.34,3.34,0,0,0-1.6-.08.34.34,0,0,1-.3-.07Z"/><path class="cls-15" d="M261.75,78.3l0,0,0,0Z"/><path class="cls-15" d="M257.52,78.2a3.44,3.44,0,0,1-1.28.08A2.65,2.65,0,0,1,257.52,78.2Z"/><path class="cls-15" d="M256.66,80c0-.14,0-.32.15-.32s.21.22.21.38,0,.38-.19.35S256.67,80.16,256.66,80Z"/><path class="cls-15" d="M260.83,79.51c0,.22.13.44,0,.65s-.06.13-.14.14-.13-.08-.16-.16c-.14-.36,0-.58.32-.63Z"/><path class="cls-9" d="M276.08,91l.09,0Z"/><path class="cls-21" d="M11.35,70.81a6.52,6.52,0,0,1,2.25.33,2.59,2.59,0,0,1,1.32,1,3.05,3.05,0,0,1,.44,1.72,2.87,2.87,0,0,1-.29,1.33,2.74,2.74,0,0,1-.75.9,4.81,4.81,0,0,1-1,.58l3,4.66h-2l-2.54-4.22H10.12v4.22H8.39V70.81Zm-.11,1.44H10.12v3.44h1.19a2.79,2.79,0,0,0,1.75-.44,1.62,1.62,0,0,0,.54-1.32,1.44,1.44,0,0,0-.58-1.3A3.32,3.32,0,0,0,11.24,72.25Z"/><path class="cls-21" d="M18.49,70.32a1.15,1.15,0,0,1,.67.2,1,1,0,0,1,0,1.44,1.19,1.19,0,0,1-1.35,0,1.07,1.07,0,0,1,0-1.44A1.16,1.16,0,0,1,18.49,70.32Zm.84,3.05v8H17.64v-8Z"/><path class="cls-21" d="M24.92,73.22a3.54,3.54,0,0,1,1.83.44,2.86,2.86,0,0,1,1.17,1.24,4.13,4.13,0,0,1,.41,1.93v.91H23a2.58,2.58,0,0,0,.63,1.78,2.16,2.16,0,0,0,1.66.63A5.69,5.69,0,0,0,26.67,80a7.52,7.52,0,0,0,1.26-.43v1.37a5.65,5.65,0,0,1-1.22.41,7.08,7.08,0,0,1-1.48.13A4.37,4.37,0,0,1,23.17,81a3.2,3.2,0,0,1-1.39-1.36,4.57,4.57,0,0,1-.5-2.25,5.24,5.24,0,0,1,.45-2.28A3.22,3.22,0,0,1,23,73.71,3.6,3.6,0,0,1,24.92,73.22Zm0,1.27a1.69,1.69,0,0,0-1.29.52,2.43,2.43,0,0,0-.58,1.52h3.63a2.9,2.9,0,0,0-.2-1.06,1.54,1.54,0,0,0-.58-.72A1.72,1.72,0,0,0,24.92,74.49Z"/><path class="cls-21" d="M34.39,73.22a3,3,0,0,1,2.1.69,2.91,2.91,0,0,1,.75,2.23v5.2H35.55V76.46a2.21,2.21,0,0,0-.38-1.4A1.43,1.43,0,0,0,34,74.6a1.77,1.77,0,0,0-1.61.71,3.9,3.9,0,0,0-.45,2.07v4H30.24v-8h1.32l.23,1.08h.1a2.35,2.35,0,0,1,.64-.69,2.9,2.9,0,0,1,.87-.41A3.64,3.64,0,0,1,34.39,73.22Z"/><path class="cls-21" d="M46.11,81.48a2.81,2.81,0,0,1-2.28-1A4.68,4.68,0,0,1,43,77.37a4.75,4.75,0,0,1,.87-3.1,2.85,2.85,0,0,1,2.31-1,3.15,3.15,0,0,1,1.06.16,2.66,2.66,0,0,1,.78.43,3.27,3.27,0,0,1,.56.62h.07c0-.15,0-.37-.08-.65a7.43,7.43,0,0,1,0-.78V70.14h1.7v11.2H48.87l-.3-1.09h-.08a2.44,2.44,0,0,1-.54.62,2.47,2.47,0,0,1-.78.44A2.84,2.84,0,0,1,46.11,81.48Zm.48-1.37a1.75,1.75,0,0,0,1.53-.63,3.29,3.29,0,0,0,.46-1.88v-.22a4,4,0,0,0-.43-2.06,1.68,1.68,0,0,0-1.58-.71,1.55,1.55,0,0,0-1.39.73,3.78,3.78,0,0,0-.48,2.06,3.51,3.51,0,0,0,.48,2A1.62,1.62,0,0,0,46.59,80.11Z"/><path class="cls-21" d="M55.79,73.22a3.54,3.54,0,0,1,1.83.44,3,3,0,0,1,1.17,1.24,4.26,4.26,0,0,1,.41,1.93v.91H53.88a2.62,2.62,0,0,0,.62,1.78,2.19,2.19,0,0,0,1.67.63A5.75,5.75,0,0,0,57.54,80a8.18,8.18,0,0,0,1.26-.43v1.37a5.65,5.65,0,0,1-1.22.41,7.08,7.08,0,0,1-1.48.13A4.42,4.42,0,0,1,54,81a3.31,3.31,0,0,1-1.39-1.36,4.68,4.68,0,0,1-.5-2.25,5.23,5.23,0,0,1,.46-2.28,3.2,3.2,0,0,1,1.27-1.42A3.66,3.66,0,0,1,55.79,73.22Zm0,1.27a1.7,1.7,0,0,0-1.3.52,2.49,2.49,0,0,0-.58,1.52h3.63a2.9,2.9,0,0,0-.19-1.06,1.54,1.54,0,0,0-.58-.72A1.76,1.76,0,0,0,55.79,74.49Z"/><path class="cls-21" d="M69,73.22a2.8,2.8,0,0,1,2.28,1,4.7,4.7,0,0,1,.86,3.08,5.64,5.64,0,0,1-.4,2.28,3.1,3.1,0,0,1-3.83,1.71,2.4,2.4,0,0,1-.76-.41,3.16,3.16,0,0,1-.54-.56h-.1c0,.19,0,.4.07.64s0,.44,0,.63v3.25H64.94V73.37h1.38l.24,1.1h.07a3,3,0,0,1,.55-.63,2.29,2.29,0,0,1,.78-.45A2.88,2.88,0,0,1,69,73.22Zm-.45,1.38a2,2,0,0,0-1.12.28,1.56,1.56,0,0,0-.61.83,4.47,4.47,0,0,0-.21,1.39v.23a5.37,5.37,0,0,0,.19,1.5,1.71,1.71,0,0,0,.61.94,1.92,1.92,0,0,0,1.16.32,1.52,1.52,0,0,0,1-.34,2,2,0,0,0,.61-1,5,5,0,0,0,.2-1.48,3.66,3.66,0,0,0-.46-2A1.55,1.55,0,0,0,68.57,74.6Z"/><path class="cls-21" d="M75.81,81.34h-1.7V70.14h1.7Z"/><path class="cls-21" d="M85.17,73.37v8H83.84l-.23-1.08h-.1a2.08,2.08,0,0,1-.64.68,2.74,2.74,0,0,1-.86.41,3.66,3.66,0,0,1-1,.13,3.47,3.47,0,0,1-1.54-.31,2.06,2.06,0,0,1-1-.94,3.5,3.5,0,0,1-.34-1.66v-5.2h1.7v4.89a2.09,2.09,0,0,0,.38,1.38,1.42,1.42,0,0,0,1.17.47,2.13,2.13,0,0,0,1.23-.32,1.71,1.71,0,0,0,.64-.94,5.12,5.12,0,0,0,.19-1.52v-4Z"/><path class="cls-21" d="M92.94,79.06a2.22,2.22,0,0,1-.38,1.33,2.24,2.24,0,0,1-1.11.81,5,5,0,0,1-1.79.28,7.42,7.42,0,0,1-1.43-.12A5.41,5.41,0,0,1,87.09,81V79.54a9.06,9.06,0,0,0,1.28.46,5,5,0,0,0,1.34.19,2.13,2.13,0,0,0,1.2-.26.82.82,0,0,0,.37-.7.78.78,0,0,0-.15-.47,1.6,1.6,0,0,0-.54-.42,12.15,12.15,0,0,0-1.17-.53,8.57,8.57,0,0,1-1.28-.61,2.2,2.2,0,0,1-.78-.73,2,2,0,0,1-.27-1.09,1.79,1.79,0,0,1,.84-1.61,4,4,0,0,1,2.22-.55,6.89,6.89,0,0,1,1.39.14,7.71,7.71,0,0,1,1.28.43l-.54,1.28a9.44,9.44,0,0,0-1.08-.4,4.13,4.13,0,0,0-1.11-.15,2,2,0,0,0-1,.2.64.64,0,0,0-.34.58.71.71,0,0,0,.16.47,1.74,1.74,0,0,0,.57.39q.41.2,1.14.48a10.21,10.21,0,0,1,1.23.58,2.11,2.11,0,0,1,.8.73A2,2,0,0,1,92.94,79.06Z"/><path class="cls-21" d="M102.58,74.66h-1.94v6.68H99V74.66h-1.3v-.82l1.3-.49v-.56a3.34,3.34,0,0,1,.32-1.61,1.83,1.83,0,0,1,.92-.86,3.5,3.5,0,0,1,1.44-.26,5.24,5.24,0,0,1,1,.09,4.85,4.85,0,0,1,.76.2L103,71.63a5.48,5.48,0,0,0-.55-.14,2.62,2.62,0,0,0-.64-.07,1,1,0,0,0-.85.36,1.73,1.73,0,0,0-.27,1v.54h1.94Z"/><path class="cls-21" d="M107.05,73.22a3.4,3.4,0,0,1,2.29.67,2.58,2.58,0,0,1,.77,2.08v5.37h-1.2l-.32-1.13h-.06a4.72,4.72,0,0,1-.7.71,2.41,2.41,0,0,1-.83.42,4.2,4.2,0,0,1-1.15.14,3,3,0,0,1-1.27-.26,2,2,0,0,1-.89-.81,2.66,2.66,0,0,1-.32-1.36,2.07,2.07,0,0,1,.92-1.85,5.31,5.31,0,0,1,2.77-.69l1.38-.05v-.41A1.31,1.31,0,0,0,107,74.51a4.05,4.05,0,0,0-1.15.17,8.64,8.64,0,0,0-1.1.43l-.55-1.2a6.69,6.69,0,0,1,1.33-.5A6.15,6.15,0,0,1,107.05,73.22Zm1.39,4.31-1,0a3.21,3.21,0,0,0-1.78.44,1.26,1.26,0,0,0-.51,1.06,1,1,0,0,0,.35.86,1.49,1.49,0,0,0,.93.27,2.14,2.14,0,0,0,1.46-.5,1.85,1.85,0,0,0,.58-1.47Z"/><path class="cls-21" d="M115.69,81.48a4.2,4.2,0,0,1-2-.44,3,3,0,0,1-1.27-1.34,5.22,5.22,0,0,1-.45-2.31A5.09,5.09,0,0,1,112.5,75a3.08,3.08,0,0,1,1.36-1.36,4.26,4.26,0,0,1,2-.44,5.1,5.1,0,0,1,1.29.14,4.23,4.23,0,0,1,1,.34l-.51,1.35a6.78,6.78,0,0,0-.9-.3,3.51,3.51,0,0,0-.88-.12,2,2,0,0,0-1.17.31,1.78,1.78,0,0,0-.69.92,4.44,4.44,0,0,0-.22,1.52,4,4,0,0,0,.23,1.48,1.81,1.81,0,0,0,.68.9,1.9,1.9,0,0,0,1.12.31,3.9,3.9,0,0,0,1.17-.16,5,5,0,0,0,1-.41V81a3.7,3.7,0,0,1-1,.38A5.2,5.2,0,0,1,115.69,81.48Z"/><path class="cls-21" d="M120.66,70.32a1.15,1.15,0,0,1,.67.2,1,1,0,0,1,0,1.44A1.19,1.19,0,0,1,120,72a1.07,1.07,0,0,1,0-1.44A1.14,1.14,0,0,1,120.66,70.32Zm.83,3.05v8H119.8v-8Z"/><path class="cls-21" d="M125.61,81.34h-1.7V70.14h1.7Z"/><path class="cls-21" d="M131.2,73.22a3.48,3.48,0,0,1,1.82.44,2.89,2.89,0,0,1,1.18,1.24,4.26,4.26,0,0,1,.41,1.93v.91h-5.32a2.62,2.62,0,0,0,.62,1.78,2.19,2.19,0,0,0,1.67.63A5.75,5.75,0,0,0,133,80a8.18,8.18,0,0,0,1.26-.43v1.37a5.65,5.65,0,0,1-1.22.41,7.08,7.08,0,0,1-1.48.13,4.42,4.42,0,0,1-2.07-.46,3.31,3.31,0,0,1-1.39-1.36,4.68,4.68,0,0,1-.5-2.25,5.23,5.23,0,0,1,.46-2.28,3.26,3.26,0,0,1,1.27-1.42A3.66,3.66,0,0,1,131.2,73.22Zm0,1.27a1.66,1.66,0,0,0-1.29.52,2.38,2.38,0,0,0-.58,1.52H133a2.9,2.9,0,0,0-.19-1.06,1.54,1.54,0,0,0-.58-.72A1.74,1.74,0,0,0,131.2,74.49Z"/><path class="cls-21" d="M145.41,84.87V81.49c0-.19,0-.4,0-.63a5.67,5.67,0,0,1,.06-.62h-.09a2.71,2.71,0,0,1-.9.88,3.1,3.1,0,0,1-3.77-.68,4.75,4.75,0,0,1-.85-3.08,5.81,5.81,0,0,1,.39-2.27,3.11,3.11,0,0,1,1.12-1.4,2.89,2.89,0,0,1,1.66-.47,2.86,2.86,0,0,1,1.49.35,3,3,0,0,1,.92.88h0l.19-1.08h1.41v11.5Zm-1.91-4.75a2.15,2.15,0,0,0,1.15-.27,1.56,1.56,0,0,0,.63-.84,4.45,4.45,0,0,0,.21-1.38v-.26a4,4,0,0,0-.44-2.06,1.71,1.71,0,0,0-1.57-.7,1.55,1.55,0,0,0-1.41.73,4,4,0,0,0-.46,2,3.69,3.69,0,0,0,.47,2A1.58,1.58,0,0,0,143.5,80.12Z"/><path class="cls-21" d="M156.47,73.37v8h-1.33l-.23-1.08h-.1a2.08,2.08,0,0,1-.64.68,2.74,2.74,0,0,1-.86.41,3.66,3.66,0,0,1-1,.13,3.47,3.47,0,0,1-1.54-.31,2.06,2.06,0,0,1-1-.94,3.5,3.5,0,0,1-.34-1.66v-5.2h1.7v4.89a2.09,2.09,0,0,0,.38,1.38,1.42,1.42,0,0,0,1.17.47,2.13,2.13,0,0,0,1.23-.32,1.71,1.71,0,0,0,.64-.94,5.12,5.12,0,0,0,.19-1.52v-4Z"/><path class="cls-21" d="M162.06,73.22a3.54,3.54,0,0,1,1.83.44,2.94,2.94,0,0,1,1.18,1.24,4.26,4.26,0,0,1,.41,1.93v.91h-5.32a2.57,2.57,0,0,0,.62,1.78,2.19,2.19,0,0,0,1.67.63,5.81,5.81,0,0,0,1.37-.15,7.74,7.74,0,0,0,1.25-.43v1.37a5.57,5.57,0,0,1-1.21.41,7.18,7.18,0,0,1-1.49.13,4.37,4.37,0,0,1-2.06-.46,3.31,3.31,0,0,1-1.39-1.36,4.68,4.68,0,0,1-.5-2.25,5.09,5.09,0,0,1,.46-2.28,3.2,3.2,0,0,1,1.27-1.42A3.62,3.62,0,0,1,162.06,73.22Zm0,1.27a1.69,1.69,0,0,0-1.29.52,2.43,2.43,0,0,0-.58,1.52h3.63a2.71,2.71,0,0,0-.2-1.06,1.52,1.52,0,0,0-.57-.72A1.78,1.78,0,0,0,162.06,74.49Z"/><path class="cls-21" d="M10.9,99.17a2.84,2.84,0,0,1-2.29-1,5.9,5.9,0,0,1,0-6.17,2.84,2.84,0,0,1,2.3-1,3.07,3.07,0,0,1,1.06.16,2.66,2.66,0,0,1,.78.43,3,3,0,0,1,.56.62h.08c0-.15-.05-.37-.08-.65a7.43,7.43,0,0,1-.05-.78V87.83H15V99H13.65l-.3-1.09h-.07a2.65,2.65,0,0,1-.54.62A2.49,2.49,0,0,1,12,99,3.11,3.11,0,0,1,10.9,99.17Zm.47-1.37a1.76,1.76,0,0,0,1.54-.63,3.37,3.37,0,0,0,.46-1.88v-.22A4,4,0,0,0,12.93,93a1.68,1.68,0,0,0-1.57-.71A1.54,1.54,0,0,0,10,93a3.78,3.78,0,0,0-.48,2.06,3.51,3.51,0,0,0,.48,2A1.59,1.59,0,0,0,11.37,97.8Z"/><path class="cls-21" d="M20.57,90.91a3.54,3.54,0,0,1,1.83.44,2.86,2.86,0,0,1,1.17,1.24A4.13,4.13,0,0,1,24,94.52v.91H18.66a2.56,2.56,0,0,0,.63,1.78,2.16,2.16,0,0,0,1.66.63,5.69,5.69,0,0,0,1.37-.15,7.52,7.52,0,0,0,1.26-.43v1.37a5,5,0,0,1-1.22.41,7,7,0,0,1-1.48.13,4.37,4.37,0,0,1-2.06-.46,3.26,3.26,0,0,1-1.39-1.36,4.65,4.65,0,0,1-.5-2.25,5.24,5.24,0,0,1,.45-2.28,3.28,3.28,0,0,1,1.28-1.42A3.6,3.6,0,0,1,20.57,90.91Zm0,1.27a1.69,1.69,0,0,0-1.29.52,2.46,2.46,0,0,0-.58,1.52h3.63a2.9,2.9,0,0,0-.2-1.06,1.54,1.54,0,0,0-.58-.72A1.72,1.72,0,0,0,20.57,92.18Z"/><path class="cls-21" d="M32.93,99.17a4.2,4.2,0,0,1-2-.44,3,3,0,0,1-1.27-1.34,5.22,5.22,0,0,1-.45-2.31,5.09,5.09,0,0,1,.49-2.37,3.08,3.08,0,0,1,1.36-1.36,4.26,4.26,0,0,1,2-.44,5.15,5.15,0,0,1,1.29.14,4.45,4.45,0,0,1,1,.34l-.5,1.35a6.78,6.78,0,0,0-.9-.3,3.51,3.51,0,0,0-.88-.12,2,2,0,0,0-1.17.31,1.78,1.78,0,0,0-.69.92A4.42,4.42,0,0,0,31,95.07a4,4,0,0,0,.24,1.48,1.81,1.81,0,0,0,.68.9,1.89,1.89,0,0,0,1.11.31,3.92,3.92,0,0,0,1.18-.16,5,5,0,0,0,1-.41v1.47a4.28,4.28,0,0,1-1,.39A5.8,5.8,0,0,1,32.93,99.17Z"/><path class="cls-21" d="M38.73,87.83v2.81c0,.29,0,.58,0,.86s0,.49-.06.65h.1a2.29,2.29,0,0,1,.62-.69,2.63,2.63,0,0,1,.82-.41,3.46,3.46,0,0,1,1-.14,3.63,3.63,0,0,1,1.55.31,2.05,2.05,0,0,1,1,1,3.47,3.47,0,0,1,.35,1.66V99h-1.7V94.15a2.15,2.15,0,0,0-.38-1.4,1.43,1.43,0,0,0-1.18-.46,2.1,2.1,0,0,0-1.22.32,1.75,1.75,0,0,0-.64.94,5.14,5.14,0,0,0-.2,1.52v4H37V87.83Z"/><path class="cls-21" d="M49.58,90.91a3.54,3.54,0,0,1,1.83.44,2.86,2.86,0,0,1,1.17,1.24A4.13,4.13,0,0,1,53,94.52v.91H47.67a2.56,2.56,0,0,0,.63,1.78,2.16,2.16,0,0,0,1.66.63,5.69,5.69,0,0,0,1.37-.15,7.52,7.52,0,0,0,1.26-.43v1.37a5,5,0,0,1-1.22.41,7,7,0,0,1-1.48.13,4.37,4.37,0,0,1-2.06-.46,3.26,3.26,0,0,1-1.39-1.36,4.65,4.65,0,0,1-.5-2.25,5.24,5.24,0,0,1,.45-2.28,3.22,3.22,0,0,1,1.28-1.42A3.6,3.6,0,0,1,49.58,90.91Zm0,1.27a1.69,1.69,0,0,0-1.29.52,2.46,2.46,0,0,0-.58,1.52h3.63a2.9,2.9,0,0,0-.2-1.06,1.54,1.54,0,0,0-.58-.72A1.72,1.72,0,0,0,49.58,92.18Z"/><path class="cls-21" d="M58.94,90.91a3.47,3.47,0,0,1,.44,0,2.23,2.23,0,0,1,.41.06l-.16,1.58a1.68,1.68,0,0,0-.37-.06l-.39,0a2.57,2.57,0,0,0-.87.15,2.08,2.08,0,0,0-.72.45,2.15,2.15,0,0,0-.5.74,2.8,2.8,0,0,0-.18,1V99H54.9v-8h1.33l.23,1.4h.07a3.69,3.69,0,0,1,.6-.78,2.73,2.73,0,0,1,.81-.56A2.33,2.33,0,0,1,58.94,90.91Z"/><path class="cls-21" d="M64.48,99.17a4.14,4.14,0,0,1-2-.44,3,3,0,0,1-1.28-1.34,5.38,5.38,0,0,1-.44-2.31,5,5,0,0,1,.49-2.37,3,3,0,0,1,1.35-1.36,4.28,4.28,0,0,1,2-.44,5.24,5.24,0,0,1,1.3.14,4.85,4.85,0,0,1,1,.34l-.51,1.35a6.78,6.78,0,0,0-.9-.3,3.45,3.45,0,0,0-.88-.12,2,2,0,0,0-1.16.31,1.78,1.78,0,0,0-.69.92,4.19,4.19,0,0,0-.23,1.52,4.26,4.26,0,0,0,.23,1.48,1.81,1.81,0,0,0,.68.9,1.94,1.94,0,0,0,1.12.31,3.81,3.81,0,0,0,1.17-.16,4.72,4.72,0,0,0,1-.41v1.47a3.94,3.94,0,0,1-1,.39A5.76,5.76,0,0,1,64.48,99.17Z"/><path class="cls-21" d="M70.28,87.83v2.81c0,.29,0,.58,0,.86s0,.49,0,.65h.09a2.43,2.43,0,0,1,.62-.69,2.68,2.68,0,0,1,.83-.41,3.34,3.34,0,0,1,1-.14,3.6,3.6,0,0,1,1.55.31,2.12,2.12,0,0,1,1,1,3.47,3.47,0,0,1,.34,1.66V99H73.9V94.15a2.21,2.21,0,0,0-.38-1.4,1.45,1.45,0,0,0-1.18-.46,2.08,2.08,0,0,0-1.22.32,1.76,1.76,0,0,0-.65.94,5.16,5.16,0,0,0-.19,1.52v4H68.59V87.83Z"/><path class="cls-21" d="M81.12,90.91a3.52,3.52,0,0,1,1.83.44,2.94,2.94,0,0,1,1.18,1.24,4.26,4.26,0,0,1,.41,1.93v.91H79.22a2.55,2.55,0,0,0,.62,1.78,2.19,2.19,0,0,0,1.67.63,5.81,5.81,0,0,0,1.37-.15,7.74,7.74,0,0,0,1.25-.43v1.37a4.94,4.94,0,0,1-1.21.41,7.18,7.18,0,0,1-1.49.13,4.37,4.37,0,0,1-2.06-.46A3.31,3.31,0,0,1,78,97.35a4.65,4.65,0,0,1-.5-2.25,5.09,5.09,0,0,1,.46-2.28,3.2,3.2,0,0,1,1.27-1.42A3.65,3.65,0,0,1,81.12,90.91Zm0,1.27a1.69,1.69,0,0,0-1.29.52,2.46,2.46,0,0,0-.58,1.52h3.63a2.71,2.71,0,0,0-.2-1.06,1.52,1.52,0,0,0-.57-.72A1.78,1.78,0,0,0,81.12,92.18Z"/><path class="cls-21" d="M90.48,90.91a3.39,3.39,0,0,1,.44,0,2.11,2.11,0,0,1,.41.06l-.16,1.58a1.68,1.68,0,0,0-.37-.06l-.39,0a2.47,2.47,0,0,0-.86.15,2,2,0,0,0-.73.45,2.15,2.15,0,0,0-.5.74,2.8,2.8,0,0,0-.18,1V99h-1.7v-8h1.33l.23,1.4h.08a3.64,3.64,0,0,1,.59-.78,2.73,2.73,0,0,1,.81-.56A2.36,2.36,0,0,1,90.48,90.91Z"/><path class="cls-21" d="M99.81,90.91a3.54,3.54,0,0,1,1.83.44,2.86,2.86,0,0,1,1.17,1.24,4.13,4.13,0,0,1,.41,1.93v.91H97.9a2.56,2.56,0,0,0,.63,1.78,2.16,2.16,0,0,0,1.66.63,5.83,5.83,0,0,0,1.38-.15,7.74,7.74,0,0,0,1.25-.43v1.37a5,5,0,0,1-1.22.41,7,7,0,0,1-1.48.13,4.37,4.37,0,0,1-2.06-.46,3.26,3.26,0,0,1-1.39-1.36,4.65,4.65,0,0,1-.5-2.25,5.24,5.24,0,0,1,.45-2.28A3.28,3.28,0,0,1,97.9,91.4,3.6,3.6,0,0,1,99.81,90.91Zm0,1.27a1.69,1.69,0,0,0-1.29.52,2.46,2.46,0,0,0-.58,1.52h3.63a2.9,2.9,0,0,0-.2-1.06,1.54,1.54,0,0,0-.58-.72A1.72,1.72,0,0,0,99.81,92.18Z"/><path class="cls-21" d="M108.1,97.8a3.49,3.49,0,0,0,.65-.06,3.89,3.89,0,0,0,.59-.15v1.29a3.17,3.17,0,0,1-.72.2,4.73,4.73,0,0,1-.93.09,3,3,0,0,1-1.22-.23,1.8,1.8,0,0,1-.86-.78,3.12,3.12,0,0,1-.31-1.53V92.35h-1.09v-.76l1.17-.6.55-1.7H107v1.77h2.28v1.29H107v4.26a1.22,1.22,0,0,0,.3.9A1.12,1.12,0,0,0,108.1,97.8Z"/><path class="cls-21" d="M117.47,99.17a2.84,2.84,0,0,1-2.29-1,5.9,5.9,0,0,1,0-6.17,2.85,2.85,0,0,1,2.31-1,3.05,3.05,0,0,1,1,.16,2.6,2.6,0,0,1,.79.43,3.22,3.22,0,0,1,.55.62H120c0-.15,0-.37-.08-.65a7.43,7.43,0,0,1-.05-.78V87.83h1.7V99h-1.32l-.31-1.09h-.07a2.44,2.44,0,0,1-.54.62,2.49,2.49,0,0,1-.78.45A3.07,3.07,0,0,1,117.47,99.17ZM118,97.8a1.75,1.75,0,0,0,1.53-.63,3.29,3.29,0,0,0,.46-1.88v-.22a4,4,0,0,0-.43-2.06,1.71,1.71,0,0,0-1.58-.71,1.55,1.55,0,0,0-1.39.73,3.78,3.78,0,0,0-.48,2.06,3.51,3.51,0,0,0,.48,2A1.62,1.62,0,0,0,118,97.8Z"/><path class="cls-21" d="M127.14,90.91a3.54,3.54,0,0,1,1.83.44,2.94,2.94,0,0,1,1.18,1.24,4.26,4.26,0,0,1,.41,1.93v.91h-5.32a2.55,2.55,0,0,0,.62,1.78,2.19,2.19,0,0,0,1.67.63,5.81,5.81,0,0,0,1.37-.15,7.74,7.74,0,0,0,1.25-.43v1.37a4.94,4.94,0,0,1-1.21.41,7.18,7.18,0,0,1-1.49.13,4.37,4.37,0,0,1-2.06-.46A3.31,3.31,0,0,1,124,97.35a4.65,4.65,0,0,1-.5-2.25,5.09,5.09,0,0,1,.46-2.28,3.2,3.2,0,0,1,1.27-1.42A3.62,3.62,0,0,1,127.14,90.91Zm0,1.27a1.69,1.69,0,0,0-1.29.52,2.46,2.46,0,0,0-.58,1.52h3.63a2.71,2.71,0,0,0-.2-1.06,1.52,1.52,0,0,0-.57-.72A1.78,1.78,0,0,0,127.14,92.18Z"/><path class="cls-21" d="M139.26,97.8a3.49,3.49,0,0,0,.65-.06,4.38,4.38,0,0,0,.6-.15v1.29a3.27,3.27,0,0,1-.73.2,4.73,4.73,0,0,1-.93.09,3,3,0,0,1-1.22-.23,1.73,1.73,0,0,1-.85-.78,3,3,0,0,1-.32-1.53V92.35h-1.09v-.76l1.17-.6.55-1.7h1.07v1.77h2.28v1.29h-2.28v4.26a1.22,1.22,0,0,0,.3.9A1.12,1.12,0,0,0,139.26,97.8Z"/><path class="cls-21" d="M146.16,90.91a3.39,3.39,0,0,1,.44,0A2.11,2.11,0,0,1,147,91l-.16,1.58a1.68,1.68,0,0,0-.37-.06l-.39,0a2.47,2.47,0,0,0-.86.15,2,2,0,0,0-.73.45,2.15,2.15,0,0,0-.5.74,2.8,2.8,0,0,0-.18,1V99h-1.7v-8h1.33l.23,1.4h.08a3.64,3.64,0,0,1,.59-.78,2.73,2.73,0,0,1,.81-.56A2.36,2.36,0,0,1,146.16,90.91Z"/><path class="cls-21" d="M155.54,95a5.32,5.32,0,0,1-.26,1.77,3.47,3.47,0,0,1-.75,1.3,3.21,3.21,0,0,1-1.2.8,4.11,4.11,0,0,1-1.57.28,3.9,3.9,0,0,1-1.51-.28,3.3,3.3,0,0,1-1.18-.8,3.67,3.67,0,0,1-.78-1.3A5.31,5.31,0,0,1,148,95a4.9,4.9,0,0,1,.46-2.23,3.21,3.21,0,0,1,1.3-1.4,4.06,4.06,0,0,1,2-.48,3.85,3.85,0,0,1,1.94.48,3.37,3.37,0,0,1,1.32,1.4A4.93,4.93,0,0,1,155.54,95Zm-5.78,0a4.61,4.61,0,0,0,.21,1.49,2,2,0,0,0,.66.95,1.88,1.88,0,0,0,3-.95A4.61,4.61,0,0,0,153.8,95a4.48,4.48,0,0,0-.21-1.47,1.85,1.85,0,0,0-.65-.93,1.92,1.92,0,0,0-1.16-.32,1.75,1.75,0,0,0-1.54.7A3.59,3.59,0,0,0,149.76,95Z"/><path class="cls-21" d="M164.43,91.06v8H163.1L162.87,98h-.09a2.35,2.35,0,0,1-.64.69,3.14,3.14,0,0,1-.87.4,3.61,3.61,0,0,1-1,.13,3.47,3.47,0,0,1-1.54-.31,2.06,2.06,0,0,1-1-.94,3.5,3.5,0,0,1-.34-1.66v-5.2h1.7V96a2.17,2.17,0,0,0,.38,1.39,1.45,1.45,0,0,0,1.18.46,2.1,2.1,0,0,0,1.22-.32,1.66,1.66,0,0,0,.64-.94,5.12,5.12,0,0,0,.19-1.52v-4Z"/><path class="cls-21" d="M168.67,99l-3-8h1.79l1.65,4.68c.1.29.2.62.28,1a7.55,7.55,0,0,1,.18.87h.06a5.85,5.85,0,0,1,.2-.88c.09-.34.19-.66.29-1l1.64-4.68h1.79l-3,8Z"/><path class="cls-21" d="M177.9,90.91a3.54,3.54,0,0,1,1.83.44,2.86,2.86,0,0,1,1.17,1.24,4.13,4.13,0,0,1,.41,1.93v.91H176a2.56,2.56,0,0,0,.63,1.78,2.16,2.16,0,0,0,1.66.63,5.69,5.69,0,0,0,1.37-.15,7.52,7.52,0,0,0,1.26-.43v1.37a5,5,0,0,1-1.22.41,7,7,0,0,1-1.48.13,4.37,4.37,0,0,1-2.06-.46,3.2,3.2,0,0,1-1.39-1.36,4.65,4.65,0,0,1-.5-2.25,5.24,5.24,0,0,1,.45-2.28A3.22,3.22,0,0,1,176,91.4,3.6,3.6,0,0,1,177.9,90.91Zm0,1.27a1.69,1.69,0,0,0-1.29.52,2.46,2.46,0,0,0-.58,1.52h3.63a2.9,2.9,0,0,0-.2-1.06,1.54,1.54,0,0,0-.58-.72A1.72,1.72,0,0,0,177.9,92.18Zm2.35-4.45v.15c-.11.14-.27.3-.46.5l-.64.61c-.23.21-.46.42-.69.61a6.88,6.88,0,0,1-.61.49h-1.13v-.18c.16-.19.33-.4.53-.66s.39-.51.58-.78.34-.52.47-.74Z"/><path class="cls-21" d="M15.17,108.75v8H13.83l-.23-1.07h-.09a2.31,2.31,0,0,1-.64.68,2.94,2.94,0,0,1-.86.4,3.66,3.66,0,0,1-1,.13,3.58,3.58,0,0,1-1.54-.3,2.15,2.15,0,0,1-1-1A3.62,3.62,0,0,1,8.15,114v-5.2h1.7v4.89a2.17,2.17,0,0,0,.38,1.39,1.46,1.46,0,0,0,1.18.46,2.1,2.1,0,0,0,1.22-.32,1.72,1.72,0,0,0,.65-.94,5.39,5.39,0,0,0,.19-1.51v-4Z"/><path class="cls-21" d="M21.74,108.6a3,3,0,0,1,2.1.69,2.93,2.93,0,0,1,.75,2.23v5.2H22.9v-4.88a2.21,2.21,0,0,0-.38-1.4,1.48,1.48,0,0,0-1.18-.46,1.76,1.76,0,0,0-1.61.71,3.93,3.93,0,0,0-.45,2.07v4h-1.7v-8H18.9l.24,1.08h.09a2.39,2.39,0,0,1,.65-.69,2.72,2.72,0,0,1,.86-.4A3.31,3.31,0,0,1,21.74,108.6Z"/><path class="cls-21" d="M30.12,108.6A3.54,3.54,0,0,1,32,109a3,3,0,0,1,1.18,1.24,4.26,4.26,0,0,1,.41,1.93v.91H28.22a2.55,2.55,0,0,0,.62,1.78,2.19,2.19,0,0,0,1.67.63,5.81,5.81,0,0,0,1.37-.15,7.74,7.74,0,0,0,1.25-.43v1.37a4.94,4.94,0,0,1-1.21.41,7.18,7.18,0,0,1-1.49.13,4.5,4.5,0,0,1-2.06-.45A3.34,3.34,0,0,1,27,115a4.62,4.62,0,0,1-.5-2.25,5.12,5.12,0,0,1,.46-2.28,3.2,3.2,0,0,1,1.27-1.42A3.62,3.62,0,0,1,30.12,108.6Zm0,1.27a1.72,1.72,0,0,0-1.29.52,2.46,2.46,0,0,0-.58,1.52h3.63a2.71,2.71,0,0,0-.2-1.06,1.52,1.52,0,0,0-.57-.72A1.78,1.78,0,0,0,30.12,109.87Z"/><path class="cls-21" d="M42.51,106.19a4.39,4.39,0,0,1,3,.84,3,3,0,0,1,.93,2.34,4,4,0,0,1-.21,1.3,2.7,2.7,0,0,1-.69,1.08,3.3,3.3,0,0,1-1.27.75,6.09,6.09,0,0,1-1.94.27H41.17v4H39.45V106.19Zm-.12,1.44H41.17v3.7h.95a4.3,4.3,0,0,0,1.38-.19,1.58,1.58,0,0,0,.86-.61,1.82,1.82,0,0,0,.3-1.1,1.67,1.67,0,0,0-.55-1.36A2.77,2.77,0,0,0,42.39,107.63Z"/><path class="cls-21" d="M50,105.52v2.81c0,.29,0,.58,0,.86s0,.49,0,.65H50a2.43,2.43,0,0,1,.62-.69,2.68,2.68,0,0,1,.83-.41,3.39,3.39,0,0,1,1-.13,3.68,3.68,0,0,1,1.56.3,2.19,2.19,0,0,1,1,1,3.47,3.47,0,0,1,.34,1.66v5.2H53.65v-4.88a2.21,2.21,0,0,0-.38-1.4,1.48,1.48,0,0,0-1.18-.46,2.08,2.08,0,0,0-1.22.32,1.76,1.76,0,0,0-.65.94,5.16,5.16,0,0,0-.19,1.52v4H48.34v-11.2Z"/><path class="cls-21" d="M60.83,108.6a3.37,3.37,0,0,1,2.28.67,2.59,2.59,0,0,1,.77,2.09v5.36h-1.2l-.32-1.13H62.3a3.93,3.93,0,0,1-.7.71,2.32,2.32,0,0,1-.83.42,3.85,3.85,0,0,1-1.15.14,3,3,0,0,1-1.27-.26,2,2,0,0,1-.89-.8,2.7,2.7,0,0,1-.32-1.37,2.09,2.09,0,0,1,.92-1.85,5.32,5.32,0,0,1,2.77-.68l1.38-.06v-.41a1.32,1.32,0,0,0-1.46-1.54,3.75,3.75,0,0,0-1.16.18,7.33,7.33,0,0,0-1.1.42L58,109.3a5.85,5.85,0,0,1,1.32-.51A6.17,6.17,0,0,1,60.83,108.6Zm1.38,4.31-1,0a3.13,3.13,0,0,0-1.78.43,1.26,1.26,0,0,0-.51,1.06,1,1,0,0,0,.35.86,1.51,1.51,0,0,0,.93.27,2.12,2.12,0,0,0,1.46-.5,1.85,1.85,0,0,0,.58-1.47Z"/><path class="cls-21" d="M70.29,108.6l.44,0a2.11,2.11,0,0,1,.41.06L71,110.26a1.68,1.68,0,0,0-.37-.06l-.39,0a2.47,2.47,0,0,0-.86.15,2,2,0,0,0-.73.45,2.15,2.15,0,0,0-.5.74,2.8,2.8,0,0,0-.18,1v4.17h-1.7v-8h1.33l.23,1.4h.08a3.36,3.36,0,0,1,.59-.77,2.58,2.58,0,0,1,.81-.57A2.36,2.36,0,0,1,70.29,108.6Z"/><path class="cls-21" d="M81.62,108.6a2.72,2.72,0,0,1,2,.69,3.09,3.09,0,0,1,.68,2.22v5.21H82.63v-4.91a2.27,2.27,0,0,0-.35-1.37A1.28,1.28,0,0,0,81.2,110a1.66,1.66,0,0,0-1.45.64,3.36,3.36,0,0,0-.44,1.87v4.23H77.62v-4.91a2.71,2.71,0,0,0-.16-1,1.18,1.18,0,0,0-.47-.61,1.4,1.4,0,0,0-.8-.21,1.81,1.81,0,0,0-1.11.32,1.77,1.77,0,0,0-.59.93,5.43,5.43,0,0,0-.18,1.51v4H72.62v-8h1.31l.24,1.07h.09a2.4,2.4,0,0,1,.61-.69,2.78,2.78,0,0,1,.81-.4,3.22,3.22,0,0,1,.93-.13,3.28,3.28,0,0,1,1.51.31,2,2,0,0,1,.91,1h.13a2.28,2.28,0,0,1,1-1A3.3,3.3,0,0,1,81.62,108.6Z"/><path class="cls-21" d="M89.81,108.6a3.37,3.37,0,0,1,2.28.67,2.6,2.6,0,0,1,.78,2.09v5.36H91.66l-.32-1.13h-.06a3.93,3.93,0,0,1-.7.71,2.32,2.32,0,0,1-.83.42,3.8,3.8,0,0,1-1.15.14,3,3,0,0,1-1.27-.26,2.08,2.08,0,0,1-.89-.8,2.7,2.7,0,0,1-.32-1.37,2.09,2.09,0,0,1,.92-1.85,5.35,5.35,0,0,1,2.77-.68l1.39-.06v-.41a1.33,1.33,0,0,0-1.47-1.54,3.75,3.75,0,0,0-1.16.18,7.33,7.33,0,0,0-1.1.42l-.54-1.19a5.94,5.94,0,0,1,1.33-.51A6,6,0,0,1,89.81,108.6Zm1.38,4.31-1,0a3.13,3.13,0,0,0-1.78.43,1.26,1.26,0,0,0-.51,1.06,1,1,0,0,0,.35.86,1.51,1.51,0,0,0,.93.27,2.12,2.12,0,0,0,1.46-.5,1.82,1.82,0,0,0,.58-1.47Z"/><path class="cls-21" d="M98.44,116.86a4,4,0,0,1-2-.44,2.92,2.92,0,0,1-1.28-1.34,5.23,5.23,0,0,1-.44-2.31,5,5,0,0,1,.49-2.37A3,3,0,0,1,96.61,109a4.26,4.26,0,0,1,2-.44,5.1,5.1,0,0,1,1.29.14,4.75,4.75,0,0,1,1,.34l-.51,1.35a6.78,6.78,0,0,0-.9-.3,3.45,3.45,0,0,0-.88-.12,2,2,0,0,0-1.16.31,1.82,1.82,0,0,0-.69.92,4.19,4.19,0,0,0-.23,1.52,4,4,0,0,0,.23,1.48,1.88,1.88,0,0,0,.68.91,2,2,0,0,0,1.12.3,3.85,3.85,0,0,0,1.17-.16,4.72,4.72,0,0,0,1-.41v1.47a4.1,4.1,0,0,1-1,.39A5.8,5.8,0,0,1,98.44,116.86Z"/><path class="cls-21" d="M103.41,105.7a1.09,1.09,0,0,1,.67.21,1,1,0,0,1,0,1.43,1.19,1.19,0,0,1-1.35,0,1.05,1.05,0,0,1,0-1.43A1.1,1.1,0,0,1,103.41,105.7Zm.84,3v8h-1.7v-8Z"/><path class="cls-21" d="M109.84,108.6a3.54,3.54,0,0,1,1.83.44,2.92,2.92,0,0,1,1.17,1.24,4.13,4.13,0,0,1,.41,1.93v.91h-5.32a2.6,2.6,0,0,0,.62,1.78,2.2,2.2,0,0,0,1.67.63,5.69,5.69,0,0,0,1.37-.15,7.52,7.52,0,0,0,1.26-.43v1.37a5.16,5.16,0,0,1-1.22.41,7.08,7.08,0,0,1-1.48.13,4.5,4.5,0,0,1-2.06-.45A3.22,3.22,0,0,1,106.7,115a4.51,4.51,0,0,1-.5-2.25,5.27,5.27,0,0,1,.45-2.28,3.22,3.22,0,0,1,1.28-1.42A3.6,3.6,0,0,1,109.84,108.6Zm0,1.27a1.72,1.72,0,0,0-1.29.52,2.46,2.46,0,0,0-.58,1.52h3.63a2.9,2.9,0,0,0-.2-1.06,1.54,1.54,0,0,0-.58-.72A1.72,1.72,0,0,0,109.84,109.87Z"/><path class="cls-21" d="M122.11,108.6a3.4,3.4,0,0,1,2.29.67,2.62,2.62,0,0,1,.77,2.09v5.36H124l-.32-1.13h-.06a4.29,4.29,0,0,1-.7.71,2.41,2.41,0,0,1-.83.42,3.89,3.89,0,0,1-1.15.14,3,3,0,0,1-1.27-.26,2,2,0,0,1-.89-.8,2.7,2.7,0,0,1-.32-1.37,2.07,2.07,0,0,1,.92-1.85,5.32,5.32,0,0,1,2.77-.68l1.38-.06v-.41a1.56,1.56,0,0,0-.38-1.18,1.54,1.54,0,0,0-1.09-.36,3.85,3.85,0,0,0-1.16.18,7.64,7.64,0,0,0-1.09.42l-.55-1.19a6.13,6.13,0,0,1,2.88-.7Zm1.38,4.31-1,0a3.13,3.13,0,0,0-1.78.43,1.26,1.26,0,0,0-.51,1.06,1,1,0,0,0,.35.86,1.47,1.47,0,0,0,.93.27,2.14,2.14,0,0,0,1.46-.5,1.84,1.84,0,0,0,.57-1.47Z"/><path class="cls-21" d="M133.19,116.72l-3-8H132l1.64,4.68a8.32,8.32,0,0,1,.29,1,7.55,7.55,0,0,1,.18.87h.06a7.55,7.55,0,0,1,.19-.88c.1-.34.2-.66.3-.95l1.64-4.68H138l-3,8Z"/><path class="cls-21" d="M146.3,112.72a5.57,5.57,0,0,1-.26,1.76,3.36,3.36,0,0,1-.76,1.3,3.25,3.25,0,0,1-1.19.8,4.16,4.16,0,0,1-1.58.28,3.85,3.85,0,0,1-1.5-.28,3.33,3.33,0,0,1-1.19-.8,3.65,3.65,0,0,1-.77-1.3,5.29,5.29,0,0,1-.27-1.76,5.05,5.05,0,0,1,.45-2.24,3.23,3.23,0,0,1,1.31-1.4,4.05,4.05,0,0,1,2-.48,3.86,3.86,0,0,1,1.95.48,3.29,3.29,0,0,1,1.31,1.4A4.81,4.81,0,0,1,146.3,112.72Zm-5.78,0a4.7,4.7,0,0,0,.21,1.49,1.9,1.9,0,0,0,3.62,0,4.7,4.7,0,0,0,.21-1.49,4.55,4.55,0,0,0-.21-1.48,1.8,1.8,0,0,0-.66-.93,1.88,1.88,0,0,0-1.16-.32,1.72,1.72,0,0,0-1.53.7A3.6,3.6,0,0,0,140.52,112.72Z"/><path class="cls-21" d="M151.21,115.49a3.49,3.49,0,0,0,.65-.06,5.75,5.75,0,0,0,.59-.14v1.28a3.72,3.72,0,0,1-.72.21,5.64,5.64,0,0,1-.93.08,3.16,3.16,0,0,1-1.22-.22,1.87,1.87,0,0,1-.86-.79,3.12,3.12,0,0,1-.31-1.53V110h-1.09v-.76l1.17-.6L149,107h1.07v1.77h2.28V110h-2.28v4.26a1.22,1.22,0,0,0,.3.9A1.08,1.08,0,0,0,151.21,115.49Z"/><path class="cls-21" d="M158.11,108.6l.44,0a2.11,2.11,0,0,1,.41.06l-.16,1.58a1.68,1.68,0,0,0-.37-.06l-.39,0a2.47,2.47,0,0,0-.86.15,2,2,0,0,0-.73.45,2.15,2.15,0,0,0-.5.74,2.8,2.8,0,0,0-.18,1v4.17h-1.7v-8h1.33l.23,1.4h.08a3.36,3.36,0,0,1,.59-.77,2.58,2.58,0,0,1,.81-.57A2.36,2.36,0,0,1,158.11,108.6Z"/><path class="cls-21" d="M163.61,108.6a3.54,3.54,0,0,1,1.83.44,2.92,2.92,0,0,1,1.17,1.24,4.13,4.13,0,0,1,.41,1.93v.91H161.7a2.56,2.56,0,0,0,.63,1.78,2.16,2.16,0,0,0,1.66.63,5.69,5.69,0,0,0,1.37-.15,7.52,7.52,0,0,0,1.26-.43v1.37a5,5,0,0,1-1.22.41,7,7,0,0,1-1.48.13,4.5,4.5,0,0,1-2.06-.45,3.28,3.28,0,0,1-1.39-1.37,4.62,4.62,0,0,1-.5-2.25,5.27,5.27,0,0,1,.45-2.28,3.22,3.22,0,0,1,1.28-1.42A3.6,3.6,0,0,1,163.61,108.6Zm0,1.27a1.72,1.72,0,0,0-1.29.52,2.46,2.46,0,0,0-.58,1.52h3.63a2.9,2.9,0,0,0-.2-1.06,1.54,1.54,0,0,0-.58-.72A1.72,1.72,0,0,0,163.61,109.87Z"/><path class="cls-21" d="M12.31,126.29a2.81,2.81,0,0,1,2.28,1,4.73,4.73,0,0,1,.86,3.08,5.8,5.8,0,0,1-.4,2.27,3.06,3.06,0,0,1-1.12,1.4,2.92,2.92,0,0,1-1.67.47,3.05,3.05,0,0,1-1-.16,2.51,2.51,0,0,1-.76-.41,2.78,2.78,0,0,1-.53-.56h-.1c0,.19,0,.41.07.64s0,.44,0,.64v3.24H8.22v-11.5H9.6l.24,1.1h.08a3.48,3.48,0,0,1,.54-.62,2.24,2.24,0,0,1,.78-.46A3.12,3.12,0,0,1,12.31,126.29Zm-.46,1.38a1.94,1.94,0,0,0-1.11.28,1.52,1.52,0,0,0-.62.83,4.82,4.82,0,0,0-.2,1.39v.24a5.4,5.4,0,0,0,.18,1.5,1.73,1.73,0,0,0,.61.93,1.89,1.89,0,0,0,1.17.32,1.56,1.56,0,0,0,1-.33,2,2,0,0,0,.61-1,5,5,0,0,0,.2-1.47,3.69,3.69,0,0,0-.46-2A1.55,1.55,0,0,0,11.85,127.67Z"/><path class="cls-21" d="M21.44,126.29l.43,0a2.35,2.35,0,0,1,.42.06L22.13,128a1.79,1.79,0,0,0-.37-.06,2.89,2.89,0,0,0-.4,0,2.46,2.46,0,0,0-.86.14,2,2,0,0,0-1.22,1.19,2.8,2.8,0,0,0-.18,1v4.17H17.4v-8h1.32l.23,1.4H19a3.66,3.66,0,0,1,.59-.77,2.83,2.83,0,0,1,.81-.57A2.4,2.4,0,0,1,21.44,126.29Z"/><path class="cls-21" d="M30.82,130.41a5.57,5.57,0,0,1-.26,1.76,3.63,3.63,0,0,1-.76,1.3,3.4,3.4,0,0,1-1.19.81,4.4,4.4,0,0,1-1.58.27,4.1,4.1,0,0,1-1.51-.27,3.45,3.45,0,0,1-1.18-.81,3.65,3.65,0,0,1-.77-1.3,5.68,5.68,0,0,1,.18-4,3.17,3.17,0,0,1,1.31-1.4,4,4,0,0,1,2-.48,3.85,3.85,0,0,1,1.94.48,3.34,3.34,0,0,1,1.32,1.41A4.74,4.74,0,0,1,30.82,130.41Zm-5.79,0a4.68,4.68,0,0,0,.22,1.49,2,2,0,0,0,3,.94,1.8,1.8,0,0,0,.65-.94,4.7,4.7,0,0,0,.21-1.49,4.55,4.55,0,0,0-.21-1.48,1.73,1.73,0,0,0-.65-.93,2,2,0,0,0-1.16-.32,1.72,1.72,0,0,0-1.53.7A3.6,3.6,0,0,0,25,130.41Z"/><path class="cls-21" d="M34.52,130.33l-2.66-3.89h1.93l1.82,2.8,1.83-2.8h1.92l-2.68,3.89,2.82,4.08H37.56l-2-3-2,3H31.73Z"/><path class="cls-21" d="M41.74,123.39a1.11,1.11,0,0,1,.67.21.83.83,0,0,1,.28.72.83.83,0,0,1-.28.71,1.12,1.12,0,0,1-.67.22,1.14,1.14,0,0,1-.69-.22.85.85,0,0,1-.27-.71.86.86,0,0,1,.27-.72A1.13,1.13,0,0,1,41.74,123.39Zm.83,3v8H40.88v-8Z"/><path class="cls-21" d="M54,126.29a2.7,2.7,0,0,1,2,.69,3,3,0,0,1,.68,2.22v5.21H55V129.5a2.27,2.27,0,0,0-.35-1.37,1.26,1.26,0,0,0-1.07-.46,1.62,1.62,0,0,0-1.45.65,3.21,3.21,0,0,0-.45,1.86v4.23H50V129.5a3,3,0,0,0-.15-1,1.23,1.23,0,0,0-.47-.61,1.44,1.44,0,0,0-.8-.21,1.82,1.82,0,0,0-1.12.32,1.77,1.77,0,0,0-.59.93,5.43,5.43,0,0,0-.18,1.51v4H45v-8h1.32l.23,1.07h.1a2.1,2.1,0,0,1,.61-.68,2.58,2.58,0,0,1,.81-.41,3.1,3.1,0,0,1,.92-.13,3.28,3.28,0,0,1,1.51.31,2,2,0,0,1,.91,1h.13a2.22,2.22,0,0,1,1-1A3.23,3.23,0,0,1,54,126.29Z"/><path class="cls-21" d="M59.91,123.39a1.09,1.09,0,0,1,.67.21,1,1,0,0,1,0,1.43,1.15,1.15,0,0,1-1.35,0,1.05,1.05,0,0,1,0-1.43A1.1,1.1,0,0,1,59.91,123.39Zm.84,3v8h-1.7v-8Z"/><path class="cls-21" d="M66.13,133.19a3.7,3.7,0,0,0,.66-.07l.59-.14v1.28a3.85,3.85,0,0,1-.73.21,5.64,5.64,0,0,1-.93.08,3.16,3.16,0,0,1-1.22-.22,1.78,1.78,0,0,1-.85-.78,3.15,3.15,0,0,1-.32-1.54v-4.28H62.24V127l1.17-.59.55-1.71H65v1.77h2.28v1.29H65V132a1.22,1.22,0,0,0,.3.9A1.09,1.09,0,0,0,66.13,133.19Z"/><path class="cls-21" d="M72.17,126.29a3.65,3.65,0,0,1,1.83.44A2.92,2.92,0,0,1,75.17,128a4.13,4.13,0,0,1,.41,1.93v.91H70.26a2.56,2.56,0,0,0,.63,1.78,2.16,2.16,0,0,0,1.66.63,5.69,5.69,0,0,0,1.37-.15,6.71,6.71,0,0,0,1.26-.43V134a5,5,0,0,1-1.22.41,7,7,0,0,1-1.48.13,4.5,4.5,0,0,1-2.06-.45A3.22,3.22,0,0,1,69,132.73a4.51,4.51,0,0,1-.5-2.25A5.27,5.27,0,0,1,69,128.2a3.28,3.28,0,0,1,1.28-1.42A3.6,3.6,0,0,1,72.17,126.29Zm0,1.27a1.72,1.72,0,0,0-1.29.52,2.46,2.46,0,0,0-.58,1.52h3.63a2.9,2.9,0,0,0-.2-1.06,1.65,1.65,0,0,0-.58-.72A1.72,1.72,0,0,0,72.17,127.56Zm2.35-4.45v.15c-.11.14-.27.3-.46.5l-.64.61c-.23.21-.46.42-.69.61s-.43.36-.61.5H71v-.19c.16-.18.33-.4.53-.66s.39-.51.57-.78.35-.51.48-.74Z"/></svg>