<svg id="Calque_1" data-name="Calque 1" xmlns="http://www.w3.org/2000/svg" xmlns:xlink="http://www.w3.org/1999/xlink" viewBox="0 0 303 208"><defs><style>.cls-1{fill:url(#Dégradé_sans_nom_10);}.cls-2{fill:#fff;}.cls-3{fill:#8cbef9;}.cls-4{fill:#8dbef9;}.cls-5{fill:#8ebff9;}.cls-6{fill:#8fbff9;}.cls-7{fill:#90c0f9;}.cls-8{fill:#91c0f9;}.cls-9{fill:#92c1fa;}.cls-10{fill:#93c1fa;}.cls-11{fill:#94c2fa;}.cls-12{fill:#95c2fa;}.cls-13{fill:#96c3fa;}.cls-14{fill:#97c3fa;}.cls-15{fill:#98c4fa;}.cls-16{fill:#99c4fa;}.cls-17{fill:#9ac5fa;}.cls-18{fill:#9bc5fa;}.cls-19{fill:#9cc6fa;}.cls-20{fill:#9dc6fa;}.cls-21{fill:#9ec7fb;}.cls-22{fill:#9fc7fb;}.cls-23{fill:#a0c8fb;}.cls-24{fill:#a1c8fb;}.cls-25{fill:#a2c9fb;}.cls-26{fill:#a3c9fb;}.cls-27{fill:#a4cafb;}.cls-28{fill:#a5cafb;}.cls-29{fill:#a6cbfb;}.cls-30{fill:#a7cbfb;}.cls-31{fill:#a8ccfb;}.cls-32{fill:#a9ccfb;}.cls-33{fill:#a9cdfc;}.cls-34{fill:#aacdfc;}.cls-35{fill:#abcefc;}.cls-36{fill:#accefc;}.cls-37{fill:#adcffc;}.cls-38{fill:#aecffc;}.cls-39{fill:#afd0fc;}.cls-40{fill:#b0d0fc;}.cls-41{fill:#b1d1fc;}.cls-42{fill:#b2d1fc;}.cls-43{fill:#b3d2fc;}.cls-44{fill:#b4d2fc;}.cls-45{fill:#b5d3fd;}.cls-46{fill:#b6d3fd;}.cls-47{fill:#b7d4fd;}.cls-48{fill:#b8d4fd;}.cls-49{fill:#b9d5fd;}.cls-50{fill:#bad5fd;}.cls-51{fill:#bbd6fd;}.cls-52{fill:#bcd6fd;}.cls-53{fill:#bdd7fd;}.cls-54{fill:#bed7fd;}.cls-55{fill:#bfd8fd;}.cls-56{fill:#c0d8fd;}.cls-57{fill:#c1d9fe;}.cls-58{fill:#c2d9fe;}.cls-59{fill:#c3dafe;}.cls-60{fill:#c4dafe;}.cls-61{fill:#c5dbfe;}.cls-62{fill:#c6dbfe;}.cls-63{fill:#fefefe;}.cls-64{fill:#b2d5fe;}.cls-65{fill:#feb684;}.cls-66{fill:#6fa6d5;}.cls-67{fill:#323352;}.cls-68{fill:#d6e9fe;}.cls-69{fill:#0c122d;}.cls-70{fill:#f58940;}.cls-71{fill:#101344;}.cls-72{fill:#f0f7fe;}.cls-73{fill:#203b6c;}.cls-74{fill:#fdfdfe;}.cls-75{fill:#1e3055;}</style><linearGradient id="Dégradé_sans_nom_10" x1="0.01" y1="104" x2="303.01" y2="104" gradientUnits="userSpaceOnUse"><stop offset="0" stop-color="blue"/><stop offset="1" stop-color="#29abe2"/></linearGradient></defs><title>pages_ims</title><rect class="cls-1" x="0.01" y="0.5" width="303" height="207" rx="29.38"/><path class="cls-2" d="M21.17,90.67,20,87.47h-4.4l-1.13,3.2h-2l4.29-11.56H18.9l4.27,11.56Zm-1.62-4.82L18.46,82.7l-.18-.58L18,81.36c-.08-.26-.14-.48-.2-.66-.05.22-.11.46-.19.72s-.15.52-.22.75-.12.41-.16.53l-1.1,3.15Z"/><path class="cls-2" d="M26.5,90.67,23.18,82h2l1.8,5.12c.11.33.22.68.31,1.06a9.16,9.16,0,0,1,.2,1h.06a7,7,0,0,1,.22-1c.1-.38.21-.73.32-1.05L29.84,82h2l-3.32,8.72Z"/><path class="cls-2" d="M40.83,86.29a6,6,0,0,1-.28,1.93,3.71,3.71,0,0,1-.83,1.42,3.45,3.45,0,0,1-1.3.88,4.52,4.52,0,0,1-1.73.31,4.17,4.17,0,0,1-1.64-.31,3.61,3.61,0,0,1-1.3-.88,4,4,0,0,1-.84-1.42,5.71,5.71,0,0,1-.3-1.93,5.34,5.34,0,0,1,.5-2.44,3.48,3.48,0,0,1,1.43-1.53,4.38,4.38,0,0,1,2.21-.53,4.2,4.2,0,0,1,2.12.53,3.56,3.56,0,0,1,1.44,1.53A5.23,5.23,0,0,1,40.83,86.29Zm-6.32,0a5.16,5.16,0,0,0,.23,1.63,2.17,2.17,0,0,0,.72,1,2.09,2.09,0,0,0,1.26.36,1.91,1.91,0,0,0,2-1.4,5.86,5.86,0,0,0,0-3.25,2,2,0,0,0-.72-1,2.11,2.11,0,0,0-1.26-.35,1.9,1.9,0,0,0-1.68.77A3.9,3.9,0,0,0,34.51,86.29Z"/><path class="cls-2" d="M43.9,78.62a1.19,1.19,0,0,1,.73.22,1.16,1.16,0,0,1,0,1.58,1.2,1.2,0,0,1-.73.23,1.24,1.24,0,0,1-.75-.23,1.19,1.19,0,0,1,0-1.58A1.23,1.23,0,0,1,43.9,78.62ZM44.81,82v8.72H43V82Z"/><path class="cls-2" d="M51.87,81.79l.48,0a3.91,3.91,0,0,1,.45.07l-.17,1.73a2,2,0,0,0-.41-.07l-.43,0a2.7,2.7,0,0,0-.94.17A2.15,2.15,0,0,0,49.51,85a3,3,0,0,0-.2,1.13v4.56H47.45V82H48.9l.26,1.54h.08a4.08,4.08,0,0,1,.65-.85,3.19,3.19,0,0,1,.88-.62A2.67,2.67,0,0,1,51.87,81.79Z"/><path class="cls-2" d="M66.2,82v8.72H64.74l-.25-1.17h-.1a2.47,2.47,0,0,1-.7.74,3.06,3.06,0,0,1-.95.44,3.88,3.88,0,0,1-1.09.15A3.73,3.73,0,0,1,60,90.49a2.32,2.32,0,0,1-1.07-1,4,4,0,0,1-.37-1.81V82h1.86V87.3a2.4,2.4,0,0,0,.41,1.52,1.57,1.57,0,0,0,1.29.5A2.31,2.31,0,0,0,63.43,89a1.81,1.81,0,0,0,.7-1,5.64,5.64,0,0,0,.21-1.66V82Z"/><path class="cls-2" d="M73.39,81.79A2.8,2.8,0,0,1,76.51,85v5.68H74.66V85.33a2.35,2.35,0,0,0-.42-1.52A1.57,1.57,0,0,0,73,83.3a1.91,1.91,0,0,0-1.76.78,4.24,4.24,0,0,0-.49,2.26v4.33H68.85V82h1.44l.26,1.19h.1a2.55,2.55,0,0,1,.7-.76,3.44,3.44,0,0,1,1-.44A3.93,3.93,0,0,1,73.39,81.79Z"/><path class="cls-2" d="M93.13,81.79a3,3,0,0,1,2.21.76A3.37,3.37,0,0,1,96.08,85v5.7H94.23V85.3a2.44,2.44,0,0,0-.39-1.5,1.38,1.38,0,0,0-1.17-.5,1.81,1.81,0,0,0-1.59.71,3.62,3.62,0,0,0-.48,2v4.62H88.75V85.3a3.24,3.24,0,0,0-.17-1.11,1.32,1.32,0,0,0-.51-.66,1.62,1.62,0,0,0-.88-.23,1.93,1.93,0,0,0-1.21.35,1.85,1.85,0,0,0-.65,1,5.64,5.64,0,0,0-.2,1.65v4.35H83.28V82h1.44L85,83.13h.1a2.32,2.32,0,0,1,.67-.75,2.82,2.82,0,0,1,.88-.45,3.86,3.86,0,0,1,1-.14,3.52,3.52,0,0,1,1.64.34,2.17,2.17,0,0,1,1,1.05h.15a2.42,2.42,0,0,1,1.14-1.05A3.58,3.58,0,0,1,93.13,81.79Z"/><path class="cls-2" d="M102.14,81.79a4,4,0,0,1,2,.48,3.24,3.24,0,0,1,1.28,1.36,4.59,4.59,0,0,1,.45,2.11v1h-5.82a2.86,2.86,0,0,0,.68,2,2.41,2.41,0,0,0,1.82.68,6.22,6.22,0,0,0,1.5-.16,8.42,8.42,0,0,0,1.38-.48v1.51a6.73,6.73,0,0,1-1.33.45,8.53,8.53,0,0,1-1.63.14,4.91,4.91,0,0,1-2.25-.5,3.58,3.58,0,0,1-1.52-1.49,5,5,0,0,1-.55-2.47,5.73,5.73,0,0,1,.5-2.49A3.59,3.59,0,0,1,100,82.32,4.09,4.09,0,0,1,102.14,81.79Zm0,1.39a1.86,1.86,0,0,0-1.42.57,2.65,2.65,0,0,0-.63,1.66h4a3.24,3.24,0,0,0-.22-1.16,1.74,1.74,0,0,0-.63-.78A1.87,1.87,0,0,0,102.14,83.18Z"/><path class="cls-2" d="M110.88,90.83a3.08,3.08,0,0,1-2.5-1.14,6.47,6.47,0,0,1,0-6.75,3.11,3.11,0,0,1,2.52-1.15,3.41,3.41,0,0,1,1.16.18,2.59,2.59,0,0,1,.85.47,3,3,0,0,1,.61.67h.09c0-.16-.06-.4-.09-.7s-.05-.59-.05-.86V78.42h1.86V90.67H113.9l-.33-1.19h-.08a3,3,0,0,1-.6.68,2.83,2.83,0,0,1-.85.49A3.33,3.33,0,0,1,110.88,90.83Zm.52-1.51a1.92,1.92,0,0,0,1.68-.68,3.67,3.67,0,0,0,.5-2.06v-.24a4.33,4.33,0,0,0-.47-2.25,1.84,1.84,0,0,0-1.72-.78,1.71,1.71,0,0,0-1.53.81,4.06,4.06,0,0,0-.52,2.24,3.85,3.85,0,0,0,.52,2.2A1.74,1.74,0,0,0,111.4,89.32Z"/><path class="cls-2" d="M121.46,81.79a3.92,3.92,0,0,1,2,.48,3.2,3.2,0,0,1,1.29,1.36,4.6,4.6,0,0,1,.44,2.11v1h-5.81a2.82,2.82,0,0,0,.68,2,2.41,2.41,0,0,0,1.82.68,6.22,6.22,0,0,0,1.5-.16,8.32,8.32,0,0,0,1.37-.48v1.51a6.32,6.32,0,0,1-1.33.45,8.35,8.35,0,0,1-1.62.14,4.88,4.88,0,0,1-2.25-.5A3.58,3.58,0,0,1,118,88.84a5,5,0,0,1-.55-2.47,5.73,5.73,0,0,1,.5-2.49,3.59,3.59,0,0,1,1.39-1.56A4.08,4.08,0,0,1,121.46,81.79Zm0,1.39a1.85,1.85,0,0,0-1.41.57,2.65,2.65,0,0,0-.63,1.66h4a3,3,0,0,0-.21-1.16,1.74,1.74,0,0,0-.63-.78A1.89,1.89,0,0,0,121.46,83.18Z"/><path class="cls-2" d="M130.79,90.83a4.53,4.53,0,0,1-2.14-.48,3.2,3.2,0,0,1-1.39-1.47,5.69,5.69,0,0,1-.49-2.52,5.48,5.48,0,0,1,.54-2.6,3.38,3.38,0,0,1,1.48-1.49,4.76,4.76,0,0,1,2.18-.48,6.1,6.1,0,0,1,1.41.15,5.28,5.28,0,0,1,1.07.38l-.55,1.48a8.06,8.06,0,0,0-1-.33,3.79,3.79,0,0,0-1-.14,2.29,2.29,0,0,0-1.27.34,2,2,0,0,0-.76,1,4.94,4.94,0,0,0-.24,1.66,4.52,4.52,0,0,0,.25,1.62,2,2,0,0,0,.75,1,2.14,2.14,0,0,0,1.22.33,4.27,4.27,0,0,0,1.28-.17,5,5,0,0,0,1.07-.45v1.61a3.91,3.91,0,0,1-1.06.42A6.11,6.11,0,0,1,130.79,90.83Z"/><path class="cls-2" d="M136.23,78.62a1.21,1.21,0,0,1,.73.22,1.16,1.16,0,0,1,0,1.58,1.31,1.31,0,0,1-1.48,0,1.19,1.19,0,0,1,0-1.58A1.21,1.21,0,0,1,136.23,78.62Zm.91,3.33v8.72h-1.85V82Z"/><path class="cls-2" d="M144.33,81.79a3.23,3.23,0,0,1,2.29.76,3.18,3.18,0,0,1,.83,2.44v5.68H145.6V85.33a2.35,2.35,0,0,0-.42-1.52,1.57,1.57,0,0,0-1.29-.51,1.91,1.91,0,0,0-1.76.78,4.24,4.24,0,0,0-.49,2.26v4.33h-1.86V82h1.45l.26,1.19h.1a2.55,2.55,0,0,1,.7-.76,3.31,3.31,0,0,1,1-.44A3.93,3.93,0,0,1,144.33,81.79Z"/><path class="cls-2" d="M157.15,90.83a3.07,3.07,0,0,1-2.5-1.14,6.44,6.44,0,0,1,0-6.75,3.11,3.11,0,0,1,2.52-1.15,3.41,3.41,0,0,1,1.16.18,2.64,2.64,0,0,1,.86.47,3.52,3.52,0,0,1,.61.67h.08c0-.16,0-.4-.09-.7s-.05-.59-.05-.86V78.42h1.86V90.67h-1.45l-.33-1.19h-.08a2.92,2.92,0,0,1-.59.68,3,3,0,0,1-.85.49A3.41,3.41,0,0,1,157.15,90.83Zm.51-1.51a1.9,1.9,0,0,0,1.68-.68,3.67,3.67,0,0,0,.51-2.06v-.24a4.33,4.33,0,0,0-.48-2.25,1.84,1.84,0,0,0-1.72-.78,1.68,1.68,0,0,0-1.52.81,4.05,4.05,0,0,0-.53,2.24,3.84,3.84,0,0,0,.53,2.2A1.72,1.72,0,0,0,157.66,89.32Z"/><path class="cls-2" d="M167.73,81.79a4,4,0,0,1,2,.48A3.24,3.24,0,0,1,171,83.63a4.59,4.59,0,0,1,.45,2.11v1h-5.82a2.86,2.86,0,0,0,.68,2,2.41,2.41,0,0,0,1.82.68,6.22,6.22,0,0,0,1.5-.16,8.11,8.11,0,0,0,1.38-.48v1.51a6.73,6.73,0,0,1-1.33.45,8.35,8.35,0,0,1-1.62.14,4.92,4.92,0,0,1-2.26-.5,3.58,3.58,0,0,1-1.52-1.49,5.15,5.15,0,0,1-.55-2.47,5.73,5.73,0,0,1,.5-2.49,3.59,3.59,0,0,1,1.39-1.56A4.09,4.09,0,0,1,167.73,81.79Zm0,1.39a1.86,1.86,0,0,0-1.42.57,2.65,2.65,0,0,0-.63,1.66h4a3.24,3.24,0,0,0-.22-1.16,1.74,1.74,0,0,0-.63-.78A1.87,1.87,0,0,0,167.73,83.18Z"/><path class="cls-2" d="M16.77,110.18a3.08,3.08,0,0,1-2.5-1.14,6.47,6.47,0,0,1,0-6.75,3.11,3.11,0,0,1,2.52-1.15,3.41,3.41,0,0,1,1.16.18,2.49,2.49,0,0,1,.85.47,3.27,3.27,0,0,1,.62.67h.08c0-.16-.06-.4-.09-.7s-.05-.6-.05-.86V97.77h1.86V110H19.79l-.33-1.19h-.08a3,3,0,0,1-.6.68,3,3,0,0,1-.84.49A3.43,3.43,0,0,1,16.77,110.18Zm.52-1.51A1.92,1.92,0,0,0,19,108a3.59,3.59,0,0,0,.5-2.06v-.24a4.33,4.33,0,0,0-.47-2.25,1.84,1.84,0,0,0-1.72-.78,1.72,1.72,0,0,0-1.53.8,4.12,4.12,0,0,0-.52,2.25,3.85,3.85,0,0,0,.52,2.2A1.75,1.75,0,0,0,17.29,108.67Z"/><path class="cls-2" d="M27.36,101.14a4,4,0,0,1,2,.48A3.24,3.24,0,0,1,30.64,103a4.59,4.59,0,0,1,.45,2.11v1H25.27a2.86,2.86,0,0,0,.68,2,2.41,2.41,0,0,0,1.82.68,6.22,6.22,0,0,0,1.5-.16,8.42,8.42,0,0,0,1.38-.48v1.51a6.1,6.1,0,0,1-1.33.44,7.74,7.74,0,0,1-1.63.15,4.91,4.91,0,0,1-2.25-.5,3.55,3.55,0,0,1-1.52-1.5,5,5,0,0,1-.55-2.46,5.67,5.67,0,0,1,.5-2.49,3.59,3.59,0,0,1,1.39-1.56A4.09,4.09,0,0,1,27.36,101.14Zm0,1.39a1.86,1.86,0,0,0-1.42.57,2.65,2.65,0,0,0-.63,1.66h4a3.2,3.2,0,0,0-.22-1.16,1.69,1.69,0,0,0-.63-.78A1.87,1.87,0,0,0,27.36,102.53Z"/><path class="cls-2" d="M40.87,110.18a4.53,4.53,0,0,1-2.14-.48,3.18,3.18,0,0,1-1.39-1.48,5.63,5.63,0,0,1-.49-2.52,5.44,5.44,0,0,1,.54-2.59,3.33,3.33,0,0,1,1.48-1.49,4.76,4.76,0,0,1,2.18-.48,6.1,6.1,0,0,1,1.41.15,4.74,4.74,0,0,1,1.07.38L43,103.15a5.65,5.65,0,0,0-1-.33,3.79,3.79,0,0,0-1-.14,2.21,2.21,0,0,0-1.27.34,2,2,0,0,0-.76,1,4.94,4.94,0,0,0-.24,1.66,4.52,4.52,0,0,0,.25,1.62,2,2,0,0,0,.75,1,2.14,2.14,0,0,0,1.22.33,4.27,4.27,0,0,0,1.28-.17,5.63,5.63,0,0,0,1.07-.45v1.61a3.91,3.91,0,0,1-1.06.42A6.11,6.11,0,0,1,40.87,110.18Z"/><path class="cls-2" d="M53.08,105.64a6,6,0,0,1-.28,1.93A3.82,3.82,0,0,1,52,109a3.56,3.56,0,0,1-1.31.88,4.52,4.52,0,0,1-1.73.31,4.2,4.2,0,0,1-1.64-.31A3.61,3.61,0,0,1,46,109a4,4,0,0,1-.84-1.42,5.71,5.71,0,0,1-.3-1.93,5.34,5.34,0,0,1,.5-2.44,3.48,3.48,0,0,1,1.43-1.53,4.31,4.31,0,0,1,2.21-.53,4.1,4.1,0,0,1,2.12.53,3.64,3.64,0,0,1,1.45,1.53A5.36,5.36,0,0,1,53.08,105.64Zm-6.32,0a5.16,5.16,0,0,0,.23,1.63,2.12,2.12,0,0,0,.73,1,2.06,2.06,0,0,0,3.23-1A5.86,5.86,0,0,0,51,104a2,2,0,0,0-.72-1,2,2,0,0,0-1.26-.35,1.9,1.9,0,0,0-1.68.77A3.9,3.9,0,0,0,46.76,105.64Z"/><path class="cls-2" d="M59.75,101.14a3.26,3.26,0,0,1,2.3.76,3.16,3.16,0,0,1,.82,2.43V110H61v-5.34a2.34,2.34,0,0,0-.42-1.52,1.55,1.55,0,0,0-1.29-.51,1.92,1.92,0,0,0-1.76.78,4.33,4.33,0,0,0-.49,2.26V110H55.21V101.3h1.44l.26,1.18H57a2.68,2.68,0,0,1,.71-.75,3.25,3.25,0,0,1,.94-.44A4,4,0,0,1,59.75,101.14Z"/><path class="cls-2" d="M69.81,102.71H67.69V110H65.84v-7.31H64.41v-.89l1.43-.54v-.61a3.79,3.79,0,0,1,.35-1.76,2,2,0,0,1,1-.94,3.93,3.93,0,0,1,1.57-.29,5.25,5.25,0,0,1,1.09.1,7.14,7.14,0,0,1,.84.22l-.48,1.41c-.18-.06-.38-.12-.6-.17a4,4,0,0,0-.71-.07,1.1,1.1,0,0,0-.93.39,2,2,0,0,0-.29,1.15v.59h2.12ZM72.23,98a1.21,1.21,0,0,1,.73.22.92.92,0,0,1,.31.79.89.89,0,0,1-.31.78,1.26,1.26,0,0,1-1.48,0,.91.91,0,0,1-.3-.78,1,1,0,0,1,.3-.79A1.21,1.21,0,0,1,72.23,98Zm.91,3.33V110H71.29V101.3Z"/><path class="cls-2" d="M79.26,101.14a4,4,0,0,1,2,.48A3.24,3.24,0,0,1,82.54,103a4.59,4.59,0,0,1,.45,2.11v1H77.17a2.86,2.86,0,0,0,.68,2,2.41,2.41,0,0,0,1.82.68,6.22,6.22,0,0,0,1.5-.16,8.42,8.42,0,0,0,1.38-.48v1.51a6.1,6.1,0,0,1-1.33.44,7.74,7.74,0,0,1-1.63.15,4.91,4.91,0,0,1-2.25-.5,3.55,3.55,0,0,1-1.52-1.5,5,5,0,0,1-.55-2.46,5.67,5.67,0,0,1,.5-2.49,3.59,3.59,0,0,1,1.39-1.56A4.09,4.09,0,0,1,79.26,101.14Zm0,1.39a1.86,1.86,0,0,0-1.42.57,2.65,2.65,0,0,0-.63,1.66h4A3.2,3.2,0,0,0,81,103.6a1.69,1.69,0,0,0-.63-.78A1.87,1.87,0,0,0,79.26,102.53Z"/><path class="cls-2" d="M89.62,101.14a3.23,3.23,0,0,1,2.29.76,3.16,3.16,0,0,1,.82,2.43V110H90.88v-5.34a2.4,2.4,0,0,0-.41-1.52,1.57,1.57,0,0,0-1.29-.51,1.9,1.9,0,0,0-1.76.78,4.23,4.23,0,0,0-.5,2.26V110H85.07V101.3h1.44l.26,1.18h.11a2.64,2.64,0,0,1,.7-.75,3.31,3.31,0,0,1,1-.44A3.88,3.88,0,0,1,89.62,101.14Z"/><path class="cls-2" d="M98.83,110.18a4.48,4.48,0,0,1-2.14-.48,3.2,3.2,0,0,1-1.4-1.48,5.77,5.77,0,0,1-.49-2.52,5.44,5.44,0,0,1,.54-2.59,3.38,3.38,0,0,1,1.48-1.49,4.79,4.79,0,0,1,2.18-.48,6.1,6.1,0,0,1,1.41.15,4.83,4.83,0,0,1,1.08.38l-.55,1.48a5.75,5.75,0,0,0-1-.33,3.73,3.73,0,0,0-1-.14,2.23,2.23,0,0,0-1.27.34,2,2,0,0,0-.75,1,4.68,4.68,0,0,0-.25,1.66,4.52,4.52,0,0,0,.25,1.62,2,2,0,0,0,.75,1,2.16,2.16,0,0,0,1.22.33,4.18,4.18,0,0,0,1.28-.17,5.37,5.37,0,0,0,1.07-.45v1.61a3.91,3.91,0,0,1-1.06.42A6.08,6.08,0,0,1,98.83,110.18Z"/><path class="cls-2" d="M106.8,101.14a4,4,0,0,1,2,.48,3.24,3.24,0,0,1,1.28,1.36,4.59,4.59,0,0,1,.45,2.11v1h-5.82a2.86,2.86,0,0,0,.68,2,2.41,2.41,0,0,0,1.82.68,6.22,6.22,0,0,0,1.5-.16,8.42,8.42,0,0,0,1.38-.48v1.51a6.1,6.1,0,0,1-1.33.44,7.57,7.57,0,0,1-1.62.15,4.92,4.92,0,0,1-2.26-.5,3.55,3.55,0,0,1-1.52-1.5,5,5,0,0,1-.55-2.46,5.67,5.67,0,0,1,.5-2.49,3.59,3.59,0,0,1,1.39-1.56A4.09,4.09,0,0,1,106.8,101.14Zm0,1.39a1.86,1.86,0,0,0-1.42.57,2.65,2.65,0,0,0-.63,1.66h4a3.2,3.2,0,0,0-.22-1.16,1.69,1.69,0,0,0-.63-.78A1.87,1.87,0,0,0,106.8,102.53Z"/><path class="cls-2" d="M122.66,107.53a2.44,2.44,0,0,1-.42,1.45,2.55,2.55,0,0,1-1.21.89,5.41,5.41,0,0,1-2,.31,8.79,8.79,0,0,1-1.57-.13,5.62,5.62,0,0,1-1.24-.4v-1.6a7.88,7.88,0,0,0,1.4.5,5.19,5.19,0,0,0,1.47.22,2.33,2.33,0,0,0,1.31-.29.89.89,0,0,0,.4-.77.84.84,0,0,0-.16-.51,1.85,1.85,0,0,0-.6-.46,13.52,13.52,0,0,0-1.28-.58,10.78,10.78,0,0,1-1.39-.66,2.39,2.39,0,0,1-.86-.8,2.27,2.27,0,0,1-.29-1.2,2,2,0,0,1,.92-1.76,4.37,4.37,0,0,1,2.43-.6,6.66,6.66,0,0,1,1.51.16,7.2,7.2,0,0,1,1.4.47l-.58,1.39a11.36,11.36,0,0,0-1.19-.43,4.48,4.48,0,0,0-1.21-.17,2.28,2.28,0,0,0-1.09.22.7.7,0,0,0-.37.63.77.77,0,0,0,.18.52,1.89,1.89,0,0,0,.63.43c.29.14.71.32,1.24.53a9.58,9.58,0,0,1,1.35.62,2.51,2.51,0,0,1,.87.8A2.17,2.17,0,0,1,122.66,107.53Z"/><path class="cls-2" d="M128.07,101.14a3.73,3.73,0,0,1,2.5.73,2.88,2.88,0,0,1,.85,2.28V110H130.1l-.35-1.24h-.07a4,4,0,0,1-.76.78,2.61,2.61,0,0,1-.91.46,4.15,4.15,0,0,1-1.26.16,3.26,3.26,0,0,1-1.39-.29,2.17,2.17,0,0,1-1-.88,2.91,2.91,0,0,1-.35-1.49,2.28,2.28,0,0,1,1-2,5.9,5.9,0,0,1,3-.75l1.51,0v-.46a1.43,1.43,0,0,0-1.61-1.67,4.41,4.41,0,0,0-1.26.18,10.29,10.29,0,0,0-1.2.47l-.6-1.31a7.06,7.06,0,0,1,1.45-.55A6.83,6.83,0,0,1,128.07,101.14Zm1.51,4.71-1.13,0a3.51,3.51,0,0,0-1.94.48,1.38,1.38,0,0,0-.56,1.16,1.09,1.09,0,0,0,.39.94,1.58,1.58,0,0,0,1,.3,2.36,2.36,0,0,0,1.6-.55,2,2,0,0,0,.63-1.61Z"/><path class="cls-2" d="M138.55,101.14a3.22,3.22,0,0,1,2.29.76,3.16,3.16,0,0,1,.83,2.43V110h-1.85v-5.34a2.34,2.34,0,0,0-.42-1.52,1.57,1.57,0,0,0-1.29-.51,1.91,1.91,0,0,0-1.76.78,4.24,4.24,0,0,0-.49,2.26V110H134V101.3h1.44l.26,1.18h.1a2.64,2.64,0,0,1,.7-.75,3.31,3.31,0,0,1,1-.44A3.93,3.93,0,0,1,138.55,101.14Z"/><path class="cls-2" d="M150.11,107.53a2.44,2.44,0,0,1-.42,1.45,2.53,2.53,0,0,1-1.22.89,5.32,5.32,0,0,1-1.95.31,8.71,8.71,0,0,1-1.57-.13,5.46,5.46,0,0,1-1.24-.4v-1.6a8.06,8.06,0,0,0,1.39.5,5.3,5.3,0,0,0,1.47.22,2.34,2.34,0,0,0,1.32-.29.92.92,0,0,0,.4-.77.91.91,0,0,0-.16-.51,1.85,1.85,0,0,0-.6-.46,13.52,13.52,0,0,0-1.28-.58,10.17,10.17,0,0,1-1.39-.66,2.39,2.39,0,0,1-.86-.8,2.18,2.18,0,0,1-.29-1.2,2,2,0,0,1,.91-1.76,4.37,4.37,0,0,1,2.43-.6,6.75,6.75,0,0,1,1.52.16,7.44,7.44,0,0,1,1.4.47l-.59,1.39a11.2,11.2,0,0,0-1.18-.43,4.53,4.53,0,0,0-1.21-.17,2.25,2.25,0,0,0-1.09.22.7.7,0,0,0-.38.63.73.73,0,0,0,.19.52,1.83,1.83,0,0,0,.62.43c.3.14.71.32,1.24.53a9.58,9.58,0,0,1,1.35.62,2.54,2.54,0,0,1,.88.8A2.25,2.25,0,0,1,150.11,107.53Z"/><path class="cls-2" d="M17.36,129.53a4.55,4.55,0,0,1-2.15-.48,3.28,3.28,0,0,1-1.39-1.48,5.77,5.77,0,0,1-.49-2.52,5.44,5.44,0,0,1,.54-2.59A3.38,3.38,0,0,1,15.35,121a4.76,4.76,0,0,1,2.18-.48,6.1,6.1,0,0,1,1.41.15A5.65,5.65,0,0,1,20,121l-.55,1.48a8.21,8.21,0,0,0-1-.33,4.18,4.18,0,0,0-1-.13,2.21,2.21,0,0,0-1.27.34,1.92,1.92,0,0,0-.75,1,4.68,4.68,0,0,0-.25,1.66,4.52,4.52,0,0,0,.25,1.62,2.07,2.07,0,0,0,.75,1,2.16,2.16,0,0,0,1.22.33,4.22,4.22,0,0,0,1.28-.17,6,6,0,0,0,1.07-.45V129a3.91,3.91,0,0,1-1.06.42A6.08,6.08,0,0,1,17.36,129.53Z"/><path class="cls-2" d="M26.27,120.49l.48,0,.45.06L27,122.31a1.44,1.44,0,0,0-.4-.07l-.43,0a3,3,0,0,0-1,.16,2.33,2.33,0,0,0-.79.49,2.26,2.26,0,0,0-.54.82,2.82,2.82,0,0,0-.2,1.13v4.56H21.85v-8.72H23.3l.25,1.54h.09a3.79,3.79,0,0,1,.64-.85,3,3,0,0,1,.89-.62A2.49,2.49,0,0,1,26.27,120.49Z"/><path class="cls-2" d="M32.28,120.49a3.92,3.92,0,0,1,2,.48,3.2,3.2,0,0,1,1.29,1.36,4.59,4.59,0,0,1,.45,2.11v1H30.2a2.77,2.77,0,0,0,.68,1.95,2.37,2.37,0,0,0,1.82.69,6.22,6.22,0,0,0,1.5-.16,8.32,8.32,0,0,0,1.37-.48v1.51a5.77,5.77,0,0,1-1.33.44,7.57,7.57,0,0,1-1.62.15,4.88,4.88,0,0,1-2.25-.5,3.55,3.55,0,0,1-1.52-1.5,5,5,0,0,1-.55-2.46,5.67,5.67,0,0,1,.5-2.49A3.59,3.59,0,0,1,30.19,121,4.08,4.08,0,0,1,32.28,120.49Zm0,1.39a1.85,1.85,0,0,0-1.41.57,2.65,2.65,0,0,0-.63,1.66h4A3,3,0,0,0,34,123a1.77,1.77,0,0,0-.63-.79A2,2,0,0,0,32.28,121.88Z"/><path class="cls-2" d="M39,117.31a1.25,1.25,0,0,1,.74.23,1,1,0,0,1,.31.79.92.92,0,0,1-.31.78,1.19,1.19,0,0,1-.74.24,1.15,1.15,0,0,1-.74-.24.89.89,0,0,1-.31-.78.92.92,0,0,1,.31-.79A1.21,1.21,0,0,1,39,117.31Zm.91,3.34v8.72H38.1v-8.72Z"/><path class="cls-2" d="M47.14,120.49a3.26,3.26,0,0,1,2.3.76,3.19,3.19,0,0,1,.82,2.43v5.69H48.41V124a2.34,2.34,0,0,0-.42-1.52A1.57,1.57,0,0,0,46.7,122a1.91,1.91,0,0,0-1.76.78,4.24,4.24,0,0,0-.49,2.26v4.33H42.6v-8.72H44l.26,1.18h.1a2.54,2.54,0,0,1,.71-.75,3.25,3.25,0,0,1,.94-.44A3.93,3.93,0,0,1,47.14,120.49Z"/><path class="cls-2" d="M56.08,128a3.38,3.38,0,0,0,.72-.07,5.15,5.15,0,0,0,.65-.16v1.4a3.7,3.7,0,0,1-.8.23,5.49,5.49,0,0,1-1,.1,3.46,3.46,0,0,1-1.33-.25,1.91,1.91,0,0,1-.94-.86,3.37,3.37,0,0,1-.35-1.67v-4.69H51.83v-.82l1.28-.66.6-1.86h1.17v1.93h2.5v1.41h-2.5v4.66a1.34,1.34,0,0,0,.33,1A1.21,1.21,0,0,0,56.08,128Z"/><path class="cls-2" d="M62.69,120.49a4,4,0,0,1,2,.48A3.18,3.18,0,0,1,66,122.33a4.59,4.59,0,0,1,.45,2.11v1H60.6a2.82,2.82,0,0,0,.68,1.95,2.4,2.4,0,0,0,1.83.69,6.33,6.33,0,0,0,1.5-.16,8.32,8.32,0,0,0,1.37-.48v1.51a5.93,5.93,0,0,1-1.33.44,7.57,7.57,0,0,1-1.62.15,4.92,4.92,0,0,1-2.26-.5,3.6,3.6,0,0,1-1.52-1.5,5.09,5.09,0,0,1-.54-2.46,5.67,5.67,0,0,1,.49-2.49A3.61,3.61,0,0,1,60.6,121,4,4,0,0,1,62.69,120.49Zm0,1.39a1.85,1.85,0,0,0-1.41.57,2.71,2.71,0,0,0-.64,1.66h4a3,3,0,0,0-.22-1.16,1.64,1.64,0,0,0-.63-.79A1.93,1.93,0,0,0,62.69,121.88Z"/><path class="cls-2" d="M68.24,128.39a1.08,1.08,0,0,1,.34-.91,1.29,1.29,0,0,1,.81-.26,1.34,1.34,0,0,1,.82.26,1.09,1.09,0,0,1,.35.91,1.1,1.1,0,0,1-.35.91,1.24,1.24,0,0,1-.82.28,1.19,1.19,0,0,1-.81-.28A1.09,1.09,0,0,1,68.24,128.39Z"/><path class="cls-3" d="M303,89.77c0-16-27.76-42.09-62-47.12S179,67,179,119.53c0,25.15,6.94,47.8,18.16,56.65,11.22,9.46,26.72,5.11,43.84-9.53s32.62-32.87,43.84-45.85C296.06,107.21,303,98.87,303,89.77Z"/><path class="cls-4" d="M240.6,43c-33.92-4.38-61.4,24.41-61.8,76.29-.2,25,6.71,47.21,17.87,56.18,11.45,9.21,27,5.24,44.34-9.15S274.06,134,285.1,120.9c11.35-13.44,18-22,17.92-31.1-.1-8.42-7.88-19.61-20.08-29a93.55,93.55,0,0,0-20.46-11.92A83.31,83.31,0,0,0,240.6,43Z"/><path class="cls-5" d="M240.21,43.4c-33.61-3.75-60.81,24.47-61.62,75.72-.39,24.8,6.34,46.79,17.59,55.71C207.71,184,223.52,180.18,241,166s33.32-32,44.34-45c11.31-13.42,17.9-22,17.67-31.17-.2-8.46-8.13-19.67-20.34-29.08a93.77,93.77,0,0,0-20.59-12A79.72,79.72,0,0,0,240.21,43.4Z"/><path class="cls-6" d="M239.81,43.78c-33.27-3.14-60.21,24.51-61.42,75.13-.59,24.64,6,46.38,17.31,55.25,11.6,9.06,27.64,5.47,45.34-8.42s33.6-31.59,44.59-44.64c11.28-13.4,17.78-22,17.43-31.24-.29-8.5-8.35-19.77-20.6-29.13a92.66,92.66,0,0,0-20.72-12A75.58,75.58,0,0,0,239.81,43.78Z"/><path class="cls-7" d="M239.41,44.15c-32.92-2.54-59.62,24.56-61.23,74.55-.78,24.48,5.59,46,17,54.78,11.67,9,28,5.6,45.85-8s33.88-31.21,44.83-44.24c11.25-13.38,17.66-22,17.19-31.31-.39-8.54-8.59-19.84-20.86-29.18a92.18,92.18,0,0,0-20.85-12C254.7,46,247.5,44.78,239.41,44.15Z"/><path class="cls-8" d="M239,44.53c-32.57-2-59,24.61-61,74-1,24.32,5.22,45.57,16.74,54.32,11.75,8.93,28.27,5.71,46.35-7.67s34.16-30.83,45.08-43.84c11.22-13.37,17.53-22.06,17-31.39C302.61,81.34,294.27,70,282,60.7a92.14,92.14,0,0,0-21-12C254.36,46,247.21,45,239,44.53Z"/><path class="cls-9" d="M238.62,44.91c-32.2-1.43-58.45,24.66-60.85,73.38-1.18,24.15,4.85,45.15,16.46,53.85,11.83,8.85,28.58,5.83,46.86-7.31s34.43-30.44,45.32-43.43c11.19-13.35,17.41-22.09,16.71-31.46-.59-8.61-9.08-20-21.38-29.26a91.57,91.57,0,0,0-21.11-12C254,46,246.93,45.28,238.62,44.91Z"/><path class="cls-10" d="M238.22,45.28c-31.83-.9-57.87,24.72-60.65,72.8-1.39,24,4.47,44.74,16.18,53.39,11.9,8.78,28.88,5.95,47.35-6.94s34.71-30.05,45.58-43C297.83,108.17,304,99.38,303.14,90c-.68-8.65-9.32-20-21.63-29.31a91.64,91.64,0,0,0-21.25-12C253.67,46,246.64,45.52,238.22,45.28Z"/><path class="cls-11" d="M237.83,45.66c-31.46-.39-57.3,24.77-60.47,72.21-1.58,23.83,4.1,44.33,15.9,52.92,12,8.72,29.19,6.07,47.85-6.56s35-29.67,45.83-42.63c11.12-13.31,17.15-22.14,16.22-31.6-.78-8.69-9.56-20.12-21.89-29.35a91.51,91.51,0,0,0-21.38-12.07C253.33,46,246.37,45.77,237.83,45.66Z"/><path class="cls-12" d="M237.43,46c-31.07.1-56.73,24.82-60.27,71.62-1.79,23.67,3.72,43.93,15.61,52.46,12,8.65,29.5,6.19,48.36-6.19s35.26-29.29,46.07-42.24c11.09-13.28,17-22.16,16-31.66-.88-8.73-9.81-20.2-22.15-29.4a90.86,90.86,0,0,0-21.51-12.08C253,46,246.09,46,237.43,46Z"/><path class="cls-13" d="M237,46.41C206.35,47,180.87,71.29,177,117.46c-2,23.51,3.34,43.51,15.32,52,12.13,8.57,29.81,6.3,48.86-5.83s35.54-28.9,46.32-41.83c11.06-13.26,16.9-22.19,15.74-31.73-1-8.77-10.05-20.27-22.41-29.45a90.79,90.79,0,0,0-21.64-12.1C252.65,46.05,245.82,46.25,237,46.41Z"/><path class="cls-14" d="M236.64,46.79c-30.29,1-55.6,24.94-59.89,70.46-2.2,23.35,3,43.1,15.05,51.52s30.12,6.43,49.36-5.45S277,134.8,287.72,121.89c11-13.24,16.78-22.21,15.5-31.8-1.08-8.81-10.3-20.34-22.67-29.49a90.39,90.39,0,0,0-21.77-12.13C252.31,46.06,245.54,46.49,236.64,46.79Z"/><path class="cls-15" d="M236.24,47.16c-29.89,1.47-55,25-59.69,69.88-2.41,23.2,2.6,42.69,14.76,51.06s30.43,6.55,49.86-5.08,36.1-28.14,46.82-41c11-13.22,16.65-22.24,15.25-31.87-1.17-8.85-10.54-20.41-22.93-29.54a90.21,90.21,0,0,0-21.9-12.14C252,46.07,245.27,46.72,236.24,47.16Z"/><path class="cls-16" d="M235.84,47.54c-29.48,1.88-54.48,25.07-59.5,69.29-2.61,23,2.23,42.29,14.48,50.6s30.74,6.66,50.36-4.72,36.38-27.75,47.07-40.62c11-13.21,16.52-22.26,15-31.94-1.27-8.89-10.79-20.48-23.19-29.59A89.72,89.72,0,0,0,258,48.4C251.63,46.08,245,47,235.84,47.54Z"/><path class="cls-17" d="M235.45,47.92c-29.08,2.27-53.94,25.13-59.31,68.71-2.83,22.89,1.85,41.87,14.19,50.12s31,6.79,50.87-4.34,36.65-27.37,47.31-40.22c10.94-13.19,16.4-22.29,14.77-32-1.37-8.93-11-20.55-23.45-29.63a89.23,89.23,0,0,0-22.15-12.19C251.29,46.09,244.74,47.19,235.45,47.92Z"/><path class="cls-18" d="M235.05,48.29c-28.67,2.66-53.39,25.2-59.12,68.13-3,22.74,1.48,41.46,13.92,49.66s31.35,6.91,51.36-4,36.93-27,47.56-39.82C299.68,109.12,305,100,303.3,90.2c-1.47-9-11.28-20.61-23.71-29.67a88.66,88.66,0,0,0-22.28-12.2C251,46.09,244.48,47.42,235.05,48.29Z"/><path class="cls-19" d="M234.65,48.67c-28.26,3-52.84,25.26-58.92,67.54-3.25,22.59,1.1,41.06,13.63,49.2s31.66,7,51.87-3.6,37.2-26.61,47.81-39.42c10.87-13.15,16.14-22.34,14.28-32.16-1.57-9-11.52-20.68-24-29.72a88.66,88.66,0,0,0-22.42-12.22C250.61,46.1,244.21,47.65,234.65,48.67Z"/><path class="cls-20" d="M234.26,49.05c-27.85,3.37-52.31,25.33-58.74,67-3.46,22.43.73,40.64,13.35,48.72s32,7.15,52.37-3.23,37.48-26.21,48.06-39c10.84-13.12,16-22.36,14-32.22-1.66-9-11.77-20.75-24.22-29.76a88.18,88.18,0,0,0-22.55-12.25C250.27,46.11,244,47.87,234.26,49.05Z"/><path class="cls-21" d="M233.86,49.42c-27.44,3.72-51.78,25.4-58.54,66.38-3.68,22.29.35,40.24,13.07,48.26s32.28,7.26,52.87-2.86,37.75-25.83,48.3-38.62c10.81-13.1,15.89-22.38,13.8-32.29-1.76-9.08-12-20.82-24.48-29.81-8.09-5.84-15.88-10-22.68-12.26C249.93,46.12,243.69,48.09,233.86,49.42Z"/><path class="cls-22" d="M233.46,49.8c-27,4-51.25,25.47-58.34,65.79-3.9,22.14,0,39.83,12.78,47.8s32.59,7.38,53.37-2.49,38-25.45,48.55-38.22c10.78-13.08,15.77-22.41,13.56-32.36-1.86-9.12-12.26-20.88-24.74-29.86-8.22-5.9-16.05-10.06-22.81-12.28C249.59,46.13,243.43,48.31,233.46,49.8Z"/><path class="cls-23" d="M233.07,50.17c-26.61,4.35-50.74,25.55-58.16,65.21-4.11,22-.39,39.42,12.5,47.34s32.9,7.5,53.87-2.13,38.32-25.06,48.8-37.81c10.75-13.06,15.65-22.44,13.32-32.43-2-9.16-12.51-20.95-25-29.9-8.34-6-16.22-10.14-22.94-12.31C249.25,46.14,243.17,48.52,233.07,50.17Z"/><path class="cls-24" d="M232.67,50.55c-26.2,4.64-50.22,25.61-58,64.63-4.34,21.84-.77,39,12.21,46.86s33.21,7.62,54.38-1.75,38.59-24.68,49.05-37.41c10.71-13,15.51-22.46,13.08-32.5-2.06-9.2-12.77-21-25.27-29.95-8.47-6-16.4-10.21-23.07-12.32C248.9,46.14,242.92,48.74,232.67,50.55Z"/><path class="cls-25" d="M232.27,50.93c-25.78,4.92-49.71,25.68-57.77,64-4.56,21.7-1.14,38.6,11.94,46.4S220,169.11,241.31,160a134.5,134.5,0,0,0,49.3-37c10.69-13,15.39-22.49,12.84-32.57-2.16-9.24-13-21.09-25.53-30-8.6-6.12-16.57-10.28-23.2-12.34C248.56,46.15,242.66,48.94,232.27,50.93Z"/><path class="cls-26" d="M231.88,51.3c-25.38,5.2-49.21,25.76-57.58,63.46-4.79,21.56-1.52,38.2,11.65,45.94s33.82,7.86,55.38-1a130.72,130.72,0,0,0,49.54-36.61c10.66-13,15.27-22.52,12.6-32.64-2.26-9.28-13.26-21.15-25.79-30C269,54.21,260.93,50.05,254.35,48,248.22,46.16,242.4,49.15,231.88,51.3Z"/><path class="cls-27" d="M231.48,51.68c-25,5.45-48.71,25.83-57.39,62.87-5,21.42-1.89,37.79,11.37,45.47s34.14,8,55.88-.64a127.12,127.12,0,0,0,49.79-36.2c10.63-13,15.14-22.54,12.36-32.72-2.36-9.31-13.51-21.21-26.05-30.08C268.59,54.12,260.52,50,254,48,247.88,46.17,242.14,49.35,231.48,51.68Z"/><path class="cls-28" d="M231.08,52.06c-24.55,5.7-48.21,25.9-57.19,62.29-5.25,21.27-2.27,37.38,11.08,45s34.45,8.1,56.39-.27a123.89,123.89,0,0,0,50-35.8c10.59-13,15-22.57,12.11-32.79-2.46-9.35-13.76-21.28-26.3-30.13-9-6.33-17.11-10.49-23.6-12.4C247.54,46.18,241.88,49.55,231.08,52.06Z"/><path class="cls-29" d="M230.69,52.43c-24.15,5.94-47.73,26-57,61.71-5.48,21.12-2.64,37,10.81,44.54s34.75,8.21,56.88.1a120.65,120.65,0,0,0,50.29-35.41c10.56-12.94,14.88-22.58,11.87-32.85-2.55-9.39-14-21.34-26.56-30.17-9.11-6.4-17.28-10.57-23.73-12.43C247.2,46.19,241.62,49.74,230.69,52.43Z"/><path class="cls-30" d="M230.29,52.81C206.55,59,183,78.86,173.48,113.93c-5.72,21-3,36.57,10.52,44.07,13.38,7.43,35.06,8.34,57.38.48s40.26-22.39,50.54-35c10.53-12.92,14.76-22.61,11.63-32.92-2.65-9.43-14.25-21.41-26.82-30.22-9.24-6.47-17.46-10.64-23.86-12.44C246.86,46.2,241.36,49.93,230.29,52.81Z"/><path class="cls-31" d="M229.89,53.18c-23.33,6.39-46.77,26.13-56.61,60.54-6,20.84-3.4,36.16,10.23,43.61,13.46,7.36,35.37,8.46,57.89.84s40.53-22,50.78-34.6c10.5-12.9,14.64-22.64,11.39-33-2.75-9.47-14.5-21.47-27.08-30.26-9.36-6.55-17.63-10.72-24-12.47C246.52,46.21,241.1,50.12,229.89,53.18Z"/><path class="cls-32" d="M229.5,53.56c-22.94,6.6-46.31,26.2-56.43,60-6.2,20.69-3.77,35.75,10,43.14,13.54,7.29,35.68,8.57,58.39,1.21s40.81-21.61,51-34.2C302.91,110.79,307,101,303.59,90.61c-2.85-9.51-14.75-21.54-27.34-30.31-9.49-6.61-17.81-10.79-24.12-12.49C246.17,46.21,240.84,50.3,229.5,53.56Z"/><path class="cls-33" d="M229.1,53.94c-22.54,6.79-45.85,26.27-56.23,59.37-6.45,20.55-4.15,35.34,9.67,42.67,13.6,7.23,36,8.7,58.89,1.59s41.08-21.23,51.28-33.8c10.43-12.86,14.38-22.69,10.9-33.13-2.94-9.55-15-21.6-27.6-30.36-9.61-6.68-18-10.86-24.25-12.5C245.83,46.22,240.57,50.48,229.1,53.94Z"/><path class="cls-34" d="M228.7,54.31c-22.14,7-45.39,26.35-56,58.79-6.69,20.41-4.51,34.94,9.39,42.21,13.68,7.16,36.3,8.81,59.39,1.95,23.24-6.88,41.36-20.84,51.53-33.39,10.4-12.85,14.26-22.71,10.66-33.2-3-9.59-15.25-21.67-27.86-30.4-9.74-6.76-18.15-10.94-24.38-12.53C245.49,46.23,240.31,50.65,228.7,54.31Z"/><path class="cls-35" d="M228.31,54.69c-21.75,7.18-44.95,26.41-55.85,58.21-7,20.26-4.89,34.52,9.1,41.74,13.76,7.09,36.61,8.93,59.89,2.32,23.44-6.64,41.64-20.46,51.78-33,10.38-12.83,14.13-22.74,10.42-33.27-3.14-9.63-15.5-21.73-28.12-30.45-9.87-6.82-18.33-11-24.51-12.55C245.15,46.24,240,50.82,228.31,54.69Z"/><path class="cls-36" d="M227.91,55.07c-21.36,7.35-44.51,26.48-55.66,57.62-7.2,20.12-5.26,34.12,8.82,41.28,13.83,7,36.92,9.05,60.4,2.69,23.64-6.39,41.91-20.08,52-32.59,10.35-12.81,14-22.77,10.18-33.34-3.24-9.67-15.75-21.8-28.38-30.5-10-6.89-18.5-11.08-24.64-12.56C244.81,46.25,239.77,51,227.91,55.07Z"/><path class="cls-37" d="M227.51,55.44c-21,7.53-44.07,26.55-55.46,57-7.47,20-5.64,33.72,8.54,40.81,13.9,7,37.22,9.17,60.89,3.07,23.84-6.14,42.19-19.7,52.28-32.2,10.31-12.78,13.88-22.78,9.93-33.41-3.34-9.7-16-21.85-28.63-30.53-10.13-7-18.69-11.16-24.78-12.59C244.47,46.26,239.5,51.14,227.51,55.44Z"/><path class="cls-38" d="M227.12,55.82c-20.6,7.7-43.64,26.62-55.27,56.45-7.73,19.83-6,33.31,8.25,40.35,14,6.89,37.53,9.29,61.4,3.43,24-5.88,42.47-19.31,52.52-31.79,10.28-12.76,13.75-22.81,9.69-33.48C300.28,81,287.46,68.86,274.82,60.2,264.56,53.17,256,49,249.91,47.59,244.12,46.27,239.23,51.29,227.12,55.82Z"/><path class="cls-39" d="M226.72,56.19c-20.21,7.86-43.22,26.69-55.08,55.88-8,19.68-6.39,32.9,8,39.88,14,6.82,37.84,9.41,61.9,3.8,24.23-5.64,42.75-18.93,52.77-31.39,10.25-12.74,13.63-22.83,9.45-33.55-3.53-9.78-16.5-22-29.15-30.63-10.39-7.09-19-11.29-25-12.62C243.78,46.28,239,51.44,226.72,56.19Z"/><path class="cls-40" d="M226.32,56.57c-19.84,8-42.8,26.74-54.88,55.29-8.27,19.53-6.77,32.5,7.68,39.41,14.13,6.76,38.16,9.53,62.41,4.18,24.42-5.39,43-18.55,53-31,10.22-12.72,13.5-22.86,9.21-33.62-3.63-9.82-16.75-22-29.41-30.67C263.83,53,255.12,48.8,249.17,47.52,243.44,46.29,238.67,51.58,226.32,56.57Z"/><path class="cls-41" d="M225.93,57c-19.47,8.17-42.4,26.8-54.7,54.7-8.54,19.39-7.14,32.09,7.41,38.95,14.2,6.69,38.46,9.65,62.9,4.55,24.62-5.14,43.3-18.16,53.26-30.59,10.19-12.7,13.38-22.89,9-33.69C300,81,286.77,68.76,274.1,60.15c-10.64-7.23-19.39-11.44-25.3-12.67C243.1,46.3,238.39,51.72,225.93,57Z"/><path class="cls-42" d="M225.53,57.32c-19.11,8.32-42,26.86-54.5,54.12-8.83,19.24-7.52,31.69,7.12,38.49,14.27,6.63,38.77,9.76,63.4,4.91,24.83-4.88,43.58-17.77,53.52-30.18,10.15-12.68,13.25-22.91,8.72-33.76C300,81,286.55,68.73,273.86,60.13c-10.77-7.3-19.57-11.51-25.43-12.68C242.76,46.31,238.1,51.85,225.53,57.32Z"/><path class="cls-43" d="M225.13,57.7c-18.74,8.46-41.59,26.91-54.31,53.54-9.11,19.07-7.89,31.28,6.84,38,14.35,6.57,39.08,9.89,63.91,5.29,25-4.64,43.85-17.39,53.76-29.78,10.12-12.67,13.12-22.94,8.48-33.83-3.92-9.94-17.49-22.24-30.19-30.81-10.9-7.37-19.74-11.59-25.56-12.71C242.42,46.32,237.81,52,225.13,57.7Z"/><path class="cls-44" d="M224.74,58.08c-18.39,8.6-41.2,27-54.12,53-9.4,18.92-8.27,30.87,6.55,37.55,14.43,6.5,39.39,10,64.41,5.66,25.22-4.39,44.13-17,54-29.38,10.09-12.65,13-23,8.24-33.9-4-10-17.75-22.3-30.45-30.86-11-7.43-19.92-11.65-25.69-12.73C242.07,46.33,237.52,52.1,224.74,58.08Z"/><path class="cls-45" d="M224.34,58.45c-18,8.74-40.81,27-53.93,52.37-9.69,18.76-8.63,30.47,6.28,37.09,14.49,6.43,39.69,10.12,64.91,6C267,149.8,286,137.31,295.85,125c10.06-12.63,12.88-23,8-34-4.12-10-18-22.36-30.71-30.91-11.15-7.5-20.09-11.72-25.82-12.74S237.22,52.21,224.34,58.45Z"/><path class="cls-46" d="M223.94,58.83c-17.69,8.87-40.43,27-53.73,51.79-10,18.59-9,30.06,6,36.61,14.57,6.37,40,10.25,65.41,6.4,25.61-3.88,44.69-16.24,54.5-28.58,10-12.6,12.75-23,7.76-34-4.22-10.05-18.25-22.42-31-30.94C261.62,52.5,252.63,48.27,247,47.3S236.91,52.32,223.94,58.83Z"/><path class="cls-47" d="M223.55,59.2c-17.35,9-40.06,27.08-53.54,51.21-10.3,18.42-9.39,29.66,5.7,36.15,14.65,6.31,40.32,10.37,65.92,6.77,25.8-3.64,45-15.86,54.75-28.18,10-12.58,12.62-23,7.51-34.11-4.31-10.09-18.5-22.48-31.22-31-11.42-7.64-20.45-11.87-26.09-12.79S236.6,52.43,223.55,59.2Z"/><path class="cls-48" d="M223.15,59.58c-17,9.14-39.68,27.11-53.35,50.62-10.61,18.25-9.76,29.25,5.42,35.69,14.72,6.24,40.63,10.48,66.42,7.14,26-3.39,45.24-15.48,55-27.78,10-12.56,12.49-23.06,7.27-34.18-4.41-10.14-18.75-22.54-31.48-31-11.55-7.7-20.63-11.93-26.22-12.8S236.29,52.52,223.15,59.58Z"/><path class="cls-49" d="M222.75,60c-16.68,9.26-39.31,27.13-53.15,50-10.93,18.08-10.14,28.85,5.14,35.23,14.79,6.17,40.93,10.6,66.91,7.5,26.21-3.13,45.52-15.09,55.25-27.37,9.94-12.54,12.37-23.09,7-34.25-4.51-10.18-19-22.6-31.74-31.08-11.68-7.77-20.8-12-26.35-12.83S236,52.62,222.75,60Z"/><path class="cls-50" d="M222.36,60.33c-16.36,9.4-39,27.16-53,49.46-11.24,17.89-10.51,28.44,4.86,34.75,14.87,6.11,41.24,10.72,67.42,7.88,26.4-2.88,45.79-14.71,55.49-27,9.91-12.52,12.25-23.11,6.79-34.32C299.34,80.91,284.7,68.46,272,60c-11.8-7.84-21-12.08-26.48-12.85S235.65,52.7,222.36,60.33Z"/><path class="cls-51" d="M222,60.71c-16,9.52-38.6,27.17-52.77,48.87-11.57,17.7-10.89,28,4.57,34.29,15,6,41.55,10.84,67.92,8.25,26.6-2.64,46.07-14.32,55.75-26.57,9.87-12.5,12.11-23.14,6.54-34.39C299.26,80.9,284.47,68.43,271.71,60c-11.93-7.9-21.16-12.15-26.61-12.86S235.32,52.78,222,60.71Z"/><path class="cls-52" d="M221.56,61.09c-15.73,9.65-38.24,27.18-52.58,48.28-11.89,17.51-11.26,27.63,4.29,33.83,15,6,41.86,11,68.43,8.62,26.79-2.39,46.34-13.94,56-26.17,9.84-12.49,12-23.16,6.3-34.46-4.8-10.3-19.75-22.79-32.52-31.22-12.06-8-21.33-12.22-26.74-12.89S235,52.85,221.56,61.09Z"/><path class="cls-53" d="M221.17,61.46c-15.43,9.78-37.9,27.19-52.39,47.7-12.23,17.32-11.64,27.23,4,33.36,15.09,5.92,42.16,11.08,68.92,9,27-2.13,46.63-13.55,56.24-25.76,9.81-12.47,11.87-23.19,6.06-34.53-4.9-10.34-20-22.85-32.78-31.27C259,51.92,249.72,47.66,244.36,47S234.63,52.92,221.17,61.46Z"/><path class="cls-54" d="M220.77,61.84C205.65,71.74,183.23,89,168.57,109c-12.57,17.1-12,26.85,3.73,32.89,15.16,5.88,42.48,11.2,69.42,9.36,27.2-1.89,46.91-13.17,56.49-25.36C308,113.4,310,102.63,304,91.25c-5-10.38-20.25-22.92-33-31.32-12.32-8.1-21.68-12.36-27-12.92S234.28,53,220.77,61.84Z"/><path class="cls-55" d="M220.37,62.21c-14.83,10-37.2,27.17-52,46.54-12.91,16.89-12.39,26.44,3.44,32.43,15.24,5.81,42.79,11.31,69.93,9.73,27.39-1.64,47.18-12.79,56.73-25,9.75-12.42,11.62-23.23,5.58-34.66-5.1-10.42-20.5-23-33.3-31.36-12.45-8.17-21.86-12.43-27.13-13S233.92,53,220.37,62.21Z"/><path class="cls-56" d="M220,62.59c-14.54,10.17-36.86,27.15-51.81,46-13.27,16.67-12.77,26,3.15,32,15.31,5.74,43.1,11.44,70.43,10.1,27.59-1.38,47.46-12.4,57-24.56,9.72-12.4,11.49-23.26,5.33-34.74-5.19-10.45-20.75-23-33.55-31.4-12.59-8.23-22-12.5-27.27-13S233.56,53.09,220,62.59Z"/><path class="cls-57" d="M219.58,63C205.32,73.26,183.07,90.09,168,108.33c-13.61,16.45-13.13,25.63,2.88,31.5,15.38,5.67,43.4,11.56,70.93,10.47,27.78-1.13,47.73-12,57.23-24.16,9.69-12.38,11.36-23.28,5.09-34.81-5.29-10.49-21-23.09-33.81-31.45s-22.22-12.56-27.4-13S233.19,53.14,219.58,63Z"/><path class="cls-58" d="M219.18,63.34c-14,10.43-36.17,27.09-51.42,44.79-14,16.2-13.51,25.21,2.59,31,15.46,5.6,43.71,11.67,71.43,10.84,28-.89,48-11.64,57.48-23.76,9.66-12.36,11.24-23.31,4.85-34.88C298.72,80.83,282.86,68.21,270,59.87s-22.4-12.64-27.53-13S232.81,53.18,219.18,63.34Z"/><path class="cls-59" d="M218.79,63.72c-13.72,10.57-35.83,27.05-51.24,44.2-14.33,16-13.88,24.8,2.31,30.56,15.54,5.53,44,11.8,71.94,11.22,28.17-.64,48.28-11.26,57.72-23.36,9.63-12.34,11.11-23.34,4.61-34.95-5.49-10.57-21.5-23.21-34.33-31.54-13-8.42-22.57-12.71-27.66-13S232.42,53.22,218.79,63.72Z"/><path class="cls-60" d="M218.39,64.1c-13.46,10.7-35.48,27-51,43.61-14.7,15.7-14.25,24.39,2,30.1,15.62,5.46,44.34,11.92,72.44,11.58,28.38-.38,48.56-10.86,58-22.95,9.59-12.32,11-23.36,4.36-35-5.59-10.61-21.76-23.28-34.59-31.59-13.1-8.49-22.75-12.77-27.78-13C236.59,46.51,232,53.25,218.39,64.1Z"/><path class="cls-61" d="M218,64.47c-13.2,10.85-35.14,26.94-50.85,43-15.06,15.43-14.62,24,1.75,29.63,15.69,5.39,44.64,12,72.93,12,28.58-.13,48.85-10.48,58.23-22.55,9.56-12.3,10.86-23.39,4.12-35.09-5.68-10.65-22-23.34-34.85-31.63C256.09,51.26,246.39,47,241.41,46.75,236.25,46.52,231.62,53.28,218,64.47Z"/><path class="cls-62" d="M304.19,91.48c-5.78-10.69-22.27-23.37-35.11-31.68C255.7,51.21,246,47,241,46.71c-5.13-.07-9.63,6.84-23.44,18.14-12.76,11.22-34.82,26.84-50.66,42.45-15.46,15.13-15,23.57,1.46,29.17,15.77,5.31,44.95,12.15,73.44,12.32,28.77.11,49-10.15,58.47-22.15C309.78,114.3,311,103.22,304.19,91.48Z"/><path class="cls-63" d="M251.62,158.59c.09,1,.18,2,.3,3,0,.22,0,.44.05.66H225.9a5.58,5.58,0,0,1-.08-.57c0-1.31,0-2.62-.08-3.93s0-2.83-.09-4.25,0-2.61-.09-3.92c-.1-1.88,0-3.76-.09-5.65-.11-2.22-.06-4.45-.08-6.68,0-4.4-.11-8.8,0-13.2,0-1.53.09-3.07.11-4.6a.64.64,0,0,1,.13-.46c1.55-1.76,3.11-3.51,4.65-5.28,1-1.14,1.94-2.29,2.93-3.43.66-.77,1.23-1.63,1.95-2.35a35.25,35.25,0,0,0-1.21,6.27,6.13,6.13,0,0,0,.54,3.48,1.76,1.76,0,0,0,.95,1c.09.23.12.52.47.51.32.19.55-.06.82-.17a.5.5,0,0,0,.22-.69.69.69,0,0,0-.68-.41,1.14,1.14,0,0,0-.54.2,2.9,2.9,0,0,1-1-1.82,9.58,9.58,0,0,1,.07-3.54,52.09,52.09,0,0,1,1.49-6.4c.15,0,.23-.13.32-.24,1.14-1.37,2.23-2.78,3.23-4.26.21-.33.55-.62.5-1.08v-.12a3.45,3.45,0,0,1,2.43,0h0l.71.38,0,0,0,0,.22.15.08.07.16.14v0l.11.1h0l.11.1h0l.1.11h0s0,0,0,0l.08.1.1.1h0a5.27,5.27,0,0,1,.83,3.93,3,3,0,0,0-.16,1.19c-.48,2.23-.85,4.48-1.44,6.69a10.16,10.16,0,0,1-1.45,3.61,2.83,2.83,0,0,1-1.92,1.31c-.07-.33-.17-.64-.56-.71a1.12,1.12,0,0,0-1.1.54.82.82,0,0,0,.11,1.09.73.73,0,0,0,1.19-.09c.12,0,.15-.14.23-.2a2.19,2.19,0,0,0,1.56-.48,5.08,5.08,0,0,0,1.92-2.67,36.49,36.49,0,0,0,1.53-6,26.2,26.2,0,0,0,.56-2.91,2.16,2.16,0,0,0,.43-1.47.11.11,0,0,0,0-.08c.1,0,.1-.11.08-.2a7.57,7.57,0,0,0,0-1.26l-.11-.64a4.91,4.91,0,0,0-.69-1.73h0a.53.53,0,0,0-.28-.37h0c0-.07,0-.16-.11-.2l-.07-.08-.1-.1h0l-.1-.1h0l-.11-.1h0l-.11-.1h0l-.11-.1h0l-.16-.13v0l-.12-.1,0,0-.12-.1h0a1.81,1.81,0,0,0-.62-.39h0a4.19,4.19,0,0,0-1.29-.44l0,0a21.27,21.27,0,0,0,.69-7,8.55,8.55,0,0,0-1.31-4.24h0l-.12-.17h0a1.13,1.13,0,0,0-.29-.45h0l-.09-.12h0l-.12-.17h0a.36.36,0,0,0-.19-.23l-.1-.11a.89.89,0,0,0,.19-.67v-12a.76.76,0,0,1,.11-.14,3.56,3.56,0,0,0-.49-5.47A41.23,41.23,0,0,0,242.27,64a4.06,4.06,0,0,0-.78-3.51h0a.18.18,0,0,0-.21-.16.08.08,0,0,0-.09-.09l-.44-.77c.29-.06.26-.29.26-.5,0-1.45,0-2.89,0-4.34,0-.36.1-.46.46-.46q14.52,0,29,0c.45,0,.46.21.46.55q0,14,0,28v42c0,.65,0,.65-.66.65h-3.84a1.33,1.33,0,0,1-.91-.19,8.51,8.51,0,0,0,.29,1.76c.31,1.75.65,3.5.79,5.28a13.74,13.74,0,0,1-.14,4.48,23.61,23.61,0,0,1-1.75,4.49,66.6,66.6,0,0,1-5.22,8.8c-1.44,2.07-3,4.08-4.49,6.09a1,1,0,0,1-.9.47,13.86,13.86,0,0,1-1.61-.23,20.73,20.73,0,0,0-1.74-1.35c-1.5-1.15-3.06-2.23-4.52-3.43a1.48,1.48,0,0,1,0-.21,5.38,5.38,0,0,1,.12-1.79c1.23-3.15,2.73-6.17,4.11-9.24.84-1.85,1.69-3.7,2.5-5.56a.87.87,0,0,1,.78-.61,11.82,11.82,0,0,0,1.4-.33c.08,0,.2,0,.16-.15s-.14-.15-.25-.1a6.46,6.46,0,0,1-1.62.37c-.27,0-.35,0-.41-.25-.18-.67-.38-1.33-.55-2q-1.53-6.09-3.05-12.19c-.46-1.87-.88-3.74-1.33-5.62l-.87-3.68c0-.11,0-.28-.19-.24s-.07.2-.08.31a1,1,0,0,0,0,.17c.27,1.14.53,2.28.81,3.42L250.79,126c.25,1,.57,2,.73,3a4.32,4.32,0,0,0-.2,1.13c-.26,1.54-.29,3.09-.42,4.64-.11,1.33-.16,2.66-.28,4,0,.13,0,.28.09.38a1.72,1.72,0,0,1-.07.21c-1.3,2.87-2.58,5.74-3.89,8.59a6.7,6.7,0,0,0-.73,3.59,15.24,15.24,0,0,0-1.05,2l-.15,0c-.79-.79-1.75-1.35-2.59-2.07-.08-.07-.16-.1-.24,0s0,.16.07.22c.29.22.58.46.89.68a15.82,15.82,0,0,0,1.87,1.38l.65.54C247.46,155.79,249.56,157.16,251.62,158.59ZM240,136.71l-3.71-.08-.91,0c-.19,0-.26.06-.26.25q0,1,0,1.95c0,.21.08.25.27.26l1.8.06,1.81.08,5.1.13c.15,0,.25,0,.27-.21.07-.68.08-1.36.09-2,0-.2-.07-.28-.26-.28l-2.84,0c0-1.18.1-2.37.16-3.56a.67.67,0,0,0-.3-.66c-.53-.33-1.06,0-1.09.73C240.08,134.43,240.05,135.57,240,136.71Zm11.51-55.2c0-1.79,0-3.58,0-5.38,0-.33-.09-.44-.43-.43-1.58,0-3.16,0-4.75,0-.38,0-.43.15-.44.48a31.56,31.56,0,0,1,0,3.37,9.89,9.89,0,0,0,0,1.54c0,1.17,0,2.34.06,3.51.07.75-.08,1.5-.07,2.25,0,.36.11.46.46.46,1.57,0,3.14,0,4.7,0,.35,0,.47-.09.47-.45C251.51,85.07,251.52,83.29,251.52,81.51Zm0-16.89c0-1.76,0-3.52,0-5.29,0-.33-.06-.47-.44-.47-1.58,0-3.16,0-4.75,0-.34,0-.43.11-.43.44q0,5.27,0,10.53c0,.38.13.46.47.45,1.57,0,3.13,0,4.7,0,.36,0,.46-.11.46-.46C251.51,68.09,251.52,66.36,251.52,64.62Zm10.23,16.89c0,1.78,0,3.56,0,5.33,0,.36.1.46.46.46,1.54,0,3.07,0,4.61,0,.35,0,.46-.09.46-.45q0-5.37,0-10.72c0-.34-.1-.44-.43-.43h-4.62c-.37,0-.49.09-.48.47C261.76,78,261.75,79.73,261.75,81.51Zm-7.79,0c0,1.78,0,3.56,0,5.34,0,.31.06.46.42.45,1.57,0,3.13,0,4.7,0,.32,0,.42-.09.42-.41,0-3.59,0-7.18,0-10.76,0-.35-.11-.44-.44-.43h-4.62c-.37,0-.48.1-.48.48C254,78,254,79.73,254,81.51Zm13.3,17c0-1.79,0-3.59,0-5.38,0-.32-.07-.45-.42-.45-1.57,0-3.14,0-4.7,0-.33,0-.41.12-.41.42q0,5.39,0,10.76c0,.36.12.43.45.43q2.32,0,4.65,0c.35,0,.43-.11.43-.44C267.26,102.1,267.26,100.32,267.26,98.54Zm-7.78-34c0-1.76,0-3.52,0-5.29,0-.29-.05-.43-.39-.43-1.58,0-3.16,0-4.75,0-.29,0-.39.09-.39.39q0,5.31,0,10.62c0,.33.11.41.42.41,1.55,0,3.1,0,4.66,0,.35,0,.46-.09.46-.45C259.47,68.08,259.48,66.33,259.48,64.58Zm7.78,0c0-1.78,0-3.55,0-5.33,0-.3-.06-.43-.4-.43q-2.37,0-4.74,0c-.3,0-.39.1-.39.39q0,5.32,0,10.63c0,.33.12.4.42.4,1.55,0,3.1,0,4.66,0,.36,0,.46-.11.45-.46C267.26,68.09,267.26,66.36,267.26,64.62Zm-2.58,56.94c.09-.26.26-.24.43-.24.57,0,1.14,0,1.72,0,.32,0,.44-.07.44-.42q0-5.43,0-10.86c0-.33-.11-.41-.42-.41-1.54,0-3.07,0-4.61,0-.4,0-.57.25-.46.63.33,1.12.66,2.25,1,3.38C263.42,116.25,264.1,118.85,264.68,121.56Zm-5.29-17.9c.06-.09.09-.11.09-.13V93c0-.24-.1-.31-.32-.31h-4.89c-.23,0-.32.09-.31.32,0,.57,0,1.15,0,1.72a1,1,0,0,0,.33.79,18.08,18.08,0,0,1,3.84,5.3C258.57,101.75,259,102.66,259.39,103.66Zm-4.08,51c0-.17-.16-.22-.27-.3l-3.85-2.77-3.78-2.7c-.14-.1-.33-.35-.45-.18s.17.29.31.39q3.18,2.31,6.38,4.59l1.33.94C255.08,154.7,255.19,154.8,255.31,154.66Z"/><path class="cls-63" d="M200.38,159.78c0-.34-.28-.32-.48-.34a8.19,8.19,0,0,0-.86,0c-.32,0-.46-.15-.47-.47,0-.8,0-1.59-.06-2.39,0-1.7-.11-3.4-.14-5.1s-.07-3.69-.17-5.54c-.15-2.54-.09-5.09,0-7.63,0-1.16,0-2.32.07-3.47.1-1.64,0-3.28.19-4.91s.23-3.44.51-5.14a1.13,1.13,0,0,0,0-.54c0,.28-.1.55-.12.83s-.19.32-.42.33-.32-.12-.3-.34V89.28h17.59a4.1,4.1,0,0,0,1.11,0,8,8,0,0,0,2.28-.79.49.49,0,0,1,.39,0l-.12.24h0a2.73,2.73,0,0,0-.46.65h0a1.21,1.21,0,0,0-.28.46h0a1.13,1.13,0,0,0-.12.18,17.52,17.52,0,0,0-1.94,6.52c0,.24-.26.49,0,.75-.22.3,0,.68-.17,1a42.88,42.88,0,0,0,.09,6.51,4.91,4.91,0,0,0,.16,1.27l0,.45a1.7,1.7,0,0,0,0,.45c.1.56.18,1.13.26,1.7a1.5,1.5,0,0,0-.79.3,2.93,2.93,0,1,0,4.4,3.58,3.61,3.61,0,0,0,.18-1.42,2.7,2.7,0,0,0-2.74-2.61c0-.28-.1-.55-.16-.82a7.49,7.49,0,0,0-.27-1.56.11.11,0,0,0,0-.08c0-.16,0-.33,0-.49-.12-1.46-.22-2.92-.2-4.39.11.06.11.17.1.27a8.24,8.24,0,0,0,1.12,3.91c1,2,2.1,3.93,3.3,5.81s2.49,3.88,3.91,5.69a.8.8,0,0,1,.12,1,3.64,3.64,0,0,0-.57,1.78c-.05,2.09-.16,4.18-.16,6.28,0,4-.1,8.08.06,12.12.08,2.18,0,4.37.08,6.55.1,1.75,0,3.5.09,5.24.1,1.45,0,2.89.1,4.34.09,1.24,0,2.5.08,3.75.08,1.47,0,2.95.11,4.42H207.8v-2.61a8.52,8.52,0,0,0,.15-2l.18-6.82c.06-2.5.09-5,.2-7.49,0-1.33,0-2.65.07-4s0-2.71.1-4.06,0-2.53.09-3.79,0-2.59.09-3.89,0-2.35.08-3.52c.08-2.5.11-5,.19-7.49.08-2.17.08-4.34.11-6.51,0-.09,0-.18,0-.27.17-1.79,0-3.59.16-5.37,0-.1,0-.25-.11-.26s-.15.15-.15.26c0,.66,0,1.32-.07,2-.08,1.42,0,2.86-.09,4.29s0,2.74-.08,4.11c-.09,2.28-.13,4.57-.19,6.86-.07,2.51-.11,5-.18,7.54s-.08,4.88-.19,7.31c-.07,1.46,0,2.92-.08,4.38q-.1,3.65-.18,7.27c-.06,2.79-.12,5.57-.21,8.36a16.64,16.64,0,0,1-.07,2.34.45.45,0,0,0,.08.47l0,.29c-.74.14-1.5,0-2.25.11H205C203.45,159.73,201.91,159.84,200.38,159.78Zm9.47-67,0-.1h-.35c-1.85,0-3.71,0-5.56,0-.41,0-.53.11-.53.53,0,3.19,0,6.39,0,9.59v.29C204.86,99.26,206.52,95.52,209.85,92.82Zm-9.92,24.72a46.37,46.37,0,0,0-.94,6.4Zm.09-.37.72-3.79A16.81,16.81,0,0,0,200,117.17Zm1.11-5.39a2.06,2.06,0,0,0-.31,1.32Zm0-.27c.1-.23.2-.39.11-.61A.69.69,0,0,0,201.14,111.51Zm.17-.92a.44.44,0,0,0,.12-.51A.66.66,0,0,0,201.31,110.59Z"/><path class="cls-64" d="M225.63,162.23c-.12-1.47,0-2.95-.11-4.42-.07-1.25,0-2.51-.08-3.75-.11-1.45,0-2.89-.1-4.34-.11-1.74,0-3.49-.09-5.24-.12-2.18,0-4.37-.08-6.55-.16-4-.07-8.08-.06-12.12,0-2.1.11-4.19.16-6.28a3.64,3.64,0,0,1,.57-1.78.8.8,0,0,0-.12-1c-1.42-1.81-2.67-3.75-3.91-5.69s-2.29-3.82-3.3-5.81a8.24,8.24,0,0,1-1.12-3.91c0-.1,0-.21-.1-.27v-.18a13.38,13.38,0,0,0,2-2.1c.16-.21.15-.33,0-.53a4.78,4.78,0,0,0-1.79-1v-.18a3.72,3.72,0,0,1,2,1,.47.47,0,0,1,.08.73,15.4,15.4,0,0,1-1.77,1.93.68.68,0,0,0-.24.59,9.45,9.45,0,0,0,.53,2.28,31.85,31.85,0,0,0,2,3.92,81,81,0,0,0,5.57,8.64,2,2,0,0,0,.6.68l.33-.72.17.19a11.91,11.91,0,0,0-.65,1.62.53.53,0,0,0-.06.1l0,0,0-.12a.3.3,0,0,0,.23-.13c1-1.13,2-2.26,3-3.38q2.55-2.88,5-5.87c.29-.36.47-.84.95-1l0,.35c-.72.72-1.29,1.58-1.95,2.35-1,1.14-1.94,2.29-2.93,3.43-1.54,1.77-3.1,3.52-4.65,5.28a.64.64,0,0,0-.13.46c0,1.53-.06,3.07-.11,4.6-.15,4.4-.09,8.8,0,13.2,0,2.23,0,4.46.08,6.68.09,1.89,0,3.77.09,5.65.08,1.31,0,2.62.09,3.92s0,2.84.09,4.25,0,2.62.08,3.93a5.58,5.58,0,0,0,.08.57Z"/><path class="cls-65" d="M205.43,159.74c.75-.11,1.51,0,2.25-.11l0,2.6H200.2a11,11,0,0,1,.07-2.22.69.69,0,0,1,.55-.13H205C205.15,159.87,205.34,160,205.43,159.74Z"/><path class="cls-66" d="M207.71,162.23l0-2.6,0-.29c.09.07.07.18.09.28v2.61Z"/><path class="cls-65" d="M240.64,68.83a3.56,3.56,0,0,1,.49,5.47.76.76,0,0,0-.11.14,4.13,4.13,0,0,1-2.71.82c-.2,0-.26.07-.27.26,0,.65-.08,1.29-.09,1.94,0,2.56-.07,5.12-.11,7.68a.73.73,0,0,0-.07.61c.1.54-.28.9-.46,1.34,0,0-.08,0-.1.09a10.5,10.5,0,0,1-5.27,4.33,7,7,0,0,1-4.55.19,3.72,3.72,0,0,1-2.75-2.55,9.9,9.9,0,0,1-.28-2.86,1.56,1.56,0,0,0,.24-.81l0-.36c.06-.39.13-.77.2-1.15,0-.19-.07-.28-.21-.37-2.75-1.77-3.82-4.49-4.26-7.57a20.79,20.79,0,0,1-.17-2.61c0-2,0-3.89-.1-5.84,0-.67-.06-1.35-.09-2l0-.16.37-1.64h0c.11-.06.08-.18.1-.28h0a2.75,2.75,0,0,0,.28-.82h0a.75.75,0,0,0,.18-.38h0l.1-.19h0a.22.22,0,0,0,.1-.19h0c.09,0,.09-.11.11-.19h0l.09-.1v0l.34-.5.11-.18.11-.18h0l.11-.1.08-.09.09-.1h0l.1-.1h0l.1-.1h0l.1-.07.17-.11a3,3,0,0,1,2.35-.07,15.74,15.74,0,0,0,2.22.49,13,13,0,0,0,2.92-.15,4.11,4.11,0,0,1,2,.1h0c0,.09.12.09.19.1h0l.2.16h0l.18.11h0l.38.35h0l.1.09h0c.11.11.18.26.35.29h0c0,.07,0,.09.1.1v0a.1.1,0,0,0,.1.11h0a.34.34,0,0,0,.27.2h0a2,2,0,0,0,.8.47l0,0,.64.45h0l.1.1h0l.1.1h0l.1.1h0l.18.2v0a.19.19,0,0,0,.1.2s0,.06,0,.07l.07.1h0a18.73,18.73,0,0,1,.54,2.21,6.79,6.79,0,0,1,.08,4.34.36.36,0,0,0,.16.47.37.37,0,0,0,.52-.2h0c.08,0,.09,0,.1-.1h0l.17-.2h0l.1-.1.08-.09.09-.09h0c.11-.06.1-.16.09-.27a5,5,0,0,1,1.64-1A2.52,2.52,0,0,1,240.64,68.83Zm-11.49-2.64-.09.09a.4.4,0,0,0,0,.56c.21.28.53.21.79.16a8.66,8.66,0,0,1,3.21-.08c.24,0,.54.08.64-.25s-.13-.46-.34-.61-.18-.15-.3-.14a4.45,4.45,0,0,0-3.47,0c-.07,0-.14,0-.19.08s-.14,0-.17.1ZM224,71.29l.1-.1a2,2,0,0,0,.13-1.27,1,1,0,0,0-.23-.65c-.41-.25-.71-.21-.83.15a2.18,2.18,0,0,0,.1,1.85.45.45,0,0,0,.74,0ZM221.37,66a.59.59,0,0,0-.37.18h0c-.41.17-.3.44-.1.68s.52.18.8.11a5.26,5.26,0,0,1,1.18-.24,4.7,4.7,0,0,1,1.9.32.49.49,0,0,0,.57-.09c.16-.17,0-.37-.09-.52a1,1,0,0,0-.59-.46l0,0a.41.41,0,0,0-.46-.15h-.09a3.26,3.26,0,0,0-2.73.18Zm9.42,5.26h0c.37.26.72.22.85-.13a2.35,2.35,0,0,0,0-1.71.49.49,0,0,0-.5-.32.4.4,0,0,0-.44.3A2.2,2.2,0,0,0,230.79,71.27ZM225.28,84l-.05,0,0,.05a5.07,5.07,0,0,0,3.62,1.87,7.44,7.44,0,0,0,4.83-1.45,5.23,5.23,0,0,0,1.61-1.6l0,0,0,0a27.62,27.62,0,0,1-2.45,1.34,9.06,9.06,0,0,1-5.81.5C226.43,84.52,225.9,84.16,225.28,84Zm1.26-14.59c-.1,0-.08.12-.08.19-.13,1-.27,2-.36,3-.06.76-.08,1.53-.1,2.3a1.44,1.44,0,0,0,.95,1.45.93.93,0,0,0,1.15-.26c-1.24.1-1.25-.3-1.44-1a4,4,0,0,1-.12-.84C226.53,72.66,226.54,71.05,226.54,69.43Zm1.54,10.08a5.52,5.52,0,0,0,3-1.08.18.18,0,0,0,.11-.21c0-.14-.13-.15-.24-.17a1.66,1.66,0,0,0-1.05.35c-1.25.66-2.48,1-3.69-.09a.24.24,0,0,0-.29,0,.22.22,0,0,0,0,.29,1.52,1.52,0,0,0,.22.34A2.32,2.32,0,0,0,228.08,79.51Z"/><path class="cls-67" d="M221.74,61l-.11.18c-.38,0-.34.26-.34.5v0l-.09.1h0c-.1,0-.11.11-.11.19h0c-.1,0-.1.11-.1.19h0c-.1,0-.1.11-.1.19h0c-.19.06-.21.21-.18.38h0a.87.87,0,0,0-.28.82h0c-.14.06-.1.17-.1.28h0c-.27.21-.18.55-.31.8s.06.48-.25.57l-1-2.13c-.17-.36-.22-.81-.62-1h0a1.37,1.37,0,0,0-.1-.66,4.86,4.86,0,0,1-.11-2.62,8.13,8.13,0,0,0,.4-1.27h0c.18,0,.19-.11.19-.23l.57-.59c.08,0,.14,0,.13-.13h0c.4.11.48-.16.54-.46h0c.24.11.3-.09.37-.23.32-.65.63-1.31,1-2a.23.23,0,0,1,.18-.19c.06,0,.13,0,.16-.06a4.15,4.15,0,0,1,2.43-1.14,5.64,5.64,0,0,1,2.09.1l2.29.44c.35.23.75,0,1.11.12.19.15.41.06.61.07a21,21,0,0,1,4.19.19,13.6,13.6,0,0,1,2.69,1c.45.23.79.67,1.32.72l.21.28c.1.33.38.47.64.63l.27.22c0,.07,0,.13.13.12h0a.28.28,0,0,0,.05.26,5.78,5.78,0,0,1,.68,1.83,3.23,3.23,0,0,0,.38,1c.17.29.26.7.67.8a.08.08,0,0,1,.09.09c0,.11.08.19.21.16h0c-.09.42.3.63.4,1a5.69,5.69,0,0,1-.14,3.71c-.34.87-.64,1.75-.92,2.65a1.69,1.69,0,0,1-.27.69c-.21.23-.45-.09-.7-.09s-.38-.08-.37.23a5,5,0,0,0-1.64,1c-.1.07-.09.17-.09.27h0l-.09.09-.08.09-.1.1h0c-.14,0-.2.06-.17.2h0l-.1.1h0c-.07,0-.16,0-.21,0-.31.17-.39.09-.28-.23l.06-.26a5.49,5.49,0,0,0,.16-2.35c-.12-1-.44-2-.63-2.93-.08-.37,0-.8-.4-1h0l-.07-.1s0,0,0-.07a.16.16,0,0,0-.1-.2v0c0-.14,0-.2-.18-.2h0l-.1-.1h0l-.1-.1h0l-.1-.1h0c-.09-.33-.34-.42-.64-.45l0,0c-.12-.42-.51-.36-.8-.47h0c0-.17-.12-.21-.27-.2h0l-.1-.11v0l-.1-.1h0a.35.35,0,0,0-.35-.29h0l-.1-.09h0c0-.27-.11-.39-.38-.35h0c0-.09-.09-.1-.17-.11h0c0-.13-.07-.18-.2-.16h0c0-.1-.1-.11-.19-.1h0c-.17-.32-.5-.32-.79-.37a4,4,0,0,0-1.5.16c-.39.08-.77,0-1.15.07a6.65,6.65,0,0,1-2.31-.14c-.83-.15-1.65-.4-2.49-.52a1.19,1.19,0,0,0-1.25.43l-.17.11c-.13-.11-.09,0-.1.07h0l-.1.1h0l-.1.1h0l-.09.1-.08.09-.11.1h0C221.75,60.8,221.75,60.88,221.74,61Z"/><path class="cls-68" d="M224.63,85.12l0,.36a6,6,0,0,0-3,1.08h0l-.28.19h0l-.21.15h0a.21.21,0,0,0-.17.12h0l-.21.17h0a.41.41,0,0,0-.26.21h0l-.11.1v0a2.82,2.82,0,0,0-.64.65h0l-.07,0c-.19,0-.29.1-.27.3h0a.49.49,0,0,0-.39,0,8,8,0,0,1-2.28.79,4.1,4.1,0,0,1-1.11,0H198c0-1.25,0-2.5,0-3.75,0-.31.09-.41.41-.42a28.31,28.31,0,0,1,2.91,0,26.28,26.28,0,0,1,3.55,0,10.81,10.81,0,0,0,1.7-.08c1.24,0,2.48.08,3.73.09,1,0,1.92.06,2.87,0s2,0,3,0c.58,0,1.16,0,1.74,0,1.43,0,2.87,0,4.3,0A17.19,17.19,0,0,1,224.63,85.12Z"/><path class="cls-65" d="M246.27,151.57c1.46,1.2,3,2.28,4.52,3.43a20.73,20.73,0,0,1,1.74,1.35l-1,1.88a54.57,54.57,0,0,1-4.66-3.17,11.32,11.32,0,0,1-1.88-1.51,15.24,15.24,0,0,1,1.05-2Z"/><path class="cls-69" d="M238.18,55.06c-.53-.05-.87-.49-1.32-.72a13.6,13.6,0,0,0-2.69-1,21,21,0,0,0-4.19-.19c-.2,0-.42.08-.61-.07.32-.08.69.17,1-.15h.8l-.25.1c.57,0,1.15.2,1.71-.05A8.77,8.77,0,0,1,238.18,55.06Z"/><path class="cls-3" d="M245,153.55a11.32,11.32,0,0,0,1.88,1.51,54.57,54.57,0,0,0,4.66,3.17c.29.21.29.21.11.36-2.06-1.43-4.16-2.8-6.15-4.32l-.65-.54v-.2Z"/><path class="cls-69" d="M228.26,53,226,52.52a5.64,5.64,0,0,0-2.09-.1,4.15,4.15,0,0,0-2.43,1.14s-.1,0-.16.06c0-.2.12-.29.25-.39a4.12,4.12,0,0,1,2.41-1,11.31,11.31,0,0,1,3.52.4l.88.16Z"/><path class="cls-69" d="M241.2,60.23c-.41-.1-.5-.51-.67-.8a3.23,3.23,0,0,1-.38-1,5.78,5.78,0,0,0-.68-1.83.28.28,0,0,1-.05-.26,4.55,4.55,0,0,1,1,2.21,1.28,1.28,0,0,0,.18.54.51.51,0,0,0,.19.4h0Z"/><path class="cls-69" d="M218.19,62c.4.24.45.69.62,1l1,2.13c0,.13.13.17.19.27l0,.16a3.91,3.91,0,0,1-.74-1.26c-.36-.7-.64-1.44-1-2.13A.51.51,0,0,1,218.19,62Z"/><path class="cls-69" d="M218.39,57.41a8.13,8.13,0,0,1-.4,1.27,4.86,4.86,0,0,0,.11,2.62,1.37,1.37,0,0,1,.1.66A4.83,4.83,0,0,1,218.39,57.41Z"/><path class="cls-70" d="M205.43,159.74c-.09.22-.28.13-.43.13h-4.18a.69.69,0,0,0-.55.13v-.11l0-.09.08,0c1.53.06,3.07-.05,4.6-.05Z"/><path class="cls-69" d="M221.11,53.81c-.32.66-.63,1.32-1,2-.07.14-.13.34-.37.23.36-.4.41-.95.69-1.39C220.65,54.33,220.72,53.94,221.11,53.81Z"/><path class="cls-71" d="M228.26,53l.09-.14c.66.12,1.33,0,2,.11-.28.32-.65.07-1,.15C229,52.94,228.61,53.19,228.26,53Z"/><path class="cls-71" d="M232.6,53c-.56.25-1.14,0-1.71.05l.25-.1A3.59,3.59,0,0,1,232.6,53Z"/><path class="cls-69" d="M239,56c-.26-.16-.54-.3-.64-.63A.92.92,0,0,1,239,56Z"/><path class="cls-69" d="M219.8,56c-.06.3-.14.57-.54.46Z"/><path class="cls-63" d="M240.76,59.45a.51.51,0,0,1-.19-.4C240.78,59.12,240.86,59.24,240.76,59.45Z"/><path class="cls-69" d="M218.57,57.19c0,.12,0,.24-.19.23C218.43,57.33,218.45,57.22,218.57,57.19Z"/><path class="cls-69" d="M219.27,56.47c0,.1-.05.12-.13.13S219.21,56.51,219.27,56.47Z"/><path class="cls-69" d="M239.43,56.31c-.1,0-.12-.05-.13-.12S239.4,56.26,239.43,56.31Z"/><path class="cls-65" d="M200.3,159.81l0,.09C200.22,159.85,200.23,159.82,200.3,159.81Z"/><path class="cls-68" d="M251.52,81.51c0,1.78,0,3.56,0,5.34,0,.36-.12.45-.47.45-1.56,0-3.13,0-4.7,0-.35,0-.46-.1-.46-.46,0-.75.14-1.5.07-2.25-.1-1.17,0-2.34-.06-3.51a9.89,9.89,0,0,1,0-1.54,31.56,31.56,0,0,0,0-3.37c0-.33.06-.48.44-.48,1.59,0,3.17,0,4.75,0,.34,0,.44.1.43.43C251.51,77.93,251.52,79.72,251.52,81.51Z"/><path class="cls-68" d="M251.52,64.62c0,1.74,0,3.47,0,5.2,0,.35-.1.47-.46.46-1.57,0-3.13,0-4.7,0-.34,0-.47-.07-.47-.45q0-5.26,0-10.53c0-.33.09-.44.43-.44,1.59,0,3.17,0,4.75,0,.38,0,.45.14.44.47C251.51,61.1,251.52,62.86,251.52,64.62Z"/><path class="cls-68" d="M261.75,81.51c0-1.78,0-3.56,0-5.34,0-.38.11-.48.48-.47h4.62c.33,0,.43.09.43.43q0,5.36,0,10.72c0,.36-.11.45-.46.45-1.54,0-3.07,0-4.61,0-.36,0-.47-.1-.46-.46C261.75,85.07,261.75,83.29,261.75,81.51Z"/><path class="cls-68" d="M254,81.51c0-1.78,0-3.56,0-5.33,0-.38.11-.49.48-.48h4.62c.33,0,.44.08.44.43,0,3.58,0,7.17,0,10.76,0,.32-.1.41-.42.41-1.57,0-3.13,0-4.7,0-.36,0-.42-.14-.42-.45C254,85.07,254,83.29,254,81.51Z"/><path class="cls-68" d="M267.26,98.54c0,1.78,0,3.56,0,5.34,0,.33-.08.44-.43.44q-2.32,0-4.65,0c-.33,0-.45-.07-.45-.43q0-5.37,0-10.76c0-.3.08-.42.41-.42,1.56,0,3.13,0,4.7,0,.35,0,.42.13.42.45C267.26,95,267.26,96.75,267.26,98.54Z"/><path class="cls-68" d="M259.48,64.58c0,1.75,0,3.5,0,5.25,0,.36-.11.46-.46.45-1.56,0-3.11,0-4.66,0-.31,0-.42-.08-.42-.41q0-5.31,0-10.62c0-.3.1-.39.39-.39,1.59,0,3.17,0,4.75,0,.34,0,.4.14.39.43C259.47,61.06,259.48,62.82,259.48,64.58Z"/><path class="cls-68" d="M267.26,64.62c0,1.74,0,3.47,0,5.2,0,.35-.09.47-.45.46-1.56,0-3.11,0-4.66,0-.3,0-.42-.07-.42-.4q0-5.31,0-10.63c0-.29.09-.39.39-.39q2.37,0,4.74,0c.34,0,.4.13.4.43C267.26,61.07,267.26,62.84,267.26,64.62Z"/><path class="cls-68" d="M264.68,121.56c-.58-2.71-1.26-5.31-1.94-7.9-.3-1.13-.63-2.26-1-3.38-.11-.38.06-.63.46-.63,1.54,0,3.07,0,4.61,0,.31,0,.42.08.42.41q0,5.43,0,10.86c0,.35-.12.43-.44.42-.58,0-1.15,0-1.72,0C264.94,121.32,264.77,121.3,264.68,121.56Z"/><path class="cls-72" d="M237.84,85.14c0-2.56.07-5.12.11-7.68,0-.65.06-1.29.09-1.94,0-.19.07-.28.27-.26a4.13,4.13,0,0,0,2.71-.82v12a.89.89,0,0,1-.19.67l-.94-.92-.13-.1h0a.56.56,0,0,0-.28-.2h0a2.34,2.34,0,0,0-.73-.39h0A5.21,5.21,0,0,0,237.84,85.14Z"/><path class="cls-68" d="M259.39,103.66c-.39-1-.82-1.91-1.27-2.81a18.08,18.08,0,0,0-3.84-5.3,1,1,0,0,1-.33-.79c0-.57,0-1.15,0-1.72,0-.23.08-.32.31-.32h4.89c.22,0,.32.07.32.31v10.5S259.45,103.57,259.39,103.66Z"/><path class="cls-73" d="M239.89,86.2l.94.92.1.11c0,.14,0,.25.19.23h0c0,.09,0,.17.12.17h0a.12.12,0,0,0,.09.12h0c0,.2,0,.39.29.45h0c0,.1,0,.18.12.17h0c-.07.17,0,.29.11.42a9.78,9.78,0,0,1,1.11,4.68c0,.72,0,1.44-.07,2.16a19.23,19.23,0,0,1-.5,3.29c-.06.22-.25.46,0,.7l0,0a2.33,2.33,0,0,0,1.29.44h0c.1.31.37.34.62.39h0a.12.12,0,0,0,.12.1l0,0a.11.11,0,0,0,.12.1v0c0,.12.07.13.16.13h0l.11.1h0l.11.1h0l.11.1h0l.1.1h0l.1.1.07.08c0,.09,0,.17.11.2h0a.36.36,0,0,0,.28.37h0l.6,1.76.09,0,.11.64a4.1,4.1,0,0,0-.08,1.26v.2a.11.11,0,0,1,0,.08c-.12.37-.25.73-.36,1.1s-.23.19-.39.16-.23-.15-.18-.33.06-.36.1-.53a5.66,5.66,0,0,0-.49-3.77c-.09-.17-.15-.41-.41-.43h0l-.1-.1-.08-.1,0-.06-.07,0v0c0-.07,0-.1-.1-.1h0c0-.07,0-.1-.11-.1h0c0-.07,0-.1-.11-.1v0c0-.13-.07-.13-.16-.14l-.08-.07c0-.11-.08-.19-.22-.15l0,0,0,0a.63.63,0,0,0-.71-.38h0c0-.19-.21-.2-.35-.23a4.07,4.07,0,0,0-1.87,0c-.11,0-.23.06-.28.19h0c-.09,0-.16,0-.19.09h0c-.16,0-.32,0-.37.18-.08,0-.16,0-.17.1a.21.21,0,0,0-.28.18l-.1.07c-.14,0-.24,0-.26.2-.06,0-.08,0-.09.09l-.1.08-.09.09a.18.18,0,0,0-.19.08l-.09.09a.18.18,0,0,0-.08.19l-.09.09-.09.1a.08.08,0,0,0-.08.09c-.09,0-.1.09-.11.16l-.08.11a.07.07,0,0,0-.08.09c-.1,0-.11.09-.1.18s-.1.1-.1.17l-.08.1a.37.37,0,0,0-.19.36,2.2,2.2,0,0,0-.54,1.27c-.17.1-.19.3-.23.47-.09.36-.33.15-.5.14s-.16-.18-.11-.33c.13-.38.29-.75.4-1.14s.53-.9.57-1.44h0c.27,0,.29-.23.3-.43h0a.12.12,0,0,0,.09-.12h0c.17,0,.22-.11.21-.26h0l.1-.11h0a.12.12,0,0,0,.11-.11l0,0a.11.11,0,0,0,.1-.11v0a.11.11,0,0,0,.1-.12l0,0c.16,0,.32-.06.28-.29h0c.14,0,.21,0,.2-.17h0l.11-.1h0c.09,0,.17,0,.16-.13v0l0,0c.15.06.22,0,.22-.15h0c.09,0,.17,0,.18-.13l0,0a.09.09,0,0,0,.12-.08h0c.75-.23,1.46-.58,2.23-.75,0,0,0,0,0-.08l0-.08c.2,0,.16-.16.11-.29h0c.21,0,.19-.22.22-.35.14-.61.27-1.23.37-1.85,0-.15.21-.34,0-.49l0-.45a.35.35,0,0,0,.17-.35,18.2,18.2,0,0,0-.3-4.66,2.62,2.62,0,0,0-.63-1.5h0c0-.16,0-.32-.19-.37h0c0-.09,0-.17-.1-.19h0a1.21,1.21,0,0,0-.56-.92v0c0-.1,0-.18-.13-.17h0c.07-.14,0-.21-.14-.21h0c0-.1,0-.17-.13-.17h0c.09-.16,0-.19-.13-.26L238.3,86a.24.24,0,0,0-.29-.19h0a.69.69,0,0,0-.07-.15c-.09-.1-.14-.22-.07-.32s.21,0,.31,0,.37.19.59.12h0a.89.89,0,0,0,.73.39h0a.23.23,0,0,0,.28.2h0C239.76,86.18,239.82,86.19,239.89,86.2Z"/><path class="cls-3" d="M236.3,136.63l3.71.08,0,.52-.08-.25a4.42,4.42,0,0,0,0,1.54c0,.13-.06.35.17.35s.11-.21.13-.32c0-.3.06-.6.06-.9,0-1,0-1,1.09-.87l2.84,0c.19,0,.27.08.26.28,0,.67,0,1.35-.09,2,0,.18-.12.22-.27.21l-5.1-.13-1.81-.08c0-.23-.24-.15-.37-.15h-1.27c-.25,0-.35-.09-.34-.34,0-.53,0-1.06,0-1.58,0-.3.12-.36.38-.36S236.08,136.78,236.3,136.63Z"/><path class="cls-64" d="M246.27,151.57l-.25,0a6.7,6.7,0,0,1,.73-3.59c1.31-2.85,2.59-5.72,3.89-8.59a1.72,1.72,0,0,0,.07-.21,1.92,1.92,0,0,0,.18-.31c.53-1.15,1-2.32,1.57-3.44a2.55,2.55,0,0,0,.16-2.32,6.9,6.9,0,0,1-.21-.78c-.29-1.1-.59-2.2-.89-3.29s-.48-2-.73-3l-2.94-12.13c-.28-1.14-.54-2.28-.81-3.42a1,1,0,0,1,0-.17c0-.11-.08-.28.08-.31s.16.13.19.24l.87,3.68c.45,1.88.87,3.75,1.33,5.62q1.51,6.09,3.05,12.19c.17.67.37,1.33.55,2,.06.22.14.29.41.25a6.46,6.46,0,0,0,1.62-.37c.11-.05.22,0,.25.1s-.08.13-.16.15a11.82,11.82,0,0,1-1.4.33.87.87,0,0,0-.78.61c-.81,1.86-1.66,3.71-2.5,5.56-1.38,3.07-2.88,6.09-4.11,9.24a5.38,5.38,0,0,0-.12,1.79A1.48,1.48,0,0,0,246.27,151.57Z"/><path class="cls-72" d="M251.52,129c.3,1.09.6,2.19.89,3.29a6.9,6.9,0,0,0,.21.78,2.55,2.55,0,0,1-.16,2.32c-.57,1.12-1,2.29-1.57,3.44a1.92,1.92,0,0,1-.18.31c-.13-.1-.1-.25-.09-.38.12-1.33.17-2.66.28-4,.13-1.55.16-3.1.42-4.64A4.32,4.32,0,0,1,251.52,129Z"/><path class="cls-66" d="M240.3,118.6a2.83,2.83,0,0,0,1.92-1.31,10.16,10.16,0,0,0,1.45-3.61c.59-2.21,1-4.46,1.44-6.69l.63.15a26.2,26.2,0,0,1-.56,2.91,36.49,36.49,0,0,1-1.53,6,5.08,5.08,0,0,1-1.92,2.67,2.19,2.19,0,0,1-1.56.48C240.22,119,240.26,118.81,240.3,118.6Z"/><path class="cls-66" d="M235.2,107.91l0-.35h0l.06-.1a12.19,12.19,0,0,0,.49-2,1.77,1.77,0,0,1,.72.17v.2c-.12.13-.06.32-.14.47a52.09,52.09,0,0,0-1.49,6.4,9.58,9.58,0,0,0-.07,3.54,2.9,2.9,0,0,0,1,1.82.17.17,0,0,1,0,.07h0l-.1.09h0l-.19.4a1.76,1.76,0,0,1-.95-1,6.13,6.13,0,0,1-.54-3.48A35.25,35.25,0,0,1,235.2,107.91Z"/><path class="cls-3" d="M255.31,154.66c-.12.14-.23,0-.33,0l-1.33-.94q-3.19-2.28-6.38-4.59c-.14-.1-.45-.18-.31-.39s.31.08.45.18l3.78,2.7,3.85,2.77C255.15,154.44,255.29,154.49,255.31,154.66Z"/><path class="cls-71" d="M241.37,136.78c-1.05-.16-1.05-.16-1.09.87,0,.3,0,.6-.06.9,0,.11.07.32-.13.32s-.13-.22-.17-.35l.06-1.29,0-.52c0-1.14.07-2.28.13-3.42,0-.72.56-1.06,1.09-.73a.67.67,0,0,1,.3.66C241.47,134.41,241.42,135.6,241.37,136.78Zm-.55-.16c.37.09.53-.06.39-.5a2.16,2.16,0,0,1,0-.36c-.08-.88.22-1.75.1-2.64,0-.31-.19-.44-.44-.45s-.49,0-.48.3a13.4,13.4,0,0,0-.12,2,2.76,2.76,0,0,1,0,1C240.12,136.56,240.17,136.62,240.82,136.62Zm-.62.5,0-.07a.21.21,0,0,0,0,.07s0,0,0,.07Z"/><path class="cls-69" d="M239.49,68.63c0-.31.19-.23.37-.23s.49.32.7.09a1.69,1.69,0,0,0,.27-.69c.28-.9.58-1.78.92-2.65a5.69,5.69,0,0,0,.14-3.71c-.1-.34-.49-.55-.4-1a4.06,4.06,0,0,1,.78,3.51,41.23,41.23,0,0,1-1.63,4.85A2.52,2.52,0,0,0,239.49,68.63Z"/><path class="cls-64" d="M236.34,106.32c.08-.15,0-.34.14-.47l.08,0c1.18-1.44,2.29-2.93,3.35-4.47a.71.71,0,0,0,.19-.58h0l.29,0c.05.46-.29.75-.5,1.08-1,1.48-2.09,2.89-3.23,4.26C236.57,106.19,236.49,106.3,236.34,106.32Z"/><path class="cls-71" d="M242.31,99.6c-.22-.24,0-.48,0-.7a19.23,19.23,0,0,0,.5-3.29c0-.72.09-1.44.07-2.16a9.78,9.78,0,0,0-1.11-4.68c-.07-.13-.18-.25-.11-.42A8.55,8.55,0,0,1,243,92.59,21.27,21.27,0,0,1,242.31,99.6Z"/><path class="cls-73" d="M236.77,119c-.27.11-.5.36-.82.17a1.37,1.37,0,0,1-.28-.91h0l.1-.09h0l.35-.08c.56-.09.77.13.67.69A1.62,1.62,0,0,0,236.77,119Z"/><path class="cls-71" d="M245.74,107.14l-.63-.15a3,3,0,0,1,.16-1.19,5.27,5.27,0,0,0-.83-3.93c.26,0,.32.26.41.43a5.66,5.66,0,0,1,.49,3.77c0,.17-.05.35-.1.53s0,.29.18.33.32.07.39-.16.24-.73.36-1.1A2.16,2.16,0,0,1,245.74,107.14Z"/><path class="cls-64" d="M244.82,153.53v.2a15.82,15.82,0,0,1-1.87-1.38c-.31-.22-.6-.46-.89-.68-.08-.06-.16-.12-.07-.22s.16-.06.24,0C243.07,152.18,244,152.74,244.82,153.53Z"/><path class="cls-71" d="M240.3,118.6c0,.21-.08.42-.13.63-.08.06-.11.19-.23.2h0c0-.14.12-.27.16-.41.11-.39-.1-.9-.38-.94a1,1,0,0,0-1,1.1c0,.11,0,.23.08.34h0a.82.82,0,0,1-.11-1.09,1.12,1.12,0,0,1,1.1-.54C240.13,118,240.23,118.27,240.3,118.6Z"/><path class="cls-66" d="M236.3,136.63c-.22.15-.47.07-.7.07s-.39.06-.38.36c0,.52,0,1.05,0,1.58,0,.25.09.35.34.34h1.27c.13,0,.32-.08.37.15l-1.8-.06c-.19,0-.28,0-.27-.26q0-1,0-1.95c0-.19.07-.26.26-.25Z"/><path class="cls-71" d="M236.77,119a1.62,1.62,0,0,1,0-.22c.1-.56-.11-.78-.67-.69l-.35.08a.17.17,0,0,0,0-.07,1.14,1.14,0,0,1,.54-.2.69.69,0,0,1,.68.41A.5.5,0,0,1,236.77,119Z"/><path class="cls-71" d="M240.31,100.61c.05-.13.17-.16.28-.19a4.07,4.07,0,0,1,1.87,0c.14,0,.31,0,.35.23a3.45,3.45,0,0,0-2.43,0A.06.06,0,0,0,240.31,100.61Z"/><path class="cls-71" d="M246.15,103.49l-.09,0-.6-1.76A4.91,4.91,0,0,1,246.15,103.49Z"/><path class="cls-71" d="M239.94,119.43a.73.73,0,0,1-1.19.09h0a1.64,1.64,0,0,0,1.17-.09Z"/><path class="cls-71" d="M243.58,100a2.33,2.33,0,0,1-1.29-.44A4.19,4.19,0,0,1,243.58,100Z"/><path class="cls-71" d="M235.67,118.24a1.37,1.37,0,0,0,.28.91c-.35,0-.38-.28-.47-.51Z"/><path class="cls-69" d="M246.18,105.39a4.1,4.1,0,0,1,.08-1.26,7.57,7.57,0,0,1,0,1.26Z"/><path class="cls-71" d="M242.8,100.63a.63.63,0,0,1,.71.38Z"/><path class="cls-71" d="M244.2,100.4c-.25-.05-.52-.08-.62-.39A1.81,1.81,0,0,1,244.2,100.4Z"/><path class="cls-71" d="M245.47,101.77a.36.36,0,0,1-.28-.37A.53.53,0,0,1,245.47,101.77Z"/><path class="cls-71" d="M241.59,88.18c-.24-.06-.28-.25-.29-.45A1.13,1.13,0,0,1,241.59,88.18Z"/><path class="cls-71" d="M241.12,87.46c-.18,0-.19-.09-.19-.23A.36.36,0,0,1,241.12,87.46Z"/><path class="cls-74" d="M240.31,100.61a.06.06,0,0,1,.07,0v.12l-.29,0,0-.06h0c.07,0,.16,0,.19-.09Z"/><path class="cls-69" d="M241.5,60.48c-.13,0-.18,0-.21-.16A.18.18,0,0,1,241.5,60.48Z"/><path class="cls-71" d="M243.51,101c.14,0,.19,0,.22.15Z"/><path class="cls-71" d="M241.24,87.63c-.12,0-.13-.08-.12-.17Z"/><path class="cls-71" d="M246.18,105.39h.08c0,.09,0,.16-.08.2Z"/><path class="cls-71" d="M241.7,88.34c-.13,0-.14-.07-.12-.17Z"/><path class="cls-71" d="M245.2,101.41c-.1,0-.11-.11-.11-.2S245.18,101.34,245.2,101.41Z"/><path class="cls-71" d="M243.81,101.23c.09,0,.17,0,.16.14Z"/><path class="cls-71" d="M244.56,100.68c-.09,0-.17,0-.16-.13Z"/><path class="cls-71" d="M244.75,100.86l-.11-.1Z"/><path class="cls-71" d="M244.84,101l-.11-.1Z"/><path class="cls-71" d="M244.66,100.77l-.11-.1Z"/><path class="cls-71" d="M244.41,100.57a.11.11,0,0,1-.12-.1Z"/><path class="cls-71" d="M244.93,101l-.1-.1Z"/><path class="cls-71" d="M244.31,100.49a.12.12,0,0,1-.12-.1Z"/><path class="cls-71" d="M245,101.13l-.1-.1Z"/><path class="cls-71" d="M244,101.35c.07,0,.11,0,.11.1Z"/><path class="cls-71" d="M244.05,101.44c.07,0,.11,0,.11.1Z"/><path class="cls-71" d="M244.14,101.53c.07,0,.11,0,.1.1Z"/><path class="cls-71" d="M244.23,101.65l.07,0,0,.06S244.24,101.67,244.23,101.65Z"/><path class="cls-71" d="M244.35,101.78l.1.1Z"/><path class="cls-71" d="M241.31,87.74a.12.12,0,0,1-.09-.12Z"/><path class="cls-68" d="M209.85,92.82c-3.33,2.7-5,6.44-6.48,10.3v-.29c0-3.2,0-6.4,0-9.59,0-.42.12-.53.53-.53,1.85,0,3.71,0,5.56,0h.35Z"/><path class="cls-73" d="M216.32,98.16c.19-.31,0-.69.17-1a3,3,0,0,0,.17-1,20,20,0,0,1,1.18-4.75,7.71,7.71,0,0,0,.72-1.73h0c.27,0,.28-.25.28-.46h0a.76.76,0,0,0,.46-.65h0c.18,0,.19-.09.19-.22l.21-.23.06-.1h0a.88.88,0,0,0,.64-.65v0l.11-.1h0c.15,0,.25,0,.26-.21h0c.14,0,.21,0,.21-.17h0c.09,0,.17,0,.17-.12h0c.15.06.21,0,.21-.15h0c.15,0,.28,0,.28-.19h0a.68.68,0,0,0,.46-.14,6.73,6.73,0,0,1,1.88-.73c.16,0,.41-.15.47.16s-.1.34-.33.37a1.67,1.67,0,0,0-.44.11c-.28.13-.65.12-.81.47h0c-.28,0-.53,0-.62.37v0c-.07,0-.1,0-.12.08h0c-.19,0-.36,0-.37.28h0c-.15,0-.26,0-.26.21h0c-.2,0-.3.06-.29.26h0c-.14,0-.2,0-.19.18l-.08.08-.1.1h0l-.1.11h0c-.16,0-.21.06-.18.2h0c-.07,0-.1,0-.1.11h0c-.07,0-.11,0-.09.1v0c-.29,0-.28.21-.31.4h0c-.21,0-.2.14-.19.28h0a.22.22,0,0,0-.18.28h0a.1.1,0,0,0-.08.12h0c-.31.06-.31.29-.31.53v0c-.11,0-.11.11-.11.2v0c-.1,0-.1.11-.09.2h0a.44.44,0,0,0-.25.56v0c-.45.35-.49.9-.65,1.38a27.58,27.58,0,0,0-1.11,7,37.52,37.52,0,0,0,.11,4.24,6.75,6.75,0,0,0,.24,1.94.11.11,0,0,1,0,.08,10.5,10.5,0,0,0,.32,2.62c.08.38-.13.39-.36.47s-.3-.13-.33-.31c-.1-.5-.15-1-.28-1.5-.08-.3.07-.66-.24-.9l0-.45a2.87,2.87,0,0,0-.07-1.27c0-.85-.08-1.71-.09-2.56,0-1.16,0-2.32,0-3.48C216.4,98.47,216.46,98.3,216.32,98.16Z"/><path class="cls-66" d="M217.92,108.39a2.7,2.7,0,0,1,2.74,2.61,3.61,3.61,0,0,1-.18,1.42,2.93,2.93,0,1,1-4.4-3.58,1.5,1.5,0,0,1,.79-.3c.19.22.07.58.35.75l-.27.17a.69.69,0,0,0-.28.28c-.3,0-.35.32-.55.46a1.64,1.64,0,0,0,.09,2.19c.13.14.22.38.49.3l0,.12a1.74,1.74,0,0,0,1.27.44c.12,0,.26.07.35-.07h0a.89.89,0,0,0,.72-.29,1.72,1.72,0,0,0,.63-1.44,2.16,2.16,0,0,0,0-.44c-.09-.45-.15-.93-.65-1.15-.27-.52-.77-.59-1.27-.68C218.21,109,217.82,108.64,217.92,108.39Z"/><path class="cls-64" d="M207.81,159.62c0-.1,0-.21-.09-.28a.45.45,0,0,1-.08-.47,16.64,16.64,0,0,0,.07-2.34c.09-2.79.15-5.57.21-8.36q.08-3.63.18-7.27c.05-1.46,0-2.92.08-4.38.11-2.43.12-4.87.19-7.31s.11-5,.18-7.54c.06-2.29.1-4.58.19-6.86,0-1.37,0-2.75.08-4.11s0-2.87.09-4.29c0-.67.06-1.33.07-2,0-.11,0-.28.15-.26s.12.16.11.26c-.17,1.78,0,3.58-.16,5.37,0,.09,0,.18,0,.27,0,2.17,0,4.34-.11,6.51-.08,2.49-.11,5-.19,7.49,0,1.17,0,2.35-.08,3.52s0,2.6-.09,3.89,0,2.53-.09,3.79,0,2.71-.1,4.06,0,2.65-.07,4c-.11,2.49-.14,5-.2,7.49l-.18,6.82A8.52,8.52,0,0,1,207.81,159.62Z"/><path class="cls-71" d="M217.48,105.93a6.75,6.75,0,0,1-.24-1.94,37.52,37.52,0,0,1-.11-4.24,27.58,27.58,0,0,1,1.11-7c.16-.48.2-1,.65-1.38l-.12.29a20.11,20.11,0,0,0-1.28,5.46v.18a24.33,24.33,0,0,0-.19,3.62v.18c0,1.47.08,2.93.2,4.39C217.5,105.6,217.48,105.77,217.48,105.93Z"/><path class="cls-71" d="M218.56,89.72a7.71,7.71,0,0,1-.72,1.73,20,20,0,0,0-1.18,4.75,3,3,0,0,1-.17,1c-.25-.26,0-.51,0-.75a17.52,17.52,0,0,1,1.94-6.52A1.13,1.13,0,0,1,218.56,89.72Z"/><path class="cls-71" d="M217.22,109.29c-.28-.17-.16-.53-.35-.75-.08-.57-.16-1.14-.26-1.7a1.7,1.7,0,0,1,0-.45c.31.24.16.6.24.9.13.49.18,1,.28,1.5,0,.18,0,.42.33.31s.44-.09.36-.47a10.5,10.5,0,0,1-.32-2.62,7.49,7.49,0,0,1,.27,1.56c.06.27.11.54.16.82s.29.63-.19.79Z"/><path class="cls-71" d="M216.32,98.16c.14.14.08.31.08.47,0,1.16,0,2.32,0,3.48,0,.85.06,1.71.09,2.56h-.09A42.88,42.88,0,0,1,216.32,98.16Z"/><path class="cls-72" d="M199.93,117.54l-.94,6.4A46.37,46.37,0,0,1,199.93,117.54Z"/><path class="cls-72" d="M200,117.17a16.81,16.81,0,0,1,.72-3.79Z"/><path class="cls-75" d="M216.41,104.67h.09a2.87,2.87,0,0,1,.07,1.27A4.91,4.91,0,0,1,216.41,104.67Z"/><path class="cls-72" d="M201.13,111.78l-.31,1.32A2.06,2.06,0,0,1,201.13,111.78Z"/><path class="cls-71" d="M219.29,88.63a.76.76,0,0,1-.46.65A2.73,2.73,0,0,1,219.29,88.63Z"/><path class="cls-72" d="M201.14,111.51a.69.69,0,0,1,.11-.61C201.34,111.12,201.24,111.28,201.14,111.51Z"/><path class="cls-72" d="M201.31,110.59a.66.66,0,0,1,.12-.51A.44.44,0,0,1,201.31,110.59Z"/><path class="cls-71" d="M218.84,89.27c0,.21,0,.42-.28.46A1.21,1.21,0,0,1,218.84,89.27Z"/><path class="cls-71" d="M219.47,88.42c0,.13,0,.24-.19.22l.12-.24h0Z"/><path class="cls-3" d="M224.36,86.29a9.9,9.9,0,0,0,.28,2.86,3.72,3.72,0,0,0,2.75,2.55,7,7,0,0,0,4.55-.19,10.5,10.5,0,0,0,5.27-4.33s.07-.06.1-.09a2.26,2.26,0,0,1,0,.45,84.71,84.71,0,0,1-3.75,13.34c-1.95,5.3-4.4,10.38-6.81,15.47l-.17-.19a2.84,2.84,0,0,0-.06-.31,53.1,53.1,0,0,1-1.35-6c-.37-2-.66-4.06-1-6.09-.19-1.28-.31-2.56-.46-3.84,0,0,.07-.08.07-.11-.06-.89-.13-1.78-.2-2.66,0,0-.08-.07-.13-.1v-.21c.05,0,.12,0,.12-.08s-.07-.07-.13-.08v-.2c.11-.09.08-.22.08-.34V90.54c0-.12,0-.25-.08-.34v-.29c.14,0,.17-.11.17-.23a27.36,27.36,0,0,1,.15-3.26Z"/><path class="cls-74" d="M226.73,116.35c2.41-5.09,4.86-10.17,6.81-15.47a84.71,84.71,0,0,0,3.75-13.34,2.26,2.26,0,0,0,0-.45c.18-.44.56-.8.46-1.34l.25.11h0l.29.19,1.64,1.21c-.06.14.07.18.13.26h0l.13.17h0l.14.21h0l.13.17v0l.56.92h0l.1.19h0l.19.37h0a12.36,12.36,0,0,1,.84,5A10.27,10.27,0,0,0,242,96l0,.45-.58,2.69h0l-.11.29,0,.08a4.78,4.78,0,0,0-2.27.83h0l-.12.08,0,0-.18.13h0l-.22.15,0,0v0l-.16.13h0l-.11.1h0l-.2.17h0a.78.78,0,0,0-.28.29l0,0-.1.12v0l-.1.11,0,0-.11.11h0l-.1.11h0l-.21.26h0l-.09.12h0l-.3.43h0a12.3,12.3,0,0,0-1.21,2.87c0,.06,0,.11.08.14a12.19,12.19,0,0,1-.49,2l-.06.1h0c-.48.2-.66.68-.95,1q-2.43,3-5,5.87c-1,1.12-2,2.25-3,3.38a.3.3,0,0,1-.23.13h0A11.91,11.91,0,0,1,226.73,116.35Zm13-16.54c-.2-.42-.48-.66-.63-1s-.07-.36.19-.46a4.41,4.41,0,0,1,2.2-.38.63.63,0,0,0-.56-.28,4.72,4.72,0,0,0-1.57.36c-.79.24-.8.23-.42,1C239.12,99.34,239.26,99.68,239.75,99.81Z"/><path class="cls-74" d="M223.47,89.91v.29c-.1,2.1-.08,4.21,0,6.31v.57c.09,1,.18,1.91.26,2.87.15,1.28.27,2.56.46,3.84.29,2,.58,4.07,1,6.09a53.1,53.1,0,0,0,1.35,6,2.84,2.84,0,0,1,.06.31c-.11.23-.21.46-.33.72a2,2,0,0,1-.6-.68,81,81,0,0,1-5.57-8.64,31.85,31.85,0,0,1-2-3.92,9.45,9.45,0,0,1-.53-2.28.68.68,0,0,1,.24-.59,15.4,15.4,0,0,0,1.77-1.93.47.47,0,0,0-.08-.73,3.72,3.72,0,0,0-2-1,20.11,20.11,0,0,1,1.28-5.46l.12-.29v0c.08-.19.17-.37.25-.56h0c.08,0,.08-.12.09-.2v0c.08,0,.09-.12.11-.2v0l.31-.53h0l.08-.12h0a.53.53,0,0,0,.18-.28h0l.19-.28h0l.31-.4v0l.09-.1h0l.1-.11h0l.18-.2h0l.1-.11h0l.1-.1.08-.08.19-.18h0l.29-.26h0l.26-.21h0l.37-.28h0l.12-.08v0c.21-.12.42-.24.62-.37h0a4.45,4.45,0,0,1,.86-.32Z"/><path class="cls-74" d="M217.29,100.87a24.33,24.33,0,0,1,.19-3.62,4.78,4.78,0,0,1,1.79,1c.19.2.2.32,0,.53A13.38,13.38,0,0,1,217.29,100.87Z"/><path class="cls-74" d="M226.09,118l0,.12,0,0a.53.53,0,0,1,.06-.1Z"/><path class="cls-70" d="M235.32,82.86a5.23,5.23,0,0,1-1.61,1.6,7.44,7.44,0,0,1-4.83,1.45A5.07,5.07,0,0,1,225.26,84l0,0c.62.14,1.15.5,1.77.67a9.06,9.06,0,0,0,5.81-.5,27.62,27.62,0,0,0,2.45-1.34Z"/><path class="cls-67" d="M224.1,65.84h.09a.45.45,0,0,0,.46.15l0,0c0,.27.22.29.34.43s.32.25.21.44-.31.1-.46,0a4.61,4.61,0,0,0-3.13-.06c-.57.18-.8-.08-.63-.65h0c.17,0,.31,0,.37-.18h0a1.75,1.75,0,0,0,.4,0,2.54,2.54,0,0,1,1.95-.09A.47.47,0,0,0,224.1,65.84Z"/><path class="cls-70" d="M226.54,69.43c0,1.62,0,3.23,0,4.84a4,4,0,0,0,.12.84c.19.69.2,1.09,1.44,1a.93.93,0,0,1-1.15.26,1.44,1.44,0,0,1-.95-1.45c0-.77,0-1.54.1-2.3.09-1,.23-2,.36-3C226.46,69.55,226.44,69.46,226.54,69.43Z"/><path class="cls-70" d="M228.08,79.51a2.32,2.32,0,0,1-1.92-.61,1.52,1.52,0,0,1-.22-.34.22.22,0,0,1,0-.29.24.24,0,0,1,.29,0c1.21,1,2.44.75,3.69.09a1.66,1.66,0,0,1,1.05-.35c.11,0,.21,0,.24.17a.18.18,0,0,1-.11.21A5.52,5.52,0,0,1,228.08,79.51Z"/><path class="cls-71" d="M222.56,60.15a1.19,1.19,0,0,1,1.25-.43c.84.12,1.66.37,2.49.52a6.65,6.65,0,0,0,2.31.14c.38-.07.76,0,1.15-.07a4,4,0,0,1,1.5-.16c.29.05.62.05.79.37a4.11,4.11,0,0,0-2-.1,13,13,0,0,1-2.92.15,15.74,15.74,0,0,1-2.22-.49A3,3,0,0,0,222.56,60.15Z"/><path class="cls-71" d="M235.94,63.67c.38.25.32.68.4,1,.19,1,.51,1.93.63,2.93a5.49,5.49,0,0,1-.16,2.35l-.06.26c-.11.32,0,.4.28.23.05,0,.14,0,.21,0a.37.37,0,0,1-.52.2.36.36,0,0,1-.16-.47,6.79,6.79,0,0,0-.08-4.34A18.73,18.73,0,0,0,235.94,63.67Z"/><path class="cls-71" d="M221,66.18c-.17.57.06.83.63.65a4.61,4.61,0,0,1,3.13.06c.15.06.37.12.46,0s-.09-.31-.21-.44-.38-.16-.34-.43a1,1,0,0,1,.59.46c.12.15.25.35.09.52a.49.49,0,0,1-.57.09,4.7,4.7,0,0,0-1.9-.32,5.26,5.26,0,0,0-1.18.24c-.28.07-.58.14-.8-.11S220.59,66.35,221,66.18Z"/><path class="cls-71" d="M230.79,71.27a2.2,2.2,0,0,1-.1-1.86.4.4,0,0,1,.44-.3.49.49,0,0,1,.5.32,2.35,2.35,0,0,1,0,1.71c-.13.35-.48.39-.85.13.69,0,.82-.14.82-.82a4.65,4.65,0,0,1,0-.75c0-.15-.22-.34-.4-.41s-.28.15-.38.29a.84.84,0,0,0-.09.43A5.9,5.9,0,0,0,230.79,71.27Z"/><path class="cls-71" d="M223.64,86.48a4.45,4.45,0,0,0-.86.32c.16-.35.53-.34.81-.47a1.67,1.67,0,0,1,.44-.11c.23,0,.38-.12.33-.37s-.31-.19-.47-.16a6.73,6.73,0,0,0-1.88.73.68.68,0,0,1-.46.14,6,6,0,0,1,3-1.08,1.56,1.56,0,0,1-.24.81l-.57.13Z"/><path class="cls-71" d="M233.37,66.06c.21.15.44.3.34.61s-.4.29-.64.25a8.66,8.66,0,0,0-3.21.08c-.26,0-.58.12-.79-.16h0c1.27.08,2.51-.33,3.8-.1.68.12.73,0,.46-.62Z"/><path class="cls-71" d="M229.6,65.92a4.45,4.45,0,0,1,3.47,0h0a6.14,6.14,0,0,0-2.22-.13,3.84,3.84,0,0,1-1.22.13Z"/><path class="cls-71" d="M223.28,71.27a2.18,2.18,0,0,1-.1-1.85c.12-.36.42-.4.83-.15h0c-.34,0-.78-.08-.78.46a6.54,6.54,0,0,0,.06,1.53Z"/><path class="cls-71" d="M224.1,65.84a.47.47,0,0,1-.38.06,2.54,2.54,0,0,0-1.95.09,1.75,1.75,0,0,1-.4,0A3.26,3.26,0,0,1,224.1,65.84Z"/><path class="cls-75" d="M224.24,69.92a2,2,0,0,1-.13,1.27l-.1.1h0l-.2,0a2,2,0,0,0,.27-1.26Z"/><path class="cls-71" d="M238,85.86l-.25-.11a.73.73,0,0,1,.07-.61,5.21,5.21,0,0,1,.94.4c-.22.07-.39-.07-.59-.12s-.21-.17-.31,0,0,.22.07.32A.69.69,0,0,1,238,85.86Z"/><path class="cls-71" d="M220,65.4c-.06-.1-.2-.14-.19-.27.31-.09.16-.38.25-.57s0-.59.31-.8C220.28,64.31,220.15,64.85,220,65.4Z"/><path class="cls-71" d="M233.85,62c.29.11.68.05.8.47A2,2,0,0,1,233.85,62Z"/><path class="cls-71" d="M223.82,71.27l.2,0a.45.45,0,0,1-.74,0h.54Z"/><path class="cls-71" d="M234.67,62.42c.3,0,.55.12.64.45Z"/><path class="cls-71" d="M220.48,63.5a.87.87,0,0,1,.28-.82A2.75,2.75,0,0,1,220.48,63.5Z"/><path class="cls-71" d="M224.24,69.92l-.15.09c0-.26-.08-.48-.09-.73h0A1,1,0,0,1,224.24,69.92Z"/><path class="cls-71" d="M221.29,61.64c0-.24,0-.51.34-.5Z"/><path class="cls-71" d="M232.58,60.88c.27,0,.4.08.38.35Z"/><path class="cls-71" d="M224.65,66a.45.45,0,0,1-.46-.15A.41.41,0,0,1,224.65,66Z"/><path class="cls-71" d="M233.05,61.32a.35.35,0,0,1,.35.29C233.23,61.58,233.16,61.43,233.05,61.32Z"/><path class="cls-71" d="M229.07,66.84a.4.4,0,0,1,0-.56h0v.54Z"/><path class="cls-71" d="M220.76,62.69c0-.17,0-.32.18-.38A.75.75,0,0,1,220.76,62.69Z"/><path class="cls-71" d="M221.37,66c-.06.19-.2.21-.37.18A.59.59,0,0,1,221.37,66Z"/><path class="cls-71" d="M233.07,65.92c.12,0,.2.08.3.14l0,0a.28.28,0,0,1-.28-.18Z"/><path class="cls-71" d="M237.33,70.39c0-.14,0-.2.17-.2Z"/><path class="cls-71" d="M233.58,61.78c.15,0,.25,0,.27.2A.34.34,0,0,1,233.58,61.78Z"/><path class="cls-71" d="M220.39,63.77c0-.11,0-.22.1-.28C220.47,63.59,220.5,63.71,220.39,63.77Z"/><path class="cls-71" d="M237.76,69.91c0-.1,0-.2.09-.27C237.86,69.75,237.87,69.85,237.76,69.91Z"/><path class="cls-71" d="M235.57,63.13c.14,0,.2.06.18.2Z"/><path class="cls-71" d="M232.22,60.61c.13,0,.19,0,.2.16Z"/><path class="cls-71" d="M220.93,62.32c0-.08,0-.16.1-.19Z"/><path class="cls-71" d="M232,60.51c.09,0,.16,0,.19.1S232.08,60.6,232,60.51Z"/><path class="cls-71" d="M222.29,60.33c0-.06,0-.18.1-.07Z"/><path class="cls-71" d="M229.24,66.1c0-.08.1-.09.17-.1l0,0c0,.08-.1.09-.18.09Z"/><path class="cls-71" d="M221.74,61c0-.08,0-.16.11-.18Z"/><path class="cls-71" d="M232.42,60.77c.08,0,.15,0,.17.11Z"/><path class="cls-71" d="M235.75,63.31a.16.16,0,0,1,.1.2A.19.19,0,0,1,235.75,63.31Z"/><path class="cls-71" d="M221,62.14c0-.08,0-.16.1-.19A.22.22,0,0,1,221,62.14Z"/><path class="cls-71" d="M221.11,62c0-.08,0-.16.11-.19S221.2,61.92,221.11,62Z"/><path class="cls-71" d="M229.41,66c.05-.08.12-.07.19-.08h0c0,.08-.1.09-.18.09Z"/><path class="cls-70" d="M225.26,84l0-.05.05,0Z"/><path class="cls-70" d="M235.31,82.85l0,0,0,0Z"/><path class="cls-71" d="M224,71.29l.1-.1Z"/><path class="cls-71" d="M237.23,70.48l.1-.1C237.32,70.44,237.31,70.49,237.23,70.48Z"/><path class="cls-71" d="M237.49,70.2l.1-.1Z"/><path class="cls-71" d="M237.67,70l.09-.09Z"/><path class="cls-71" d="M229.06,66.28l.09-.09h0l-.09.09Z"/><path class="cls-71" d="M229.15,66.19l.09-.09h0l-.09.09Z"/><path class="cls-71" d="M235.88,63.58l.07.1Z"/><path class="cls-71" d="M235.48,63l.1.1Z"/><path class="cls-71" d="M235.39,63l.1.1Z"/><path class="cls-71" d="M235.3,62.86l.1.1Z"/><path class="cls-71" d="M233.49,61.68l.1.11A.1.1,0,0,1,233.49,61.68Z"/><path class="cls-71" d="M221.2,61.78l.09-.1Z"/><path class="cls-71" d="M233.4,61.6l.1.1C233.44,61.69,233.39,61.67,233.4,61.6Z"/><path class="cls-71" d="M233,61.23l.1.09Z"/><path class="cls-71" d="M221.83,60.79l.11-.1Z"/><path class="cls-71" d="M222,60.6l.09-.1Z"/><path class="cls-71" d="M222.1,60.51l.1-.1Z"/><path class="cls-71" d="M222.2,60.42l.1-.1Z"/><path class="cls-71" d="M220.37,87.45a.88.88,0,0,1-.64.65A2.82,2.82,0,0,1,220.37,87.45Z"/><path class="cls-63" d="M219.47,88.42l0,0h0c0-.2.08-.29.27-.3a.08.08,0,0,0,0,.08Z"/><path class="cls-71" d="M221.55,86.55c0,.21-.13.2-.28.19Z"/><path class="cls-71" d="M220.72,87.17c0,.16-.11.22-.26.21A.41.41,0,0,1,220.72,87.17Z"/><path class="cls-71" d="M220.92,87c0,.15-.07.21-.21.17Z"/><path class="cls-71" d="M221.28,86.73c0,.15-.06.21-.21.15Z"/><path class="cls-71" d="M221.08,86.89c0,.12-.08.13-.17.12A.21.21,0,0,1,221.08,86.89Z"/><path class="cls-71" d="M219.68,88.19a.08.08,0,0,1,0-.08l.07,0Z"/><path class="cls-71" d="M220.47,87.37l-.11.1Z"/><path class="cls-71" d="M239.5,85.92a.89.89,0,0,1-.73-.39A2.34,2.34,0,0,1,239.5,85.92Z"/><path class="cls-71" d="M239.77,86.11a.23.23,0,0,1-.28-.2A.56.56,0,0,1,239.77,86.11Z"/><path class="cls-71" d="M239.89,86.2c-.07,0-.13,0-.13-.1Z"/><path class="cls-71" d="M242,96a10.27,10.27,0,0,1,.08-1.47,12.36,12.36,0,0,0-.84-5,2.62,2.62,0,0,1,.63,1.5,18.2,18.2,0,0,1,.3,4.66A.35.35,0,0,1,242,96Z"/><path class="cls-71" d="M235.77,105.48c-.05,0-.11-.08-.08-.14a12.3,12.3,0,0,1,1.21-2.87c0,.54-.43.93-.57,1.44s-.27.76-.4,1.14c-.05.15-.14.32.11.33s.41.22.5-.14c0-.17.06-.37.23-.47l0,0-.33.85A1.77,1.77,0,0,0,235.77,105.48Z"/><path class="cls-71" d="M241.42,99.12l.58-2.69c.22.15,0,.34,0,.49-.1.62-.23,1.24-.37,1.85C241.61,98.9,241.63,99.09,241.42,99.12Z"/><path class="cls-71" d="M239,100.32a4.78,4.78,0,0,1,2.27-.83s0,.07,0,.08C240.47,99.74,239.76,100.09,239,100.32Z"/><path class="cls-71" d="M236.77,104.77a2.2,2.2,0,0,1,.54-1.27h0l-.5,1.3Z"/><path class="cls-71" d="M241,88.94l-.56-.92A1.21,1.21,0,0,1,241,88.94Z"/><path class="cls-71" d="M236.9,102.46l.3-.43C237.19,102.23,237.17,102.43,236.9,102.46Z"/><path class="cls-71" d="M240.07,87.51c-.06-.08-.19-.12-.13-.26C240,87.32,240.16,87.35,240.07,87.51Z"/><path class="cls-71" d="M237.81,101.3a.78.78,0,0,1,.28-.29C238.13,101.24,238,101.27,237.81,101.3Z"/><path class="cls-71" d="M240.13,100.7l0,.06h0l-.34.12h0C239.81,100.68,240,100.68,240.13,100.7Z"/><path class="cls-71" d="M237.31,103.5a.37.37,0,0,1,.19-.36l0,0c-.05.12-.08.26-.21.33Z"/><path class="cls-71" d="M241.28,89.48l-.19-.37C241.29,89.16,241.3,89.32,241.28,89.48Z"/><path class="cls-71" d="M241.32,99.41l.11-.29C241.48,99.25,241.52,99.37,241.32,99.41Z"/><path class="cls-71" d="M239.31,101.16a.21.21,0,0,1,.28-.18h0l-.28.18Z"/><path class="cls-71" d="M238.53,100.64l.22-.15C238.75,100.65,238.68,100.7,238.53,100.64Z"/><path class="cls-71" d="M239,101.43c0-.15.12-.2.26-.2h0l-.25.2Z"/><path class="cls-71" d="M237.27,101.93l.21-.26C237.49,101.82,237.44,101.92,237.27,101.93Z"/><path class="cls-71" d="M238.09,101l.2-.17C238.3,101,238.23,101.05,238.09,101Z"/><path class="cls-71" d="M240.33,87.87l-.14-.21C240.34,87.66,240.4,87.73,240.33,87.87Z"/><path class="cls-71" d="M238.3,86l-.29-.19A.24.24,0,0,1,238.3,86Z"/><path class="cls-71" d="M240.2,87.67l-.13-.17C240.18,87.5,240.2,87.57,240.2,87.67Z"/><path class="cls-71" d="M237.94,102.49c0-.07,0-.14.11-.16h0l-.12.16Z"/><path class="cls-71" d="M237.68,102.87c0-.09,0-.16.1-.18l0,0c0,.07,0,.14-.12.16Z"/><path class="cls-71" d="M238.48,101.77a.18.18,0,0,1,.19-.08h0l-.13.15Z"/><path class="cls-71" d="M238.31,102.05a.18.18,0,0,1,.08-.19l.07.06-.15.13Z"/><path class="cls-71" d="M241.1,89.12l-.1-.19C241.1,89,241.1,89,241.1,89.12Z"/><path class="cls-71" d="M237.58,103c0-.07,0-.15.1-.17h0c0,.07,0,.14-.1.18Z"/><path class="cls-71" d="M238.74,100.5l.18-.13C238.91,100.49,238.83,100.51,238.74,100.5Z"/><path class="cls-71" d="M240.31,100.61c0,.09-.12.08-.19.09S240.22,100.6,240.31,100.61Z"/><path class="cls-71" d="M238.38,100.77l.16-.13C238.55,100.76,238.47,100.77,238.38,100.77Z"/><path class="cls-71" d="M239.59,101c0-.11.09-.11.17-.1h0c0,.08-.1.09-.16.11Z"/><path class="cls-71" d="M240.46,88l-.13-.17C240.46,87.86,240.47,87.94,240.46,88Z"/><path class="cls-71" d="M238.28,100.86l.11-.1Z"/><path class="cls-71" d="M238.9,100.39l.12-.08A.09.09,0,0,1,238.9,100.39Z"/><path class="cls-71" d="M239.21,101.23l.1-.07h0l-.1.07Z"/><path class="cls-71" d="M237.73,101.4l.1-.12A.11.11,0,0,1,237.73,101.4Z"/><path class="cls-71" d="M237.64,101.49l.1-.11A.11.11,0,0,1,237.64,101.49Z"/><path class="cls-71" d="M238.86,101.52c0-.06,0-.09.09-.09h0l-.11.08Z"/><path class="cls-71" d="M237.55,101.58l.11-.11A.12.12,0,0,1,237.55,101.58Z"/><path class="cls-71" d="M238.76,101.6l.1-.08h0l-.09.09Z"/><path class="cls-71" d="M237.47,101.68l.1-.11Z"/><path class="cls-71" d="M238.67,101.69l.09-.09h0l-.1.08Z"/><path class="cls-71" d="M238.39,101.86l.09-.09.06.07-.08.08Z"/><path class="cls-71" d="M237.2,102l.09-.12A.12.12,0,0,1,237.2,102Z"/><path class="cls-71" d="M238.22,102.14l.09-.09h0l-.09.1Z"/><path class="cls-71" d="M238.13,102.24l.09-.1h0l-.08.1Z"/><path class="cls-71" d="M238.05,102.33a.08.08,0,0,1,.08-.09h0l-.08.09Z"/><path class="cls-71" d="M237.86,102.6l.08-.11h0l-.08.1Z"/><path class="cls-71" d="M237.78,102.69a.07.07,0,0,1,.08-.09h0l-.06.11Z"/><path class="cls-71" d="M237.5,103.14l.08-.1h0l-.05.12Z"/><path class="cls-64" d="M240,137.23l-.06,1.29a4.42,4.42,0,0,1,0-1.54Z"/><path class="cls-74" d="M237.53,103.17l.05-.12c.09,0,.09-.11.1-.18s.1-.09.12-.16l.06-.11.08-.1.12-.16.08-.09.08-.1.09-.1.15-.13.08-.08.13-.15.1-.08.09-.09.11-.08.25-.2.1-.07.28-.18c.06,0,.14,0,.16-.11l.34-.12a.71.71,0,0,1-.19.58c-1.06,1.54-2.17,3-3.35,4.47l-.08,0v-.2l.33-.85.5-1.3C237.45,103.43,237.48,103.29,237.53,103.17Z"/><path class="cls-64" d="M235.22,107.56l.06-.1Z"/><path class="cls-71" d="M235.77,118.15l-.1.09Z"/><path class="cls-67" d="M240.82,136.62c-.65,0-.7-.06-.58-.61a2.76,2.76,0,0,0,0-1,13.4,13.4,0,0,1,.12-2c0-.28.28-.31.48-.3s.4.14.44.45c.12.89-.18,1.76-.1,2.64a2.16,2.16,0,0,0,0,.36C241.35,136.56,241.19,136.71,240.82,136.62Z"/><path class="cls-67" d="M240.2,137.12l0,.07s0-.05,0-.07a.21.21,0,0,1,0-.07Z"/><path class="cls-73" d="M239.93,119.42a1.64,1.64,0,0,1-1.17.09c0-.11-.06-.23-.08-.34a1,1,0,0,1,1-1.1c.28,0,.49.55.38.94C240.05,119.15,240,119.28,239.93,119.42Z"/><path class="cls-71" d="M222.76,86.79c-.2.13-.41.25-.62.37C222.23,86.83,222.48,86.8,222.76,86.79Z"/><path class="cls-71" d="M219.13,90.74c-.08.19-.17.37-.25.56A.44.44,0,0,1,219.13,90.74Z"/><path class="cls-71" d="M219.62,89.86l-.31.53C219.31,90.15,219.31,89.92,219.62,89.86Z"/><path class="cls-71" d="M220.34,88.81l-.31.4C220.06,89,220.05,88.8,220.34,88.81Z"/><path class="cls-71" d="M222,87.21l-.37.28C221.67,87.25,221.84,87.22,222,87.21Z"/><path class="cls-71" d="M221.41,87.68l-.29.26C221.11,87.74,221.21,87.65,221.41,87.68Z"/><path class="cls-71" d="M220,89.2l-.19.28C219.84,89.34,219.83,89.2,220,89.2Z"/><path class="cls-71" d="M219.85,89.47a.53.53,0,0,1-.18.28A.22.22,0,0,1,219.85,89.47Z"/><path class="cls-71" d="M220.68,88.39l-.18.2C220.47,88.45,220.52,88.38,220.68,88.39Z"/><path class="cls-71" d="M221.66,87.48l-.26.21C221.4,87.52,221.51,87.47,221.66,87.48Z"/><path class="cls-71" d="M221.12,87.94l-.19.18C220.92,88,221,87.92,221.12,87.94Z"/><path class="cls-71" d="M219.32,90.37c0,.08,0,.16-.11.2S219.21,90.4,219.32,90.37Z"/><path class="cls-71" d="M219.22,90.55c0,.08,0,.16-.09.2S219.12,90.58,219.22,90.55Z"/><path class="cls-71" d="M219.68,89.74l-.08.12A.1.1,0,0,1,219.68,89.74Z"/><path class="cls-71" d="M220.43,88.68l-.09.1C220.32,88.7,220.36,88.68,220.43,88.68Z"/><path class="cls-71" d="M220.51,88.58l-.1.11C220.41,88.62,220.44,88.58,220.51,88.58Z"/><path class="cls-71" d="M220.76,88.29l-.1.11Z"/><path class="cls-71" d="M220.85,88.2l-.1.1Z"/><path class="cls-71" d="M222.14,87.14l-.12.08C222,87.16,222.07,87.13,222.14,87.14Z"/><path class="cls-64" d="M219.65,111.45a1.72,1.72,0,0,1-.63,1.44c-.3,0-.48.21-.72.29h0c-.12,0-.25,0-.35.07a1.74,1.74,0,0,1-1.27-.44h.19a2.11,2.11,0,0,0,1.72-.07.46.46,0,0,0,.28-.17,1.3,1.3,0,0,0,.61-1l.08-.11Z"/><path class="cls-72" d="M216.71,112.69c-.28.08-.37-.16-.5-.3a1.64,1.64,0,0,1-.09-2.19l0,.23h0c-.09,0-.07.13-.09.2h0a1.36,1.36,0,0,0,0,1.15c0,.41.41.53.64.77l0,.14Z"/><path class="cls-72" d="M217.22,109.29l.51-.11c.5.09,1,.16,1.27.68h0l-.33-.21a.09.09,0,0,0-.07,0h0a.36.36,0,0,0-.25-.13h0a2.6,2.6,0,0,0-1.41,0Z"/><path class="cls-71" d="M217,109.46a2.6,2.6,0,0,1,1.41,0,4.06,4.06,0,0,0-1.69.24h0A.69.69,0,0,1,217,109.46Z"/><path class="cls-72" d="M219.65,111.45h-.09a1.82,1.82,0,0,0-.25-1.09h0a.65.65,0,0,0-.26-.37l0,0,0,0-.06-.13h0c.5.22.56.7.65,1.15A2.16,2.16,0,0,1,219.65,111.45Z"/><path class="cls-71" d="M216.09,110.43l0-.23c.2-.14.25-.46.55-.46h0A1.56,1.56,0,0,1,216.09,110.43Z"/><path class="cls-72" d="M218.3,113.18c.24-.08.42-.34.72-.29A.89.89,0,0,1,218.3,113.18Z"/><path class="cls-72" d="M218,113.25c.1-.11.23-.06.35-.07C218.21,113.32,218.07,113.24,218,113.25Z"/><path class="cls-72" d="M216.87,112.81h-.19l0-.12h0Z"/><path class="cls-66" d="M223.47,96.51c-.08-2.1-.1-4.21,0-6.31.11.09.08.22.08.34v5.63C223.55,96.29,223.58,96.42,223.47,96.51Z"/><path class="cls-66" d="M223.64,86.48l.15-.06a27.36,27.36,0,0,0-.15,3.26c0,.12,0,.21-.17.23C223.53,88.76,223.58,87.62,223.64,86.48Z"/><path class="cls-66" d="M223.74,100c-.08-1-.17-1.91-.26-2.87.05,0,.13.06.13.1.07.88.14,1.77.2,2.66C223.81,99.87,223.77,99.91,223.74,100Z"/><path class="cls-66" d="M223.48,96.87v-.16c.06,0,.12,0,.13.08S223.53,96.87,223.48,96.87Z"/><path class="cls-64" d="M239.75,99.81c-.49-.13-.63-.47-.79-.78-.38-.74-.37-.73.42-1A4.72,4.72,0,0,1,241,97.7a.63.63,0,0,1,.56.28,4.41,4.41,0,0,0-2.2.38c-.26.1-.3.2-.19.46S239.55,99.39,239.75,99.81Z"/><path class="cls-67" d="M230.79,71.27A5.9,5.9,0,0,1,230.7,70a.84.84,0,0,1,.09-.43c.1-.14.14-.38.38-.29s.41.26.4.41a4.65,4.65,0,0,0,0,.75c0,.68-.13.81-.82.82Z"/><path class="cls-67" d="M229.16,66.2l.09-.09c.08,0,.15,0,.18-.09s.15,0,.18-.09a3.84,3.84,0,0,0,1.22-.13,6.14,6.14,0,0,1,2.22.13.28.28,0,0,0,.28.18c.27.61.22.74-.46.62-1.29-.23-2.53.18-3.8.1v-.54Z"/><path class="cls-67" d="M224,69.28c0,.25.14.47.09.73a2,2,0,0,1-.27,1.26h-.54a6.54,6.54,0,0,1-.06-1.53C223.22,69.2,223.66,69.29,224,69.28Z"/><path class="cls-71" d="M216.87,112.81l-.16-.12,0-.14a3.74,3.74,0,0,0,1.9.18h0A2.11,2.11,0,0,1,216.87,112.81Z"/><path class="cls-71" d="M219.48,111.56a1.3,1.3,0,0,1-.61,1l0,0c.23-.41.63-.74.55-1.27C219.5,111.35,219.46,111.46,219.48,111.56Z"/><path class="cls-75" d="M219.48,111.56c0-.1,0-.21-.09-.28l-.08-.92a1.82,1.82,0,0,1,.25,1.09Z"/><path class="cls-71" d="M218.87,112.57a.46.46,0,0,1-.28.17h0a.25.25,0,0,1,.27-.18Z"/><path class="cls-73" d="M218.84,112.55a.25.25,0,0,0-.27.18,3.74,3.74,0,0,1-1.9-.18c-.23-.24-.61-.36-.64-.77v-1.15h0c.11,0,.1-.12.09-.2h0a1.56,1.56,0,0,0,.58-.69,4.06,4.06,0,0,1,1.69-.24h0c0,.21.14.14.25.13h0l.07.13c0,.24.19.28.39.24l0,0,0,0c-.07.23.07.32.26.37h0l.08.92C219.47,111.81,219.07,112.14,218.84,112.55Z"/><path class="cls-69" d="M216,110.63v1.15A1.36,1.36,0,0,1,216,110.63Z"/><path class="cls-69" d="M216.11,110.44c0,.08,0,.17-.09.2S216,110.48,216.11,110.44Z"/><path class="cls-75" d="M219.05,110c-.2,0-.35,0-.39-.24v-.1l.33.21Z"/><path class="cls-71" d="M218.6,109.63c-.11,0-.25.08-.25-.13A.36.36,0,0,1,218.6,109.63Z"/><path class="cls-71" d="M218.66,109.65v.1l-.07-.13A.09.09,0,0,1,218.66,109.65Z"/><path class="cls-75" d="M219.31,110.36c-.19,0-.33-.14-.26-.37A.65.65,0,0,1,219.31,110.36Z"/></svg>