<svg id="Calque_1" data-name="Calque 1" xmlns="http://www.w3.org/2000/svg" viewBox="0 0 146 208"><defs><style>.cls-1{fill:#24304f;}.cls-2{fill:#feae6f;}.cls-3{fill:#2f1b16;}.cls-4{fill:#fe7d37;}.cls-5{fill:#d8edfe;}.cls-6{fill:#f4f9fe;}</style></defs><title>patient</title><path class="cls-1" d="M101.44,208H37.77a4.22,4.22,0,0,1-.18-.45c-.91-3.57-1.62-7.18-2.27-10.8,1,.5,1.07-.8,1.75-1,.22-.06.13-.33.14-.51.14-1.62.28-3.24.41-4.86v0a2,2,0,0,1,.32-.06c5.54.26,11.08.45,16.62.54,8,.14,16,.15,23.94-.07q7-.19,14.05-.73c2.63-.2,5.25-.5,7.88-.66.24,1.14.09,2.31.27,3.44.22,1.4.09,2.81.18,4.21s.09,2.74.2,4.06C101.26,203.41,101.11,205.72,101.44,208Z"/><path class="cls-2" d="M35.32,196.75c.65,3.62,1.36,7.23,2.27,10.8a4.22,4.22,0,0,0,.18.45H18a72.84,72.84,0,0,0,1.45-11.4l15.13,0A1.44,1.44,0,0,1,35.32,196.75Z"/><path class="cls-3" d="M101.44,208c-.33-2.28-.18-4.59-.37-6.89-.11-1.32-.1-2.72-.2-4.06s0-2.81-.18-4.21c-.18-1.13,0-2.3-.27-3.44v0l.16-.14.22.06c.25,4.24.5,8.48.68,12.73.08,1.82.12,3.64.18,5.46,0,.17,0,.34.11.47Z"/><path class="cls-4" d="M100.8,189.34l-.22-.06-.16.14v0c-2.63.16-5.25.46-7.88.66q-7,.54-14.05.73c-8,.22-16,.21-23.94.07-5.54-.09-11.08-.28-16.62-.54a2,2,0,0,0-.32.06c.14-2.56.33-5.12.41-7.69q.31-9.65.54-19.3c.1-4,.2-7.95.24-11.93.11-11.49.33-23-.07-34.48-.06-1.74-.19-3.47-.3-5.21,0-.17.07-.43-.27-.39s-.3.2-.29.41.08.6.09.91c.29,6.82.5,13.64.43,20.46,0,5.22,0,10.45-.13,15.67-.23,9-.2,18.11-.61,27.16-.27,6.12-.36,12.26-.85,18.37,0,.35,0,.7,0,1a36.35,36.35,0,0,0,.5-4.26c0-.28-.12-.64.32-.74-.13,1.62-.27,3.24-.41,4.86,0,.18.08.45-.14.51-.68.17-.72,1.47-1.75,1a1.44,1.44,0,0,0-.7-.19l-15.13,0c-1.37,0-1.32,0-1.48-1.44-.38-3.43-.82-6.84-1.22-10.26-.32-2.82-.65-5.65-.92-8.47-.4-4.12-.76-8.23-1.11-12.35-.16-1.9-.25-3.81-.37-5.71-.43-7.11-.65-14.23-.47-21.35.1-3.87.3-7.73.49-11.58.17-3.53.72-7,1-10.55A87.7,87.7,0,0,1,17,104.81c1-5,2.57-9.8,5.59-14A23.24,23.24,0,0,1,27,86.24c.17-.14.32-.3.48-.46l3.67-2.61,5.29-2.83c.91-.44,1.84-.85,2.74-1.32.36-.2.86-.2,1.08-.65,2.74-1.26,5.42-2.64,8.06-4.11a6.76,6.76,0,0,0,1.47,4.46,18.5,18.5,0,0,0,6.94,5.59A17.22,17.22,0,0,0,63.24,86a13.54,13.54,0,0,0,5.14-.48,8.55,8.55,0,0,0,6.2-7.33,8.88,8.88,0,0,1,.36-2.11,12.2,12.2,0,0,1,3.67,1.17c2,.82,4,1.68,6.06,2.53,1,.29,1.71,1.09,2.67,1.45A62.77,62.77,0,0,1,95.58,86a32.61,32.61,0,0,1,9,10.12c.37.79.75,1.58,1.11,2.38a1.37,1.37,0,0,1,.24.86v.05l-6.58-.55c-5.14-.42-10.28-.87-15.42-1.28-4.47-.36-9-.67-13.42-1-3-.25-6.1-.57-9.15-.79a31.7,31.7,0,0,0-5.23-.16q-1.74,21-3.48,42a6.82,6.82,0,0,1-.89-.13,2.38,2.38,0,0,0-2.21,1.41c-.12.75.27,1.17,1.33,1.41,0,0,0,.09.08.19-1,.06-1.87.46-2,1.46-.18,1.25.73,1.85,1.86,2.15-1.33.19-1.88.56-2.14,1.58-.31,1.23.31,1.93,1.67,2.25-1,.31-1.82.59-2,1.59s.44,1.52,1.25,2.06c-1,.2-1.27.67-.95,1.47a1.19,1.19,0,0,1,0,.33,3.89,3.89,0,0,0,2.17,3.45c-.22,2.59-.46,5.17-.66,7.75-.1,1.28,0,1.38,1.29,1.55,2.41.34,4.83.47,7.26.63,2.82.19,5.64.36,8.45.56,2.23.15,4.46.33,6.68.51,3.22.26,6.43.53,9.65.77,3.41.27,6.82.51,10.23.77,2.34.17,4.68.36,7,.54h.5l0,0c.07,2.39,0,4.77.19,7.15.26,3.86.38,7.74.58,11.6,0,.33,0,.47-.37.48A1.61,1.61,0,0,0,100.8,189.34Z"/><path class="cls-3" d="M48.33,74.26c-2.64,1.47-5.32,2.85-8.06,4.11l-3.72-1.68a25.8,25.8,0,0,1-5.23-4.44l0,0-.47-.56-.19-.27-.16-.18h0L30.31,71l0,0-.18-.26-.5-.74-.16-.25v0l0,0-.12-.19c0-.12-.05-.26-.19-.31L29,69l0,0-.19-.34h0l-.19-.34,0,0L28.56,68h0l-.49-1.14v-.07l-.19-.44h0l-.2-.49h0l-.11-.33h0a18.72,18.72,0,0,1,.09-10.23c.3-1.1.68-2.18,1-3.27h0l.11-.38v0l.23-.48h0l.36-.89q.07-.06,0-.12l1-2.48h0l.21-.49h0a1.48,1.48,0,0,0,.27-.72l0,0c.75-1.7,1.16-3.52,1.77-5.27,1.36-4,2.23-8.07,3.5-12.06A37.27,37.27,0,0,1,41.39,18,25.76,25.76,0,0,1,54.51,8.7,32.64,32.64,0,0,1,66,7a23.84,23.84,0,0,1,15.16,5.79,29.54,29.54,0,0,1,8.54,13.75,61.3,61.3,0,0,1,2.19,12,129.61,129.61,0,0,1,.66,13.64,29.44,29.44,0,0,0,1.38,7.42,22.36,22.36,0,0,1,.77,8.73,12.63,12.63,0,0,1-7,10.16l-.36.2-2.67,1.14c-2-.85-4-1.71-6.06-2.53a12.2,12.2,0,0,0-3.67-1.17,4.31,4.31,0,0,0-.81-.39c-.88-.2-1-.84-1-1.59-.06-1.82-.16-3.63-.25-5.44a.15.15,0,0,0,0-.13c0-.3,0-.57.4-.69,3.83-1.05,6.41-3.75,8.53-6.84a25.45,25.45,0,0,0,4.06-13.35,102.22,102.22,0,0,0-.5-12.49,19,19,0,0,0-2.8-8.94,15.45,15.45,0,0,0-8.41-6.58,1.52,1.52,0,0,0-1.69.17c-1.58,1.42-3.18,2.82-4.75,4.25A92.53,92.53,0,0,1,48.78,37.47a.77.77,0,0,1-1,0,4.68,4.68,0,0,0-7.4,2.79c-.51,2.8-.24,5.62,1.71,7.91A4.83,4.83,0,0,0,46.61,50c.43-.07.55.07.58.43a29.77,29.77,0,0,0,1.31,5c.33,1.23,1,2.29,1.41,3.5v.29c-.06,4-.2,8.1-.15,12.16A2.92,2.92,0,0,1,48.33,74.26Z"/><path class="cls-4" d="M108.68,108.48c1,2.09,1.76,4.32,2.59,6.5a194.8,194.8,0,0,1,7.15,22.79c1.42,5.75,2.59,11.55,2.26,17.53-.16,3-.81,5.84-3.23,7.93a13.89,13.89,0,0,1-8.87,3.49c-1.93.05-3.87,0-5.8,0h-.48c-1.24,0-2.48,0-3.72-.06-2-.16-4-.45-6-.66-1.72-.17-3.45-.34-5.17-.54-2.36-.27-4.72-.61-7.08-.91-2.93-.37-5.85-.7-8.78-1a1.22,1.22,0,0,1-1.22-1.21c-.07-.8-.15-1.59-.22-2.39a29.82,29.82,0,0,1-.24-4.11c-.11-3-.23-6-.41-9a1.14,1.14,0,0,1,1.31-1c1.16,0,2.32,0,3.48,0,10.18,0,20.37-.15,30.56,0,.63,0,1.26.08,1.89.1.21,0,.55.18.57-.23s-.31-.32-.54-.36a2.21,2.21,0,0,0-1.22,0c-.5.18-.4-.16-.42-.41s0-.71.07-1.07c.27-2.39.56-4.78.81-7.18.19-1.85.33-3.71.51-5.56.27-2.72.58-5.43.82-8.14s.5-5.16.73-7.74c.2-2.21.41-4.43.61-6.65A.08.08,0,0,1,108.68,108.48Z"/><path class="cls-5" d="M31.29,72.2l0,0c-.07,3.64.06,7.28-.16,10.92l-3.67,2.61c-.09-.46-.46-.31-.73-.31-1.8,0-3.59,0-5.39,0-.61,0-.86-.11-.86-.81q0-11.47,0-22.94c0-.58.13-.82.78-.82,1.68,0,3.36.07,5,0,.54,0,.48.54.47.86a12.3,12.3,0,0,0,.37,3c.06.3,0,.68.46.78h0c-.12.16-.11.28.11.33h0c0,.21-.14.44.2.49h0c0,.19-.21.44.19.44v.07A.9.9,0,0,0,28.57,68h0c-.07.17-.06.31.15.36l0,0c0,.17,0,.31.19.34h0c0,.17,0,.31.19.34l0,0,.13.23c.14.05.15.19.19.31l-.09.12.21.07,0,0v0c.06.08-.15.32.16.25.16.25.33.49.5.74l.18.26,0,0,.17.19h0l.16.18.19.27A.46.46,0,0,0,31.29,72.2Z"/><path class="cls-5" d="M123.82,85.87c0-3,0-5.91,0-8.86,0-.64.16-.86.83-.85q4.19,0,8.37,0c.64,0,.79.21.78.81q0,9,0,18c0,.6-.15.81-.78.81-2.82,0-5.64,0-8.45,0-.6,0-.75-.2-.74-.76C123.83,92,123.82,88.91,123.82,85.87Z"/><path class="cls-5" d="M119.68,86c0,3,0,6,0,8.94,0,.64-.15.87-.83.86q-4.19-.06-8.36,0c-.64,0-.79-.21-.79-.81q0-9,0-18c0-.6.15-.82.79-.81q4.22,0,8.45,0c.6,0,.74.21.74.77C119.66,79.94,119.68,83,119.68,86Z"/><path class="cls-5" d="M133.77,54.1c0,3,0,6,0,8.95,0,.61-.1.88-.8.87-2.79,0-5.58,0-8.37,0-.61,0-.81-.16-.81-.79q0-9,0-18c0-.67.22-.83.86-.82q4.14,0,8.28,0c.64,0,.86.16.85.83C133.75,48.14,133.77,51.12,133.77,54.1Z"/><path class="cls-5" d="M109.73,54.09c0-3,0-5.91,0-8.86,0-.67.14-.92.86-.91q4.14.06,8.29,0c.66,0,.83.2.83.85q0,8.94,0,17.89c0,.62-.13.87-.82.86-2.79,0-5.58,0-8.37,0-.62,0-.79-.19-.79-.8C109.74,60.11,109.73,57.1,109.73,54.09Z"/><path class="cls-5" d="M95.8,54c0-3,0-5.91,0-8.87,0-.63.15-.86.83-.85,2.76,0,5.52,0,8.28,0,.61,0,.87.11.86.81q0,9,0,18c0,.61-.16.82-.79.81-2.78,0-5.57,0-8.36,0-.69,0-.83-.23-.82-.86C95.82,60.05,95.8,57.05,95.8,54Z"/><path class="cls-5" d="M133.77,22.43c0,3,0,6,0,8.94,0,.61-.1.89-.8.88-2.79,0-5.58,0-8.37,0-.61,0-.81-.15-.81-.78,0-6,0-12,0-18.06,0-.6.2-.75.76-.75,2.82,0,5.63,0,8.45,0,.66,0,.77.25.76.83C133.76,16.46,133.77,19.45,133.77,22.43Z"/><path class="cls-5" d="M95.8,22.4c0-3,0-6,0-8.94,0-.61.15-.82.79-.81q4.17,0,8.36,0c.59,0,.82.12.82.77q0,9,0,18.06c0,.56-.15.77-.74.76-2.82,0-5.64,0-8.45,0-.64,0-.79-.22-.78-.82C95.82,28.42,95.8,25.41,95.8,22.4Z"/><path class="cls-5" d="M109.73,22.45c0-3,0-6,0-8.95,0-.63.15-.86.83-.85,2.79,0,5.58,0,8.37,0,.64,0,.78.22.78.81q0,9,0,17.9c0,.64-.19.89-.86.88q-4.18,0-8.37,0c-.58,0-.75-.18-.75-.75C109.74,28.47,109.73,25.46,109.73,22.45Z"/><path class="cls-5" d="M104.56,96.11a32.61,32.61,0,0,0-9-10.12c.34-.24.22-.6.22-.92,0-2.7,0-5.41,0-8.11,0-.61.17-.81.79-.8q4.19,0,8.36,0c.6,0,.82.13.82.78q0,9,0,18c0,.56-.14.84-.74.77A.37.37,0,0,0,104.56,96.11Z"/><path class="cls-5" d="M30.84,46.46l0,0a.51.51,0,0,0-.27.72h0c-.33.06-.24.29-.21.49h0a3.27,3.27,0,0,0-1,2.48q.07.06,0,.12c-.59.11-.41.53-.36.89h0c-.32,0-.24.28-.23.48v0c-.19.08-.19.22-.11.38h0a2.24,2.24,0,0,1-1.17.29q-7.24,0-14.48,0c-.69,0-.91-.19-.88-.88,0-1.46.06-2.92,0-4.38,0-.77.26-.91.95-.91,5.33,0,10.65,0,16,0a3.42,3.42,0,0,0,1.23-.09C30.71,45.94,30.8,46.18,30.84,46.46Z"/><path class="cls-5" d="M84.67,79.81l2.67-1.14v2.59C86.38,80.9,85.67,80.1,84.67,79.81Z"/><path class="cls-3" d="M102.3,166.74h.48c-.07.71-.1,1.42-.21,2.13s-.68.92-1.31,1l0,0c0-.08,0-.23,0-.23.8-.22.7-.92.93-1.5.39-1-.12-1-.72-.94C101.65,166.78,102.29,167.44,102.3,166.74Z"/><path class="cls-1" d="M100.42,189.42l.16-.14Z"/><path class="cls-2" d="M48.33,74.26a2.92,2.92,0,0,0,1.43-2.85c0-4.06.09-8.11.15-12.16a15.82,15.82,0,0,0,1.78,2.66,19.6,19.6,0,0,0,7.68,5.84,20.3,20.3,0,0,0,5.17,1.39,19.26,19.26,0,0,0,8.34-.45c.09,1.81.19,3.62.25,5.44,0,.75.12,1.39,1,1.59a4.31,4.31,0,0,1,.81.39,8.88,8.88,0,0,0-.36,2.11,8.55,8.55,0,0,1-6.2,7.33,13.54,13.54,0,0,1-5.14.48,17.22,17.22,0,0,1-6.5-1.72,18.5,18.5,0,0,1-6.94-5.59A6.76,6.76,0,0,1,48.33,74.26Z"/><path class="cls-2" d="M52.64,137.55c1.88.59,3.75,1.19,5.59,1.89,3,1.13,5.32,3.15,7.84,4.94,1.13.79,2.23,1.61,3.34,2.42.18,3,.3,6,.41,9a29.82,29.82,0,0,0,.24,4.11,57.47,57.47,0,0,1-10.22-1,74.51,74.51,0,0,1-9-2.14,3.89,3.89,0,0,1-2.17-3.45,1.19,1.19,0,0,0,0-.33c-.32-.8,0-1.27.95-1.47-.81-.54-1.36-1.13-1.25-2.06s.91-1.28,2-1.59c-1.36-.32-2-1-1.67-2.25.26-1,.81-1.39,2.14-1.58-1.13-.3-2-.9-1.86-2.15.15-1,1-1.4,2-1.46,0-.1-.05-.18-.08-.19-1.06-.24-1.45-.66-1.33-1.41a2.38,2.38,0,0,1,2.21-1.41A6.82,6.82,0,0,0,52.64,137.55Z"/><path class="cls-1" d="M50.87,156.77a74.51,74.51,0,0,0,9,2.14,57.47,57.47,0,0,0,10.22,1c.07.8.15,1.59.22,2.39a1.22,1.22,0,0,0,1.22,1.21c2.93.35,5.85.68,8.78,1,2.36.3,4.72.64,7.08.91,1.72.2,3.45.37,5.17.54,2,.21,4,.5,6,.66,1.24.1,2.48,0,3.72.06,0,.7-.65,0-.79.43.6,0,1.11,0,.72.94-.23.58-.13,1.28-.93,1.5,0,0,0,.15,0,.23H101c-.06-.06-.12-.09-.18,0-2.33-.18-4.67-.37-7-.54-3.41-.26-6.82-.5-10.23-.77-3.22-.24-6.43-.51-9.65-.77-2.22-.18-4.45-.36-6.68-.51-2.81-.2-5.63-.37-8.45-.56-2.43-.16-4.85-.29-7.26-.63-1.26-.17-1.39-.27-1.29-1.55C50.41,161.94,50.65,159.36,50.87,156.77Z"/><path class="cls-6" d="M31.16,83.17c.22-3.64.09-7.28.16-10.92a25.8,25.8,0,0,0,5.23,4.44,22.27,22.27,0,0,0-.1,3.65Z"/><path class="cls-5" d="M36.45,80.34a22.27,22.27,0,0,1,.1-3.65l3.72,1.68c-.22.45-.72.45-1.08.65C38.29,79.49,37.36,79.9,36.45,80.34Z"/><path class="cls-2" d="M49.91,59c-.37-1.21-1.08-2.27-1.41-3.5a29.77,29.77,0,0,1-1.31-5c0-.36-.15-.5-.58-.43a4.83,4.83,0,0,1-4.53-1.87c-1.95-2.29-2.22-5.11-1.71-7.91a4.68,4.68,0,0,1,7.4-2.79.77.77,0,0,0,1,0A92.53,92.53,0,0,0,67.72,24.09c1.57-1.43,3.17-2.83,4.75-4.25a1.52,1.52,0,0,1,1.69-.17,15.45,15.45,0,0,1,8.41,6.58,19,19,0,0,1,2.8,8.94,102.22,102.22,0,0,1,.5,12.49A25.45,25.45,0,0,1,81.81,61c-2.12,3.09-4.7,5.79-8.53,6.84-.42.12-.38.39-.4.69a1.34,1.34,0,0,0-1.2-.25,19.41,19.41,0,0,1-9-.17,20.87,20.87,0,0,1-12.06-8.56C50.43,59.31,50.31,59,49.91,59ZM63.22,34.22a3.21,3.21,0,0,0,2.3-.47.91.91,0,0,0-.24-1.67,3.45,3.45,0,0,0-.72-.18c-3.52-.72-6.41.68-9.08,2.78-.2.16-.45.38-.21.69s.45.11.67,0a15.8,15.8,0,0,1,2.35-1A14.09,14.09,0,0,1,63.22,34.22Zm21,.7a2.17,2.17,0,0,0-.87-1.35,9.9,9.9,0,0,0-6.22-1.81,2.36,2.36,0,0,0-1.66.64,1.09,1.09,0,0,0-.37,1.05c.1.44.49.56.88.61a11.73,11.73,0,0,0,1.57.13c2,0,4-.24,5.78,1.12C83.63,35.55,84.15,35.58,84.22,34.92Zm-7.17,6.35a2.87,2.87,0,0,0,.33,1.52,1.63,1.63,0,0,0,1.66.87,1.4,1.4,0,0,0,1.19-1.22,3.64,3.64,0,0,0-.36-2.72,1.25,1.25,0,0,0-2.22-.21A2.6,2.6,0,0,0,77.05,41.27Zm-1.7,16.15c.54.06.72-.25.83-.61a.64.64,0,0,0-.39-.81.84.84,0,0,0-1.12.15c-.19.23-.24.55-.5.75-2.37,1.79-6.58,1.73-8-.7a.84.84,0,0,0-1-.37.59.59,0,0,0-.5.58.89.89,0,0,0,.7.83,8.42,8.42,0,0,1,1.49.7,6.74,6.74,0,0,0,7.14,0C74.41,57.68,74.75,57,75.35,57.42Zm-4.54-6.7a1,1,0,0,0,.44.9,2.32,2.32,0,0,0,3-.28,2,2,0,0,0,.7-2.69,27.27,27.27,0,0,1-2.49-6.2c-.21-.85-.38-1.71-.6-2.57-.06-.23-.1-.64-.45-.57s-.17.43-.13.65c.11.7.27,1.4.4,2.1a33.37,33.37,0,0,0,2.38,6.58,1.79,1.79,0,0,1-.47,2.25C72.69,51.72,71.79,51.6,70.81,50.72Zm-7.64-9.2a2.69,2.69,0,0,0-.75-2.19,1.08,1.08,0,0,0-1.76.18,3.52,3.52,0,0,0-.16,3.39,1.27,1.27,0,0,0,1.26.78,1.28,1.28,0,0,0,1.18-.87A3,3,0,0,0,63.17,41.52Z"/><path class="cls-4" d="M49.91,59c.4,0,.52.35.71.62a20.87,20.87,0,0,0,12.06,8.56,19.41,19.41,0,0,0,9,.17,1.34,1.34,0,0,1,1.2.25.15.15,0,0,1,0,.13,19.26,19.26,0,0,1-8.34.45,20.3,20.3,0,0,1-5.17-1.39,19.6,19.6,0,0,1-7.68-5.84,15.82,15.82,0,0,1-1.78-2.66Z"/><path class="cls-6" d="M29.41,50.17a3.27,3.27,0,0,1,1-2.48Z"/><path class="cls-6" d="M28.57,68a.9.9,0,0,1-.49-1.14Z"/><path class="cls-6" d="M29.05,51.18c-.05-.36-.23-.78.36-.89Z"/><path class="cls-6" d="M31.29,72.2a.46.46,0,0,1-.47-.56Z"/><path class="cls-6" d="M30.54,47.21a.51.51,0,0,1,.27-.72A1.48,1.48,0,0,1,30.54,47.21Z"/><path class="cls-6" d="M30.35,47.7c0-.2-.12-.43.21-.49Z"/><path class="cls-6" d="M28.84,51.67c0-.2-.09-.44.23-.48C29,51.35,28.91,51.51,28.84,51.67Z"/><path class="cls-6" d="M28.09,66.78c-.4,0-.23-.25-.19-.44C28,66.49,28,66.64,28.09,66.78Z"/><path class="cls-6" d="M27.91,66.33c-.34,0-.24-.28-.2-.49C27.78,66,27.85,66.16,27.91,66.33Z"/><path class="cls-6" d="M27.73,65.85c-.22,0-.23-.17-.11-.33C27.66,65.63,27.69,65.74,27.73,65.85Z"/><path class="cls-6" d="M28.74,52c-.08-.16-.08-.3.11-.38Z"/><path class="cls-6" d="M28.71,68.35c-.21,0-.22-.19-.15-.36Z"/><path class="cls-6" d="M28.88,68.67c-.21,0-.22-.17-.19-.34Z"/><path class="cls-6" d="M29.06,69c-.22,0-.23-.17-.19-.34Z"/><path class="cls-6" d="M29.47,69.71l-.21-.07.09-.12Z"/><path class="cls-6" d="M29.65,70c-.31.07-.1-.17-.16-.25Z"/><path class="cls-6" d="M30.33,71l-.18-.26Z"/><path class="cls-6" d="M30.48,71.2,30.31,71Z"/><path class="cls-6" d="M30.63,71.37l-.16-.18Z"/><path class="cls-6" d="M29.16,69.21,29,69Z"/><path class="cls-3" d="M104.76,145.79l.28-.94c0,.25-.08.59.42.41a2.21,2.21,0,0,1,1.22,0c.23,0,.56,0,.54.36s-.36.24-.57.23C106,145.87,105.39,145.82,104.76,145.79Z"/><ellipse class="cls-4" cx="38.67" cy="131.14" rx="0.03" ry="10.64"/><path class="cls-4" d="M80.17,122.54a8.37,8.37,0,0,1,8.53,8.1,8.78,8.78,0,0,1-8.29,9.07c-4.83.17-8.88-3.18-8.88-8.28A8.6,8.6,0,0,1,80.17,122.54Zm3.08,7c-1,0-1.33-.36-1.19-1.16s.18-1.37.27-2.05c0-.26,0-.34-.3-.43-.8-.25-1.64-.07-2.44-.31-.41-.12-.59.07-.62.49-.07.88-.18,1.75-.24,2.63,0,.37,0,.56-.51.45-.77-.19-1.58-.17-2.35-.4-.57-.17-1.07-.09-1.08.72s-.13,1.37-.21,2.06c0,.33,0,.48.43.52,1,.09,1.91.26,2.86.37.42.05.56.21.49.64-.15,1-.2,1.92-.37,2.87-.08.47.07.55.48.61a8.6,8.6,0,0,1,2.24.37c.29.12.63,0,.67-.47.07-1,.24-1.92.28-2.88,0-.56.1-.72.75-.63,1,.14,2.14.63,2.86.16s.23-1.66.37-2.53a1.83,1.83,0,0,0,0-.33c0-.2-.11-.33-.29-.31A6.12,6.12,0,0,1,83.25,129.56Z"/><path class="cls-1" d="M69.94,105l.34,0,.07,0,.07,0,.45.06c-.16,1.75-.32,3.5-.47,5.24H69.3c-.18-.92.39-1.84,0-2.89a20.55,20.55,0,0,0-1,1.79.91.91,0,0,1-1.17.59h0l-1-2.94-.22,3.1c-.35-.23-.83.47-1.13-.15.22-1.71.45-3.41.67-5.12h0l.78,0h0c.49,1.16,1,2.33,1.52,3.64l1.42-2.2a.08.08,0,0,0,.07-.09l.27-.41s.06,0,.06-.08Z"/><path class="cls-1" d="M89.7,112a.17.17,0,0,0,0-.14l1-2.1,0,0,0,0c.42-.79.91-1.54,1.25-2.36a.89.89,0,0,1,1.18-.64h0c.55,1.86,1.23,3.69,1.66,5.59h0c-.49-.2-1.32.26-1.42-.67,0-.48-.26-.54-.66-.59-.87-.11-1.64-.12-1.9,1h0Zm2-1.8c.48,0,1.09.22,1.2-.08.17-.46-.13-1-.45-1.56Z"/><path class="cls-1" d="M89,114.49c-.09.32.21.71-.16,1l-1.8-.2c-.15,0-.29-.09-.39.15-.33.8-.11,1.17.77,1.21l.91,0h0c.12.65,0,1-.8.8-.13,0-.28,0-.42,0-.54-.12-.69.11-.74.64s.35.53.72.54l1.57.06h0c-.11.37.2,1-.47,1a22.57,22.57,0,0,1-2.46-.16c-.38,0-.55-.17-.5-.63.17-1.52.27-3.06.39-4.59h0A32.48,32.48,0,0,1,89,114.49Z"/><path class="cls-1" d="M89.14,107.83a.27.27,0,0,1-.12,0,1.94,1.94,0,0,0-2.28-.25,1.68,1.68,0,0,0-.74,2c.19,1,1,1.39,2.26,1.14.32-.07.62-.26.77.3s-.3.55-.57.65a3.57,3.57,0,0,1-2.72-.2l-.23-.19a.1.1,0,0,0-.09-.08,3.47,3.47,0,0,1,0-4.12l0,0,0,0,.21-.23a.09.09,0,0,0,.07-.06l.24-.18a3.89,3.89,0,0,1,2.71-.06C89.56,106.85,89.57,106.92,89.14,107.83Z"/><path class="cls-1" d="M76.39,115.76c.36,0,.39.3.47.54-.15,0-.14.18-.17.29-.55,0-1.23-.29-1.61-.06s-.25,1-.33,1.59c0,.35,0,.64-.52.52s-.72,0-.66-.6c.17-1.56.25-3.13.37-4.69h0l3.44.28c-.2.26.21.63-.16.86-.46-.06-.92-.09-1.37-.18-.66-.12-.82.14-.82.77,0,.46.09.63.55.61A5.54,5.54,0,0,1,76.39,115.76Z"/><path class="cls-1" d="M79.37,113.78l.33,0c-.16,1.58-.33,3.16-.47,4.74,0,.31-.07.46-.42.41a6,6,0,0,0-.74,0h0a46.12,46.12,0,0,1,.47-5.25,1.16,1.16,0,0,0,.69.08l.06,0Z"/><path class="cls-1" d="M97.43,107a2.66,2.66,0,0,1,.26,1.79c-.07.3-.16.59-.21.89-.18,1.13-.08,1.25,1,1.51.38.09.9,0,.92.71s-.15,1-.87.9a12.56,12.56,0,0,1-2.52-.16.79.79,0,0,1-.61-.64c-.35-1.11.25-2.11.25-3.18a3.88,3.88,0,0,0,0-1.13c-.11-.35,0-.67.42-.71h0c-.13,1.59-.25,3.18-.41,4.76,0,.38,0,.5.39.57.8.12,1.59.11,2.38.18.27,0,.64.29.66-.34s-.13-.62-.57-.63-.82,0-1.23-.07c-.24,0-.42,0-.38-.36.17-1.36.3-2.72.44-4.08Z"/><path class="cls-3" d="M63.22,34.22a14.09,14.09,0,0,0-4.93.16,15.8,15.8,0,0,0-2.35,1c-.22.1-.47.26-.67,0s0-.53.21-.69c2.67-2.1,5.56-3.5,9.08-2.78a3.45,3.45,0,0,1,.72.18.91.91,0,0,1,.24,1.67A3.21,3.21,0,0,1,63.22,34.22Z"/><path class="cls-3" d="M84.22,34.92c-.07.66-.59.63-.89.39-1.75-1.36-3.78-1.13-5.78-1.12A11.73,11.73,0,0,1,76,34.06c-.39-.05-.78-.17-.88-.61a1.09,1.09,0,0,1,.37-1.05,2.36,2.36,0,0,1,1.66-.64,9.9,9.9,0,0,1,6.22,1.81A2.17,2.17,0,0,1,84.22,34.92Z"/><path class="cls-3" d="M77.05,41.27a2.6,2.6,0,0,1,.6-1.76,1.25,1.25,0,0,1,2.22.21,3.64,3.64,0,0,1,.36,2.72A1.4,1.4,0,0,1,79,43.66a1.63,1.63,0,0,1-1.66-.87A2.87,2.87,0,0,1,77.05,41.27Z"/><path class="cls-4" d="M75.35,57.42c-.6-.41-.94.26-1.37.5a6.74,6.74,0,0,1-7.14,0,8.42,8.42,0,0,0-1.49-.7.89.89,0,0,1-.7-.83.59.59,0,0,1,.5-.58.84.84,0,0,1,1,.37c1.43,2.43,5.64,2.49,8,.7.26-.2.31-.52.5-.75A.84.84,0,0,1,75.79,56a.64.64,0,0,1,.39.81C76.07,57.17,75.89,57.48,75.35,57.42Z"/><path class="cls-4" d="M70.81,50.72c1,.88,1.88,1,2.8.17a1.79,1.79,0,0,0,.47-2.25,33.37,33.37,0,0,1-2.38-6.58c-.13-.7-.29-1.4-.4-2.1,0-.22-.18-.58.13-.65s.39.34.45.57c.22.86.39,1.72.6,2.57A27.27,27.27,0,0,0,75,48.65a2,2,0,0,1-.7,2.69,2.32,2.32,0,0,1-3,.28A1,1,0,0,1,70.81,50.72Z"/><path class="cls-3" d="M63.17,41.52a3,3,0,0,1-.23,1.29,1.28,1.28,0,0,1-1.18.87,1.27,1.27,0,0,1-1.26-.78,3.52,3.52,0,0,1,.16-3.39,1.08,1.08,0,0,1,1.76-.18A2.69,2.69,0,0,1,63.17,41.52Z"/><path class="cls-6" d="M83.25,129.56a6.12,6.12,0,0,0,2.12.39c.18,0,.3.11.29.31a1.83,1.83,0,0,1,0,.33c-.14.87.21,2.15-.37,2.53s-1.89,0-2.86-.16c-.65-.09-.72.07-.75.63,0,1-.21,1.92-.28,2.88,0,.46-.38.59-.67.47a8.6,8.6,0,0,0-2.24-.37c-.41-.06-.56-.14-.48-.61.17-1,.22-1.91.37-2.87.07-.43-.07-.59-.49-.64-1-.11-1.9-.28-2.86-.37-.38,0-.47-.19-.43-.52.08-.69.19-1.37.21-2.06s.51-.89,1.08-.72c.77.23,1.58.21,2.35.4.46.11.49-.08.51-.45.06-.88.17-1.75.24-2.63,0-.42.21-.61.62-.49.8.24,1.64.06,2.44.31.29.09.34.17.3.43-.09.68-.15,1.37-.27,2.05S82.22,129.57,83.25,129.56Z"/><path class="cls-1" d="M96.14,107l1.28,0c-.14,1.36-.27,2.72-.44,4.08,0,.35.14.35.38.36.41,0,.82.06,1.23.07s.59.14.57.63-.39.36-.66.34c-.79-.07-1.58-.06-2.38-.18-.42-.07-.43-.19-.39-.57C95.89,110.21,96,108.62,96.14,107Z"/><path class="cls-1" d="M79.77,106a3.74,3.74,0,0,1,1.08.73,3.31,3.31,0,0,1,.21,2.7c-.36,1.11-1.06,1.52-2.51,1.49l-2.3-.08a42.2,42.2,0,0,0,.48-4.88c0-.36.22-.29.44-.29A10.41,10.41,0,0,1,79.77,106Zm-.13,1.19c-.36-.43-.87-.41-1.36-.49-.28,0-.37.06-.39.35,0,.8-.12,1.59-.17,2.39,0,.19-.13.46.26.45.65,0,1.4.21,1.79-.51a1.76,1.76,0,0,0,0-2.08Z"/><path class="cls-1" d="M75.37,110.79a29.49,29.49,0,0,0-3.75-.32c.13-1.61.27-3.22.38-4.84,0-.43.23-.46.58-.44,1,.09,2.08.14,3.13.2v1.1h0c-.68-.08-1.36-.14-2-.25-.28,0-.42,0-.43.29s-.13.93.64.87a4.78,4.78,0,0,1,1.21.2l-.06.88h0l-.74-.09c-1.15-.11-1.15-.11-1.38,1.09l2.45.23h0Z"/><path class="cls-1" d="M75.72,106.49a.57.57,0,0,1,.6.76,4.54,4.54,0,0,0-.16,1.93c0,.51-.26.73-.78.52h0c0-.44-.33-.35-.58-.36a2.39,2.39,0,0,1-.88-.14c-.15-.06-.34-.08-.31-.3s.22-.23.38-.22.43,0,.64.09.43,0,.42-.3h0c.55,0,.35-.46.34-.74a.52.52,0,0,0-.5-.55h-.74c-.17,0-.35,0-.36-.24s.18-.26.35-.25a8.32,8.32,0,0,1,1.22.07c.25,0,.36,0,.36-.27Z"/><path class="cls-1" d="M84,119.41l-3.42-.31c.12-1.31.23-2.62.36-3.93S81.06,114,82.2,114a27.72,27.72,0,0,1-.31,3.52c-.07.52-.09.93.65.82a3.35,3.35,0,0,1,.89.07C84.29,118.5,84.35,118.62,84,119.41Z"/><path class="cls-1" d="M82.72,106l1.11,0c-.15,1.64-.3,3.28-.43,4.92,0,.32-.12.43-.44.37a6.12,6.12,0,0,0-.74,0C82.38,109.55,82.55,107.79,82.72,106Z"/><path class="cls-1" d="M79.64,107.17l.09.11c0,.44,0,.88,0,1.32a1,1,0,0,1-1.19,1.06c-.85-.12-.45-.79-.4-1.17C78.29,107.14,78.33,107.14,79.64,107.17Z"/><path class="cls-1" d="M107.8,99.52c-.63-.08-1.26-.12-1.89-.17v.05l-6.58-.55c-5.14-.42-10.28-.87-15.42-1.28-4.47-.36-9-.67-13.42-1-3-.25-6.1-.57-9.15-.79a31.7,31.7,0,0,0-5.23-.16q-1.74,21-3.48,42c1.88.59,3.75,1.19,5.59,1.89,3,1.13,5.32,3.15,7.84,4.94,1.13.79,2.23,1.61,3.34,2.42a1.14,1.14,0,0,1,1.31-1c1.16,0,2.32,0,3.48,0,10.18,0,20.37-.15,30.56,0l.28-.94c0-.36,0-.71.07-1.07.27-2.39.56-4.78.81-7.18.19-1.85.33-3.71.51-5.56.27-2.72.58-5.43.82-8.14s.5-5.16.73-7.74c.2-2.21.41-4.43.61-6.65a.08.08,0,0,1,.09,0l.18-2.47c.13-1.62.3-3.23.36-4.85C109.27,100.08,108.86,99.67,107.8,99.52Zm-11.16,7.16-.17.07Zm-3,.29-.07-.09-.08-.08.08.08Zm-.18-.19-.11,0Zm-2.73,2.93h0a.46.46,0,0,0-.42.12A.46.46,0,0,1,90.7,109.71Zm-.42.13a1.13,1.13,0,0,0-.19.36A1.13,1.13,0,0,1,90.28,109.84Zm-4.61-3.07h0l.24-.18c.36-.74,1-.7,1.57-.63-.59-.07-1.21-.1-1.57.63a3.89,3.89,0,0,1,2.71-.06c.94.32.95.39.52,1.3a.27.27,0,0,1-.12,0h0a1.94,1.94,0,0,0-2.28-.25,1.68,1.68,0,0,0-.74,2c.19,1,1,1.39,2.26,1.14.32-.07.62-.26.77.3s-.3.55-.57.65a3.57,3.57,0,0,1-2.72-.2h0l-.23-.19a.1.1,0,0,0-.09-.08h0a3.47,3.47,0,0,1,0-4.12h0l.21-.22A.09.09,0,0,0,85.67,106.77Zm2.93,10a.24.24,0,0,1,0,.19A.24.24,0,0,0,88.6,116.75Zm-.08-1h0Zm-.14,0,.06,0Zm-15.8-10.57c1,.09,2.08.14,3.13.2,0,.37,0,.74,0,1.1a.57.57,0,0,1,.6.76,4.54,4.54,0,0,0-.16,1.93c0,.51-.26.73-.78.52,0-.44-.33-.35-.58-.36a2.39,2.39,0,0,1-.88-.14c-.15-.06-.34-.08-.31-.3s.22-.23.38-.22.43,0,.64.09.43,0,.42-.29c.54,0,.34-.46.33-.74a.52.52,0,0,0-.5-.55h-.74c-.17,0-.35,0-.36-.24s.18-.26.35-.25a8.32,8.32,0,0,1,1.22.07c.25,0,.36,0,.36-.27-.68-.08-1.36-.14-2-.25-.28,0-.42,0-.43.29s-.13.93.64.87a4.78,4.78,0,0,1,1.21.2c0,.28,0,.58-.06.87l-.73-.09c-1.15-.11-1.15-.11-1.38,1.09l2.45.23c0,.36,0,.73,0,1.09a29.49,29.49,0,0,0-3.75-.32c.13-1.61.27-3.22.38-4.84C72,105.2,72.23,105.17,72.58,105.19Zm8.48,4.22c-.36,1.11-1.06,1.52-2.51,1.49l-2.3-.08a42.2,42.2,0,0,0,.48-4.88c0-.36.22-.29.44-.29a10.41,10.41,0,0,1,2.6.33,3.74,3.74,0,0,1,1.08.73A3.31,3.31,0,0,1,81.06,109.41ZM82.72,106l1.11,0c-.15,1.64-.3,3.28-.43,4.92,0,.32-.12.43-.44.37a6.12,6.12,0,0,0-.74,0h0ZM84,119.41l-3.42-.31c.12-1.31.23-2.62.36-3.93S81.06,114,82.2,114a27.72,27.72,0,0,1-.31,3.52c-.07.52-.09.93.65.82a3.35,3.35,0,0,1,.89.07C84.29,118.5,84.35,118.62,84,119.41Zm-1.78-8.09Zm-3,2.45.06,0,.07,0,.33,0c-.16,1.58-.33,3.16-.47,4.74,0,.31-.07.46-.42.41a6,6,0,0,0-.73,0,46.12,46.12,0,0,1,.47-5.25A1.16,1.16,0,0,0,79.24,113.77Zm-2.91-2.72a.34.34,0,0,1-.09-.22.38.38,0,0,0-.19-.11.38.38,0,0,1,.19.11h0A.34.34,0,0,0,76.33,111.05Zm.07.06a.11.11,0,0,0,.08,0A.11.11,0,0,1,76.4,111.11Zm-.11-5.67.25,0Zm-4.69,5a.61.61,0,0,0,.1.32.61.61,0,0,1-.1-.32Zm2.6,2.5a.34.34,0,0,0-.14.05A.34.34,0,0,1,74.2,113Zm-.18.09h0Zm3.2,1.41c-.46-.06-.92-.09-1.37-.18-.66-.12-.82.14-.82.77,0,.46.09.63.55.61a5.54,5.54,0,0,1,.81.07c.36,0,.39.3.47.54-.15,0-.14.18-.17.29-.55,0-1.23-.29-1.61-.06s-.25,1-.33,1.59c0,.35,0,.64-.52.52s-.72,0-.66-.6c.17-1.56.25-3.13.37-4.69l3.44.28C77.18,113.89,77.59,114.26,77.22,114.49Zm-.63,2.41a.54.54,0,0,1-.29,0A.54.54,0,0,0,76.59,116.9Zm1.13,1.63v.1a.39.39,0,0,0,.08.21.39.39,0,0,1-.08-.21Zm2.5-.63a1,1,0,0,0,0,.34A1,1,0,0,1,80.22,117.9Zm.34,1.22h0a.38.38,0,0,0,0,.1.17.17,0,0,0,0,.07.17.17,0,0,1,0-.07.38.38,0,0,1,0-.1,1.93,1.93,0,0,1-.32-.7A1.93,1.93,0,0,0,80.56,119.12ZM85.8,114a.3.3,0,0,0-.14.06A.3.3,0,0,1,85.8,114Zm-.28-7.18h0Zm-.07,0a.09.09,0,0,0,0,0A.09.09,0,0,1,85.45,106.81ZM83.84,106a.36.36,0,0,1,.32.15.36.36,0,0,0-.32-.15h0c-.17-.26-.32-.41-.47-.44C83.52,105.63,83.67,105.78,83.84,106Zm-3,.66a1.26,1.26,0,0,1,.72,1,1.26,1.26,0,0,0-.72-1h0a1,1,0,0,0-.2-.51A1,1,0,0,1,80.86,106.7Zm-5.36-1.65c.12,0,.21.11.22.33a2.6,2.6,0,0,0,.56.06,2.6,2.6,0,0,1-.56-.06h0c0-.22-.1-.3-.22-.33l-.1,0ZM70.38,105l0,0Zm-4.12-.23h0v0Zm-.5-.36a.36.36,0,0,0-.19.07A.36.36,0,0,1,65.76,104.37Zm-1.28,5.06a.38.38,0,0,0,0,.15A.38.38,0,0,1,64.48,109.43Zm.3.39c.22-1.71.45-3.41.67-5.12h0l.78,0c.48,1.16,1,2.32,1.51,3.63l1.42-2.2a.08.08,0,0,0,.07-.09h0l.27-.41s.06,0,.06-.08h0l.36-.55.34,0,.07,0,.07,0,.45.06c-.16,1.75-.32,3.49-.47,5.24H69.3c-.17-.91.39-1.83,0-2.88a20.55,20.55,0,0,0-1,1.79.9.9,0,0,1-1.16.59l-1-2.93c-.08,1.19-.15,2.14-.22,3.1C65.56,109.74,65.08,110.44,64.78,109.82Zm4.15.36h0Zm.85.52-.14,0,.14,0h0Zm.4-.14a.48.48,0,0,1-.32.14A.48.48,0,0,0,70.18,110.56Zm.9-4.22c0-.4.17-.83-.13-1.19C71.25,105.51,71.13,105.94,71.08,106.34Zm.38,4.11a.46.46,0,0,1-.21-.14A.46.46,0,0,0,71.46,110.45Zm9,29.26c-4.83.17-8.88-3.18-8.88-8.28a8.6,8.6,0,0,1,8.64-8.89,8.37,8.37,0,0,1,8.53,8.1A8.78,8.78,0,0,1,80.41,139.71ZM89,118.9v0Zm0-.14a.94.94,0,0,1,0,.09A.94.94,0,0,0,88.94,118.76Zm-.12-3.28h0l-1.8-.2c-.15,0-.29-.09-.39.15-.33.8-.11,1.17.77,1.21l.9,0c.12.65,0,1-.8.8-.13,0-.28,0-.42,0-.54-.12-.69.11-.74.64s.35.53.72.54l1.55.06c-.1.38.2,1-.47,1a22.57,22.57,0,0,1-2.46-.16c-.38,0-.55-.17-.5-.63.17-1.52.27-3,.39-4.58a32.29,32.29,0,0,1,3.41.13C88.89,114.81,89.19,115.2,88.82,115.48Zm.85-3.67,1-2.1h0c.42-.79.91-1.55,1.25-2.36a.89.89,0,0,1,1.17-.64c.55,1.86,1.23,3.68,1.65,5.58-.49-.19-1.31.26-1.41-.67,0-.48-.26-.54-.66-.59-.86-.11-1.63-.12-1.9.94l-1.1,0A.17.17,0,0,0,89.67,111.81Zm.86.44a.63.63,0,0,0,.13-.11A.63.63,0,0,1,90.53,112.25Zm.14-.11.14-.16h0Zm3.17.37a1.07,1.07,0,0,0,.88-.15A1.07,1.07,0,0,1,93.84,112.51Zm4.73.33a12.56,12.56,0,0,1-2.52-.16.79.79,0,0,1-.61-.64c-.35-1.11.25-2.11.25-3.18a3.88,3.88,0,0,0,0-1.13c-.11-.35,0-.67.42-.71h0l1.28,0v0a.79.79,0,0,0-.71-.37.79.79,0,0,1,.71.37,2.66,2.66,0,0,1,.26,1.79c-.07.3-.16.59-.21.89-.18,1.13-.08,1.25,1,1.51.38.09.9,0,.92.71S99.29,112.9,98.57,112.84Z"/><path class="cls-1" d="M38.43,111.77c0-.17.07-.43-.27-.39s-.3.2-.29.41.08.6.09.91c.29,6.82.5,13.64.43,20.46,0,5.22,0,10.45-.13,15.67-.23,9-.2,18.11-.61,27.16-.27,6.12-.36,12.26-.85,18.37,0,.35,0,.7,0,1a36.35,36.35,0,0,0,.5-4.26c0-.28-.12-.64.32-.74v0c.14-2.56.33-5.12.41-7.69q.31-9.65.54-19.3c.1-4,.2-7.95.24-11.93.11-11.49.33-23-.07-34.48C38.67,115.24,38.54,113.51,38.43,111.77Zm.27,26.9h-.05v-15h.05Z"/><path class="cls-1" d="M100.78,169.85H101C100.9,169.79,100.84,169.76,100.78,169.85Z"/><path class="cls-1" d="M92.94,110.07c.17-.46-.13-1-.45-1.56l-.75,1.64C92.22,110.14,92.83,110.37,92.94,110.07Z"/><path class="cls-1" d="M79.71,108.6a1,1,0,0,1-1.19,1.06c-.85-.12-.45-.79-.4-1.17.17-1.35.21-1.35,1.52-1.32-.36-.43-.87-.41-1.36-.49-.27,0-.37.06-.39.35,0,.8-.12,1.59-.17,2.39,0,.19-.13.46.26.45.65,0,1.4.21,1.79-.51a1.76,1.76,0,0,0,0-2.08C79.73,107.72,79.74,108.16,79.71,108.6Z"/></svg>