<svg id="Calque_1" data-name="Calque 1" xmlns="http://www.w3.org/2000/svg" xmlns:xlink="http://www.w3.org/1999/xlink" viewBox="0 0 303 208"><defs><style>.cls-1{fill:#fefefe;}.cls-2{fill:url(#Dégradé_sans_nom_5);}.cls-3{fill:#c6dbfe;}.cls-4{fill:#392222;}.cls-5{fill:#feb994;}.cls-6{fill:#90b5ea;}.cls-7{fill:#98bdf0;}.cls-8{fill:#100c0d;}.cls-9{fill:#fa5c1b;}.cls-10{fill:#fa7c44;}.cls-11{fill:#0e1633;}.cls-12{fill:#333656;}.cls-13{fill:#2f4260;}.cls-14{fill:#eef5fe;}.cls-15{fill:#dceafe;}.cls-16{fill:#55b3b3;}.cls-17{fill:#75d8c8;}.cls-18{fill:#fff;}</style><linearGradient id="Dégradé_sans_nom_5" x1="15.26" y1="158.02" x2="122.34" y2="158.02" gradientUnits="userSpaceOnUse"><stop offset="0" stop-color="#329986"/><stop offset="1" stop-color="#49ba75"/></linearGradient></defs><title>imgs</title><path class="cls-1" d="M159.18,207.82c-1.09,0-1.42-.44-1.62-1.44q-1.84-9.4-3.8-18.78c-1.36-6.42-2.79-12.81-4.19-19.22l-.09-.61-.36-.19a48.57,48.57,0,0,1-6.8.83l0,.41c-.11.82-.86.32-1.26.57s-.36-.28-.39-.55l-.12-.05-5.56.86c-.58.08-1.16.12-1.73.18l-9,1.37c-.44.07-.88.09-1.32.13-.44.45-.89.8-1.47.18l-3.49.63q1.86,17.75,3.73,35.5c-.68-.68-.49-1.53-.59-2.3-.43-3.63-.74-7.29-1.12-10.93-.44-4.29-.91-8.58-1.37-12.87l-1-9.39-1.9.26a.09.09,0,0,1,0,.12c-.49,3.33-.4,6.71-.81,10.05-.06.43-.17.85-.25,1.28a3,3,0,0,1,0,1.26c-.46,5.38-.94,10.77-1.4,16.15-.16,1.89-.29,3.79-.43,5.68.08.6-.14.85-.79.85-4.6,0-9.2,0-13.79,0a1,1,0,0,1,.16.24h60.34A.91.91,0,0,1,159.18,207.82Z"/><path class="cls-2" d="M114.65,183.86a3,3,0,0,1,0,1.26c-.47.24-.36.69-.39,1.09-.21,2.69-.39,5.38-.65,8.07-.28,3-.67,6-.81,9.08,0,1-.24,1.9-.36,2.85,0,.36-.21.55-.59.54-2-.05-4,.67-6.07,0v0c0-.48-.28-.48-.62-.45l0,0-.22-.23v0c0-.55-.41-.6-.82-.65h0l-.26-.22a5,5,0,0,1-1.19-1.2c0-.2,0-.37-.24-.44h0l-.22-.22,0,.05c0-.24-.05-.46-.37-.26-.66-.47-.86-1.31-1.45-1.84,0-.4-.21-.65-.65-.61h0l-.27-.21-.15-.17c0-.19,0-.37-.22-.46l0,0c0-.32-.09-.46-.42-.43h0l-.23-.22,0,0-.23-.22v0c0-.17,0-.36-.25-.38s-.33.18-.35.4a10.3,10.3,0,0,0-.18,1.82c.13,2.25.2,4.5.19,6.75-.28,0-.55,0-.82,0H36l-.72,0c-.16-1.94.54-3.79.64-5.71.24-5.06-.76-10-1.3-15-.31-2.83-.8-5.64-1.18-8.47s-.71-5.61-1.1-8.42c-.58-4.26-1.23-8.52-1.79-12.79-.4-3.08-.64-6.19-1.09-9.27a5.89,5.89,0,0,0-.63-2.94c.05.71.06,1.15.11,1.59.17,1.57.35,3.13.54,4.69.37,3,.73,6,1.12,9.05.43,3.26.91,6.5,1.35,9.75.26,1.93.45,3.86.72,5.79.36,2.55.78,5.1,1.13,7.66q.72,5.22,1.35,10.47a33.6,33.6,0,0,1,.36,8.5,20.8,20.8,0,0,0-.47,5.1l-18.13,0a40.69,40.69,0,0,0-.67-5.16,122.56,122.56,0,0,1-1-13.79c0-2.74,0-5.49,0-8.23l0-1.21c.36-.29.21-.69.22-1,.09-1.75.12-3.49.24-5.23.24-3.44.52-6.88.8-10.32.2-2.38.37-4.77.67-7.14.4-3.07.93-6.13,1.39-9.2a56.11,56.11,0,0,1,3.54-13.35,2.8,2.8,0,0,0,.36-1.58l0,0a2.79,2.79,0,0,0,1.05-2.08l0,0c.23-.07.24-.25.23-.44l0,0c.23-.07.23-.25.23-.43h0a3.5,3.5,0,0,0,1.46-2.48h0c.48,0,.46-.31.43-.63h0c.58,0,.68-.37.62-.84h0c.33,0,.47-.12.4-.45l0,0c.49-.27.94-.58.84-1.25h0c.55,0,.61-.42.64-.83v0l.23-.23h0c.44,0,.66-.19.61-.65l0,.05c.22-.08.23-.26.22-.45l.17-.18.25-.21v0l.21-.28.15-.15.27-.21h0l.22-.22h0a1.42,1.42,0,0,0,1.25-1.25v0l.22-.23v0l.22-.22v0l.22-.23v0l.21-.27.36-.35.26-.24.19-.17c.08-.06.41.15.22-.2a26.7,26.7,0,0,1,5.72-4.13,5.67,5.67,0,0,0,.58-.42,1.44,1.44,0,0,0,.95-.27,39.3,39.3,0,0,1,3.57-1.75,19.92,19.92,0,0,1,7.5-1.83l3.8.87c0,.26.23.28.44.33a27.27,27.27,0,0,0,4.76.58,50.55,50.55,0,0,0,7.28-.19c1.66-.19,3.32-.35,5-.58,2.61-.35,5.17-.43,7.54,1,.07,0,.24-.05.37-.09l0,0a1.87,1.87,0,0,0,1.66.84v0a.5.5,0,0,0,.64.42h0c.06.21.23.24.42.22h0a1.76,1.76,0,0,0,1.47.63h0c.06.23.24.23.43.22l0,0c.06.23.24.24.43.23l0,0c.06.23.24.24.43.22v0A3.61,3.61,0,0,0,89.33,114v0a2.72,2.72,0,0,0,2.07,1v0c.08.65.56.65,1,.64h0c.07.22.25.22.43.23v0c0,.47.31.45.64.42v0c0,.54.41.62.85.61h0a1.06,1.06,0,0,0,1,.64h0c.06.22.25.21.43.22h0l.22.22v0c0,.47.29.46.62.43h0c0,.32.13.45.44.4h0c.06.22.23.25.43.22v0c0,.58.35.69.83.64v0c0,.32.12.46.44.41l0,0,.23.21,0,0c.07.21.23.26.44.22h0l.23.23,0,0,.22.23,0,0,.23.22h0l.25.21.16.17.22.26v0c0,.18,0,.36.23.42v0c0,.33.09.47.41.44h0a2.39,2.39,0,0,0,.23.22l0,0c0,.19,0,.36.23.43v0c0,.31.09.46.41.43h0a1.77,1.77,0,0,0,1.06,1.66h0c.1.76.24,1.5,1,1.86h0a1.57,1.57,0,0,0,.17,1,48.69,48.69,0,0,1,2.87,7.78c.17.53,0,1.2.65,1.55a.33.33,0,0,1,0,.17,21.2,21.2,0,0,0,1,4.66,34.53,34.53,0,0,0,1.44,5.48.33.33,0,0,1,0,.17,5,5,0,0,0,.11,1.33c.55,2.36,1,4.74,1.63,7.08.31,1.13.18,2.39,1,3.38h0a5.14,5.14,0,0,0,.59,2.9,1.11,1.11,0,0,1,0,.19c0,2.23,1,4.28,1.31,6.45.07.38-.15,1,.53,1.19l.13.19c.81-.36.85-1.11.9-1.85h0c.64-.24.41-.79.44-1.24l0,0c.2-.08.23-.25.22-.44v0c.29-.13.21-.4.23-.63h0a4.2,4.2,0,0,0,1.24-2.89h0a2.36,2.36,0,0,0,.84-2.07h0a2.36,2.36,0,0,0,.85-2.07h0c.51-.2.45-.63.43-1h0c.19-.15.8-.09.32-.6l-.07-.21h0c.15.07.19,0,.22-.13l.39-.46c.39-.09.5-.67,1.07-.58-.18,3.66-.32,7.31-.56,11a21.49,21.49,0,0,1-.24,3.67,2.13,2.13,0,0,1-1.19.49c-1.26.19-2.54.33-3.8.49-.35,0-.8-.1-.82.49a.09.09,0,0,1,0,.12.41.41,0,0,0-.4.39c-.08.71-.17,1.42-.22,2.13-.14,1.83-.35,3.67-.36,5.5C114.73,181.65,114.27,182.75,114.65,183.86ZM97.18,197.68l.23-.17c-.55-1-1.13-2-1.65-3-2.85-5.67-4.61-11.74-6.62-17.72-2.88-8.56-5-17.34-7.43-26.05a6.91,6.91,0,0,0-.68-2,.57.57,0,0,0-.07.6c.86,3.12,1.74,6.24,2.56,9.37a323,323,0,0,0,9.88,31.41A45.71,45.71,0,0,0,97.18,197.68Z"/><path class="cls-1" d="M137.18,155.42l.1,0c.52,1.53,1.81,1.21,2.95,1.22,2.64,0,5.29,0,7.93,0,.71,0,1-.1.72-.9-.75-2.06-.4-4.22-.31-6.32s.52-4.26.75-6.4a79.93,79.93,0,0,1,2.17-12c1.07-4.09,1.89-8.25,2.8-12.38.4-1.8.91-3.58,1.42-5.35.19-.67.06-.9-.62-.82a4.28,4.28,0,0,1-.62,0H110.24c-1.33,0-1.33,0-1.33-1.35V37.6c0-1.34,0-1.36,1.33-1.34,24.28.46,48.57.08,72.86.22.83,0,1.63-.23,2.45-.23.13,0,.32,0,.37-.13,1-1.63,2.61-1.46,4.14-1.5a16.48,16.48,0,0,1,5.11.25c1.68.49,3.49,0,5,.62,1.94.82,4,.64,5.92.93a29.22,29.22,0,0,0,4,0c6.56.09,13.13,0,19.69,0,2.76,0,5.52.14,8.27,0,5.7-.36,11.39,0,17.09-.19,1,0,1.24.31,1.24,1.27q0,37,0,74c0,1-.28,1.3-1.27,1.25-6.28-.33-12.56-.21-18.84-.22-1.23,0-1.31,0-.94,1.17a79.06,79.06,0,0,1,2.59,12.63c.61,4.39,1.94,8.67,2.3,13.09.29,3.68.67,7.41-.24,11a11.14,11.14,0,0,1-3,5.22c-.4.41-1,.71-1.09,1.33-.34,0-.68,0-1,0H205.75l-11.32,0a33.71,33.71,0,0,0-.58-6.8c-.19-1.61-.27-1.6-1.95-1.67-.65,0-1.29-.09-1.94-.14,0-1.57.13-3.14.13-4.71,0-3.28.24-6.55.54-9.81.09-1.05-.08-2.21.6-3.17a2,2,0,0,0,.68-.79,1.14,1.14,0,0,0,.56-.66,3.23,3.23,0,0,0,1-1.62,3.05,3.05,0,0,0-1.12,1.48,1.15,1.15,0,0,0-.58.68l-.58.45a7.51,7.51,0,0,1,.19-1.82c.44-2.13.94-4.25,1.55-6.35a1.87,1.87,0,0,1,.07-.22l-.2.09a6.86,6.86,0,0,0-.4.93,60.31,60.31,0,0,0-2.08,11.16,125.11,125.11,0,0,0-.57,14.35,6.77,6.77,0,0,1-1.42-.14,11.27,11.27,0,0,0-5.07,0c-2.91.67-5.16,2.44-7.42,4.22a12.11,12.11,0,0,0-3.65,4.08l-.38.42c-.41,0-.82,0-1.23,0s-.59-.15-.61-.59c-.19-4-.41-7.95-.61-11.92-.17-3.36-.3-6.72-.48-10.07-.31-5.79-.66-11.57-1-17.36-.19-3.66-.31-7.33-.48-11,0-.61-.15-1.22-.22-1.82a72.87,72.87,0,0,0,.23,8.62c.32,5.89.57,11.78.86,17.68s.58,11.57.87,17.36c.14,2.64.21,5.28.46,7.9.1,1-.07,1.21-1,1.21-10.14,0-20.27,0-30.41,0h-.37A4,4,0,0,1,137.18,155.42Zm68.91-116.5-.24-.27-.38-.35-.24-.23,0,0a7.41,7.41,0,0,0-4-1.84c-2.81-.49-5.67-.46-8.49-1.13-2-.46-4.24-.53-6,1.15a.11.11,0,0,0-.1.09,2.13,2.13,0,0,0-.73,1.06c-.16.52-.34.62-.9.51a2.94,2.94,0,0,0-2.56.55h0a1.56,1.56,0,0,0-.83.64l0,0-.25.24-.16.17c-1.45,2-2.39,4-1.7,6.56-.61-.13-.51-.63-.55-1.06a8.63,8.63,0,0,1,.71-3.75c-.26,0-.46,0-.66,0q-32.53,0-65.06,0c-.77,0-1,.22-1,1q0,14.68,0,29.37c0,.93.37,1.21,1.22,1.2,2.54,0,5.09,0,7.63,0,.8,0,1.09-.27,1.08-1.08,0-2.61,0-5.22,0-7.83h21c0,2.68,0,5.35,0,8,0,.41-.08.89.56.87,2.33-.06,4.66.16,7-.11l8.07.08a1,1,0,0,0,.68-.17,2.23,2.23,0,0,0,1.3.21h19.88c.34,1.37.67,2.74,1,4.11-6,.11-11.91-.1-17.87-.2-4.13-.08-8.25.09-12.38,0-12.74-.11-25.49,0-38.24-.06-.7,0-1,.18-1,.92q0,14.64,0,29.27c0,.68.15,1,.91,1q12.87,0,25.76,0h6.55c3.5,0,7,0,10.51,0A1.11,1.11,0,0,0,158,107c.79-1.72,1.64-3.4,2.52-5.07a30,30,0,0,1,8-9.7c4.13-3.28,9.1-5,13.91-7-1.76,3.86-2.37,8-3.3,12.12-.24,1.1-.09,1.33,1,1.49.74.11,1.49.17,2.24.25.25,0,.58-.09.59.35l-.09.2.19-.1c.16-.2.45-.32.37-.68a26.7,26.7,0,0,1-3.47-.39c-.64-.07-.71-.31-.57-.86.34-1.39.68-2.79.94-4.2A29.88,29.88,0,0,1,183,85.13c1.06-.07,2-.72,3.11-.64.3.66,0,1.4.28,2.07.17,2.66.28,5.33.51,8a15.93,15.93,0,0,0,.81,4.59h0a15.69,15.69,0,0,0,1,5.15h0v.82l.13.42c.08.24,0,.54.27.71l0,.06a8.72,8.72,0,0,0,.13,1c.74,3.05,1.57,6.07,2.48,9.08a40.3,40.3,0,0,0,1.44,4.6,23.63,23.63,0,0,0,1.17-3.92h0a51.64,51.64,0,0,0,2.07-5.78h0a3.51,3.51,0,0,0,.63-1.65h0a2.82,2.82,0,0,0,.6-1.87,1,1,0,0,0,0-.16,11.54,11.54,0,0,0,1.18-3.1,19,19,0,0,0,1.29-4h0a3.24,3.24,0,0,0,.83-1.85h0a1.14,1.14,0,0,0,.4-.84.38.38,0,0,0,0-.15.45.45,0,0,0,.21-.46h0a.53.53,0,0,0,.2-.62h0c.22,0,.21-.25.25-.41l.13-.22,0-.4h0a2,2,0,0,0,.42-1.44h0c.42-.31.36-.81.49-1.23l.51-1.67c.49-1.94,1-3.87,1.46-5.81.09-.39.33-.77.15-1.19l.1-1c1.35,1.18,3.14,1.22,4.7,1.84.27,2.24.62,4.47.77,6.72.13,2,0,4,0,6,0,.52-.13,1.06-.81.87-.94-.27-1.83.15-2.75,0-.2,0-.58-.09-.47.31a3,3,0,0,0,1.14,1.85l-.8-1.76A10.22,10.22,0,0,1,210,99c.78.07,1.06-.26,1.12-1a33.9,33.9,0,0,0,0-6c-.19-2.24-.45-4.48-.68-6.73,2.12,1,4.27,2,6.43,3A27,27,0,0,1,228,97a37.81,37.81,0,0,1,5.31,10.15,1,1,0,0,0,1.17.86c.89,0,1.78,0,2.67,0h9.06c1.72,0,3.44,0,5.16,0,.61,0,.84-.17.84-.81q0-14.53,0-29.07c0-.6-.15-.87-.81-.86-3,0-6-.14-8.94-.16-12.55-.08-25.09,0-37.64,0a26.93,26.93,0,0,1,.36-4.3,2.36,2.36,0,0,0,1.2.19h15.71l8.08,0H236c1.41,0,1.41,0,1.41-1.47V62.84a2,2,0,0,1,.45-1.62c-.08.81-.22,1.63-.22,2.45,0,2.81,0,5.62,0,8.43,0,.88.34,1,1.09,1,2.27,0,4.53,0,6.79,0a2,2,0,0,0,1-.17c1.51,0,3-.06,4.53,0,1,0,1.27-.26,1.26-1.26q0-14.62,0-29.25c0-1.09-.33-1.29-1.33-1.29q-20.82,0-41.63,0h-1c.22,1,1.17,1.62.73,2.65a14.49,14.49,0,0,0-1.67-3.31h0a4.5,4.5,0,0,0-.91-1.29.09.09,0,0,0-.07-.09l-.28-.28Zm-8.2,82.59a.72.72,0,0,0-.36.46,2,2,0,0,0-.62.83c-.24.24-.56.44-.51.91a1.06,1.06,0,0,0,.66-.76,1.4,1.4,0,0,0,.62-.83.76.76,0,0,0,.37-.47l.26-.36a1.35,1.35,0,0,0,.6-.82l.37-.46.42-.62.41-.62a4.32,4.32,0,0,0,.82-1.24,2.18,2.18,0,0,0,.68-1,8.81,8.81,0,0,0,1.65-2.27,19.49,19.49,0,0,0,2.14-3.48l-.25-.15c-.69,1.16-1.37,2.32-2.05,3.49a13.56,13.56,0,0,0-1.65,2.27,2.2,2.2,0,0,0-.68,1,2.34,2.34,0,0,0-.81,1.25.9.9,0,0,0-.41.61.89.89,0,0,0-.41.62l-.37.46a1.88,1.88,0,0,0-.62.83Zm-15.47-21.05c.12-.14.41-.26.16-.46s-.26.16-.31.33l-.25.38a.84.84,0,0,0-.4.6l-.37.47a1,1,0,0,0-.42.61l-.26.37a1,1,0,0,0-.41.62c-.35.54,0,1,.2,1.45,2.17,5.12,4.8,10,7.27,15a1.89,1.89,0,0,0,.8,1c0-.15,0-.23,0-.28-1.83-3.22-3.31-6.61-5-9.9a40.34,40.34,0,0,1-3.14-7.12l.41-.62.26-.37a.93.93,0,0,0,.4-.61.75.75,0,0,0,.37-.46,1.06,1.06,0,0,0,.41-.62Zm7.85,22.91c-.1-.19-.2-.6-.38-.47s.07.42.22.61l.42.62c.08.15.15.46.35.3s-.08-.32-.22-.44A.87.87,0,0,0,190.27,123.37Zm-1-1.1c.08.16.15.47.36.3s-.08-.32-.22-.44-.14-.47-.47-.52A.7.7,0,0,0,189.29,122.27Zm5.87,3.31a4.84,4.84,0,0,0,1.18-1.85,3.61,3.61,0,0,0-1.33,1.7c-.25.15-.5.31-.45.69C195,126.14,195,125.82,195.16,125.58Zm13.81-23a1.08,1.08,0,0,0-.6-.79,1,1,0,0,0,.47.93,1.49,1.49,0,0,1-.09,1.58c-.6,1-1.05,2.11-1.56,3.18a4.67,4.67,0,0,0-1.06,1.89,4,4,0,0,0,1.19-1.76c.77-1,1.09-2.21,1.79-3.22A1.24,1.24,0,0,0,209,102.6ZM191.51,148l.07.21a4.1,4.1,0,0,0,.5,0c3.32-.54,6.56-1.4,9.8-2.24,5.67-1.48,11.39-2.72,17.12-4a39,39,0,0,1,9.24-1.17c.66,0,1.31.06,2,.1a.43.43,0,0,0-.44-.35,50.87,50.87,0,0,0-5.66.09c-3.51.41-6.9,1.43-10.36,2.1-6,1.14-11.84,2.92-17.77,4.3C194.51,147.4,193,147.69,191.51,148Zm26.84-26.95-.3.06c1.25,6.5,2.14,13.07,3.79,19.49Q220.1,130.84,218.35,121.05Zm-24.78,6.5a1.57,1.57,0,0,0,.81-1.15A1.45,1.45,0,0,0,193.57,127.55ZM206,109.61a.76.76,0,0,0-.45.83A.79.79,0,0,0,206,109.61Zm-14.69,15.28s-.06-.13-.11-.15-.1,0-.15.05l.14.21Zm-2.75-3.75c.06.07.1.17.18.22s.18,0,.15-.13-.12-.15-.19-.21S188.59,121.09,188.53,121.14Zm19.74-19.75-.22-.17c0,.08-.1.18-.08.22s.15.1.22.15Z"/><path class="cls-3" d="M262.12,192.53c-.3,4.9-.16,9.8-.15,14.71,0,.51-.17.58-.58.55h-.51q-50.81,0-101.6,0c-1.17,0-1.51-.41-1.72-1.44q-1.84-9.4-3.8-18.78c-1.36-6.42-2.79-12.81-4.19-19.22l.39,0c.34.34.78.19,1.17.19h24.21q20.66,0,41.3,0c.38,0,.93.29,1.14-.36,1.63-.05,3.25,0,4.89,0,3.57-.08,7.14,0,10.72,0l28.55,0q0,11.66,0,23.3A2.05,2.05,0,0,0,262.12,192.53Z"/><path class="cls-4" d="M30.32,73.52l.17-.17A1.44,1.44,0,0,0,32,71.88l.37-.39c.59,0,.8-.44,1.09-.81A53.14,53.14,0,0,0,40,58.16a37.4,37.4,0,0,1,7-11.73c.2-.22.51-.43.2-.78a.09.09,0,0,1,.1-.1c.48.35.68-.12.92-.35a19.83,19.83,0,0,1,3.27-2.8A24.46,24.46,0,0,1,64,38.75a41.47,41.47,0,0,1,7,.36c5.38.67,10.32,2.32,14.41,6,.22.2.42.51.77.2a.1.1,0,0,1,.11.1c-.39.58.21.84.46,1.09a14.28,14.28,0,0,1,3,5.06,13.05,13.05,0,0,1-.15,10,2.23,2.23,0,0,0-.2,1.19l0,.08-.18.25h0c-.7,0-.9.45-.86,1.06l-.17.16a1.82,1.82,0,0,0-1.9,1.26.25.25,0,0,1,0,.17c-.38,0-.34.34-.43.59-.41,1.15-.8,2.31-1.29,3.43-.17.4-.39,1-.88,1s-.5-.72-.76-1.1-.1-1-.79-1l0,0c.05-.35.05-.66-.44-.65l-.16-.19c.06-.49-.14-.71-.65-.63l0,0c0-.07,0-.16,0-.2-.93-1-3.9-.6-4.45.67,0,0,0,.13.07.19l0,0c-.71-.17-.7.29-.66.76h0c-.53-.06-.58.4-.72.72-1.21,2.67-.4,5.11.89,7.49a.4.4,0,0,0,.45.17h0c-.08.49,0,.85.62.85h0A2.77,2.77,0,0,0,79,80h0l.22.22h0c0,.46.32.46.65.39v0a1.28,1.28,0,0,0,1.46,1v0c.08.66.7,1.13.54,1.92-.28,1.33-.41,2.7-.6,4A44,44,0,0,1,78,99.65a1.32,1.32,0,0,0-.17,1.17h0c-.77.12-.71.68-.66,1.24h0c-.42,0-.7.24-1,.44a28.18,28.18,0,0,1-8,3.49,32.34,32.34,0,0,1-9.81,1.28,68,68,0,0,1-10.94-1.32A64.74,64.74,0,0,1,37,102.57,2.32,2.32,0,0,1,35.52,101c-.43-1.48-.85-3-1.24-4.45-.1-.36,0-.79-.53-.87s-.67.34-.83.64c-.49.94-.91,1.92-1.37,2.88-.16.33-.32.79-.82.42a18.17,18.17,0,0,1-2.52-1.91C27.55,97,27,96.12,26,95.87h0a1.1,1.1,0,0,0-.24-.85,14.47,14.47,0,0,1-1.59-3.32,16.81,16.81,0,0,1-.65-7.16,14.23,14.23,0,0,1,5-9.09C29.15,74.89,30.16,74.59,30.32,73.52Z"/><path class="cls-5" d="M89.31,62.85l0-.08A13.78,13.78,0,0,0,90.54,60a16.32,16.32,0,0,1,.8,4.42A118.63,118.63,0,0,1,92,79.21a40.19,40.19,0,0,1-1.93,11.46c-1.14,3.56-5.53,6-8.84,5a9.44,9.44,0,0,1-1-.45,4.61,4.61,0,0,1,0-.92c1.09-3.5,1.41-7.14,2-10.73.14-.86,0-1.64-.93-2v0a4.52,4.52,0,0,0-1.46-1v0a.86.86,0,0,0-.65-.39h0L79,79.94h0L77,77.87h0L76.36,77h0c-1.44-2.7-2.37-5.44-.62-8.38h0l.66-.76,0,0a3.68,3.68,0,0,1,4.4-.66l0,0,.65.63.16.19.44.65,0,0c.29.73.58,1.46.89,2.17.38.87.63.93,1.17.18a11.2,11.2,0,0,0,2.09-5.26.25.25,0,0,0,0-.17,6.91,6.91,0,0,0,1.9-1.26l.17-.16a2.69,2.69,0,0,0,.86-1.06h0Z"/><path class="cls-5" d="M140.19,146.48a11.84,11.84,0,0,1-2.31,6c-.37.57-.8,1.1-1.2,1.65s-.76,1-1.15,1.48-.56.93-.85,1.39a10.44,10.44,0,0,0-1.28,2.1l-.16,0-.22-.17-.4-.29-.19-.13-.43-.22,0,0-.22-.22h0a.49.49,0,0,0-.43-.22h0l-.25-.22a13.71,13.71,0,0,0-7.35-2,7.51,7.51,0,0,1,.19-2.87,2.73,2.73,0,0,0,.58-1.38,32.19,32.19,0,0,1,2.41-7c.2-.34.4-.68.59-1,.59-1.07,1.57-2,1.37-3.58l-1.52,3.43a2.41,2.41,0,0,0-.6,1c-.32.47-.66.92-1,1.39-.45.69-.9,1.35-1.88,1.13-.65.05-.75-.23-.56-.8a21.81,21.81,0,0,1,2.62-4.63,24.18,24.18,0,0,1,3.34-3.87c.8-.81,2-1.12,2.64-2.06a1,1,0,0,1,1-.21,9.13,9.13,0,0,1,6,3.81.93.93,0,0,1,.21.77c-.62,0-.26.35-.14.52a6.82,6.82,0,0,1,.83,2.08C140.28,143.74,140,145.13,140.19,146.48Zm-6.35-1.7c.39-2.91.28-6.93-1-7.74C134.14,139.59,133.51,142.23,133.84,144.78Z"/><path class="cls-6" d="M261.94,168.23l-28.55,0c-3.58,0-7.15,0-10.72,0-1.64,0-3.26,0-4.89,0l-1.24,0c-12.92,0-25.83,0-38.75.15-9.28.1-18.56,0-27.83,0l-.39,0-.09-.61a2.89,2.89,0,0,0,1.61.22c26.11-.13,52.21.2,78.32-.17,12.57-.18,25.15,0,37.72,0,1,0,1.23-.26,1.21-1.21-.06-2.71-.07-5.43,0-8.14,0-1-.26-1.22-1.21-1.2-6.59.14-13.18.11-19.77.16-20,.17-40.06.06-60.09.06h-1.11c.32-.31.72-.09.91-.38h.42a2.37,2.37,0,0,0,1.59.16,23.16,23.16,0,0,0,4.78-.16l.57-.07,11.32,0h29.16c.34,0,.68,0,1,0,2.24,0,4.47,0,6.7,0,8.31,0,16.62,0,24.93,0,1,0,1.19.3,1.18,1.21-.06,3,0,6.05,0,9.07,0,.71-.19.94-.92.92C265.86,168.18,263.9,168.22,261.94,168.23Z"/><path class="cls-5" d="M55.74,109.13l-3.8-.87-1.22-.45-.19-.21h0a.23.23,0,0,0-.22-.22h0c-.07-.24-.15-.13-.22,0a.39.39,0,0,1-.18-.45,22.39,22.39,0,0,1,3.37.35,39,39,0,0,0,13.06-.45,36.34,36.34,0,0,0,9.13-3.49c.15,1.63,1,3.06,1.41,4.61v.7c-2.28.22-4.57.36-6.84.67A46.71,46.71,0,0,1,55.74,109.13Z"/><path class="cls-7" d="M113.45,162.62a1.11,1.11,0,0,0,0-.19,8.2,8.2,0,0,0-.59-2.9h0c0-.87-.45-1.64-.43-2.5l.19,0c0,.19.1.27.33.27,2.51,0,5-.05,7.53-.07l.13,0,0,.25h0a.39.39,0,0,0-.16.41l-.09.4h0a1.67,1.67,0,0,0-.43,1h0a5.23,5.23,0,0,0-.85,2.07h0a6,6,0,0,0-.84,2.07h0a13.48,13.48,0,0,0-1.24,2.9h0a.72.72,0,0,0-.23.63v0c-.22.07-.19.27-.22.44l0,0c-.28.23-.3.59-.44.89l-1.38,0c-.08-.34-.16-.67-.25-1A30.66,30.66,0,0,0,113.45,162.62Z"/><path class="cls-8" d="M75.49,103.36a36.34,36.34,0,0,1-9.13,3.49,39,39,0,0,1-13.06.45,22.39,22.39,0,0,0-3.37-.35h0c-.07-.2-.22-.19-.39-.17a63.29,63.29,0,0,1-12.82-3.92,2.51,2.51,0,0,1-1.54-1.68,39.42,39.42,0,0,1-1.45-5.45,12.86,12.86,0,0,0-1.93,3.82c-.25.83-.53.83-1.2.43A15.06,15.06,0,0,1,26,95.87c1,.25,1.59,1.15,2.25,1.82a18.17,18.17,0,0,0,2.52,1.91c.5.37.66-.09.82-.42.46-1,.88-1.94,1.37-2.88.16-.3.33-.73.83-.64s.43.51.53.87c.39,1.49.81,3,1.24,4.45A2.32,2.32,0,0,0,37,102.57a64.74,64.74,0,0,0,10.46,3.37,68,68,0,0,0,10.94,1.32A32.34,32.34,0,0,0,68.19,106a28.18,28.18,0,0,0,8-3.49c.32-.2.6-.48,1-.44l-.15.38Z"/><path class="cls-8" d="M86.1,45.34c-.35.31-.55,0-.77-.2-4.09-3.71-9-5.36-14.41-6a41.47,41.47,0,0,0-7-.36A24.46,24.46,0,0,0,51.55,42.4a19.83,19.83,0,0,0-3.27,2.8c-.24.23-.44.7-.92.35a20.87,20.87,0,0,1,13.21-6.84c7.38-1,14.49-.19,21.15,3.31A14.94,14.94,0,0,1,86.1,45.34Z"/><path class="cls-9" d="M22.48,131.48a2.8,2.8,0,0,1-.36,1.58,56.11,56.11,0,0,0-3.54,13.35c-.46,3.07-1,6.13-1.39,9.2-.3,2.37-.47,4.76-.67,7.14-.28,3.44-.56,6.88-.8,10.32-.12,1.74-.15,3.48-.24,5.23,0,.36.14.76-.22,1-.31-.19-.2-.49-.18-.74.26-4.58.44-9.17.85-13.74.42-4.8,1-9.6,1.64-14.37.88-6.28,2-12.53,4.56-18.41C22.23,131.88,22.37,131.68,22.48,131.48Z"/><path class="cls-8" d="M47.26,45.65c.31.35,0,.56-.2.78a37.4,37.4,0,0,0-7,11.73,53.14,53.14,0,0,1-6.59,12.52c-.29.37-.5.84-1.09.81,3.86-4.71,6-10.33,8.33-15.83A31.78,31.78,0,0,1,47.26,45.65Z"/><path class="cls-8" d="M30.32,73.52c-.16,1.07-1.17,1.37-1.84,1.94a14.23,14.23,0,0,0-5,9.09,16.81,16.81,0,0,0,.65,7.16A14.47,14.47,0,0,0,25.74,95a1.1,1.1,0,0,1,.24.85,12.58,12.58,0,0,1-2.8-6.46,15.54,15.54,0,0,1,.74-8.26A16.54,16.54,0,0,1,30.32,73.52Z"/><path class="cls-10" d="M75.49,103.36l1.54-.93a.85.85,0,0,0,.82-.63c.26-.63.6-1.22.91-1.83-.49,2.7-1.18,5.34-1.86,8C76.46,106.42,75.64,105,75.49,103.36Z"/><path class="cls-9" d="M15.28,180.56c0,2.74,0,5.49,0,8.23a122.56,122.56,0,0,0,1,13.79,40.69,40.69,0,0,1,.67,5.16l-.26,0a122.07,122.07,0,0,1-1.59-26.52C15.07,181,15,180.69,15.28,180.56Z"/><path class="cls-9" d="M55.74,109.13a46.71,46.71,0,0,0,14.31.21c2.27-.31,4.56-.45,6.84-.67,1.44.4,3,.49,4.21,1.53-.13,0-.3.14-.37.09-2.37-1.45-4.93-1.37-7.54-1-1.65.23-3.31.39-5,.58a50.55,50.55,0,0,1-7.28.19,27.27,27.27,0,0,1-4.76-.58C56,109.41,55.77,109.39,55.74,109.13Z"/><path class="cls-8" d="M81.34,81.55c1,.37,1.07,1.15.93,2-.59,3.59-.91,7.23-2,10.73a4.61,4.61,0,0,0,0,.92L79,98.62l-1.13,2.2A1.32,1.32,0,0,1,78,99.65a44,44,0,0,0,3.25-12.13c.19-1.35.32-2.72.6-4C82,82.68,81.42,82.21,81.34,81.55Z"/><path class="cls-11" d="M124,146.78c1,.22,1.43-.44,1.88-1.13.3-.47.64-.92,1-1.39l.17.12a31.69,31.69,0,0,0-2.42,7,2.73,2.73,0,0,1-.58,1.38,57,57,0,0,1,1.42-5.81c-.54.17-1.1-.12-1.36.46a39.16,39.16,0,0,0-2.78,9.47l-.39.46,0-.5A45.47,45.47,0,0,1,124,146.78Z"/><path class="cls-8" d="M90.54,60a13.78,13.78,0,0,1-1.21,2.82,2.23,2.23,0,0,1,.2-1.19,13.05,13.05,0,0,0,.15-10,14.28,14.28,0,0,0-3-5.06c-.25-.25-.85-.51-.46-1.09A15.61,15.61,0,0,1,91,57.87,17,17,0,0,1,90.54,60Z"/><path class="cls-12" d="M135.53,155.65c.39-.49.77-1,1.15-1.48l.5,1.25a4,4,0,0,0,.63,1.63c.14.45.17.95.57,1.28h0l.1.75c-.41,0-.4-.39-.53-.66a17.62,17.62,0,0,0-1.29-2.85,3.63,3.63,0,0,0,.14,2.64c.29.85.93,1.62.74,2.61l-.33-.46h0a1.61,1.61,0,0,0-.44-1h0c0-.23,0-.47-.23-.63h0c0-.16,0-.37-.22-.42h0a.62.62,0,0,0-.21-.63v0c0-.17,0-.36-.21-.45l0,0-.07-.21Zm.5.13c0,.05-.08.1-.08.15a.34.34,0,0,0,.07.15.42.42,0,0,0,.09-.14C136.11,155.89,136.06,155.83,136,155.78Z"/><path class="cls-9" d="M50.72,107.81l1.22.45a19.92,19.92,0,0,0-7.5,1.83,39.3,39.3,0,0,0-3.57,1.75,1.44,1.44,0,0,1-.95.27,26.61,26.61,0,0,1,9.45-3.91,2.45,2.45,0,0,0,1.2-.4l.08,0Z"/><path class="cls-9" d="M112.43,157c0,.86.48,1.63.43,2.5-.79-1-.66-2.25-1-3.38-.62-2.34-1.08-4.72-1.63-7.08a5,5,0,0,1-.11-1.33,27.6,27.6,0,0,1,1.23,4.81C111.77,154.05,112.09,155.55,112.43,157Z"/><path class="cls-9" d="M107.66,137.27c-.6-.35-.48-1-.65-1.55a48.69,48.69,0,0,0-2.87-7.78,1.57,1.57,0,0,1-.17-1A37.43,37.43,0,0,1,107.66,137.27Z"/><path class="cls-9" d="M110.14,147.58a34.53,34.53,0,0,1-1.44-5.48,21.2,21.2,0,0,1-1-4.66,31.65,31.65,0,0,1,1.62,5.86A17.36,17.36,0,0,1,110.14,147.58Z"/><path class="cls-9" d="M140.19,146.48c-.21-1.35.09-2.74-.32-4.09a6.82,6.82,0,0,0-.83-2.08c-.12-.17-.48-.5.14-.52C140.54,141.87,140.34,144.18,140.19,146.48Z"/><path class="cls-6" d="M120.48,157.27c-2.51,0-5,0-7.53.07-.23,0-.3-.08-.33-.27h7.11C120,157.06,120.29,157,120.48,157.27Z"/><path class="cls-5" d="M77.86,100.82,79,98.62a1.38,1.38,0,0,1-.23,1.35c-.31.61-.65,1.2-.91,1.83a.85.85,0,0,1-.82.63l.15-.38h0a3.9,3.9,0,0,0,.66-1.24Z"/><path class="cls-9" d="M25.37,126.12a3.5,3.5,0,0,1-1.46,2.48A11.07,11.07,0,0,1,25.37,126.12Z"/><path class="cls-9" d="M89.33,114a3.61,3.61,0,0,1-2.89-1.06A22.71,22.71,0,0,1,89.33,114Z"/><path class="cls-9" d="M23.51,129.42a2.79,2.79,0,0,1-1.05,2.08A6,6,0,0,1,23.51,129.42Z"/><path class="cls-9" d="M91.4,115a2.72,2.72,0,0,1-2.07-1A6.05,6.05,0,0,1,91.4,115Z"/><path class="cls-8" d="M32,71.88a1.44,1.44,0,0,1-1.48,1.47Z"/><path class="cls-9" d="M104,127c-.81-.36-.95-1.1-1-1.86A5.81,5.81,0,0,1,104,127Z"/><path class="cls-9" d="M31.75,118.47a1.42,1.42,0,0,1-1.25,1.25A3.93,3.93,0,0,1,31.75,118.47Z"/><path class="cls-9" d="M103,125.09a1.77,1.77,0,0,1-1.06-1.66A6.42,6.42,0,0,1,103,125.09Z"/><path class="cls-9" d="M82.74,111.08a1.87,1.87,0,0,1-1.66-.84A3.8,3.8,0,0,1,82.74,111.08Z"/><path class="cls-9" d="M27.63,123c.1.67-.35,1-.84,1.25A1.94,1.94,0,0,1,27.63,123Z"/><path class="cls-9" d="M85.22,112.31a1.76,1.76,0,0,1-1.47-.63A2.24,2.24,0,0,1,85.22,112.31Z"/><path class="cls-9" d="M92.44,115.61c-.48,0-1,0-1-.64A2.31,2.31,0,0,1,92.44,115.61Z"/><path class="cls-9" d="M26.39,124.67c.06.47,0,.84-.62.84A2.14,2.14,0,0,1,26.39,124.67Z"/><path class="cls-9" d="M94.31,116.82c-.44,0-.82-.07-.85-.61A1.3,1.3,0,0,1,94.31,116.82Z"/><path class="cls-9" d="M95.33,117.47a1.06,1.06,0,0,1-1-.64A1.47,1.47,0,0,1,95.33,117.47Z"/><path class="cls-9" d="M98.21,119.53c-.48,0-.84-.06-.83-.64Z"/><path class="cls-9" d="M29.05,121.35c.05.46-.17.66-.61.65C28.59,121.73,28.71,121.44,29.05,121.35Z"/><path class="cls-9" d="M28.25,122.2c0,.41-.09.81-.64.83A1.82,1.82,0,0,1,28.25,122.2Z"/><path class="cls-9" d="M93.47,116.23c-.33,0-.64,0-.64-.42A1.12,1.12,0,0,1,93.47,116.23Z"/><path class="cls-9" d="M96.56,118.29c-.33,0-.64,0-.62-.43A1.14,1.14,0,0,1,96.56,118.29Z"/><path class="cls-9" d="M25.78,125.5c0,.32,0,.64-.43.63Z"/><path class="cls-9" d="M98.64,119.92c-.32,0-.46-.09-.44-.41C98.39,119.6,98.59,119.68,98.64,119.92Z"/><path class="cls-9" d="M101.11,122.41c-.32,0-.46-.11-.41-.44C101,122,101,122.21,101.11,122.41Z"/><path class="cls-9" d="M83.37,111.47a.5.5,0,0,1-.64-.42A.69.69,0,0,1,83.37,111.47Z"/><path class="cls-9" d="M101.93,123.44c-.32,0-.45-.12-.41-.43C101.77,123.05,101.84,123.26,101.93,123.44Z"/><path class="cls-9" d="M26.77,124.23c.07.33-.07.47-.4.45C26.46,124.49,26.48,124.24,26.77,124.23Z"/><path class="cls-9" d="M97,118.68c-.31,0-.46-.08-.44-.4C96.73,118.38,97,118.43,97,118.68Z"/><path class="cls-13" d="M120.86,156.86l0,.5c0,.11-.07.2-.22.13l0-.25Z"/><path class="cls-9" d="M101.52,123c-.23-.07-.25-.24-.23-.43C101.46,122.71,101.59,122.82,101.52,123Z"/><path class="cls-9" d="M100.69,122c-.22-.06-.24-.24-.23-.42C100.61,121.69,100.76,121.79,100.69,122Z"/><path class="cls-9" d="M23.93,128.6c0,.18,0,.36-.23.43Z"/><path class="cls-9" d="M23.72,129c0,.19,0,.37-.23.44C23.51,129.27,23.52,129.09,23.72,129Z"/><path class="cls-9" d="M29.29,121c0,.19,0,.37-.22.45C29,121.16,29.16,121.07,29.29,121Z"/><path class="cls-9" d="M99.25,120.35c-.21,0-.37,0-.44-.22C99.06,120,99.14,120.21,99.25,120.35Z"/><path class="cls-9" d="M97.39,118.91c-.2,0-.37,0-.43-.22C97.18,118.6,97.29,118.74,97.39,118.91Z"/><path class="cls-5" d="M49.55,106.79c.17,0,.32,0,.39.17C49.76,107,49.66,106.9,49.55,106.79Z"/><path class="cls-9" d="M95.73,117.68c-.18,0-.37,0-.43-.22Z"/><path class="cls-9" d="M33.62,116.66c.19.35-.14.14-.22.2Z"/><path class="cls-9" d="M92.84,115.83c-.18,0-.36,0-.43-.23Z"/><path class="cls-9" d="M86.45,112.93c-.19,0-.37,0-.43-.22C86.19,112.73,86.37,112.73,86.45,112.93Z"/><path class="cls-9" d="M86,112.73c-.19,0-.37,0-.43-.23C85.78,112.53,86,112.52,86,112.73Z"/><path class="cls-9" d="M85.63,112.52c-.19,0-.37,0-.43-.22C85.37,112.32,85.55,112.32,85.63,112.52Z"/><path class="cls-9" d="M83.77,111.69c-.19,0-.36,0-.42-.22C83.59,111.35,83.74,111.41,83.77,111.69Z"/><path class="cls-10" d="M50.72,107.81h-.07l-.08,0a.57.57,0,0,1-.08-.13.17.17,0,0,1,0-.07Z"/><path class="cls-10" d="M50.32,107.39a.23.23,0,0,1,.22.22C50.34,107.66,50.26,107.6,50.32,107.39Z"/><path class="cls-9" d="M33.21,117l-.26.24Z"/><path class="cls-10" d="M50.11,107.4c.07-.13.15-.24.22,0Z"/><path class="cls-9" d="M32.59,117.62l-.21.27Z"/><path class="cls-9" d="M101.31,122.63a2.39,2.39,0,0,1-.23-.22A2.39,2.39,0,0,0,101.31,122.63Z"/><path class="cls-9" d="M95.93,117.89l-.22-.22Z"/><path class="cls-9" d="M32.39,117.87l-.22.23A.23.23,0,0,1,32.39,117.87Z"/><path class="cls-9" d="M32,118.28l-.22.23A.21.21,0,0,1,32,118.28Z"/><path class="cls-9" d="M30.53,119.73l-.22.22A.21.21,0,0,1,30.53,119.73Z"/><path class="cls-9" d="M30.33,119.94l-.27.21Z"/><path class="cls-9" d="M98.83,120.15l-.23-.21C98.77,119.92,98.91,119.92,98.83,120.15Z"/><path class="cls-9" d="M29.91,120.3l-.21.28Z"/><path class="cls-9" d="M99.45,120.57l-.23-.23Z"/><path class="cls-9" d="M29.71,120.56l-.25.21Z"/><path class="cls-9" d="M99.65,120.78l-.22-.23Z"/><path class="cls-9" d="M99.86,121l-.23-.22Z"/><path class="cls-9" d="M100.09,121.18l-.25-.21Z"/><path class="cls-9" d="M100.47,121.61l-.22-.26Z"/><path class="cls-9" d="M28.47,122l-.23.23Z"/><path class="cls-9" d="M32.18,118.08l-.22.22A.21.21,0,0,1,32.18,118.08Z"/><path class="cls-7" d="M187.07,157.1c-.19.29-.59.07-.91.38h1.11c20,0,40.06.11,60.09-.06,6.59,0,13.18,0,19.77-.16.95,0,1.23.25,1.21,1.2-.07,2.71-.06,5.43,0,8.14,0,1-.25,1.21-1.21,1.21-12.57,0-25.15-.17-37.72,0-26.11.37-52.21,0-78.32.17a2.89,2.89,0,0,1-1.61-.22l-.36-.19c-.38-.36-.84-.22-1.26-.15a30.38,30.38,0,0,1-5.55.57c-.24-.32-.23-.8-.65-1a5.24,5.24,0,0,0-1.21-3.12c0-.61,0-1.26-.65-1.62.06-.42.12-.84-.39-1.06A1.25,1.25,0,0,0,139,160c0-.18,0-.34-.22-.4a1.17,1.17,0,0,0-.43-1.25h0a1.56,1.56,0,0,0-.18-.85h35.39c-.44-.33-1,0-1.38-.38l2.06,0Z"/><path class="cls-14" d="M102.71,204.12a5,5,0,0,0,1.19,1.2l.26.22h0a1.7,1.7,0,0,0,.82.65v0c0,.14.1.2.22.23l0,0a1,1,0,0,0,.62.45v0a1.7,1.7,0,0,0,1.63.62c1.8-.16,3.6-.3,5.41-.45.08.6-.14.85-.79.85-4.64,0-9.27,0-13.9,0,0-2.63-.1-5.27-.12-7.9,0-.24-.3-.76.36-.7v0l.23.22,0,0c0,.13.08.23.23.22h0c.08.2.18.39.42.43l0,0c-.08.23.08.34.22.46l.15.17.27.21h0a.93.93,0,0,0,.65.61c.59.53.79,1.37,1.45,1.84.09.13.14.33.37.26l0-.05c-.07.22,0,.3.22.22h0C102.34,203.94,102.59,204,102.71,204.12Z"/><path class="cls-13" d="M121.27,156.9a39.16,39.16,0,0,1,2.78-9.47c.26-.58.82-.29,1.36-.46a57,57,0,0,0-1.42,5.81,7.51,7.51,0,0,0-.19,2.87c-.13,1.93-.38,3.85-.43,5.79-.09,3.17-.26,6.33-.4,9.5v.39c-.44.45-.89.8-1.47.18l.05-.57a21.49,21.49,0,0,0,.24-3.67c.24-3.64.38-7.29.56-11C121.77,156.23,121.66,156.81,121.27,156.9Z"/><path class="cls-12" d="M35.05,207.76a20.8,20.8,0,0,1,.47-5.1,33.6,33.6,0,0,0-.36-8.5q-.63-5.25-1.35-10.47c-.35-2.56-.77-5.11-1.13-7.66-.27-1.93-.46-3.86-.72-5.79-.44-3.25-.92-6.49-1.35-9.75-.39-3-.75-6-1.12-9.05-.19-1.56-.37-3.12-.54-4.69-.05-.44-.06-.88-.11-1.59a5.89,5.89,0,0,1,.63,2.94c.45,3.08.69,6.19,1.09,9.27.56,4.27,1.21,8.53,1.79,12.79.39,2.81.72,5.62,1.1,8.42s.87,5.64,1.18,8.47c.54,5,1.54,9.94,1.3,15-.1,1.92-.8,3.77-.64,5.71Z"/><path class="cls-6" d="M118,172.14q1.86,17.75,3.73,35.5c-.68-.68-.49-1.53-.59-2.3-.43-3.63-.74-7.29-1.12-10.93-.44-4.29-.91-8.58-1.37-12.87l-1-9.39Z"/><path class="cls-9" d="M112.82,207c-1.81.15-3.61.29-5.41.45a1.7,1.7,0,0,1-1.63-.62c2,.64,4-.08,6.07,0,.38,0,.55-.18.59-.54.12-1,.32-1.89.36-2.85.14-3,.53-6.05.81-9.08.26-2.69.44-5.38.65-8.07,0-.4-.08-.85.39-1.09-.46,5.38-.94,10.77-1.4,16.15C113.09,203.16,113,205.06,112.82,207Z"/><path class="cls-9" d="M123,171.33v-.39c2.57-.13,5.07-.71,7.6-1.08s2.47-.33,3-2.69c.54-2.56,1.18-5.16-.28-7.66-.06-.11,0-.27,0-.41l.16,0a6,6,0,0,1,1.08,3.56,39.61,39.61,0,0,1-.8,5.53l-.44,1.6-9,1.37C123.84,171.27,123.4,171.29,123,171.33Z"/><path class="cls-3" d="M133.24,169.83c.15-.53.29-1.07.44-1.6a45,45,0,0,0,5.92.16c.44,0,.43-.36.5-.65l.43,1-5.56.86C134.39,169.73,133.81,169.77,133.24,169.83Z"/><path class="cls-9" d="M114.65,183.86c-.38-1.11.08-2.21.08-3.31,0-1.83.22-3.67.36-5.5,0-.71.14-1.42.22-2.13a.41.41,0,0,1,.4-.39c-.49,3.33-.4,6.71-.81,10.05C114.84,183,114.73,183.43,114.65,183.86Z"/><path class="cls-9" d="M98.37,199.16c-.66-.06-.36.46-.36.7,0,2.63.07,5.27.12,7.9h-.35c0-2.25-.06-4.5-.19-6.75a10.3,10.3,0,0,1,.18-1.82c0-.22.08-.42.35-.4S98.36,199,98.37,199.16Z"/><path class="cls-6" d="M142.31,168a30.38,30.38,0,0,0,5.55-.57c.42-.07.88-.21,1.26.15a48.57,48.57,0,0,1-6.8.83Z"/><path class="cls-9" d="M118,172.14h-.37l-1.9.26c0-.59.47-.45.82-.49,1.26-.16,2.54-.3,3.8-.49a2.13,2.13,0,0,0,1.19-.49c0,.19,0,.38-.05.57Z"/><path class="cls-12" d="M140.53,168.79l-.43-1v0a1.61,1.61,0,0,0-.44-1v0c0-.24,0-.48-.22-.64h0l-.18-.7a5.89,5.89,0,0,1,1.39,3.22.25.25,0,0,1,0,.19Z"/><path class="cls-11" d="M140.65,168.84a.25.25,0,0,0,0-.19c.51.45,1,.7,1.24-.23h.17c0,.14,0,.35.22.4-.11.82-.86.32-1.26.57S140.68,169.11,140.65,168.84Z"/><path class="cls-3" d="M142.3,168.82c-.23,0-.17-.26-.22-.4l-.11-.27h0l-.34-1.15h0c.42.2.41.68.65,1v.41Z"/><path class="cls-12" d="M97.18,197.68a45.71,45.71,0,0,1-3.78-7.57,323,323,0,0,1-9.88-31.41c-.82-3.13-1.7-6.25-2.56-9.37a.57.57,0,0,1,.07-.6,6.91,6.91,0,0,1,.68,2c2.39,8.71,4.55,17.49,7.43,26.05,2,6,3.77,12,6.62,17.72.52,1,1.1,2,1.65,3Z"/><path class="cls-9" d="M113.45,162.62a30.66,30.66,0,0,1,1.21,4.61c.09.33.17.66.25,1l.38,2c-.68-.16-.46-.81-.53-1.19C114.4,166.9,113.47,164.85,113.45,162.62Z"/><path class="cls-15" d="M115.29,170.26l-.38-2,1.38,0v.35h0c-.52.52-.53,1.27-.9,1.85Z"/><path class="cls-9" d="M117.14,166.34a13.48,13.48,0,0,1,1.24-2.9A4.2,4.2,0,0,1,117.14,166.34Z"/><path class="cls-9" d="M112.84,159.53a8.2,8.2,0,0,1,.59,2.9A5.14,5.14,0,0,1,112.84,159.53Z"/><path class="cls-9" d="M118.36,163.45a6,6,0,0,1,.84-2.07A2.36,2.36,0,0,1,118.36,163.45Z"/><path class="cls-9" d="M119.18,161.39a5.23,5.23,0,0,1,.85-2.07A2.36,2.36,0,0,1,119.18,161.39Z"/><path class="cls-9" d="M115.42,170.45c.37-.58.38-1.33.9-1.85C116.27,169.34,116.23,170.09,115.42,170.45Z"/><path class="cls-9" d="M116.29,168.6v-.35c.14-.3.16-.66.44-.89C116.7,167.81,116.93,168.36,116.29,168.6Z"/><path class="cls-9" d="M100.44,201.42a.93.93,0,0,1-.65-.61C100.23,200.77,100.41,201,100.44,201.42Z"/><path class="cls-9" d="M105,206.18a1.7,1.7,0,0,1-.82-.65C104.55,205.58,105,205.63,105,206.18Z"/><path class="cls-9" d="M120,159.33a1.67,1.67,0,0,1,.43-1C120.46,158.7,120.52,159.13,120,159.33Z"/><path class="cls-9" d="M120.42,158.29l.09-.4.23-.2C121.22,158.2,120.61,158.14,120.42,158.29Z"/><path class="cls-9" d="M105.78,206.81a1,1,0,0,1-.62-.45C105.5,206.33,105.81,206.33,105.78,206.81Z"/><path class="cls-9" d="M99.17,200c-.24,0-.34-.23-.42-.43C99.08,199.54,99.22,199.68,99.17,200Z"/><path class="cls-9" d="M102.26,203.52c-.23.07-.28-.13-.37-.26C102.21,203.06,102.24,203.28,102.26,203.52Z"/><path class="cls-9" d="M116.92,167a.72.72,0,0,1,.23-.63C117.13,166.56,117.21,166.83,116.92,167Z"/><path class="cls-9" d="M102.71,204.12c-.12-.12-.37-.18-.24-.44C102.69,203.75,102.72,203.92,102.71,204.12Z"/><path class="cls-9" d="M99.41,200.42c-.14-.12-.3-.23-.22-.46C99.4,200.05,99.42,200.23,99.41,200.42Z"/><path class="cls-9" d="M116.71,167.38c0-.17,0-.37.22-.44C116.94,167.13,116.91,167.3,116.71,167.38Z"/><path class="cls-13" d="M120.74,157.69l-.23.2a.39.39,0,0,1,.16-.41Z"/><path class="cls-9" d="M98.59,199.36l-.23-.22Z"/><path class="cls-9" d="M98.79,199.56c-.15,0-.2-.09-.23-.22Z"/><path class="cls-9" d="M99.83,200.8l-.27-.21Z"/><path class="cls-9" d="M102.5,203.69c-.22.08-.29,0-.22-.22Z"/><path class="cls-9" d="M104.16,205.54l-.26-.22Z"/><path class="cls-9" d="M105.18,206.38c-.12,0-.22-.09-.22-.23A2.39,2.39,0,0,1,105.18,206.38Z"/><path class="cls-15" d="M181.45,72.75H161.57a2.23,2.23,0,0,1-1.3-.21,1.21,1.21,0,0,1,0-.19h0a3.92,3.92,0,0,0,.59-2c0-2.26,0-4.53,0-6.79,0-.3,0-.61-.05-.91l0-.22-.12-.59a5.35,5.35,0,0,0-2.21-3.13c0-.75,0-1.5,0-2.26,0-.47-.16-.65-.66-.64-1.16,0-2.33,0-3.49-.06-.87-.07-1.1.25-1.08,1.1s.35,1.66-.48,2.27A4,4,0,0,0,151.2,61a7.24,7.24,0,0,0-.19,2.74l0,6.54v0c-.32.57-.47,1.13.1,1.65.07,0,.11,0,.1.13a.76.76,0,0,0,.21.59l.05,0h.06c-2.33.28-4.66.06-7,.12-.64,0-.56-.46-.56-.87,0-2.68,0-5.35,0-8a.39.39,0,0,1,0-.18,9.56,9.56,0,0,0,0-4.09.39.39,0,0,1,0-.18c0-2.63-.07-5.26.07-7.88,0-.93-.19-1-1-1-6.38,0-12.77,0-19.15,0-.87,0-1,.32-1,1.08,0,2.61,0,5.22,0,7.82v4.49c0,2.61,0,5.22,0,7.83,0,.81-.28,1.09-1.08,1.08-2.54,0-5.09,0-7.63,0-.85,0-1.22-.27-1.22-1.2q0-14.69,0-29.37c0-.77.22-1,1-1q32.53,0,65.06,0c.2,0,.4,0,.66,0A8.63,8.63,0,0,0,179,45c0,.43-.06.93.55,1.06v0a.19.19,0,0,0,.06.28l.05,0,0,.06c0,.33-.08.69.42.71h0c0,.19,0,.37.3.31l0,0a1.74,1.74,0,0,0,0,1.19h0c-.4.07-.29.36-.27.61l0,0c-.33,0-.38.31-.51.56a8.34,8.34,0,0,0-.52,2.69,13.11,13.11,0,0,0,.38,4.45c0,.2.13,0,.17,0a.54.54,0,0,0,.07-.19c.24.35,0,.85.34,1.17C180,62.91,179.93,67.9,181.45,72.75Z"/><path class="cls-15" d="M186.07,84.49c-1.1-.08-2,.57-3.11.64l-.15-.31-.44.48c-4.81,2-9.78,3.69-13.91,7a30,30,0,0,0-8,9.7c-.88,1.67-1.73,3.35-2.52,5.07a1.11,1.11,0,0,1-1.23.77c-3.5,0-7,0-10.51,0a6.51,6.51,0,0,0,.79-3.67q0-3.24,0-6.48c-.17-.69.19-1.53-.57-2.06l-.17-.17-.45-.42h0l-.43-.43v0l-.23-.23h0l-.3-.31A8,8,0,0,0,145,92c0-.49-.16-.66-.65-.65-1.12,0-2.24,0-3.37,0-.2,0-.4,0-.54.18a5.82,5.82,0,0,0,.22,2.7c-.06.22-.39.31-.28.61l0,0c-.44,0-.57.42-.83.65l-.4.38L139,96v0c-.67.43-.3,1.11-.39,1.68,0,2.07,0,4.14,0,6.22a5.2,5.2,0,0,0,1.07,3.86q-12.89,0-25.76,0c-.76,0-.91-.29-.91-1q0-14.64,0-29.27c0-.74.25-.92,1-.92,12.75,0,25.5-.05,38.24.06,4.13,0,8.25-.13,12.38,0,6,.1,11.91.31,17.87.2.48,1.19.9,2.59,2.07,3.09,1.69.72,1.56,2,1.52,3.31C186,83.67,186.06,84.08,186.07,84.49Zm-64.78,21.24c.93.46,1.91.15,2.87.2h8.21a1.51,1.51,0,0,0,1.13-2.24,1.43,1.43,0,0,1,0-.71,16.93,16.93,0,0,0,.35-3.56q-.09-4.47-.13-8.94c0-1.39-.33-1.74-1.65-2.15-.76-.24-1.41.13-2.13.12-2.47,0-4.94-.08-7.41,0s-3.5.5-3.3,3.36a62.87,62.87,0,0,1,0,6.44c0,1.17.41,2.29.16,3.47a9.75,9.75,0,0,0,.2,3.23c.09.77.71.83,1.33.77Z"/><path class="cls-15" d="M237.83,61.22a2,2,0,0,0-.45,1.62v8.65c0,1.47,0,1.47-1.41,1.47H230.2c0-1.8,0-3.6-.07-5.4,0-.49.18-1-.19-1.47,0-2.16,0-4.32.06-6.48,0-.51-.25-.46-.52-.54.13-.15.46-.11.45-.35,0-1.65.25-3.32-.19-5-.27-.31-.64-.19-1-.19-1.78,0-3.56,0-5.35,0-.36,0-.76-.14-1.07.18a20.08,20.08,0,0,0-.17,5l0,.31,0,7-.05.25a18,18,0,0,0-.13,4.15,3.31,3.31,0,0,0,.17,2V73H206.41a2.36,2.36,0,0,1-1.2-.19,25,25,0,0,1,.2-2.87c.06-.89.16-1.53,1.31-1.12a1.59,1.59,0,0,0,.8-.07,4.06,4.06,0,0,0,2.9-3.69c.06-1-.49-1.94-.1-2.93a.12.12,0,0,1,.1-.09c.4-.08.35-.36.3-.65h0c.64-.13.53-.57.4-1l0-.08c.48,0,.29-.39.31-.65l0,0c.1-.07.14-.16.05-.27a.1.1,0,0,1,0-.13c.42.13.44-.23.51-.46a13.81,13.81,0,0,0-.4-9.38.44.44,0,0,0-.39-.29l0-.06c0-.25.15-.61-.31-.65l0-.06c.07-.4.37-.92-.42-.93l0-.09c.18-.41.2-.75-.4-.76v0c.1-.22.09-.38-.2-.41h0c.06-.87,0-1.69-.87-2.16h0c.44-1-.51-1.69-.73-2.65h1q20.8,0,41.63,0c1,0,1.33.2,1.33,1.29q-.07,14.63,0,29.25c0,1-.26,1.31-1.26,1.26-1.5-.08-3,0-4.53,0l0-.24c.3-.32.15-.71.17-1.08.08-1.73,0-3.46.16-5.2a12.61,12.61,0,0,0-.38-5h0c0-.24,0-.48-.21-.63h0c0-.23,0-.48-.21-.63h0a.37.37,0,0,0-.27-.42l-.15-.33c0-.35,0-.69-.46-.69l-.15-.21c0-.19,0-.36-.27-.42l-.14-.19c.12-.93-.24-1.9.3-2.8.18-.29-.15-.48-.46-.48-1.21,0-2.43,0-3.64,0-.7,0-1,.17-1,.92s0,1.5,0,2.25l-1.65,2.4a.43.43,0,0,0-.21.44v0c-.26.15-.22.4-.22.64Z"/><path class="cls-5" d="M210.32,62.08c-.39,1,.16,1.94.1,2.93a4.06,4.06,0,0,1-2.9,3.69,1.59,1.59,0,0,1-.8.07c-1.15-.41-1.25.23-1.31,1.12a25,25,0,0,0-.2,2.87,26.93,26.93,0,0,0-.36,4.3c-.16,2.09.36,4.14.41,6.22,0,.34-.07.68-.1,1L204,85.72h0l-.21.21h0l-.29.21a2.65,2.65,0,0,0-1,.75,1.12,1.12,0,0,0-.61.48h0c-.17,0-.33,0-.42.21h0a5.82,5.82,0,0,0-1.65.83h0c-1.93.43-3.8,1.16-5.81,1-1-.07-2-.27-3-.4h0c-.08-.19-.24-.21-.42-.21h0a4,4,0,0,0-1.25-.62h0l-1.24-.65-.22-.16a.31.31,0,0,0-.19,0h0a2.87,2.87,0,0,0-1.35-.8c-.25-.67,0-1.41-.28-2.07,0-.41,0-.82,0-1.23,0-1.35.17-2.59-1.52-3.31-1.17-.5-1.59-1.9-2.07-3.09-.34-1.37-.67-2.74-1-4.11-1.52-4.85-1.5-9.84-1.4-14.84.76,0,.53-.54.51-.95-.13-2.39-.39-4.78.57-7.08l0,0,.64-1h0l.67-.84.35-.41.42-.42h0l1.06-1v0l1-.66h.18l.23.22h0a1.09,1.09,0,0,0,.63.44l0,0a9.39,9.39,0,0,0,4.6,1.49,6.13,6.13,0,0,0,4.33-.67l0,0c.59-.14.77.46,1.18.65l.16.13A5.91,5.91,0,0,0,198,48.89v0a1,1,0,0,0,.63.43v0a1,1,0,0,0,.68.41c2.15.41,2.84,2,3.3,3.88a55.36,55.36,0,0,0,1.61,6.73c.12.32.19.79.5.84s.42-.45.57-.73h0l.22-.22v0a2.93,2.93,0,0,1,2.65-.23l0,0,0,0a.54.54,0,0,0,.54.21h0c0,.16.11.19.23.23l0,0,.23.23.19.19.23.22h0C209.77,61.38,209.91,61.83,210.32,62.08ZM199.71,77.35c.1,0,.31-.06.2-.21s-.22,0-.3.11-.12.13-.11.14S199.65,77.41,199.71,77.35Zm-4-18h0c-.45-.64-.87-.41-1.17.11a2.11,2.11,0,0,0,.07,2.13c.32.63.89.67,1.24.06A1.74,1.74,0,0,0,195.76,59.31Zm-2.83-3.88c-.41,0-.49.35-.67.65a13,13,0,0,1,7.35.57,4.33,4.33,0,0,0-3.49-2,3.34,3.34,0,0,0-3.19.81Zm-5.09,25.76c1.46,1.94,4.43,2.24,6.15,1.64,2.45-.86,3.82-2.94,5.16-5A26.77,26.77,0,0,1,194,80.63,15.44,15.44,0,0,1,187.84,81.19ZM181,56.35l5.5-.31c.19,0,.44.1.53-.17s-.08-.45-.28-.6a1.46,1.46,0,0,0-.87-.25,14.54,14.54,0,0,0-3.16.24A2.3,2.3,0,0,0,181,56.35Zm8.37,11c-1.19-2.64-.53-5.39-.55-8.09A11.65,11.65,0,0,0,189.37,67.36Zm-6-6.59c.09.67.1,1.55.93,1.6s.89-.77.91-1.38-.08-1.54-.92-1.59S183.45,60.15,183.35,60.77Zm4,10.69c2.19.16,4.41,1,6.46-.5C191.72,72,189.52,71.42,187.37,71.46Z"/><path class="cls-15" d="M205.26,83.28c0-2.08-.57-4.13-.41-6.22,12.55,0,25.09,0,37.64,0,3,0,6,.2,8.94.16.66,0,.81.26.81.86q0,14.53,0,29.07c0,.64-.23.82-.84.81-1.72,0-3.44,0-5.16,0a1,1,0,0,1-.62-1.13c.06-.68,0-1.38,0-2.06s-.22-.72-.74-.72c-2.33,0-4.67,0-7,0-.53,0-.74.19-.73.73,0,1.06,0,2.12,0,3.19-.89,0-1.78,0-2.67,0a1,1,0,0,1-1.17-.86A37.81,37.81,0,0,0,228,97a27,27,0,0,0-11.2-8.73c-2.16-.94-4.31-1.91-6.43-3a.48.48,0,0,0-.44-.21C208.4,84.5,206.61,84.46,205.26,83.28Zm34.21,7.24v1.79a9.57,9.57,0,0,0-2,3.1c-.22.45,0,.63.45.63h7.31c.36,0,.69-.13.47-.54-.55-1-.78-2.21-1.76-3,0-.84,0-1.67,0-2.51a19,19,0,0,0-4.26-.2c-.06,0-.13.13-.2.2Zm2,5.91h0c-1.17,0-2.33,0-3.49,0-.62,0-.66.2-.66.68,0,2,0,4,0,6,0,.65.23.82.84.81q3.33,0,6.68,0c.57,0,.78-.17.77-.77q0-3,0-6.06c0-.47-.09-.64-.63-.62C243.84,96.47,242.67,96.43,241.51,96.43Z"/><path class="cls-12" d="M209.31,60.8l-.19-.19-.23-.23,0,0-.23-.23h0c-.12-.23-.33-.22-.54-.21l0,0,0,0a1.56,1.56,0,0,0-2.65.23v0l-.22.22h0c-.6.19-.72-.16-.87-.65-.74-2.35-1-4.8-1.77-7.15s-1.63-3.09-4-3.33v0c0-.49-.28-.49-.63-.43v0a1.4,1.4,0,0,0-1.46-1.07l-.16-.13c0-.48-.26-.72-.62-.91s-.6-.31-.56.26l0,0a2.4,2.4,0,0,0-.6,0,10.37,10.37,0,0,1-5.22.05,18,18,0,0,0-3.11-.88l0,0c0-.48-.3-.47-.63-.44h0l-.23-.22h-.18c-.64-.25-.92.06-1,.66v0c-.74-.06-1.08.3-1.06,1h0c-.31,0-.46.11-.42.42l-.35.41c-.6,0-.74.32-.67.84h0c-.75,0-.68.53-.64,1l0,0c-.84.38-.6,1.36-1.16,2.12a4.77,4.77,0,0,1,.47-2.3,2.64,2.64,0,0,0-.3-3.33,1.44,1.44,0,0,1-.31-.75c-.45-1.87.31-3.49,1.09-5.09.16-.33.48-.6.35-1l.16-.17a.25.25,0,0,0,.25-.24l0,0c.5.07.86,0,.83-.64h0c.73-.06,1.47-.16,2.2-.16,1.37,0,1.85-.47,2-2a.11.11,0,0,1,.1-.09c.27.28.52.08.74-.06a6.26,6.26,0,0,1,4.81-.8,30.44,30.44,0,0,0,6.94.93,8.09,8.09,0,0,1,5.11,1.54,1,1,0,0,0,.88.21l0,0a.25.25,0,0,0,.24.23l.38.35a.27.27,0,0,0,.24.27l0,0c0,.22,0,.43.28.28a.09.09,0,0,1,.07.09c0,.63.11,1.21.91,1.29h0a25.51,25.51,0,0,0,2.09,5.39c2.32,4.72,3.42,9.44,1.21,14.5-.27.61-.52.81-1.11.58h0Z"/><path class="cls-7" d="M187.89,87.39l.22.16c.13.75.71.64,1.24.65h0c.17.71.72.63,1.25.62h0A.38.38,0,0,0,191,89h0a1.1,1.1,0,0,0,.78.43,15.43,15.43,0,0,0,7.48-.54.79.79,0,0,0,.59-.52h0a1.5,1.5,0,0,0,1.65-.83h0a.37.37,0,0,0,.42-.21h0c.37,0,.65,0,.61-.48a2.65,2.65,0,0,1,1-.75l.29-.21h0l.21-.21h0c.46,0,.69.12.54.68-.37,1.31-.66,2.64-1,4-.09.33-.28.64.05.94L203,93c-.55.25-.51.74-.49,1.23h0a1.76,1.76,0,0,0-.42,1.44h0c-.22.11-.24.24,0,.4l-.13.22c-.21.06-.25.22-.25.41h0c-.26.14-.22.39-.2.62h0c-.2.09-.22.27-.21.46a.38.38,0,0,1,0,.15c-.56.08-.39.5-.4.84h0a2.19,2.19,0,0,0-.83,1.85h0a1.51,1.51,0,0,0-.53.85c-.63,1.76-1.23,3.53-1.85,5.29a2.34,2.34,0,0,0-.09.91,1,1,0,0,1,0,.16,2.49,2.49,0,0,0-.6,1.87h0c-.64.39-.63,1-.63,1.65h0a14.93,14.93,0,0,0-2.07,5.78h0c-.78.65-.54,1.8-1.18,2.57-.09-.11-.2-.17-.22-.25-1-3.81-2.29-7.56-3.17-11.42-.13-.58-.1-1.25-.65-1.67l0-.06c0-.26.09-.57-.27-.71l-.13-.42a.48.48,0,0,0,0-.82h0a18.06,18.06,0,0,0-1-5.15h0a11.56,11.56,0,0,0,0-1.32,77.79,77.79,0,0,1-.77-9.64c0-.67.28-.85.85-.82h0C187.74,87.49,187.8,87.51,187.89,87.39Z"/><path class="cls-5" d="M187.07,157.1l-12.8,0,.69-.54.21-.2c0-.05.12-.12.1-.14s-.15,0-.21,0l-.23.19a4,4,0,0,1-2.65.22,12.11,12.11,0,0,1,3.65-4.08c2.26-1.78,4.51-3.55,7.42-4.22a11.27,11.27,0,0,1,5.07,0,6.77,6.77,0,0,0,1.42.14H190c.65.05,1.29.11,1.94.14,1.68.07,1.76.06,1.95,1.67a33.71,33.71,0,0,1,.58,6.8l-.57.07h-6.79Zm-11.4-1.17s0-.05-.06-.05,0,0-.06.05,0,0,.06,0S175.65,156,175.67,155.93Z"/><path class="cls-6" d="M246.49,72.72l0,.24a2,2,0,0,1-1,.17c-2.26,0-4.52,0-6.79,0-.75,0-1.1-.14-1.09-1,.06-2.81,0-5.62,0-8.43,0-.82.14-1.64.22-2.45h0c.23-.16.19-.41.22-.64v0l.21-.44,1.65-2.4a13.67,13.67,0,0,1,4.73.16l.14.19.27.42.15.21.46.69.15.33.27.42h0c0,.23,0,.48.21.63h0c0,.23-.05.48.21.63h0C246.46,65.18,246.47,69,246.49,72.72Z"/><path class="cls-6" d="M222.12,73v-.42q0-3.06,0-6.14l.05-.25a13,13,0,0,0,7.82,0c.37.45.18,1,.19,1.47.05,1.8.05,3.6.07,5.4Z"/><path class="cls-3" d="M237.18,108c0-1.07,0-2.13,0-3.19,0-.54.2-.73.73-.73,2.33,0,4.67,0,7,0,.52,0,.76.18.74.72s0,1.38,0,2.06a1,1,0,0,0,.62,1.13Z"/><path class="cls-6" d="M172.21,157.1c.41.36.94.05,1.38.38H138.2l0-.42c10.14,0,20.27,0,30.41,0,1,0,1.14-.22,1-1.21-.25-2.62-.32-5.26-.46-7.9q-.43-8.68-.87-17.36c-.29-5.9-.54-11.79-.86-17.68a72.87,72.87,0,0,1-.23-8.62c.07.6.19,1.21.22,1.82.17,3.66.29,7.33.48,11,.3,5.79.65,11.57,1,17.36.18,3.35.31,6.71.48,10.07.2,4,.42,7.94.61,11.92,0,.44.17.61.61.59s.82,0,1.23,0Z"/><path class="cls-16" d="M144,59.39a.39.39,0,0,0,0,.18v4.09a.39.39,0,0,0,0,.18h-21V59.36Zm-10.62.37h-7.61c-2.6,0-2.55,0-2.61,2.56,0,1,.35,1.17,1.24,1.17,5.53,0,11.05,0,16.58,0,2.65,0,2.62,0,2.65-2.62,0-.83-.2-1.13-1.08-1.11C139.44,59.79,136.39,59.76,133.33,59.76Z"/><path class="cls-6" d="M191.51,148c1.5-.31,3-.6,4.49-.94,5.93-1.38,11.78-3.16,17.77-4.3,3.46-.67,6.85-1.69,10.36-2.1a50.87,50.87,0,0,1,5.66-.09.43.43,0,0,1,.44.35c-.68,0-1.33-.08-2-.1A39,39,0,0,0,219,142c-5.73,1.24-11.45,2.48-17.12,4-3.24.84-6.48,1.7-9.8,2.24a4.1,4.1,0,0,1-.5,0Z"/><path class="cls-11" d="M181.27,39.5c.13.43-.19.7-.35,1-.78,1.6-1.54,3.22-1.09,5.09a1.44,1.44,0,0,0,.31.75,2.64,2.64,0,0,1,.3,3.33A4.77,4.77,0,0,0,180,52c.56-.76.32-1.74,1.16-2.12-1,2.3-.7,4.69-.57,7.08,0,.41.25.95-.51.95-.34-.32-.1-.82-.34-1.17a14.32,14.32,0,0,1,.41-7.46l0,0,.27-.61h0c.18-.39.54-.77,0-1.19l0,0-.3-.31h0l-.42-.71,0-.06-.05,0-.06-.28v0C178.88,43.55,179.82,41.46,181.27,39.5Zm-1.22,14.1-.14-.05a.57.57,0,0,0-.06.28c0,.12-.12.35.14.31C180,54.14,180,53.79,180.05,53.6Zm.1,2.9a.6.6,0,0,0,0-.71A.72.72,0,0,0,180.15,56.5Z"/><path class="cls-11" d="M209.51,61c.59.23.84,0,1.11-.58,2.21-5.06,1.11-9.78-1.21-14.5a25.51,25.51,0,0,1-2.09-5.39A14.49,14.49,0,0,1,209,43.85h0l.87,2.16h0l.2.41v0l.4.76,0,.09.42.93,0,.06c.1.22.2.43.31.65l0,.06c1.12,3.35,1.53,6.72.28,10.13a.1.1,0,0,0,0,.13,2.56,2.56,0,0,0-.05.27l0,0c-.11.22-.21.44-.31.65l0,.08c-.13.33-.27.67-.4,1h0l-.3.65a.12.12,0,0,0-.1.09C209.91,61.83,209.77,61.38,209.51,61Z"/><path class="cls-6" d="M190,148.42h-.22a125.11,125.11,0,0,1,.57-14.35,60.31,60.31,0,0,1,2.08-11.16,6.86,6.86,0,0,1,.4-.93l.13.13c-.61,2.1-1.11,4.22-1.55,6.35a7.51,7.51,0,0,0-.19,1.82h0c-.25.11-.23.23,0,.38l.07.09c-.68,1-.51,2.12-.6,3.17-.3,3.26-.53,6.53-.54,9.81C190.09,145.28,190,146.85,190,148.42Z"/><path class="cls-16" d="M151.2,72.05c0-.08,0-.13-.1-.13,0-.55-.07-1.1-.1-1.65v0a14.85,14.85,0,0,0,3.33.16c2.18,0,4.36-.06,6.54-.1a3.92,3.92,0,0,1-.59,2,1.43,1.43,0,0,1,0-.51c.44-1.06-.06-1.2-1-1.18-2.35,0-4.7.17-7.05,0-.28,0-.66-.13-.81.26a1.18,1.18,0,0,0,.15,1c.24.47.67.4,1.08.4l7.6,0a1.21,1.21,0,0,0,0,.19,1,1,0,0,1-.68.17l-8.07-.09h-.06l-.05,0A.56.56,0,0,0,151.2,72.05Z"/><path class="cls-6" d="M210,85.12a.48.48,0,0,1,.44.21c.23,2.25.49,4.49.68,6.73a33.9,33.9,0,0,1,0,6c-.06.69-.34,1-1.12,1a10.22,10.22,0,0,0-2.9.14l.8,1.76A3,3,0,0,1,206.74,99c-.11-.4.27-.33.47-.31.92.11,1.81-.31,2.75,0,.68.19.81-.35.81-.87,0-2,.09-4,0-6C210.58,89.59,210.23,87.36,210,85.12Z"/><path class="cls-11" d="M205.25,38.09a1,1,0,0,1-.88-.21,8.09,8.09,0,0,0-5.11-1.54,30.44,30.44,0,0,1-6.94-.93,6.26,6.26,0,0,0-4.81.8c-.22.14-.47.34-.74.06,1.74-1.68,4-1.61,6-1.15,2.82.67,5.68.64,8.49,1.13A7.41,7.41,0,0,1,205.25,38.09Z"/><path class="cls-6" d="M180.31,103.51a40.34,40.34,0,0,0,3.14,7.12c1.69,3.29,3.17,6.68,5,9.9,0,0,0,.13,0,.28a1.89,1.89,0,0,1-.8-1c-2.47-5-5.1-9.86-7.27-15-.19-.45-.55-.91-.2-1.45Z"/><path class="cls-6" d="M218.35,121.05q1.76,9.78,3.49,19.55c-1.65-6.42-2.54-13-3.79-19.49Z"/><path class="cls-6" d="M182.37,85.3l.44-.48.15.31a29.88,29.88,0,0,0-2.69,8.35c-.26,1.41-.6,2.81-.94,4.2-.14.55-.07.79.57.86a26.7,26.7,0,0,0,3.47.39c.08.36-.21.48-.37.68l-.1-.1c0-.44-.34-.32-.59-.35-.75-.08-1.5-.14-2.24-.25-1.09-.16-1.24-.39-1-1.49C180,93.33,180.61,89.16,182.37,85.3Z"/><path class="cls-6" d="M189.08,106.31c.55.42.52,1.09.65,1.67.88,3.86,2.13,7.61,3.17,11.42,0,.08.13.14.22.25.64-.77.4-1.92,1.18-2.57a23.63,23.63,0,0,1-1.17,3.92,40.3,40.3,0,0,1-1.44-4.6c-.91-3-1.74-6-2.48-9.08A8.72,8.72,0,0,1,189.08,106.31Z"/><path class="cls-9" d="M139.69,107.78a5.2,5.2,0,0,1-1.07-3.86c.49.08,1,0,1.44.35-.09,0-.2.16-.26.14-1-.32-1.1.07-.81.89,0,.12,0,.28,0,.4.3,1.15.75,2,2.2,1.91a32.61,32.61,0,0,1,3.28,0c1.65,0,2.06-.39,2.16-2,0-.72,0-1.23-1-.93a7,7,0,0,1-1.73.09c-.27,0-.24-.17-.17-.34h.62c.14.17.27.16.41,0l2.24-.22a6.51,6.51,0,0,1-.79,3.67Z"/><path class="cls-6" d="M187.7,87.36c-.57,0-.88.15-.85.82a77.79,77.79,0,0,0,.77,9.64,11.56,11.56,0,0,1,0,1.32,15.93,15.93,0,0,1-.81-4.59c-.23-2.66-.34-5.33-.51-8A2.87,2.87,0,0,1,187.7,87.36Z"/><path class="cls-6" d="M203.55,91.3c-.33-.3-.14-.61-.05-.94.33-1.32.62-2.65,1-4,.15-.56-.08-.67-.54-.68l1.21-1.42c.18.42-.06.8-.15,1.19C204.54,87.43,204,89.36,203.55,91.3Z"/><path class="cls-6" d="M197.6,107.64a2.34,2.34,0,0,1,.09-.91c.62-1.76,1.22-3.53,1.85-5.29a1.51,1.51,0,0,1,.53-.85,19,19,0,0,1-1.29,4A11.54,11.54,0,0,1,197.6,107.64Z"/><path class="cls-6" d="M207.18,107.49c.52-1.06,1-2.16,1.57-3.17a1.49,1.49,0,0,0,.09-1.58l.13-.14a1.24,1.24,0,0,1,.14,1.81c-.7,1-1,2.25-1.79,3.22Z"/><path class="cls-6" d="M194.3,117.09a14.93,14.93,0,0,1,2.07-5.78A51.64,51.64,0,0,1,194.3,117.09Z"/><path class="cls-11" d="M186.67,36.36c-.14,1.49-.62,1.94-2,2-.73,0-1.47.1-2.2.16a2.94,2.94,0,0,1,2.56-.55c.56.11.74,0,.9-.51A2.13,2.13,0,0,1,186.67,36.36Z"/><path class="cls-6" d="M187.67,99.15a18.06,18.06,0,0,1,1,5.15A15.69,15.69,0,0,1,187.67,99.15Z"/><path class="cls-6" d="M203.1,114.14c.68-1.17,1.36-2.33,2.05-3.49l.25.15a19.49,19.49,0,0,1-2.14,3.48Z"/><path class="cls-10" d="M172.21,157.1l-.41-.07.38-.42a4,4,0,0,0,2.65-.22l.13.12-.69.54Z"/><path class="cls-6" d="M203.26,114.28a8.81,8.81,0,0,1-1.65,2.27l-.16-.14a13.56,13.56,0,0,1,1.65-2.27Z"/><path class="cls-6" d="M207.32,107.63a4,4,0,0,1-1.19,1.76,4.77,4.77,0,0,1,1.06-1.9Z"/><path class="cls-6" d="M195,125.43a3.61,3.61,0,0,1,1.33-1.7,4.84,4.84,0,0,1-1.18,1.85Z"/><path class="cls-6" d="M200.07,100.59a2.19,2.19,0,0,1,.83-1.85A3.24,3.24,0,0,1,200.07,100.59Z"/><path class="cls-6" d="M192.34,129.14a3.05,3.05,0,0,1,1.12-1.48,3.17,3.17,0,0,1-1,1.62Z"/><path class="cls-6" d="M193.57,127.55a1.45,1.45,0,0,1,.81-1.15A1.57,1.57,0,0,1,193.57,127.55Z"/><path class="cls-11" d="M207.33,40.55c-.8-.08-.9-.66-.91-1.29A4.5,4.5,0,0,1,207.33,40.55Z"/><path class="cls-6" d="M197,109.67a2.49,2.49,0,0,1,.6-1.87A2.82,2.82,0,0,1,197,109.67Z"/><path class="cls-6" d="M200,118.63a2.28,2.28,0,0,1,.81-1.24,1.07,1.07,0,0,1,.16.14,4.32,4.32,0,0,1-.82,1.24Z"/><path class="cls-6" d="M196.36,111.31c0-.62,0-1.26.63-1.65A3.51,3.51,0,0,1,196.36,111.31Z"/><path class="cls-3" d="M138.18,157.06l0,.42a1.56,1.56,0,0,1,.18.85c-.4-.33-.43-.83-.57-1.28Z"/><path class="cls-6" d="M201.61,116.55a2.18,2.18,0,0,1-.68,1,1.07,1.07,0,0,0-.16-.14,2.18,2.18,0,0,1,.68-1Z"/><path class="cls-11" d="M182.49,38.47c0,.62-.33.71-.83.64A1.56,1.56,0,0,1,182.49,38.47Z"/><path class="cls-6" d="M206,109.61a.79.79,0,0,1-.45.83A.76.76,0,0,1,206,109.61Z"/><path class="cls-6" d="M197.06,123a1.06,1.06,0,0,1-.66.76c-.05-.47.27-.67.51-.91Z"/><path class="cls-6" d="M196.91,122.8a2,2,0,0,1,.62-.83l.15.15a1.4,1.4,0,0,1-.62.83Z"/><path class="cls-6" d="M202.55,94.2c0-.49-.06-1,.49-1.23C202.91,93.39,203,93.89,202.55,94.2Z"/><path class="cls-6" d="M202.13,95.64a1.76,1.76,0,0,1,.42-1.44A2,2,0,0,1,202.13,95.64Z"/><path class="cls-6" d="M198.91,120.47a1.35,1.35,0,0,1-.6.82l-.16-.14a1.88,1.88,0,0,1,.62-.83Z"/><path class="cls-6" d="M208.84,102.74a1,1,0,0,1-.47-.93,1.08,1.08,0,0,1,.6.79Z"/><path class="cls-6" d="M191.76,129.82a1.15,1.15,0,0,1,.58-.68l.12.14a1.09,1.09,0,0,1-.55.66Z"/><path class="cls-6" d="M195.16,125.58c-.13.24-.2.56-.6.54-.05-.38.2-.54.45-.69Z"/><path class="cls-6" d="M191.91,129.94a2,2,0,0,1-.68.79l-.07-.09,0-.38h0l.58-.45Z"/><path class="cls-6" d="M200.9,98.74c0-.34-.16-.76.4-.84A1.14,1.14,0,0,1,200.9,98.74Z"/><path class="cls-6" d="M189.29,122.27a.7.7,0,0,1-.33-.66c.33,0,.4.28.47.52Z"/><path class="cls-6" d="M182.16,100.83a1.06,1.06,0,0,1-.41.62l-.13-.14a.84.84,0,0,1,.4-.6Z"/><path class="cls-6" d="M190.53,124.13l-.42-.62.16-.14a.87.87,0,0,1,.39.62Z"/><path class="cls-6" d="M181.38,101.91a.93.93,0,0,1-.4.61l-.15-.13a1,1,0,0,1,.42-.61Z"/><path class="cls-6" d="M190.11,123.51c-.15-.19-.51-.41-.22-.61s.28.28.38.47Z"/><path class="cls-6" d="M180.16,103.38a1,1,0,0,1,.41-.62l.15.13-.41.62Z"/><path class="cls-6" d="M200.11,118.77c-.14.21-.28.41-.41.62l-.15-.15a.9.9,0,0,1,.41-.61Z"/><path class="cls-6" d="M199.14,119.86a.89.89,0,0,1,.41-.62l.15.15-.42.62Z"/><path class="cls-6" d="M198.77,120.32l.37-.46.14.15c-.12.15-.24.31-.37.46Z"/><path class="cls-6" d="M189.43,122.13c.14.12.41.28.22.44s-.28-.14-.36-.3Z"/><path class="cls-6" d="M191.28,124.89l-.12.11-.14-.21s.12-.07.15-.05S191.25,124.84,191.28,124.89Z"/><path class="cls-6" d="M188.7,104.3a.48.48,0,0,1,0,.82Z"/><path class="cls-6" d="M182.27,100.33c0-.17.21-.41.31-.33s0,.32-.16.46Z"/><path class="cls-6" d="M190.66,124c.14.12.41.29.22.44s-.27-.15-.35-.3Z"/><path class="cls-6" d="M181.25,101.78l.37-.47.13.14a.75.75,0,0,1-.37.46Z"/><path class="cls-6" d="M197.53,122a.72.72,0,0,1,.36-.46,1.07,1.07,0,0,0,.16.14.76.76,0,0,1-.37.47Z"/><path class="cls-6" d="M188.53,121.14c.06,0,.13-.13.14-.12s.17.12.19.21,0,.23-.15.13S188.59,121.21,188.53,121.14Z"/><path class="cls-6" d="M208.27,101.39l-.08.2c-.07,0-.18-.08-.22-.15s.05-.14.08-.22Z"/><path class="cls-6" d="M188.84,105.54c.36.14.26.45.27.71C188.85,106.08,188.92,105.78,188.84,105.54Z"/><path class="cls-6" d="M201.52,97.29c0-.23-.06-.48.2-.62A.53.53,0,0,1,201.52,97.29Z"/><path class="cls-6" d="M180.57,102.76l.26-.37.15.13-.26.37Z"/><path class="cls-6" d="M198.31,121.29l-.26.36a1.07,1.07,0,0,1-.16-.14l.26-.36Z"/><path class="cls-6" d="M202.1,96c-.2-.16-.18-.29,0-.4C202.13,95.77,202.11,95.9,202.1,96Z"/><path class="cls-6" d="M201.31,97.75c0-.19,0-.37.21-.46A.45.45,0,0,1,201.31,97.75Z"/><path class="cls-6" d="M201.72,96.67c0-.19,0-.35.25-.41C201.93,96.42,201.94,96.62,201.72,96.67Z"/><path class="cls-11" d="M206.35,39.17c-.33.15-.31-.06-.28-.28Z"/><path class="cls-6" d="M182.42,100.46l-.26.37-.14-.12.25-.38Z"/><path class="cls-6" d="M183,99.61l-.19.1.09-.2Z"/><path class="cls-11" d="M205.47,38.3a.25.25,0,0,1-.24-.23Z"/><path class="cls-11" d="M206.09,38.92a.27.27,0,0,1-.24-.27Z"/><path class="cls-11" d="M181.68,39.09a.25.25,0,0,1-.25.24Z"/><path class="cls-6" d="M192.79,122l.2-.09a1.87,1.87,0,0,0-.07.22Z"/><path class="cls-15" d="M150,168.42c9.27,0,18.55.05,27.83,0,12.92-.14,25.83-.14,38.75-.15l1.24,0c-.21.65-.76.36-1.14.36q-20.65,0-41.3,0H151.13C150.74,168.61,150.3,168.76,150,168.42Z"/><path class="cls-8" d="M86.2,65.74A11.2,11.2,0,0,1,84.11,71c-.54.75-.79.69-1.17-.18-.31-.71-.6-1.44-.89-2.17.69,0,.55.67.79,1s.25,1.08.76,1.1.71-.62.88-1c.49-1.12.88-2.28,1.29-3.43C85.86,66.08,85.82,65.77,86.2,65.74Z"/><path class="cls-8" d="M75.76,68.66c-1.75,2.94-.82,5.68.62,8.38a.4.4,0,0,1-.45-.17c-1.29-2.38-2.1-4.82-.89-7.49C75.18,69.06,75.23,68.6,75.76,68.66Z"/><path class="cls-8" d="M80.84,67.22a3.68,3.68,0,0,0-4.4.66c0-.06-.08-.14-.07-.19.55-1.27,3.52-1.72,4.45-.67C80.86,67.06,80.83,67.15,80.84,67.22Z"/><path class="cls-8" d="M77,77.87,79,80A2.77,2.77,0,0,1,77,77.87Z"/><path class="cls-8" d="M88.13,64.31a6.91,6.91,0,0,1-1.9,1.26A1.82,1.82,0,0,1,88.13,64.31Z"/><path class="cls-8" d="M79.87,80.52a4.52,4.52,0,0,1,1.46,1A1.28,1.28,0,0,1,79.87,80.52Z"/><path class="cls-8" d="M89.16,63.09a2.69,2.69,0,0,1-.86,1.06C88.26,63.54,88.46,63.11,89.16,63.09Z"/><path class="cls-8" d="M77.83,100.82a3.9,3.9,0,0,1-.66,1.24C77.12,101.5,77.06,100.94,77.83,100.82Z"/><path class="cls-8" d="M76.36,77l.62.85C76.38,77.88,76.28,77.52,76.36,77Z"/><path class="cls-8" d="M76.4,67.91l-.66.76C75.7,68.2,75.69,67.74,76.4,67.91Z"/><path class="cls-8" d="M81.47,67.83l-.65-.63C81.33,67.12,81.53,67.34,81.47,67.83Z"/><path class="cls-8" d="M79.22,80.15a.86.86,0,0,1,.65.39C79.54,80.61,79.24,80.61,79.22,80.15Z"/><path class="cls-8" d="M82.07,68.67,81.63,68C82.12,68,82.12,68.32,82.07,68.67Z"/><path class="cls-8" d="M79,79.94l.22.22Z"/><path class="cls-8" d="M89.31,62.85l-.18.25Z"/><path class="cls-10" d="M133.24,159.1c0,.14,0,.3,0,.41,1.46,2.5.82,5.1.28,7.66-.5,2.36-.56,2.34-3,2.69s-5,.95-7.6,1.08c.14-3.17.31-6.33.4-9.5,0-1.94.3-3.86.43-5.79a13.71,13.71,0,0,1,7.35,2l.25.22h0a.44.44,0,0,0,.43.22h0l.22.22,0,0c.09.19.26.21.43.22l.19.13c0,.22.21.27.4.29Z"/><path class="cls-7" d="M140.1,167.74c-.07.29-.06.66-.5.65a45,45,0,0,1-5.92-.16,39.61,39.61,0,0,0,.8-5.53,6,6,0,0,0-1.08-3.56,10.44,10.44,0,0,1,1.28-2.1l1,0,.25.2,0,0c0,.19,0,.37.21.45v0c0,.24-.07.5.21.63h0c0,.19,0,.36.22.42h0c0,.24-.07.51.23.63h0c0,.41-.1.86.44,1h0c0,.62,0,1.27.64,1.63,0,.25-.1.49.17.65,0,.18,0,.35.24.38,0,.42-.15.86.41,1,0,.42-.14.85.41,1,0,.42-.12.86.41,1h0c0,.24-.07.5.22.64v0c0,.41-.11.86.44,1Z"/><path class="cls-10" d="M133.84,144.78c-.33-2.55.3-5.19-1-7.74C134.12,137.85,134.23,141.87,133.84,144.78Z"/><path class="cls-11" d="M127.42,143.21l1.52-3.43c.2,1.59-.78,2.51-1.37,3.58Z"/><path class="cls-14" d="M135.71,157.07l-1,0c.29-.46.57-.93.85-1.39l.36,1.41Z"/><path class="cls-11" d="M126.82,144.26a2.41,2.41,0,0,1,.6-1l.15.15c-.19.34-.39.68-.59,1Z"/><path class="cls-9" d="M133,158.93c-.19,0-.35-.07-.4-.29C132.76,158.73,132.89,158.83,133,158.93Z"/><path class="cls-9" d="M132.43,158.51c-.17,0-.34,0-.43-.22Z"/><path class="cls-9" d="M131.81,158.1a.44.44,0,0,1-.43-.22A.49.49,0,0,1,131.81,158.1Z"/><path class="cls-9" d="M131.4,157.89l-.25-.22Z"/><path class="cls-9" d="M132,158.31l-.22-.22Z"/><path class="cls-7" d="M187.49,157.1h6.37a23.16,23.16,0,0,1-4.78.16A2.37,2.37,0,0,1,187.49,157.1Z"/><path class="cls-13" d="M141.91,168.42c-.25.93-.73.68-1.24.23a5.89,5.89,0,0,0-1.39-3.22l0-.05a.71.71,0,0,0,0-.68c-.47-1.2-.93-2.41-1.42-3.6-.05-.13-.25-.19-.39-.29h0c.19-1-.45-1.76-.74-2.61a3.63,3.63,0,0,1-.14-2.64,17.62,17.62,0,0,1,1.29,2.85c.13.27.12.63.53.66v0c0,.64-.09,1.3.64,1.65h0c-.08.43-.13.86.38,1.08a.09.09,0,0,1,0,.13c-.05.38-.05.75.43.88h0c0,.25-.09.52.25.62l0,0a2.08,2.08,0,0,0,.84,2.07h0c-.06.43-.16.87.42,1.05l0,0c0,.64-.1,1.32.66,1.65h0Z"/><path class="cls-3" d="M137.82,162c-.67-.36-.62-1-.64-1.63l.33.46h0l.33,1.16Z"/><path class="cls-3" d="M138.35,158.32a1.17,1.17,0,0,1,.43,1.25h0l-.32-.49v0Z"/><path class="cls-3" d="M137.2,160.36c-.54-.18-.45-.63-.44-1A1.61,1.61,0,0,1,137.2,160.36Z"/><path class="cls-13" d="M136,155.78c0,.05.08.11.08.16a.42.42,0,0,1-.09.14.34.34,0,0,1-.07-.15C136,155.88,136,155.83,136,155.78Z"/><path class="cls-3" d="M136.78,159.33c-.3-.12-.22-.39-.23-.63C136.78,158.86,136.77,159.1,136.78,159.33Z"/><path class="cls-3" d="M136.35,158.3c-.28-.13-.21-.39-.21-.63A.62.62,0,0,1,136.35,158.3Z"/><path class="cls-3" d="M136.57,158.71c-.22-.06-.24-.23-.22-.42C136.6,158.34,136.54,158.55,136.57,158.71Z"/><path class="cls-3" d="M136.15,157.69c-.22-.08-.22-.26-.21-.45C136.15,157.33,136.13,157.52,136.15,157.69Z"/><path class="cls-3" d="M135.71,157.07h.18l.07.21Z"/><path class="cls-3" d="M140.45,163.88a5.24,5.24,0,0,1,1.21,3.12h0l-.32-.5,0,0a2,2,0,0,0-.42-1.05h0c-.17-.53-.33-1.06-.5-1.59Z"/><path class="cls-3" d="M139.8,162.26c.67.36.61,1,.65,1.62h0l-.34-.48,0,0c0-.22,0-.46-.25-.62h0c0-.18-.07-.37-.11-.55Z"/><path class="cls-3" d="M139.46,161.94a.09.09,0,0,0,0-.13l0-.6h0c.51.22.45.64.39,1.06h0Z"/><path class="cls-3" d="M139,160a1.25,1.25,0,0,1,.41,1.23h0l-.33-.48h0c-.06-.23-.13-.45-.19-.68Z"/><path class="cls-3" d="M138.78,159.57c.2.06.23.22.22.4l-.11.09-.13-.48Z"/><path class="cls-3" d="M139.46,166.13c-.53-.19-.45-.63-.41-1h0l.24.31,0,.05Z"/><path class="cls-3" d="M140.09,167.78c-.55-.18-.45-.63-.44-1A1.61,1.61,0,0,1,140.09,167.78Z"/><path class="cls-3" d="M139.66,166.76c-.29-.14-.22-.4-.22-.64C139.67,166.28,139.65,166.52,139.66,166.76Z"/><path class="cls-12" d="M141.91,168.42l.06-.27.11.27h-.17Z"/><path class="cls-12" d="M141.32,166.51l.32.5.34,1.15C141.22,167.83,141.33,167.15,141.32,166.51Z"/><path class="cls-1" d="M144,59.39l-21,0c0-2.6,0-5.21,0-7.82,0-.76.14-1.08,1-1.08,6.38,0,12.77,0,19.15,0,.76,0,1,.1,1,1C143.88,54.13,144,56.76,144,59.39Z"/><path class="cls-1" d="M160.86,70.36c-2.18,0-4.36.1-6.54.1A14.85,14.85,0,0,1,151,70.3q0-3.27,0-6.54a64.52,64.52,0,0,0,9.83-.19C160.84,65.83,160.85,68.1,160.86,70.36Z"/><path class="cls-17" d="M151.2,61a4,4,0,0,1,1.55-1.89,4.67,4.67,0,0,1,2.65-.39,20.42,20.42,0,0,0,3,0,5.35,5.35,0,0,1,2.21,3.13c-.14.84-.31,1.6-1.43,1.59-2.42,0-4.85,0-7.27,0-.46,0-.53-.27-.57-.66C151.32,62.21,151.58,61.58,151.2,61Z"/><path class="cls-16" d="M158.43,58.72a20.42,20.42,0,0,1-3,0,4.67,4.67,0,0,0-2.65.39c.83-.61.5-1.51.48-2.27s.21-1.17,1.08-1.1c1.16.08,2.33.08,3.49.06.5,0,.68.17.66.64C158.44,57.22,158.44,58,158.43,58.72Z"/><path class="cls-16" d="M151.2,61c.38.56.12,1.19.17,1.78,0,.39.11.67.57.66,2.42,0,4.85,0,7.27,0,1.12,0,1.29-.75,1.43-1.59l.12.59s0,.05,0,.07a.94.94,0,0,0,.06.15c0,.3,0,.61.05.91a64.52,64.52,0,0,1-9.83.19A7.24,7.24,0,0,1,151.2,61Z"/><path class="cls-1" d="M180.12,49.28a14.32,14.32,0,0,0-.41,7.46.54.54,0,0,1-.07.19c0,.06-.13.25-.17,0a13.11,13.11,0,0,1-.38-4.45,8.34,8.34,0,0,1,.52-2.69C179.74,49.59,179.79,49.32,180.12,49.28Z"/><path class="cls-1" d="M144,63.66V59.57A9.56,9.56,0,0,1,144,63.66Z"/><path class="cls-1" d="M151,70.27c0,.55.06,1.1.1,1.65C150.53,71.4,150.68,70.84,151,70.27Z"/><path class="cls-1" d="M180.39,47.51c.49.42.13.8,0,1.19A1.74,1.74,0,0,1,180.39,47.51Z"/><path class="cls-1" d="M179.66,46.46l.42.71C179.58,47.15,179.65,46.79,179.66,46.46Z"/><path class="cls-1" d="M180.37,48.69l-.27.61C180.08,49.05,180,48.76,180.37,48.69Z"/><path class="cls-1" d="M151.2,72.05a.56.56,0,0,1,.21.59A.76.76,0,0,1,151.2,72.05Z"/><path class="cls-1" d="M180.07,47.16l.3.31C180.1,47.53,180.08,47.35,180.07,47.16Z"/><path class="cls-1" d="M179.57,46.08l.06.28A.19.19,0,0,1,179.57,46.08Z"/><path class="cls-17" d="M160.79,62.66a.94.94,0,0,1-.06-.15s0,0,0-.07Z"/><path class="cls-3" d="M120.89,105.71c-.62.06-1.24,0-1.33-.77a9.75,9.75,0,0,1-.2-3.23c.25-1.18-.19-2.3-.16-3.47a62.87,62.87,0,0,0,0-6.44c-.2-2.86,1-3.29,3.3-3.36s4.94,0,7.41,0c.72,0,1.37-.36,2.13-.12,1.32.41,1.63.76,1.65,2.15q0,4.47.13,8.94a16.93,16.93,0,0,1-.35,3.56,1.43,1.43,0,0,0,0,.71,1.51,1.51,0,0,1-1.13,2.24c-.29-.21-.54-.31-.44-.85.24-1.24-.07-2.51.22-3.79.25-1.09-.73-2.22-.05-3.43a1.89,1.89,0,0,0-.33-1.45.62.62,0,0,1-.06-.77,2.59,2.59,0,0,0,.24-2.18,6.45,6.45,0,0,1,.09-2.11c.31-2,.31-2.06-1.69-2.28-1.26-.14-1.68.18-1.62,1.45a31.78,31.78,0,0,1,.1,4.15,19.18,19.18,0,0,0-.05,2.94c.09,1.19.44,2.33,0,3.53-.13.35.13.8.34,1.15.11.18.33.41.17.55-1,.9-.39,2.06-.54,3.09h-4.56v-.4c.71-.38.41-1,.31-1.53s-.38-1.17,0-1.83a1.7,1.7,0,0,0,0-1.31c-.35-.79-.87-1.36,0-2.35A2,2,0,0,0,124.1,96a.33.33,0,0,1,0-.53c.59-.51.47-1.2.41-1.83a12.26,12.26,0,0,1,0-2c.18-2.06-.18-2.38-2.21-2.36h-.1c-1-.09-1.38.31-1.36,1.3,0,1.28.42,2.54,0,3.84a1.13,1.13,0,0,0,.38,1.39c.21.14.09.31,0,.51a1.83,1.83,0,0,0,.31,2.6c.29.3.56.65.12.94a1.79,1.79,0,0,0-.81,1.55,1.84,1.84,0,0,0,1.06,1.81c-1.09,0-1.07.47-1,1S120.89,105.2,120.89,105.71Z"/><path class="cls-1" d="M147,104.12l-2.24.22h-1l-3.7-.09c-.42-.38-.95-.27-1.44-.35,0-2.08,0-4.15,0-6.22a31.57,31.57,0,0,0,8.41-.06Z"/><path class="cls-7" d="M120.89,105.71c0-.51,0-1,0-1.54s0-1,1-1a1.84,1.84,0,0,1-1.06-1.81,1.79,1.79,0,0,1,.81-1.55c.44-.29.17-.64-.12-.94a1.83,1.83,0,0,1-.31-2.6c.13-.2.25-.37,0-.51a1.13,1.13,0,0,1-.38-1.39c.38-1.3,0-2.56,0-3.84,0-1,.4-1.39,1.36-1.3h.1c2,0,2.39.3,2.21,2.36a12.26,12.26,0,0,0,0,2c.06.63.18,1.32-.41,1.83a.33.33,0,0,0,0,.53,2,2,0,0,1,.37,2.53c-.82,1-.3,1.56,0,2.35a1.7,1.7,0,0,1,0,1.31c-.41.66-.16,1.21,0,1.83s.4,1.15-.31,1.53c-.07-.48.14-1-.17-1.44-.54-.83-1.36-.39-2-.34s-.25.68-.3,1a5.72,5.72,0,0,0,0,.92h-.44Zm1.89-10.47c.66.05,1.25.12,1.18-.87s-.26-1.19-1.51-1.2c-.9,0-.68.63-.75,1.14C121.57,95.23,122.09,95.34,122.78,95.24Zm.1,1.43c-.67,0-1.23-.15-1.22.85s.36,1.1,1.15,1c.63,0,1.19.1,1.18-.9S123.63,96.52,122.88,96.67Zm-.26-4.31c.71,0,1.37.21,1.36-.84s-.41-1.08-1.18-1.06-1.16,0-1.15.93S122,92.46,122.62,92.36Zm.33,8.21c-.64,0-1.23-.08-1.22.81s.45,1.1,1.3,1.08.92-.31.94-1S123.6,100.45,123,100.57Z"/><path class="cls-7" d="M128.72,105.92c.15-1-.45-2.19.54-3.09.16-.14-.06-.37-.17-.55-.21-.35-.47-.8-.34-1.15.47-1.2.12-2.34,0-3.53a19.18,19.18,0,0,1,.05-2.94,31.78,31.78,0,0,0-.1-4.15c-.06-1.27.36-1.59,1.62-1.45,2,.22,2,.25,1.69,2.28a6.45,6.45,0,0,0-.09,2.11,2.59,2.59,0,0,1-.24,2.18.62.62,0,0,0,.06.77,1.89,1.89,0,0,1,.33,1.45c-.68,1.21.3,2.34.05,3.43-.29,1.28,0,2.55-.22,3.79-.1.54.15.64.44.85Zm1.61-12.68c-.18.13-.89-.47-1,.36-.1,1.29.16,1.6,1.13,1.64.69,0,1.17,0,1.14-.94S131.47,93,130.33,93.24Zm.42-3.41c-.73.06-1.42-.19-1.41.78s.29,1.24,1.39,1.32c.92.07.83-.48.89-1.08C131.7,90,131.36,89.72,130.75,89.83ZM130.47,102c.74.12,1.12,0,1.15-.92.06-1.54-1.14-.8-1.74-1.06s-.56.29-.56.69C129.33,101.5,129.35,102.26,130.47,102Zm0,3.29c.75.14,1.14,0,1.15-1s-.47-.86-1.08-.86-1.23,0-1.25,1S129.81,105.37,130.48,105.3Zm.11-6.81c.8.22,1-.13,1-.94.06-1.17-.76-1-1.41-1.07-.82-.13-.69.46-.73,1C129.42,98.25,129.65,98.72,130.59,98.49Z"/><path class="cls-10" d="M146.28,95.41l.17.17c0,.21,0,.41.08.61.27,1.18.18,1.13-1,1.34a32.08,32.08,0,0,1-5,0c-1.5,0-1.51,0-1.51-1.48v0l.22-.24.4-.38a.89.89,0,0,0,.83-.65l0,0a3.58,3.58,0,0,1,2-.41c.95,0,1.91,0,2.86,0h0l.22.23v0c0,.29.14.44.43.43h0A.37.37,0,0,0,146.28,95.41Z"/><path class="cls-16" d="M140.69,94.18a5.82,5.82,0,0,1-.22-2.7c.14-.2.34-.18.54-.18,1.13,0,2.25,0,3.37,0,.49,0,.69.16.65.65a8,8,0,0,1-.1,2.12Z"/><path class="cls-9" d="M139,96c0,1.47,0,1.5,1.51,1.48a32.08,32.08,0,0,0,5,0c1.2-.21,1.29-.16,1-1.34,0-.2-.05-.4-.08-.61.76.53.4,1.37.57,2.06a31.57,31.57,0,0,1-8.41.06C138.7,97.13,138.33,96.45,139,96Z"/><path class="cls-9" d="M140.69,94.18l4.24-.11.3.31c-.95,0-1.91,0-2.86,0a3.58,3.58,0,0,0-2,.41C140.3,94.49,140.63,94.4,140.69,94.18Z"/><path class="cls-6" d="M121.29,105.73h.44l.6,0c1.58,0,1.58,0,1.66-1.51a.34.34,0,0,1,0-.1c.31.45.1,1,.17,1.44v.4C123.2,105.88,122.22,106.19,121.29,105.73Z"/><path class="cls-9" d="M140.44,94.77a.89.89,0,0,1-.83.65C139.87,95.19,140,94.77,140.44,94.77Z"/><path class="cls-9" d="M145.85,95c-.29,0-.43-.14-.43-.43C145.56,94.72,145.7,94.86,145.85,95Z"/><path class="cls-9" d="M146.28,95.41a.37.37,0,0,1-.45-.42Z"/><path class="cls-9" d="M139.21,95.8,139,96Z"/><path class="cls-9" d="M145.43,94.6l-.22-.23Z"/><path class="cls-1" d="M229.94,66.1a13,13,0,0,1-7.82,0l0-7c2.44.09,4.88.08,7.32,0,.28.08.55,0,.53.54C229.93,61.78,230,63.94,229.94,66.1Z"/><path class="cls-6" d="M222.18,58.78a20.08,20.08,0,0,1,.17-5l7,.06c0,.33.4.45.39.81,0,1.19,0,2.38,0,3.58,0,.39-.22.5-.58.55A29.35,29.35,0,0,1,222.18,58.78Z"/><path class="cls-1" d="M244.6,57.92a13.67,13.67,0,0,0-4.73-.16c0-.75,0-1.51,0-2.25s.25-.95,1-.92c1.21.06,2.43,0,3.64,0,.31,0,.64.19.46.48C244.36,56,244.72,57,244.6,57.92Z"/><path class="cls-1" d="M211.47,59.16c1.25-3.41.84-6.78-.28-10.13a.44.44,0,0,1,.39.29,13.81,13.81,0,0,1,.4,9.38C211.91,58.93,211.89,59.29,211.47,59.16Z"/><path class="cls-1" d="M246.49,72.72c0-3.77,0-7.54-.05-11.31a12.61,12.61,0,0,1,.38,5c-.2,1.74-.08,3.47-.16,5.2C246.64,72,246.79,72.4,246.49,72.72Z"/><path class="cls-16" d="M222.18,58.78a29.35,29.35,0,0,0,7,0c.36,0,.58-.16.58-.55,0-1.2,0-2.39,0-3.58,0-.36-.38-.48-.39-.81l.36,0c.44,1.64.15,3.31.19,5,0,.24-.32.2-.45.35-2.45.09-4.89.1-7.33,0Z"/><path class="cls-1" d="M229.74,53.77l-.36,0-7-.06c.31-.32.71-.18,1.07-.18,1.79,0,3.57,0,5.35,0C229.1,53.58,229.47,53.46,229.74,53.77Z"/><path class="cls-1" d="M222.07,66.39q0,3.08,0,6.14a3.31,3.31,0,0,1-.17-2A18,18,0,0,1,222.07,66.39Z"/><path class="cls-1" d="M209.87,46,209,43.86C209.91,44.33,209.93,45.15,209.87,46Z"/><path class="cls-1" d="M210.69,61.35c.13-.34.27-.68.4-1C211.22,60.78,211.33,61.22,210.69,61.35Z"/><path class="cls-1" d="M210.88,48.26l-.42-.93C211.25,47.34,211,47.86,210.88,48.26Z"/><path class="cls-1" d="M210.44,47.24l-.4-.76C210.64,46.49,210.62,46.83,210.44,47.24Z"/><path class="cls-1" d="M245.62,59.43l-.46-.69C245.65,58.74,245.64,59.08,245.62,59.43Z"/><path class="cls-1" d="M246.24,60.8c-.23-.15-.2-.4-.21-.63C246.29,60.32,246.24,60.57,246.24,60.8Z"/><path class="cls-1" d="M238,60.58c0,.23,0,.48-.22.64C237.8,61,237.76,60.73,238,60.58Z"/><path class="cls-1" d="M246.45,61.42c-.26-.15-.2-.4-.21-.63C246.49,60.94,246.45,61.18,246.45,61.42Z"/><path class="cls-1" d="M210.42,62l.3-.65C210.77,61.63,210.82,61.91,210.42,62Z"/><path class="cls-1" d="M211.06,60.26c.1-.21.2-.43.31-.65C211.35,59.87,211.54,60.22,211.06,60.26Z"/><path class="cls-1" d="M211.17,49c-.11-.22-.21-.43-.31-.65C211.32,48.36,211.14,48.72,211.17,49Z"/><path class="cls-1" d="M246,60.18l-.27-.42A.37.37,0,0,1,246,60.18Z"/><path class="cls-1" d="M238.22,60.16l-.21.44A.43.43,0,0,1,238.22,60.16Z"/><path class="cls-1" d="M245,58.53l-.27-.42C245,58.17,245,58.34,245,58.53Z"/><path class="cls-1" d="M210,46.43l-.2-.41C210.13,46.05,210.14,46.21,210,46.43Z"/><path class="cls-1" d="M211.39,59.56a2.56,2.56,0,0,1,.05-.27C211.53,59.4,211.49,59.49,211.39,59.56Z"/><path class="cls-10" d="M187.84,81.19a15.44,15.44,0,0,0,6.15-.56,26.77,26.77,0,0,0,5.16-2.84c-1.34,2.1-2.71,4.18-5.16,5C192.27,83.43,189.3,83.13,187.84,81.19Z"/><path class="cls-11" d="M192.93,55.43a3.34,3.34,0,0,1,3.19-.81,4.33,4.33,0,0,1,3.49,2,13,13,0,0,0-7.35-.57c.18-.3.26-.64.67-.65a1,1,0,0,0,.87.19,9.81,9.81,0,0,1,4.6.23l.09.08-.08-.09a2.76,2.76,0,0,0-1.14-.62C195.78,54.57,194.36,55,192.93,55.43Z"/><path class="cls-11" d="M198.58,49.27c2.39.24,3.32,1.08,4,3.33s1,4.8,1.77,7.15c.15.49.27.84.87.65-.15.28-.17.79-.57.73s-.38-.52-.5-.84a55.36,55.36,0,0,1-1.61-6.73c-.46-1.91-1.15-3.47-3.3-3.88A1,1,0,0,1,198.58,49.27Z"/><path class="cls-11" d="M181,56.35a2.3,2.3,0,0,1,1.72-1.09,14.54,14.54,0,0,1,3.16-.24,1.46,1.46,0,0,1,.87.25c.2.15.37.34.28.6s-.34.15-.53.17Zm5.24-.81c-1.23,0-2.49-.34-3.68.23C183.79,55.74,185.05,56,186.24,55.54Z"/><path class="cls-4" d="M189.37,67.36a11.65,11.65,0,0,1-.55-8.09C188.84,62,188.18,64.72,189.37,67.36Z"/><path class="cls-11" d="M186.2,46.18a18,18,0,0,1,3.11.88,10.37,10.37,0,0,0,5.22-.05,2.4,2.4,0,0,1,.6,0,6.13,6.13,0,0,1-4.33.67A9.39,9.39,0,0,1,186.2,46.18Z"/><path class="cls-6" d="M199.84,88.39a.79.79,0,0,1-.59.52,15.43,15.43,0,0,1-7.48.54A1.1,1.1,0,0,1,191,89c1,.13,2,.33,3,.4C196,89.55,197.91,88.82,199.84,88.39Z"/><path class="cls-11" d="M183.35,60.77c.1-.62.15-1.42.92-1.37s.93.91.92,1.59-.19,1.42-.91,1.38S183.44,61.44,183.35,60.77Zm.41,0c.05.42,0,1.1.49,1.17s.55-.58.54-1,.08-1.08-.59-1.09C183.7,59.82,183.79,60.35,183.76,60.76Z"/><path class="cls-11" d="M195.76,59.31a1.74,1.74,0,0,1,.14,2.31c-.35.61-.92.57-1.24-.06a2.11,2.11,0,0,1-.07-2.13c.3-.52.72-.75,1.17-.11-1,.14-1.33.75-.91,1.8.08.22.1.49.44.45s.31-.21.42-.38C196.12,60.56,195.71,59.93,195.76,59.31Z"/><path class="cls-8" d="M187.37,71.46c2.15,0,4.35.5,6.46-.5C191.78,72.41,189.56,71.62,187.37,71.46Z"/><path class="cls-11" d="M205.44,60.2a1.56,1.56,0,0,1,2.65-.23A2.93,2.93,0,0,0,205.44,60.2Z"/><path class="cls-11" d="M196.49,47.82A1.4,1.4,0,0,1,198,48.89,5.91,5.91,0,0,1,196.49,47.82Z"/><path class="cls-11" d="M195.15,47c0-.57.28-.41.56-.26s.67.43.62.91C195.92,47.5,195.74,46.9,195.15,47Z"/><path class="cls-6" d="M201.48,87.57a1.5,1.5,0,0,1-1.65.83A5.82,5.82,0,0,1,201.48,87.57Z"/><path class="cls-11" d="M183.16,47.2c0-.72.32-1.08,1.06-1Z"/><path class="cls-11" d="M184.21,46.2c.07-.6.35-.91,1-.66Z"/><path class="cls-6" d="M189.35,88.2c-.53,0-1.11.1-1.24-.65Z"/><path class="cls-6" d="M190.59,88.81c-.53,0-1.08.09-1.25-.62A4,4,0,0,1,190.59,88.81Z"/><path class="cls-11" d="M181.11,49.9c0-.51-.11-1,.64-1Z"/><path class="cls-11" d="M181.73,48.87c-.07-.52.07-.86.67-.84Z"/><path class="cls-6" d="M202.5,86.88c0,.47-.24.52-.61.48A1.12,1.12,0,0,1,202.5,86.88Z"/><path class="cls-11" d="M185.59,45.76c.33,0,.65,0,.63.44A1.09,1.09,0,0,1,185.59,45.76Z"/><path class="cls-11" d="M198,48.87c.35-.06.66-.06.63.43A1,1,0,0,1,198,48.87Z"/><path class="cls-11" d="M182.75,47.62c0-.31.11-.45.42-.42Z"/><path class="cls-11" d="M208.18,60c.21,0,.42,0,.54.21A.54.54,0,0,1,208.18,60Z"/><path class="cls-10" d="M199.61,77.25c.08-.11.22-.23.3-.11s-.1.17-.2.21Z"/><path class="cls-6" d="M201.9,87.36a.37.37,0,0,1-.42.21C201.57,87.39,201.73,87.37,201.9,87.36Z"/><path class="cls-6" d="M191,89a.38.38,0,0,1-.42-.21C190.76,88.81,190.92,88.83,191,89Z"/><path class="cls-11" d="M185.38,45.55l.23.22Z"/><path class="cls-6" d="M187.89,87.39c-.09.12-.15.1-.19,0A.31.31,0,0,1,187.89,87.39Z"/><path class="cls-6" d="M203.76,85.92l-.29.21Z"/><path class="cls-6" d="M204,85.72l-.21.21Z"/><path class="cls-10" d="M199.71,77.35c-.06.06-.12.18-.21,0s.07-.09.11-.14Z"/><path class="cls-11" d="M209.31,60.8l.23.22Z"/><path class="cls-11" d="M208.89,60.38l.23.23Z"/><path class="cls-11" d="M208.69,60.18l.23.23C208.8,60.37,208.68,60.34,208.69,60.18Z"/><path class="cls-11" d="M205.22,60.4l.22-.22Z"/><path class="cls-6" d="M241.51,96.43c1.16,0,2.33,0,3.49,0,.54,0,.63.15.63.62q0,3,0,6.06c0,.6-.2.78-.77.77q-3.34,0-6.68,0c-.61,0-.85-.16-.84-.81,0-2,0-4,0-6,0-.48,0-.72.66-.68,1.16.07,2.32,0,3.49,0Z"/><path class="cls-3" d="M244,92.54c1,.75,1.21,2,1.76,3,.22.41-.11.54-.47.54H238c-.45,0-.67-.18-.45-.63a9.57,9.57,0,0,1,2-3.1.33.33,0,0,0,.16,0l.28.1h.73Z"/><path class="cls-6" d="M244,92.54l-3.35-.07a3.65,3.65,0,0,1-1.09-1.88s0,0-.07-.07,0-.33,0-.49h4.46C244,90.87,244,91.7,244,92.54Z"/><path class="cls-16" d="M243.94,90h-4.46c.07-.07.14-.21.2-.2A19,19,0,0,1,243.94,90Z"/><path class="cls-16" d="M239.47,90.52s.07,0,.07.07a3.65,3.65,0,0,0,1.09,1.88h-.73l-.28-.1a.33.33,0,0,1-.16,0Z"/><path class="cls-10" d="M175.17,156.31l-.21.2-.13-.12.23-.19Z"/><path class="cls-10" d="M175.06,156.2c.06-.07.13-.16.21,0s-.06.09-.1.14Z"/><path class="cls-10" d="M175.67,155.93s0,0-.06,0,0,0-.06,0,0-.05.06-.05S175.65,155.91,175.67,155.93Z"/><path class="cls-17" d="M133.33,59.76c3.06,0,6.11,0,9.17,0,.88,0,1.09.28,1.08,1.11,0,2.62,0,2.62-2.65,2.62-5.53,0-11.05,0-16.58,0-.89,0-1.27-.16-1.24-1.17.06-2.56,0-2.56,2.61-2.56Z"/><path class="cls-12" d="M180.05,53.6c0,.19,0,.54-.06.54-.26,0-.12-.19-.14-.31a.57.57,0,0,1,.06-.28Z"/><path class="cls-12" d="M180.15,56.5a.72.72,0,0,1,0-.71A.6.6,0,0,1,180.15,56.5Z"/><path class="cls-1" d="M191.19,130.26l0,.38C191,130.49,190.94,130.37,191.19,130.26Z"/><path class="cls-17" d="M160.27,72.35l-7.6,0c-.41,0-.84.07-1.08-.4a1.18,1.18,0,0,1-.15-1c.15-.39.53-.27.81-.26,2.35.15,4.7,0,7.05,0,.92,0,1.42.12,1,1.18a1.43,1.43,0,0,0,0,.51Z"/><path class="cls-10" d="M140.06,104.27l3.7.09c-.07.17-.1.34.17.34a7,7,0,0,0,1.73-.09c1-.3,1,.21,1,.93-.1,1.66-.51,2-2.16,2a32.61,32.61,0,0,0-3.28,0c-1.45.14-1.9-.76-2.2-1.91,0-.12,0-.28,0-.4-.29-.82-.14-1.21.81-.89C139.86,104.43,140,104.32,140.06,104.27Z"/><path class="cls-10" d="M144.38,104.35h.41C144.65,104.51,144.52,104.52,144.38,104.35Z"/><path class="cls-3" d="M138.65,164.05c-.57-.18-.46-.62-.42-1l0,0,.41,1Z"/><path class="cls-3" d="M139.05,165.08c-.55-.18-.46-.61-.41-1l0,0a2.53,2.53,0,0,1,.39,1Z"/><path class="cls-3" d="M138,162.63c-.27-.16-.22-.4-.17-.65h0l.27.56Z"/><path class="cls-3" d="M138.23,163c-.23,0-.24-.2-.24-.38l.12-.1.15.46Z"/><path class="cls-12" d="M138.26,163l-.15-.46-.27-.56-.33-1.16c.14.1.34.16.39.29.49,1.19.95,2.4,1.42,3.6a.71.71,0,0,1,0,.68l-.24-.31a2.53,2.53,0,0,0-.39-1Z"/><path class="cls-12" d="M140.1,163.41l.34.48c.17.53.33,1.06.5,1.59A2.08,2.08,0,0,1,140.1,163.41Z"/><path class="cls-12" d="M138.76,159.58l.13.48c.06.23.13.45.19.68-.73-.35-.65-1-.64-1.65Z"/><path class="cls-12" d="M139.07,160.73l.33.48,0,.6C138.94,161.59,139,161.16,139.07,160.73Z"/><path class="cls-12" d="M140.92,165.48a2,2,0,0,1,.42,1.05C140.76,166.35,140.86,165.91,140.92,165.48Z"/><path class="cls-12" d="M139.46,161.94l.32.33c0,.18.07.37.11.55C139.41,162.69,139.41,162.32,139.46,161.94Z"/><path class="cls-12" d="M139.87,162.81c.21.16.21.4.25.62C139.78,163.33,139.85,163.06,139.87,162.81Z"/><path class="cls-1" d="M124,104.09a.34.34,0,0,0,0,.1c-.08,1.51-.08,1.51-1.66,1.51l-.6,0a5.72,5.72,0,0,1,0-.92c0-.37-.21-1,.3-1S123.46,103.26,124,104.09Z"/><path class="cls-1" d="M122.78,95.24c-.69.1-1.21,0-1.08-.93.07-.51-.15-1.15.75-1.14,1.25,0,1.45.2,1.51,1.2S123.44,95.29,122.78,95.24Z"/><path class="cls-1" d="M122.88,96.67c.75-.15,1.1.07,1.11,1s-.55.86-1.18.9c-.79.06-1.14-.13-1.15-1S122.21,96.62,122.88,96.67Z"/><path class="cls-1" d="M122.62,92.36c-.61.1-1-.09-1-1s.49-.91,1.15-.93,1.18.13,1.18,1.06S123.33,92.32,122.62,92.36Z"/><path class="cls-1" d="M123,100.57c.65-.12,1,0,1,.87s-.13,1-.94,1-1.28-.21-1.3-1.08S122.31,100.53,123,100.57Z"/><path class="cls-1" d="M130.33,93.24c1.14-.28,1.3.2,1.32,1.06s-.45,1-1.14.94c-1,0-1.23-.35-1.13-1.64C129.44,92.77,130.15,93.37,130.33,93.24Z"/><path class="cls-1" d="M130.75,89.83c.61-.11.95.17.87,1-.06.6,0,1.15-.89,1.08-1.1-.08-1.38-.3-1.39-1.32S130,89.89,130.75,89.83Z"/><path class="cls-1" d="M130.47,102c-1.12.25-1.14-.51-1.15-1.29,0-.4,0-.91.56-.69s1.8-.48,1.74,1.06C131.59,102,131.21,102.13,130.47,102Z"/><path class="cls-1" d="M130.48,105.3c-.67.07-1.19.11-1.18-.87s.55-1,1.25-1,1.08,0,1.08.86S131.23,105.44,130.48,105.3Z"/><path class="cls-1" d="M130.59,98.49c-.94.23-1.17-.24-1.1-1,0-.51-.09-1.1.73-1,.65.1,1.47-.1,1.41,1.07C131.59,98.36,131.39,98.71,130.59,98.49Z"/><path class="cls-12" d="M192.93,55.43c1.43-.44,2.85-.86,4.34-.21a2.76,2.76,0,0,1,1.14.62h0a9.81,9.81,0,0,0-4.6-.23,1,1,0,0,1-.87-.19Z"/><path class="cls-12" d="M198.41,55.84l.08.09-.09-.08Z"/><path class="cls-12" d="M186.24,55.54c-1.19.49-2.45.2-3.68.23C183.75,55.2,185,55.52,186.24,55.54Z"/><path class="cls-12" d="M183.76,60.76c0-.41-.06-.94.44-.93.67,0,.59.64.59,1.09s0,1.08-.54,1S183.81,61.18,183.76,60.76Z"/><path class="cls-12" d="M195.76,59.31c0,.62.36,1.25,0,1.88-.11.17-.19.36-.42.38s-.36-.23-.44-.45c-.42-1-.11-1.66.91-1.8Z"/><path class="cls-6" d="M239.62,92.36l.28.1Z"/><path class="cls-16" d="M127.61,11.29a6.34,6.34,0,0,1,4.28,1.21,4.27,4.27,0,0,1,1.35,3.37,5.82,5.82,0,0,1-.31,1.87,3.94,3.94,0,0,1-1,1.56,4.68,4.68,0,0,1-1.83,1.08,8.69,8.69,0,0,1-2.79.39h-1.62v5.68H123.2V11.29Zm-.17,2.07h-1.75V18.7h1.36a6.12,6.12,0,0,0,2-.28,2.38,2.38,0,0,0,1.24-.87,2.65,2.65,0,0,0,.43-1.59,2.37,2.37,0,0,0-.8-2A3.88,3.88,0,0,0,127.44,13.36Z"/><path class="cls-16" d="M140.88,10.32v4c0,.43,0,.84,0,1.24s0,.71-.08.93h.14a3.26,3.26,0,0,1,.89-1A3.82,3.82,0,0,1,143,15a4.62,4.62,0,0,1,1.41-.2,5.23,5.23,0,0,1,2.24.44A3,3,0,0,1,148,16.57a5.09,5.09,0,0,1,.5,2.4v7.48H146.1v-7a3.06,3.06,0,0,0-.55-2,2.06,2.06,0,0,0-1.7-.67,3,3,0,0,0-1.76.46,2.5,2.5,0,0,0-.92,1.36,7.24,7.24,0,0,0-.29,2.18v5.7h-2.43V10.32Z"/><path class="cls-16" d="M158.88,14.76a4.91,4.91,0,0,1,3.29,1,3.75,3.75,0,0,1,1.12,3v7.72h-1.74l-.46-1.62H161a6.1,6.1,0,0,1-1,1,3.78,3.78,0,0,1-1.2.61,6,6,0,0,1-1.65.2,4.18,4.18,0,0,1-1.84-.38A2.83,2.83,0,0,1,154,25.13a3.8,3.8,0,0,1-.47-2,3,3,0,0,1,1.32-2.67,7.75,7.75,0,0,1,4-1l2-.08v-.6a2.23,2.23,0,0,0-.55-1.7,2.22,2.22,0,0,0-1.56-.51,5.82,5.82,0,0,0-1.67.25,12.58,12.58,0,0,0-1.58.61l-.79-1.72a8.82,8.82,0,0,1,1.92-.72A8.63,8.63,0,0,1,158.88,14.76Zm2,6.21-1.48.05a4.64,4.64,0,0,0-2.56.62,1.85,1.85,0,0,0-.74,1.54,1.47,1.47,0,0,0,.51,1.24,2.13,2.13,0,0,0,1.34.39,3.07,3.07,0,0,0,2.1-.73,2.66,2.66,0,0,0,.83-2.12Z"/><path class="cls-16" d="M175,14.76l.63,0c.23,0,.43.05.59.08L176,17.15a3,3,0,0,0-.53-.09l-.57,0a3.67,3.67,0,0,0-1.24.21,3.16,3.16,0,0,0-1.05.64,3,3,0,0,0-.71,1.08,3.81,3.81,0,0,0-.26,1.49v6h-2.45V15h1.91l.33,2h.11a5.43,5.43,0,0,1,.85-1.12,4.18,4.18,0,0,1,1.17-.82A3.45,3.45,0,0,1,175,14.76Z"/><path class="cls-16" d="M193.72,14.76a3.91,3.91,0,0,1,2.91,1,4.46,4.46,0,0,1,1,3.2v7.5h-2.44V19.38a3.2,3.2,0,0,0-.51-2,1.81,1.81,0,0,0-1.54-.66,2.35,2.35,0,0,0-2.09.93,4.69,4.69,0,0,0-.64,2.69v6.08H188V19.38a4,4,0,0,0-.23-1.45,1.77,1.77,0,0,0-.68-.89,2.11,2.11,0,0,0-1.15-.29,2.31,2.31,0,0,0-2.46,1.8,7.94,7.94,0,0,0-.25,2.17v5.73h-2.44V15h1.9l.34,1.54h.13a3.37,3.37,0,0,1,.88-1,3.77,3.77,0,0,1,1.17-.58,4.5,4.5,0,0,1,1.33-.19,4.74,4.74,0,0,1,2.17.45A2.88,2.88,0,0,1,190,16.58h.18a3.36,3.36,0,0,1,1.51-1.38A4.89,4.89,0,0,1,193.72,14.76Z"/><path class="cls-16" d="M208,14.76a4.94,4.94,0,0,1,3.3,1,3.78,3.78,0,0,1,1.11,3v7.72h-1.73l-.47-1.62h-.08a6.1,6.1,0,0,1-1,1,3.62,3.62,0,0,1-1.19.61,6.13,6.13,0,0,1-1.66.2,4.16,4.16,0,0,1-1.83-.38,2.85,2.85,0,0,1-1.28-1.15,3.8,3.8,0,0,1-.47-2A3,3,0,0,1,204,20.49a7.71,7.71,0,0,1,4-1l2-.08v-.6a2.23,2.23,0,0,0-.55-1.7,2.22,2.22,0,0,0-1.56-.51,5.87,5.87,0,0,0-1.67.25,13.2,13.2,0,0,0-1.58.61l-.78-1.72a8.73,8.73,0,0,1,1.91-.72A8.63,8.63,0,0,1,208,14.76Zm2,6.21-1.48.05a4.64,4.64,0,0,0-2.56.62,1.85,1.85,0,0,0-.74,1.54,1.47,1.47,0,0,0,.51,1.24,2.15,2.15,0,0,0,1.34.39,3.07,3.07,0,0,0,2.1-.73,2.62,2.62,0,0,0,.83-2.12Z"/><path class="cls-16" d="M222.84,26.66A5.93,5.93,0,0,1,220,26a4.23,4.23,0,0,1-1.84-1.94,7.5,7.5,0,0,1-.64-3.32,7.27,7.27,0,0,1,.7-3.42,4.52,4.52,0,0,1,2-2,6.28,6.28,0,0,1,2.87-.63,8.22,8.22,0,0,1,1.86.2,6.59,6.59,0,0,1,1.41.49l-.72,1.95a10.41,10.41,0,0,0-1.3-.43,4.88,4.88,0,0,0-1.28-.18,2.93,2.93,0,0,0-1.67.45,2.54,2.54,0,0,0-1,1.32,6.31,6.31,0,0,0-.33,2.19,6,6,0,0,0,.33,2.13,2.67,2.67,0,0,0,1,1.31,2.81,2.81,0,0,0,1.6.44,5.8,5.8,0,0,0,1.69-.23,7.35,7.35,0,0,0,1.41-.59v2.12a5.52,5.52,0,0,1-1.4.55A8,8,0,0,1,222.84,26.66Z"/><path class="cls-16" d="M232.43,10.58a1.58,1.58,0,0,1,1,.3,1.19,1.19,0,0,1,.41,1,1.2,1.2,0,0,1-.41,1,1.58,1.58,0,0,1-1,.3,1.56,1.56,0,0,1-1-.3,1.22,1.22,0,0,1-.4-1,1.21,1.21,0,0,1,.4-1A1.56,1.56,0,0,1,232.43,10.58Zm1.21,4.4V26.45H231.2V15Z"/><path class="cls-16" d="M244.14,14.76a5.2,5.2,0,0,1,2.63.63,4.23,4.23,0,0,1,1.69,1.79,6.13,6.13,0,0,1,.59,2.78v1.31h-7.66a3.7,3.7,0,0,0,.9,2.57,3.15,3.15,0,0,0,2.4.9,8.44,8.44,0,0,0,2-.21,10,10,0,0,0,1.81-.63v2a7.68,7.68,0,0,1-1.75.59,10.24,10.24,0,0,1-2.14.19,6.4,6.4,0,0,1-3-.66,4.72,4.72,0,0,1-2-2,6.65,6.65,0,0,1-.72-3.25,7.5,7.5,0,0,1,.65-3.27,4.75,4.75,0,0,1,1.84-2.06A5.27,5.27,0,0,1,244.14,14.76Zm0,1.83a2.47,2.47,0,0,0-1.87.75,3.54,3.54,0,0,0-.83,2.19h5.23a4.25,4.25,0,0,0-.29-1.53,2.23,2.23,0,0,0-.83-1A2.47,2.47,0,0,0,244.14,16.59Z"/><circle class="cls-16" cx="104.6" cy="18.96" r="12.49"/><polygon class="cls-18" points="111.1 15.54 108.02 15.54 108.02 12.46 101.17 12.46 101.17 15.54 98.1 15.54 98.1 22.38 101.17 22.38 101.17 25.46 108.02 25.46 108.02 22.38 111.1 22.38 111.1 15.54"/></svg>