<svg id="Calque_1" data-name="Calque 1" xmlns="http://www.w3.org/2000/svg" viewBox="0 0 146 208"><defs><style>.cls-1{fill:#fe7c23;}.cls-2{fill:#fe761d;}.cls-3{fill:#321d13;}.cls-4{fill:#fd9f45;}.cls-5{fill:#39bcc7;}.cls-6{fill:#fefefe;}.cls-7{fill:#f0eae6;}</style></defs><title>pregnant_statement</title><path class="cls-1" d="M98.6,163.31c.21,1.28.4,2.56.62,3.83a40.6,40.6,0,0,1,.56,6,63.57,63.57,0,0,1-.14,6.9,35.42,35.42,0,0,1-7.18,19.06c-.51.65-1,1.29-1.51,2A8.16,8.16,0,0,1,88.31,203a31.91,31.91,0,0,1-10.09,3.74A68.27,68.27,0,0,1,64.31,208c-3.57,0-7.14-.21-10.7-.48a113.61,113.61,0,0,1-20.39-3.63A223.45,223.45,0,0,1,9.06,195.6c-.59-.23-.65-.5-.45-1.06q3.21-9.18,6.38-18.37c.06-.16.08-.33.13-.51a11.25,11.25,0,0,1-6.75-2.14,13.18,13.18,0,0,1-4.55-6.7,38.81,38.81,0,0,1-1.69-8.62,186.3,186.3,0,0,1-.9-20.59c0-4.71-.05-9.42.07-14.13.08-3.62.29-7.23.67-10.84a79.33,79.33,0,0,1,1.18-8.26,1.23,1.23,0,0,1,.37,1.2c-.07.21.09.39.36.22s.37-.06.43.22.12.33.16.5a2,2,0,0,1-.69,2.2c-.32.23-.36,1,0,1.17.69.3.5.84.57,1.36a13.34,13.34,0,0,0,.17,2.18c.1.35.27.55.64.32.64-.39.81,0,.87.52,0,.34.07.58.47.34a.41.41,0,0,1,.63.15.88.88,0,0,1-.09,1c-.13.21-.35.49-.59.31-.61-.42-1,.16-1.53.22-.22,0-.23.22-.23.41a.43.43,0,0,0,.3.46,2.43,2.43,0,0,0,.88.18,1.22,1.22,0,0,1,.79.16.53.53,0,0,1,.27.57c0,.27-.2.3-.41.32s-.65.09-.61.5.32.51.68.56a11.19,11.19,0,0,0,1.91.31c.22,0,.6,0,.61.31s-.41.5-.59.48c-.55-.07-.92-.08-.77.64,0,.1-.16.19-.3.14-.39-.13-.52.08-.49.41s.29.42.6.37c1-.13,1-.12.67.79-.08.22-.13.39.19.42.15,0,.36-.22.43.06s-.13.36-.33.42-.33.11-.3.27.27.17.43.17c.31,0,.66,0,.67.41,0,.61.38.52.78.43.93-.22,1.58.28,1.3,1.19-.33,1.08.14,1.24,1,1.29.12,0,.24.1.36.09.82,0,.82.65.75,1.07-.1.62-.55.16-.88.1a1.15,1.15,0,0,0-1.09.43c-.24.31.21.54.39.79.52.7,1.27-.12,1.83.3a1.74,1.74,0,0,1,.11-.18c.4-.62.88-.59,1.2.08.09.19.13.32.36.22s.47.08.69.27c.47.41,1.1.66,1.23,1.39,0,.1.25.23.36.22.55-.07,1.07.32,1.62.09a.4.4,0,0,1,.47.16c.15.2,0,.3-.17.39s-.1.22,0,.32a3.51,3.51,0,0,0,2.33,0c.21-.16.47-.26.54,0,.13.52.39.42.71.24a.47.47,0,0,1,.67.08.79.79,0,0,0,.82.23c.66-.15,1.19.32,1.81.34.29,0,.2.22.08.37-.39.48-.86.89-1.52.7s-.77.48-.88.81.41.31.68.34.55,0,.83,0,.53.16.55.42c0,.85.78.78,1.27,1,.18.08.37.06.42.29s-.1.43-.34.5-.71.21-1.07.32-.61,0-.59.32a.93.93,0,0,0,.47.78,2.07,2.07,0,0,1,.34.15,2.57,2.57,0,0,1,.85,1.75c.11.45-.52.5-.88.64s-.56.39-.1.71a2.56,2.56,0,0,1,1,.92c.13.27-.06.64.29.91.56-2.29.76-4.58,1.26-6.81-.18,2.22-.57,4.41-1,6.61A1.78,1.78,0,0,1,27,146.52c-2.7,1-5.18,2.49-7.78,3.73-.2.1-.5.13-.51.52a4.27,4.27,0,0,0,1.68-.51,76.26,76.26,0,0,1,9-4.19c1.28-.43,2.54-.86,3.77-1.4a9.2,9.2,0,0,1,2.12-.9h0c0,.14-.29.14-.2.4.6-.24,1.19.16,1.81,0,.36-.06.75-.29,1.09-.11,1.14.6,2.46-.06,3.58.55a.28.28,0,0,0,.22,0c1.46-.4,2.78.45,4.21.48a11,11,0,0,0,1.83-.07,2.36,2.36,0,0,1,2.4.72l-.62.22a.41.41,0,0,0-.33.37.38.38,0,0,0,.35.42c1.05.08,2,.64,3.12.48a1.25,1.25,0,0,1,.43,0c.74.16,1.63-.18,2.16.66h.08a20.68,20.68,0,0,1,3,.44,4.71,4.71,0,0,0,1.11.15A2.26,2.26,0,0,1,62,150.31s.13.05.2.08a8.56,8.56,0,0,1-1.75,1.36c-5.25,3.74-10.31,7.74-15.91,11-1.79,1-3.57,2.08-5.35,3.12-.06-.1-.09,0-.12,0h0a.28.28,0,0,0-.29.14h0a.92.92,0,0,0-.75.44h0a.28.28,0,0,0-.29.15h0a.92.92,0,0,0-.74.44h0a.41.41,0,0,0-.43.28l0,0a.24.24,0,0,0-.27.13h0a.27.27,0,0,0-.28.14h0a.27.27,0,0,0-.28.15h0a.29.29,0,0,0-.3.15h0a3.35,3.35,0,0,0-1.64.89l0,0c-.12,0-.23,0-.28.13l0,0c-.12,0-.23,0-.29.14h0c-.12,0-.23,0-.29.15h0a.31.31,0,0,0-.29.15h0c-.26,0-.49,0-.6.3h0a.31.31,0,0,0-.29.15h0c-.25,0-.48,0-.59.3h0a.28.28,0,0,0-.29.14h0c-.12,0-.23,0-.29.14h0c-.12,0-.23,0-.29.14h0a2.79,2.79,0,0,0-1.64.74h0c-.12,0-.23,0-.29.14a1.3,1.3,0,0,1-.23.18,52.78,52.78,0,0,1-8.61,3c-1.25.31-2.51.55-3.77.82a9.57,9.57,0,0,0,3.12-.25,54.6,54.6,0,0,0,14.46-5.4c3.24-1.66,6.36-3.55,9.51-5.38A161.57,161.57,0,0,0,58.2,154.06c1.67-1.25,3.39-2.45,5.08-3.67,0,.16.11.29.29.29a8.51,8.51,0,0,0,2,0,16.39,16.39,0,0,1,4.69-.08c.77,0,1.54-.09,2.3,0a.5.5,0,0,0,.58-.47c0-.4-.37-.29-.57-.22a.56.56,0,0,1-.66-.18.41.41,0,0,0-.48-.11,6.73,6.73,0,0,1-2.53.09c-.15,0-.33,0-.33-.22s.17-.24.32-.22a23.23,23.23,0,0,0,2.36,0c.51,0,1.07-.38,1.66-.18,0,0,.11-.09.15-.15.2-.31.42-.16.65,0s.39.2.59.31.44.12.45.34-.3.15-.45.23-.75.14-.35.55a1.49,1.49,0,0,0,1,.49c2,.09,4,.18,6,.3a15,15,0,0,1,3.86.75,6.94,6.94,0,0,0,3,.61c.4,0,.62.32.85.55s-.11.3-.23.41-.42.16-.37.41.33.3.53.33c1,.19,1.9.62,2.85.77a2.93,2.93,0,0,1,2.36,1.38c.18.3.2.37-.07.56-.59.42-.54.8,0,1.33a9,9,0,0,0,1.46.86,1.36,1.36,0,0,1,.54,1.16c0,.38-.5.29-.8.37s-.56,0-.6.35.28.38.49.49.38.13.56.22a3.91,3.91,0,0,1,1.75,1.1A1.35,1.35,0,0,0,98.6,163.31ZM59.87,150.08a.63.63,0,0,0,1,.08c.08-.06.18-.17.1-.25-.29-.29-.59,0-.89,0A.9.9,0,0,0,59.87,150.08Zm-11.22-3.9c-.14,0-.33,0-.32.2s.17.23.33.24.32,0,.32-.22S48.81,146.19,48.65,146.18Z"/><path class="cls-2" d="M62.23,150.39c-.07,0-.19,0-.2-.08a2.26,2.26,0,0,0-2.41-1.74,4.71,4.71,0,0,1-1.11-.15,20.68,20.68,0,0,0-3-.44H55.4c-.53-.84-1.42-.5-2.16-.66a1.25,1.25,0,0,0-.43,0c-1.09.16-2.07-.4-3.12-.48a.38.38,0,0,1-.35-.42.41.41,0,0,1,.33-.37l.62-.22a2.36,2.36,0,0,0-2.4-.72,11,11,0,0,1-1.83.07c-1.43,0-2.75-.88-4.21-.48a.28.28,0,0,1-.22,0c-1.12-.61-2.44.05-3.58-.55-.34-.18-.73,0-1.09.11-.62.12-1.21-.28-1.81,0-.09-.26.16-.26.2-.4a.33.33,0,0,0,.29-.15.36.36,0,0,0,.31-.15.34.34,0,0,0,.3-.16.31.31,0,0,0,.3-.15l.19,0,0-.06-.16.11a29502992901113.56,29502992901113.56,0,0,1-.6.3.33.33,0,0,0-.3.15.33.33,0,0,0-.3.15,9.2,9.2,0,0,0-2.12.9c-1.23.54-2.49,1-3.77,1.4a76.26,76.26,0,0,0-9,4.19,4.27,4.27,0,0,1-1.68.51c0-.39.31-.42.51-.52,2.6-1.24,5.08-2.72,7.78-3.73a1.78,1.78,0,0,0,1.17-1.62c.39-2.2.78-4.39,1-6.61-.5,2.23-.7,4.52-1.26,6.81-.35-.27-.16-.64-.29-.91a2.56,2.56,0,0,0-1-.92c-.46-.32-.37-.53.1-.71s1-.19.88-.64a2.57,2.57,0,0,0-.85-1.75,2.07,2.07,0,0,0-.34-.15.93.93,0,0,1-.47-.78c0-.33.37-.25.59-.32s.72-.2,1.07-.32.4-.22.34-.5-.24-.21-.42-.29c-.49-.2-1.23-.13-1.27-1,0-.26-.27-.4-.55-.42s-.55,0-.83,0-.77-.06-.68-.34.1-1,.88-.81,1.13-.22,1.52-.7c.12-.15.21-.36-.08-.37-.62,0-1.15-.49-1.81-.34a.79.79,0,0,1-.82-.23.47.47,0,0,0-.67-.08c-.32.18-.58.28-.71-.24-.07-.29-.33-.19-.54,0a3.51,3.51,0,0,1-2.33,0c-.14-.1-.26-.2,0-.32s.32-.19.17-.39a.4.4,0,0,0-.47-.16c-.55.23-1.07-.16-1.62-.09-.11,0-.34-.12-.36-.22-.13-.73-.76-1-1.23-1.39-.22-.19-.37-.41-.69-.27s-.27,0-.36-.22c-.32-.67-.8-.7-1.2-.08a1.74,1.74,0,0,0-.11.18c-.56-.42-1.31.4-1.83-.3-.18-.25-.63-.48-.39-.79a1.15,1.15,0,0,1,1.09-.43c.33.06.78.52.88-.1.07-.42.07-1.11-.75-1.07-.12,0-.24-.08-.36-.09-.83,0-1.3-.21-1-1.29.28-.91-.37-1.41-1.3-1.19-.4.09-.75.18-.78-.43,0-.42-.36-.4-.67-.41-.16,0-.4.08-.43-.17s.14-.23.3-.27.4-.17.33-.42-.28-.05-.43-.06c-.32,0-.27-.2-.19-.42.33-.91.32-.92-.67-.79-.31.05-.58,0-.6-.37s.1-.54.49-.41c.14.05.32,0,.3-.14-.15-.72.22-.71.77-.64.18,0,.59-.19.59-.48s-.39-.31-.61-.31a11.19,11.19,0,0,1-1.91-.31c-.36,0-.65-.18-.68-.56s.31-.46.61-.5.4,0,.41-.32a.53.53,0,0,0-.27-.57,1.22,1.22,0,0,0-.79-.16,2.43,2.43,0,0,1-.88-.18.43.43,0,0,1-.3-.46c0-.19,0-.38.23-.41.51-.06.92-.64,1.53-.22.24.18.46-.1.59-.31a.88.88,0,0,0,.09-1,.41.41,0,0,0-.63-.15c-.4.24-.44,0-.47-.34-.06-.51-.23-.91-.87-.52-.37.23-.54,0-.64-.32a13.34,13.34,0,0,1-.17-2.18c-.07-.52.12-1.06-.57-1.36-.37-.16-.33-.94,0-1.17a2,2,0,0,0,.69-2.2c0-.17-.12-.33-.16-.5s-.21-.36-.43-.22-.43,0-.36-.22a1.23,1.23,0,0,0-.37-1.2l.07-.28c.19,0,.36-.18.57-.08s.25,0,.28-.13,0-.31-.1-.33c-.66-.09-.32-.53-.29-.83s.21-.41-.05-.59l0-.3c.29-.07.49-.29.79-.37s.63-.37.48-.64c-.24-.46-.19-1-.59-1.41l.08-.28c.07,0,.17,0,.19-.09A4,4,0,0,0,5,98.14c.08-.56.57-.12.73-.34s-.5-.41-.27-.79a.42.42,0,0,0,.08-.12,4.67,4.67,0,0,0,.25-1.38.15.15,0,0,1,0-.13c.39-.08.25-.38.26-.62H6c.15-.06.16-.18.14-.32v0c.16-.06.17-.18.15-.32h0c.17,0,.43.07.44-.14,0-.72.53-1.28.62-2v0c.16,0,.18-.16.18-.3h0C8,91.69,8,91.35,8,91v0c.17-.05.18-.17.18-.32a20.45,20.45,0,0,1,2.68-3.9,35.9,35.9,0,0,1,7.58-7,58.52,58.52,0,0,1,5.27-2.89,43.18,43.18,0,0,1,6.72-2.54c.2.1.39.16.47.46A6.43,6.43,0,0,0,31.93,77a25.68,25.68,0,0,0,13.3,9.61,9.11,9.11,0,0,0,4.65.41c2.85-.59,4.55-2.52,5.6-5.12.1-.26.07-.63.47-.69.59.27,1.19.51,1.76.81a33.09,33.09,0,0,1,7.66,5.69A72.91,72.91,0,0,1,73.6,98.25,79.27,79.27,0,0,1,81.47,114c-.55.4-1.1,0-1.65,0-1.49-.05-3,.17-4.45.19a2.59,2.59,0,0,0-1.15-1.69c-3-2-6.13-3.63-9.26-5.35a1.42,1.42,0,0,0-1.09-.11,2.25,2.25,0,0,0-1.72,2,2,2,0,0,0,1,2.08c2.79,1.66,5.54,3.38,8.42,4.89-.3.27-.6.52-.88.81a48.67,48.67,0,0,0-5.63,7.73,35.42,35.42,0,0,1-4.91,6.64c-1.15,1.11-2.42,2.08-3.54,3.23-.11.12-.33.1-.22.42.35,1,.58,2.11.91,3.15a28.61,28.61,0,0,0,5.33,9.13c.62.78,1,.81,1.9.24,1.68-1,3.33-2.11,5-3.14a29.93,29.93,0,0,1,2.91-1.93c0,.4-.31.6-.51.87a2.33,2.33,0,0,0-.33,2.75,2.54,2.54,0,0,0,1.78,1.2q7.33,1.9,14.68,3.77l6,1.51c0,.11-.25.13-.15.28.3.43.38,1,.75,1.35a1.73,1.73,0,0,0,.06.52c.62,1.34,1,2.74,1.53,4.13,0,.07,0,.21.27.11A29,29,0,0,0,94.69,154c0-.58-.46-1-.47-1.61l12.21,2.92c-1.12,1.21-2.08,2.56-3.31,3.66l-.17.15h0l-.15.16h0l-.16.16h0l-.16.16h0l-.16.16h0l-.16.16h0l-.16.16h0l-.16.16h0l-.16.16h0l-.16.15h0a.27.27,0,0,0-.3.3h0l-.15.16-.14.14a.27.27,0,0,0-.31.31h0l-.16.16h0l-.16.16h0c-.7-.14-1.05.11-.91.87l-.89.77a1.35,1.35,0,0,1-1.38-.67,3.91,3.91,0,0,0-1.75-1.1c-.18-.09-.38-.13-.56-.22s-.53-.18-.49-.49.38-.28.6-.35.79,0,.8-.37a1.36,1.36,0,0,0-.54-1.16,9,9,0,0,1-1.46-.86c-.55-.53-.6-.91,0-1.33.27-.19.25-.26.07-.56a2.93,2.93,0,0,0-2.36-1.38c-1-.15-1.88-.58-2.85-.77-.2,0-.49,0-.53-.33s.22-.29.37-.41.36-.27.23-.41-.45-.59-.85-.55a6.94,6.94,0,0,1-3-.61A15,15,0,0,0,81,151c-2-.12-4-.21-6-.3a1.49,1.49,0,0,1-1-.49c-.4-.41.12-.43.35-.55s.46.09.45-.23-.28-.25-.45-.34-.4-.2-.59-.31-.45-.26-.65,0c0,.06-.12.16-.15.15-.59-.2-1.15.19-1.66.18a23.23,23.23,0,0,1-2.36,0c-.15,0-.32,0-.32.22s.18.22.33.22a6.73,6.73,0,0,0,2.53-.09.41.41,0,0,1,.48.11.56.56,0,0,0,.66.18c.2-.07.56-.18.57.22a.5.5,0,0,1-.58.47c-.76,0-1.53.07-2.3,0a16.39,16.39,0,0,0-4.69.08,8.51,8.51,0,0,1-2,0c-.18,0-.26-.13-.29-.29h0l.14-.14h0a.43.43,0,0,0,.26-.59c-.09-.2-.26-.19-.4,0l0,0a.25.25,0,0,0-.28.13h0l-.14.14h0a.28.28,0,0,0-.29.14h0a.46.46,0,0,0-.29.29Zm-24-8-.19.06,0,.05.16-.11,0-.06Zm4.52-2.1.19-.06,0-.06-.16.11a.36.36,0,0,0-.3.15c-.18,0-.4,0-.49.23.23.06.36-.08.5-.22A.33.33,0,0,0,42.71,140.32ZM31.88,114.16a5.67,5.67,0,0,0-.26,2c-.19,2.35-.38,4.7-.62,7-.3,2.89-.68,5.76-1.05,8.64a4.52,4.52,0,0,0-.07,2.09c.13-1,.26-1.8.35-2.64.35-3.13.83-6.24,1.08-9.38.21-2.6.52-5.18.58-7.79.22-.2.11-.47.15-.71a40.19,40.19,0,0,0,.25-4.24c.07-1.7.23-3.4.19-5.24a1.5,1.5,0,0,0-.29.9C32.27,108,31.9,111.06,31.88,114.16ZM14.52,128.31a.59.59,0,0,0-.5.63c0,.22.12.42.37.34s.64-.24.63-.63S14.74,128.36,14.52,128.31Zm14.79,9.45.5-3.44A9.61,9.61,0,0,0,29.31,137.76Zm67.85,22.6a1.33,1.33,0,0,0-.07-1c-.06-.2-.18-.19-.34-.16s-.31,0-.24.19C96.66,159.73,96.61,160.23,97.16,160.36Zm-78.5-28.88c0-.29-.19-.4-.41-.42s-.32.18-.32.39.11.43.38.42S18.64,131.7,18.66,131.48Zm-8.57-8a.34.34,0,0,0,.28-.44c0-.15-.09-.38-.31-.35s-.25.26-.25.46S9.85,123.47,10.09,123.45Zm31.42,17.34-1.27.58C40.72,141.26,41.3,141.44,41.51,140.79ZM5.59,110.52c0-.09,0-.24-.24-.23a.27.27,0,1,0,0,.54C5.5,110.86,5.58,110.75,5.59,110.52Zm8,15.75c-.17,0-.25,0-.27.12s.08.22.22.24.28,0,.26-.16S13.61,126.31,13.56,126.27ZM79.66,149c-.39-.1-.62-.31-.94-.16C79,149,79.21,149.06,79.66,149ZM39.34,141.8c-.33.09-.6.07-.69.43C38.84,142.07,39.18,142.22,39.34,141.8ZM15.49,128.89c.13,0,.25,0,.24-.15s-.11-.14-.22-.12-.19.08-.18.19S15.45,128.87,15.49,128.89Zm52.14,20.4-.22.17s.07.12.11.14.2,0,.19-.12S67.66,149.36,67.63,149.29ZM4.3,102.38c-.11,0-.16,0-.17.09s0,.16.06.18.17,0,.18-.11A.39.39,0,0,0,4.3,102.38ZM8,118.2c.05-.08.12-.13.12-.18a.23.23,0,0,0-.08-.17c-.12,0-.17.07-.16.16S7.94,118.12,8,118.2Zm36.26,21.44a.45.45,0,0,0-.19,0c-.1,0-.2.06-.2.18s.11.07.17.07A.23.23,0,0,0,44.26,139.64Zm-35.32-24c0-.05.06-.1.05-.13s-.08,0-.12,0-.06.09,0,.12S8.9,115.6,8.94,115.62Zm69.14,33.1.11-.06s-.07-.06-.1-.06a.31.31,0,0,0-.12.05Z"/><path class="cls-3" d="M30.39,74.33a43.18,43.18,0,0,0-6.72,2.54,58.52,58.52,0,0,0-5.27,2.89c-.59.13-.73-.5-1.16-.69a10.15,10.15,0,0,1-5-3.86,13.35,13.35,0,0,1-2-5.58,16.55,16.55,0,0,1,1.66-8.46,86.89,86.89,0,0,1,7.34-13c1.25-1.89,2.46-3.81,3.59-5.78a14.22,14.22,0,0,0,1.51-4.74,40.56,40.56,0,0,1,1.28-4.75c.71-2.47,1.54-4.9,2.43-7.3a29.65,29.65,0,0,1,3.67-6.75,27,27,0,0,1,3.76-4.36,27.55,27.55,0,0,1,7.93-5.28,25.28,25.28,0,0,1,7.94-1.91A24.41,24.41,0,0,1,55.44,7,30.32,30.32,0,0,1,66.08,9.41a28.55,28.55,0,0,1,8.78,6.25,31.09,31.09,0,0,1,3.5,4.65,31.47,31.47,0,0,1,3.89,9.76,45.78,45.78,0,0,1,1,6.7,79.83,79.83,0,0,1,.08,8.47c-.07,2.36-.43,4.71-.65,7A83.45,83.45,0,0,1,80.48,63.4a75.45,75.45,0,0,1-3.81,12.42,21.21,21.21,0,0,1-5.07,7.86,13,13,0,0,1-4.73,2.92c-.48.16-1,.2-1.13.89,0,.09-.24.16-.37.23A33.09,33.09,0,0,0,57.71,82c-.57-.3-1.17-.54-1.76-.81a.88.88,0,0,1,0-.36,27.39,27.39,0,0,0,.85-4.08c.09-.68.44-.76.92-.76a4.59,4.59,0,0,0,1.1-.13A14.4,14.4,0,0,0,64.59,73a28.84,28.84,0,0,0,4.7-4.67,34.89,34.89,0,0,0,2.92-4.58c4.35-8.07,6.68-16.57,6-25.8a31.4,31.4,0,0,0-2.46-10.24A15.7,15.7,0,0,0,73,23.23c-.61-.67-.76-.64-1.33.05s-1,1.23-1.58,1.8a37.73,37.73,0,0,1-12.79,8.39,35.69,35.69,0,0,1-11,2.67,7.08,7.08,0,0,1-4.83-.87,8.16,8.16,0,0,0-2.84-1.12,6.21,6.21,0,0,0-5.8,1.32,8,8,0,0,0-2.51,5.93,11.13,11.13,0,0,0,1.67,7,5.93,5.93,0,0,0,2.58,2.52c.61.24.68.56.68,1.11,0,1.92-.13,3.84-.29,5.76a49.11,49.11,0,0,1-1.62,8.92c-.62,2.23-1.36,4.41-2.2,6.57C30.92,73.66,30.83,74.1,30.39,74.33Z"/><path class="cls-4" d="M75.37,114.2c1.49,0,3-.24,4.45-.19.55,0,1.1.41,1.65,0a21,21,0,0,0,3.13.58c.71.45,1.57.49,2.28.91l0,.06,0-.06.33,0,0,.06c0,.45.35.33.61.34v0a.83.83,0,0,0,.91.47h0c0,.17.17.17.31.16v0c0,.24.09.33.32.31h0c0,.16.17.19.32.16h0l.16.16h0l.16.16h0l.16.16h0l.17.16h0a4.71,4.71,0,0,1,0,3.5l.11.12A31,31,0,0,1,86.75,120a2.48,2.48,0,0,0-.48-.34,11.62,11.62,0,0,0-6.79-.77c-.24,0-.49,0-.74.09s-.4.12-.61.18c2.89-.2,5.7-.2,8.34,1.15a3.88,3.88,0,0,1,1.63,3.54c-.33.41-.33,1.07-.93,1.28-.38-.25-.65.35-1.14,0a8.56,8.56,0,0,0-6.76-.94.65.65,0,0,0-.57.33l.66-.08a10.28,10.28,0,0,1,6,.84,3.29,3.29,0,0,0,1.25.41h0a.93.93,0,0,0,.14.7,3.75,3.75,0,0,1,.47,2.06c0,.64-.47,1.14-.46,1.77a.14.14,0,0,0-.14.15c-.22,0-.32.09-.31.3-.21,0-.32.08-.3.3-.13,0-.27,0-.29.16-.14,0-.27,0-.3.15-.15,0-.33-.11-.41.12-.24,0-.54,0-.51.37.06.65-.14,1.27-.14,1.91-.16,0-.16.16-.15.29l-.15.16c-.31,0-.46.14-.45.45a.28.28,0,0,0-.32.13,9.16,9.16,0,0,1-2.18.6c-.37.05-.79-.16-1.12.17h0c-.14,0-.27,0-.31.17v0a.63.63,0,0,0-.46.46h0l-.15.15h0a.32.32,0,0,0-.3.31h0l-.15.15h0l-.15.16h0c-.37,0-.48.17-.47.5l-.11.08-.2.15h0c-.15,0-.27,0-.32.16h0c-.35,0-.49.15-.47.48l-.11.1-.2.16h0c-.22,0-.31.11-.36.29l-3.84,3.45a29.93,29.93,0,0,0-2.91,1.93c-1.69,1-3.34,2.11-5,3.14-.93.57-1.28.54-1.9-.24A28.61,28.61,0,0,1,57.32,138c-.33-1-.56-2.11-.91-3.15-.11-.32.11-.3.22-.42,1.12-1.15,2.39-2.12,3.54-3.23a35.42,35.42,0,0,0,4.91-6.64,48.67,48.67,0,0,1,5.63-7.73c.28-.29.58-.54.88-.81A10.43,10.43,0,0,1,75.37,114.2Zm8.17,16.52c.14.18.26.39.6.38-.17-.25-.3-.42-.55-.45-.08-.39-.41-.54-.72-.69a5.61,5.61,0,0,0-4.61,0A8.73,8.73,0,0,1,83.54,130.72Zm-5.83-11.41s0,0,0,0,0,0,0,.06l.09-.07Z"/><path class="cls-5" d="M86.88,115.51c-.71-.42-1.57-.46-2.28-.91l3.93-8.13c2.65-5.49,5.32-11,8-16.46a7.75,7.75,0,0,1,2.33-3,6.16,6.16,0,0,1,4.88-.77l9.62,1.61L122,89.33l9.49,1.54c3.6.6,7.2,1.14,10.79,1.82,2.19.42,3.08,2.15,2.19,4.24-1.19,2.79-2.52,5.53-3.8,8.28q-4.65,9.93-9.32,19.86a2.35,2.35,0,0,0-.11.35c-.89-.47-1.67-1.13-2.61-1.52a.8.8,0,0,1,0-.15c3.14-6.79,6.3-13.58,9.43-20.38,1-2.11,2.08-4.15,2.9-6.32a1.09,1.09,0,0,0-.9-1.65c-.22-.05-.43-.11-.65-.15l-20-3.29c-5.4-.9-10.81-1.79-16.2-2.71-2.61-.44-3.71.49-4.65,2.48-2.09,4.41-4.21,8.8-6.31,13.19q-2.54,5.33-5.08,10.64l-.33,0Z"/><path class="cls-5" d="M72.48,142.26l3.84-3.45.19,0c0,.25-.14.42-.23.62-.43,1-.93,2-1.31,3.09a1.51,1.51,0,0,0,1.22,2.19l.58.14q10.38,2.43,20.76,4.86,7.11,1.65,14.24,3.26a2.8,2.8,0,0,0,3.47-1.73c1.06-2.22,2.1-4.44,3.15-6.67l3-6.42a1.92,1.92,0,0,0,.2,1.29,3,3,0,0,0,.71,1.3c.56.71.9,1.41.25,2.26-.09.13-.06.34-.1.51-.41.29-.5.79-.69,1.2q-2.15,4.49-4.24,9a4.58,4.58,0,0,1-3.39,2.86,9.34,9.34,0,0,1-3.48-.33c-1.41-.27-2.81-.58-4.22-.87l-12.21-2.92a.17.17,0,0,0-.14,0l-6-1.51q-7.34-1.87-14.68-3.77a2.54,2.54,0,0,1-1.78-1.2,2.33,2.33,0,0,1,.33-2.75C72.17,142.86,72.51,142.66,72.48,142.26Z"/><path class="cls-4" d="M122.45,143.47c0-.17,0-.38.1-.51.65-.85.31-1.55-.25-2.26a3,3,0,0,1-.71-1.3c0-.65.08-1.3.13-2h0c.17-.05.18-.17.17-.31h0c.5-.4.52-.52.14-.72h0l-.16-.16h0l-.16-.16h0l-.16-.16h0l-.16-.16v0c0-.25,0-.48-.31-.45h0A4.89,4.89,0,0,1,121,132h0c.4,0,.44-.3.46-.6h0l.16-.15h0c.37-.07.66-.51,1.12,0A45.81,45.81,0,0,0,127,135a11.42,11.42,0,0,0,2.17,1.72,3,3,0,0,0-.87-1.15c-1.36-1.14-2.75-2.23-4.07-3.41s-2.82-2-1.64-4v0a.68.68,0,0,0,.46-.46h0a.37.37,0,0,0,.46-.3h0c.32,0,.63-.11,1-.13s.29-.33.57-.08c1.43,1.29,3.21,2.1,4.68,3.34a.73.73,0,0,0,.54.22l.15.15c.1.37.38.59.8,1a1.88,1.88,0,0,0-.74-1l-.15-.15a6.27,6.27,0,0,0-1.58-1.37,31.06,31.06,0,0,1-3-2c-.92-.72-1.76-1.46-1-2.79,0,0,0-.14,0-.22l.1-.11.21-.16h0l.16-.16h0a3.57,3.57,0,0,1,3.06.14.29.29,0,0,0,.39-.11v0c.94.39,1.72,1,2.61,1.52a17.4,17.4,0,0,1,1.48,1.37,3.56,3.56,0,0,1-.8,5.43c-.17.13-.35.17-.26.5a3.34,3.34,0,0,1-1.6,3.88.84.84,0,0,0-.52.93c.18,1.94-.49,2.86-2.43,3.41-.57-.58-1.12-1.2-1.74-1.73a5.9,5.9,0,0,0-1.93-1.33l-.15-.15a.52.52,0,0,0-.45-.45c-.11-.12-.13-.35-.38-.35a.38.38,0,0,0,.32.43.51.51,0,0,0,.45.43l.15.15,3.63,3.28a2.84,2.84,0,0,1-1.86,3.56,2.33,2.33,0,0,1-2.11-.71A6.4,6.4,0,0,1,122.45,143.47Z"/><path class="cls-1" d="M4.35,99.42c.4.38.35,1,.59,1.41.15.27-.22.57-.48.64s-.5.3-.79.37A15.52,15.52,0,0,1,4.35,99.42Z"/><path class="cls-2" d="M127,141.22l-3.63-3.28.06-.06a5.9,5.9,0,0,1,1.93,1.33c.62.53,1.17,1.15,1.74,1.73Z"/><path class="cls-1" d="M5.74,95.51a4.67,4.67,0,0,1-.25,1.38.42.42,0,0,1-.08.12c-.23.38.54.44.27.79S5,97.58,5,98.14a4,4,0,0,1-.33.91s-.12.06-.19.09A17.3,17.3,0,0,1,5.74,95.51Z"/><path class="cls-1" d="M3.63,102.14c.26.18.06.38.05.59s-.37.74.29.83c.11,0,.13.2.1.33s-.15.18-.28.13-.38.09-.57.08A5.5,5.5,0,0,1,3.63,102.14Z"/><path class="cls-1" d="M7.37,92c-.09.69-.59,1.25-.62,2,0,.21-.27.15-.44.14A8.35,8.35,0,0,1,7.37,92Z"/><path class="cls-1" d="M99.49,162.54c-.14-.76.21-1,.91-.87A3.43,3.43,0,0,1,99.49,162.54Z"/><path class="cls-1" d="M8,91c0,.36,0,.7-.44.77A1.46,1.46,0,0,1,8,91Z"/><path class="cls-1" d="M6,94.76c0,.24.13.54-.26.62A.74.74,0,0,1,6,94.76Z"/><path class="cls-1" d="M100.7,161.37a.27.27,0,0,1,.31-.31Z"/><path class="cls-1" d="M101.3,160.76a.27.27,0,0,1,.3-.3Z"/><path class="cls-1" d="M8.14,90.69c0,.15,0,.27-.18.32C8,90.88,8,90.75,8.14,90.69Z"/><path class="cls-1" d="M7.54,91.76c0,.14,0,.26-.18.3C7.38,91.93,7.4,91.81,7.54,91.76Z"/><path class="cls-1" d="M6.32,94.15c0,.14,0,.26-.15.32C6.18,94.35,6.18,94.21,6.32,94.15Z"/><path class="cls-1" d="M6.17,94.45c0,.14,0,.26-.14.32C6.05,94.65,6,94.51,6.17,94.45Z"/><path class="cls-1" d="M103,159.11l.17-.15Z"/><path class="cls-1" d="M102.81,159.27l.15-.16Z"/><path class="cls-1" d="M102.65,159.42l.16-.16Z"/><path class="cls-1" d="M102.5,159.57l.16-.16Z"/><path class="cls-1" d="M102.35,159.72l.16-.16Z"/><path class="cls-1" d="M102.2,159.87l.16-.16Z"/><path class="cls-1" d="M102.05,160l.16-.16Z"/><path class="cls-1" d="M101.9,160.17l.16-.16Z"/><path class="cls-1" d="M101.75,160.32l.16-.16Z"/><path class="cls-1" d="M101.6,160.46l.16-.15Z"/><path class="cls-1" d="M101.15,160.92l.15-.16Z"/><path class="cls-1" d="M100.55,161.52l.16-.16Z"/><path class="cls-1" d="M100.4,161.67l.16-.16Z"/><path class="cls-2" d="M39.22,165.84c1.78-1,3.56-2.09,5.35-3.12,5.6-3.23,10.66-7.23,15.91-11a8.56,8.56,0,0,0,1.75-1.36h0a.26.26,0,0,0,.29-.29h0a.28.28,0,0,0,.29-.14h0l.14-.14h0a.29.29,0,0,0,.28-.13l0,0c.2.17.12.4.14.6h0l-.14.14h0c-1.69,1.22-3.41,2.42-5.08,3.67a161.57,161.57,0,0,1-15.58,10.45c-3.15,1.83-6.27,3.72-9.51,5.38a54.6,54.6,0,0,1-14.46,5.4,9.57,9.57,0,0,1-3.12.25c1.26-.27,2.52-.51,3.77-.82a52.78,52.78,0,0,0,8.61-3,1.3,1.3,0,0,0,.23-.18l.29-.14h0a4.59,4.59,0,0,0,1.64-.74h0l.29-.14h0l.29-.14h0l.29-.14h0a.6.6,0,0,0,.59-.3h0l.29-.15h0a.64.64,0,0,0,.6-.3h0l.29-.15h0l.29-.15h0l.29-.14,0,0,.28-.13,0,0a4.68,4.68,0,0,0,1.64-.89h0l.3-.15h0l.28-.15h0l.28-.14h0l.27-.13,0,0a.49.49,0,0,0,.43-.28h0a1.1,1.1,0,0,0,.74-.44h0l.29-.15h0a1.19,1.19,0,0,0,.75-.44h0l.29-.14h0Z"/><path class="cls-2" d="M59.87,150.08a.9.9,0,0,1,.19-.14c.3-.08.6-.32.89,0,.08.08,0,.19-.1.25A.63.63,0,0,1,59.87,150.08Z"/><path class="cls-4" d="M30.08,170.68a4.59,4.59,0,0,1-1.64.74A2.79,2.79,0,0,1,30.08,170.68Z"/><path class="cls-4" d="M35.34,168a4.68,4.68,0,0,1-1.64.89A3.35,3.35,0,0,1,35.34,168Z"/><path class="cls-2" d="M48.65,146.18c.16,0,.32,0,.33.22s-.16.22-.32.22-.32-.08-.33-.24S48.51,146.19,48.65,146.18Z"/><path class="cls-4" d="M37.74,166.62a1.1,1.1,0,0,1-.74.44A.92.92,0,0,1,37.74,166.62Z"/><path class="cls-4" d="M38.8,166a1.19,1.19,0,0,1-.75.44A.92.92,0,0,1,38.8,166Z"/><path class="cls-4" d="M32.49,169.47a.64.64,0,0,1-.6.3C32,169.5,32.23,169.46,32.49,169.47Z"/><path class="cls-4" d="M31.58,169.92a.6.6,0,0,1-.59.3C31.1,170,31.33,169.91,31.58,169.92Z"/><path class="cls-4" d="M37,167.07a.49.49,0,0,1-.43.28A.41.41,0,0,1,37,167.07Z"/><path class="cls-4" d="M28.43,171.43l-.29.14C28.2,171.44,28.31,171.43,28.43,171.43Z"/><path class="cls-4" d="M30.38,170.53l-.29.14C30.15,170.54,30.26,170.53,30.38,170.53Z"/><path class="cls-4" d="M30.68,170.38l-.29.14C30.45,170.39,30.56,170.38,30.68,170.38Z"/><path class="cls-4" d="M31,170.23l-.29.14A.28.28,0,0,1,31,170.23Z"/><path class="cls-4" d="M31.88,169.77l-.29.15A.31.31,0,0,1,31.88,169.77Z"/><path class="cls-4" d="M32.78,169.32l-.29.15A.31.31,0,0,1,32.78,169.32Z"/><path class="cls-4" d="M33.08,169.17l-.29.15C32.85,169.19,33,169.18,33.08,169.17Z"/><path class="cls-4" d="M33.38,169l-.29.14C33.15,169,33.26,169,33.38,169Z"/><path class="cls-4" d="M33.68,168.88l-.28.13C33.45,168.89,33.56,168.88,33.68,168.88Z"/><path class="cls-4" d="M35.64,167.82l-.3.15A.29.29,0,0,1,35.64,167.82Z"/><path class="cls-4" d="M35.93,167.67l-.28.15A.27.27,0,0,1,35.93,167.67Z"/><path class="cls-4" d="M36.23,167.52l-.28.14A.27.27,0,0,1,36.23,167.52Z"/><path class="cls-4" d="M36.52,167.38l-.27.13A.24.24,0,0,1,36.52,167.38Z"/><path class="cls-4" d="M38,166.47l-.29.15A.28.28,0,0,1,38,166.47Z"/><path class="cls-4" d="M39.09,165.87l-.29.14A.28.28,0,0,1,39.09,165.87Z"/><path class="cls-4" d="M39.22,165.84l-.12,0C39.13,165.8,39.16,165.74,39.22,165.84Z"/><path class="cls-4" d="M30.39,74.33c.44-.23.53-.67.69-1.08.84-2.16,1.58-4.34,2.2-6.57a49.11,49.11,0,0,0,1.62-8.92c.16-1.92.29-3.84.29-5.76,0-.55-.07-.87-.68-1.11a5.93,5.93,0,0,1-2.58-2.52,11.13,11.13,0,0,1-1.67-7,8,8,0,0,1,2.51-5.93,6.21,6.21,0,0,1,5.8-1.32,8.16,8.16,0,0,1,2.84,1.12,7.08,7.08,0,0,0,4.83.87,35.69,35.69,0,0,0,11-2.67,37.73,37.73,0,0,0,12.79-8.39c.56-.57,1.06-1.19,1.58-1.8s.72-.72,1.33-.05a15.7,15.7,0,0,1,2.75,4.51A31.4,31.4,0,0,1,78.18,38c.71,9.23-1.62,17.73-6,25.8a34.89,34.89,0,0,1-2.92,4.58A28.84,28.84,0,0,1,64.59,73a14.4,14.4,0,0,1-5.78,2.86,4.59,4.59,0,0,1-1.1.13c-.48,0-.83.08-.92.76a27.39,27.39,0,0,1-.85,4.08.88.88,0,0,0,0,.36c-.4.06-.37.43-.47.69-1,2.6-2.75,4.53-5.6,5.12a9.11,9.11,0,0,1-4.65-.41A25.68,25.68,0,0,1,31.93,77a6.43,6.43,0,0,1-1.07-2.22C30.78,74.49,30.59,74.43,30.39,74.33ZM56.87,39.46a7.54,7.54,0,0,1,2,.17,15.27,15.27,0,0,1,3.41.68,1.05,1.05,0,0,0,1.45-.37c.34-.64,0-1-.51-1.35a10.45,10.45,0,0,0-9.92-.79c-.33.14-.7.32-.68.71s.45.57.77.62A13.77,13.77,0,0,0,56.87,39.46ZM58,46.81a5.22,5.22,0,0,0-.12-1.25c-.17-.53-.41-1-1-1.09a1.36,1.36,0,0,0-1.36.64A5.32,5.32,0,0,0,54.47,49a1.43,1.43,0,0,0,1.11,1.36A1.44,1.44,0,0,0,57,49.61,5.23,5.23,0,0,0,58,46.81Zm9.1-1.55c-.2,0-.2.13-.23.22a13.12,13.12,0,0,0-.58,3.46,20.68,20.68,0,0,0,0,3.52,34.53,34.53,0,0,1,.38,5.74,2.12,2.12,0,0,1-1.85,2.21A7.49,7.49,0,0,1,61.44,60c-.18,0-.39-.23-.51,0a.43.43,0,0,0,.21.58,5.4,5.4,0,0,0,1,.41A4.1,4.1,0,0,0,67.5,57.8a25.14,25.14,0,0,0-.22-4.91,27,27,0,0,1-.12-5.82A4.6,4.6,0,0,0,67.12,45.26ZM71.65,40l-1.2.1a.78.78,0,0,0-.81.88c0,.49.32.74.85.73a13.35,13.35,0,0,1,6.19,1.16c.56.27,1,0,1-.67a.9.9,0,0,0-.62-1A15.48,15.48,0,0,0,71.65,40ZM70.37,50.28c0,.23,0,.45,0,.68a1.44,1.44,0,0,0,.94,1.39c.68.21,1.14-.21,1.46-.78a4.58,4.58,0,0,0,.58-3.43c-.15-.64-.46-1.16-1.12-1.24s-1,.4-1.27.89A4,4,0,0,0,70.37,50.28ZM60.83,66.83a5,5,0,0,0,1.42-.32c.2-.09.57-.14.49-.45s-.39-.14-.59-.13a11,11,0,0,1-4.26-.65,6.18,6.18,0,0,1-3.8-3.47c-.07-.17-.14-.44-.4-.35s-.17.32-.11.5A6.29,6.29,0,0,0,55,64.64C56.57,66.28,58.62,66.62,60.83,66.83Zm-4.78,9.08c-1.09-.2-2.21-.34-3.28-.62a19.29,19.29,0,0,1-10.28-6c-.15-.17-.33-.59-.61-.35s0,.54.14.8a7.94,7.94,0,0,0,1.55,1.62,23.25,23.25,0,0,0,8.45,4A10.23,10.23,0,0,0,56.05,75.91Z"/><path class="cls-5" d="M75.37,114.2A10.43,10.43,0,0,0,71.59,116c-2.88-1.51-5.63-3.23-8.42-4.89a2,2,0,0,1-1-2.08,2.25,2.25,0,0,1,1.72-2,1.42,1.42,0,0,1,1.09.11c3.13,1.72,6.29,3.38,9.26,5.35A2.59,2.59,0,0,1,75.37,114.2Z"/><path class="cls-1" d="M31.89,114.17c-.06,2.61-.37,5.19-.58,7.79-.25,3.14-.73,6.25-1.08,9.38-.09.84-.22,1.67-.35,2.64a4.52,4.52,0,0,1,.07-2.09c.37-2.88.75-5.75,1.05-8.64.24-2.35.43-4.7.62-7a5.67,5.67,0,0,1,.26-2Z"/><path class="cls-1" d="M31.88,114.16c0-3.1.39-6.18.31-9.28a1.5,1.5,0,0,1,.29-.9c0,1.84-.12,3.54-.19,5.24a40.19,40.19,0,0,1-.25,4.24c0,.24.07.51-.15.71Z"/><path class="cls-1" d="M94.69,154a29,29,0,0,1,1.85,4.76c-.23.1-.25,0-.27-.11-.49-1.39-.91-2.79-1.53-4.13a1.73,1.73,0,0,1-.06-.52Z"/><path class="cls-1" d="M14.52,128.31c.22.05.5.09.5.34s-.32.53-.63.63-.36-.12-.37-.34A.59.59,0,0,1,14.52,128.31Z"/><path class="cls-1" d="M29.31,137.76a9.61,9.61,0,0,1,.5-3.44Z"/><path class="cls-1" d="M97.16,160.36c-.55-.13-.5-.63-.65-1-.07-.18.12-.16.24-.19s.28,0,.34.16A1.33,1.33,0,0,1,97.16,160.36Z"/><path class="cls-1" d="M18.66,131.48c0,.22-.12.38-.35.39s-.38-.17-.38-.42.07-.42.32-.39S18.67,131.19,18.66,131.48Z"/><path class="cls-1" d="M10.09,123.45c-.24,0-.28-.14-.28-.33s0-.43.25-.46.26.2.31.35A.34.34,0,0,1,10.09,123.45Z"/><path class="cls-1" d="M41.51,140.79c-.21.65-.79.47-1.27.58Z"/><path class="cls-1" d="M94.08,152.36a.17.17,0,0,1,.14,0c0,.58.45,1,.47,1.61h0c-.37-.38-.45-.92-.75-1.35C93.83,152.49,94.05,152.47,94.08,152.36Z"/><path class="cls-1" d="M5.59,110.52c0,.23-.09.34-.28.31a.27.27,0,1,1,0-.54C5.55,110.28,5.57,110.43,5.59,110.52Z"/><path class="cls-1" d="M13.56,126.27s.2.11.21.2-.14.16-.26.16-.24-.08-.22-.24S13.39,126.23,13.56,126.27Z"/><path class="cls-1" d="M63.44,150.23c0-.2.06-.43-.14-.6.14-.18.31-.19.4,0A.43.43,0,0,1,63.44,150.23Z"/><path class="cls-1" d="M79.66,149c-.45.1-.7.08-.94-.16C79,148.65,79.27,148.86,79.66,149Z"/><path class="cls-1" d="M39.34,141.8c-.16.42-.5.27-.69.43C38.74,141.87,39,141.89,39.34,141.8Z"/><path class="cls-1" d="M15.49,128.89s-.16,0-.16-.08.08-.17.18-.19.22,0,.22.12S15.62,128.88,15.49,128.89Z"/><path class="cls-1" d="M67.63,149.29c0,.07.08.13.08.19s-.09.14-.19.12-.07-.09-.11-.14Z"/><path class="cls-1" d="M4.3,102.38a.39.39,0,0,1,.07.16c0,.11-.08.17-.18.11s-.06-.12-.06-.18S4.19,102.34,4.3,102.38Z"/><path class="cls-1" d="M8,118.2c-.06-.08-.12-.13-.12-.19s0-.19.16-.16a.23.23,0,0,1,.08.17S8.05,118.12,8,118.2Z"/><path class="cls-1" d="M44.26,139.64a.23.23,0,0,1-.22.2c-.06,0-.17-.05-.17-.07s.1-.17.2-.18A.45.45,0,0,1,44.26,139.64Z"/><path class="cls-1" d="M42.41,140.47c-.14.14-.27.28-.5.22.09-.27.31-.2.49-.23Z"/><path class="cls-1" d="M8.94,115.62s-.11,0-.12-.06,0-.08,0-.12.1,0,.12,0S9,115.57,8.94,115.62Z"/><path class="cls-1" d="M78.08,148.72l-.11-.07a.31.31,0,0,1,.12-.05s.07,0,.1.06Z"/><path class="cls-1" d="M62.53,150.09a.26.26,0,0,1-.29.29A.46.46,0,0,1,62.53,150.09Z"/><path class="cls-1" d="M42.7,140.31l.16-.11,0,.06-.19.06Z"/><path class="cls-1" d="M42.71,140.32a.33.33,0,0,1-.3.15h0a.36.36,0,0,1,.3-.15Z"/><path class="cls-1" d="M38.2,142.42l-.16.11,0-.05.19-.06Z"/><path class="cls-1" d="M36.54,143.17l.16-.11,0,.06-.19,0Z"/><path class="cls-1" d="M36.24,143.32a.33.33,0,0,1,.3-.15h0a.31.31,0,0,1-.3.15Z"/><path class="cls-1" d="M35.94,143.47a.33.33,0,0,1,.3-.15h0a.34.34,0,0,1-.3.16Z"/><path class="cls-1" d="M35.64,143.62a.33.33,0,0,1,.3-.15h0a.36.36,0,0,1-.31.15Z"/><path class="cls-1" d="M35.64,143.63a.33.33,0,0,1-.29.15h0a.33.33,0,0,1,.3-.15Z"/><path class="cls-1" d="M63.27,149.65a.29.29,0,0,1-.28.13A.25.25,0,0,1,63.27,149.65Z"/><path class="cls-1" d="M62.83,149.94a.28.28,0,0,1-.29.14A.28.28,0,0,1,62.83,149.94Z"/><path class="cls-1" d="M63.29,150.38l.14-.14Z"/><path class="cls-1" d="M63,149.79l-.14.14Z"/><path class="cls-1" d="M38.19,142.42l0-.06,0,.06Z"/><path class="cls-6" d="M124.82,124.23l-.1.11a2.09,2.09,0,0,0-.17,2.58c-.33.21-.8.07-1,.46h0a.37.37,0,0,0-.46.3h0a.41.41,0,0,0-.46.46v0a1.6,1.6,0,0,0-.69,1.68,1.39,1.39,0,0,1-.37,1.49h0a.15.15,0,0,0-.16.15h0a1,1,0,0,0-.46.6h0a2.76,2.76,0,0,0,.15,3.33h0a.72.72,0,0,0,.31.45v0l.16.16h0a.16.16,0,0,0,.16.16h0a.16.16,0,0,0,.16.16h0c0,.1.06.16.16.16h0c.12.27-.14.47-.14.72h0c-.16,0-.15.18-.17.31h0a1.3,1.3,0,0,0-.33.66l-3,6.42c-1,2.23-2.09,4.45-3.15,6.67a2.8,2.8,0,0,1-3.47,1.73q-7.12-1.6-14.24-3.26-10.38-2.41-20.76-4.86l-.58-.14A1.51,1.51,0,0,1,75,142.48c.38-1,.88-2.06,1.31-3.09.09-.2.27-.37.23-.62l.17-.25h0l.2-.16.11-.1c.16-.16.46-.17.47-.48h0c.19.11.24-.05.32-.16h0l.2-.15.11-.08c.18-.15.41-.24.47-.5h0c.12,0,.19,0,.15-.16h0c.13,0,.21,0,.15-.15h0c.23,0,.32-.08.3-.31h0q.21.06.15-.15h0a.46.46,0,0,0,.46-.46v0c.17.07.24-.05.31-.17h0a4.83,4.83,0,0,0,3.27-.54.83.83,0,0,0,.61.38c1.91.47,3.82.93,5.72,1.44a.7.7,0,0,0,1-.49c.57-1.38,1.17-2.75,1.75-4.13.69-1.63.7-1.69-1-2a18.18,18.18,0,0,0-3.93-.81,4,4,0,0,0-.76-3.6h0c0-.41.42-.36.57-.59.6-.21.6-.87.93-1.28.19.12.38.24.58.34,1.82,1,3.62,2,5.47,2.87a1.86,1.86,0,0,0,2.71-.84,2.08,2.08,0,0,0-.4-2,14.83,14.83,0,0,0,1.35-3c.19-.46-.13-.65-.56-.75-1.36-.3-2.7-.69-4.06-.94-.78-.15-1.53-.66-2.38-.27a2.44,2.44,0,0,0-.62-1.65h0l-.17-.16h0c0-.1-.05-.16-.16-.16h0a.14.14,0,0,0-.16-.16h0c0-.11-.06-.15-.16-.16h0c-.07-.12-.12-.27-.31-.16h0c0-.24-.18-.24-.32-.31v0c0-.15-.18-.16-.31-.16h0a1.52,1.52,0,0,0-.91-.47v0a1.09,1.09,0,0,0-.61-.34l0-.06q2.54-5.31,5.08-10.64c2.1-4.39,4.22-8.78,6.31-13.19.94-2,2-2.92,4.65-2.48,5.39.92,10.8,1.81,16.2,2.71l20,3.29c.22,0,.43.1.65.15a1.09,1.09,0,0,1,.9,1.65c-.82,2.17-1.93,4.21-2.9,6.32-3.13,6.8-6.29,13.59-9.43,20.38a.8.8,0,0,0,0,.15v0a8.26,8.26,0,0,0-.82-.33,2.49,2.49,0,0,0-2.63.3h0l-.16.16h0Zm.58-20.38.11.13c-.32,1-.64,1.92-1,2.88-.08.24-.35.53.16.59.34,0,.75.47,1-.18l2-5.82c.06-.16.17-.34-.1-.42-.45-.13-1-.34-1.27.19a12.1,12.1,0,0,1-1.48,1.63c-.52.65-1.11,1.25-1.78,2,.09-1.51-.19-2.84-.12-4.18,0-.6-.32-.69-.75-.79s-.71-.08-.88.44c-.62,1.8-1.29,3.58-1.92,5.38-.08.22-.51.55.11.73s.83.21,1-.4c.4-1.26.86-2.5,1.29-3.74a28.87,28.87,0,0,1,.15,4c0,.26,0,.46.34.56s.45,0,.61-.24a5.23,5.23,0,0,1,.66-.9C124.25,105.17,124.58,104.28,125.4,103.85ZM99.69,115.69c.45.09.55-.26.67-.56.83-2.18,1.66-4.37,2.47-6.56.29-.8.22-.92-.63-1.12-1.89-.43-3.79-.82-5.67-1.28-.5-.12-.75,0-.93.45-.9,2.29-1.8,4.58-2.72,6.86-.21.52,0,.74.47.84l2.7.59Zm20.11-15a1.49,1.49,0,0,0-1-1.33c-.73-.28-1.5-.33-2.23-.55-.44-.13-.67,0-.82.46-.6,1.79-1.23,3.56-1.84,5.35-.07.21-.34.53.18.58.34,0,.76.43,1-.24a14.68,14.68,0,0,1,.61-1.68c.07-.17,0-.57.42-.45s.53.14.57.55c.07.74.29,1.46.41,2.2.09.56.54.45.86.46.48,0,.27-.4.25-.61a8.66,8.66,0,0,0-.29-1.69c-.22-.68.13-.9.67-1.07A1.84,1.84,0,0,0,119.8,100.7Zm-9.09,3.74a3.28,3.28,0,0,0,.87-.12,4.16,4.16,0,0,0,2.52-4.11,2.42,2.42,0,0,0-3.31-2.32,3.88,3.88,0,0,0-2.68,3.52A2.48,2.48,0,0,0,110.71,104.44Zm-1.81-7.23c-1.3-.41-2.66-.52-4-.87-.25-.06-.28.14-.34.29l-2.06,5.81c-.06.16-.11.33.08.46a.77.77,0,0,0,1.24-.43c.08-.23.15-.47.23-.71.15-.44.2-1.05.51-1.28s.88.11,1.33.19a2.89,2.89,0,0,1,.51.11c.6.22.78-.14.91-.62s-.35-.38-.59-.46a7.49,7.49,0,0,0-.8-.15c-1.07-.21-1-.2-.71-1.25.2-.63.5-.75,1.09-.55a10.47,10.47,0,0,0,1.24.25C108.58,98.21,108.58,98.22,108.9,97.21Zm13.9,21.47c.36,0,.65,0,.69-.32s-.28-.26-.47-.33a2,2,0,0,0-.35-.1l-8.53-1.81q-5-1.07-9.9-2.17c-.35-.07-.66-.08-.75.25s.3.37.55.42l15,3.24Zm4.89-3.19c.27.07.54,0,.56-.3,0-.45-.41-.36-.65-.41-4.7-1-9.4-2-14.09-2.93-1.58-.34-3.16-.72-4.73-1.08-.22,0-.47-.15-.56.16s.13.41.36.49.24,0,.36.07c4.11,1,8.25,1.83,12.39,2.69Zm-28,9.2c-.1,0-.34,0-.37.24s.27.44.54.5L115.54,129c.84.19,1.7.35,2.55.55.2,0,.35,0,.43-.17a.34.34,0,0,0-.22-.48,2.91,2.91,0,0,0-.5-.16l-13.4-3C102.87,125.38,101.34,125.05,99.72,124.69Zm15.34,12.58c.15,0,.31-.06.35-.34s-.18-.33-.42-.39q-6.87-1.56-13.74-3.15l-4.21-1c-.22-.05-.47-.13-.54.19a.4.4,0,0,0,.33.5l.37.08,11.48,2.65Zm-5,3.06c.23,0,.47,0,.5-.26s-.26-.44-.53-.5c-3.42-.78-6.84-1.55-10.26-2.34-1.43-.33-2.86-.68-4.29-1-.21-.06-.45-.19-.52.16s0,.48.38.51a4.6,4.6,0,0,1,.5.13l10.4,2.41Zm4.82-15.19c.18,0,.41,0,.48-.22s-.15-.38-.37-.44l-.44-.11c-4.29-1-8.58-2-12.87-3-.33-.07-.84-.34-.92.21s.5.42.79.49c3.49.82,7,1.6,10.48,2.4Z"/><path class="cls-5" d="M96.46,124.27a2.08,2.08,0,0,1,.4,2,1.86,1.86,0,0,1-2.71.84c-1.85-.91-3.65-1.9-5.47-2.87-.2-.1-.39-.22-.58-.34a3.88,3.88,0,0,0-1.63-3.54c.09-.1.18-.21.28-.31a31,31,0,0,0,3.55,1.23c1.91,1,4,1.74,5.88,2.82l0,0c0,.12.14.15.25.17Z"/><path class="cls-6" d="M96.18,124.05c-1.9-1.08-4-1.79-5.88-2.82l-.11-.12c.45-.41.43-1,.61-1.52,2,.49,3.88,1,5.84,1.45.6.13.51.33.33.71A5.89,5.89,0,0,0,96.18,124.05Z"/><path class="cls-2" d="M87.17,125.13c-.15.23-.61.18-.57.59a3.29,3.29,0,0,1-1.25-.41,10.28,10.28,0,0,0-6-.84l-.66.08a.65.65,0,0,1,.57-.33,8.56,8.56,0,0,1,6.76.94C86.52,125.48,86.79,124.88,87.17,125.13Z"/><path class="cls-2" d="M86.75,120c-.1.1-.19.21-.28.31C83.83,119,81,119,78.13,119.16c.21-.06.41-.14.61-.18s.5,0,.74-.09a11.62,11.62,0,0,1,6.79.77A2.48,2.48,0,0,1,86.75,120Z"/><path class="cls-2" d="M83.54,130.72a8.73,8.73,0,0,0-5.28-.72,5.61,5.61,0,0,1,4.61,0c.31.15.64.3.72.69A.18.18,0,0,1,83.54,130.72Z"/><path class="cls-2" d="M86.58,125.73a4,4,0,0,1,.76,3.6l-.23.44-.37.49h0c0-.63.46-1.13.46-1.77a3.75,3.75,0,0,0-.47-2.06A.93.93,0,0,1,86.58,125.73Z"/><path class="cls-1" d="M83.23,135a4.83,4.83,0,0,1-3.27.54c.33-.33.75-.12,1.12-.17a9.16,9.16,0,0,0,2.18-.6l.09.1Z"/><path class="cls-2" d="M90.8,119.59c-.18.51-.16,1.11-.61,1.52a4.71,4.71,0,0,0,0-3.5,2.44,2.44,0,0,1,.62,1.65Z"/><path class="cls-1" d="M84.33,133.72c0-.64.2-1.26.14-1.91,0-.36.27-.35.51-.37h.08c-.29.11-.36.3-.31.63a2,2,0,0,1-.4,1.65Z"/><path class="cls-2" d="M87.78,115.94a1.52,1.52,0,0,1,.91.47A.83.83,0,0,1,87.78,115.94Z"/><path class="cls-1" d="M78.49,136.89c-.06.26-.29.35-.47.5C78,137.06,78.12,136.85,78.49,136.89Z"/><path class="cls-2" d="M77.44,137.79c0,.31-.31.32-.47.48C77,137.94,77.09,137.76,77.44,137.79Z"/><path class="cls-1" d="M83.58,134.62c0-.31.14-.47.45-.45h0a.88.88,0,0,1-.46.45Z"/><path class="cls-2" d="M83.59,130.65c.25,0,.38.2.55.45-.34,0-.46-.2-.6-.38A.18.18,0,0,0,83.59,130.65Z"/><path class="cls-2" d="M87.18,115.62a1.09,1.09,0,0,1,.61.34C87.53,116,87.19,116.07,87.18,115.62Z"/><path class="cls-1" d="M79.68,135.67a.46.46,0,0,1-.46.46A.63.63,0,0,1,79.68,135.67Z"/><path class="cls-2" d="M89,116.54c.14.07.35.07.32.31C89.08,116.87,89,116.78,89,116.54Z"/><path class="cls-2" d="M86.28,130.71c0-.21.09-.32.31-.3l0,0a.41.41,0,0,1-.32.29Z"/><path class="cls-2" d="M76.68,138.52l-.17.25-.19,0C76.37,138.63,76.46,138.5,76.68,138.52Z"/><path class="cls-1" d="M79.08,136.27c0,.23-.07.34-.3.31A.32.32,0,0,1,79.08,136.27Z"/><path class="cls-2" d="M85.06,131.45H85c.08-.23.26-.12.41-.12h0C85.31,131.46,85.19,131.46,85.06,131.45Z"/><path class="cls-2" d="M86,131c0-.22.09-.32.3-.3h0A.42.42,0,0,1,86,131Z"/><path class="cls-2" d="M77.73,137.62c-.08.11-.13.27-.32.16C77.46,137.63,77.58,137.6,77.73,137.62Z"/><path class="cls-1" d="M80,135.52c-.07.12-.14.24-.31.17C79.71,135.52,79.84,135.51,80,135.52Z"/><path class="cls-1" d="M83.26,134.75a.28.28,0,0,1,.32-.13h0l0,.11-.21.11Z"/><path class="cls-1" d="M84.18,134c0-.13,0-.26.15-.29h0l-.17.29Z"/><path class="cls-2" d="M88.68,116.4c.13,0,.26,0,.31.16C88.85,116.57,88.73,116.57,88.68,116.4Z"/><path class="cls-2" d="M85.39,131.32c0-.18.16-.17.3-.15v0c-.06.12-.19.13-.31.14Z"/><path class="cls-2" d="M85.69,131.17c0-.18.16-.17.29-.16h0a.33.33,0,0,1-.28.18Z"/><path class="cls-2" d="M89.28,116.85c.19-.11.24,0,.31.16A.23.23,0,0,1,89.28,116.85Z"/><path class="cls-2" d="M77.71,119.31l.06,0-.09.07s0-.05,0-.06S77.69,119.32,77.71,119.31Z"/><path class="cls-2" d="M77.91,137.47l-.2.15Z"/><path class="cls-2" d="M90,117.46l.17.16Z"/><path class="cls-2" d="M89.88,117.31c.11,0,.15.06.16.16Z"/><path class="cls-2" d="M89.73,117.16a.14.14,0,0,1,.16.16Z"/><path class="cls-2" d="M89.58,117c.1,0,.16,0,.16.16Z"/><path class="cls-2" d="M86.59,130.41a.14.14,0,0,1,.14-.15h0l-.13.17Z"/><path class="cls-1" d="M84,134.17l.15-.16h0l-.13.16Z"/><path class="cls-2" d="M86.88,115.51l0,.06,0-.06Z"/><path class="cls-1" d="M79.22,136.12q.06.21-.15.15Z"/><path class="cls-2" d="M76.86,138.37l-.2.16Z"/><path class="cls-1" d="M78.77,136.57c.06.16,0,.18-.15.15Z"/><path class="cls-1" d="M78.62,136.72c0,.14,0,.17-.15.16Z"/><path class="cls-2" d="M121.39,138.11a1.3,1.3,0,0,1,.33-.66l-.13,2A1.92,1.92,0,0,1,121.39,138.11Z"/><path class="cls-2" d="M121.55,131.29a1.39,1.39,0,0,0,.37-1.49,1.6,1.6,0,0,1,.69-1.68c-1.18,2,.46,3,1.64,4s2.71,2.27,4.07,3.41a3,3,0,0,1,.87,1.15A11.42,11.42,0,0,1,127,135a45.81,45.81,0,0,1-4.35-3.76C122.21,130.78,121.92,131.22,121.55,131.29Z"/><path class="cls-2" d="M123.52,127.38c.23-.39.7-.25,1-.46a2.09,2.09,0,0,1,.17-2.58c0,.08,0,.17,0,.22-.77,1.33.07,2.07,1,2.79a31.06,31.06,0,0,0,3,2,6.27,6.27,0,0,1,1.58,1.37l-.06.06a.73.73,0,0,1-.54-.22c-1.47-1.24-3.25-2-4.68-3.34-.28-.25-.38.06-.57.08S123.84,127.33,123.52,127.38Z"/><path class="cls-2" d="M125.16,123.92a2.49,2.49,0,0,1,2.63-.3,8.26,8.26,0,0,1,.82.33.29.29,0,0,1-.39.11A3.57,3.57,0,0,0,125.16,123.92Z"/><path class="cls-2" d="M121.11,135.37A2.76,2.76,0,0,1,121,132,4.89,4.89,0,0,0,121.11,135.37Z"/><path class="cls-2" d="M130.47,130.82a1.88,1.88,0,0,1,.74,1c-.42-.36-.7-.58-.8-1Z"/><path class="cls-2" d="M121.86,137.15c0-.25.26-.45.14-.72C122.38,136.63,122.36,136.75,121.86,137.15Z"/><path class="cls-2" d="M123.2,137.79a.51.51,0,0,1-.45-.43.16.16,0,0,1,.06-.08.52.52,0,0,1,.45.45Z"/><path class="cls-2" d="M121,132a1,1,0,0,1,.46-.6C121.39,131.73,121.35,132,121,132Z"/><path class="cls-2" d="M122.75,137.36a.38.38,0,0,1-.32-.43c.25,0,.27.23.38.35A.16.16,0,0,0,122.75,137.36Z"/><path class="cls-2" d="M122.61,128.14a.41.41,0,0,1,.46-.46A.68.68,0,0,1,122.61,128.14Z"/><path class="cls-2" d="M123.06,127.67a.37.37,0,0,1,.46-.3A.37.37,0,0,1,123.06,127.67Z"/><path class="cls-2" d="M121.41,135.83a.72.72,0,0,1-.31-.45C121.45,135.35,121.44,135.58,121.41,135.83Z"/><path class="cls-2" d="M121.7,137.46c0-.13,0-.27.17-.31C121.88,137.29,121.87,137.41,121.7,137.46Z"/><path class="cls-2" d="M124.82,124.23l.21-.16Z"/><path class="cls-2" d="M130.32,130.67l.15.15-.06.06-.15-.15Z"/><path class="cls-2" d="M121.41,131.44a.15.15,0,0,1,.16-.15Z"/><path class="cls-2" d="M121.57,136l-.16-.16Z"/><path class="cls-2" d="M121.72,136.12a.16.16,0,0,1-.16-.16Z"/><path class="cls-2" d="M121.87,136.27a.16.16,0,0,1-.16-.16Z"/><path class="cls-2" d="M122,136.42c-.1,0-.15-.06-.16-.16Z"/><path class="cls-2" d="M123.26,137.73l.15.15-.06.06-.15-.15Z"/><path class="cls-2" d="M125,124.08l.16-.16Z"/><path class="cls-3" d="M56.87,39.46a13.77,13.77,0,0,1-3.44-.33c-.32-.05-.74-.23-.77-.62s.35-.57.68-.71a10.45,10.45,0,0,1,9.92.79c.52.31.85.71.51,1.35a1.05,1.05,0,0,1-1.45.37,15.27,15.27,0,0,0-3.41-.68A7.54,7.54,0,0,0,56.87,39.46Z"/><path class="cls-3" d="M58,46.81a5.23,5.23,0,0,1-1,2.8,1.44,1.44,0,0,1-1.45.73A1.43,1.43,0,0,1,54.47,49a5.32,5.32,0,0,1,1.07-3.87,1.36,1.36,0,0,1,1.36-.64c.59.11.83.56,1,1.09A5.22,5.22,0,0,1,58,46.81Z"/><path class="cls-2" d="M67.12,45.26a4.6,4.6,0,0,1,0,1.81,27,27,0,0,0,.12,5.82,25.14,25.14,0,0,1,.22,4.91,4.1,4.1,0,0,1-5.33,3.27,5.4,5.4,0,0,1-1-.41.43.43,0,0,1-.21-.58c.12-.28.33-.09.51,0a7.49,7.49,0,0,0,3.45.38,2.12,2.12,0,0,0,1.85-2.21,34.53,34.53,0,0,0-.38-5.74,20.68,20.68,0,0,1,0-3.52,13.12,13.12,0,0,1,.58-3.46C66.92,45.39,66.92,45.28,67.12,45.26Z"/><path class="cls-3" d="M71.65,40a15.72,15.72,0,0,1,5.44,1.23.9.9,0,0,1,.62,1c-.06.62-.47.94-1,.67a13.35,13.35,0,0,0-6.19-1.16c-.53,0-.83-.24-.85-.73a.78.78,0,0,1,.81-.88Z"/><path class="cls-3" d="M70.37,50.28A4,4,0,0,1,71,47.79c.29-.49.67-1,1.27-.89s1,.6,1.12,1.24a4.58,4.58,0,0,1-.58,3.43c-.32.57-.78,1-1.46.78A1.44,1.44,0,0,1,70.37,51C70.35,50.73,70.37,50.51,70.37,50.28Z"/><path class="cls-2" d="M60.83,66.83c-2.21-.21-4.26-.55-5.82-2.19A6.29,6.29,0,0,1,53.58,62c-.06-.18-.16-.42.11-.5s.33.18.4.35a6.18,6.18,0,0,0,3.8,3.47,11,11,0,0,0,4.26.65c.2,0,.53-.12.59.13s-.29.36-.49.45A5,5,0,0,1,60.83,66.83Z"/><path class="cls-2" d="M56.05,75.91a10.23,10.23,0,0,1-4-.55,23.25,23.25,0,0,1-8.45-4A7.94,7.94,0,0,1,42,69.7c-.18-.26-.39-.6-.14-.8s.46.18.61.35a19.29,19.29,0,0,0,10.28,6C53.84,75.57,55,75.71,56.05,75.91Z"/><path class="cls-5" d="M99.69,115.69l-3.64-.78-2.7-.59c-.48-.1-.68-.32-.47-.84.92-2.28,1.82-4.57,2.72-6.86.18-.45.43-.57.93-.45,1.88.46,3.78.85,5.67,1.28.85.2.92.32.63,1.12-.81,2.19-1.64,4.38-2.47,6.56C100.24,115.43,100.14,115.78,99.69,115.69Zm-3.77-6.56c-.56,1.39-1,2.63-1.56,3.87-.1.24-.12.34.18.41l4.42,1c.19,0,.33,0,.41-.2l1.67-4.18c-1.11.6-2.1,1.08-3,1.66-.47.29-.67.16-.87-.24Zm1-1.76c-.53,0-.47.29-.33.6.37.78.77,1.56,1.14,2.34.18.37.37.33.69.15a13.31,13.31,0,0,1,2.85-1.42c.16-.05.27-.12.29-.29a.33.33,0,0,0-.3-.37Z"/><path class="cls-5" d="M125.4,103.85c-.82.43-1.15,1.32-1.8,1.91a5.23,5.23,0,0,0-.66.9c-.16.23-.3.34-.61.24s-.34-.3-.34-.56a28.87,28.87,0,0,0-.15-4c-.43,1.24-.89,2.48-1.29,3.74-.19.61-.54.54-1,.4s-.19-.51-.11-.73c.63-1.8,1.3-3.58,1.92-5.38.17-.52.46-.54.88-.44s.78.19.75.79c-.07,1.34.21,2.67.12,4.18.67-.75,1.26-1.35,1.78-2a12.1,12.1,0,0,0,1.48-1.63c.29-.53.82-.32,1.27-.19.27.08.16.26.1.42l-2,5.82c-.22.65-.63.22-1,.18-.51-.06-.24-.35-.16-.59.33-1,.65-1.92,1-2.88,0-.09.09-.23.07-.24S125.47,103.82,125.4,103.85Z"/><path class="cls-5" d="M119.8,100.7a1.84,1.84,0,0,1-1.29,2c-.54.17-.89.39-.67,1.07a8.66,8.66,0,0,1,.29,1.69c0,.21.23.63-.25.61-.32,0-.77.1-.86-.46-.12-.74-.34-1.46-.41-2.2,0-.41-.28-.47-.57-.55s-.35.28-.42.45A14.68,14.68,0,0,0,115,105c-.19.67-.61.28-1,.24-.52,0-.25-.37-.18-.58.61-1.79,1.24-3.56,1.84-5.35.15-.45.38-.59.82-.46.73.22,1.5.27,2.23.55A1.49,1.49,0,0,1,119.8,100.7ZM117.27,102c.83,0,1.25-.3,1.27-.92s-.65-1.06-1.53-1-.74,1-.77,1.46S117,101.77,117.27,102Z"/><path class="cls-5" d="M110.71,104.44a2.48,2.48,0,0,1-2.6-3,3.88,3.88,0,0,1,2.68-3.52,2.42,2.42,0,0,1,3.31,2.32,4.16,4.16,0,0,1-2.52,4.11A3.28,3.28,0,0,1,110.71,104.44Zm2.16-3.72c0-.84-.13-1.44-.86-1.73a1.52,1.52,0,0,0-1.75.48,3.15,3.15,0,0,0-1,2.42,1.42,1.42,0,0,0,2.24,1.21A2.9,2.9,0,0,0,112.87,100.72Z"/><path class="cls-5" d="M108.9,97.21c-.32,1-.32,1-1.34.79a10.47,10.47,0,0,1-1.24-.25c-.59-.2-.89-.08-1.09.55-.32,1-.36,1,.71,1.25a7.49,7.49,0,0,1,.8.15c.24.08.75-.17.59.46s-.31.84-.91.62a2.89,2.89,0,0,0-.51-.11c-.45-.08-1-.42-1.33-.19s-.36.84-.51,1.28c-.08.24-.15.48-.23.71a.77.77,0,0,1-1.24.43c-.19-.13-.14-.3-.08-.46l2.06-5.81c.06-.15.09-.35.34-.29C106.24,96.69,107.6,96.8,108.9,97.21Z"/><path class="cls-7" d="M122.8,118.68l-3.76-.82-15-3.24c-.25-.05-.65,0-.55-.42s.4-.32.75-.25q4.94,1.11,9.9,2.17l8.53,1.81a2,2,0,0,1,.35.1c.19.07.53,0,.47.33S123.16,118.69,122.8,118.68Z"/><path class="cls-7" d="M127.69,115.49l-6.36-1.31c-4.14-.86-8.28-1.67-12.39-2.69-.12,0-.25,0-.36-.07s-.44-.2-.36-.49.34-.21.56-.16c1.57.36,3.15.74,4.73,1.08,4.69,1,9.39,1.94,14.09,2.93.24,0,.68,0,.65.41C128.23,115.49,128,115.56,127.69,115.49Z"/><path class="cls-7" d="M99.72,124.69c1.62.36,3.15.69,4.68,1l13.4,3a2.91,2.91,0,0,1,.5.16.34.34,0,0,1,.22.48c-.08.2-.23.21-.43.17-.85-.2-1.71-.36-2.55-.55l-15.65-3.59c-.27-.06-.57-.12-.54-.5S99.62,124.69,99.72,124.69Z"/><path class="cls-7" d="M115.06,137.27l-6.38-1.45L97.2,133.17l-.37-.08a.4.4,0,0,1-.33-.5c.07-.32.32-.24.54-.19l4.21,1q6.87,1.59,13.74,3.15c.24.06.46.08.42.39S115.21,137.32,115.06,137.27Z"/><path class="cls-7" d="M83.35,134.85l.21-.11c.27,0,.55,0,.81.11,1.62.38,3.25.76,4.86,1.17.4.11.67.09.85-.33.64-1.54,1.29-3.08,2-4.66l-4.92-1.26.23-.44a18.18,18.18,0,0,1,3.93.81c1.72.35,1.71.41,1,2-.58,1.38-1.18,2.75-1.75,4.13a.7.7,0,0,1-1,.49c-1.9-.51-3.81-1-5.72-1.44a.83.83,0,0,1-.61-.38Z"/><path class="cls-7" d="M110.09,140.33l-3.82-.91L95.87,137a4.6,4.6,0,0,0-.5-.13c-.34,0-.44-.22-.38-.51s.31-.22.52-.16c1.43.34,2.86.69,4.29,1,3.42.79,6.84,1.56,10.26,2.34.27.06.57.11.53.5S110.32,140.31,110.09,140.33Z"/><path class="cls-7" d="M114.91,125.14l-2.85-.64c-3.5-.8-7-1.58-10.48-2.4-.29-.07-.86-.06-.79-.49s.59-.28.92-.21c4.29,1,8.58,2,12.87,3l.44.11c.22.06.45.13.37.44S115.09,125.13,114.91,125.14Z"/><path class="cls-7" d="M90.8,119.59v-.33c.85-.39,1.6.12,2.38.27,1.36.25,2.7.64,4.06.94.43.1.75.29.56.75a14.83,14.83,0,0,1-1.35,3h0a.25.25,0,0,0-.25-.17l0,0a5.89,5.89,0,0,1,.79-2.3c.18-.38.27-.58-.33-.71C94.68,120.61,92.75,120.08,90.8,119.59Z"/><path class="cls-6" d="M96.23,124.09a.25.25,0,0,1,.25.17C96.37,124.24,96.27,124.21,96.23,124.09Z"/><path class="cls-6" d="M87.11,129.77,92,131c-.66,1.58-1.31,3.12-2,4.66-.18.42-.45.44-.85.33-1.61-.41-3.24-.79-4.86-1.17-.26-.06-.54-.07-.81-.11l0-.11a.88.88,0,0,0,.46-.45l.13-.16.17-.29a2,2,0,0,0,.4-1.65c0-.33,0-.52.31-.63.13,0,.25,0,.33-.12s.25,0,.31-.14A.33.33,0,0,0,86,131a27.07,27.07,0,0,1,.63-.58l.13-.17Z"/><path class="cls-6" d="M95.92,109.13l1.21,2.36c.2.4.4.53.87.24.94-.58,1.93-1.06,3-1.66l-1.67,4.18c-.08.22-.22.24-.41.2l-4.42-1c-.3-.07-.28-.17-.18-.41C94.87,111.76,95.36,110.52,95.92,109.13Z"/><path class="cls-6" d="M96.92,107.37l4.34,1a.33.33,0,0,1,.3.37c0,.17-.13.24-.29.29a13.31,13.31,0,0,0-2.85,1.42c-.32.18-.51.22-.69-.15-.37-.78-.77-1.56-1.14-2.34C96.45,107.66,96.39,107.36,96.92,107.37Z"/><path class="cls-6" d="M125.4,103.85c.07,0,.07-.19.18-.11s0,.15-.07.24Z"/><path class="cls-6" d="M117.27,102c-.3-.19-1.07.16-1-.42s0-1.36.77-1.46,1.55.41,1.53,1S118.1,102,117.27,102Z"/><path class="cls-6" d="M112.87,100.72a2.9,2.9,0,0,1-1.34,2.38,1.42,1.42,0,0,1-2.24-1.21,3.15,3.15,0,0,1,1-2.42A1.52,1.52,0,0,1,112,99C112.74,99.28,112.88,99.88,112.87,100.72Z"/></svg>