<svg id="Calque_1" data-name="Calque 1" xmlns="http://www.w3.org/2000/svg" viewBox="0 0 146 208"><defs><style>.cls-1{fill:#fe823a;}.cls-2{fill:#feab69;}.cls-3{fill:#fefefe;}.cls-4{fill:#2c1913;}.cls-5{fill:#f4fafe;}.cls-6{fill:#1f3152;}.cls-7{fill:none;}</style></defs><title>sage_femme</title><path class="cls-1" d="M133.62,208l-.14-6.2a1.8,1.8,0,0,0-.39-.08c-4.67.15-9.35,0-14,.08-.72,0-.84-.22-.83-.87,0-3.35,0-6.69,0-10,0-.33.13-.76-.46-.71-.21.15-.42.26-.66.06a24.08,24.08,0,0,1-4.46.56c-2.57.19-5.15.44-7.73.54-3.85.17-7.7.47-11.55.66-3.61.17-7.23.36-10.84.3h-.67c-.27,0-.54.06-.81.06-7.52,0-15,0-22.56-.08a41.38,41.38,0,0,1-4.3-.28c-.7-.07-1,.07-.93.81v.5l-.09.25c.07,2-.29,4-.36,6.05s-.52,4.24-.5,6.38c0,.68-.11,1.33-.14,2h66.09c.32-1.81.65-3.61,1-5.42.08-.48.3-.62.76-.62q6.35,0,12.7,0c.45,0,.62.16.61.61a47,47,0,0,0,.16,5.44Z"/><path class="cls-2" d="M133.46,208a47,47,0,0,1-.16-5.44c0-.45-.16-.61-.61-.61q-6.36,0-12.7,0c-.46,0-.68.14-.76.62-.3,1.81-.63,3.61-1,5.42Z"/><path class="cls-3" d="M117.8,190.18c.59-.05.46.38.46.71,0,3.35,0,6.69,0,10,0,.65.11.87.83.87,4.67-.05,9.35.07,14-.08a1.8,1.8,0,0,1,.39.08,12,12,0,0,1,2.32-.33c.31,0,.44-.16.43-.46v-.65c0-12.59.06-25.18,0-37.77,0-3,0-5.91-.14-8.87-.13-2.7-.19-5.41-.33-8.11s-.18-5.31-.31-8c-.13-2.5-.31-5-.49-7.49-.22-3.07-.4-6.15-.7-9.22-.27-2.83-.61-5.68-1-8.51-.39-2.62-.94-5.2-1.42-7.8a41.07,41.07,0,0,0-1.47-4.9A38.37,38.37,0,0,0,126.72,92a22.48,22.48,0,0,0-2.49-3.3,68.3,68.3,0,0,0-5.58-5.32,43,43,0,0,0-5.07-3.91c-.32-.21-.56-.43-.52-.84a.74.74,0,0,1-1,.17,59.7,59.7,0,0,1-6.84-3.41l0,.18a.12.12,0,0,1,0,.09l0,0c.21.13.26.37.36.58v0a1,1,0,0,1,.08.14,30.76,30.76,0,0,1,2.65,10.33,65.54,65.54,0,0,1-.45,13.93l-.2.22h0c.25.23.09.51.1.77s0,.44,0,.65c-.32,2.16-.43,4.34-.57,6.52,0,.64-.15,1-.86.8-.33.41.08.35.26.36a2.62,2.62,0,0,1,1.56.46h0c.13,0,.28,0,.35.18l0,0,.35.18H109a3.21,3.21,0,0,1,1.34,1.24,5.3,5.3,0,0,1,.49,6,4.8,4.8,0,0,1-5.15,2.73c-.52-.19-1.12-.13-1.6-.46h0l-.51-.17h0l-.34-.18h0l-.06,0h-.07a4.38,4.38,0,0,1-2.3-3.1,6.22,6.22,0,0,1,.31-3.74h0l.17-.34v0l.18-.34h0l.17-.26a3,3,0,0,1,1.15-1.2l.16,0h0l.18-.17h0a2.91,2.91,0,0,1,1.07-.5h0a4.08,4.08,0,0,1,1.58-.31c.19,0,.62.17.48-.35-.65,0-.95-.27-.84-1,.15-1,.26-2.09.31-3.12.1-2.16.42-4.29.64-6.43a75.19,75.19,0,0,0,.43-9c0-2.25-.36-4.47-.57-6.71h0c-.56-1.85-1-3.74-1.71-5.55l-1.39-2.35-.19-.26h0l-.38-.4,0,0-.27-.26a.08.08,0,0,1-.07-.07l-.21-.21h0l-.2-.17L97,70.48c-.39,2.34-.84,4.67-1.42,7-1.32,5.52-2.86,11-4.49,16.41-2.18,7.25-4.59,14.42-7.06,21.57-.35,1-.78,2-1.24,3.12-.17-.59-.31-1-.42-1.41q-1.38-5.39-2.5-10.83c-.65-3.08-1.34-6.15-2-9.23-.52-2.51-1-5-1.49-7.54-.72-3.64-1.43-7.27-2-10.94l0-.37a3.51,3.51,0,0,1,0-1.21,5.49,5.49,0,0,1-.29-2.38V71.76L74,71.59c-1,.61-1.81,1.48-2.77,2.14a8.8,8.8,0,0,0-2.7,3A36.52,36.52,0,0,0,63.91,90.2l-.27,2.38c0,.25,0,.46.31.52a13.9,13.9,0,0,1,2.42.85.57.57,0,0,1,.26-.4,16.19,16.19,0,0,1,2.75-1.86c.16-.08.4-.14.34-.38s-.27-.14-.42-.15c-.48-.06-1-.08-1.44-.18-1-.18-2-.41-2.93-.62-.25,0-.52-.15-.45-.46s.4-.24.61-.2a10.53,10.53,0,0,1,1.26.31,37.43,37.43,0,0,0,4.07.64c.29.06.63.09.68.46s-.24.58-.54.73a17.93,17.93,0,0,0-2,1.22c-.59.4-1.07,1-1.88,1.06l.24.27h0l.21.13h0l.44.36h0l.17.17v0l.18.17h0l.17.17h0l.18.18h0l.18.18,0,0,.17.18h0l.18.17h0l.22.21a.08.08,0,0,1,.06.08,9.1,9.1,0,0,1,.88,1.34,13.75,13.75,0,0,1,1.23,4.54,3.38,3.38,0,0,1-.14,2.36,1.46,1.46,0,0,1,.18.94A66.71,66.71,0,0,1,70.49,117,47.31,47.31,0,0,1,68.15,126,22.16,22.16,0,0,0,66.7,130l0,.17a6.22,6.22,0,0,0,1.38-.65A15.86,15.86,0,0,1,71,127.87a1.22,1.22,0,0,1,1.07-1.14,1.11,1.11,0,0,1,1.2.65,1,1,0,0,1-.37,1.34h0a1.63,1.63,0,0,1-1.15.46,16.37,16.37,0,0,1-4.71,2.62,1,1,0,0,0,0,.24l2.25,7.75a12.56,12.56,0,0,1,.68,2.1,1.27,1.27,0,0,1,1.14.34c.12.08.25.15.16.33h0c.17-.06.18,0,.17.17h0c.2,0,.23.16.16.34h0c.23,0,.22.36.47.35.16-.54.45-.68,1-.54,1.65.43,2.15,1.11,2.07,3l.2.31h0a.26.26,0,0,1,.33.16h0c.11,0,.2,0,.18.17h0c.16-.05.25,0,.33.17h0l.18.18h0l.17.17h0a.37.37,0,0,1,.17.34h0a1.56,1.56,0,0,1,.24,1.72,1.55,1.55,0,0,0,.1,1.38h0c.11,0,.16.07.17.17h0a.59.59,0,0,1,.33.5h0a2.79,2.79,0,0,1,0,3.13h0c0,.1,0,.2-.17.17h0s0,0,0,.06a.42.42,0,0,1,0,.1l0,.18c0,.27.32.48.2.79h0c.23,0,.19.18.16.34h0c.2,0,.18.21.25.33a4.13,4.13,0,0,1,0,3.66,7.57,7.57,0,0,1-2,2.68,3.36,3.36,0,0,1,.2.43c.76,2.58,1.53,5.16,2.28,7.74a49.54,49.54,0,0,1,1.51,5.62A1.66,1.66,0,0,1,78,178.31l-10.77-.2a44.66,44.66,0,0,1-4.91-.14h-.57c-3.08.08-6.14-.29-9.22-.14.22,4.57.14,9.14.17,13.71,0,.49,0,1.06.6,1.27-.09-.74.23-.88.93-.81a41.38,41.38,0,0,0,4.3.28c7.52.05,15,.06,22.56.08.27,0,.54,0,.81-.06-.16-2.15-.41-4.31-.47-6.47-.09-3.19-.3-6.39-.32-9.58,0-6.13-.12-12.26.12-18.38.15-3.59,0-7.17.13-10.76.14-3.76.13-7.54.21-11.32.11-4.88-.28-9.77.32-14.64a1.08,1.08,0,0,0-.19-.7,178.38,178.38,0,0,1-8.41-16.18,10.56,10.56,0,0,1-.49-1.21.42.42,0,0,1,.18-.57c.26-.13.39.11.52.27a2,2,0,0,1,.22.44c.7,1.91,1.68,3.7,2.56,5.53,1.21,2.52,2.55,5,3.86,7.43.66,1.24,1.4,2.44,2.14,3.73.35-.48.63-.87.93-1.25,3.54-4.37,7.11-8.72,10.63-13.11,3.07-3.82,6.22-7.57,9.57-11.15.4-.44.28-.54-.18-.75a21.23,21.23,0,0,1-4.09-2.34,1.15,1.15,0,0,1-.53-1.11c.07-.36.51-.33.83-.35a4.1,4.1,0,0,0,.48-.1c2-.45,3.89-.94,5.81-1.51.18-.06.49-.32.62.06s-.11.51-.39.62a4,4,0,0,1-.46.13l-6,1.53a1.47,1.47,0,0,0,.6.61,22,22,0,0,0,4,2.08c.57.24.7.47.34,1A18,18,0,0,1,103,95.73c-1.58,1.85-3.17,3.69-4.75,5.55s-3.11,3.67-4.64,5.53-2.77,3.54-4.21,5.26c-2.09,2.49-4.09,5.05-6,7.63-.32.42-.79.79-.83,1.36-.13,1.84-.28,3.67-.33,5.51-.12,5,.13,9.94-.15,14.92-.19,3.41,0,6.83-.14,10.26-.17,5.56,0,11.13-.2,16.7-.12,3.1.25,6.19.17,9.28,0,1.08.07,2.17.1,3.25.1,3.36.31,6.71.52,10.06,0,.41.27.84,0,1.26,3.61.06,7.23-.13,10.84-.3,3.85-.19,7.7-.49,11.55-.66,2.58-.1,5.16-.35,7.73-.54a24.08,24.08,0,0,0,4.46-.56c-.09-3.88.13-7.76-.14-11.65-.18-2.54,0-5.09-.15-7.65-.16-2.26-.22-4.54-.34-6.81-.14-2.76-.35-5.51-.51-8.26s-.26-5.24-.47-7.86c-.22-2.8-.32-5.61-.49-8.42-.13-2.3-.2-4.6-.33-6.9-.11-1.92-.21-3.83-.33-5.75q-.31-5.26-.49-10.55c-.07-1.76,0-3.53,0-5.3a2.2,2.2,0,0,1,.13-.8c.08-.23.17-.41.45-.34s.28.33.22.53a10.57,10.57,0,0,0-.13,2.92c0,1.35,0,2.7.12,4.06.14,2.1.24,4.21.34,6.32.15,3,.32,6.05.49,9.08.11,2.13.24,4.27.32,6.4.12,3.14.33,6.27.5,9.41.15,2.67.32,5.34.48,8s.3,5.4.5,8.1c.19,2.4.25,4.81.3,7.22.06,2.82.23,5.64.21,8.46C117.78,183.71,117.8,186.94,117.8,190.18Zm-16.31-39.61c.47-.75,1.18-.33,1.73-.24s.48.68.54,1.15c.16,1.36-.59,2.79.31,4.09.27.24.18.55.18.84,0,2,0,4,0,6a1.27,1.27,0,0,0,.72.06c1.1,0,2.2-.1,3.31-.13.28,0,.62,0,.66.41.1,1.24.29,2.47.3,3.71a30.39,30.39,0,0,0,.22,3c.27,2.09.44,4.19.67,6.28s.26,3.94.62,5.89c.19,1,.08,1.12-1,1.18-.22,0-.43,0-.65.06-2.64.24-5.29.46-7.92.74a16.86,16.86,0,0,0-2.17.18c-1.3.33-2.63.24-3.93.48-.29.05-.46,0-.46-.37,0-1.82-.34-3.62-.48-5.43-.17-2.24-.36-4.49-.55-6.73-.21-2.49-.46-5-.75-7.48-.14-1.11-.08-1.11,1-1.17l5.69-.35c.29,0,.68.06.61-.49-.22-1.92-.05-3.85-.08-5.77a2,2,0,0,1,.83-1.67c.22-.18.51-.35.34-.72,0-.51-.06-1,0-1.52A3.9,3.9,0,0,1,101.49,150.57Z"/><path class="cls-4" d="M60.53,78.23c.32.36.67.19,1,0,1.65-.82,3.36-1.5,5-2.23a1.32,1.32,0,0,1,.62,0A7.89,7.89,0,0,1,69,73.69,15.13,15.13,0,0,1,74,69.92l.07-5.23V63.23A3.92,3.92,0,0,0,73.8,63a16.42,16.42,0,0,1-6.35-6.61A29.67,29.67,0,0,1,65.63,33,22.86,22.86,0,0,1,75,20.41,42.49,42.49,0,0,0,80,17a110.63,110.63,0,0,0,8.58,7.6c3.28,2.73,6.74,5.24,9.77,8.24a4.89,4.89,0,0,0,4.4,1.79,4,4,0,0,1,3.95,2.24,7.79,7.79,0,0,1-.9,8.8C104.56,47,103,48,101,47.43c-.39-.1-.47.17-.51.46-.09.56-.16,1.13-.26,1.69A24,24,0,0,1,96.55,58v.22c.06.92.14,1.84.16,2.76.09,2.82.15,5.64.22,8.46a1,1,0,0,0,.68.37,10.22,10.22,0,0,1,2.92,1.2,25.92,25.92,0,0,1,4.72,4.34,59.7,59.7,0,0,0,6.84,3.41.74.74,0,0,0,1-.17h0c0-.09.06-.16.17-.15a22.46,22.46,0,0,0,4-9,51.16,51.16,0,0,0,.41-8.21c0-4.13-.32-8.24-.68-12.36-.3-3.35-.91-6.65-1.47-10a66.28,66.28,0,0,0-3.46-12.68,37.48,37.48,0,0,0-5.31-9.64A24.24,24.24,0,0,0,95.47,8.72a30.8,30.8,0,0,0-13.12-1.6A23.64,23.64,0,0,0,69,12.1c-3.81,3.06-6.18,7.1-8,11.54a36.3,36.3,0,0,0-2.45,13.07c-.06,4,0,7.94-.19,11.9-.18,2.9-.5,5.79-.72,8.68-.4,5.24-.58,10.46.72,15.62a19.86,19.86,0,0,0,1.81,4.72l.1.13Z"/><path class="cls-3" d="M26.55,136.29c-.08.07-.22.13-.23.21-.39,2.14-1.67,3.92-2.37,5.93s-1.67,3.78-2,5.83-1,4.38-.61,6.6a19.61,19.61,0,0,0,2.21,6.95c2.13,3.65,5.52,5.54,9.29,6.87A16,16,0,0,0,37.94,170c.33,0,.5.3.75.46,0-.29.15-.2.3-.19.78.06,1.57.18,2.35.18,5,0,10,.17,15-.15a3.7,3.7,0,0,0,2.56-1l.36-1.23c-.17-.19-.22,0-.31.09a2.23,2.23,0,0,1-3-.69c-.5-.18-.65-.64-.81-1.06A19.1,19.1,0,0,1,54,162.62a15.2,15.2,0,0,1-.33-3.08.27.27,0,0,1,0-.15,5.51,5.51,0,0,1-.28-1.8v-.2a19.13,19.13,0,0,1,0-2.73,2.86,2.86,0,0,1,1.21-2.17l-3.52-.15-2.66-.24c.84-.29,1.69.21,2.49-.24-.12-.75-.21-1.5-.37-2.24-.1-.43,0-.52.43-.51.76,0,1.52,0,2.28,0,.36,0,.49-.15.38-.5a4.7,4.7,0,0,1-.13-.63c-.26-1.8-.26-1.8-2.06-1.78H51c-1.21,0-1.21,0-1.44-1.19-.41-2.17-.41-2.15-2.61-2.14-.52,0-.52.21-.44.58.12.55.23,1.11.34,1.67.2,1,.19,1-.9,1.15-.7.1-1.69-.32-2,.27s.08,1.41.15,2.14c0,.42.2.63.67.59.7-.05,1.41,0,2.12,0,.33,0,.73,0,.75.43,0,.8.38,1.54.38,2.41-1.67-.28-3.34-.37-5-.77a57.65,57.65,0,0,1-7.92-1.74c-1.66-.44-3.28-1-4.92-1.5-.05.25-.17.4-.45.31-.79-.26-1.58-.51-2.37-.8a.42.42,0,0,1-.24-.65l2.86.84a5.25,5.25,0,0,0-.09-.55c-.57-1.91-1.13-3.82-1.7-5.72C27.67,139.76,27.25,138,26.55,136.29Z"/><path class="cls-3" d="M60.28,77.76l-.1-.13A.64.64,0,0,0,60.28,77.76Z"/><path class="cls-3" d="M113.22,78.43c-.11,0-.15.06-.17.15Z"/><path class="cls-3" d="M53.19,193.57l.09-.25Z"/><path class="cls-5" d="M82.56,192.3c.24-.42,0-.85,0-1.26-.21-3.35-.42-6.7-.52-10.06,0-1.08-.14-2.17-.1-3.25.08-3.09-.29-6.18-.17-9.28.2-5.57,0-11.14.2-16.7.11-3.43,0-6.85.14-10.26.28-5,0-10,.15-14.92,0-1.84.2-3.67.33-5.51,0-.57.51-.94.83-1.36,2-2.58,4-5.14,6-7.63,1.44-1.72,2.79-3.52,4.21-5.26s3.08-3.7,4.64-5.53,3.17-3.7,4.75-5.55a18,18,0,0,0,1.31-1.45c.36-.55.23-.78-.34-1a22,22,0,0,1-4-2.08,1.47,1.47,0,0,1-.6-.61l6-1.53a4,4,0,0,0,.46-.13c.28-.11.49-.31.39-.62s-.44-.12-.62-.06c-1.92.57-3.86,1.06-5.81,1.51a4.1,4.1,0,0,1-.48.1c-.32,0-.76,0-.83.35a1.15,1.15,0,0,0,.53,1.11,21.23,21.23,0,0,0,4.09,2.34c.46.21.58.31.18.75-3.35,3.58-6.5,7.33-9.57,11.15-3.52,4.39-7.09,8.74-10.63,13.11-.3.38-.58.77-.93,1.25-.74-1.29-1.48-2.49-2.14-3.73-1.31-2.46-2.65-4.91-3.86-7.43-.88-1.83-1.86-3.62-2.56-5.53a2,2,0,0,0-.22-.44c-.13-.16-.26-.4-.52-.27a.42.42,0,0,0-.18.57,10.56,10.56,0,0,0,.49,1.21,178.38,178.38,0,0,0,8.41,16.18,1.08,1.08,0,0,1,.19.7c-.6,4.87-.21,9.76-.32,14.64-.08,3.78-.07,7.56-.21,11.32-.13,3.59,0,7.17-.13,10.76-.24,6.12-.17,12.25-.12,18.38,0,3.19.23,6.39.32,9.58.06,2.16.31,4.32.47,6.47Z"/><path class="cls-5" d="M117.8,190.18c0-3.24,0-6.47,0-9.71,0-2.82-.15-5.64-.21-8.46,0-2.41-.11-4.82-.3-7.22-.2-2.7-.34-5.4-.5-8.1s-.33-5.35-.48-8c-.17-3.14-.38-6.27-.5-9.41-.08-2.13-.21-4.27-.32-6.4-.17-3-.34-6.05-.49-9.08-.1-2.11-.2-4.22-.34-6.32-.09-1.36-.12-2.71-.12-4.06a10.57,10.57,0,0,1,.13-2.92c.06-.2.07-.46-.22-.53s-.37.11-.45.34a2.2,2.2,0,0,0-.13.8c0,1.77-.05,3.54,0,5.3q.18,5.28.49,10.55c.12,1.92.22,3.83.33,5.75.13,2.3.2,4.6.33,6.9.17,2.81.27,5.62.49,8.42.21,2.62.32,5.24.47,7.86s.37,5.5.51,8.26c.12,2.27.18,4.55.34,6.81.17,2.56,0,5.11.15,7.65.27,3.89,0,7.77.14,11.65C117.38,190.44,117.59,190.33,117.8,190.18Z"/><path class="cls-2" d="M70,141.88a27.21,27.21,0,0,0-8.51,3.27,14.53,14.53,0,0,0-4.89,4.3,8.78,8.78,0,0,0-1.46,2.6.48.48,0,0,1-.57.44,2.86,2.86,0,0,0-1.21,2.17,5.61,5.61,0,0,1,0,2.73v.2c.6.52.15,1.21.28,1.8a.27.27,0,0,0,0,.15,6.1,6.1,0,0,1,.33,3.08,19.1,19.1,0,0,0,1.12,3.78c.16.42.31.88.81,1.06l3.59-.08a56.31,56.31,0,0,0,7.08-.86c3.17-.61,6.31-1.31,8.79-3.61h0a.06.06,0,0,1,.06-.05l.16-.12v0l.19-.27a7.57,7.57,0,0,0,2-2.68,4.13,4.13,0,0,0,0-3.66.28.28,0,0,1-.25-.33h0a.3.3,0,0,1-.16-.34h0c-.52.06-.7.57-1.07.82-.16.11-.33.25-.5.06a.34.34,0,0,1,.06-.51l1.31-1.16,0-.18c-.12-.06-.1-.11,0-.16h0l.17-.17h0a7.34,7.34,0,0,0,0-3.13h0a.44.44,0,0,1-.33-.5h0l-.17-.17h0c-.26,0-.34.23-.49.37a6.8,6.8,0,0,1-1.25,1.15c-.23.13-.48.19-.64-.07s.12-.34.27-.48c1.19-1.09,2.3-2.23,1.77-4.07h0c-.17,0-.16-.2-.17-.34h0l-.17-.17h0l-.18-.18h0c-.13,0-.28,0-.33-.17h0l-.18-.17h0c-.14,0-.27,0-.33-.16h0c-.32,0-.47.16-.63.4-.4.6-.84,1.18-1.28,1.76-.11.14-.27.33-.47.19s-.11-.36,0-.52c.32-.5.64-1,1-1.46s.59-.8,1.19-.68c.08-1.87-.42-2.55-2.07-3-.57-.14-.86,0-1,.54a.51.51,0,0,1-.25.48c-.83.58-1.43,1.41-2.22,2A4.91,4.91,0,0,1,66.13,147c-.26,0-.52-.08-.52-.39s.31-.27.5-.26c2.63.23,4-1.69,5.51-3.28h0a.3.3,0,0,1-.16-.34h0l-.17-.17h0c-.15-.06-.36-.09-.16-.33A1.27,1.27,0,0,0,70,141.88Z"/><path class="cls-1" d="M74.44,78.61c.52,3.67,1.23,7.3,2,10.94.5,2.51,1,5,1.49,7.54.64,3.08,1.33,6.15,2,9.23q1.13,5.45,2.5,10.83c.11.41.25.82.42,1.41.46-1.14.89-2.11,1.24-3.12,2.47-7.15,4.88-14.32,7.06-21.57,1.63-5.43,3.17-10.89,4.49-16.41-.34.14-.5.49-.89.61-1.25.38-2.46.85-3.7,1.27a27.39,27.39,0,0,1-8.36,1.49A17.76,17.76,0,0,1,76,79.58,3.23,3.23,0,0,1,74.44,78.61Z"/><path class="cls-6" d="M101.27,154.14c.17.37-.12.54-.34.72a2,2,0,0,0-.83,1.67c0,1.92-.14,3.85.08,5.77.07.55-.32.47-.61.49l-5.69.35c-1.11.06-1.17.06-1,1.17.29,2.49.54,5,.75,7.48.19,2.24.38,4.49.55,6.73.14,1.81.49,3.61.48,5.43,0,.35.17.42.46.37,1.3-.24,2.63-.15,3.93-.48a16.86,16.86,0,0,1,2.17-.18c2.63-.28,5.28-.5,7.92-.74.22,0,.43,0,.65-.06,1.07-.06,1.18-.17,1-1.18-.36-2-.4-3.93-.62-5.89s-.4-4.19-.67-6.28a30.39,30.39,0,0,1-.22-3c0-1.24-.2-2.47-.3-3.71,0-.45-.38-.41-.66-.41-1.11,0-2.21.09-3.31.13a1.27,1.27,0,0,1-.72-.06c-.3.73-1,.47-1.51.55s-.68,0-.67-.57c0-1.46,0-2.93,0-4.4a4.73,4.73,0,0,0,0-1.77c-.35-.8.26-.9.61-.93a4.65,4.65,0,0,1,1.43.28c-.9-1.3-.15-2.73-.31-4.09-.06-.47-.09-1.08-.54-1.15s-1.26-.51-1.73.24c0,.92,0,1.85,0,2.77C101.46,153.61,101.6,153.94,101.27,154.14Zm-1,5.13h0c0-1,0-1.89,0-2.84,0-.24-.17-.71.38-.54.39.12,1.1-.33,1.11.52,0,2.09,0,4.17,0,6.25,0,.19,0,.38-.29.37a1.15,1.15,0,0,1-1.2-1.16Z"/><path class="cls-2" d="M74.44,78.61a3.23,3.23,0,0,0,1.6,1,17.76,17.76,0,0,0,6.58,1.25A27.39,27.39,0,0,0,91,79.34c1.24-.42,2.45-.89,3.7-1.27.39-.12.55-.47.89-.61.58-2.31,1-4.64,1.42-7a2.66,2.66,0,0,1-.07-1c-.07-2.82-.13-5.64-.22-8.46,0-.92-.1-1.84-.16-2.76-.16.21-.23.47-.4.69a20.19,20.19,0,0,1-7.87,6.28c-3.37,1.57-6.82,2.09-10.36.47-1.2-.54-2.41-1.1-3.62-1.66l-.18.7c0,1.75,0,3.49-.07,5.23v1.67l.06.17a6.27,6.27,0,0,1,0,2.89A5.49,5.49,0,0,0,74.37,77a1.11,1.11,0,0,1,0,1.21Z"/><path class="cls-6" d="M96.92,69.43a2.66,2.66,0,0,0,.07,1L101.74,74l.2.17h0c.14,0,.3,0,.21.21a.08.08,0,0,0,.07.07c.27-.11.34,0,.27.26l0,0c.36-.09.39.13.38.4h0a.28.28,0,0,1,.19.26l1.39,2.35a12.26,12.26,0,0,1,1.71,5.55h0c.14.06.16.19.19.33.26,1.49.39,3,.52,4.5a53.59,53.59,0,0,1-.28,10.29c-.17,1.72-.39,3.43-.57,5.15s-.25,3.4-.46,5.08c-.09.71.42.59.74.7s.7,0,.7-.51a36.91,36.91,0,0,1,.35-4.93c.1-.77-.11-1.62.44-2.32,0-.26.15-.54-.1-.77h0l.2-.22c-.21-.1-.2-.26-.18-.47.21-2.15.48-4.29.57-6.44a46.44,46.44,0,0,0-.59-10.06,23.8,23.8,0,0,0-1.72-6,2.48,2.48,0,0,1-.36-1.47v0c-.54.06-.3-.35-.36-.58l0,0-.09-.06.06,0,0-.18A25.92,25.92,0,0,0,100.52,71a10.22,10.22,0,0,0-2.92-1.2A1,1,0,0,1,96.92,69.43Z"/><path class="cls-5" d="M105.67,120.66a4.8,4.8,0,0,0,5.15-2.73,5.3,5.3,0,0,0-.49-6,3.21,3.21,0,0,0-1.34-1.24l-.07.11-.11-.12h0c-.15,0-.3,0-.35-.18l0,0c-.15,0-.29,0-.35-.18h0a9,9,0,0,0-4-.16h0a1.35,1.35,0,0,1-1.07.5h0c0,.13-.07.17-.18.17h0l-.07.13-.09-.11a3,3,0,0,0-1.15,1.2c0,.1,0,.23-.17.26h0c0,.13.06.31-.18.34v0c0,.14.07.32-.17.34h0a8,8,0,0,0-.17,3.57s-.09.11-.14.17a4.38,4.38,0,0,0,2.3,3.1l.08-.09,0,.12h0c.13,0,.3,0,.34.18h0c.19,0,.41-.08.51.17h0C104.63,120.28,105.23,120.18,105.67,120.66Zm3-7.25,0,0,.16.25,0,.08a3.37,3.37,0,0,1-.19,3.35l0,0-.1.16,0,0-.25.27a.08.08,0,0,1-.08.07.16.16,0,0,1-.12.09.09.09,0,0,1-.06.06,3,3,0,0,1-3.23.48l0,0-.16-.07a1.61,1.61,0,0,1-1.07-.87l-.16-.22,0,0-.21-.37s0-.06,0-.1a3.2,3.2,0,0,1,0-2.86l0,0,.15-.27,0,0,.17-.22a3.13,3.13,0,0,1,5.13.15Z"/><path class="cls-5" d="M66.7,130A22.16,22.16,0,0,1,68.15,126,47.31,47.31,0,0,0,70.49,117a66.71,66.71,0,0,0,.64-11.47,1.46,1.46,0,0,0-.18-.94c-.39,0-.83.35-1.17-.14h0l-.29,0c-.09,2.52.06,5-.14,7.56-.17,2.13-.42,4.24-.78,6.34a55.64,55.64,0,0,1-2.54,9.3C66.46,128.32,66.35,129.22,66.7,130Z"/><path class="cls-5" d="M104.07,155.57a4.65,4.65,0,0,0-1.43-.28c-.35,0-1,.13-.61.93a4.73,4.73,0,0,1,0,1.77c0,1.47,0,2.94,0,4.4,0,.56.22.64.67.57s1.21.18,1.51-.55c0-2,0-4,0-6C104.25,156.12,104.34,155.81,104.07,155.57Z"/><path class="cls-5" d="M66.73,130.15a7.05,7.05,0,0,0,.35,1.64,16.37,16.37,0,0,0,4.71-2.62,1.37,1.37,0,0,1-.75-1.3,15.86,15.86,0,0,0-2.93,1.63A6.22,6.22,0,0,1,66.73,130.15Z"/><path class="cls-5" d="M66.67,94.12c.81,0,1.29-.66,1.88-1.06a17.93,17.93,0,0,1,2-1.22c.3-.15.59-.34.54-.73s-.39-.4-.68-.46A37.43,37.43,0,0,1,66.35,90a10.53,10.53,0,0,0-1.26-.31c-.21,0-.54-.13-.61.2s.2.41.45.46c1,.21,1.95.44,2.93.62.47.1,1,.12,1.44.18.15,0,.37-.06.42.15s-.18.3-.34.38a16.19,16.19,0,0,0-2.75,1.86.57.57,0,0,0-.26.4C66.42,94.09,66.55,94.1,66.67,94.12Z"/><path class="cls-1" d="M71.62,143c-1.54,1.59-2.88,3.51-5.51,3.28-.19,0-.49-.06-.5.26s.26.37.52.39a4.91,4.91,0,0,0,3.49-1.07c.79-.62,1.39-1.45,2.22-2a.51.51,0,0,0,.25-.48C71.84,143.4,71.85,143.05,71.62,143Z"/><path class="cls-1" d="M76.68,147.28c.53,1.84-.58,3-1.77,4.07-.15.14-.44.21-.27.48s.41.2.64.07a6.8,6.8,0,0,0,1.25-1.15c.15-.14.23-.37.49-.37a1.55,1.55,0,0,1-.1-1.38A1.56,1.56,0,0,0,76.68,147.28Z"/><path class="cls-1" d="M75.18,145.83c-.6-.12-.9.3-1.19.68s-.68,1-1,1.46c-.1.16-.16.39,0,.52s.36-.05.47-.19c.44-.58.88-1.16,1.28-1.76.16-.24.31-.43.63-.4Z"/><path class="cls-1" d="M77.3,154.65,76,155.81a.34.34,0,0,0-.06.51c.17.19.34.05.5-.06.37-.25.55-.76,1.07-.82C77.62,155.13,77.35,154.92,77.3,154.65Z"/><path class="cls-6" d="M106.36,109.59a.19.19,0,0,0-.15,0c.14.52-.29.33-.48.35a4.08,4.08,0,0,0-1.58.31,9,9,0,0,1,4,.16,2.62,2.62,0,0,0-1.56-.46C106.44,109.94,106,110,106.36,109.59Z"/><path class="cls-1" d="M77.49,151a7.34,7.34,0,0,1,0,3.13A2.79,2.79,0,0,0,77.49,151Z"/><path class="cls-6" d="M67.22,178.11a8.47,8.47,0,0,0-2.56-.14c-.78,0-1.57,0-2.35,0A44.66,44.66,0,0,0,67.22,178.11Z"/><path class="cls-6" d="M100.84,116.75c0-.06.15-.13.14-.17a8,8,0,0,1,.17-3.57A6.22,6.22,0,0,0,100.84,116.75Z"/><path class="cls-1" d="M74.08,74.65a6.27,6.27,0,0,0,0-2.89C74.08,72.72,74.08,73.69,74.08,74.65Z"/><path class="cls-6" d="M103.1,110.74a1.35,1.35,0,0,0,1.07-.5A2.91,2.91,0,0,0,103.1,110.74Z"/><path class="cls-1" d="M74.41,78.24a1.11,1.11,0,0,0,0-1.21A3.51,3.51,0,0,0,74.41,78.24Z"/><path class="cls-1" d="M77.17,150.54a.44.44,0,0,0,.33.5A.59.59,0,0,0,77.17,150.54Z"/><path class="cls-6" d="M104.09,120.21c-.1-.25-.32-.17-.51-.17Z"/><path class="cls-1" d="M71.14,142.22c-.2.24,0,.27.16.33C71.39,142.37,71.26,142.3,71.14,142.22Z"/><path class="cls-6" d="M103.6,120.05c0-.21-.21-.15-.34-.18Z"/><path class="cls-1" d="M77.66,155.77a.28.28,0,0,0,.25.33C77.84,156,77.86,155.79,77.66,155.77Z"/><path class="cls-1" d="M77.5,155.44a.3.3,0,0,0,.16.34C77.69,155.62,77.73,155.46,77.5,155.44Z"/><path class="cls-1" d="M76.51,147c0,.14,0,.29.17.34A.37.37,0,0,0,76.51,147Z"/><path class="cls-1" d="M75.86,146.46c0,.17.2.17.33.17C76.11,146.51,76,146.41,75.86,146.46Z"/><path class="cls-1" d="M75.37,146.14c.06.16.19.16.33.16A.26.26,0,0,0,75.37,146.14Z"/><path class="cls-1" d="M71.46,142.71a.3.3,0,0,0,.16.34C71.69,142.87,71.66,142.75,71.46,142.71Z"/><path class="cls-6" d="M108.15,110.4c.06.18.2.18.35.18C108.43,110.43,108.28,110.44,108.15,110.4Z"/><path class="cls-6" d="M108.48,110.56c0,.19.2.19.35.18Z"/><path class="cls-6" d="M101.14,113c.24,0,.15-.2.17-.34Z"/><path class="cls-6" d="M101.3,112.7c.24,0,.16-.21.18-.34Z"/><path class="cls-6" d="M101.47,112.37c.14,0,.13-.16.17-.26Z"/><path class="cls-6" d="M102.79,110.91l.09.11.07-.13Z"/><path class="cls-6" d="M102.93,110.9c.11,0,.2,0,.18-.17Z"/><path class="cls-6" d="M108.81,110.73l.11.12.07-.11Z"/><path class="cls-1" d="M71.29,142.55l.17.17C71.47,142.59,71.46,142.49,71.29,142.55Z"/><path class="cls-1" d="M75.69,146.3l.18.17C75.89,146.33,75.8,146.31,75.69,146.3Z"/><path class="cls-1" d="M76.18,146.62l.18.18Z"/><path class="cls-1" d="M76.35,146.79l.17.17Z"/><path class="cls-1" d="M77,150.38l.17.17C77.16,150.45,77.11,150.38,77,150.38Z"/><path class="cls-1" d="M77.5,154.15l-.17.17C77.47,154.35,77.49,154.25,77.5,154.15Z"/><path class="cls-1" d="M77.34,154.31c-.12.05-.14.1,0,.16a.42.42,0,0,0,0-.1S77.34,154.33,77.34,154.31Z"/><path class="cls-6" d="M103.27,119.88l0-.12-.08.09h.07Z"/><path class="cls-5" d="M19.88,80.56c0-2.74,0-5.49,0-8.23,0-.53-.1-.78-.71-.78q-4.26,0-8.51,0c-.66,0-1,.18-.91.88.32,5.53.1,11.07.15,16.6,0,.5.17.67.67.66H19c.7,0,.93-.28.93-1C19.86,86,19.88,83.28,19.88,80.56Z"/><path class="cls-5" d="M43.61,45.62c-1.41,0-2.82,0-4.24,0-.62,0-.87.29-.87.79a33.65,33.65,0,0,0,.11,5.12,4.39,4.39,0,0,1,0,.81c0,3.54,0,7.07,0,10.6,0,.64.18.84.83.83,2.46,0,4.92,0,7.39,0,.45,0,.9-.12,1.36-.16s.4-.22.39-.5c-.08-2.19.12-4.38-.12-6.58a23.07,23.07,0,0,1,.07-3.11c0-.75,0-1.5.05-2.24,0-1.53,0-3,0-4.57,0-.72-.15-1-.94-1C46.33,45.67,45,45.62,43.61,45.62Z"/><path class="cls-5" d="M9.92,54.59c0,2.72,0,5.44,0,8.16,0,.72.18,1,1,1,2.74,0,5.49,0,8.23,0,.6,0,.8-.17.8-.78q0-8.28,0-16.56c0-.68-.24-.81-.85-.8-2.77,0-5.55,0-8.32,0-.66,0-.83.2-.82.84C9.94,49.16,9.92,51.88,9.92,54.59Z"/><path class="cls-5" d="M43.53,71.57c-1.44,0-2.88,0-4.32,0-.58,0-.74.19-.74.76,0,2.52-.12,5.06.05,7.58.19,2.93.07,5.86.11,8.79,0,.68.21.86.88.86,2.69,0,5.38-.05,8.07,0,.84,0,1-.39,1-1.07-.07-1.68,0-3.36-.11-5a37.55,37.55,0,0,1,.06-5.61c.16-1.92,0-3.86.05-5.79,0-.5-.33-.46-.67-.46Z"/><path class="cls-5" d="M24.29,58.35c0,1.86,0,3.22,0,4.57,0,.6.19.83.8.82,2.53,0,5.06,0,7.59,0,.23,0,.47-.12.71-.11.65,0,.72-.35.71-.89,0-1.76-.07-3.53,0-5.3.15-3.56.15-7.13.15-10.7,0-1.11,0-1.09-1.15-1.12-2.71-.06-5.42.3-8.13.16-.56,0-.7.21-.68.72.09,2,0,3.95.12,5.94S24.18,56.7,24.29,58.35Z"/><path class="cls-5" d="M24.28,80.59c0,2.72,0,5.44,0,8.16,0,.61.18.79.79.78,2.72,0,5.44,0,8.16,0,.66,0,.89-.17.88-.86,0-2.69-.1-5.38,0-8.06s.12-5.35.16-8c0-.76-.18-1.07-1-1-2.64,0-5.28,0-7.91,0-1.06,0-1.06,0-1.06,1C24.28,75.26,24.28,77.93,24.28,80.59Z"/><path class="cls-5" d="M19.88,106.49c0-2.66,0-5.33,0-8,0-.62-.15-.87-.82-.84-1.22,0-2.44,0-3.67,0-1.51,0-3-.08-4.54-.16-.69,0-1,.17-1,.91,0,4.89,0,9.78,0,14.67,0,.59.12,1.18.15,1.77,0,.37.22.45.53.45q4.37,0,8.72,0c.6,0,.55-.36.55-.75Z"/><path class="cls-5" d="M34.08,109.42c.28-3.61.1-7.22.18-10.83,0-.7-.16-.94-.9-.93q-4.08.06-8.16,0c-.73,0-1,.25-.92,1,.08,1.6.14,3.22.1,4.79-.07,2.28,0,4.56-.08,6.84,0,.81.09,1.62.15,2.43,2.45.22,4.91.22,7.37.21-.37-1.09-.74-2.18.4-3.07A5,5,0,0,1,34.08,109.42Z"/><path class="cls-2" d="M32.22,109.81c-1.14.89-.77,2-.4,3.07l.69,2.78a.72.72,0,0,0,.91.6,13.55,13.55,0,0,1,1.43-.1,11,11,0,0,1,4.16-.1c.37,0,.76.11,1.1-.14a9.87,9.87,0,0,1,3.47,0,2.28,2.28,0,0,0,1.07-.1,11.2,11.2,0,0,1,4-.06h.19c.07-.27.13-.53.19-.8a12.91,12.91,0,0,1-.28-1.85c0-.13-.08-.26-.13-.38s0-.17-.07-.26c-.44-.29-.49-.77-.61-1.22h0c-.19,0-.26-.15-.17-.33h0c-.14,0-.2,0-.17-.17h0c-.61,0-1.11-.4-1.7-.44-2.48-.17-5-.42-7.44-.48A50.29,50.29,0,0,0,32.22,109.81Z"/><path class="cls-5" d="M41.08,109.64a116.89,116.89,0,0,1,3.5-11.58c.15-.41,0-.55-.38-.55H39.15c-.63,0-.5.45-.5.8q0,5.14,0,10.27c0,.42,0,.85-.51,1A20.59,20.59,0,0,0,41.08,109.64Z"/><path class="cls-5" d="M54.8,112.48l1.48-.13c-.1-2-.23-4.1-.17-6.15H56l0,0a.68.68,0,0,1-.88,0h0c-.41,0-.43-.34-.58-.57,0,.27-.1.54.16.75a15.91,15.91,0,0,1,0,3.65A9.22,9.22,0,0,0,54.8,112.48Z"/><path class="cls-6" d="M41.08,109.64a20.59,20.59,0,0,1-2.94-.1,39.24,39.24,0,0,1-4.06-.12,5,5,0,0,0-1.86.39,50.29,50.29,0,0,1,6.26,0c2.48.06,5,.31,7.44.48.59,0,1.09.46,1.7.44a1.65,1.65,0,0,0-1.33-.58,20.66,20.66,0,0,0-3-.22A6.64,6.64,0,0,1,41.08,109.64Z"/><path class="cls-6" d="M54.68,110a15.91,15.91,0,0,0,0-3.65C54.67,107.58,54.67,108.8,54.68,110Z"/><path class="cls-6" d="M47.94,111.22c.12.45.17.93.61,1.22C48.38,112,48.5,111.45,47.94,111.22Z"/><path class="cls-5" d="M53.18,112.64a1.09,1.09,0,0,0,.73-.1C53.66,112.55,53.4,112.46,53.18,112.64Z"/><path class="cls-5" d="M48.93,112.63h.48A.32.32,0,0,0,48.93,112.63Z"/><path class="cls-6" d="M47.78,110.9c-.09.18,0,.29.17.33A.32.32,0,0,0,47.78,110.9Z"/><path class="cls-6" d="M47.61,110.74c0,.15,0,.2.17.17Z"/><path class="cls-2" d="M96.55,58a24,24,0,0,0,3.7-8.41c.1-.56.17-1.13.26-1.69,0-.29.12-.56.51-.46,2,.52,3.54-.44,4.82-1.81a7.79,7.79,0,0,0,.9-8.8,4,4,0,0,0-3.95-2.24,4.89,4.89,0,0,1-4.4-1.79c-3-3-6.49-5.51-9.77-8.24A110.63,110.63,0,0,1,80,17a42.49,42.49,0,0,1-5,3.46A22.86,22.86,0,0,0,65.63,33a29.67,29.67,0,0,0,1.82,23.36A16.42,16.42,0,0,0,73.8,63a3.92,3.92,0,0,1,.32.25l3.3,1.53a10.76,10.76,0,0,0,7.25,1,19.58,19.58,0,0,0,11.07-7.37C96,58.1,96.08,57.69,96.55,58Zm-7.4-27.54a10.25,10.25,0,0,1,4.91,1.33c.49.32,1,.75.64,1.41s-.9.56-1.46.3a11.41,11.41,0,0,0-6.45-.73c-.7.09-1.1-.16-1.24-.71s.31-.9.79-1.07A10.64,10.64,0,0,1,89.15,30.45ZM73.5,32.67c-.76.1-1.52,0-2.28.19a20.08,20.08,0,0,0-2.17.65A.86.86,0,0,1,68,33.18c-.28-.44-.07-.77.25-1.07a5.17,5.17,0,0,1,.62-.52,5.41,5.41,0,0,1,2.68-.94A9.75,9.75,0,0,1,76.1,31c.4.16.92.32.78,1a1.24,1.24,0,0,1-1.37.9C74.84,32.66,74.16,32.79,73.5,32.67ZM82.18,49.1a3.92,3.92,0,0,1-4.05-.47,2.65,2.65,0,0,1-.93-3.06A16.2,16.2,0,0,1,78,43.86c1-2,2-4.06,1.8-6.42,0-.18,0-.42.22-.45s.26.22.31.4a5.84,5.84,0,0,1-.16,3.13,46.59,46.59,0,0,1-2.07,4.95,2.09,2.09,0,0,0,1.12,3C80.11,49,81.15,48.78,82.18,49.1ZM71,38.66a2.57,2.57,0,0,1,.27-1.49,1.19,1.19,0,0,1,1.15-.75,1.36,1.36,0,0,1,1.3.81A3.1,3.1,0,0,1,73.56,40a1.44,1.44,0,0,1-1.37.86c-.65-.06-.93-.56-1.13-1.13A3.42,3.42,0,0,1,71,38.66Zm17.12.27A3.5,3.5,0,0,1,88.36,37c.5-.84,1.07-.89,1.78-.23,1,.9.61,3-.09,3.66a1.05,1.05,0,0,1-1.72-.27A2.41,2.41,0,0,1,88.07,38.93Zm-7,16.33a7.82,7.82,0,0,1-4.39-1.1c-.21-.12-.62-.25-.45-.57s.49,0,.7.08a9.28,9.28,0,0,0,3.88,1.08,9.53,9.53,0,0,0,4.93-1.41c.2-.12.47-.37.65-.1s-.13.47-.36.59A9.46,9.46,0,0,1,81.07,55.26Z"/><path class="cls-1" d="M96.55,58c-.47-.3-.6.11-.81.38a19.58,19.58,0,0,1-11.07,7.37,10.76,10.76,0,0,1-7.25-1l-3.3-1.53c0,.49,0,1,0,1.46l.18-.7c1.21.56,2.42,1.12,3.62,1.66,3.54,1.62,7,1.1,10.36-.47a20.19,20.19,0,0,0,7.87-6.28c.17-.22.24-.48.4-.69Z"/><path class="cls-6" d="M75.4,162.91c-2.48,2.3-5.62,3-8.79,3.61a56.31,56.31,0,0,1-7.08.86l-.3.68-.36,1.23c0,.59-1.07,1.17-1.84,1.33-1.42.3-2.87-.24-4.27.29a1.52,1.52,0,0,1-.48,0c-3,0-6,0-9,0a30.71,30.71,0,0,0-3.46-.15c-.38,0-.49,0-.4.55.24,1.38.76,2.68,1.07,4a10.79,10.79,0,0,0,.56,1.49l.17.16a6.23,6.23,0,0,0,2.31.34,53.73,53.73,0,0,1,5.53.13c1.29.16,2.58-.12,3.89,0,2.69.23,5.41.28,8.12.33,1.49,0,3-.16,4.47-.12a11.78,11.78,0,0,1,2.9.26,7.62,7.62,0,0,0,2-.11,69.63,69.63,0,0,1,7.07.28c1.42.17,2.14-.7,1.87-2.13a36.29,36.29,0,0,0-1.08-4.19c-.93-2.91-1.84-5.83-2.54-8.81,0-.1-.12-.18-.18-.26v0c0,.1,0,.16-.16.12a.06.06,0,0,0-.06.05V163Z"/><path class="cls-1" d="M54.57,152.49a.48.48,0,0,0,.57-.44,8.78,8.78,0,0,1,1.46-2.6,11,11,0,0,0-9.18-9.79,7.44,7.44,0,0,0-4.07.94c-.06.12-.09.27-.19.35-2.88,2.47-2.14,7.3-.51,9.66a1.55,1.55,0,0,1,.38.7c1.63.4,3.3.49,5,.77,0-.87-.36-1.61-.38-2.41,0-.4-.42-.43-.75-.43-.71,0-1.42,0-2.12,0-.47,0-.63-.17-.67-.59-.07-.73-.44-1.61-.15-2.14s1.32-.17,2-.27c1.09-.15,1.1-.11.9-1.15-.11-.56-.22-1.12-.34-1.67-.08-.37-.08-.58.44-.58,2.2,0,2.2,0,2.61,2.14.23,1.19.23,1.19,1.44,1.19h.41c1.8,0,1.8,0,2.06,1.78a4.7,4.7,0,0,0,.13.63c.11.35,0,.5-.38.5-.76,0-1.52,0-2.28,0-.4,0-.53.08-.43.51.16.74.25,1.49.37,2.24l.17.48Z"/><path class="cls-5" d="M59.23,168.06l.3-.68-3.59.08a2.23,2.23,0,0,0,3,.69C59,168.1,59.06,167.87,59.23,168.06Z"/><path class="cls-5" d="M30.19,148.07l-.2-.3-2.86-.84a.42.42,0,0,0,.24.65c.79.29,1.58.54,2.37.8C30,148.47,30.14,148.32,30.19,148.07Z"/><path class="cls-5" d="M51.05,152.34l-.17-.48c-.8.45-1.65-.05-2.49.24Z"/><path class="cls-1" d="M54,162.62a6.1,6.1,0,0,0-.33-3.08A15.2,15.2,0,0,0,54,162.62Z"/><path class="cls-1" d="M53.36,157.39a5.61,5.61,0,0,0,0-2.73A19.13,19.13,0,0,0,53.36,157.39Z"/><path class="cls-1" d="M53.65,159.39c-.13-.59.32-1.28-.28-1.8A5.51,5.51,0,0,0,53.65,159.39Z"/><path class="cls-1" d="M40.62,144.38a8.43,8.43,0,0,0,.64,5.37c-.16-1.34-.73-2.6-.66-4C40.63,145.31,41.05,144.84,40.62,144.38Z"/><path class="cls-1" d="M41.25,149.73l.17.51C41.43,150.05,41.49,149.84,41.25,149.73Z"/><path class="cls-1" d="M41.58,150.55l.08.29.19-.06A.32.32,0,0,0,41.58,150.55Z"/><path class="cls-1" d="M41.41,150.22l.18.34C41.58,150.42,41.6,150.27,41.41,150.22Z"/><path class="cls-6" d="M55.27,129.33l0-.16c-.24-.79-.47-1.58-.71-2.37.36.33.82.54.85,1a2.85,2.85,0,0,1,.59.49c.25.36.36.1.51-.06a9.29,9.29,0,0,1,.62-1.77c.23.82.49,1.61.66,2.41.09.47.41.4.71.44l.17,0c-.29-1-.61-2.08-.84-3.13-.16-.73-.49-1-1.19-.69v0a6.49,6.49,0,0,1-.65,1.74l-.76-.83h0l-.17-.18h0l-.17-.17h0l-.33-.33h0l-.18-.17h0l-.18-.18a.28.28,0,0,1-.15,0c-.46,0-.83,0-.52.65a10.31,10.31,0,0,1,.47,1.67l0,.08-.06,0a1.33,1.33,0,0,1,.3.78C54.41,129.18,54.69,129.46,55.27,129.33Z"/><path class="cls-6" d="M47.9,125.62l-.13-.18a7,7,0,0,0-2.57.18l-.21.21-.06.06-.2.23h0a2.64,2.64,0,0,0,.13,1.73h0l.18.32h0l.1.18a2.12,2.12,0,0,0,.72.61l.33.19h0l.33.11,0,0,0,0a9.32,9.32,0,0,0,2.3.09v0A23.26,23.26,0,0,1,47.9,125.62Zm-2.11.57h0c1.2-.34,1.38-.25,1.68.84a4.37,4.37,0,0,1,.17.62c0,.33.43.76.18.94a1.31,1.31,0,0,1-1.31-.06c-.29-.16-.66-.25-.77-.64a1.47,1.47,0,0,1-.09-1.5C45.61,126.27,45.7,126.23,45.79,126.19Z"/><path class="cls-6" d="M38.17,131.63a.11.11,0,0,1-.12,0c.08.77.65.69,1.19.66s1.27-.07,1.18.92h-1.6c-.1.46.06.69.56.66a8.81,8.81,0,0,0,.89,0c.67-.11.59.46.64.78s-.36.27-.58.29-.74,0-1.13,0c-.15.25.17.43.14.67l1.53,0,1-.15a25.88,25.88,0,0,0-1.1-3.87Z"/><path class="cls-6" d="M49.6,125.4c-.14,0-.34,0-.37.2l.08.27h0c.35.4.83.23,1.22.19.78-.08,1,.25,1,1H49.77c-.06.42.09.66.55.63a2.68,2.68,0,0,1,1.39.31c.2.15.37.36.26.59s-.34.08-.52.08l-1.05,0c-.29,0-.11.26-.16.4l.18.24h0l2.55,0h0l-1.08-3.86,0,0Z"/><path class="cls-6" d="M39.64,128.54c-.47.13-.94-.42-1.41,0a.32.32,0,0,0,0,.37h-.07l.07,0a2.74,2.74,0,0,0,2.23.32l.07,0,.2-.07h0l.49-.5h0a1.68,1.68,0,0,0,.08-1.32v-.06l.05,0c-.12-.21-.24-.42-.37-.62a2.63,2.63,0,0,0-3.08-1.19c-.55.22-.72.5-.2.94h0a.12.12,0,0,0,.1,0h0a1.28,1.28,0,0,1,1.75-.24,1.8,1.8,0,0,1,1,1.68A.7.7,0,0,1,39.64,128.54Z"/><path class="cls-6" d="M48.94,133.4l-.16,0,.18.61h0c1.6.08,1.6.08,1.84,1.29h0l.15.19h.75a36.89,36.89,0,0,1-1.13-3.85h0l-2.58,0c0,.51.25.7.75.66s.7,0,1,0c.52.2.25.73.55,1.1Z"/><path class="cls-6" d="M44.49,131.66c-.6-.08-.94,0-.61.74a2.37,2.37,0,0,1,.13.54,3.88,3.88,0,0,1,.15.36c.51,1.68.51,1.68-1.26,1.6h0c-.09.23.06.42.13.62a.12.12,0,0,1,.08.12h.16a1.3,1.3,0,0,1,1,0,2.36,2.36,0,0,1,1.15,0,.11.11,0,0,1,0-.13C45.2,134.23,44.7,133,44.49,131.66Z"/><path class="cls-6" d="M29.9,129.13l.27.22,2.26,0h0c-.18-1.33-.78-2.55-1-3.87h0l-.77,0,.12.67.74,2.59c-.51,0-.94,0-1.37,0S29.85,128.9,29.9,129.13Z"/><path class="cls-6" d="M42.25,125.4a.2.2,0,0,0-.18.2l1.17,3.71H44c-.34-1.12-.7-2.23-1-3.36C42.9,125.5,42.69,125.34,42.25,125.4Z"/><path class="cls-6" d="M47,135.52a.35.35,0,0,1,.14,0l.62,0,0-.16-1.06-3.7c-.26.1-.69-.28-.77.29.25.85.49,1.7.74,2.55h0C46.8,134.85,46.9,135.19,47,135.52Z"/><path class="cls-6" d="M46.74,131.67l1.06,3.7c.14,0,.31-.09.25-.24a27.38,27.38,0,0,0-1.11-3.35C46.91,131.72,46.81,131.71,46.74,131.67Z"/><path class="cls-5" d="M48.65,115.74a11.2,11.2,0,0,0-4,.06C46,115.69,47.33,116.13,48.65,115.74Z"/><path class="cls-5" d="M39,116.06a11,11,0,0,0-4.16.1Z"/><path class="cls-5" d="M43.58,115.9a9.87,9.87,0,0,0-3.47,0C41.27,116,42.42,115.88,43.58,115.9Z"/><path class="cls-5" d="M49,114.93c-.06.27-.12.53-.19.8C49.65,115.64,48.81,115.16,49,114.93Z"/><path class="cls-5" d="M100.32,159.27v2.6a1.15,1.15,0,0,0,1.2,1.16c.31,0,.29-.18.29-.37,0-2.08,0-4.16,0-6.25,0-.85-.72-.4-1.11-.52-.55-.17-.38.3-.38.54,0,.95,0,1.89,0,2.84Z"/><path class="cls-3" d="M56.11,106.2c-.06,2,.07,4.1.17,6.15,1.18.05,2.35-.09,3.52-.14,1.58-.07,2.3.53,2.7,2.07q1.71,6.59,3.43,13.19s.07.07.1.11a55.64,55.64,0,0,0,2.54-9.3c.36-2.1.61-4.21.78-6.34.2-2.52.05-5,.14-7.56-.06-.42-.13-.84-.19-1.25A14.29,14.29,0,0,0,68,98h0l-.5-.66h0l-.38-.4,0,0-.27-.26a.09.09,0,0,1-.07-.06l-.21-.23-.16-.15-1-.65h0c-.3-.12-.59-.25-.89-.36a4.69,4.69,0,0,0-3.93.67c-.65.67-1.7.88-2.11,1.82l-.35.49h0l-.34.5v0a10,10,0,0,0-1.26,4.47,8.25,8.25,0,0,1-.22,2.71h0Z"/><path class="cls-6" d="M103.55,117.38a1.61,1.61,0,0,0,1.07.87l.14-.11,0,.18,0,0a16.68,16.68,0,0,0,3.23-.48.09.09,0,0,0,.06-.06c0-.12,0-.17.12-.09a.08.08,0,0,0,.08-.07c-.12-.27,0-.35.25-.27l0,0c0-.11,0-.17.1-.16l0,0c-.06-.75.38-1.43.27-2.19,0-.38-.34-.76-.07-1.16l0-.07c-.27,0-.23-.1-.16-.26l0,0-.12,0,.1-.06a3.13,3.13,0,0,0-5.13-.15c0,.11,0,.21-.17.22l0,0c0,.14.07.28-.15.27l0,0c0,1,0,1.91,0,2.86,0,0,0,.08,0,.1.39-.06.22.2.21.37l0,0C103.53,117.17,103.55,117.27,103.55,117.38Z"/><path class="cls-6" d="M72.94,128.72a.75.75,0,0,1,.15-.53.79.79,0,0,0-.27-1.06.88.88,0,0,0-1.19,0,1.05,1.05,0,0,0-.24,1.25c.21.49.58.49,1,.38a3.2,3.2,0,0,1,.54-.08Z"/><path class="cls-4" d="M89.15,30.45a10.64,10.64,0,0,0-2.81.53c-.48.17-.93.52-.79,1.07s.54.8,1.24.71a11.41,11.41,0,0,1,6.45.73c.56.26,1.14.36,1.46-.3s-.15-1.09-.64-1.41A10.25,10.25,0,0,0,89.15,30.45Z"/><path class="cls-4" d="M73.5,32.67c.66.12,1.34,0,2,.17a1.24,1.24,0,0,0,1.37-.9c.14-.63-.38-.79-.78-1a9.75,9.75,0,0,0-4.58-.34,5.41,5.41,0,0,0-2.68.94,5.17,5.17,0,0,0-.62.52c-.32.3-.53.63-.25,1.07a.86.86,0,0,0,1.08.33,20.08,20.08,0,0,1,2.17-.65C72,32.72,72.74,32.77,73.5,32.67Z"/><path class="cls-1" d="M82.18,49.1c-1-.32-2.07-.14-3-.66a2.09,2.09,0,0,1-1.12-3,46.59,46.59,0,0,0,2.07-4.95,5.84,5.84,0,0,0,.16-3.13c-.05-.18-.05-.42-.31-.4s-.24.27-.22.45c.18,2.36-.8,4.39-1.8,6.42a16.2,16.2,0,0,0-.76,1.71,2.65,2.65,0,0,0,.93,3.06A3.92,3.92,0,0,0,82.18,49.1Z"/><path class="cls-4" d="M71,38.66a3.42,3.42,0,0,0,.11,1.05c.2.57.48,1.07,1.13,1.13A1.44,1.44,0,0,0,73.56,40a3.1,3.1,0,0,0,.11-2.75,1.36,1.36,0,0,0-1.3-.81,1.19,1.19,0,0,0-1.15.75A2.57,2.57,0,0,0,71,38.66Z"/><path class="cls-4" d="M88.07,38.93a2.41,2.41,0,0,0,.26,1.24,1.05,1.05,0,0,0,1.72.27c.7-.63,1.06-2.76.09-3.66-.71-.66-1.28-.61-1.78.23A3.5,3.5,0,0,0,88.07,38.93Z"/><path class="cls-1" d="M81.07,55.26a9.46,9.46,0,0,0,5-1.43c.23-.12.58-.25.36-.59s-.45,0-.65.1a9.53,9.53,0,0,1-4.93,1.41,9.28,9.28,0,0,1-3.88-1.08c-.21-.11-.52-.41-.7-.08s.24.45.45.57A7.82,7.82,0,0,0,81.07,55.26Z"/><path class="cls-6" d="M45.64,126.4a1.47,1.47,0,0,0,.09,1.5,7.2,7.2,0,0,0,1.4.6c.21,0,.5.08.41-.29a7.42,7.42,0,0,0-.54-1.77c-.23-.42-.81-.1-1.22-.24h0Z"/><path class="cls-6" d="M39,170.27c.78.06,1.57.18,2.35.18,5,0,10,.17,15-.15a3.7,3.7,0,0,0,2.56-1c0,.59-1.07,1.17-1.84,1.33-1.42.3-2.87-.24-4.27.29a1.52,1.52,0,0,1-.48,0c-3,0-6,0-9,0a30.71,30.71,0,0,0-3.46-.15c-.38,0-.49,0-.4.55.24,1.38.76,2.68,1.07,4a10.79,10.79,0,0,0,.56,1.49h0l.17.16h0a6.23,6.23,0,0,0,2.31.34,53.73,53.73,0,0,1,5.53.13c1.29.16,2.58-.12,3.89,0,2.69.23,5.41.28,8.12.33,1.49,0,3-.16,4.47-.12a11.78,11.78,0,0,1,2.9.26,7.62,7.62,0,0,0,2-.11,69.63,69.63,0,0,1,7.07.28c1.42.17,2.14-.7,1.87-2.13a36.29,36.29,0,0,0-1.08-4.19c-.93-2.91-1.84-5.83-2.54-8.81,0-.1-.12-.18-.18-.26l.19-.27a3.36,3.36,0,0,1,.2.43c.76,2.58,1.53,5.16,2.28,7.74a49.54,49.54,0,0,1,1.51,5.62A1.66,1.66,0,0,1,78,178.31l-10.77-.2a8.47,8.47,0,0,0-2.56-.14c-.78,0-1.57,0-2.35,0h-.57c-3.08.08-6.14-.29-9.22-.14l-.81,0c-.56-.31-1.15-.11-1.73-.13-.94,0-1.9,0-2.84,0a6.93,6.93,0,0,0-1.64,0,5.07,5.07,0,0,0-1.94-.13,7,7,0,0,1-2.14-.18l-.27-.25h0l-.13-.13a3.16,3.16,0,0,1-.75-1.38c-.6-1.68-.89-3.45-1.58-5.1C38.64,170.17,38.84,170.26,39,170.27Z"/><polygon class="cls-6" points="54.44 125.61 54.45 125.62 54.46 125.62 54.44 125.61"/><path class="cls-6" d="M20.56,114.14l.11-.15,0,0c.37-1.13.56-1.28,1.65-1.28l2.11,0c2.45.22,4.91.22,7.37.21l.69,2.78h0a.72.72,0,0,0,.91.6,13.55,13.55,0,0,1,1.43-.1l4.16-.1c.37,0,.76.11,1.1-.14,1.16.12,2.31,0,3.47,0a2.28,2.28,0,0,0,1.07-.1c1.33-.11,2.68.33,4-.06h.19c.81-.09,0-.57.19-.8a12.91,12.91,0,0,1-.28-1.85,1.79,1.79,0,0,1,.72-.23,2,2,0,0,0-.72.22c0-.12-.08-.25-.13-.37l.31-.07h.48a36.47,36.47,0,0,0,3.77,0,1.09,1.09,0,0,0,.73-.1l.89-.06,1.48-.13c1.18.05,2.35-.09,3.52-.14,1.58-.07,2.3.53,2.7,2.07q1.71,6.59,3.43,13.19s.07.07.1.11c.43.74.32,1.64.67,2.4l0,.17a7.05,7.05,0,0,0,.35,1.64,1,1,0,0,0,0,.24l2.25,7.75a12.56,12.56,0,0,1,.68,2.1,27.21,27.21,0,0,0-8.51,3.27,14.53,14.53,0,0,0-4.89,4.3,11,11,0,0,0-9.18-9.79,7.44,7.44,0,0,0-4.07.94h0c-.06.12-.09.27-.19.35-2.88,2.47-2.14,7.3-.51,9.66a1.55,1.55,0,0,1,.38.7,57.65,57.65,0,0,1-7.92-1.74c-1.66-.44-3.28-1-4.92-1.5l-.2-.3a5.25,5.25,0,0,0-.09-.55c-.57-1.91-1.13-3.82-1.7-5.72-.53-1.74-.95-3.52-1.65-5.21a7.28,7.28,0,0,0-.38-1.44c-1.3-5-2.84-10-4.25-15a37.15,37.15,0,0,1-1.36-5.2Zm.43-.31a1.46,1.46,0,0,0,.2-.37A1.46,1.46,0,0,1,21,113.83Zm22.8,19.44a.7.7,0,0,0,.06.17A.7.7,0,0,1,43.79,133.27Zm.06-3.71a.19.19,0,0,1-.24,0A.19.19,0,0,0,43.85,129.56Zm-.61-.25Zm-1.31-3.23a.25.25,0,0,0,0-.08A.25.25,0,0,1,41.93,126.08Zm0,.1s0,.1,0,.15S42,126.23,42,126.18Zm.69,8.92a.17.17,0,0,1,.07-.14A.17.17,0,0,0,42.64,135.1Zm-1.5.67c-.61,0-1.23.28-1.8-.12h0C39.91,136.05,40.53,135.82,41.14,135.77Zm-.25,7.73.15-.37Zm.41-16.16v-.06l.05,0c-.12-.21-.24-.42-.37-.62a2.63,2.63,0,0,0-3.08-1.19c-.55.22-.72.5-.2.94h0a.12.12,0,0,0,.1,0h0a1.28,1.28,0,0,1,1.75-.24,1.8,1.8,0,0,1,1,1.68.7.7,0,0,1-1,.73c-.47.13-.94-.42-1.41,0h0a.3.3,0,0,0,0,.36h0a2.74,2.74,0,0,0,2.23.32l.07,0h0l.2-.07.47-.49h0A1.68,1.68,0,0,0,41.3,127.34Zm-3.8,1.84c.06,0,.09,0,.09.08s0-.06-.09-.08c0-.3-.1-.6-.49-.65a.71.71,0,0,0,0-.14.71.71,0,0,1,0,.14c.39.05.44.35.49.65Zm.24-2.73s0,0,0,0S37.75,126.46,37.74,126.45ZM40,129.57l.18-.06Zm1.22-.58a.31.31,0,0,0,0-.1A.31.31,0,0,1,41.17,129Zm-.42,2.66a3.75,3.75,0,0,0-1.93-.17,3.75,3.75,0,0,1,1.93.17Zm-2.52-2.72h0l-.1,0-.08,0c-.09-.07,0-.14.05-.22-.1.08-.14.15-.05.22l.08,0Zm-.18,2.74a.61.61,0,0,0,.23,1,.61.61,0,0,1-.23-1Zm-3.8-2.1a.91.91,0,0,0,.15-.23l.25-.21-.25.21h0A.91.91,0,0,1,34.25,129.57Zm.75-.67-.23.15Zm-4.36-2.07.06.13-.06-.13a.86.86,0,0,1-.09-.34A.86.86,0,0,0,30.64,126.83Zm.8-1.38-.77,0,.12.67h0c.24.84.49,1.69.74,2.59-.51,0-.94,0-1.37,0s-.31.23-.26.46l.27.22,2.26,0h0c-.18-1.33-.78-2.55-1-3.87Zm-.17-.36a.36.36,0,0,0-.18-.07A.36.36,0,0,1,31.27,125.09Zm0,4.45h0Zm1.39-.69c0,.12.09.3,0,.4C32.78,129.15,32.73,129,32.69,128.85Zm.91-2.07v0Zm.47-1.37a1.07,1.07,0,0,0-.46.81,1.07,1.07,0,0,1,.46-.81h0a.81.81,0,0,1,.12-.28A.81.81,0,0,0,34.07,125.41Zm2,1.48a3.21,3.21,0,0,0-.59-1.2,3.21,3.21,0,0,1,.59,1.2h0a.79.79,0,0,1,.31.52A.79.79,0,0,0,36,126.89Zm.33.66h0l.12.19h0l-.12-.19h0l-.43-.57h0a9.11,9.11,0,0,1-.75-1.12.78.78,0,0,0-1.09-.45l-.48,3.91h.79c.12-.28-.25-.85.28-.85s1.35-.53,1.7.36c.24.58.68.51,1.13.51,0-.05,0-.1,0-.15h0a1.22,1.22,0,0,1-.49-.65l-.53-.79h0Zm.62.57a.37.37,0,0,0-.12-.2.37.37,0,0,1,.12.2.75.75,0,0,1,0,.26A.75.75,0,0,0,37,128.12Zm3.11-2.81a2.16,2.16,0,0,0-.57-.24,1.64,1.64,0,0,0-.38,0,1.64,1.64,0,0,1,.38,0,2.16,2.16,0,0,1,.57.24,2.5,2.5,0,0,1,1.25,1.93h0A2.5,2.5,0,0,0,40.09,125.31Zm1.48,2.38a.61.61,0,0,1,.08.25A.61.61,0,0,0,41.57,127.69Zm0,.5a.4.4,0,0,0,0-.15A.4.4,0,0,1,41.61,128.19Zm-.86,3.46-2.58,0a.11.11,0,0,1-.12,0c.09.77.65.69,1.19.66s1.27-.07,1.18.92h-1.6c-.1.46.06.69.56.66a8.81,8.81,0,0,0,.89,0c.67-.11.59.46.64.78s-.36.27-.58.29-.74,0-1.13,0c-.15.25.17.43.14.67l1.53,0h0l1-.15A25.88,25.88,0,0,0,40.75,131.65Zm1.32-6.05,1.17,3.71H44a1.3,1.3,0,0,1-.1.18,1.3,1.3,0,0,0,.1-.18h0c-.34-1.12-.7-2.23-1-3.36-.12-.45-.33-.61-.77-.55A.2.2,0,0,0,42.07,125.6ZM44.25,129l0-.08,0,.08c0,.08,0,.17,0,.22S44.28,129.1,44.25,129Zm.7-.9,0,0ZM44.72,126v0Zm.84-.65a2.25,2.25,0,0,1,2.1,0A2.25,2.25,0,0,0,45.56,125.31Zm2.1,0,.11.1h0Zm.11.1a7,7,0,0,0-2.57.18.64.64,0,0,0-.2,0,.64.64,0,0,1,.2,0l-.21.21-.06.06h0l-.2.23h0a2.71,2.71,0,0,0,.14,1.73h0l.18.32h0l.1.17a2.12,2.12,0,0,0,.72.61h0l.32.19h0l.33.11,0,0,0,0h0a9.32,9.32,0,0,0,2.3.09v0a23.26,23.26,0,0,1-1-3.68Zm-1.49,3.84h0Zm0,0a.19.19,0,0,0,.14,0A.19.19,0,0,1,46.32,129.29Zm4.63.37c-.16,0-.33,0-.43-.08C50.62,129.7,50.79,129.68,51,129.66Zm-.42,2Zm-1.4-5.89a0,0,0,0,0,0,0A0,0,0,0,1,49.13,125.77Zm0,3.47a.07.07,0,0,0,0-.06A.07.07,0,0,1,49.14,129.24Zm-.53,2.24a3.38,3.38,0,0,1,1.45,0A3.38,3.38,0,0,0,48.61,131.48Zm.62-5.88.08.27h0c.35.4.83.23,1.22.19.78-.08,1,.25,1,1H49.77c-.06.42.09.66.55.63a2.68,2.68,0,0,1,1.39.31h0c.2.15.37.36.26.59s-.34.08-.52.08l-1.05,0c-.29,0-.11.26-.16.4l.18.24h0l2.54,0-1.08-3.85,0,0-2.24,0C49.46,125.44,49.26,125.36,49.23,125.6Zm4.42-.49.19,0Zm.19,0h0Zm.93.69.09,0Zm-3.4-.67a.57.57,0,0,1,.32,0A.57.57,0,0,0,51.37,125.11Zm7.42,3.14c.13.3.29.61.07.91C59.08,128.86,58.92,128.55,58.79,128.25Zm-3.3.27-.05-.17.05.17a.74.74,0,0,1,0,.25A.74.74,0,0,0,55.49,128.52Zm-.72,1c-.61-.14-.83-.67-.73-1.71a1.33,1.33,0,0,1,.3.78c.07.55.35.83.93.7l0-.16h0l-.71-2.37c.36.33.82.54.85,1a2.85,2.85,0,0,1,.59.49c.25.36.36.1.51-.06a9.29,9.29,0,0,1,.62-1.77c.23.82.49,1.61.66,2.41.09.47.41.4.71.44l.16,0c-.28-1-.6-2.08-.83-3.13-.16-.73-.49-1-1.19-.69v0a6.49,6.49,0,0,1-.65,1.74l-.76-.82-.17-.18h0l-.17-.17h0l-.33-.33-.16-.15-.17-.18a.28.28,0,0,1-.15,0c-.46,0-.83,0-.52.65a10.31,10.31,0,0,1,.47,1.67l0,.08-.06,0C53.94,128.89,54.16,129.42,54.77,129.56ZM53.16,129a.33.33,0,0,1,0,.22A.33.33,0,0,0,53.16,129Zm-1.27,6.39a.09.09,0,0,1,0,.07A.09.09,0,0,0,51.89,135.37Zm-.72.47a.43.43,0,0,1-.17-.06A.43.43,0,0,0,51.17,135.84Zm-.46-.55.07,0h0l.15.19h.75a36.89,36.89,0,0,1-1.13-3.85l-2.57,0c0,.51.25.7.75.66s.7,0,1,0h0c.52.2.25.73.55,1.1H48.94l-.16,0c.06.2.12.4.17.6,1.59.08,1.59.08,1.83,1.29l-.07,0a1.25,1.25,0,0,1-.12-.08A1.25,1.25,0,0,0,50.71,135.29Zm-1.29-2.85a2.25,2.25,0,0,1-.52,0A2.25,2.25,0,0,0,49.42,132.44Zm-.63,0-.32,0Zm0,1.52c-.19-.11-.27-.25-.07-.47C48.53,133.72,48.61,133.86,48.8,134Zm-1.66,1.58.62,0,0-.16c.14,0,.31-.09.25-.24a27.38,27.38,0,0,0-1.11-3.35c0-.06-.13-.07-.2-.11-.26.1-.69-.28-.77.29.25.85.49,1.7.74,2.55h0l.3,1A.35.35,0,0,1,47.14,135.55Zm-.78-1.63a2.67,2.67,0,0,1-.2-.46A2.67,2.67,0,0,0,46.36,133.92Zm-.28-.68a3.12,3.12,0,0,1-.13-.93A3.12,3.12,0,0,0,46.08,133.24Zm0-4.09.11,0h0l-.11,0a.24.24,0,0,1-.14-.05A.24.24,0,0,0,46.08,129.15Zm-.57,6.37c-.31-1.29-.81-2.54-1-3.86-.6-.08-.94,0-.61.74a2.37,2.37,0,0,1,.13.54h0a3.88,3.88,0,0,1,.15.36c.51,1.68.51,1.68-1.26,1.6h0c-.09.23.06.42.13.62a.12.12,0,0,1,.08.12h.16a2.28,2.28,0,0,0,1,0,2.36,2.36,0,0,1,1.15,0h0A.11.11,0,0,1,45.51,135.52Zm-1,.37a2.78,2.78,0,0,1-1.4-.25h0A2.68,2.68,0,0,0,44.51,135.89Zm-2.92,14.66c0-.13,0-.27-.17-.32,0-.19.06-.39-.16-.49a22.34,22.34,0,0,1-.66-4c0-.45.45-.92,0-1.38a8.42,8.42,0,0,0,.63,5.35h0v0l.17.49h0v0l.17.33h0l.08.29.19-.06A.34.34,0,0,0,41.59,150.55Z"/><path class="cls-6" d="M71.26,73.73a8.8,8.8,0,0,0-2.7,3A36.52,36.52,0,0,0,63.91,90.2h0l-.27,2.38c0,.25,0,.46.31.52a13.9,13.9,0,0,1,2.42.85c0,.14.18.15.3.17l.23.26.21.13h0l.44.36h0l.16.15a.18.18,0,0,0,.17.17h0a.18.18,0,0,1-.17-.17h0l.17.16h0l.16.16h0l.17.17h0l.14.15h0l.17.18h0l.17.16h0l.22.21a.08.08,0,0,1,.06.08h0a9.1,9.1,0,0,1,.88,1.34,13.75,13.75,0,0,1,1.23,4.54,3.38,3.38,0,0,1-.14,2.36c-.39,0-.83.35-1.17-.14h0l-.29,0c-.06-.42-.13-.84-.19-1.25A14.29,14.29,0,0,0,68,98h0l-.49-.65h0l-.38-.4,0,0h0l-.27-.26a.09.09,0,0,1-.07-.06h0l-.21-.23-.16-.15h0l-1-.65h0c-.3-.12-.59-.25-.89-.36a4.69,4.69,0,0,0-3.93.67c-.65.67-1.7.88-2.11,1.82h0l-.34.48h0l-.34.49h0a10,10,0,0,0-1.26,4.47,8.25,8.25,0,0,1-.22,2.71h0l-.19.33H56l0,0h0a.68.68,0,0,1-.88,0h0c-.41,0-.43-.34-.58-.57a7.14,7.14,0,0,0,.12-2,9.2,9.2,0,0,1,.64-3.67h0a4.58,4.58,0,0,1,1-2.12h0a.58.58,0,0,1,0-.14,9.47,9.47,0,0,1,3.42-3.41l.46-.22h0a1.16,1.16,0,0,1,.65-.33h0a1.29,1.29,0,0,1,.81-.32c.07-.15.21-.14.33-.16a22.72,22.72,0,0,0,.51-2.56,36.06,36.06,0,0,1,.91-5.27,6.61,6.61,0,0,1,.54-1.79h0c0-.17-.05-.38.16-.48h0a4.44,4.44,0,0,1,.48-1.3h0a2.44,2.44,0,0,1,.48-1.12v0a1.29,1.29,0,0,1,.32-.8h0c0-.13,0-.26.16-.32h0c0-.12,0-.27.16-.32h0l.06-.28,1.43-3A7.76,7.76,0,0,1,69,73.69,15.13,15.13,0,0,1,74,69.92c0,.56,0,1.11,0,1.67C73,72.2,72.22,73.07,71.26,73.73ZM56.92,99.86l-.12.31Zm1.22-2a.28.28,0,0,0,0,.13A.28.28,0,0,1,58.14,97.87Zm5.42-6.23c0-.17,0-.34,0-.51C63.55,91.3,63.56,91.47,63.56,91.64ZM67.39,97a.29.29,0,0,0-.14,0A.29.29,0,0,1,67.39,97Zm-.66-.56,0,0Zm-.6-.63a.75.75,0,0,0-.4-.19A.75.75,0,0,1,66.13,95.8Zm-2.92-1-.39,0,.39,0a2.57,2.57,0,0,1,1.86.51A2.57,2.57,0,0,0,63.21,94.76Z"/><path class="cls-6" d="M106.37,83.66c.26,1.49.39,3,.52,4.5a53.59,53.59,0,0,1-.28,10.29c-.17,1.72-.39,3.43-.57,5.15s-.25,3.4-.46,5.08c-.09.71.42.59.74.7s.7,0,.7-.51a36.91,36.91,0,0,1,.35-4.93c.1-.77-.11-1.62.44-2.32,0,.22,0,.44,0,.65-.32,2.16-.43,4.34-.57,6.52,0,.64-.15,1-.86.8a.19.19,0,0,0-.15,0c-.65,0-.95-.27-.84-1,.15-1,.26-2.09.31-3.12.1-2.16.42-4.29.64-6.43a75.19,75.19,0,0,0,.43-9c0-2.25-.36-4.47-.57-6.71h0c-.55-1.85-1-3.74-1.7-5.55a12.35,12.35,0,0,1,1.71,5.55C106.32,83.4,106.35,83.52,106.37,83.66Z"/><path class="cls-6" d="M107.74,100.17c.21-2.15.48-4.29.57-6.44a46.44,46.44,0,0,0-.59-10.06,23.8,23.8,0,0,0-1.72-6,2.48,2.48,0,0,1-.36-1.47,1,1,0,0,1,.08.14,30.76,30.76,0,0,1,2.65,10.33,65.54,65.54,0,0,1-.45,13.93C107.71,100.54,107.72,100.38,107.74,100.17Z"/><path class="cls-6" d="M72.11,126.73a1.11,1.11,0,0,1,1.2.65,1,1,0,0,1-.37,1.34h0a1.66,1.66,0,0,1-1.15.46,1.37,1.37,0,0,1-.75-1.3A1.22,1.22,0,0,1,72.11,126.73Zm-.72,1.68c.21.49.58.49,1,.38a3.2,3.2,0,0,1,.54-.08.74.74,0,0,1,.15-.52.79.79,0,0,0-.27-1.06.88.88,0,0,0-1.19,0A1.05,1.05,0,0,0,71.39,128.41Z"/><path class="cls-6" d="M101.49,150.57c0,.92,0,1.85,0,2.77,0,.27.14.6-.19.8,0-.51-.06-1,0-1.52A3.9,3.9,0,0,1,101.49,150.57Z"/><path class="cls-6" d="M105.27,75.63c.21.13.26.37.36.58C105.09,76.27,105.33,75.86,105.27,75.63Z"/><path class="cls-6" d="M102.91,75.18a.3.3,0,0,1,.18.26l-.19-.26h0l-.37-.39C102.89,74.7,102.92,74.92,102.91,75.18Z"/><path class="cls-6" d="M102.49,74.75l-.27-.26C102.49,74.38,102.56,74.49,102.49,74.75Z"/><path class="cls-6" d="M102.15,74.42l-.21-.21C102.08,74.21,102.24,74.19,102.15,74.42Z"/><path class="cls-6" d="M107.72,100.86h0Z"/><path class="cls-6" d="M105.22,75.52a.12.12,0,0,1,0,.09l-.09-.06Z"/><path class="cls-6" d="M75.47,162.85l.16-.12C75.62,162.83,75.58,162.89,75.47,162.85Z"/><path class="cls-6" d="M75.41,162.9V163l0-.07Z"/><path class="cls-6" d="M104.82,118.36a16.68,16.68,0,0,0,3.23-.48A3,3,0,0,1,104.82,118.36Z"/><path class="cls-6" d="M109,115c0-.38-.34-.76-.07-1.16a3.35,3.35,0,0,1-.2,3.35C108.67,116.39,109.11,115.71,109,115Z"/><path class="cls-6" d="M103.14,116.65a3.2,3.2,0,0,1,0-2.86C103.17,114.75,103.16,115.7,103.14,116.65Z"/><path class="cls-6" d="M103.37,117.12l-.21-.37C103.55,116.69,103.38,117,103.37,117.12Z"/><path class="cls-6" d="M108.56,117.39l-.25.27C108.19,117.39,108.29,117.31,108.56,117.39Z"/><path class="cls-6" d="M104.78,118.32l-.16-.07.14-.11Z"/><path class="cls-6" d="M103.21,113.75l.15-.27C103.4,113.62,103.43,113.76,103.21,113.75Z"/><path class="cls-6" d="M108.75,113.46l.16.26C108.64,113.77,108.68,113.62,108.75,113.46Z"/><path class="cls-6" d="M108.69,113.38l0,0-.12,0Z"/><path class="cls-6" d="M103.39,113.45l.17-.22C103.55,113.34,103.53,113.44,103.39,113.45Z"/><path class="cls-6" d="M108.7,117.18l-.1.16C108.55,117.23,108.57,117.17,108.7,117.18Z"/><path class="cls-6" d="M103.55,117.38a1.77,1.77,0,0,0-.16-.22C103.53,117.17,103.55,117.27,103.55,117.38Z"/><path class="cls-6" d="M108.23,117.73a.16.16,0,0,1-.12.09C108.08,117.7,108.1,117.65,108.23,117.73Z"/><path class="cls-6" d="M47.81,128.6a1.31,1.31,0,0,1-1.31-.06c-.29-.16-.66-.25-.77-.64a7.2,7.2,0,0,0,1.4.6c.21,0,.5.08.41-.29a7.42,7.42,0,0,0-.54-1.77c-.23-.42-.81-.1-1.22-.24l-.14.2c0-.13.06-.17.15-.21h0c1.2-.34,1.38-.25,1.68.84a4.37,4.37,0,0,1,.17.62C47.68,128,48.06,128.42,47.81,128.6Z"/><path class="cls-6" d="M43.27,135.65a2.28,2.28,0,0,0,1,0A1.3,1.3,0,0,0,43.27,135.65Z"/><path class="cls-6" d="M36.47,127.75l-.12-.19-.43-.57a9.11,9.11,0,0,1-.75-1.12.78.78,0,0,0-1.09-.45l-.48,3.91h.79c.12-.28-.25-.85.28-.85s1.35-.53,1.7.36c.24.58.68.51,1.13.51,0-.05,0-.1,0-.15a1.22,1.22,0,0,1-.49-.65Zm-.67.1c-1.46,0-1.46,0-1-1.5Z"/><path class="cls-6" d="M35.8,127.85l-1-1.5C34.34,127.89,34.34,127.89,35.8,127.85Z"/><path class="cls-7" d="M24.4,52.43c-.11-2,0-4-.12-5.94,0-.51.12-.74.68-.72,2.71.14,5.42-.22,8.13-.16,1.15,0,1.15,0,1.15,1.12,0,3.57,0,7.14-.15,10.7-.07,1.77,0,3.54,0,5.3,0,.54-.06.91-.71.89-.24,0-.48.11-.71.11-2.53,0-5.06,0-7.59,0-.61,0-.81-.22-.8-.82,0-1.35,0-2.71,0-4.57C24.18,56.7,24.52,54.56,24.4,52.43Z"/><path class="cls-7" d="M24.28,80.59c0-2.66,0-5.33,0-8,0-1,0-1,1.06-1,2.63,0,5.27,0,7.91,0,.82,0,1,.29,1,1,0,2.67-.06,5.34-.16,8s0,5.37,0,8.06c0,.69-.22.86-.88.86-2.72,0-5.44,0-8.16,0-.61,0-.79-.17-.79-.78C24.3,86,24.29,83.31,24.28,80.59Z"/><path class="cls-7" d="M38.47,72.31c0-.57.16-.77.74-.76,1.44,0,2.88,0,4.32,0h4.4c.34,0,.68,0,.67.46,0,1.93.11,3.87-.05,5.79a37.55,37.55,0,0,0-.06,5.61c.11,1.68,0,3.36.11,5,0,.68-.18,1.09-1,1.07-2.69-.05-5.38,0-8.07,0-.67,0-.88-.18-.88-.86,0-2.93.08-5.86-.11-8.79C38.35,77.37,38.5,74.83,38.47,72.31Z"/><path class="cls-7" d="M20.56,114.14l.11-.15,0,0c.37-1.13.56-1.28,1.65-1.28l2.11,0c-.06-.81-.17-1.62-.15-2.43.05-2.28,0-4.56.08-6.84,0-1.57,0-3.19-.1-4.79,0-.7.19-1,.92-1q4.08.06,8.16,0c.74,0,.91.23.9.93-.08,3.61.1,7.22-.18,10.83a39.24,39.24,0,0,0,4.06.12c.55-.11.51-.54.51-1q0-5.13,0-10.27c0-.35-.13-.8.5-.8H44.2c.4,0,.53.14.38.55s-.23.63-.34.94a40.83,40.83,0,0,0-1.41,4.07l-1.9,6.53-8.65.16s-1.8.65-.33,3.1L21.34,113s-1.07.61-.49,3.14a14.88,14.88,0,0,1-.29-1.48Z"/><path class="cls-7" d="M39.37,45.6c1.42,0,2.83,0,4.24,0s2.72.05,4.07,0c.79,0,1,.25.94,1,0,1.52,0,3,0,4.57,0,.74,0,1.49-.05,2.24a23.07,23.07,0,0,0-.07,3.11c.24,2.2,0,4.39.12,6.58,0,.28-.06.48-.39.5s-.91.15-1.36.16c-2.47,0-4.93,0-7.39,0-.65,0-.84-.19-.83-.83,0-3.53,0-7.06,0-10.6a4.39,4.39,0,0,0,0-.81,33.65,33.65,0,0,1-.11-5.12C38.5,45.89,38.75,45.58,39.37,45.6Z"/><path class="cls-7" d="M10.67,71.55q4.24,0,8.51,0c.61,0,.72.25.71.78,0,2.74,0,5.49,0,8.23s0,5.43,0,8.15c0,.7-.23,1-.93,1H10.58c-.5,0-.66-.16-.67-.66-.05-5.53.17-11.07-.15-16.6C9.71,71.73,10,71.55,10.67,71.55Z"/><path class="cls-7" d="M19.9,63c0,.61-.2.78-.8.78-2.74,0-5.49,0-8.23,0-.78,0-1-.28-1-1,0-2.72,0-5.44,0-8.16s0-5.43,0-8.15c0-.64.16-.85.82-.84,2.77,0,5.55,0,8.32,0,.61,0,.85.12.85.8Q19.86,54.69,19.9,63Z"/><path class="cls-7" d="M10.87,97.51c1.51.08,3,.13,4.54.16,1.23,0,2.45,0,3.67,0,.67,0,.82.22.82.84,0,2.66,0,5.33,0,8v8.07c0,.39.05.76-.55.75q-4.35,0-8.72,0c-.31,0-.51-.08-.53-.45,0-.59-.15-1.18-.15-1.77,0-4.89,0-9.78,0-14.67C9.91,97.68,10.18,97.47,10.87,97.51Z"/><path class="cls-3" d="M44.24,99c3-7.31,7.94-14,11.13-17.8a.86.86,0,0,0,.2-.13.6.6,0,0,0,.2-.14.57.57,0,0,0,.13-.08.78.78,0,0,0,.28-.11.86.86,0,0,0,.41-.12.69.69,0,0,0,.39-.1c.92-.45,1.85-.89,2.79-1.31a1.19,1.19,0,0,0,.76-1c.32.36.67.19,1,0,1.65-.82,3.36-1.5,5-2.23a1.32,1.32,0,0,1,.62,0l-1.43,3-.06.28h0c-.16,0-.14.2-.16.32h0c-.14.06-.14.19-.16.32h0a1.29,1.29,0,0,0-.32.8v0a2.44,2.44,0,0,0-.48,1.12h0a4.44,4.44,0,0,0-.48,1.3h0c-.21.1-.12.31-.16.48h0a6.61,6.61,0,0,0-.54,1.79,36.06,36.06,0,0,0-.91,5.27A22.72,22.72,0,0,1,62,93.25c-.12,0-.26,0-.33.16a1.27,1.27,0,0,0-.82.33h0a1.14,1.14,0,0,0-.66.34h0l-.46.22a9.47,9.47,0,0,0-3.42,3.41.58.58,0,0,0,0,.14v0a4.71,4.71,0,0,0-1,2.14h0a9.2,9.2,0,0,0-.64,3.67,7.14,7.14,0,0,1-.12,2c0,.27-.1.54.16.75,0,1.21,0,2.43,0,3.65a9.22,9.22,0,0,0,.12,2.46l-.89.06c-.25,0-.51-.08-.73.1a36.47,36.47,0,0,1-3.77,0,.32.32,0,0,0-.48,0l-.31.07-.07-.26c-.17-.42,0-1-.6-1.21a.32.32,0,0,0-.17-.33h0l-.17-.17h0a1.65,1.65,0,0,0-1.33-.58,20.66,20.66,0,0,0-3-.22,6.64,6.64,0,0,1-2.16-.3C42,106.05,43,102.49,44.24,99Z"/><polygon class="cls-3" points="61.63 93.42 61.63 93.41 61.64 93.41 61.63 93.42"/><path class="cls-3" d="M47.94,111.22h0Z"/><circle class="cls-6" cx="105.72" cy="114.98" r="5.06"/></svg>